<?xml version="1.0" encoding="UTF-8"?>
<svg id="Layer_2" data-name="Layer 2" xmlns="http://www.w3.org/2000/svg" viewBox="0 0 845.34 980.14">
  <defs>
    <style>
      .cls-1 {
        fill: #fff;
      }
    </style>
  </defs>
  <g id="Layer_1-2" data-name="Layer 1">
    <g>
      <path class="cls-1" d="M224.44,20.33C216.99,12.49,198.07.53,187.22.06c-1.06-.05-3.38.27-3.36,1.44.02.92,11.14,9.72,13.38,12.57,26.23,33.32,2.96,69.83,9.87,106.02,1.57,8.24,6.36,21.04,10.87,28.09,2.18,3.4,9.41,12.03,12.33,14.64.98.87,1.47,1.33,2.94,1.07,1.18-.21,10.42-17.54,12.49-20.55,7.91-11.5,17.9-24.19,28.86-32.57l.19-1.38c-.35-2.42-5.42-4.53-7.43-6.6-10.16-10.46-16.71-25.99-20.6-39.85-1.86-.21-.83,2.1-.7,3.2,1.02,9.08,3.29,19.56,7.16,27.81,2.42,5.15,8.76,11.53,7.54,17.43-.1.47-7.11-.89-8.39-1.6-5.07-2.82-12.8-23.36-14.53-29.43-2.55-8.93-7.47-34.29-7.05-42.91.05-1.13-.65-2.74.99-2.47l7.01,10.47c1.38,1.6,1.07-.98.8-1.78-2.12-6.14-10.59-18.55-15.14-23.34ZM660.37,0c-24.55,1.89-44.95,19.61-55.11,41.28-6.99,14.9-9.4,32.92-17.64,47.29-4.66,8.13-11.63,14.23-18.13,20.81,8.51,9.45,17.75,19.41,25.37,29.56,2.41,3.21,14.82,23.41,16.2,23.83,2.82.85,12.95-11.35,14.76-14.01,3.68-5.4,6.33-11.57,7.57-17.89-5.76,5.01-7.93,24.59-18.89,18.39-9.84-5.57-1.03-10.87,2.32-15.48,22.84-31.38.99-65.06,11.3-95.6.63-1.86,1.15-4.47,3.27-5.22l.12,8.39,2.88,9.59c.35-12.9,4.31-26.8,12.49-36.97,3.23-4.02,7.62-7.14,11.41-10.57,1.11-1.01,2.5-1.48,2.09-3.4ZM645.39,266.73c2.66-.81,5.89-3.64,8.01-5.48,50.95-44.3,97.44-94.14,147.83-138.89,8.86-7.87,21.26-11.61,21.07-24.98-.27-18.9-.32-39.06-2.08-57.92-.29-3.12-2.74-25.46-5.49-25.46-67.16,70.47-137.04,137.79-206.78,205.8-.19,39.24,1.87,78.7-.51,117.86l23.54-13.98-1.06-94.98,101.95-88.82,8.29,9.27c-.66,4.38-23.26,22.85-27.85,27.15-21.71,20.27-43.45,40.67-66.92,58.96v31.47ZM235.79,336.67v-112.39c0-.33.92-1.19,1-2.11l-.48-2.35c-37.4-39.09-77.48-75.78-115.94-113.89C90.09,75.91,60.78,44.94,30.47,14.99c-1.85-.31-1.25.15-1.72,1.23-4.52,10.35-4.17,33.54-4.72,45.26s-2.42,27.73-1.04,39.92c.89,7.81,9.37,10.89,15,15.97,40.29,36.37,78.83,75.1,118.88,111.89,13.59,12.49,26.32,26.25,40.94,37.48l1.54-30.94c-29.4-24.51-57.85-49.95-84.92-76.98-3.45-3.44-8.33-6.28-10.45-11.33,2.33-2.08,5.42-7.77,8.9-6.16l100.42,86.45c.82,17.13.63,34.34.55,51.49-.01,2.36-1.07,4.55-1.08,6.91-.07,12.04,1.71,24.01.26,35.9l22.76,14.59ZM449.36,457.34c.61-72.05-.96-144.06-.83-216.13,0-2.85,1.08-5.31,1.09-7.9.13-51.76.25-103.73-.56-155.37-12.19-12.53-25.67-19.05-42.18-9.25-3.59,2.13-11.76,8.67-12.3,12.68.77,124.67-.89,249.13-1,373.74.35,2.62,8.51,11.25,11.02,13.96s13.73,14.45,16.51,14.45c11.61-6.02,17.7-18.99,28.26-26.17ZM381.64,102.89c-12.7,1.88-26.23,7.72-37.64,13.81-24.3,12.98-49.52,37.43-64.07,60.8-3.9,6.27-23.16,42.19-20.02,47.12l35.77,13.11c10.42-48.71,40.86-92.38,85.96-114.36v-20.48ZM584.45,225.77c-7.82-35.39-31.05-68.7-57.93-92.41-17.68-15.59-40.67-26.65-63.95-30.45,2.24,6.66.69,14.02.11,20.85,33.33,16.77,62.67,48.55,75.56,83.79,3.73,10.21,6.11,20.84,9.26,31.22,2.83-1.5,15.19-3.92,15.82-6.59-3.34-17.84-8.84-33.09-18.01-48.67-4.19-7.11-10.55-16.88-15.83-23.13-8.54-10.12-24.4-21.16-31.46-30.48-1.42-1.87-2.87-3.36-2.47-6.01,3.89-3.72,23.53,13.37,26.98,16.46,18.51,16.62,35.28,39.04,44.71,62.19,2.27,5.58,5.65,22.07,7.74,25.23,1.75,2.65,6.64-2.85,9.49-2ZM197.82,312.68c.13-5.16-.15-10.36-.04-15.52.07-3.41,2.39-6.92.09-10-57.07-48.96-111.6-100.78-166.41-152.27L2.02,103.9.23,179.62c27.88,17.74,53.45,38.92,80.8,57.55,32.18,21.92,66.25,41.05,97.5,64.34l19.29,11.17ZM645.39,314.69l20.29-12.18c35.65-26.1,74.27-48.02,110.3-73.52,22.73-16.08,43.64-34.76,67.28-49.6,1.98-2.74.74-26.5.89-32.08.25-9.91,1.66-19.83,1.03-29.92-.13-2.02-1.18-12.51-2.49-12.48-12.14,11.54-22.97,24.29-34.95,35.99-24.19,23.62-50.48,46.49-75.46,69.37-28.71,26.3-56.62,53.35-86.9,77.94v26.47ZM305.72,125.89c-3.38-1.94-7.98-4.18-10.94-6.57-2.4-1.94-2.39-5.63-6.04-3.96-1.16.53-9.85,9.7-11.51,11.49-10.62,11.51-27.57,33.14-33.67,47.25-.45,1.05-1.28,2.43-.63,3.55,6.45,2.73,9.61,8.46,14.34,13.13,11.62-24.86,29.14-45.77,48.45-64.9ZM584.45,188.81c2.07,1.82,13.73-11.42,17.07-12.47l.5-1.56c-6.59-11.69-14.19-22.96-22.59-33.4-3.21-3.99-23.52-27.86-26.86-26.41l-.81,1.89-14.25,9.5c14.49,12.4,26.98,28.56,37.37,44.55,3.52,5.42,8.07,11.81,9.59,17.9ZM380.64,138.86c-1.69-.34-2.64.85-3.88,1.6-5.63,3.41-14.09,10.38-19.1,14.86-23.95,21.43-42.09,53.42-46.86,85.36,23.02,4.55,46.44,6.54,69.86,8.07v-109.89ZM533.5,240.75c-6.63-39.58-29.01-73.8-61.63-96.72-1.25-.88-8.49-6.09-9.3-5.17v109.88c23.76-1.89,47.62-2.79,70.93-7.99ZM607.42,354.65v25.48c0,.41-2.57,1.75.49,1.49,45.08-35.85,100.39-57.6,151.72-83.05,25.45-12.62,49.38-28.43,76.57-37.32,1.56-1.32,6.29-35.14,6.85-40.1.85-7.45.75-15.12,2.14-22.33-1.57-.38-2.31.31-3.52.97-9.45,5.17-24.32,19.58-34.13,26.81-16.98,12.52-34.7,23.11-52.18,34.73-48.52,32.26-96.61,65.66-147.94,93.32ZM236.78,354.65c-16-9.04-32.2-18.72-47.87-28.56-62.03-38.93-122.08-78.46-181.58-121.13-1.71-1.22-5.4-4.43-7.34-3.65l8.14,60.3c22.1,6.17,42.24,19.48,62.79,29.62,40.6,20.05,81.89,38.69,121.92,59.9,7.38,3.91,19.63,9.48,25.89,14.07,5.64,4.14,10.17,13.98,18.05,16.42v-26.97ZM380.63,263.75c-43.67-3.36-89.01-6.47-128.86-25.98-.3,15.65,1.05,31.49-2.01,46.92,24.78,11.85,51.4,20.23,78.59,24.84,13.89,2.35,37.06,6.07,50.63,5.78,1.17-.03,2.41-.76,3.66-.62l-2.01-50.93ZM592.43,238.77c-7.9,2.39-15.17,6.56-23.21,9.25-34.38,11.52-71.75,13.23-107.66,15.73v49.95c23.58.07,47.11-2.31,70.13-7.31,21.19-4.6,41.04-11.3,60.75-20.17v-47.45ZM708.33,368.63c37.18-16.14,74.55-33.1,113.87-43.46,2.35-1.41,2.73-11.29,3.47-14.51,1.01-4.32,8.69-31.28,7.52-32.93-41.32,23.64-84.2,44.79-127.72,64.08l2.86,26.83ZM134.88,366.63c-1.43-5.58,3.29-22.82.02-26.48l-123.89-60.42,12.95,45.49c38.36,9.48,74.01,28.08,110.92,41.42ZM312.71,417.59c-11.33-.59-23.94-12.29-30.38-21.07-10.14-13.83-11.81-26.49-12.61-43.33-.67-14.12.76-28.47-.44-42.56l-16.5-7.93c-.95,6.48.87,13.33,1.04,19.43.62,22.87-2.63,47.51,3.24,69.69,10.58,39.99,56.01,70.17,93.62,81.7-1.48-25.45-1.6-51.31-.16-76.74-23.13-10.02-40.36-32.54-43.78-57.63-.82-6.03-.68-13.21-1.14-19.34l-25.84-8.12c2.81,26.66-3.77,56.15,15.01,78.39,7.29,8.63,20.44,18.55,31.93,19.52l-1,30.96c-12.61-3.07-13.95-11.18-12.98-22.97ZM494.53,399.1c1.47,23.45-1.1,48.33,0,71.93l2.07,1.1c45.38-15.92,91.17-50.02,93.89-101.96,1.14-21.78-.94-44.59-.05-66.48l-16.03,6.65c-.34,13.91.59,27.94.09,41.84-.53,14.62-.45,32.26-9.62,44.33-9.39,12.35-24.11,14.46-37.21,21.23l.84,11.83,5.98-1.99c-1.91,8.36-9.88,12.64-17.97,12.98l-2-29.96c5.87.56,10.68-3.2,15.3-6.19,16.42-10.62,26.76-18.55,30.38-38.55,3.11-17.2,2.16-34.76,2.27-52.17l-22.9,6.06c1.45,12.15-.14,24.4-4.59,35.88-7.52,19.41-21.51,34.29-41.44,41.02-.39,1.02.97,2,1,2.45ZM818.21,343.66l-76.51,27.93,1.6,35c18.17-3.37,34.29-13.9,52.75-16.17,6.45-16.06,17.02-30.12,22.16-46.76ZM101.89,370.67l-72.9-26c-.35,3.46,2.47,5.7,3.86,8.62,4.83,10.09,9.56,25.09,14.92,34.04,3.13,5.23,5.05,2.47,9.59,3.4,14.28,2.93,27.56,13.3,42.56,14.89l1.98-34.94ZM200.82,371.64l-49.95-23.98-1.83,54.78,15.17,6.1,10.62-11.45c.34-2.11-.34-1.18-1.37-1.58-2.68-1.05-14.88-5.19-15.56-7.53l3.95-13.35c.78-.69,13.96,4.02,15.08,5.41,2.35,2.93-1.74,8.11.41,11.59,2.01-.62,4.17-.85,6.01-1.99,2.49-1.54,13.39-12.6,16.39-15.58.83-.82,1.43-.88,1.07-2.42ZM668.36,396.62c-1.3,1.78,8.23,11.67,10.54,12l16.29-6.66-3.87-53.31-48.92,27.47c8.13,4.93,14.89,12.28,23.95,15.48l.5-11,12.53-6.54,7.96,14.53-18.97,8.03ZM728.3,375.63l-18.85,7.1,2.85,28.8c-4.28,1.37-26.69,8.56-27.78,11.7-1.4,4.04.97,9.09.92,12.83-.08,5.77-2.56,14.98-.87,20.77.49,1.67,8.11,7.78,9.75,8.29,3.93,1.22,5-1.12,8.05-2.07,9.78-3.06,43.65-14.47,51.35-13.41,2.95.4,6.64,3.41,8.84,1.98l21.7-36.55c.39-2.24-.77-1.44-2.26-1.27-6.06.72-19.9,6.31-26.21,8.76-18.94,7.37-36.66,17.68-56.42,23l-1.97-13.93,32.83-13.7c-2.05-9.56-1.62-19.17-1.85-28.86-.11-4.45-1.44-8.49-.05-13.44ZM114.9,376.63v42.96l32.8,12.15-1.34,11.85-1.76.81c-28.35-5.69-53.24-24.32-81.35-30.61-3.78-.85-2.47,2.2-1.51,4.52,2.56,6.2,14.24,25.96,18.38,31.57,1.43,1.94,3.11,3.58,4.85,5.23,1.39.69,6.97-2.26,9.6-2.47,8.66-.69,34.03,6.45,43.54,9.19,3.04.88,5.7,2.05,8.46,3.56l13.14-10.5.07-33.21-26.78-10.17.42-28.89c-5.83-2.72-11.77-6.55-18.5-5.98ZM210.82,500.5l55.97-55.45c-2.82-4.46-6.9-7.74-9.84-12.16-4.8-7.21-8.64-19.97-13.17-25.79-3.18-4.09-12.83-9.61-17.45-13.52s-7.85-8.91-13.03-11.95c-12.24,19.24-37.41,23.2-39.49,49.41-.86,10.84.73,20.39,5.74,30.02l-4.7,3.98c5.04,3.53,9.09,8.31,14.05,11.93,2.45,1.79,6.36,2.59,8.45,4.54s4.91,8.36,7.47,11.51c2.11,2.6,6.02,3.26,6,7.5ZM630.42,500.5c8.59-2.88,11.57-13.63,16.92-19.52,9.35-10.31,17.56-9.43,21.54-26.42,7.86-33.62-3.97-41.79-26.5-60.44-2.89-2.39-7.86-9.46-11.48-9.44-2.72.01-24.35,15.98-26.99,18.9-5.32,5.87-9.4,17.59-14.05,24.91-4.01,6.32-8.81,11.74-13.43,17.56l54,54.44ZM291.38,494.16c1.55-1.6,10.55-10.95,10.87-11.67s.63-1.39.34-2.23l-4.78-5.28-8.41,4.32c-2.74-1.5-13.84-4.63-13.5-8.08.38-3.86,9.09-11.78,3.34-15.65-1.63,0-21.83,20.36-22.99,23-.34.76-.76,1.38-.38,2.25.65,2.48,17.42,16.71,20.44,20.63.99,1.29,1.59,2.36,1.45,4.05,4.32.56,5.45-4.02,7.96-6.51,1.81-1.8,4.22-3.33,5.67-4.82ZM543.66,477.67c-.21,1.73-2.78,3.4-3.01,4.51-.48,2.25,16.66,20.37,19.32,20.37,4.27-1.98,24.51-21.75,24.51-24.52l-20.5-20.49c-5.66,4.72,4.28,9.61.57,14.57-2.92,3.9-15.92,8.24-20.89,5.56ZM752.28,465.54c-11.94,2.83-25.21,5.66-36.74,9.7-1.35.47-6.93,2.01-6.2,3.77.37.88,11.11,12.08,12.95,14.03,1.08,1.14,5.15,5.69,6.41,5.43,2.82-3.72,26.71-29.78,23.58-32.92ZM136.88,479.51c-.58-1.91-2.83-2.41-4.45-3.03-5.06-1.92-29.58-8.29-34.02-8.04-1.54.09-2.58.21-3.49,1.61l20.62,27.38c2.82.47,16.1-18.23,21.34-17.92ZM681.23,516.62l-8.86,1.42-6.72-11.05c3.7-4.04,11.58-11.86,17.26-8.53.95.56,10.6,10.33,11.43,11.54,3.11,4.51.98,7.01,2.51,10.48.99,2.24,6.38,6.85,9,5.09,4.82-3.24,8.84-10.78,13.45-14.57l-37.42-36.44c-17.52,6.5-30.49,20.66-38.39,37.3l34.4,35.61,16.22-10.45c-3.2-7.54-11.06-11.52-12.88-20.4ZM157.62,476.75c-2.51.65-6.81,5.25-8.77,7.24-8.18,8.3-15.27,17.89-23.71,25.99l16.26,16.44c.96-2.02,6-7.25,6.32-8.64.68-2.89-3.05-5.12-.75-8.64.39-.6,10.27-8.81,10.92-9.11,5.88-2.74,14.88,5.66,17.98,9.95l-7.04,9.06-8.99-3.11-8.78,19.06,13.33,9.46,35.16-33.43c.11-1.31-7.81-12.65-9.29-14.42-5.56-6.61-23.72-22.14-32.63-19.84ZM508.52,490.53c-5.55-1.22-15.38,10.27-18.25,9.85-6.79-5.1-14.3-10.93-19.21-17.85l-39.47,41.94c4.84.94,22.19,23.98,24.48,23.98,9.77-10.6,21.41-20.25,30.98-30.94,7.69-8.59,13.79-18.4,21.46-26.98ZM327.71,483.52c-2.7,3.52,13.43,17.51,15.95,20.5,4.58,5.44,8.63,12.01,13.49,17.48,8.26,9.27,18.06,17.38,26.13,26.89l25.32-25.4-35.57-38.39-18.83,11.84c-9.34-3.37-19.28-5.61-26.49-12.91ZM613.35,506.44l-.41-1.96c-3.3-2.22-13.63-15.69-16.81-14.85l-24.6,24.23,46.87,43.59c-.86-6.34,4.15-7.57,7.52-10.96,1.98-1.99,14.55-13.89,14.33-15.32-.96-2.43-14.15-14.78-15.21-14.59-5.25,2.85-19.98,20.15-24.97,19.69-3.79-.35-8.82-7.49-5.54-11.17l18.81-18.65ZM269.74,513.51l-26.49-23.05-15.45,16.54c5.31,4.43,12.72,10.53,16.95,16.01,2.03,2.64,4.13,4.87,2.45,8.4l1.1,2.06c3.92.84,16.06-16.25,20.82-17.9l.63-2.06ZM610.07,573.78c-5.25-5.17-11.89-10.21-17.16-15.31-21.31-20.62-42.21-41.7-63.91-61.92l-61,62.89c4.93,2.77,11.55,16.59,17.24,14.27l44.67-46.19,54.51,54.4-55.56,54.37-42.82-41.87-30.23,32.46,23.24,24.46,10.49-10.52-12.97-13.99,9.47-9.44c7.05,8.84,14.36,17.59,23.46,24.46-9.55,11.1-15.59,24.67-29.46,31.29l-34.1-35.68c-3.12-.54-12.62,12.35-15.34,14.86l53.2,50.82c12.1-9.01,21.65-21.09,32.7-31.34,28.2-26.15,58.57-50.26,88.4-74.44,4.91-3.98,8.89-9.12,15.05-11.95,1.04-1.4-8.35-10.15-9.88-11.65ZM313.65,497.55l-92.85,88.86c11.76,4.49,21.37,13.53,30.98,21.48,24.21,20.02,51.16,42.5,73.93,63.94,10.97,10.33,20.15,22.4,32.32,31.41l51.49-51.52c.33-1.88-11.26-13.92-13.36-15.37-.84-.58-1.04-1.37-2.5-.97-2.86,6.51-8.93,10.87-13.52,15.96-6.57,7.3-11.81,16.08-20.83,20.93-10.8-8.62-20.11-18.75-27.61-30.37,6.86-6.18,15.52-13.72,20.82-21.17,1.06-1.49,1.84-3.52,2.18-5.33,2.75-.72,1.91,1.64,3.12,3.32,1.77,2.48,3.75,4.89,5.79,7.16l-11.92,14.96c4.5,1.38,7.43,10.77,11.56,7.58,6.66-8.83,13.93-17.49,22.4-24.54l-28.95-29.02-43.46,41.49-55.41-54.48,53.41-55.38,46.95,47.89,15.34-16.62-59.85-60.23ZM221.8,558.44c1.53.29,2.32-.15,3.54-.94,2.23-1.44,14.44-13.41,16.92-16.05.7-.75,1.83-1.17,1.51-2.47-3.3-2.38-6.9-4.32-10-6.99-2.94-2.53-14.2-15.42-16.45-15.48s-4.96,2.86-6.55,4.45c-1.77,1.78-9.3,10.31-9.04,11.94,3.66,1.49,4.59,4.57,7.04,7.09,5.13,5.29,16.05,10.76,13.02,18.45ZM418.71,586.34c1.27.88,4.35-2.03,5.41-2.9,7.84-6.35,14.91-17.52,22.38-24.64l-26.4-26.32c-7.85,9.43-18.44,16.45-25.33,26.63l23.94,27.22ZM626.41,564.46c-1.17,1.65,10.76,11.83,12.47,13.8,3.79-2.31,27.81-18.28,27.35-21.12-4.13-5.7-8.6-11.36-14.35-15.42-3.46-.28-20.15,21.42-25.48,22.74ZM215.8,564.46c-7.22-.98-20.13-20.7-24.67-21.89-3.07-.81-12.31,11.2-15.25,13.45l27.45,21.17c1.49-2.19,13.95-10.58,12.47-12.73ZM276.75,583.41l35.46,34.02,33.27-33.49c.03-2.14-16.51-17.45-19.29-20.48-3.79-4.13-8.69-12.4-12.4-15.57-1.09-.93-1.9-1.69-3.49-1.5l-33.54,37.02ZM565.46,583.41c.39-1.46-.38-1.66-.97-2.5-1.69-2.43-8.11-8.83-10.61-11.36-2.75-2.79-22.24-22.02-23.87-22.1l-34.49,37.47,33.35,32.41,36.59-33.92ZM444.71,613.26c2.97,1.72,15.01-11.22,17.37-13.84,1.43-1.59,10.17-11.91,10.37-12.7.87-3.35-11.97-14.86-14.42-18.25l-26.3,28.62,12.97,16.18ZM373.3,580.08c-1.4,1.6-5.42,2.68-4.17,6.28.52,1.49,7.34,9.21,9,11.06,4.69,5.24,10.18,9.91,15.14,14.9,1.74.3,14.36-13.71,14.97-15.89.39-1.41.19-1.45-.54-2.54-5.2-7.76-18.56-16.45-24.56-24.44-3.72,3.17-6.66,6.98-9.84,10.62ZM436.46,622.54l-16.22-15.06-16.55,16.27c6.28,5.79,10.52,13.72,18.39,17.64,1.45-3.41,15.87-16.18,14.37-18.85ZM421.1,661.37l-21.51,22.46c6.03,8.45,12.65,16.42,20.5,23.23,8.72-6.16,16.31-13.64,22.41-22.38.44-2.47-18.57-20.2-21.4-23.31ZM471.56,715.27c.89-1.32-14.51-19.08-16.5-18.91l-32.95,33.9c-12.15-10.99-24.1-22.69-33.49-35.95-2.89,3.65-18.28,15.55-18.03,19.42l52.37,48.41,48.6-46.87Z"/>
      <path d="M449.36,457.34c-10.56,7.18-16.65,20.15-28.26,26.17-2.78,0-14.02-11.74-16.51-14.45s-10.67-11.34-11.02-13.96c.11-124.61,1.77-249.07,1-373.74.54-4.01,8.7-10.54,12.3-12.68,16.51-9.8,29.99-3.28,42.18,9.25.81,51.64.69,103.61.56,155.37,0,2.59-1.08,5.05-1.09,7.9-.13,72.07,1.44,144.08.83,216.13ZM417.27,75.09c-.71.25-4.54,5.21-4.9,6.08-2.57,6.29,3.61,12.15,9.23,13.31,4.17.86,13.03-6.99,11.6-11.59-1.74-5.59-10.31-9.74-15.93-7.8ZM434.29,119.17l-13.03-9.09c-2.52,1.45-11.57,7.95-11.63,10.26-.08,3.25,9.42,11.83,12.45,13.52,2.62-.01,12.79-10.01,13.13-12.51l-.93-2.19ZM421.35,160.98c-3.75.91-8.76,8.49-12.68,10.33l13.43,15.48,13.41-14.33c-2.28-2.35-11.84-12.05-14.17-11.48ZM421.33,213.94c-4.08.65-9.78,8.32-12.54,11.32l13.32,13.53c3.07-1.86,12.84-10.44,12.54-13.47-.24-2.4-10.04-11.91-13.32-11.39ZM421.3,271.84l-12.45,12.37,14.11,14.43c2.68-2.32,11.69-11.45,11.61-14.44-1.44-2.71-10.65-13.04-13.27-12.36ZM420.62,360.64c1.75,1.24,4.76-4.28,5.95-5.52,3.11-3.23,6.29-6.39,10-8.96l-14.61-14.41-13.38,13.41,12.04,15.48ZM421.1,391.63c-1.84,2.68-13.87,10.77-13.41,13.33l13.52,15.58,15.36-14.44-15.47-14.47Z"/>
      <path d="M235.79,336.67l-22.76-14.59c1.45-11.89-.33-23.86-.26-35.9.01-2.36,1.07-4.55,1.08-6.91.08-17.15.27-34.36-.55-51.49l-100.42-86.45c-3.48-1.6-6.57,4.08-8.9,6.16,2.12,5.05,7,7.88,10.45,11.33,27.06,27.03,55.52,52.47,84.92,76.98l-1.54,30.94c-14.62-11.23-27.34-24.99-40.94-37.48-40.05-36.79-78.6-75.52-118.88-111.89-5.63-5.08-14.11-8.16-15-15.97-1.38-12.19.46-27.63,1.04-39.92s.2-34.91,4.72-45.26c.47-1.08-.14-1.54,1.72-1.23,30.3,29.95,59.62,60.92,89.9,90.93,38.46,38.12,78.54,74.8,115.94,113.89l.48,2.35c-.08.92-1,1.78-1,2.11v112.39Z"/>
      <path d="M645.39,266.73v-31.47c23.47-18.29,45.21-38.68,66.92-58.96,4.6-4.29,27.19-22.77,27.85-27.15l-8.29-9.27-101.95,88.82,1.06,94.98-23.54,13.98c2.39-39.16.32-78.62.51-117.86,69.74-68.01,139.62-135.33,206.78-205.8,2.75,0,5.2,22.34,5.49,25.46,1.76,18.86,1.81,39.02,2.08,57.92.19,13.38-12.21,17.12-21.07,24.98-50.39,44.76-96.88,94.59-147.83,138.89-2.12,1.84-5.34,4.67-8.01,5.48Z"/>
      <path d="M610.07,573.78c1.52,1.5,10.92,10.25,9.88,11.65-6.16,2.83-10.14,7.97-15.05,11.95-29.83,24.18-60.2,48.29-88.4,74.44-11.05,10.24-20.6,22.33-32.7,31.34l-53.2-50.82c2.72-2.51,12.22-15.4,15.34-14.86l34.1,35.68c13.88-6.62,19.92-20.2,29.46-31.29-9.1-6.87-16.41-15.62-23.46-24.46l-9.47,9.44,12.97,13.99-10.49,10.52-23.24-24.46,30.23-32.46,42.82,41.87,55.56-54.37-54.51-54.4-44.67,46.19c-5.69,2.32-12.31-11.5-17.24-14.27l61-62.89c21.7,20.22,42.6,41.3,63.91,61.92,5.27,5.1,11.91,10.13,17.16,15.31Z"/>
      <path d="M313.65,497.55l59.85,60.23-15.34,16.62-46.95-47.89-53.41,55.38,55.41,54.48,43.46-41.49,28.95,29.02c-8.47,7.05-15.74,15.71-22.4,24.54-4.13,3.19-7.05-6.2-11.56-7.58l11.92-14.96c-2.04-2.27-4.02-4.68-5.79-7.16-1.2-1.69-.37-4.04-3.12-3.32-.34,1.81-1.12,3.84-2.18,5.33-5.3,7.45-13.96,14.99-20.82,21.17,7.5,11.61,16.81,21.75,27.61,30.37,9.02-4.85,14.26-13.62,20.83-20.93,4.59-5.1,10.66-9.46,13.52-15.96,1.46-.4,1.66.39,2.5.97,2.11,1.45,13.7,13.49,13.36,15.37l-51.49,51.52c-12.16-9.02-21.34-21.08-32.32-31.41-22.77-21.44-49.72-43.92-73.93-63.94-9.61-7.95-19.22-16.99-30.98-21.48l92.85-88.86Z"/>
      <path d="M645.39,314.69v-26.47c30.29-24.59,58.19-51.64,86.9-77.94,24.98-22.88,51.27-45.76,75.46-69.37,11.98-11.69,22.81-24.45,34.95-35.99,1.31-.03,2.36,10.46,2.49,12.48.63,10.09-.78,20.01-1.03,29.92-.14,5.58,1.09,29.34-.89,32.08-23.64,14.85-44.55,33.52-67.28,49.6-36.03,25.5-74.65,47.42-110.3,73.52l-20.29,12.18Z"/>
      <path d="M197.82,312.68l-19.29-11.17c-31.26-23.28-65.33-42.42-97.5-64.34C53.68,218.54,28.11,197.36.23,179.62l1.79-75.72,29.43,30.99c54.81,51.49,109.34,103.31,166.41,152.27,2.3,3.08-.01,6.59-.09,10-.11,5.17.17,10.36.04,15.52Z"/>
      <path d="M607.42,354.65c51.33-27.66,99.42-61.06,147.94-93.32,17.48-11.63,35.2-22.22,52.18-34.73,9.81-7.23,24.68-21.64,34.13-26.81,1.21-.66,1.95-1.35,3.52-.97-1.39,7.21-1.29,14.88-2.14,22.33-.56,4.96-5.29,38.79-6.85,40.1-27.18,8.9-51.12,24.71-76.57,37.32-51.33,25.45-106.64,47.21-151.72,83.05-3.06.26-.49-1.08-.49-1.49v-25.48Z"/>
      <path d="M236.78,354.65v26.97c-7.88-2.44-12.41-12.28-18.05-16.42-6.26-4.59-18.51-10.17-25.89-14.07-40.04-21.21-81.32-39.85-121.92-59.9-20.55-10.15-40.69-23.45-62.79-29.62L0,201.31c1.94-.78,5.64,2.43,7.34,3.65,59.49,42.67,119.55,82.19,181.58,121.13,15.67,9.84,31.87,19.52,47.87,28.56Z"/>
      <path d="M312.71,417.59c-.96,11.79.37,19.9,12.98,22.97l1-30.96c-11.5-.96-24.65-10.88-31.93-19.52-18.78-22.24-12.2-51.73-15.01-78.39l25.84,8.12c.46,6.13.32,13.31,1.14,19.34,3.42,25.1,20.65,47.61,43.78,57.63-1.45,25.43-1.32,51.29.16,76.74-37.61-11.53-83.04-41.71-93.62-81.7-5.87-22.18-2.62-46.82-3.24-69.69-.17-6.1-1.99-12.96-1.04-19.43l16.5,7.93c1.19,14.09-.24,28.43.44,42.56.8,16.84,2.47,29.51,12.61,43.33,6.44,8.78,19.05,20.48,30.38,21.07Z"/>
      <path d="M494.53,399.1c-.03-.46-1.38-1.43-1-2.45,19.93-6.74,33.92-21.61,41.44-41.02,4.44-11.47,6.04-23.72,4.59-35.88l22.9-6.06c-.11,17.41.84,34.97-2.27,52.17-3.62,20-13.96,27.93-30.38,38.55-4.62,2.99-9.43,6.75-15.3,6.19l2,29.96c8.1-.34,16.07-4.63,17.97-12.98l-5.98,1.99-.84-11.83c13.11-6.77,27.82-8.87,37.21-21.23,9.17-12.07,9.09-29.71,9.62-44.33.51-13.9-.42-27.93-.09-41.84l16.03-6.65c-.89,21.89,1.19,44.7.05,66.48-2.72,51.94-48.51,86.04-93.89,101.96l-2.07-1.1c-1.1-23.6,1.47-48.48,0-71.93Z"/>
      <path d="M380.63,263.75l2.01,50.93c-1.25-.14-2.49.6-3.66.62-13.57.29-36.74-3.42-50.63-5.78-27.19-4.61-53.81-12.99-78.59-24.84,3.06-15.43,1.71-31.27,2.01-46.92,39.84,19.51,85.18,22.62,128.86,25.98ZM272.49,261.89c-1.28.24-5.83,3.27-6.74,4.33-5.56,6.45,3.17,19.83,13.49,11.5,8.12-6.56-.25-17.03-6.75-15.82ZM316.47,270.88c-8.59.87-12.89,9.94-6.3,16.88,5.1,5.38,9.51,4.22,13.53-1.55,4.58-6.57-2.53-15.81-7.23-15.33ZM356.41,275.87c-2.74.55-9.56,7.26-9.48,10.17.11,3.95,6.13,11.39,10.25,11.25s9.85-7.99,9.58-12.08c-.22-3.27-6.74-10.05-10.35-9.34Z"/>
      <path d="M592.43,238.77v47.45c-19.7,8.87-39.55,15.57-60.74,20.17-23.02,5-46.55,7.38-70.13,7.31v-49.95c35.91-2.5,73.29-4.2,107.66-15.73,8.04-2.7,15.31-6.86,23.21-9.25ZM567.2,261.89c-6.17,1.14-11.2,10.56-5.66,16.25,9,9.24,18.62-4.65,14.96-10.97-1.46-2.52-6.11-5.88-9.31-5.29ZM537.14,275.08c-1.94-2.24-6.2-5.18-9.17-3.42-5.67,3.36-8.83,10.57-4,16.1,9.29,10.64,19.37-5.51,13.17-12.68ZM486.27,275.9c-5.6,1.16-10.8,9.07-7.18,14.77,7.49,11.77,16.5,5.61,19.36-5.48-2.04-4.81-6.41-10.48-12.18-9.29Z"/>
      <path d="M224.44,20.33c4.55,4.78,13.02,17.2,15.14,23.34.27.8.59,3.38-.8,1.78l-7.01-10.47c-1.63-.27-.93,1.34-.99,2.47-.42,8.62,4.5,33.98,7.05,42.91,1.73,6.06,9.46,26.61,14.53,29.43,1.29.71,8.29,2.07,8.39,1.6,1.22-5.9-5.12-12.28-7.54-17.43-3.87-8.25-6.15-18.73-7.16-27.81-.12-1.1-1.16-3.41.7-3.2,3.89,13.86,10.43,29.39,20.6,39.85,2.01,2.07,7.08,4.18,7.43,6.6l-.19,1.38c-10.96,8.38-20.95,21.07-28.86,32.57-2.07,3.01-11.31,20.35-12.49,20.55-1.47.25-1.96-.2-2.94-1.07-2.92-2.6-10.16-11.24-12.33-14.64-4.51-7.05-9.3-19.85-10.87-28.09-6.91-36.19,16.36-72.69-9.87-106.02-2.25-2.85-13.37-11.65-13.38-12.57-.02-1.16,2.3-1.48,3.36-1.44,10.86.47,29.78,12.43,37.23,20.27Z"/>
      <path d="M533.5,240.75c-23.31,5.21-47.17,6.1-70.93,7.99v-109.88c.81-.91,8.05,4.3,9.3,5.17,32.62,22.92,55,57.13,61.63,96.72Z"/>
      <path d="M381.64,102.89v20.48c-45.1,21.98-75.54,65.65-85.96,114.36l-35.77-13.11c-3.14-4.93,16.12-40.85,20.02-47.12,14.55-23.37,39.77-47.82,64.07-60.8,11.41-6.09,24.93-11.93,37.64-13.81Z"/>
      <path d="M380.64,138.86v109.89c-23.41-1.54-46.83-3.53-69.85-8.07,4.77-31.93,22.91-63.93,46.86-85.36,5.02-4.49,13.48-11.45,19.1-14.86,1.25-.76,2.2-1.94,3.88-1.6ZM345.68,226.78l.55-10.01c-9.25-5.62-14.02-3.03-13.43,7.89l12.88,2.11Z"/>
      <path d="M660.37,0c.42,1.92-.98,2.39-2.09,3.4-3.78,3.44-8.18,6.56-11.41,10.57-8.18,10.17-12.14,24.07-12.49,36.97l-2.88-9.59-.12-8.39c-2.11.75-2.64,3.36-3.27,5.22-10.31,30.53,11.54,64.22-11.3,95.6-3.36,4.61-12.17,9.91-2.32,15.48,10.95,6.2,13.13-13.37,18.89-18.39-1.24,6.32-3.89,12.49-7.57,17.89-1.82,2.67-11.95,14.87-14.76,14.01-1.38-.42-13.79-20.62-16.2-23.83-7.62-10.15-16.86-20.1-25.37-29.56,6.51-6.58,13.47-12.68,18.13-20.81,8.24-14.38,10.65-32.39,17.64-47.29,10.16-21.67,30.57-39.39,55.11-41.28Z"/>
      <path d="M630.42,500.5l-54-54.44c4.62-5.82,9.42-11.25,13.43-17.56,4.65-7.32,8.73-19.04,14.05-24.91,2.64-2.91,24.27-18.88,26.99-18.9,3.62-.02,8.59,7.05,11.48,9.44,22.53,18.65,34.36,26.82,26.5,60.44-3.97,16.99-12.18,16.11-21.54,26.42-5.35,5.9-8.33,16.64-16.92,19.52ZM629.17,410.77c-8.88,1.01-20.26,12.81-22.8,21.24-9.84,32.62,33.48,47.99,44.2,21.22,4.19-10.47,4.2-23.23-2.77-32.57-3.51-4.7-12.65-10.57-18.63-9.9Z"/>
      <path d="M210.82,500.5c.02-4.24-3.89-4.9-6-7.5-2.56-3.15-5.36-9.54-7.47-11.51s-6-2.74-8.45-4.54c-4.96-3.62-9-8.4-14.05-11.93l4.7-3.98c-5.01-9.63-6.59-19.18-5.74-30.02,2.07-26.21,27.25-30.17,39.49-49.41,5.18,3.04,8.54,8.16,13.03,11.95s14.28,9.43,17.45,13.52c4.52,5.83,8.37,18.59,13.17,25.79,2.95,4.43,7.03,7.71,9.84,12.16l-55.97,55.45ZM210.55,410.79c-4.47.86-15.23,8.39-17.58,12.44-4.23,7.3-2.88,22.74.46,30.21,2.7,6.05,8.34,11.71,15.11,12.86,29.43,5,39.24-33.46,18.72-49.69-4.28-3.39-11.06-6.91-16.72-5.82Z"/>
      <path d="M584.45,225.77c-2.85-.85-7.73,4.65-9.49,2-2.09-3.16-5.46-19.65-7.74-25.23-9.42-23.15-26.2-45.57-44.71-62.19-3.45-3.1-23.09-20.18-26.98-16.46-.4,2.65,1.06,4.14,2.47,6.01,7.05,9.32,22.92,20.36,31.46,30.48,5.28,6.26,11.64,16.02,15.83,23.13,9.18,15.59,14.67,30.84,18.01,48.67-.63,2.67-12.98,5.09-15.82,6.59-3.15-10.38-5.52-21.01-9.26-31.22-12.89-35.24-42.23-67.02-75.56-83.79.57-6.83,2.13-14.18-.11-20.85,23.28,3.8,46.27,14.85,63.95,30.45,26.89,23.72,50.12,57.03,57.93,92.41Z"/>
      <path d="M708.33,368.63l-2.86-26.83c43.52-19.29,86.4-40.44,127.72-64.08,1.18,1.65-6.51,28.61-7.52,32.93-.75,3.22-1.13,13.1-3.47,14.51-39.32,10.37-76.69,27.32-113.87,43.46Z"/>
      <path d="M134.88,366.63c-36.91-13.34-72.56-31.94-110.92-41.42l-12.95-45.49,123.89,60.42c3.27,3.67-1.45,20.91-.02,26.48Z"/>
      <path d="M114.9,376.63c6.73-.58,12.67,3.25,18.5,5.98l-.42,28.89,26.78,10.17-.07,33.21-13.14,10.5c-2.76-1.51-5.42-2.68-8.46-3.56-9.5-2.75-34.88-9.88-43.54-9.19-2.62.21-8.21,3.16-9.6,2.47-1.74-1.65-3.42-3.29-4.85-5.23-4.14-5.61-15.82-25.37-18.38-31.57-.96-2.32-2.26-5.37,1.51-4.52,28.11,6.29,52.99,24.91,81.35,30.61l1.76-.81,1.34-11.85-32.8-12.15v-42.96Z"/>
      <path d="M728.3,375.63c-1.39,4.95-.05,8.99.05,13.44.23,9.69-.2,19.3,1.85,28.86l-32.83,13.7,1.97,13.93c19.76-5.31,37.48-15.63,56.42-23,6.31-2.46,20.15-8.04,26.21-8.76,1.49-.18,2.65-.97,2.26,1.27l-21.7,36.55c-2.2,1.43-5.89-1.57-8.84-1.98-7.7-1.06-41.57,10.35-51.35,13.41-3.05.95-4.11,3.3-8.05,2.07-1.64-.51-9.26-6.62-9.75-8.29-1.69-5.79.79-15,.87-20.77.05-3.74-2.32-8.79-.92-12.83,1.09-3.14,23.5-10.33,27.78-11.7l-2.85-28.8,18.85-7.1Z"/>
      <path d="M471.56,715.27l-48.6,46.87-52.37-48.41c-.25-3.87,15.14-15.77,18.03-19.42,9.38,13.26,21.33,24.96,33.49,35.95l32.95-33.9c1.99-.17,17.39,17.59,16.5,18.91Z"/>
      <path d="M818.21,343.66c-5.14,16.64-15.72,30.7-22.16,46.76-18.46,2.27-34.58,12.8-52.75,16.17l-1.6-35,76.51-27.93Z"/>
      <path d="M681.23,516.62c1.82,8.88,9.68,12.86,12.88,20.4l-16.22,10.45-34.4-35.61c7.9-16.64,20.87-30.8,38.39-37.3l37.42,36.44c-4.61,3.79-8.63,11.33-13.45,14.57-2.62,1.76-8.01-2.86-9-5.09-1.53-3.46.6-5.96-2.51-10.48-.83-1.21-10.48-10.98-11.43-11.54-5.67-3.33-13.56,4.49-17.26,8.53l6.72,11.05,8.86-1.42Z"/>
      <path d="M157.62,476.75c8.91-2.3,27.07,13.23,32.63,19.84,1.48,1.77,9.4,13.11,9.29,14.42l-35.16,33.43-13.33-9.46,8.78-19.06,8.99,3.11,7.04-9.06c-3.1-4.29-12.1-12.69-17.98-9.95-.64.3-10.53,8.52-10.92,9.11-2.3,3.52,1.43,5.76.75,8.64-.33,1.39-5.37,6.62-6.32,8.64l-16.26-16.44c8.43-8.1,15.53-17.68,23.71-25.99,1.96-1.99,6.27-6.6,8.77-7.24Z"/>
      <path d="M101.89,370.67l-1.98,34.94c-14.99-1.58-28.28-11.95-42.56-14.89-4.54-.93-6.45,1.83-9.59-3.4-5.36-8.94-10.09-23.95-14.92-34.04-1.4-2.92-4.21-5.16-3.86-8.62l72.9,26Z"/>
      <path d="M276.75,583.41l33.54-37.02c1.59-.18,2.4.57,3.49,1.5,3.71,3.17,8.61,11.44,12.4,15.57,2.78,3.03,19.32,18.33,19.29,20.48l-33.27,33.49-35.46-34.02ZM312.69,592.41l8.94-12.34-9.9-9.63c-1.53,5.79-8.6,7.01-11.99,11.49,3.74,3.1,8.83,5.05,10.89,9.85l2.06.63Z"/>
      <path d="M565.46,583.41l-36.59,33.92-33.35-32.41,34.49-37.47c1.62.09,21.12,19.32,23.87,22.1,2.5,2.54,8.92,8.94,10.61,11.36.59.84,1.37,1.04.97,2.5ZM542.48,581.45c-4.88-.24-8.04-10.51-11.48-11.05l-11.49,9.58c3.18,5.12,8.97,7.21,11.49,13.44,2.32-4.41,6.8-7.18,10.84-9.9l.63-2.06Z"/>
      <path d="M327.71,483.52c7.22,7.3,17.16,9.54,26.49,12.91l18.83-11.84,35.57,38.39-25.32,25.4c-8.07-9.51-17.87-17.61-26.13-26.89-4.86-5.46-8.92-12.04-13.49-17.48-2.52-2.99-18.65-16.99-15.95-20.5Z"/>
      <path d="M508.52,490.53c-7.68,8.58-13.78,18.39-21.46,26.98-9.57,10.69-21.21,20.33-30.98,30.94-2.28,0-19.63-23.04-24.48-23.98l39.47-41.94c4.9,6.92,12.42,12.75,19.21,17.85,2.87.41,12.7-11.07,18.25-9.85Z"/>
      <path d="M613.35,506.44l-18.81,18.65c-3.29,3.68,1.74,10.82,5.54,11.17,4.99.46,19.72-16.83,24.97-19.69,1.06-.19,14.24,12.16,15.21,14.59.22,1.43-12.35,13.33-14.33,15.32-3.37,3.39-8.38,4.62-7.52,10.96l-46.87-43.59,24.6-24.23c3.18-.84,13.51,12.63,16.81,14.85l.41,1.96Z"/>
      <path d="M584.45,188.81c-1.51-6.09-6.06-12.48-9.59-17.9-10.39-16-22.88-32.16-37.37-44.55l14.25-9.5.81-1.89c3.35-1.46,23.65,22.42,26.86,26.41,8.4,10.44,16.01,21.71,22.59,33.4l-.5,1.56c-3.34,1.05-15,14.28-17.07,12.47Z"/>
      <path d="M305.72,125.89c-19.31,19.13-36.83,40.04-48.45,64.9-4.73-4.67-7.89-10.39-14.34-13.13-.65-1.12.18-2.5.63-3.55,6.11-14.11,23.06-35.74,33.67-47.25,1.66-1.79,10.35-10.97,11.51-11.49,3.65-1.67,3.64,2.02,6.04,3.96,2.95,2.39,7.55,4.63,10.94,6.57Z"/>
      <path d="M200.82,371.64c.36,1.54-.24,1.6-1.07,2.42-3,2.98-13.89,14.04-16.39,15.58-1.83,1.13-3.99,1.37-6.01,1.99-2.15-3.49,1.94-8.66-.41-11.59-1.11-1.39-14.3-6.1-15.08-5.41l-3.95,13.35c.67,2.34,12.88,6.49,15.56,7.53,1.03.4,1.71-.53,1.37,1.58l-10.62,11.45-15.17-6.1,1.83-54.78,49.95,23.98Z"/>
      <path d="M668.36,396.62l18.97-8.03-7.96-14.53-12.53,6.54-.5,11c-9.06-3.2-15.82-10.55-23.95-15.48l48.92-27.47,3.87,53.31-16.29,6.66c-2.32-.33-11.84-10.22-10.54-12Z"/>
      <path d="M418.71,586.34l-23.94-27.22c6.89-10.18,17.48-17.2,25.33-26.63l26.4,26.32c-7.48,7.11-14.54,18.29-22.38,24.64-1.07.86-4.15,3.77-5.41,2.9ZM411.62,563.43c7.52,2.79,10.27,6.82,16.96-.48l-7.47-9.47c-2.01,1.34-2.97,3.86-4.59,5.38-1.93,1.8-5.46,1.92-4.9,4.58Z"/>
      <path d="M421.1,661.37c2.83,3.11,21.84,20.84,21.4,23.31-6.1,8.74-13.69,16.22-22.41,22.38-7.85-6.82-14.47-14.78-20.5-23.23l21.51-22.46Z"/>
      <path d="M291.38,494.16c-1.45,1.49-3.86,3.02-5.67,4.82-2.51,2.49-3.64,7.08-7.96,6.51.15-1.69-.45-2.76-1.45-4.05-3.02-3.92-19.8-18.15-20.44-20.63-.38-.88.05-1.49.38-2.25,1.16-2.64,21.36-23.01,22.99-23,5.75,3.87-2.96,11.79-3.34,15.65-.34,3.45,10.76,6.58,13.5,8.08l8.41-4.32,4.78,5.28c.29.84,0,1.48-.34,2.23s-9.32,10.07-10.87,11.67Z"/>
      <path d="M444.71,613.26l-12.97-16.18,26.3-28.62c2.45,3.4,15.28,14.9,14.42,18.25-.21.79-8.94,11.11-10.37,12.7-2.35,2.62-14.4,15.56-17.37,13.84Z"/>
      <path d="M543.66,477.67c4.96,2.68,17.96-1.66,20.89-5.56,3.72-4.96-6.23-9.85-.57-14.57l20.5,20.49c0,2.76-20.24,22.53-24.51,24.52-2.66,0-19.8-18.12-19.32-20.37.23-1.11,2.8-2.78,3.01-4.51Z"/>
      <path d="M373.3,580.08c3.18-3.65,6.12-7.46,9.84-10.62,6,7.99,19.36,16.67,24.56,24.44.73,1.1.93,1.13.54,2.54-.61,2.18-13.23,16.19-14.97,15.89-4.96-4.99-10.44-9.66-15.14-14.9-1.66-1.85-8.48-9.58-9-11.06-1.25-3.6,2.77-4.68,4.17-6.28Z"/>
      <path d="M221.8,558.44c3.03-7.68-7.89-13.16-13.02-18.45-2.45-2.52-3.38-5.6-7.04-7.09-.26-1.63,7.26-10.16,9.04-11.94,1.58-1.59,4.22-4.51,6.55-4.45s13.51,12.95,16.45,15.48c3.1,2.67,6.7,4.62,10,6.99.32,1.3-.81,1.72-1.51,2.47-2.48,2.64-14.69,14.6-16.92,16.05-1.22.79-2.01,1.24-3.54.94Z"/>
      <path d="M269.74,513.51l-.63,2.06c-4.76,1.65-16.9,18.74-20.82,17.9l-1.1-2.06c1.68-3.53-.41-5.76-2.45-8.4-4.23-5.48-11.64-11.58-16.95-16.01l15.45-16.54,26.49,23.05Z"/>
      <path d="M626.41,564.46c5.33-1.32,22.02-23.02,25.48-22.74,5.75,4.06,10.21,9.71,14.35,15.42.45,2.84-23.56,18.81-27.35,21.12-1.71-1.97-13.64-12.14-12.47-13.8Z"/>
      <path d="M215.8,564.46c1.48,2.15-10.98,10.53-12.47,12.73l-27.45-21.17c2.94-2.25,12.18-14.25,15.25-13.45,4.54,1.19,17.45,20.91,24.67,21.89Z"/>
      <path d="M752.28,465.54c3.13,3.14-20.76,29.2-23.58,32.92-1.27.27-5.34-4.29-6.41-5.43-1.84-1.94-12.59-13.15-12.95-14.03-.73-1.76,4.84-3.3,6.2-3.77,11.54-4.04,24.8-6.86,36.74-9.7Z"/>
      <path d="M436.46,622.54c1.5,2.67-12.92,15.44-14.37,18.85-7.88-3.92-12.11-11.84-18.39-17.64l16.55-16.27,16.22,15.06Z"/>
      <path d="M136.88,479.51c-5.24-.31-18.51,18.39-21.34,17.92l-20.62-27.38c.91-1.4,1.95-1.52,3.49-1.61,4.44-.25,28.96,6.12,34.02,8.04,1.63.62,3.87,1.12,4.45,3.03Z"/>
      <path class="cls-1" d="M421.1,391.63l15.47,14.47-15.36,14.44-13.52-15.58c-.45-2.56,11.58-10.65,13.41-13.33Z"/>
      <path class="cls-1" d="M420.62,360.64l-12.04-15.48,13.38-13.41,14.61,14.41c-3.71,2.57-6.89,5.73-10,8.96-1.19,1.23-4.19,6.76-5.95,5.52Z"/>
      <path class="cls-1" d="M421.3,271.84c2.62-.69,11.82,9.64,13.27,12.36.08,2.99-8.93,12.12-11.61,14.44l-14.11-14.43,12.45-12.37Z"/>
      <path class="cls-1" d="M421.33,213.94c3.28-.52,13.08,8.98,13.32,11.39.3,3.03-9.47,11.61-12.54,13.47l-13.32-13.53c2.76-3.01,8.46-10.67,12.54-11.32Z"/>
      <path class="cls-1" d="M421.35,160.98c2.32-.57,11.89,9.14,14.17,11.48l-13.41,14.33-13.43-15.48c3.92-1.84,8.93-9.42,12.68-10.33Z"/>
      <path class="cls-1" d="M434.29,119.17l.93,2.19c-.35,2.51-10.51,12.5-13.13,12.51-3.03-1.69-12.53-10.27-12.45-13.52.06-2.32,9.1-8.81,11.63-10.26l13.03,9.09Z"/>
      <path class="cls-1" d="M417.27,75.09c5.61-1.94,14.19,2.21,15.93,7.8,1.43,4.6-7.43,12.45-11.6,11.59-5.62-1.16-11.8-7.02-9.23-13.31.36-.87,4.18-5.84,4.9-6.08Z"/>
      <path class="cls-1" d="M356.41,275.87c3.61-.72,10.13,6.07,10.35,9.34.27,4.09-5.39,11.94-9.58,12.08s-10.14-7.29-10.25-11.25c-.08-2.91,6.73-9.62,9.48-10.17Z"/>
      <path class="cls-1" d="M316.47,270.88c4.7-.48,11.81,8.77,7.23,15.33-4.02,5.77-8.43,6.93-13.53,1.55-6.58-6.94-2.29-16.01,6.3-16.88Z"/>
      <path class="cls-1" d="M272.49,261.89c6.5-1.21,14.87,9.26,6.75,15.82-10.32,8.33-19.05-5.04-13.49-11.5.91-1.06,5.46-4.09,6.74-4.33Z"/>
      <path class="cls-1" d="M486.27,275.9c5.76-1.2,10.14,4.48,12.18,9.29-2.86,11.1-11.86,17.25-19.36,5.48-3.63-5.7,1.58-13.61,7.18-14.77Z"/>
      <path class="cls-1" d="M567.2,261.89c3.19-.59,7.84,2.77,9.31,5.29,3.66,6.32-5.96,20.21-14.96,10.97-5.55-5.7-.52-15.12,5.66-16.25Z"/>
      <path class="cls-1" d="M537.14,275.08c6.2,7.17-3.88,23.32-13.17,12.68-4.82-5.53-1.67-12.73,4-16.1,2.97-1.76,7.23,1.18,9.17,3.42Z"/>
      <path class="cls-1" d="M345.68,226.78l-12.88-2.11c-.59-10.93,4.18-13.52,13.43-7.89l-.55,10.01Z"/>
      <path class="cls-1" d="M629.17,410.77c5.98-.68,15.12,5.19,18.63,9.9,6.97,9.34,6.96,22.1,2.77,32.57-10.72,26.76-54.04,11.39-44.2-21.22,2.55-8.44,13.92-20.24,22.8-21.24ZM629.05,425.66c-9.09,4.85-12.52,18.72-3.71,25.45,6.57,5.02,11.99-6.41,15.91-10.19.43-2.16-9.83-15.68-12.2-15.26Z"/>
      <path class="cls-1" d="M210.55,410.79c5.66-1.09,12.44,2.43,16.72,5.82,20.52,16.23,10.71,54.69-18.72,49.69-6.78-1.15-12.41-6.81-15.11-12.86-3.34-7.47-4.69-22.91-.46-30.21,2.34-4.05,13.1-11.57,17.58-12.44ZM207.11,449.28c3.96,4.88,8.25,2.58,12.17-.74,9.72-8.23,3.37-19.71-6.14-24.81-8.34,2.03-10.03,20.61-6.03,25.55Z"/>
      <path class="cls-1" d="M312.69,592.41l-2.06-.63c-2.06-4.8-7.15-6.75-10.89-9.85,3.39-4.48,10.46-5.7,11.99-11.49l9.9,9.63-8.94,12.34Z"/>
      <path class="cls-1" d="M542.48,581.45l-.63,2.06c-4.04,2.72-8.53,5.5-10.84,9.9-2.52-6.23-8.31-8.33-11.49-13.44l11.49-9.58c3.44.54,6.6,10.81,11.48,11.05Z"/>
      <path class="cls-1" d="M411.62,563.43c-.56-2.66,2.97-2.78,4.9-4.58,1.63-1.52,2.58-4.03,4.59-5.38l7.47,9.47c-6.7,7.3-9.44,3.28-16.96.48Z"/>
      <path d="M629.05,425.66c2.37-.43,12.62,13.09,12.2,15.26-3.92,3.79-9.34,15.21-15.91,10.19-8.81-6.73-5.38-20.61,3.71-25.45Z"/>
      <path d="M207.11,449.28c-4-4.94-2.32-23.52,6.03-25.55,9.52,5.1,15.86,16.57,6.14,24.81-3.92,3.32-8.21,5.63-12.17.74Z"/>
    </g>
    <g>
      <path d="M248.93,824.16l-4.56,5.17-.61.68.14,4.69-1.09,1.63,1.09.95.41,8.43-3.4.2-3.94-.41.75-9.72.61-2.11-.82-.88.07-17,.14-.34v-11.15l-.34-2.79-.14-4.56,3.26-1.43,2.18-.82,6.12,6.32.27,1.16,1.43.48,7.07,7.48-.14,4.69-2.11,2.58-2.18,2.11-4.22,4.62ZM243.83,821.58l1.97-2.11,3.4-4.01.75.2.68-1.7,1.09-1.56-2.92-3.26-.48-.95-.61-.41-3.94-4.42-.07,4.83.07,3.26-.68,2.11.75,1.36v6.66Z"/>
      <path d="M275.93,824.37l.07,7.41.2,6.8.2.61.07,5.64-2.72,1.09-4.49-.41.41-10.81,1.02-2.65-.61-.88v-2.65l-.27-7.96-.14-3.54.54-1.36-.34-12.99-.27-5.85,5.37-2.18,10.81,9.38.41,1.7c.07.07,1.16-.27,1.22-.27l3.26,2.99-.48,4.08-3.13,3.81-2.18,2.58-1.16,1.43-1.9,2.58c.48.95,1.29,2.11,1.7,2.92v1.16c.54.61.95.95,1.43,1.63l2.72,4.62v.88l.41.2.95,1.97v-.07l1.22,2.58,2.24,2.38-.07,1.97-5.51,3.06-1.63-2.65-2.38-5.44.07-1.16-.82-.41-2.52-4.76-.61-1.56-2.72-5.51-.41-.41ZM275.93,820.9l.48-.27,3.4-4.21c.95-1.16,2.58-3.26,3.47-4.49l.75-.95-1.36-1.7-.48-.34-6.26-6.19-.14,5.24v.68l-.54,1.29.27,1.22.14.41.14.75.27,6.05-.14,2.52Z"/>
      <path d="M316.12,795.47l1.36,3.74,3.47,8.5.34,1.84h.68l1.84,4.08,2.31,5.03-.2,3.74-3.33,6.73-.54.68-.07,1.09-1.56,3.26-3.67,8.7-.82,2.18-.14.75-6.19-.07-.07-2.24-2.38-5.92.2-1.16h-.75l-2.04-4.21-2.45-5.78-1.63-3.47-.14-4.28.54-.34,3.67-8.91,1.22-.88-.34-.75,3.67-9.18.27-.41.41-2.04.14-.48h2.52l.61-.07,3.06-.14ZM313.46,837.83l2.18-7.14.82-.82h-.07l-.07-1.22,3.33-8.16-.54-1.7-.82-2.31-2.65-6.87.61-.82-1.22-.75-1.56-4.15-.41-1.29-3.74,9.86-.95.27.48,1.09-2.24,5.85.07.82.88,2.24.61,1.97-.68.82,1.36.95,1.36,2.79,2.99,7.82.27.75Z"/>
      <path d="M339.58,812.88l-.2-11.49.88-1.09-1.22-.68v-3.81l6.46-.14.88,2.38-.82,5.98.27,18.97-.75.54.54,2.04.82,11.69-1.09,1.9-2.18,1.9-1.84.27.07,1.36-5.03,4.08-3.74-2.79v-3.54l2.99-1.22,2.99-1.97,1.02-1.43-.14-.61.27-7.41v-2.65l-.07-.95-.07-4.21.34-3.74-.41-3.4Z"/>
      <path d="M376.16,802.13l-1.63-.54-.2.07-1.09.2-3.74-.14h-.61v.75l-.14,1.7v6.73l-.34,2.04-.75,1.22.68.54.14,2.65,2.52.14,2.65-.14,3.47-.34.88,1.7-.41,2.04-.14,2.79-3.33-.14-4.28-.14h-1.09l-.27,7,.41,1.97-.2.61.07.14.14,6.6.61.14.54.14,5.44-.07,1.7-.54,3.4.07-.14,3.4-.27,2.52-1.56.68-4.49-.07-3.88-.41h-2.38l-.54.34-5.1-.07-.34-2.79.41-4.62-.07-.75.07-3.13.82-1.77-.61-.82v-1.56l-.07-3.67.27-.54-.54-6.73.2-2.52v-5.03l.07-5.3-.07-3.47.75-1.16-.75-.88-.34-4.83,3.2-.41h3.88l.95.54,2.65-.54,6.73-.07.07,2.65-.14,3.81h-3.2Z"/>
      <path d="M389.01,823.14l-.07-4.35,4.42-7.48,2.45-2.38v-1.63l1.7-2.72v-.27l3.81-6.25.07-.54,2.38-2.79,5.1,3.4-1.9,3.4-1.9,2.65-1.16.75-.34,1.84-4.08,6.05-2.24,3.54-1.29,2.31-.88,1.63,1.02,1.97.68,1.29.95.95.61,1.36,2.52,3.88,3.13,5.3,3.54,4.62,1.56,2.52-3.54,2.92-2.31,1.5-2.31-3.6-.14-.82-5.17-8.02.54-1.22-3.13-2.92-2.45-4.42-1.56-2.45Z"/>
      <path d="M438.99,795.67l.41,2.86-.2,3.2h-3.06l-.68-.2-2.04-.14h-2.11l-.41,2.86.27,1.5-.14,5.03c0,.61,0,2.31.07,2.72,0,.54.07,1.16.07,1.63v1.16l.07,5.24-.61,4.08-.07.07.82,1.29v12.78l.54,4.83-1.97,1.09-1.9.34-3.6-.54v-5.24l1.02-4.28-.61-.68.34-9.59.34-13.87-.41-3.2.27-4.35-.41-2.79-1.5-.2-.34.34c-.48.14-.88.2-1.09.2l-4.15.14-.82-.82.2-5.58,6.6.34,1.29.54c.41,0,1.02-.48,1.56-.48,1.02.07,1.9.07,2.86.07l3.13-.2,6.26-.14Z"/>
      <path d="M484.96,831.23l-.95.14h-.07l-1.36.95-4.56,1.09-.61.27-1.36.54-.75,4.83-.61.75.48,1.9-.75,4.56-4.22-.41-2.38-1.5,1.84-8.3.68-4.28.75-.75-.07-1.36,1.36-8.36.2-1.29.41-1.43v-1.22l2.04-9.11,1.22-1.43-.75-1.02.48-2.72.61-2.86.68-4.28,5.58-.27,1.16.54-.07,2.38.2.54.27.68,2.18,10.4-.48,1.22.82.61,3.26,16.39v.95l1.7,6.32.68,4.28-.41.54,1.02,1.09.75,2.92-5.03,1.63h-.88l-1.16-.61-.88-8.57-.27-1.9.54-.68-.61-.41-.54-2.24-.14-.54ZM477.95,822.8l.07-.07-.82,4.42-.07.48,4.42-1.36,1.9-.48-1.36-7.34-.27-3.54-.27-1.22-1.02-7.21-1.36,8.3-.68.34.34,1.09-.88,6.59Z"/>
      <path d="M520.32,802.13l-1.63-.54-.2.07-1.09.2-3.74-.14h-.61v.75l-.14,1.7v6.73l-.34,2.04-.75,1.22.68.54.14,2.65,2.52.14,2.65-.14,3.47-.34.88,1.7-.41,2.04-.14,2.79-3.33-.14-4.28-.14h-1.09l-.27,7,.41,1.97-.2.61.07.14.14,6.6.61.14.54.14,5.44-.07,1.7-.54,3.4.07-.14,3.4-.27,2.52-1.56.68-4.49-.07-3.88-.41h-2.38l-.54.34-5.1-.07-.34-2.79.41-4.62-.07-.75.07-3.13.82-1.77-.61-.82v-1.56l-.07-3.67.27-.54-.54-6.73.2-2.52v-5.03l.07-5.3-.07-3.47.75-1.16-.75-.88-.34-4.83,3.2-.41h3.88l.95.54,2.65-.54,6.73-.07.07,2.65-.14,3.81h-3.2Z"/>
      <path d="M547.38,826.81l-2.31-2.79-1.36-.61-5.24-4.83-3.26-3.2-.07-4.28,3.33-4.76,3.47-4.01-.14-.75,1.77-2.38,1.36-.88c.14-.27-.14-.61-.07-.82l1.63-2.72,2.04.2,4.01,3.2-1.84,2.72-1.77,1.77-.61,1.22-3.88,4.56-.68.95-.14.48-2.04,2.72,1.29,1.56,1.29,1.84,1.09.68,6.32,5.92,1.84,1.36.14,5.3-2.45,4.01-3.67,4.49-2.72,3.67c-.27.48-.48,1.02-.68,1.43l.07-.27-.75,2.18-1.84,2.24-5.58-3.47,1.02-2.52,1.29-1.16c.68-.95,1.16-1.7,1.77-2.65.41-.68.75-1.29,1.16-1.97l1.9-.88-.14-.75,4.42-6.8Z"/>
      <path d="M566.63,814.44l-.2-13.6.54-1.22-.61-.34-.34-3.4,3.2-.2,4.42.27-.34,4.96-.34,1.7-.2,8.91-.2,3.47.27,2.65.14,1.7-.61,1.43.75.48v18.83l.14,1.02.14,1.29-.07,2.52-2.99.95-1.43-.07-3.13-.07.95-6.05.82-1.36-.82-1.16v-15.16l.2-2.11.2-3.74-.48-1.7Z"/>
      <path d="M595.59,824.37l.07,7.41.2,6.8.2.61.07,5.64-2.72,1.09-4.49-.41.41-10.81,1.02-2.65-.61-.88v-2.65l-.27-7.96-.14-3.54.54-1.36-.34-12.99-.27-5.85,5.37-2.18,10.81,9.38.41,1.7c.07.07,1.16-.27,1.22-.27l3.26,2.99-.48,4.08-3.13,3.81-2.18,2.58-1.16,1.43-1.9,2.58c.48.95,1.29,2.11,1.7,2.92v1.16c.54.61.95.95,1.43,1.63l2.72,4.62v.88l.41.2.95,1.97v-.07l1.22,2.58,2.24,2.38-.07,1.97-5.51,3.06-1.63-2.65-2.38-5.44.07-1.16-.82-.41-2.52-4.76-.61-1.56-2.72-5.51-.41-.41ZM595.59,820.9l.48-.27,3.4-4.21c.95-1.16,2.58-3.26,3.47-4.49l.75-.95-1.36-1.7-.48-.34-6.25-6.19-.14,5.24v.68l-.54,1.29.27,1.22.14.41.14.75.27,6.05-.14,2.52Z"/>
    </g>
    <g>
      <path d="M274.78,944.86l-.78-12.66.45-10.98-.78-6.94-.34-7.39.34-2.24-.78-6.94,2.69-1.79,9.63,1.23-.45,8.06-.56,6.83-1.34,2.13,1.23,1.01-.45,7.39,1.01,10.86.22-.11,4.7-1.68,1.79.67,1.01-1.23,4.59-2.02,2.13-1.01,1.23-.56.45-3.02-.34-10.19-.22-10.08-.56-4.48,1.68-3.25,4.14.11,6.38.22-.34,5.6-.67,6.38v-.11l-.11,4.26-1.12,1.46,1.01,3.25-.56,10.53.34,5.04.22,2.24.22,20.05.22,14.34.78,2.8.22,6.16-4.14.22h-6.5l-1.46-3.92.78-12.54,1.12-1.01-1.68-1.79.22-17.25-.34-1.57.11-2.02-6.5,1.46h-.11l-8.74,3.7-.56,19.49-.11.34.67,5.94.34,5.04-.11,4.14-4.59.22-7.06-.67.34-7.5,1.79-2.13-1.57-1.68-.22-7.06,1.01-15.34Z"/>
      <path d="M354.74,907.11l-2.69-.9-.34.11-1.79.34-6.16-.22h-1.01v1.23l-.22,2.8v11.09l-.56,3.36-1.23,2.02,1.12.9.22,4.37,4.14.22,4.37-.22,5.71-.56,1.46,2.8-.67,3.36-.22,4.59-5.49-.22-7.06-.22h-1.79l-.45,11.54.67,3.25-.34,1.01.11.22.22,10.86,1.01.22.9.22,8.96-.11,2.8-.9,5.6.11-.22,5.6-.45,4.14-2.58,1.12-7.39-.11-6.38-.67h-3.92l-.9.56-8.4-.11-.56-4.59.67-7.62-.11-1.23.11-5.15,1.34-2.91-1.01-1.34v-2.58l-.11-6.05.45-.9-.9-11.09.34-4.14v-8.29l.11-8.74-.11-5.71,1.23-1.9-1.23-1.46-.56-7.95,5.26-.67h6.38l1.57.9,4.37-.9,11.09-.11.11,4.37-.22,6.27h-5.26Z"/>
      <path d="M388.34,943.74l.11,12.21.34,11.2.34,1.01.11,9.3-4.48,1.79-7.39-.67.67-17.81,1.68-4.37-1.01-1.46v-4.37l-.45-13.1-.22-5.82.9-2.24-.56-21.39-.45-9.63,8.85-3.58,17.81,15.46.67,2.8c.11.11,1.9-.45,2.02-.45l5.38,4.93-.78,6.72-5.15,6.27-3.58,4.26-1.9,2.35-3.14,4.26c.78,1.57,2.13,3.47,2.8,4.82v1.9c.9,1.01,1.57,1.57,2.35,2.69l4.48,7.62v1.46l.67.34,1.57,3.25v-.11l2.02,4.26,3.7,3.92-.11,3.25-9.07,5.04-2.69-4.37-3.92-8.96.11-1.9-1.34-.67-4.14-7.84-1.01-2.58-4.48-9.07-.67-.67ZM388.34,938.03l.78-.45,5.6-6.94c1.57-1.9,4.26-5.38,5.71-7.39l1.23-1.57-2.24-2.8-.78-.56-10.3-10.19-.22,8.62v1.12l-.9,2.13.45,2.02.22.67.22,1.23.45,9.97-.22,4.14Z"/>
      <path d="M448.94,917.19l.11.11,1.9-2.91,3.58-6.5,1.68-.56-.9-1.9,5.82-9.74,5.49,1.01,3.02,1.34-.78,16.58-1.34,2.58,1.12,1.57.9,36.06-.56,7.06.78,6.16.22,3.58.67,7.06-9.3.45-2.69-1.68-.34-4.82.78-7.39v-11.98l1.34-2.02-1.23-1.12-.45-5.15.78-24.42-.45-4.14-1.01,1.79-1.9,2.46v1.12l-1.46,2.69-1.57,4.03-4.03.78-3.02-.11-2.69-5.26-.45-.9-.78-1.79-2.35-4.59-.22,7.5v.11l.11.11v15.46l-.78,1.9.78,15.9.22,16.46v4.82l-10.53.22-.9-4.26,1.46-4.14-1.01-2.69v-5.15l.67-30.8,1.79-1.9-1.79-1.23.11-10.08-.34-5.49-.34-5.49.9-1.57-.11-.56-1.01-1.46-.11-1.12-.11-6.27,4.82-.34,4.14-.56,5.04,10.19,6.27,10.98Z"/>
      <path d="M510.87,896.14l2.24,6.16,5.71,14,.56,3.02h1.12l3.02,6.72,3.81,8.29-.34,6.16-5.49,11.09-.9,1.12-.11,1.79-2.58,5.38-6.05,14.34-1.34,3.58-.22,1.23-10.19-.11-.11-3.7-3.92-9.74.34-1.9h-1.23l-3.36-6.94-4.03-9.52-2.69-5.71-.22-7.06.9-.56,6.05-14.67,2.02-1.46-.56-1.23,6.05-15.12.45-.67.67-3.36.22-.78h4.14l1.01-.11,5.04-.22ZM506.5,965.91l3.58-11.76,1.34-1.34h-.11l-.11-2.02,5.49-13.44-.9-2.8-1.34-3.81-4.37-11.31,1.01-1.34-2.02-1.23-2.58-6.83-.67-2.13-6.16,16.24-1.57.45.78,1.79-3.7,9.63.11,1.34,1.46,3.7,1.01,3.25-1.12,1.34,2.24,1.57,2.24,4.59,4.93,12.88.45,1.23Z"/>
      <path d="M553.43,980.14l-3.7-1.01-7.28-1.01.22-7.5v.11l.67-25.09-.67-4.37-.11-29.34,1.12-2.13-1.12-1.46-.34-5.82-.11-4.14,4.82-1.46,5.94-1.79,6.94,9.52,1.23,3.7,3.92,3.92,2.91,5.15,8.51,11.31-.11-.22,2.02,2.58.11,8.18-2.02,3.36-11.54,17.7-3.92,7.95-7.5,11.87ZM550.97,931.42l1.79,5.26-.45,22.18-.11,6.05.11-.22,4.93-7.95,2.02-1.01-.9-1.01,4.7-9.07,3.7-6.16,2.02-3.25-2.02-3.02-.45-2.69-2.24-1.79-11.09-17.81-.67-.78.34,16.24-1.68,5.04Z"/>
    </g>
    <path d="M422.6,868.54l4.76-.68,1.97-.2.88.88-.07,5.1-1.16.75-3.94-.41-5.58.27-1.5.07-1.84.14-.95-.27-.2-2.24.54-3.88,1.16-.14.95.07,1.63.34,3.33.2Z"/>
  </g>
</svg>