<?xml version="1.0" standalone="no"?>
<svg xmlns="http://www.w3.org/2000/svg" width="1024" height="1024" viewBox="0 0 1024 1024"><defs><clipPath id="clip-path-dot-color"><circle cx="79.5" cy="376.5" r="13.5" transform="rotate(0,79.5,376.5)"/><path d="M 66 471v 27h 13.5a 13.5 13.5, 0, 0, 0, 0 -27" transform="rotate(180,79.5,484.5)"/><path d="M 66 525v 27h 13.5a 13.5 13.5, 0, 0, 0, 0 -27" transform="rotate(-90,79.5,538.5)"/><rect x="66" y="552" width="27" height="27" transform="rotate(0,79.5,565.5)"/><rect x="66" y="579" width="27" height="27" transform="rotate(0,79.5,592.5)"/><rect x="66" y="606" width="27" height="27" transform="rotate(0,79.5,619.5)"/><path d="M 66 633v 27h 27v -13.5a 13.5 13.5, 0, 0, 0, -13.5 -13.5" transform="rotate(180,79.5,646.5)"/><path d="M 66 687v 27h 13.5a 13.5 13.5, 0, 0, 0, 0 -27" transform="rotate(180,79.5,700.5)"/><path d="M 93 282v 27h 27v -13.5a 13.5 13.5, 0, 0, 0, -13.5 -13.5" transform="rotate(-90,106.5,295.5)"/><rect x="93" y="309" width="27" height="27" transform="rotate(0,106.5,322.5)"/><path d="M 93 336v 27h 27v -13.5a 13.5 13.5, 0, 0, 0, -13.5 -13.5" transform="rotate(180,106.5,349.5)"/><circle cx="106.5" cy="430.5" r="13.5" transform="rotate(0,106.5,430.5)"/><path d="M 93 471v 27h 27v -13.5a 13.5 13.5, 0, 0, 0, -13.5 -13.5" transform="rotate(0,106.5,484.5)"/><path d="M 93 498v 27h 27v -13.5a 13.5 13.5, 0, 0, 0, -13.5 -13.5" transform="rotate(180,106.5,511.5)"/><path d="M 93 552v 27h 13.5a 13.5 13.5, 0, 0, 0, 0 -27" transform="rotate(0,106.5,565.5)"/><path d="M 93 633v 27h 13.5a 13.5 13.5, 0, 0, 0, 0 -27" transform="rotate(0,106.5,646.5)"/><path d="M 93 687v 27h 27v -13.5a 13.5 13.5, 0, 0, 0, -13.5 -13.5" transform="rotate(0,106.5,700.5)"/><path d="M 93 714v 27h 13.5a 13.5 13.5, 0, 0, 0, 0 -27" transform="rotate(90,106.5,727.5)"/><path d="M 120 282v 27h 13.5a 13.5 13.5, 0, 0, 0, 0 -27" transform="rotate(0,133.5,295.5)"/><path d="M 120 336v 27h 13.5a 13.5 13.5, 0, 0, 0, 0 -27" transform="rotate(0,133.5,349.5)"/><rect x="120" y="498" width="27" height="27" transform="rotate(0,133.5,511.5)"/><path d="M 120 525v 27h 13.5a 13.5 13.5, 0, 0, 0, 0 -27" transform="rotate(90,133.5,538.5)"/><path d="M 147 390v 27h 13.5a 13.5 13.5, 0, 0, 0, 0 -27" transform="rotate(-90,160.5,403.5)"/><path d="M 147 417v 27h 27v -13.5a 13.5 13.5, 0, 0, 0, -13.5 -13.5" transform="rotate(180,160.5,430.5)"/><path d="M 147 471v 27h 27v -13.5a 13.5 13.5, 0, 0, 0, -13.5 -13.5" transform="rotate(-90,160.5,484.5)"/><path d="M 147 498v 27h 27v -13.5a 13.5 13.5, 0, 0, 0, -13.5 -13.5" transform="rotate(90,160.5,511.5)"/><path d="M 147 606v 27h 13.5a 13.5 13.5, 0, 0, 0, 0 -27" transform="rotate(180,160.5,619.5)"/><path d="M 147 660v 27h 27v -13.5a 13.5 13.5, 0, 0, 0, -13.5 -13.5" transform="rotate(-90,160.5,673.5)"/><path d="M 147 687v 27h 13.5a 13.5 13.5, 0, 0, 0, 0 -27" transform="rotate(90,160.5,700.5)"/><path d="M 174 309v 27h 13.5a 13.5 13.5, 0, 0, 0, 0 -27" transform="rotate(-90,187.5,322.5)"/><path d="M 174 336v 27h 27v -13.5a 13.5 13.5, 0, 0, 0, -13.5 -13.5" transform="rotate(180,187.5,349.5)"/><rect x="174" y="417" width="27" height="27" transform="rotate(0,187.5,430.5)"/><rect x="174" y="471" width="27" height="27" transform="rotate(0,187.5,484.5)"/><rect x="174" y="606" width="27" height="27" transform="rotate(0,187.5,619.5)"/><rect x="174" y="633" width="27" height="27" transform="rotate(0,187.5,646.5)"/><path d="M 174 660v 27h 27v -13.5a 13.5 13.5, 0, 0, 0, -13.5 -13.5" transform="rotate(90,187.5,673.5)"/><path d="M 174 714v 27h 13.5a 13.5 13.5, 0, 0, 0, 0 -27" transform="rotate(180,187.5,727.5)"/><rect x="201" y="336" width="27" height="27" transform="rotate(0,214.5,349.5)"/><path d="M 201 390v 27h 27v -13.5a 13.5 13.5, 0, 0, 0, -13.5 -13.5" transform="rotate(-90,214.5,403.5)"/><rect x="201" y="417" width="27" height="27" transform="rotate(0,214.5,430.5)"/><rect x="201" y="444" width="27" height="27" transform="rotate(0,214.5,457.5)"/><path d="M 201 471v 27h 27v -13.5a 13.5 13.5, 0, 0, 0, -13.5 -13.5" transform="rotate(90,214.5,484.5)"/><path d="M 201 525v 27h 13.5a 13.5 13.5, 0, 0, 0, 0 -27" transform="rotate(-90,214.5,538.5)"/><rect x="201" y="552" width="27" height="27" transform="rotate(0,214.5,565.5)"/><rect x="201" y="579" width="27" height="27" transform="rotate(0,214.5,592.5)"/><rect x="201" y="606" width="27" height="27" transform="rotate(0,214.5,619.5)"/><path d="M 201 633v 27h 27v -13.5a 13.5 13.5, 0, 0, 0, -13.5 -13.5" transform="rotate(90,214.5,646.5)"/><rect x="201" y="714" width="27" height="27" transform="rotate(0,214.5,727.5)"/><circle cx="241.5" cy="295.5" r="13.5" transform="rotate(0,241.5,295.5)"/><rect x="228" y="336" width="27" height="27" transform="rotate(0,241.5,349.5)"/><path d="M 228 390v 27h 13.5a 13.5 13.5, 0, 0, 0, 0 -27" transform="rotate(0,241.5,403.5)"/><rect x="228" y="444" width="27" height="27" transform="rotate(0,241.5,457.5)"/><circle cx="241.5" cy="511.5" r="13.5" transform="rotate(0,241.5,511.5)"/><rect x="228" y="552" width="27" height="27" transform="rotate(0,241.5,565.5)"/><rect x="228" y="606" width="27" height="27" transform="rotate(0,241.5,619.5)"/><path d="M 228 660v 27h 13.5a 13.5 13.5, 0, 0, 0, 0 -27" transform="rotate(180,241.5,673.5)"/><path d="M 228 714v 27h 13.5a 13.5 13.5, 0, 0, 0, 0 -27" transform="rotate(0,241.5,727.5)"/><path d="M 255 309v 27h 13.5a 13.5 13.5, 0, 0, 0, 0 -27" transform="rotate(-90,268.5,322.5)"/><rect x="255" y="336" width="27" height="27" transform="rotate(0,268.5,349.5)"/><path d="M 255 417v 27h 27v -13.5a 13.5 13.5, 0, 0, 0, -13.5 -13.5" transform="rotate(-90,268.5,430.5)"/><rect x="255" y="444" width="27" height="27" transform="rotate(0,268.5,457.5)"/><path d="M 255 525v 27h 27v -13.5a 13.5 13.5, 0, 0, 0, -13.5 -13.5" transform="rotate(-90,268.5,538.5)"/><rect x="255" y="552" width="27" height="27" transform="rotate(0,268.5,565.5)"/><path d="M 255 606v 27h 13.5a 13.5 13.5, 0, 0, 0, 0 -27" transform="rotate(0,268.5,619.5)"/><path d="M 255 660v 27h 27v -13.5a 13.5 13.5, 0, 0, 0, -13.5 -13.5" transform="rotate(0,268.5,673.5)"/><path d="M 255 687v 27h 27v -13.5a 13.5 13.5, 0, 0, 0, -13.5 -13.5" transform="rotate(180,268.5,700.5)"/><path d="M 282 93v 27h 27v -13.5a 13.5 13.5, 0, 0, 0, -13.5 -13.5" transform="rotate(-90,295.5,106.5)"/><rect x="282" y="120" width="27" height="27" transform="rotate(0,295.5,133.5)"/><path d="M 282 147v 27h 27v -13.5a 13.5 13.5, 0, 0, 0, -13.5 -13.5" transform="rotate(180,295.5,160.5)"/><path d="M 282 201v 27h 13.5a 13.5 13.5, 0, 0, 0, 0 -27" transform="rotate(-90,295.5,214.5)"/><path d="M 282 228v 27h 13.5a 13.5 13.5, 0, 0, 0, 0 -27" transform="rotate(90,295.5,241.5)"/><path d="M 282 336v 27h 27v -13.5a 13.5 13.5, 0, 0, 0, -13.5 -13.5" transform="rotate(0,295.5,349.5)"/><rect x="282" y="363" width="27" height="27" transform="rotate(0,295.5,376.5)"/><rect x="282" y="390" width="27" height="27" transform="rotate(0,295.5,403.5)"/><rect x="282" y="417" width="27" height="27" transform="rotate(0,295.5,430.5)"/><rect x="282" y="444" width="27" height="27" transform="rotate(0,295.5,457.5)"/><path d="M 282 498v 27h 27v -13.5a 13.5 13.5, 0, 0, 0, -13.5 -13.5" transform="rotate(-90,295.5,511.5)"/><rect x="282" y="525" width="27" height="27" transform="rotate(0,295.5,538.5)"/><rect x="282" y="552" width="27" height="27" transform="rotate(0,295.5,565.5)"/><path d="M 282 579v 27h 27v -13.5a 13.5 13.5, 0, 0, 0, -13.5 -13.5" transform="rotate(180,295.5,592.5)"/><path d="M 282 633v 27h 13.5a 13.5 13.5, 0, 0, 0, 0 -27" transform="rotate(180,295.5,646.5)"/><rect x="282" y="687" width="27" height="27" transform="rotate(0,295.5,700.5)"/><path d="M 282 714v 27h 13.5a 13.5 13.5, 0, 0, 0, 0 -27" transform="rotate(90,295.5,727.5)"/><path d="M 282 876v 27h 27v -13.5a 13.5 13.5, 0, 0, 0, -13.5 -13.5" transform="rotate(-90,295.5,889.5)"/><path d="M 282 903v 27h 13.5a 13.5 13.5, 0, 0, 0, 0 -27" transform="rotate(90,295.5,916.5)"/><path d="M 309 93v 27h 13.5a 13.5 13.5, 0, 0, 0, 0 -27" transform="rotate(0,322.5,106.5)"/><rect x="309" y="147" width="27" height="27" transform="rotate(0,322.5,160.5)"/><path d="M 309 174v 27h 27v -13.5a 13.5 13.5, 0, 0, 0, -13.5 -13.5" transform="rotate(180,322.5,187.5)"/><path d="M 309 255v 27h 13.5a 13.5 13.5, 0, 0, 0, 0 -27" transform="rotate(180,322.5,268.5)"/><path d="M 309 363v 27h 13.5a 13.5 13.5, 0, 0, 0, 0 -27" transform="rotate(0,322.5,376.5)"/><rect x="309" y="417" width="27" height="27" transform="rotate(0,322.5,430.5)"/><rect x="309" y="444" width="27" height="27" transform="rotate(0,322.5,457.5)"/><rect x="309" y="498" width="27" height="27" transform="rotate(0,322.5,511.5)"/><path d="M 309 552v 27h 27v -13.5a 13.5 13.5, 0, 0, 0, -13.5 -13.5" transform="rotate(0,322.5,565.5)"/><rect x="309" y="579" width="27" height="27" transform="rotate(0,322.5,592.5)"/><rect x="309" y="606" width="27" height="27" transform="rotate(0,322.5,619.5)"/><rect x="309" y="633" width="27" height="27" transform="rotate(0,322.5,646.5)"/><rect x="309" y="660" width="27" height="27" transform="rotate(0,322.5,673.5)"/><rect x="309" y="687" width="27" height="27" transform="rotate(0,322.5,700.5)"/><path d="M 309 768v 27h 13.5a 13.5 13.5, 0, 0, 0, 0 -27" transform="rotate(-90,322.5,781.5)"/><path d="M 309 795v 27h 27v -13.5a 13.5 13.5, 0, 0, 0, -13.5 -13.5" transform="rotate(180,322.5,808.5)"/><path d="M 309 849v 27h 27v -13.5a 13.5 13.5, 0, 0, 0, -13.5 -13.5" transform="rotate(-90,322.5,862.5)"/><path d="M 309 876v 27h 27v -13.5a 13.5 13.5, 0, 0, 0, -13.5 -13.5" transform="rotate(90,322.5,889.5)"/><path d="M 309 930v 27h 13.5a 13.5 13.5, 0, 0, 0, 0 -27" transform="rotate(180,322.5,943.5)"/><rect x="336" y="147" width="27" height="27" transform="rotate(0,349.5,160.5)"/><path d="M 336 174v 27h 27v -13.5a 13.5 13.5, 0, 0, 0, -13.5 -13.5" transform="rotate(90,349.5,187.5)"/><path d="M 336 228v 27h 13.5a 13.5 13.5, 0, 0, 0, 0 -27" transform="rotate(-90,349.5,241.5)"/><path d="M 336 255v 27h 27v -13.5a 13.5 13.5, 0, 0, 0, -13.5 -13.5" transform="rotate(90,349.5,268.5)"/><path d="M 336 417v 27h 27v -13.5a 13.5 13.5, 0, 0, 0, -13.5 -13.5" transform="rotate(0,349.5,430.5)"/><path d="M 336 444v 27h 27v -13.5a 13.5 13.5, 0, 0, 0, -13.5 -13.5" transform="rotate(90,349.5,457.5)"/><path d="M 336 498v 27h 27v -13.5a 13.5 13.5, 0, 0, 0, -13.5 -13.5" transform="rotate(0,349.5,511.5)"/><path d="M 336 525v 27h 13.5a 13.5 13.5, 0, 0, 0, 0 -27" transform="rotate(90,349.5,538.5)"/><rect x="336" y="606" width="27" height="27" transform="rotate(0,349.5,619.5)"/><rect x="336" y="660" width="27" height="27" transform="rotate(0,349.5,673.5)"/><rect x="336" y="687" width="27" height="27" transform="rotate(0,349.5,700.5)"/><rect x="336" y="795" width="27" height="27" transform="rotate(0,349.5,808.5)"/><rect x="336" y="822" width="27" height="27" transform="rotate(0,349.5,835.5)"/><rect x="336" y="849" width="27" height="27" transform="rotate(0,349.5,862.5)"/><path d="M 336 903v 27h 13.5a 13.5 13.5, 0, 0, 0, 0 -27" transform="rotate(-90,349.5,916.5)"/><path d="M 336 930v 27h 27v -13.5a 13.5 13.5, 0, 0, 0, -13.5 -13.5" transform="rotate(90,349.5,943.5)"/><path d="M 363 66v 27h 27v -13.5a 13.5 13.5, 0, 0, 0, -13.5 -13.5" transform="rotate(-90,376.5,79.5)"/><rect x="363" y="93" width="27" height="27" transform="rotate(0,376.5,106.5)"/><rect x="363" y="120" width="27" height="27" transform="rotate(0,376.5,133.5)"/><path d="M 363 147v 27h 27v -13.5a 13.5 13.5, 0, 0, 0, -13.5 -13.5" transform="rotate(90,376.5,160.5)"/><circle cx="376.5" cy="214.5" r="13.5" transform="rotate(0,376.5,214.5)"/><path d="M 363 282v 27h 13.5a 13.5 13.5, 0, 0, 0, 0 -27" transform="rotate(180,376.5,295.5)"/><path d="M 363 336v 27h 13.5a 13.5 13.5, 0, 0, 0, 0 -27" transform="rotate(180,376.5,349.5)"/><circle cx="376.5" cy="403.5" r="13.5" transform="rotate(0,376.5,403.5)"/><path d="M 363 552v 27h 13.5a 13.5 13.5, 0, 0, 0, 0 -27" transform="rotate(180,376.5,565.5)"/><path d="M 363 606v 27h 13.5a 13.5 13.5, 0, 0, 0, 0 -27" transform="rotate(0,376.5,619.5)"/><path d="M 363 660v 27h 27v -13.5a 13.5 13.5, 0, 0, 0, -13.5 -13.5" transform="rotate(0,376.5,673.5)"/><rect x="363" y="687" width="27" height="27" transform="rotate(0,376.5,700.5)"/><rect x="363" y="714" width="27" height="27" transform="rotate(0,376.5,727.5)"/><path d="M 363 741v 27h 27v -13.5a 13.5 13.5, 0, 0, 0, -13.5 -13.5" transform="rotate(180,376.5,754.5)"/><rect x="363" y="795" width="27" height="27" transform="rotate(0,376.5,808.5)"/><rect x="363" y="849" width="27" height="27" transform="rotate(0,376.5,862.5)"/><path d="M 390 66v 27h 27v -13.5a 13.5 13.5, 0, 0, 0, -13.5 -13.5" transform="rotate(0,403.5,79.5)"/><rect x="390" y="93" width="27" height="27" transform="rotate(0,403.5,106.5)"/><path d="M 390 120v 27h 27v -13.5a 13.5 13.5, 0, 0, 0, -13.5 -13.5" transform="rotate(90,403.5,133.5)"/><path d="M 390 228v 27h 13.5a 13.5 13.5, 0, 0, 0, 0 -27" transform="rotate(-90,403.5,241.5)"/><rect x="390" y="255" width="27" height="27" transform="rotate(0,403.5,268.5)"/><rect x="390" y="282" width="27" height="27" transform="rotate(0,403.5,295.5)"/><rect x="390" y="336" width="27" height="27" transform="rotate(0,403.5,349.5)"/><path d="M 390 363v 27h 13.5a 13.5 13.5, 0, 0, 0, 0 -27" transform="rotate(90,403.5,376.5)"/><path d="M 390 417v 27h 13.5a 13.5 13.5, 0, 0, 0, 0 -27" transform="rotate(-90,403.5,430.5)"/><rect x="390" y="444" width="27" height="27" transform="rotate(0,403.5,457.5)"/><path d="M 390 471v 27h 13.5a 13.5 13.5, 0, 0, 0, 0 -27" transform="rotate(90,403.5,484.5)"/><path d="M 390 552v 27h 27v -13.5a 13.5 13.5, 0, 0, 0, -13.5 -13.5" transform="rotate(0,403.5,565.5)"/><path d="M 390 579v 27h 13.5a 13.5 13.5, 0, 0, 0, 0 -27" transform="rotate(90,403.5,592.5)"/><circle cx="403.5" cy="646.5" r="13.5" transform="rotate(0,403.5,646.5)"/><path d="M 390 687v 27h 27v -13.5a 13.5 13.5, 0, 0, 0, -13.5 -13.5" transform="rotate(0,403.5,700.5)"/><rect x="390" y="714" width="27" height="27" transform="rotate(0,403.5,727.5)"/><path d="M 390 741v 27h 27v -13.5a 13.5 13.5, 0, 0, 0, -13.5 -13.5" transform="rotate(90,403.5,754.5)"/><rect x="390" y="795" width="27" height="27" transform="rotate(0,403.5,808.5)"/><rect x="390" y="822" width="27" height="27" transform="rotate(0,403.5,835.5)"/><path d="M 390 849v 27h 27v -13.5a 13.5 13.5, 0, 0, 0, -13.5 -13.5" transform="rotate(90,403.5,862.5)"/><path d="M 390 903v 27h 27v -13.5a 13.5 13.5, 0, 0, 0, -13.5 -13.5" transform="rotate(-90,403.5,916.5)"/><path d="M 390 930v 27h 13.5a 13.5 13.5, 0, 0, 0, 0 -27" transform="rotate(90,403.5,943.5)"/><path d="M 417 147v 27h 13.5a 13.5 13.5, 0, 0, 0, 0 -27" transform="rotate(180,430.5,160.5)"/><circle cx="430.5" cy="214.5" r="13.5" transform="rotate(0,430.5,214.5)"/><rect x="417" y="255" width="27" height="27" transform="rotate(0,430.5,268.5)"/><path d="M 417 282v 27h 27v -13.5a 13.5 13.5, 0, 0, 0, -13.5 -13.5" transform="rotate(90,430.5,295.5)"/><rect x="417" y="336" width="27" height="27" transform="rotate(0,430.5,349.5)"/><rect x="417" y="714" width="27" height="27" transform="rotate(0,430.5,727.5)"/><path d="M 417 795v 27h 13.5a 13.5 13.5, 0, 0, 0, 0 -27" transform="rotate(0,430.5,808.5)"/><path d="M 417 876v 27h 27v -13.5a 13.5 13.5, 0, 0, 0, -13.5 -13.5" transform="rotate(-90,430.5,889.5)"/><path d="M 417 903v 27h 27v -13.5a 13.5 13.5, 0, 0, 0, -13.5 -13.5" transform="rotate(90,430.5,916.5)"/><path d="M 444 93v 27h 13.5a 13.5 13.5, 0, 0, 0, 0 -27" transform="rotate(-90,457.5,106.5)"/><rect x="444" y="120" width="27" height="27" transform="rotate(0,457.5,133.5)"/><rect x="444" y="147" width="27" height="27" transform="rotate(0,457.5,160.5)"/><path d="M 444 174v 27h 13.5a 13.5 13.5, 0, 0, 0, 0 -27" transform="rotate(90,457.5,187.5)"/><path d="M 444 228v 27h 13.5a 13.5 13.5, 0, 0, 0, 0 -27" transform="rotate(-90,457.5,241.5)"/><path d="M 444 255v 27h 27v -13.5a 13.5 13.5, 0, 0, 0, -13.5 -13.5" transform="rotate(90,457.5,268.5)"/><path d="M 444 309v 27h 13.5a 13.5 13.5, 0, 0, 0, 0 -27" transform="rotate(-90,457.5,322.5)"/><path d="M 444 336v 27h 27v -13.5a 13.5 13.5, 0, 0, 0, -13.5 -13.5" transform="rotate(90,457.5,349.5)"/><rect x="444" y="714" width="27" height="27" transform="rotate(0,457.5,727.5)"/><path d="M 444 768v 27h 13.5a 13.5 13.5, 0, 0, 0, 0 -27" transform="rotate(180,457.5,781.5)"/><path d="M 444 849v 27h 27v -13.5a 13.5 13.5, 0, 0, 0, -13.5 -13.5" transform="rotate(-90,457.5,862.5)"/><rect x="444" y="876" width="27" height="27" transform="rotate(0,457.5,889.5)"/><circle cx="484.5" cy="79.5" r="13.5" transform="rotate(0,484.5,79.5)"/><rect x="471" y="120" width="27" height="27" transform="rotate(0,484.5,133.5)"/><path d="M 471 282v 27h 13.5a 13.5 13.5, 0, 0, 0, 0 -27" transform="rotate(180,484.5,295.5)"/><path d="M 471 660v 27h 13.5a 13.5 13.5, 0, 0, 0, 0 -27" transform="rotate(180,484.5,673.5)"/><path d="M 471 714v 27h 27v -13.5a 13.5 13.5, 0, 0, 0, -13.5 -13.5" transform="rotate(0,484.5,727.5)"/><rect x="471" y="741" width="27" height="27" transform="rotate(0,484.5,754.5)"/><rect x="471" y="768" width="27" height="27" transform="rotate(0,484.5,781.5)"/><path d="M 471 822v 27h 27v -13.5a 13.5 13.5, 0, 0, 0, -13.5 -13.5" transform="rotate(-90,484.5,835.5)"/><rect x="471" y="849" width="27" height="27" transform="rotate(0,484.5,862.5)"/><rect x="471" y="876" width="27" height="27" transform="rotate(0,484.5,889.5)"/><path d="M 498 93v 27h 13.5a 13.5 13.5, 0, 0, 0, 0 -27" transform="rotate(-90,511.5,106.5)"/><path d="M 498 120v 27h 27v -13.5a 13.5 13.5, 0, 0, 0, -13.5 -13.5" transform="rotate(90,511.5,133.5)"/><circle cx="511.5" cy="187.5" r="13.5" transform="rotate(0,511.5,187.5)"/><path d="M 498 228v 27h 13.5a 13.5 13.5, 0, 0, 0, 0 -27" transform="rotate(-90,511.5,241.5)"/><rect x="498" y="255" width="27" height="27" transform="rotate(0,511.5,268.5)"/><rect x="498" y="282" width="27" height="27" transform="rotate(0,511.5,295.5)"/><rect x="498" y="309" width="27" height="27" transform="rotate(0,511.5,322.5)"/><path d="M 498 336v 27h 27v -13.5a 13.5 13.5, 0, 0, 0, -13.5 -13.5" transform="rotate(180,511.5,349.5)"/><path d="M 498 660v 27h 13.5a 13.5 13.5, 0, 0, 0, 0 -27" transform="rotate(0,511.5,673.5)"/><path d="M 498 741v 27h 27v -13.5a 13.5 13.5, 0, 0, 0, -13.5 -13.5" transform="rotate(0,511.5,754.5)"/><rect x="498" y="768" width="27" height="27" transform="rotate(0,511.5,781.5)"/><rect x="498" y="822" width="27" height="27" transform="rotate(0,511.5,835.5)"/><rect x="498" y="849" width="27" height="27" transform="rotate(0,511.5,862.5)"/><path d="M 498 876v 27h 27v -13.5a 13.5 13.5, 0, 0, 0, -13.5 -13.5" transform="rotate(90,511.5,889.5)"/><path d="M 525 66v 27h 13.5a 13.5 13.5, 0, 0, 0, 0 -27" transform="rotate(180,538.5,79.5)"/><path d="M 525 147v 27h 13.5a 13.5 13.5, 0, 0, 0, 0 -27" transform="rotate(180,538.5,160.5)"/><path d="M 525 336v 27h 13.5a 13.5 13.5, 0, 0, 0, 0 -27" transform="rotate(0,538.5,349.5)"/><circle cx="538.5" cy="700.5" r="13.5" transform="rotate(0,538.5,700.5)"/><rect x="525" y="768" width="27" height="27" transform="rotate(0,538.5,781.5)"/><rect x="525" y="822" width="27" height="27" transform="rotate(0,538.5,835.5)"/><path d="M 525 849v 27h 27v -13.5a 13.5 13.5, 0, 0, 0, -13.5 -13.5" transform="rotate(90,538.5,862.5)"/><path d="M 525 903v 27h 27v -13.5a 13.5 13.5, 0, 0, 0, -13.5 -13.5" transform="rotate(-90,538.5,916.5)"/><path d="M 525 930v 27h 13.5a 13.5 13.5, 0, 0, 0, 0 -27" transform="rotate(90,538.5,943.5)"/><path d="M 552 66v 27h 27v -13.5a 13.5 13.5, 0, 0, 0, -13.5 -13.5" transform="rotate(0,565.5,79.5)"/><path d="M 552 93v 27h 27v -13.5a 13.5 13.5, 0, 0, 0, -13.5 -13.5" transform="rotate(180,565.5,106.5)"/><path d="M 552 147v 27h 13.5a 13.5 13.5, 0, 0, 0, 0 -27" transform="rotate(0,565.5,160.5)"/><path d="M 552 201v 27h 13.5a 13.5 13.5, 0, 0, 0, 0 -27" transform="rotate(-90,565.5,214.5)"/><rect x="552" y="228" width="27" height="27" transform="rotate(0,565.5,241.5)"/><path d="M 552 255v 27h 13.5a 13.5 13.5, 0, 0, 0, 0 -27" transform="rotate(90,565.5,268.5)"/><circle cx="565.5" cy="673.5" r="13.5" transform="rotate(0,565.5,673.5)"/><path d="M 552 741v 27h 27v -13.5a 13.5 13.5, 0, 0, 0, -13.5 -13.5" transform="rotate(-90,565.5,754.5)"/><rect x="552" y="768" width="27" height="27" transform="rotate(0,565.5,781.5)"/><rect x="552" y="795" width="27" height="27" transform="rotate(0,565.5,808.5)"/><rect x="552" y="822" width="27" height="27" transform="rotate(0,565.5,835.5)"/><path d="M 552 876v 27h 13.5a 13.5 13.5, 0, 0, 0, 0 -27" transform="rotate(-90,565.5,889.5)"/><rect x="552" y="903" width="27" height="27" transform="rotate(0,565.5,916.5)"/><path d="M 579 93v 27h 27v -13.5a 13.5 13.5, 0, 0, 0, -13.5 -13.5" transform="rotate(0,592.5,106.5)"/><path d="M 579 120v 27h 27v -13.5a 13.5 13.5, 0, 0, 0, -13.5 -13.5" transform="rotate(180,592.5,133.5)"/><circle cx="592.5" cy="187.5" r="13.5" transform="rotate(0,592.5,187.5)"/><circle cx="592.5" cy="322.5" r="13.5" transform="rotate(0,592.5,322.5)"/><path d="M 579 714v 27h 27v -13.5a 13.5 13.5, 0, 0, 0, -13.5 -13.5" transform="rotate(-90,592.5,727.5)"/><path d="M 579 741v 27h 27v -13.5a 13.5 13.5, 0, 0, 0, -13.5 -13.5" transform="rotate(90,592.5,754.5)"/><path d="M 579 822v 27h 13.5a 13.5 13.5, 0, 0, 0, 0 -27" transform="rotate(0,592.5,835.5)"/><path d="M 579 903v 27h 13.5a 13.5 13.5, 0, 0, 0, 0 -27" transform="rotate(0,592.5,916.5)"/><rect x="606" y="120" width="27" height="27" transform="rotate(0,619.5,133.5)"/><path d="M 606 201v 27h 27v -13.5a 13.5 13.5, 0, 0, 0, -13.5 -13.5" transform="rotate(-90,619.5,214.5)"/><path d="M 606 228v 27h 13.5a 13.5 13.5, 0, 0, 0, 0 -27" transform="rotate(90,619.5,241.5)"/><circle cx="619.5" cy="295.5" r="13.5" transform="rotate(0,619.5,295.5)"/><path d="M 606 444v 27h 27v -13.5a 13.5 13.5, 0, 0, 0, -13.5 -13.5" transform="rotate(-90,619.5,457.5)"/><path d="M 606 471v 27h 13.5a 13.5 13.5, 0, 0, 0, 0 -27" transform="rotate(90,619.5,484.5)"/><path d="M 606 525v 27h 27v -13.5a 13.5 13.5, 0, 0, 0, -13.5 -13.5" transform="rotate(-90,619.5,538.5)"/><rect x="606" y="552" width="27" height="27" transform="rotate(0,619.5,565.5)"/><rect x="606" y="579" width="27" height="27" transform="rotate(0,619.5,592.5)"/><path d="M 606 606v 27h 13.5a 13.5 13.5, 0, 0, 0, 0 -27" transform="rotate(90,619.5,619.5)"/><path d="M 606 714v 27h 13.5a 13.5 13.5, 0, 0, 0, 0 -27" transform="rotate(0,619.5,727.5)"/><path d="M 606 849v 27h 27v -13.5a 13.5 13.5, 0, 0, 0, -13.5 -13.5" transform="rotate(-90,619.5,862.5)"/><path d="M 606 876v 27h 27v -13.5a 13.5 13.5, 0, 0, 0, -13.5 -13.5" transform="rotate(180,619.5,889.5)"/><path d="M 606 930v 27h 13.5a 13.5 13.5, 0, 0, 0, 0 -27" transform="rotate(180,619.5,943.5)"/><path d="M 633 66v 27h 13.5a 13.5 13.5, 0, 0, 0, 0 -27" transform="rotate(-90,646.5,79.5)"/><rect x="633" y="93" width="27" height="27" transform="rotate(0,646.5,106.5)"/><rect x="633" y="120" width="27" height="27" transform="rotate(0,646.5,133.5)"/><path d="M 633 147v 27h 27v -13.5a 13.5 13.5, 0, 0, 0, -13.5 -13.5" transform="rotate(180,646.5,160.5)"/><path d="M 633 201v 27h 13.5a 13.5 13.5, 0, 0, 0, 0 -27" transform="rotate(0,646.5,214.5)"/><path d="M 633 309v 27h 27v -13.5a 13.5 13.5, 0, 0, 0, -13.5 -13.5" transform="rotate(-90,646.5,322.5)"/><rect x="633" y="336" width="27" height="27" transform="rotate(0,646.5,349.5)"/><rect x="633" y="363" width="27" height="27" transform="rotate(0,646.5,376.5)"/><path d="M 633 390v 27h 27v -13.5a 13.5 13.5, 0, 0, 0, -13.5 -13.5" transform="rotate(180,646.5,403.5)"/><path d="M 633 444v 27h 13.5a 13.5 13.5, 0, 0, 0, 0 -27" transform="rotate(0,646.5,457.5)"/><path d="M 633 525v 27h 13.5a 13.5 13.5, 0, 0, 0, 0 -27" transform="rotate(0,646.5,538.5)"/><circle cx="646.5" cy="646.5" r="13.5" transform="rotate(0,646.5,646.5)"/><path d="M 633 687v 27h 13.5a 13.5 13.5, 0, 0, 0, 0 -27" transform="rotate(180,646.5,700.5)"/><path d="M 633 768v 27h 13.5a 13.5 13.5, 0, 0, 0, 0 -27" transform="rotate(180,646.5,781.5)"/><rect x="633" y="849" width="27" height="27" transform="rotate(0,646.5,862.5)"/><path d="M 633 876v 27h 27v -13.5a 13.5 13.5, 0, 0, 0, -13.5 -13.5" transform="rotate(90,646.5,889.5)"/><rect x="633" y="930" width="27" height="27" transform="rotate(0,646.5,943.5)"/><rect x="660" y="120" width="27" height="27" transform="rotate(0,673.5,133.5)"/><path d="M 660 147v 27h 27v -13.5a 13.5 13.5, 0, 0, 0, -13.5 -13.5" transform="rotate(90,673.5,160.5)"/><path d="M 660 228v 27h 13.5a 13.5 13.5, 0, 0, 0, 0 -27" transform="rotate(-90,673.5,241.5)"/><rect x="660" y="255" width="27" height="27" transform="rotate(0,673.5,268.5)"/><rect x="660" y="282" width="27" height="27" transform="rotate(0,673.5,295.5)"/><rect x="660" y="309" width="27" height="27" transform="rotate(0,673.5,322.5)"/><path d="M 660 390v 27h 13.5a 13.5 13.5, 0, 0, 0, 0 -27" transform="rotate(0,673.5,403.5)"/><circle cx="673.5" cy="484.5" r="13.5" transform="rotate(0,673.5,484.5)"/><path d="M 660 552v 27h 13.5a 13.5 13.5, 0, 0, 0, 0 -27" transform="rotate(180,673.5,565.5)"/><path d="M 660 660v 27h 27v -13.5a 13.5 13.5, 0, 0, 0, -13.5 -13.5" transform="rotate(-90,673.5,673.5)"/><rect x="660" y="687" width="27" height="27" transform="rotate(0,673.5,700.5)"/><path d="M 660 741v 27h 13.5a 13.5 13.5, 0, 0, 0, 0 -27" transform="rotate(-90,673.5,754.5)"/><rect x="660" y="768" width="27" height="27" transform="rotate(0,673.5,781.5)"/><path d="M 660 822v 27h 27v -13.5a 13.5 13.5, 0, 0, 0, -13.5 -13.5" transform="rotate(-90,673.5,835.5)"/><rect x="660" y="849" width="27" height="27" transform="rotate(0,673.5,862.5)"/><path d="M 660 903v 27h 27v -13.5a 13.5 13.5, 0, 0, 0, -13.5 -13.5" transform="rotate(-90,673.5,916.5)"/><rect x="660" y="930" width="27" height="27" transform="rotate(0,673.5,943.5)"/><path d="M 687 93v 27h 13.5a 13.5 13.5, 0, 0, 0, 0 -27" transform="rotate(-90,700.5,106.5)"/><rect x="687" y="120" width="27" height="27" transform="rotate(0,700.5,133.5)"/><path d="M 687 309v 27h 27v -13.5a 13.5 13.5, 0, 0, 0, -13.5 -13.5" transform="rotate(0,700.5,322.5)"/><rect x="687" y="336" width="27" height="27" transform="rotate(0,700.5,349.5)"/><path d="M 687 363v 27h 27v -13.5a 13.5 13.5, 0, 0, 0, -13.5 -13.5" transform="rotate(180,700.5,376.5)"/><path d="M 687 444v 27h 13.5a 13.5 13.5, 0, 0, 0, 0 -27" transform="rotate(180,700.5,457.5)"/><path d="M 687 525v 27h 27v -13.5a 13.5 13.5, 0, 0, 0, -13.5 -13.5" transform="rotate(-90,700.5,538.5)"/><rect x="687" y="552" width="27" height="27" transform="rotate(0,700.5,565.5)"/><path d="M 687 579v 27h 13.5a 13.5 13.5, 0, 0, 0, 0 -27" transform="rotate(90,700.5,592.5)"/><rect x="687" y="660" width="27" height="27" transform="rotate(0,700.5,673.5)"/><path d="M 687 687v 27h 27v -13.5a 13.5 13.5, 0, 0, 0, -13.5 -13.5" transform="rotate(90,700.5,700.5)"/><rect x="687" y="768" width="27" height="27" transform="rotate(0,700.5,781.5)"/><rect x="687" y="822" width="27" height="27" transform="rotate(0,700.5,835.5)"/><path d="M 687 849v 27h 27v -13.5a 13.5 13.5, 0, 0, 0, -13.5 -13.5" transform="rotate(90,700.5,862.5)"/><rect x="687" y="903" width="27" height="27" transform="rotate(0,700.5,916.5)"/><path d="M 687 930v 27h 27v -13.5a 13.5 13.5, 0, 0, 0, -13.5 -13.5" transform="rotate(90,700.5,943.5)"/><circle cx="727.5" cy="79.5" r="13.5" transform="rotate(0,727.5,79.5)"/><path d="M 714 120v 27h 27v -13.5a 13.5 13.5, 0, 0, 0, -13.5 -13.5" transform="rotate(0,727.5,133.5)"/><rect x="714" y="147" width="27" height="27" transform="rotate(0,727.5,160.5)"/><rect x="714" y="174" width="27" height="27" transform="rotate(0,727.5,187.5)"/><rect x="714" y="201" width="27" height="27" transform="rotate(0,727.5,214.5)"/><path d="M 714 228v 27h 13.5a 13.5 13.5, 0, 0, 0, 0 -27" transform="rotate(90,727.5,241.5)"/><path d="M 714 282v 27h 13.5a 13.5 13.5, 0, 0, 0, 0 -27" transform="rotate(180,727.5,295.5)"/><rect x="714" y="363" width="27" height="27" transform="rotate(0,727.5,376.5)"/><rect x="714" y="390" width="27" height="27" transform="rotate(0,727.5,403.5)"/><rect x="714" y="417" width="27" height="27" transform="rotate(0,727.5,430.5)"/><rect x="714" y="444" width="27" height="27" transform="rotate(0,727.5,457.5)"/><path d="M 714 525v 27h 13.5a 13.5 13.5, 0, 0, 0, 0 -27" transform="rotate(0,727.5,538.5)"/><rect x="714" y="660" width="27" height="27" transform="rotate(0,727.5,673.5)"/><path d="M 714 714v 27h 27v -13.5a 13.5 13.5, 0, 0, 0, -13.5 -13.5" transform="rotate(-90,727.5,727.5)"/><rect x="714" y="741" width="27" height="27" transform="rotate(0,727.5,754.5)"/><rect x="714" y="768" width="27" height="27" transform="rotate(0,727.5,781.5)"/><rect x="714" y="795" width="27" height="27" transform="rotate(0,727.5,808.5)"/><rect x="714" y="822" width="27" height="27" transform="rotate(0,727.5,835.5)"/><path d="M 714 903v 27h 13.5a 13.5 13.5, 0, 0, 0, 0 -27" transform="rotate(0,727.5,916.5)"/><path d="M 741 282v 27h 13.5a 13.5 13.5, 0, 0, 0, 0 -27" transform="rotate(0,754.5,295.5)"/><path d="M 741 363v 27h 13.5a 13.5 13.5, 0, 0, 0, 0 -27" transform="rotate(0,754.5,376.5)"/><path d="M 741 444v 27h 27v -13.5a 13.5 13.5, 0, 0, 0, -13.5 -13.5" transform="rotate(0,754.5,457.5)"/><path d="M 741 471v 27h 27v -13.5a 13.5 13.5, 0, 0, 0, -13.5 -13.5" transform="rotate(180,754.5,484.5)"/><path d="M 741 552v 27h 27v -13.5a 13.5 13.5, 0, 0, 0, -13.5 -13.5" transform="rotate(-90,754.5,565.5)"/><path d="M 741 579v 27h 27v -13.5a 13.5 13.5, 0, 0, 0, -13.5 -13.5" transform="rotate(180,754.5,592.5)"/><rect x="741" y="660" width="27" height="27" transform="rotate(0,754.5,673.5)"/><rect x="741" y="714" width="27" height="27" transform="rotate(0,754.5,727.5)"/><rect x="741" y="822" width="27" height="27" transform="rotate(0,754.5,835.5)"/><path d="M 741 849v 27h 13.5a 13.5 13.5, 0, 0, 0, 0 -27" transform="rotate(90,754.5,862.5)"/><path d="M 768 390v 27h 13.5a 13.5 13.5, 0, 0, 0, 0 -27" transform="rotate(180,781.5,403.5)"/><path d="M 768 471v 27h 13.5a 13.5 13.5, 0, 0, 0, 0 -27" transform="rotate(0,781.5,484.5)"/><path d="M 768 525v 27h 13.5a 13.5 13.5, 0, 0, 0, 0 -27" transform="rotate(-90,781.5,538.5)"/><rect x="768" y="552" width="27" height="27" transform="rotate(0,781.5,565.5)"/><rect x="768" y="579" width="27" height="27" transform="rotate(0,781.5,592.5)"/><rect x="768" y="660" width="27" height="27" transform="rotate(0,781.5,673.5)"/><rect x="768" y="687" width="27" height="27" transform="rotate(0,781.5,700.5)"/><rect x="768" y="714" width="27" height="27" transform="rotate(0,781.5,727.5)"/><circle cx="781.5" cy="781.5" r="13.5" transform="rotate(0,781.5,781.5)"/><rect x="768" y="822" width="27" height="27" transform="rotate(0,781.5,835.5)"/><path d="M 768 903v 27h 13.5a 13.5 13.5, 0, 0, 0, 0 -27" transform="rotate(180,781.5,916.5)"/><path d="M 795 282v 27h 13.5a 13.5 13.5, 0, 0, 0, 0 -27" transform="rotate(-90,808.5,295.5)"/><path d="M 795 309v 27h 13.5a 13.5 13.5, 0, 0, 0, 0 -27" transform="rotate(90,808.5,322.5)"/><rect x="795" y="390" width="27" height="27" transform="rotate(0,808.5,403.5)"/><path d="M 795 417v 27h 27v -13.5a 13.5 13.5, 0, 0, 0, -13.5 -13.5" transform="rotate(180,808.5,430.5)"/><circle cx="808.5" cy="511.5" r="13.5" transform="rotate(0,808.5,511.5)"/><path d="M 795 579v 27h 13.5a 13.5 13.5, 0, 0, 0, 0 -27" transform="rotate(0,808.5,592.5)"/><path d="M 795 633v 27h 13.5a 13.5 13.5, 0, 0, 0, 0 -27" transform="rotate(-90,808.5,646.5)"/><rect x="795" y="660" width="27" height="27" transform="rotate(0,808.5,673.5)"/><rect x="795" y="687" width="27" height="27" transform="rotate(0,808.5,700.5)"/><rect x="795" y="714" width="27" height="27" transform="rotate(0,808.5,727.5)"/><rect x="795" y="822" width="27" height="27" transform="rotate(0,808.5,835.5)"/><rect x="795" y="849" width="27" height="27" transform="rotate(0,808.5,862.5)"/><rect x="795" y="876" width="27" height="27" transform="rotate(0,808.5,889.5)"/><rect x="795" y="903" width="27" height="27" transform="rotate(0,808.5,916.5)"/><path d="M 822 390v 27h 27v -13.5a 13.5 13.5, 0, 0, 0, -13.5 -13.5" transform="rotate(0,835.5,403.5)"/><rect x="822" y="417" width="27" height="27" transform="rotate(0,835.5,430.5)"/><path d="M 822 444v 27h 13.5a 13.5 13.5, 0, 0, 0, 0 -27" transform="rotate(90,835.5,457.5)"/><path d="M 822 525v 27h 13.5a 13.5 13.5, 0, 0, 0, 0 -27" transform="rotate(-90,835.5,538.5)"/><path d="M 822 552v 27h 13.5a 13.5 13.5, 0, 0, 0, 0 -27" transform="rotate(90,835.5,565.5)"/><path d="M 822 606v 27h 13.5a 13.5 13.5, 0, 0, 0, 0 -27" transform="rotate(180,835.5,619.5)"/><rect x="822" y="687" width="27" height="27" transform="rotate(0,835.5,700.5)"/><rect x="822" y="714" width="27" height="27" transform="rotate(0,835.5,727.5)"/><rect x="822" y="741" width="27" height="27" transform="rotate(0,835.5,754.5)"/><rect x="822" y="768" width="27" height="27" transform="rotate(0,835.5,781.5)"/><rect x="822" y="795" width="27" height="27" transform="rotate(0,835.5,808.5)"/><path d="M 822 822v 27h 27v -13.5a 13.5 13.5, 0, 0, 0, -13.5 -13.5" transform="rotate(90,835.5,835.5)"/><path d="M 822 876v 27h 27v -13.5a 13.5 13.5, 0, 0, 0, -13.5 -13.5" transform="rotate(0,835.5,889.5)"/><rect x="822" y="903" width="27" height="27" transform="rotate(0,835.5,916.5)"/><path d="M 849 282v 27h 27v -13.5a 13.5 13.5, 0, 0, 0, -13.5 -13.5" transform="rotate(-90,862.5,295.5)"/><path d="M 849 309v 27h 27v -13.5a 13.5 13.5, 0, 0, 0, -13.5 -13.5" transform="rotate(180,862.5,322.5)"/><path d="M 849 471v 27h 27v -13.5a 13.5 13.5, 0, 0, 0, -13.5 -13.5" transform="rotate(-90,862.5,484.5)"/><path d="M 849 498v 27h 13.5a 13.5 13.5, 0, 0, 0, 0 -27" transform="rotate(90,862.5,511.5)"/><path d="M 849 579v 27h 27v -13.5a 13.5 13.5, 0, 0, 0, -13.5 -13.5" transform="rotate(-90,862.5,592.5)"/><path d="M 849 606v 27h 27v -13.5a 13.5 13.5, 0, 0, 0, -13.5 -13.5" transform="rotate(90,862.5,619.5)"/><rect x="849" y="687" width="27" height="27" transform="rotate(0,862.5,700.5)"/><rect x="849" y="714" width="27" height="27" transform="rotate(0,862.5,727.5)"/><rect x="849" y="795" width="27" height="27" transform="rotate(0,862.5,808.5)"/><path d="M 849 849v 27h 13.5a 13.5 13.5, 0, 0, 0, 0 -27" transform="rotate(180,862.5,862.5)"/><path d="M 849 903v 27h 27v -13.5a 13.5 13.5, 0, 0, 0, -13.5 -13.5" transform="rotate(0,862.5,916.5)"/><path d="M 849 930v 27h 13.5a 13.5 13.5, 0, 0, 0, 0 -27" transform="rotate(90,862.5,943.5)"/><rect x="876" y="282" width="27" height="27" transform="rotate(0,889.5,295.5)"/><rect x="876" y="309" width="27" height="27" transform="rotate(0,889.5,322.5)"/><path d="M 876 336v 27h 27v -13.5a 13.5 13.5, 0, 0, 0, -13.5 -13.5" transform="rotate(180,889.5,349.5)"/><path d="M 876 390v 27h 13.5a 13.5 13.5, 0, 0, 0, 0 -27" transform="rotate(-90,889.5,403.5)"/><rect x="876" y="417" width="27" height="27" transform="rotate(0,889.5,430.5)"/><rect x="876" y="444" width="27" height="27" transform="rotate(0,889.5,457.5)"/><rect x="876" y="471" width="27" height="27" transform="rotate(0,889.5,484.5)"/><rect x="876" y="579" width="27" height="27" transform="rotate(0,889.5,592.5)"/><path d="M 876 633v 27h 13.5a 13.5 13.5, 0, 0, 0, 0 -27" transform="rotate(-90,889.5,646.5)"/><rect x="876" y="660" width="27" height="27" transform="rotate(0,889.5,673.5)"/><rect x="876" y="687" width="27" height="27" transform="rotate(0,889.5,700.5)"/><rect x="876" y="714" width="27" height="27" transform="rotate(0,889.5,727.5)"/><rect x="876" y="741" width="27" height="27" transform="rotate(0,889.5,754.5)"/><rect x="876" y="768" width="27" height="27" transform="rotate(0,889.5,781.5)"/><rect x="876" y="795" width="27" height="27" transform="rotate(0,889.5,808.5)"/><path d="M 876 849v 27h 27v -13.5a 13.5 13.5, 0, 0, 0, -13.5 -13.5" transform="rotate(0,889.5,862.5)"/><path d="M 876 876v 27h 13.5a 13.5 13.5, 0, 0, 0, 0 -27" transform="rotate(90,889.5,889.5)"/><path d="M 903 282v 27h 27v -13.5a 13.5 13.5, 0, 0, 0, -13.5 -13.5" transform="rotate(0,916.5,295.5)"/><rect x="903" y="309" width="27" height="27" transform="rotate(0,916.5,322.5)"/><rect x="903" y="336" width="27" height="27" transform="rotate(0,916.5,349.5)"/><path d="M 903 363v 27h 27v -13.5a 13.5 13.5, 0, 0, 0, -13.5 -13.5" transform="rotate(180,916.5,376.5)"/><path d="M 903 471v 27h 13.5a 13.5 13.5, 0, 0, 0, 0 -27" transform="rotate(0,916.5,484.5)"/><path d="M 903 552v 27h 27v -13.5a 13.5 13.5, 0, 0, 0, -13.5 -13.5" transform="rotate(-90,916.5,565.5)"/><path d="M 903 579v 27h 27v -13.5a 13.5 13.5, 0, 0, 0, -13.5 -13.5" transform="rotate(90,916.5,592.5)"/><path d="M 903 660v 27h 27v -13.5a 13.5 13.5, 0, 0, 0, -13.5 -13.5" transform="rotate(0,916.5,673.5)"/><rect x="903" y="687" width="27" height="27" transform="rotate(0,916.5,700.5)"/><path d="M 903 714v 27h 27v -13.5a 13.5 13.5, 0, 0, 0, -13.5 -13.5" transform="rotate(90,916.5,727.5)"/><rect x="903" y="768" width="27" height="27" transform="rotate(0,916.5,781.5)"/><rect x="903" y="795" width="27" height="27" transform="rotate(0,916.5,808.5)"/><path d="M 903 822v 27h 27v -13.5a 13.5 13.5, 0, 0, 0, -13.5 -13.5" transform="rotate(180,916.5,835.5)"/><circle cx="916.5" cy="943.5" r="13.5" transform="rotate(0,916.5,943.5)"/><path d="M 930 336v 27h 27v -13.5a 13.5 13.5, 0, 0, 0, -13.5 -13.5" transform="rotate(0,943.5,349.5)"/><path d="M 930 363v 27h 27v -13.5a 13.5 13.5, 0, 0, 0, -13.5 -13.5" transform="rotate(90,943.5,376.5)"/><circle cx="943.5" cy="457.5" r="13.5" transform="rotate(0,943.5,457.5)"/><path d="M 930 525v 27h 13.5a 13.5 13.5, 0, 0, 0, 0 -27" transform="rotate(-90,943.5,538.5)"/><path d="M 930 552v 27h 27v -13.5a 13.5 13.5, 0, 0, 0, -13.5 -13.5" transform="rotate(90,943.5,565.5)"/><circle cx="943.5" cy="646.5" r="13.5" transform="rotate(0,943.5,646.5)"/><path d="M 930 687v 27h 13.5a 13.5 13.5, 0, 0, 0, 0 -27" transform="rotate(0,943.5,700.5)"/><path d="M 930 741v 27h 13.5a 13.5 13.5, 0, 0, 0, 0 -27" transform="rotate(-90,943.5,754.5)"/><path d="M 930 768v 27h 27v -13.5a 13.5 13.5, 0, 0, 0, -13.5 -13.5" transform="rotate(90,943.5,781.5)"/><path d="M 930 822v 27h 27v -13.5a 13.5 13.5, 0, 0, 0, -13.5 -13.5" transform="rotate(0,943.5,835.5)"/><rect x="930" y="849" width="27" height="27" transform="rotate(0,943.5,862.5)"/><path d="M 930 876v 27h 13.5a 13.5 13.5, 0, 0, 0, 0 -27" transform="rotate(90,943.5,889.5)"/></clipPath><clipPath id="clip-path-corners-square-color-0-0"><path d="M 66 66v 27h 27v -13.5a 13.5 13.5, 0, 0, 0, -13.5 -13.5" transform="rotate(-90,79.5,79.5)"/><rect x="66" y="93" width="27" height="27" transform="rotate(0,79.5,106.5)"/><rect x="66" y="120" width="27" height="27" transform="rotate(0,79.5,133.5)"/><rect x="66" y="147" width="27" height="27" transform="rotate(0,79.5,160.5)"/><rect x="66" y="174" width="27" height="27" transform="rotate(0,79.5,187.5)"/><rect x="66" y="201" width="27" height="27" transform="rotate(0,79.5,214.5)"/><path d="M 66 228v 27h 27v -13.5a 13.5 13.5, 0, 0, 0, -13.5 -13.5" transform="rotate(180,79.5,241.5)"/><rect x="93" y="66" width="27" height="27" transform="rotate(0,106.5,79.5)"/><rect x="93" y="228" width="27" height="27" transform="rotate(0,106.5,241.5)"/><rect x="120" y="66" width="27" height="27" transform="rotate(0,133.5,79.5)"/><rect x="120" y="228" width="27" height="27" transform="rotate(0,133.5,241.5)"/><rect x="147" y="66" width="27" height="27" transform="rotate(0,160.5,79.5)"/><rect x="147" y="228" width="27" height="27" transform="rotate(0,160.5,241.5)"/><rect x="174" y="66" width="27" height="27" transform="rotate(0,187.5,79.5)"/><rect x="174" y="228" width="27" height="27" transform="rotate(0,187.5,241.5)"/><rect x="201" y="66" width="27" height="27" transform="rotate(0,214.5,79.5)"/><rect x="201" y="228" width="27" height="27" transform="rotate(0,214.5,241.5)"/><path d="M 228 66v 27h 27v -13.5a 13.5 13.5, 0, 0, 0, -13.5 -13.5" transform="rotate(0,241.5,79.5)"/><rect x="228" y="93" width="27" height="27" transform="rotate(0,241.5,106.5)"/><rect x="228" y="120" width="27" height="27" transform="rotate(0,241.5,133.5)"/><rect x="228" y="147" width="27" height="27" transform="rotate(0,241.5,160.5)"/><rect x="228" y="174" width="27" height="27" transform="rotate(0,241.5,187.5)"/><rect x="228" y="201" width="27" height="27" transform="rotate(0,241.5,214.5)"/><path d="M 228 228v 27h 27v -13.5a 13.5 13.5, 0, 0, 0, -13.5 -13.5" transform="rotate(90,241.5,241.5)"/></clipPath><clipPath id="clip-path-corners-dot-color-0-0"><path d="M 120 120v 27h 27v -13.5a 13.5 13.5, 0, 0, 0, -13.5 -13.5" transform="rotate(-90,133.5,133.5)"/><rect x="120" y="147" width="27" height="27" transform="rotate(0,133.5,160.5)"/><path d="M 120 174v 27h 27v -13.5a 13.5 13.5, 0, 0, 0, -13.5 -13.5" transform="rotate(180,133.5,187.5)"/><rect x="147" y="120" width="27" height="27" transform="rotate(0,160.5,133.5)"/><rect x="147" y="147" width="27" height="27" transform="rotate(0,160.5,160.5)"/><rect x="147" y="174" width="27" height="27" transform="rotate(0,160.5,187.5)"/><path d="M 174 120v 27h 27v -13.5a 13.5 13.5, 0, 0, 0, -13.5 -13.5" transform="rotate(0,187.5,133.5)"/><rect x="174" y="147" width="27" height="27" transform="rotate(0,187.5,160.5)"/><path d="M 174 174v 27h 27v -13.5a 13.5 13.5, 0, 0, 0, -13.5 -13.5" transform="rotate(90,187.5,187.5)"/></clipPath><clipPath id="clip-path-corners-square-color-1-0"><path d="M 768 66v 27h 27v -13.5a 13.5 13.5, 0, 0, 0, -13.5 -13.5" transform="rotate(-90,781.5,79.5)"/><rect x="768" y="93" width="27" height="27" transform="rotate(0,781.5,106.5)"/><rect x="768" y="120" width="27" height="27" transform="rotate(0,781.5,133.5)"/><rect x="768" y="147" width="27" height="27" transform="rotate(0,781.5,160.5)"/><rect x="768" y="174" width="27" height="27" transform="rotate(0,781.5,187.5)"/><rect x="768" y="201" width="27" height="27" transform="rotate(0,781.5,214.5)"/><path d="M 768 228v 27h 27v -13.5a 13.5 13.5, 0, 0, 0, -13.5 -13.5" transform="rotate(180,781.5,241.5)"/><rect x="795" y="66" width="27" height="27" transform="rotate(0,808.5,79.5)"/><rect x="795" y="228" width="27" height="27" transform="rotate(0,808.5,241.5)"/><rect x="822" y="66" width="27" height="27" transform="rotate(0,835.5,79.5)"/><rect x="822" y="228" width="27" height="27" transform="rotate(0,835.5,241.5)"/><rect x="849" y="66" width="27" height="27" transform="rotate(0,862.5,79.5)"/><rect x="849" y="228" width="27" height="27" transform="rotate(0,862.5,241.5)"/><rect x="876" y="66" width="27" height="27" transform="rotate(0,889.5,79.5)"/><rect x="876" y="228" width="27" height="27" transform="rotate(0,889.5,241.5)"/><rect x="903" y="66" width="27" height="27" transform="rotate(0,916.5,79.5)"/><rect x="903" y="228" width="27" height="27" transform="rotate(0,916.5,241.5)"/><path d="M 930 66v 27h 27v -13.5a 13.5 13.5, 0, 0, 0, -13.5 -13.5" transform="rotate(0,943.5,79.5)"/><rect x="930" y="93" width="27" height="27" transform="rotate(0,943.5,106.5)"/><rect x="930" y="120" width="27" height="27" transform="rotate(0,943.5,133.5)"/><rect x="930" y="147" width="27" height="27" transform="rotate(0,943.5,160.5)"/><rect x="930" y="174" width="27" height="27" transform="rotate(0,943.5,187.5)"/><rect x="930" y="201" width="27" height="27" transform="rotate(0,943.5,214.5)"/><path d="M 930 228v 27h 27v -13.5a 13.5 13.5, 0, 0, 0, -13.5 -13.5" transform="rotate(90,943.5,241.5)"/></clipPath><clipPath id="clip-path-corners-dot-color-1-0"><path d="M 822 120v 27h 27v -13.5a 13.5 13.5, 0, 0, 0, -13.5 -13.5" transform="rotate(-90,835.5,133.5)"/><rect x="822" y="147" width="27" height="27" transform="rotate(0,835.5,160.5)"/><path d="M 822 174v 27h 27v -13.5a 13.5 13.5, 0, 0, 0, -13.5 -13.5" transform="rotate(180,835.5,187.5)"/><rect x="849" y="120" width="27" height="27" transform="rotate(0,862.5,133.5)"/><rect x="849" y="147" width="27" height="27" transform="rotate(0,862.5,160.5)"/><rect x="849" y="174" width="27" height="27" transform="rotate(0,862.5,187.5)"/><path d="M 876 120v 27h 27v -13.5a 13.5 13.5, 0, 0, 0, -13.5 -13.5" transform="rotate(0,889.5,133.5)"/><rect x="876" y="147" width="27" height="27" transform="rotate(0,889.5,160.5)"/><path d="M 876 174v 27h 27v -13.5a 13.5 13.5, 0, 0, 0, -13.5 -13.5" transform="rotate(90,889.5,187.5)"/></clipPath><clipPath id="clip-path-corners-square-color-0-1"><path d="M 66 768v 27h 27v -13.5a 13.5 13.5, 0, 0, 0, -13.5 -13.5" transform="rotate(-90,79.5,781.5)"/><rect x="66" y="795" width="27" height="27" transform="rotate(0,79.5,808.5)"/><rect x="66" y="822" width="27" height="27" transform="rotate(0,79.5,835.5)"/><rect x="66" y="849" width="27" height="27" transform="rotate(0,79.5,862.5)"/><rect x="66" y="876" width="27" height="27" transform="rotate(0,79.5,889.5)"/><rect x="66" y="903" width="27" height="27" transform="rotate(0,79.5,916.5)"/><path d="M 66 930v 27h 27v -13.5a 13.5 13.5, 0, 0, 0, -13.5 -13.5" transform="rotate(180,79.5,943.5)"/><rect x="93" y="768" width="27" height="27" transform="rotate(0,106.5,781.5)"/><rect x="93" y="930" width="27" height="27" transform="rotate(0,106.5,943.5)"/><rect x="120" y="768" width="27" height="27" transform="rotate(0,133.5,781.5)"/><rect x="120" y="930" width="27" height="27" transform="rotate(0,133.5,943.5)"/><rect x="147" y="768" width="27" height="27" transform="rotate(0,160.5,781.5)"/><rect x="147" y="930" width="27" height="27" transform="rotate(0,160.5,943.5)"/><rect x="174" y="768" width="27" height="27" transform="rotate(0,187.5,781.5)"/><rect x="174" y="930" width="27" height="27" transform="rotate(0,187.5,943.5)"/><rect x="201" y="768" width="27" height="27" transform="rotate(0,214.5,781.5)"/><rect x="201" y="930" width="27" height="27" transform="rotate(0,214.5,943.5)"/><path d="M 228 768v 27h 27v -13.5a 13.5 13.5, 0, 0, 0, -13.5 -13.5" transform="rotate(0,241.5,781.5)"/><rect x="228" y="795" width="27" height="27" transform="rotate(0,241.5,808.5)"/><rect x="228" y="822" width="27" height="27" transform="rotate(0,241.5,835.5)"/><rect x="228" y="849" width="27" height="27" transform="rotate(0,241.5,862.5)"/><rect x="228" y="876" width="27" height="27" transform="rotate(0,241.5,889.5)"/><rect x="228" y="903" width="27" height="27" transform="rotate(0,241.5,916.5)"/><path d="M 228 930v 27h 27v -13.5a 13.5 13.5, 0, 0, 0, -13.5 -13.5" transform="rotate(90,241.5,943.5)"/></clipPath><clipPath id="clip-path-corners-dot-color-0-1"><path d="M 120 822v 27h 27v -13.5a 13.5 13.5, 0, 0, 0, -13.5 -13.5" transform="rotate(-90,133.5,835.5)"/><rect x="120" y="849" width="27" height="27" transform="rotate(0,133.5,862.5)"/><path d="M 120 876v 27h 27v -13.5a 13.5 13.5, 0, 0, 0, -13.5 -13.5" transform="rotate(180,133.5,889.5)"/><rect x="147" y="822" width="27" height="27" transform="rotate(0,160.5,835.5)"/><rect x="147" y="849" width="27" height="27" transform="rotate(0,160.5,862.5)"/><rect x="147" y="876" width="27" height="27" transform="rotate(0,160.5,889.5)"/><path d="M 174 822v 27h 27v -13.5a 13.5 13.5, 0, 0, 0, -13.5 -13.5" transform="rotate(0,187.5,835.5)"/><rect x="174" y="849" width="27" height="27" transform="rotate(0,187.5,862.5)"/><path d="M 174 876v 27h 27v -13.5a 13.5 13.5, 0, 0, 0, -13.5 -13.5" transform="rotate(90,187.5,889.5)"/></clipPath></defs><rect x="0" y="0" height="1024" width="1024" clip-path="url('#clip-path-background-color')" fill="#ffffff"/><rect x="66" y="66" height="891" width="891" clip-path="url('#clip-path-dot-color')" fill="#000000"/><rect x="66" y="66" height="189" width="189" clip-path="url('#clip-path-corners-square-color-0-0')" fill="#000000"/><rect x="120" y="120" height="81" width="81" clip-path="url('#clip-path-corners-dot-color-0-0')" fill="#000000"/><rect x="768" y="66" height="189" width="189" clip-path="url('#clip-path-corners-square-color-1-0')" fill="#000000"/><rect x="822" y="120" height="81" width="81" clip-path="url('#clip-path-corners-dot-color-1-0')" fill="#000000"/><rect x="66" y="768" height="189" width="189" clip-path="url('#clip-path-corners-square-color-0-1')" fill="#000000"/><rect x="120" y="822" height="81" width="81" clip-path="url('#clip-path-corners-dot-color-0-1')" fill="#000000"/><svg viewBox="0 0 226.01 302.01" xmlns="http://www.w3.org/2000/svg" id="Layer_1" x="417" y="385" width="189px" height="253px">
  <defs>
    <style>
      .cls-1 {
        stroke: #000;
        stroke-miterlimit: 10;
      }

      .cls-1, .cls-2 {
        fill: #fff;
      }
    </style>
  </defs>
  <path d="M208.8,154.46c12.31-3.49,16.79,5.82,17.17,14.6.54,12.34-4.37,23.25-9.82,33.93-.67,1.3-1.46,2.54-2.15,3.84-3.01,5.62-6.36,10.68-14.37,8.5-1.55,6.23-3.39,12.1-4.44,18.11-2.44,13.91-9.19,25.79-17.42,36.8-13.7,18.31-32.94,27.18-55.08,30.36-17.31,2.48-34.63,2.06-51.08-4.16-12.1-4.58-22.85-11.4-31.48-21.84-9.82-11.89-16.15-25.25-20.24-39.74-1.93-6.85-1.86-14.24-2.94-21.35-.25-1.67-1.09-3.64-2.33-4.69-4.37-3.7-6.38-8.54-7.93-13.84-3.06-10.48-7.31-20.71-6.64-31.94.11-1.93.45-3.89.99-5.75,2.67-9.15,7.18-11.1,16.22-8.92-.44-4.23-.85-8.17-1.25-12.12-1-9.79-2.77-19.58-2.78-29.38-.02-11.44,2.11-22.84,8.22-32.8,2.24-3.65,2.05-7.01,1.43-10.51-2.62-14.57-.85-28.19,8.76-39.91,5.35-6.53,12.8-10.34,20.97-11.85,5.01-.93,10.33-.09,15.5-.32,1.7-.07,3.59-.65,5-1.58C84.04,2.7,95.48-.39,109.03.04c13.01.42,25.69,1.59,38.16,4.7,16.19,4.04,30.26,11.95,40.76,25.4,1.47,1.89,3.45,3.39,5.18,5.07,4.71,4.57,7,10.15,6.9,16.69-.06,4.32-.41,8.57,3.45,11.88,1.04.89,1.59,3.05,1.44,4.54-.55,5.46,2.32,9.59,4.32,14.27,2.44,5.73,4.28,12.09,4.6,18.27.85,16.15-.74,32.19-4.71,47.94-.43,1.69-.23,3.53-.34,5.67ZM104.25,50.62c-8,0-16,.08-23.99-.02-20.94-.24-35.81,9.41-45.14,27.83-6.94,13.7-9.07,28.82-11.96,43.65-1.41,7.22-1.23,14.57-1.85,21.93-.7,8.2-.69,16.4.2,24.44,1.11,10.08,1.87,20.28,4.7,30.09,2.45,8.49,14.71,12.43,21.97,7.32,6.09-4.29,11.44-9.74,17.8-13.5,15.06-8.91,31.92-6.92,48.25-5.97,16.7.97,31.26,7.21,42.8,20.27,4.01,4.53,10.71,5.77,16.7,1.98,3.16-2.01,5.78-4.89,8.96-6.84,8.88-5.46,14.35-14.04,16.69-23.32,3.15-12.52,4.57-25.05,2.56-37.8-2.41-15.3-4.81-30.63-8-45.77-3.26-15.5-10.67-28.29-25.7-35.79-11.43-5.7-23.74-7.05-35.99-8.3-9.23-.94-18.64-.19-27.97-.19ZM121.47,47.69c19.5-.91,39.5.75,57.78,13.2,2.04-6.5,4.12-12.3,5.65-18.23,1.51-5.88,1.41-11.28-4.04-15.88-10.38-8.75-21.52-15.88-34.95-18.68-9.6-2-19.31-3.52-29.26-5.3,2.51,5.04,5.95,8.86,6.08,12.79.35,10.43-.73,20.91-1.27,32.1ZM26.2,70.01c.59.21,2.97-2.95,3.56-2.74,5.9-4.05,8.58-5.84,14.45-9.94,2.66-1.86,6.45-3.18,9.31-4.62,14.65-7.39,30.34-6.69,46.06-5.57-.66-14.04-11.36-29.39-24.17-32.11-11.5-2.44-23.38-2.72-33.61,5.26,9.86-.31,19.29.35,28.24,5.23,8.18,4.46,19.61,14.97,19.32,19.36-.79-.6-1.42-1.05-2.01-1.54-5.29-4.51-10.37-9.3-15.9-13.48-6.55-4.95-14.7-5.56-22.39-5.84-4.98-.18-10.52,1.62-14.98,4.05-6.94,3.78-8.77,11.16-8.92,18.47-.16,7.82.65,15.67,1.04,23.5ZM90.44,4.56c2.43,3.2,4.55,5.3,5.84,7.82,4.91,9.59,7.57,19.76,6.77,30.65-.16,2.24-.11,4.18,3.16,3.95,3.37-.24,6.77-.05,11.4-.05.46-8.37.7-17.33,1.51-26.24.58-6.31-2.63-11.02-6.07-15.37-1.41-1.78-5.1-2.46-7.72-2.41-5.05.1-10.07,1.07-14.89,1.66ZM222.78,166.89c-7.08,1.41-12.45,4.69-14.86,11.95-.76-9.55,4.31-14.86,12.29-18.12-2.98-4.76-7.23-3.21-10.9-2.67-3.7.55-3.12,3.86-3.32,6.67-.33,4.73-.91,9.44-1.59,14.13-1.38,9.51-3.01,18.99-4.24,28.52-.21,1.62.92,4.76,1.75,4.88,1.78.24,4.59-.46,5.53-1.79,3.45-4.87,6.8-9.94,9.28-15.34,4.08-8.87,7.45-18.06,6.06-28.23ZM206.1,145.63c.31-1.94.82-4.78,1.23-7.64,1.84-12.76,4.25-25.3,3.1-38.52-.93-10.67-6.25-17.1-13.81-22.93-2.46-1.9-5.02-3.65-7.54-5.47-.4.37-.8.73-1.19,1.1,8.87,10.32,10.31,23.03,12.19,35.63,1.92,12.86,4.08,25.68,6.03,37.83ZM6.18,153.73c.55.18,5.79,1.94,7.32,7.08.75,2.5.29,4.68-.02,5.76-2.89-2.22-5.94-4.56-9.19-7.05-.69,5.31-1.21,14.76,2.19,25.76,2.95,9.52,7.63,16.3,10.85,20.26,0-1.09-.01-3.3.03-6.08.04-2.24.41-23.02-.43-41.51-.1-2.22-.29-5.52-2.39-6.69-2.81-1.57-7.27,1.66-8.36,2.47ZM37.9,67.19c-6.69,3.48-13.08,7.11-16.23,14.3-4.84,11.03-6.22,33.12-2.98,44.82,5.51-19.88,4.55-41.96,19.21-59.13ZM78.87,10.58c6.5,5.72,12.91,11.37,19,16.74-.77-5.16-2.26-10.57-6.58-15.05-4.89-5.07-6.79-5.48-12.43-1.69ZM189.35,35.93c-1.11,9.1-3.65,17.53-8.13,25.38-.38.67.41,2.02,1.02,4.53,1.33-1.92,2.11-2.77,2.58-3.77,2.49-5.24,4.33-10.9,7.49-15.69,3.52-5.34-.76-7.3-2.96-10.45ZM196.45,56.97c-4.05,2.87-8.24,5.84-12.43,8.81.25.5.51.99.76,1.49,4.73-1.35,9.45-2.71,14.35-4.11-.91-2.09-1.67-3.84-2.68-6.18ZM190,68.92c4.56,2.83,8.39,5.19,12.37,7.66-.77-9.19-.29-8.2-12.37-7.66ZM190.4,56.53c.44.26.88.52,1.31.79,1.23-3.43,7.29-4.71,3.97-11.04-2,3.88-3.64,7.06-5.28,10.25Z"/>
  <path d="M145.48,224.37c.88-13.6-4.12-17.92-15.67-21.54-3.22-1.01-6.22-2.67-9.37-3.92-7.66-3.04-15.65-4.57-23.77-2.99-8.25,1.61-16.55,3.47-24.42,6.36-3.75,1.37-8.05,4.79-9.39,8.31-2.03,5.32-2.29,11.54-2.25,17.38.08,10.83,13.71,20.69,24.3,18.93,5.89-.97,12.08-.52,18.1-.16,6.33.38,12.64,2.13,18.94,2.01,15.76-.28,23.53-8.67,23.53-24.38Z" class="cls-1"/>
  <path d="M183.05,112.05c.44-.49.88-.98,1.33-1.47-3.22-9.89-8.37-18.73-17.94-23.6-10.08-5.13-20.84-4.55-31.31-.37-1.2.48-2.91,1.54-3.03,2.5-.3,2.4-.56,5.28.5,7.25,1.74,3.24,5.24,1.72,7.88,1.06,15.66-3.93,29.54-2.64,39.26,12.33.68,1.04,2.19,1.55,3.31,2.3ZM35.83,107.72c1.51-.2,2.33-.07,2.75-.42.71-.6,1.19-1.49,1.71-2.29,5.14-7.98,11.99-12.71,21.92-11.37,5.64.76,11.31,1.46,16.87,2.61,3.43.71,5.61.25,7.18-3.17,1.42-3.1,1.15-5.59-1.76-7.24-10.53-6-30.57-7.08-39.47,4.34-3.95,5.07-8.14,10.1-9.21,17.55ZM104.58,157.62c-11.33-.9-15.77,7.36-17.42,16.62-.75,4.22,1.1,6.58,6.2,8.06,8.25,2.39,14.62,2.12,22.77.67,4.48-.79,6.45-5.23,5.9-9.5-1.22-9.6-6.4-16.56-17.45-15.86ZM54.04,142.19c0,.39.13,1.4-.02,2.37-.73,4.81,1.23,6.66,6.07,6.11,2.95-.34,5.97-.12,8.96-.05,3.97.09,5.41-2.08,4.93-5.66-.95-6.97-6.44-10.72-13.94-9.54.08.08,1.89,2.01,1.2,4.28-.48,1.56-1.82,2.27-2.25,2.49-2.25,1.18-4.6.15-4.94,0ZM87.1,150.57c2.46-5.1-1.09-15.16-5.2-19-13.9-13-36.95-3.14-45.38,10.29-.51.81.49,2.55.98,4.73,6.46-10.02,13.98-15.74,24.98-17.35,10.17-1.49,18.46,2.42,21.56,12.02.88,2.73,1.78,5.45,3.05,9.31ZM178.58,144.92c-1.92-2.82-5.2-6.73-10.16-10.23-3.88-2.74-14.2-7.85-26.71-5.76-7.29,1.22-14.78,11.18-15.59,19.06-.08.8.57,1.67.88,2.51.7-.64,1.68-1.16,2.03-1.95.84-1.93,1.36-3.99,2.06-5.98,1.44-4.1,3.9-7.34,7.3-9.19,0,0,2.09-1.17,4.92-1.57,6.28-.9,18.99-1.21,33.5,14.43.5.54,1.17-.88,1.75-1.32ZM160.29,153.99c2.72-11.07-2.69-17.45-11.96-15.95-.19,2.23.38,5.19-.72,6.08-1.41,1.14-4.17.6-6.42.79-.37,6.9-.34,7.3,2.64,7.65,5.51.64,11.05.98,16.46,1.43ZM137.63,152.13c.34-.45.69-.91,1.03-1.36-1.29-9.02,5.16-12.89,11.73-16.8-9.05-.88-16.35,6.39-15.26,15.18.13,1.08,1.63,2,2.49,2.99ZM87.64,164.28c-.39-.51-.77-1.03-1.16-1.54-6.24,2.67-12.5,5.3-18.69,8.07-.43.19-.42,1.4-.61,2.14.75.18,1.62.69,2.22.48,3.95-1.4,7.95-2.73,11.72-4.54,2.37-1.13,4.36-3.05,6.52-4.61ZM76.46,149.78c4.24-2.73,2.63-6.63,2.2-9.74-.68-5.02-6.81-10.18-14.66-8.76,9.59,2.84,13.88,8.69,12.46,18.5ZM58.82,133.06c-8.07-.64-12.19,5.99-9.49,16.58,1.3-2.67,1.42-5.84,2.78-8.33,1.61-2.97,4.29-5.35,6.72-8.24ZM125.16,164.02l-1.27,2.23c6.67,3.04,13.35,6.08,20.02,9.11.34-.74.68-1.48,1.02-2.23-6.59-3.04-13.18-6.07-19.77-9.11ZM164.1,153.61c4.1-.48,4.05-3.11,3.92-5.65-.32-6-4.49-11.04-9.61-11.75,6.26,6.51,7.38,9.14,5.69,17.4Z"/>
  <path d="M105.57,180.61c3.06.06,4.59.09,4.99-.02,4.04-1.14,8.64-6.31,7.23-10.58-1.87-5.7-8.15-8.95-16.2-8.39-4.4.3-10,5.56-10.44,10.41-.06.68-.37,3.67,1.52,5.71.91.98,1.91,1.32,3.66,1.86,1.93.61,3.86.89,9.24,1.01Z" class="cls-2"/>
  <path d="M106.83,241.62c-8.66.6-16.98-.33-24.46-5.27-7.63-5.04-13.32-11.69-16.06-20.44-1.04-3.32-.64-6.28,3.58-8.42,13.09-6.66,26.78-8.63,40.95-5.82,8.86,1.76,17.6,4.47,26.1,7.55,5.66,2.05,6.7,6.2,4.02,11.6-1.96,3.94-3.74,8.07-6.34,11.58-4.95,6.7-12.32,8.82-20.3,9.2-2.49.12-4.99.02-7.49.02ZM133.9,228.43c-13.15,4.45-26.27,3.69-39.15,2.87-6.69-.43-14.59-.34-19.6-7.27.2,1.83.69,3.62,1.61,4.64,3.28,3.62,8.59,6.67,13.38,7.6,8.79,1.72,17.95,2.32,26.93,2.14,6.68-.13,13.58-1.8,16.83-9.97ZM138.65,214.94c.07-.42.14-.84.21-1.26-1.21-.8-2.32-2.01-3.64-2.33-11.34-2.67-22.62-6.3-34.13-7.35-7.83-.71-16,2.22-23.99,3.67-1.21.22-2.96.97-3.26,1.87-.37,1.09.54,2.61.66,3.05,3.37-.79,5.9-1.84,8.45-1.9,9.82-.2,19.69-.63,29.46.09,7.86.58,15.6,2.73,23.41,4.13.91.16,1.88.02,2.82.02ZM78.69,219.94c-.23.43-.47.86-.7,1.29,1.46,1.45,2.67,3.57,4.43,4.25,14.27,5.56,28.99,3.97,43.62,1.94,2.52-.35,6.19-.93,5.84-5.73-3.66,0-7.3-.34-10.85.06-10.53,1.2-20.91,3.2-31.3-1.6-3.06-1.41-7.33-.22-11.04-.22Z"/>
</svg></svg>