  0
SECTION
  2
HEADER
  9
$ANGBASE
  50
0.0
  9
$ANGDIR
  70
1
  9
$MEASUREMENT
  70
0
  0
ENDSEC
  0
SECTION
  2
TABLES
  0
TABLE
  2
LTYPE
  70
4
  0
LTYPE
  5
40F
  2
CONTINUOUS
  70
0
  3
Solid line
  72
65
  73
0
  40
0.0
  0
LTYPE
  5
410
  2
DASHDOT
 70
0
  3
Dash Dot ____ _ ____ _
 72
65
 73
4
 40
2.0
 49
1.25
 49
-0.25
 49
0.25
 49
-0.25
  0
LTYPE
  5
411
  2
DASHED
 70
0
  3
Dashed __ __ __ __ __
 72
65
 73
2
 40
0.75
 49
0.5
 49
-0.25
  0
LTYPE
  5
43B
  2
DOTTED
 70
0
  3
Dotted .  .  .  .
 72
65
 73
2
 40
0.2
 49
0.0
 49
-0.2
  0
ENDTAB
  0
TABLE
  2
STYLE
  70
4
  0
STYLE
  2
KICAD
  70
0
  40
0
  41
1
  42
1
  50
0
  71
0
  3
isocp.shx
  0
STYLE
  2
KICADB
  70
0
  40
0
  41
1
  42
1
  50
0
  71
0
  3
isocp.shx
  0
STYLE
  2
KICADI
  70
0
  40
0
  41
1
  42
1
  50
15
  71
0
  3
isocp.shx
  0
STYLE
  2
KICADBI
  70
0
  40
0
  41
1
  42
1
  50
15
  71
0
  3
isocp.shx
  0
ENDTAB
  0
TABLE
  2
LAYER
  70
1
  0
LAYER
  2
BLACK
  70
0
  62
7
  6
CONTINUOUS
  0
ENDTAB
  0
ENDSEC
  0
SECTION
  2
ENTITIES
0
LINE
8
BLACK
6
CONTINUOUS
10
1.3173662992125983
20
-4.0912254724409447
11
1.3202401181102361
21
-4.0931457086614174
0
LINE
8
BLACK
6
CONTINUOUS
10
1.3202401181102361
20
-4.0931457086614174
11
1.3221603543307086
21
-4.0960195275590552
0
LINE
8
BLACK
6
CONTINUOUS
10
1.3221603543307086
20
-4.0960195275590552
11
1.3228346456692912
21
-4.0994094488188972
0
LINE
8
BLACK
6
CONTINUOUS
10
1.3228346456692912
20
-4.0994094488188972
11
1.3228346456692912
21
-4.1171259842519685
0
LINE
8
BLACK
6
CONTINUOUS
10
1.3228346456692912
20
-4.1171259842519685
11
1.3221603543307086
21
-4.1205159055118106
0
LINE
8
BLACK
6
CONTINUOUS
10
1.3221603543307086
20
-4.1205159055118106
11
1.3202401181102361
21
-4.1233897244094484
0
LINE
8
BLACK
6
CONTINUOUS
10
1.3202401181102361
20
-4.1233897244094484
11
1.3173662992125983
21
-4.1253099606299211
0
LINE
8
BLACK
6
CONTINUOUS
10
1.3173662992125983
20
-4.1253099606299211
11
1.3139763779527558
21
-4.1259842519685037
0
LINE
8
BLACK
6
CONTINUOUS
10
1.3139763779527558
20
-4.1259842519685037
11
1.2844488188976377
21
-4.1259842519685037
0
LINE
8
BLACK
6
CONTINUOUS
10
1.2844488188976377
20
-4.1259842519685037
11
1.2810588976377952
21
-4.1253099606299211
0
LINE
8
BLACK
6
CONTINUOUS
10
1.2810588976377952
20
-4.1253099606299211
11
1.2781850787401574
21
-4.1233897244094484
0
LINE
8
BLACK
6
CONTINUOUS
10
1.2781850787401574
20
-4.1233897244094484
11
1.276264842519685
21
-4.1205159055118106
0
LINE
8
BLACK
6
CONTINUOUS
10
1.276264842519685
20
-4.1205159055118106
11
1.2755905511811023
21
-4.1171259842519685
0
LINE
8
BLACK
6
CONTINUOUS
10
1.2755905511811023
20
-4.1171259842519685
11
1.2755905511811023
21
-4.0994094488188972
0
LINE
8
BLACK
6
CONTINUOUS
10
1.2755905511811023
20
-4.0994094488188972
11
1.276264842519685
21
-4.0960195275590552
0
LINE
8
BLACK
6
CONTINUOUS
10
1.276264842519685
20
-4.0960195275590552
11
1.2781850787401574
21
-4.0931457086614174
0
LINE
8
BLACK
6
CONTINUOUS
10
1.2781850787401574
20
-4.0931457086614174
11
1.2810588976377952
21
-4.0912254724409447
0
LINE
8
BLACK
6
CONTINUOUS
10
1.2810588976377952
20
-4.0912254724409447
11
1.2844488188976377
21
-4.090551181102362
0
LINE
8
BLACK
6
CONTINUOUS
10
1.2844488188976377
20
-4.090551181102362
11
1.3139763779527558
21
-4.090551181102362
0
LINE
8
BLACK
6
CONTINUOUS
10
1.3139763779527558
20
-4.090551181102362
11
1.3173662992125983
21
-4.0912254724409447
0
LINE
8
BLACK
6
CONTINUOUS
10
2.0260277165354332
20
-4.0912254724409447
11
2.0289015354330706
21
-4.0931457086614174
0
LINE
8
BLACK
6
CONTINUOUS
10
2.0289015354330706
20
-4.0931457086614174
11
2.0308217716535433
21
-4.0960195275590552
0
LINE
8
BLACK
6
CONTINUOUS
10
2.0308217716535433
20
-4.0960195275590552
11
2.0314960629921259
21
-4.0994094488188972
0
LINE
8
BLACK
6
CONTINUOUS
10
2.0314960629921259
20
-4.0994094488188972
11
2.0314960629921259
21
-4.1171259842519685
0
LINE
8
BLACK
6
CONTINUOUS
10
2.0314960629921259
20
-4.1171259842519685
11
2.0308217716535433
21
-4.1205159055118106
0
LINE
8
BLACK
6
CONTINUOUS
10
2.0308217716535433
20
-4.1205159055118106
11
2.0289015354330706
21
-4.1233897244094484
0
LINE
8
BLACK
6
CONTINUOUS
10
2.0289015354330706
20
-4.1233897244094484
11
2.0260277165354332
21
-4.1253099606299211
0
LINE
8
BLACK
6
CONTINUOUS
10
2.0260277165354332
20
-4.1253099606299211
11
2.0226377952755903
21
-4.1259842519685037
0
LINE
8
BLACK
6
CONTINUOUS
10
2.0226377952755903
20
-4.1259842519685037
11
1.9931102362204725
21
-4.1259842519685037
0
LINE
8
BLACK
6
CONTINUOUS
10
1.9931102362204725
20
-4.1259842519685037
11
1.98972031496063
21
-4.1253099606299211
0
LINE
8
BLACK
6
CONTINUOUS
10
1.98972031496063
20
-4.1253099606299211
11
1.9868464960629921
21
-4.1233897244094484
0
LINE
8
BLACK
6
CONTINUOUS
10
1.9868464960629921
20
-4.1233897244094484
11
1.9849262598425197
21
-4.1205159055118106
0
LINE
8
BLACK
6
CONTINUOUS
10
1.9849262598425197
20
-4.1205159055118106
11
1.984251968503937
21
-4.1171259842519685
0
LINE
8
BLACK
6
CONTINUOUS
10
1.984251968503937
20
-4.1171259842519685
11
1.984251968503937
21
-4.0994094488188972
0
LINE
8
BLACK
6
CONTINUOUS
10
1.984251968503937
20
-4.0994094488188972
11
1.9849262598425197
21
-4.0960195275590552
0
LINE
8
BLACK
6
CONTINUOUS
10
1.9849262598425197
20
-4.0960195275590552
11
1.9868464960629921
21
-4.0931457086614174
0
LINE
8
BLACK
6
CONTINUOUS
10
1.9868464960629921
20
-4.0931457086614174
11
1.98972031496063
21
-4.0912254724409447
0
LINE
8
BLACK
6
CONTINUOUS
10
1.98972031496063
20
-4.0912254724409447
11
1.9931102362204725
21
-4.090551181102362
0
LINE
8
BLACK
6
CONTINUOUS
10
1.9931102362204725
20
-4.090551181102362
11
2.0226377952755903
21
-4.090551181102362
0
LINE
8
BLACK
6
CONTINUOUS
10
2.0226377952755903
20
-4.090551181102362
11
2.0260277165354332
21
-4.0912254724409447
0
LINE
8
BLACK
6
CONTINUOUS
10
2.7346891338582675
20
-4.0912254724409447
11
2.7375629527559053
21
-4.0931457086614174
0
LINE
8
BLACK
6
CONTINUOUS
10
2.7375629527559053
20
-4.0931457086614174
11
2.739483188976378
21
-4.0960195275590552
0
LINE
8
BLACK
6
CONTINUOUS
10
2.739483188976378
20
-4.0960195275590552
11
2.7401574803149606
21
-4.0994094488188972
0
LINE
8
BLACK
6
CONTINUOUS
10
2.7401574803149606
20
-4.0994094488188972
11
2.7401574803149606
21
-4.1171259842519685
0
LINE
8
BLACK
6
CONTINUOUS
10
2.7401574803149606
20
-4.1171259842519685
11
2.739483188976378
21
-4.1205159055118106
0
LINE
8
BLACK
6
CONTINUOUS
10
2.739483188976378
20
-4.1205159055118106
11
2.7375629527559053
21
-4.1233897244094484
0
LINE
8
BLACK
6
CONTINUOUS
10
2.7375629527559053
20
-4.1233897244094484
11
2.7346891338582675
21
-4.1253099606299211
0
LINE
8
BLACK
6
CONTINUOUS
10
2.7346891338582675
20
-4.1253099606299211
11
2.731299212598425
21
-4.1259842519685037
0
LINE
8
BLACK
6
CONTINUOUS
10
2.731299212598425
20
-4.1259842519685037
11
2.701771653543307
21
-4.1259842519685037
0
LINE
8
BLACK
6
CONTINUOUS
10
2.701771653543307
20
-4.1259842519685037
11
2.6983817322834645
21
-4.1253099606299211
0
LINE
8
BLACK
6
CONTINUOUS
10
2.6983817322834645
20
-4.1253099606299211
11
2.6955079133858266
21
-4.1233897244094484
0
LINE
8
BLACK
6
CONTINUOUS
10
2.6955079133858266
20
-4.1233897244094484
11
2.6935876771653544
21
-4.1205159055118106
0
LINE
8
BLACK
6
CONTINUOUS
10
2.6935876771653544
20
-4.1205159055118106
11
2.6929133858267718
21
-4.1171259842519685
0
LINE
8
BLACK
6
CONTINUOUS
10
2.6929133858267718
20
-4.1171259842519685
11
2.6929133858267718
21
-4.0994094488188972
0
LINE
8
BLACK
6
CONTINUOUS
10
2.6929133858267718
20
-4.0994094488188972
11
2.6935876771653544
21
-4.0960195275590552
0
LINE
8
BLACK
6
CONTINUOUS
10
2.6935876771653544
20
-4.0960195275590552
11
2.6955079133858266
21
-4.0931457086614174
0
LINE
8
BLACK
6
CONTINUOUS
10
2.6955079133858266
20
-4.0931457086614174
11
2.6983817322834645
21
-4.0912254724409447
0
LINE
8
BLACK
6
CONTINUOUS
10
2.6983817322834645
20
-4.0912254724409447
11
2.701771653543307
21
-4.090551181102362
0
LINE
8
BLACK
6
CONTINUOUS
10
2.701771653543307
20
-4.090551181102362
11
2.731299212598425
21
-4.090551181102362
0
LINE
8
BLACK
6
CONTINUOUS
10
2.731299212598425
20
-4.090551181102362
11
2.7346891338582675
21
-4.0912254724409447
0
LINE
8
BLACK
6
CONTINUOUS
10
3.4433505511811022
20
-4.0912254724409447
11
3.4462243700787401
21
-4.0931457086614174
0
LINE
8
BLACK
6
CONTINUOUS
10
3.4462243700787401
20
-4.0931457086614174
11
3.4481446062992127
21
-4.0960195275590552
0
LINE
8
BLACK
6
CONTINUOUS
10
3.4481446062992127
20
-4.0960195275590552
11
3.4488188976377954
21
-4.0994094488188972
0
LINE
8
BLACK
6
CONTINUOUS
10
3.4488188976377954
20
-4.0994094488188972
11
3.4488188976377954
21
-4.1171259842519685
0
LINE
8
BLACK
6
CONTINUOUS
10
3.4488188976377954
20
-4.1171259842519685
11
3.4481446062992127
21
-4.1205159055118106
0
LINE
8
BLACK
6
CONTINUOUS
10
3.4481446062992127
20
-4.1205159055118106
11
3.4462243700787401
21
-4.1233897244094484
0
LINE
8
BLACK
6
CONTINUOUS
10
3.4462243700787401
20
-4.1233897244094484
11
3.4433505511811022
21
-4.1253099606299211
0
LINE
8
BLACK
6
CONTINUOUS
10
3.4433505511811022
20
-4.1253099606299211
11
3.4399606299212597
21
-4.1259842519685037
0
LINE
8
BLACK
6
CONTINUOUS
10
3.4399606299212597
20
-4.1259842519685037
11
3.4104330708661417
21
-4.1259842519685037
0
LINE
8
BLACK
6
CONTINUOUS
10
3.4104330708661417
20
-4.1259842519685037
11
3.4070431496062992
21
-4.1253099606299211
0
LINE
8
BLACK
6
CONTINUOUS
10
3.4070431496062992
20
-4.1253099606299211
11
3.4041693307086613
21
-4.1233897244094484
0
LINE
8
BLACK
6
CONTINUOUS
10
3.4041693307086613
20
-4.1233897244094484
11
3.4022490944881887
21
-4.1205159055118106
0
LINE
8
BLACK
6
CONTINUOUS
10
3.4022490944881887
20
-4.1205159055118106
11
3.401574803149606
21
-4.1171259842519685
0
LINE
8
BLACK
6
CONTINUOUS
10
3.401574803149606
20
-4.1171259842519685
11
3.401574803149606
21
-4.0994094488188972
0
LINE
8
BLACK
6
CONTINUOUS
10
3.401574803149606
20
-4.0994094488188972
11
3.4022490944881887
21
-4.0960195275590552
0
LINE
8
BLACK
6
CONTINUOUS
10
3.4022490944881887
20
-4.0960195275590552
11
3.4041693307086613
21
-4.0931457086614174
0
LINE
8
BLACK
6
CONTINUOUS
10
3.4041693307086613
20
-4.0931457086614174
11
3.4070431496062992
21
-4.0912254724409447
0
LINE
8
BLACK
6
CONTINUOUS
10
3.4070431496062992
20
-4.0912254724409447
11
3.4104330708661417
21
-4.090551181102362
0
LINE
8
BLACK
6
CONTINUOUS
10
3.4104330708661417
20
-4.090551181102362
11
3.4399606299212597
21
-4.090551181102362
0
LINE
8
BLACK
6
CONTINUOUS
10
3.4399606299212597
20
-4.090551181102362
11
3.4433505511811022
21
-4.0912254724409447
0
LINE
8
BLACK
6
CONTINUOUS
10
1.3173662992125983
20
-3.9613042125984252
11
1.3202401181102361
21
-3.9632244488188975
0
LINE
8
BLACK
6
CONTINUOUS
10
1.3202401181102361
20
-3.9632244488188975
11
1.3221603543307086
21
-3.9660982677165353
0
LINE
8
BLACK
6
CONTINUOUS
10
1.3221603543307086
20
-3.9660982677165353
11
1.3228346456692912
21
-3.9694881889763778
0
LINE
8
BLACK
6
CONTINUOUS
10
1.3228346456692912
20
-3.9694881889763778
11
1.3228346456692912
21
-3.9872047244094486
0
LINE
8
BLACK
6
CONTINUOUS
10
1.3228346456692912
20
-3.9872047244094486
11
1.3221603543307086
21
-3.9905946456692911
0
LINE
8
BLACK
6
CONTINUOUS
10
1.3221603543307086
20
-3.9905946456692911
11
1.3202401181102361
21
-3.9934684645669289
0
LINE
8
BLACK
6
CONTINUOUS
10
1.3202401181102361
20
-3.9934684645669289
11
1.3173662992125983
21
-3.9953887007874016
0
LINE
8
BLACK
6
CONTINUOUS
10
1.3173662992125983
20
-3.9953887007874016
11
1.3139763779527558
21
-3.9960629921259843
0
LINE
8
BLACK
6
CONTINUOUS
10
1.3139763779527558
20
-3.9960629921259843
11
1.2844488188976377
21
-3.9960629921259843
0
LINE
8
BLACK
6
CONTINUOUS
10
1.2844488188976377
20
-3.9960629921259843
11
1.2810588976377952
21
-3.9953887007874016
0
LINE
8
BLACK
6
CONTINUOUS
10
1.2810588976377952
20
-3.9953887007874016
11
1.2781850787401574
21
-3.9934684645669289
0
LINE
8
BLACK
6
CONTINUOUS
10
1.2781850787401574
20
-3.9934684645669289
11
1.276264842519685
21
-3.9905946456692911
0
LINE
8
BLACK
6
CONTINUOUS
10
1.276264842519685
20
-3.9905946456692911
11
1.2755905511811023
21
-3.9872047244094486
0
LINE
8
BLACK
6
CONTINUOUS
10
1.2755905511811023
20
-3.9872047244094486
11
1.2755905511811023
21
-3.9694881889763778
0
LINE
8
BLACK
6
CONTINUOUS
10
1.2755905511811023
20
-3.9694881889763778
11
1.276264842519685
21
-3.9660982677165353
0
LINE
8
BLACK
6
CONTINUOUS
10
1.276264842519685
20
-3.9660982677165353
11
1.2781850787401574
21
-3.9632244488188975
0
LINE
8
BLACK
6
CONTINUOUS
10
1.2781850787401574
20
-3.9632244488188975
11
1.2810588976377952
21
-3.9613042125984252
0
LINE
8
BLACK
6
CONTINUOUS
10
1.2810588976377952
20
-3.9613042125984252
11
1.2844488188976377
21
-3.9606299212598426
0
LINE
8
BLACK
6
CONTINUOUS
10
1.2844488188976377
20
-3.9606299212598426
11
1.3139763779527558
21
-3.9606299212598426
0
LINE
8
BLACK
6
CONTINUOUS
10
1.3139763779527558
20
-3.9606299212598426
11
1.3173662992125983
21
-3.9613042125984252
0
LINE
8
BLACK
6
CONTINUOUS
10
2.0260277165354332
20
-3.9613042125984252
11
2.0289015354330706
21
-3.9632244488188975
0
LINE
8
BLACK
6
CONTINUOUS
10
2.0289015354330706
20
-3.9632244488188975
11
2.0308217716535433
21
-3.9660982677165353
0
LINE
8
BLACK
6
CONTINUOUS
10
2.0308217716535433
20
-3.9660982677165353
11
2.0314960629921259
21
-3.9694881889763778
0
LINE
8
BLACK
6
CONTINUOUS
10
2.0314960629921259
20
-3.9694881889763778
11
2.0314960629921259
21
-3.9872047244094486
0
LINE
8
BLACK
6
CONTINUOUS
10
2.0314960629921259
20
-3.9872047244094486
11
2.0308217716535433
21
-3.9905946456692911
0
LINE
8
BLACK
6
CONTINUOUS
10
2.0308217716535433
20
-3.9905946456692911
11
2.0289015354330706
21
-3.9934684645669289
0
LINE
8
BLACK
6
CONTINUOUS
10
2.0289015354330706
20
-3.9934684645669289
11
2.0260277165354332
21
-3.9953887007874016
0
LINE
8
BLACK
6
CONTINUOUS
10
2.0260277165354332
20
-3.9953887007874016
11
2.0226377952755903
21
-3.9960629921259843
0
LINE
8
BLACK
6
CONTINUOUS
10
2.0226377952755903
20
-3.9960629921259843
11
1.9931102362204725
21
-3.9960629921259843
0
LINE
8
BLACK
6
CONTINUOUS
10
1.9931102362204725
20
-3.9960629921259843
11
1.98972031496063
21
-3.9953887007874016
0
LINE
8
BLACK
6
CONTINUOUS
10
1.98972031496063
20
-3.9953887007874016
11
1.9868464960629921
21
-3.9934684645669289
0
LINE
8
BLACK
6
CONTINUOUS
10
1.9868464960629921
20
-3.9934684645669289
11
1.9849262598425197
21
-3.9905946456692911
0
LINE
8
BLACK
6
CONTINUOUS
10
1.9849262598425197
20
-3.9905946456692911
11
1.984251968503937
21
-3.9872047244094486
0
LINE
8
BLACK
6
CONTINUOUS
10
1.984251968503937
20
-3.9872047244094486
11
1.984251968503937
21
-3.9694881889763778
0
LINE
8
BLACK
6
CONTINUOUS
10
1.984251968503937
20
-3.9694881889763778
11
1.9849262598425197
21
-3.9660982677165353
0
LINE
8
BLACK
6
CONTINUOUS
10
1.9849262598425197
20
-3.9660982677165353
11
1.9868464960629921
21
-3.9632244488188975
0
LINE
8
BLACK
6
CONTINUOUS
10
1.9868464960629921
20
-3.9632244488188975
11
1.98972031496063
21
-3.9613042125984252
0
LINE
8
BLACK
6
CONTINUOUS
10
1.98972031496063
20
-3.9613042125984252
11
1.9931102362204725
21
-3.9606299212598426
0
LINE
8
BLACK
6
CONTINUOUS
10
1.9931102362204725
20
-3.9606299212598426
11
2.0226377952755903
21
-3.9606299212598426
0
LINE
8
BLACK
6
CONTINUOUS
10
2.0226377952755903
20
-3.9606299212598426
11
2.0260277165354332
21
-3.9613042125984252
0
LINE
8
BLACK
6
CONTINUOUS
10
2.7346891338582675
20
-3.9613042125984252
11
2.7375629527559053
21
-3.9632244488188975
0
LINE
8
BLACK
6
CONTINUOUS
10
2.7375629527559053
20
-3.9632244488188975
11
2.739483188976378
21
-3.9660982677165353
0
LINE
8
BLACK
6
CONTINUOUS
10
2.739483188976378
20
-3.9660982677165353
11
2.7401574803149606
21
-3.9694881889763778
0
LINE
8
BLACK
6
CONTINUOUS
10
2.7401574803149606
20
-3.9694881889763778
11
2.7401574803149606
21
-3.9872047244094486
0
LINE
8
BLACK
6
CONTINUOUS
10
2.7401574803149606
20
-3.9872047244094486
11
2.739483188976378
21
-3.9905946456692911
0
LINE
8
BLACK
6
CONTINUOUS
10
2.739483188976378
20
-3.9905946456692911
11
2.7375629527559053
21
-3.9934684645669289
0
LINE
8
BLACK
6
CONTINUOUS
10
2.7375629527559053
20
-3.9934684645669289
11
2.7346891338582675
21
-3.9953887007874016
0
LINE
8
BLACK
6
CONTINUOUS
10
2.7346891338582675
20
-3.9953887007874016
11
2.731299212598425
21
-3.9960629921259843
0
LINE
8
BLACK
6
CONTINUOUS
10
2.731299212598425
20
-3.9960629921259843
11
2.701771653543307
21
-3.9960629921259843
0
LINE
8
BLACK
6
CONTINUOUS
10
2.701771653543307
20
-3.9960629921259843
11
2.6983817322834645
21
-3.9953887007874016
0
LINE
8
BLACK
6
CONTINUOUS
10
2.6983817322834645
20
-3.9953887007874016
11
2.6955079133858266
21
-3.9934684645669289
0
LINE
8
BLACK
6
CONTINUOUS
10
2.6955079133858266
20
-3.9934684645669289
11
2.6935876771653544
21
-3.9905946456692911
0
LINE
8
BLACK
6
CONTINUOUS
10
2.6935876771653544
20
-3.9905946456692911
11
2.6929133858267718
21
-3.9872047244094486
0
LINE
8
BLACK
6
CONTINUOUS
10
2.6929133858267718
20
-3.9872047244094486
11
2.6929133858267718
21
-3.9694881889763778
0
LINE
8
BLACK
6
CONTINUOUS
10
2.6929133858267718
20
-3.9694881889763778
11
2.6935876771653544
21
-3.9660982677165353
0
LINE
8
BLACK
6
CONTINUOUS
10
2.6935876771653544
20
-3.9660982677165353
11
2.6955079133858266
21
-3.9632244488188975
0
LINE
8
BLACK
6
CONTINUOUS
10
2.6955079133858266
20
-3.9632244488188975
11
2.6983817322834645
21
-3.9613042125984252
0
LINE
8
BLACK
6
CONTINUOUS
10
2.6983817322834645
20
-3.9613042125984252
11
2.701771653543307
21
-3.9606299212598426
0
LINE
8
BLACK
6
CONTINUOUS
10
2.701771653543307
20
-3.9606299212598426
11
2.731299212598425
21
-3.9606299212598426
0
LINE
8
BLACK
6
CONTINUOUS
10
2.731299212598425
20
-3.9606299212598426
11
2.7346891338582675
21
-3.9613042125984252
0
LINE
8
BLACK
6
CONTINUOUS
10
3.4433505511811022
20
-3.9613042125984252
11
3.4462243700787401
21
-3.9632244488188975
0
LINE
8
BLACK
6
CONTINUOUS
10
3.4462243700787401
20
-3.9632244488188975
11
3.4481446062992127
21
-3.9660982677165353
0
LINE
8
BLACK
6
CONTINUOUS
10
3.4481446062992127
20
-3.9660982677165353
11
3.4488188976377954
21
-3.9694881889763778
0
LINE
8
BLACK
6
CONTINUOUS
10
3.4488188976377954
20
-3.9694881889763778
11
3.4488188976377954
21
-3.9872047244094486
0
LINE
8
BLACK
6
CONTINUOUS
10
3.4488188976377954
20
-3.9872047244094486
11
3.4481446062992127
21
-3.9905946456692911
0
LINE
8
BLACK
6
CONTINUOUS
10
3.4481446062992127
20
-3.9905946456692911
11
3.4462243700787401
21
-3.9934684645669289
0
LINE
8
BLACK
6
CONTINUOUS
10
3.4462243700787401
20
-3.9934684645669289
11
3.4433505511811022
21
-3.9953887007874016
0
LINE
8
BLACK
6
CONTINUOUS
10
3.4433505511811022
20
-3.9953887007874016
11
3.4399606299212597
21
-3.9960629921259843
0
LINE
8
BLACK
6
CONTINUOUS
10
3.4399606299212597
20
-3.9960629921259843
11
3.4104330708661417
21
-3.9960629921259843
0
LINE
8
BLACK
6
CONTINUOUS
10
3.4104330708661417
20
-3.9960629921259843
11
3.4070431496062992
21
-3.9953887007874016
0
LINE
8
BLACK
6
CONTINUOUS
10
3.4070431496062992
20
-3.9953887007874016
11
3.4041693307086613
21
-3.9934684645669289
0
LINE
8
BLACK
6
CONTINUOUS
10
3.4041693307086613
20
-3.9934684645669289
11
3.4022490944881887
21
-3.9905946456692911
0
LINE
8
BLACK
6
CONTINUOUS
10
3.4022490944881887
20
-3.9905946456692911
11
3.401574803149606
21
-3.9872047244094486
0
LINE
8
BLACK
6
CONTINUOUS
10
3.401574803149606
20
-3.9872047244094486
11
3.401574803149606
21
-3.9694881889763778
0
LINE
8
BLACK
6
CONTINUOUS
10
3.401574803149606
20
-3.9694881889763778
11
3.4022490944881887
21
-3.9660982677165353
0
LINE
8
BLACK
6
CONTINUOUS
10
3.4022490944881887
20
-3.9660982677165353
11
3.4041693307086613
21
-3.9632244488188975
0
LINE
8
BLACK
6
CONTINUOUS
10
3.4041693307086613
20
-3.9632244488188975
11
3.4070431496062992
21
-3.9613042125984252
0
LINE
8
BLACK
6
CONTINUOUS
10
3.4070431496062992
20
-3.9613042125984252
11
3.4104330708661417
21
-3.9606299212598426
0
LINE
8
BLACK
6
CONTINUOUS
10
3.4104330708661417
20
-3.9606299212598426
11
3.4399606299212597
21
-3.9606299212598426
0
LINE
8
BLACK
6
CONTINUOUS
10
3.4399606299212597
20
-3.9606299212598426
11
3.4433505511811022
21
-3.9613042125984252
0
LINE
8
BLACK
6
CONTINUOUS
10
1.7877755118110237
20
-3.817708307086614
11
1.7910963779527558
21
-3.819927244094488
0
LINE
8
BLACK
6
CONTINUOUS
10
1.7910963779527558
20
-3.819927244094488
11
1.7933153149606298
21
-3.8232481102362206
0
LINE
8
BLACK
6
CONTINUOUS
10
1.7933153149606298
20
-3.8232481102362206
11
1.7940944881889764
21
-3.8271653543307087
0
LINE
8
BLACK
6
CONTINUOUS
10
1.7940944881889764
20
-3.8271653543307087
11
1.7940944881889764
21
-3.9090551181102362
0
LINE
8
BLACK
6
CONTINUOUS
10
1.7940944881889764
20
-3.9090551181102362
11
1.7933153149606298
21
-3.9129723622047243
0
LINE
8
BLACK
6
CONTINUOUS
10
1.7933153149606298
20
-3.9129723622047243
11
1.7910963779527558
21
-3.9162932283464564
0
LINE
8
BLACK
6
CONTINUOUS
10
1.7910963779527558
20
-3.9162932283464564
11
1.7877755118110237
21
-3.9185121653543304
0
LINE
8
BLACK
6
CONTINUOUS
10
1.7877755118110237
20
-3.9185121653543304
11
1.7838582677165353
21
-3.9192913385826769
0
LINE
8
BLACK
6
CONTINUOUS
10
1.7838582677165353
20
-3.9192913385826769
11
1.7
21
-3.9192913385826769
0
LINE
8
BLACK
6
CONTINUOUS
10
1.7
20
-3.9192913385826769
11
1.6960827559055118
21
-3.9185121653543304
0
LINE
8
BLACK
6
CONTINUOUS
10
1.6960827559055118
20
-3.9185121653543304
11
1.6927618897637795
21
-3.9162932283464564
0
LINE
8
BLACK
6
CONTINUOUS
10
1.6927618897637795
20
-3.9162932283464564
11
1.6905429527559055
21
-3.9129723622047243
0
LINE
8
BLACK
6
CONTINUOUS
10
1.6905429527559055
20
-3.9129723622047243
11
1.6897637795275591
21
-3.9090551181102362
0
LINE
8
BLACK
6
CONTINUOUS
10
1.6897637795275591
20
-3.9090551181102362
11
1.6897637795275591
21
-3.8271653543307087
0
LINE
8
BLACK
6
CONTINUOUS
10
1.6897637795275591
20
-3.8271653543307087
11
1.6905429527559055
21
-3.8232481102362206
0
LINE
8
BLACK
6
CONTINUOUS
10
1.6905429527559055
20
-3.8232481102362206
11
1.6927618897637795
21
-3.819927244094488
0
LINE
8
BLACK
6
CONTINUOUS
10
1.6927618897637795
20
-3.819927244094488
11
1.6960827559055118
21
-3.817708307086614
0
LINE
8
BLACK
6
CONTINUOUS
10
1.6960827559055118
20
-3.817708307086614
11
1.7
21
-3.8169291338582676
0
LINE
8
BLACK
6
CONTINUOUS
10
1.7
20
-3.8169291338582676
11
1.7838582677165353
21
-3.8169291338582676
0
LINE
8
BLACK
6
CONTINUOUS
10
1.7838582677165353
20
-3.8169291338582676
11
1.7877755118110237
21
-3.817708307086614
0
LINE
8
BLACK
6
CONTINUOUS
10
2.4964369291338584
20
-3.817708307086614
11
2.4997577952755905
21
-3.819927244094488
0
LINE
8
BLACK
6
CONTINUOUS
10
2.4997577952755905
20
-3.819927244094488
11
2.5019767322834645
21
-3.8232481102362206
0
LINE
8
BLACK
6
CONTINUOUS
10
2.5019767322834645
20
-3.8232481102362206
11
2.5027559055118109
21
-3.8271653543307087
0
LINE
8
BLACK
6
CONTINUOUS
10
2.5027559055118109
20
-3.8271653543307087
11
2.5027559055118109
21
-3.9090551181102362
0
LINE
8
BLACK
6
CONTINUOUS
10
2.5027559055118109
20
-3.9090551181102362
11
2.5019767322834645
21
-3.9129723622047243
0
LINE
8
BLACK
6
CONTINUOUS
10
2.5019767322834645
20
-3.9129723622047243
11
2.4997577952755905
21
-3.9162932283464564
0
LINE
8
BLACK
6
CONTINUOUS
10
2.4997577952755905
20
-3.9162932283464564
11
2.4964369291338584
21
-3.9185121653543304
0
LINE
8
BLACK
6
CONTINUOUS
10
2.4964369291338584
20
-3.9185121653543304
11
2.4925196850393698
21
-3.9192913385826769
0
LINE
8
BLACK
6
CONTINUOUS
10
2.4925196850393698
20
-3.9192913385826769
11
2.4086614173228345
21
-3.9192913385826769
0
LINE
8
BLACK
6
CONTINUOUS
10
2.4086614173228345
20
-3.9192913385826769
11
2.4047441732283463
21
-3.9185121653543304
0
LINE
8
BLACK
6
CONTINUOUS
10
2.4047441732283463
20
-3.9185121653543304
11
2.4014233070866142
21
-3.9162932283464564
0
LINE
8
BLACK
6
CONTINUOUS
10
2.4014233070866142
20
-3.9162932283464564
11
2.3992043700787402
21
-3.9129723622047243
0
LINE
8
BLACK
6
CONTINUOUS
10
2.3992043700787402
20
-3.9129723622047243
11
2.3984251968503938
21
-3.9090551181102362
0
LINE
8
BLACK
6
CONTINUOUS
10
2.3984251968503938
20
-3.9090551181102362
11
2.3984251968503938
21
-3.8271653543307087
0
LINE
8
BLACK
6
CONTINUOUS
10
2.3984251968503938
20
-3.8271653543307087
11
2.3992043700787402
21
-3.8232481102362206
0
LINE
8
BLACK
6
CONTINUOUS
10
2.3992043700787402
20
-3.8232481102362206
11
2.4014233070866142
21
-3.819927244094488
0
LINE
8
BLACK
6
CONTINUOUS
10
2.4014233070866142
20
-3.819927244094488
11
2.4047441732283463
21
-3.817708307086614
0
LINE
8
BLACK
6
CONTINUOUS
10
2.4047441732283463
20
-3.817708307086614
11
2.4086614173228345
21
-3.8169291338582676
0
LINE
8
BLACK
6
CONTINUOUS
10
2.4086614173228345
20
-3.8169291338582676
11
2.4925196850393698
21
-3.8169291338582676
0
LINE
8
BLACK
6
CONTINUOUS
10
2.4925196850393698
20
-3.8169291338582676
11
2.4964369291338584
21
-3.817708307086614
0
LINE
8
BLACK
6
CONTINUOUS
10
3.2050983464566927
20
-3.817708307086614
11
3.2084192125984252
21
-3.819927244094488
0
LINE
8
BLACK
6
CONTINUOUS
10
3.2084192125984252
20
-3.819927244094488
11
3.2106381496062992
21
-3.8232481102362206
0
LINE
8
BLACK
6
CONTINUOUS
10
3.2106381496062992
20
-3.8232481102362206
11
3.2114173228346456
21
-3.8271653543307087
0
LINE
8
BLACK
6
CONTINUOUS
10
3.2114173228346456
20
-3.8271653543307087
11
3.2114173228346456
21
-3.9090551181102362
0
LINE
8
BLACK
6
CONTINUOUS
10
3.2114173228346456
20
-3.9090551181102362
11
3.2106381496062992
21
-3.9129723622047243
0
LINE
8
BLACK
6
CONTINUOUS
10
3.2106381496062992
20
-3.9129723622047243
11
3.2084192125984252
21
-3.9162932283464564
0
LINE
8
BLACK
6
CONTINUOUS
10
3.2084192125984252
20
-3.9162932283464564
11
3.2050983464566927
21
-3.9185121653543304
0
LINE
8
BLACK
6
CONTINUOUS
10
3.2050983464566927
20
-3.9185121653543304
11
3.2011811023622045
21
-3.9192913385826769
0
LINE
8
BLACK
6
CONTINUOUS
10
3.2011811023622045
20
-3.9192913385826769
11
3.1173228346456692
21
-3.9192913385826769
0
LINE
8
BLACK
6
CONTINUOUS
10
3.1173228346456692
20
-3.9192913385826769
11
3.113405590551181
21
-3.9185121653543304
0
LINE
8
BLACK
6
CONTINUOUS
10
3.113405590551181
20
-3.9185121653543304
11
3.1100847244094489
21
-3.9162932283464564
0
LINE
8
BLACK
6
CONTINUOUS
10
3.1100847244094489
20
-3.9162932283464564
11
3.1078657874015749
21
-3.9129723622047243
0
LINE
8
BLACK
6
CONTINUOUS
10
3.1078657874015749
20
-3.9129723622047243
11
3.1070866141732281
21
-3.9090551181102362
0
LINE
8
BLACK
6
CONTINUOUS
10
3.1070866141732281
20
-3.9090551181102362
11
3.1070866141732281
21
-3.8271653543307087
0
LINE
8
BLACK
6
CONTINUOUS
10
3.1070866141732281
20
-3.8271653543307087
11
3.1078657874015749
21
-3.8232481102362206
0
LINE
8
BLACK
6
CONTINUOUS
10
3.1078657874015749
20
-3.8232481102362206
11
3.1100847244094489
21
-3.819927244094488
0
LINE
8
BLACK
6
CONTINUOUS
10
3.1100847244094489
20
-3.819927244094488
11
3.113405590551181
21
-3.817708307086614
0
LINE
8
BLACK
6
CONTINUOUS
10
3.113405590551181
20
-3.817708307086614
11
3.1173228346456692
21
-3.8169291338582676
0
LINE
8
BLACK
6
CONTINUOUS
10
3.1173228346456692
20
-3.8169291338582676
11
3.2011811023622045
21
-3.8169291338582676
0
LINE
8
BLACK
6
CONTINUOUS
10
3.2011811023622045
20
-3.8169291338582676
11
3.2050983464566927
21
-3.817708307086614
0
LINE
8
BLACK
6
CONTINUOUS
10
3.9137597637795274
20
-3.817708307086614
11
3.9170806299212599
21
-3.819927244094488
0
LINE
8
BLACK
6
CONTINUOUS
10
3.9170806299212599
20
-3.819927244094488
11
3.9192995669291339
21
-3.8232481102362206
0
LINE
8
BLACK
6
CONTINUOUS
10
3.9192995669291339
20
-3.8232481102362206
11
3.9200787401574804
21
-3.8271653543307087
0
LINE
8
BLACK
6
CONTINUOUS
10
3.9200787401574804
20
-3.8271653543307087
11
3.9200787401574804
21
-3.9090551181102362
0
LINE
8
BLACK
6
CONTINUOUS
10
3.9200787401574804
20
-3.9090551181102362
11
3.9192995669291339
21
-3.9129723622047243
0
LINE
8
BLACK
6
CONTINUOUS
10
3.9192995669291339
20
-3.9129723622047243
11
3.9170806299212599
21
-3.9162932283464564
0
LINE
8
BLACK
6
CONTINUOUS
10
3.9170806299212599
20
-3.9162932283464564
11
3.9137597637795274
21
-3.9185121653543304
0
LINE
8
BLACK
6
CONTINUOUS
10
3.9137597637795274
20
-3.9185121653543304
11
3.9098425196850393
21
-3.9192913385826769
0
LINE
8
BLACK
6
CONTINUOUS
10
3.9098425196850393
20
-3.9192913385826769
11
3.8259842519685039
21
-3.9192913385826769
0
LINE
8
BLACK
6
CONTINUOUS
10
3.8259842519685039
20
-3.9192913385826769
11
3.8220670078740158
21
-3.9185121653543304
0
LINE
8
BLACK
6
CONTINUOUS
10
3.8220670078740158
20
-3.9185121653543304
11
3.8187461417322832
21
-3.9162932283464564
0
LINE
8
BLACK
6
CONTINUOUS
10
3.8187461417322832
20
-3.9162932283464564
11
3.8165272047244092
21
-3.9129723622047243
0
LINE
8
BLACK
6
CONTINUOUS
10
3.8165272047244092
20
-3.9129723622047243
11
3.8157480314960628
21
-3.9090551181102362
0
LINE
8
BLACK
6
CONTINUOUS
10
3.8157480314960628
20
-3.9090551181102362
11
3.8157480314960628
21
-3.8271653543307087
0
LINE
8
BLACK
6
CONTINUOUS
10
3.8157480314960628
20
-3.8271653543307087
11
3.8165272047244092
21
-3.8232481102362206
0
LINE
8
BLACK
6
CONTINUOUS
10
3.8165272047244092
20
-3.8232481102362206
11
3.8187461417322832
21
-3.819927244094488
0
LINE
8
BLACK
6
CONTINUOUS
10
3.8187461417322832
20
-3.819927244094488
11
3.8220670078740158
21
-3.817708307086614
0
LINE
8
BLACK
6
CONTINUOUS
10
3.8220670078740158
20
-3.817708307086614
11
3.8259842519685039
21
-3.8169291338582676
0
LINE
8
BLACK
6
CONTINUOUS
10
3.8259842519685039
20
-3.8169291338582676
11
3.9098425196850393
21
-3.8169291338582676
0
LINE
8
BLACK
6
CONTINUOUS
10
3.9098425196850393
20
-3.8169291338582676
11
3.9137597637795274
21
-3.817708307086614
0
LINE
8
BLACK
6
CONTINUOUS
10
1.3354133070866141
20
-3.7310941338582677
11
1.3387341732283464
21
-3.7333130708661417
0
LINE
8
BLACK
6
CONTINUOUS
10
1.3387341732283464
20
-3.7333130708661417
11
1.3409531102362204
21
-3.7366339370078738
0
LINE
8
BLACK
6
CONTINUOUS
10
1.3409531102362204
20
-3.7366339370078738
11
1.3417322834645669
21
-3.740551181102362
0
LINE
8
BLACK
6
CONTINUOUS
10
1.3417322834645669
20
-3.740551181102362
11
1.3417322834645669
21
-3.8224409448818895
0
LINE
8
BLACK
6
CONTINUOUS
10
1.3417322834645669
20
-3.8224409448818895
11
1.3409531102362204
21
-3.826358188976378
0
LINE
8
BLACK
6
CONTINUOUS
10
1.3409531102362204
20
-3.826358188976378
11
1.3387341732283464
21
-3.8296790551181101
0
LINE
8
BLACK
6
CONTINUOUS
10
1.3387341732283464
20
-3.8296790551181101
11
1.3354133070866141
21
-3.8318979921259841
0
LINE
8
BLACK
6
CONTINUOUS
10
1.3354133070866141
20
-3.8318979921259841
11
1.331496062992126
21
-3.8326771653543306
0
LINE
8
BLACK
6
CONTINUOUS
10
1.331496062992126
20
-3.8326771653543306
11
1.2476377952755906
21
-3.8326771653543306
0
LINE
8
BLACK
6
CONTINUOUS
10
1.2476377952755906
20
-3.8326771653543306
11
1.2437205511811023
21
-3.8318979921259841
0
LINE
8
BLACK
6
CONTINUOUS
10
1.2437205511811023
20
-3.8318979921259841
11
1.2403996850393701
21
-3.8296790551181101
0
LINE
8
BLACK
6
CONTINUOUS
10
1.2403996850393701
20
-3.8296790551181101
11
1.2381807480314961
21
-3.826358188976378
0
LINE
8
BLACK
6
CONTINUOUS
10
1.2381807480314961
20
-3.826358188976378
11
1.2374015748031495
21
-3.8224409448818895
0
LINE
8
BLACK
6
CONTINUOUS
10
1.2374015748031495
20
-3.8224409448818895
11
1.2374015748031495
21
-3.740551181102362
0
LINE
8
BLACK
6
CONTINUOUS
10
1.2374015748031495
20
-3.740551181102362
11
1.2381807480314961
21
-3.7366339370078738
0
LINE
8
BLACK
6
CONTINUOUS
10
1.2381807480314961
20
-3.7366339370078738
11
1.2403996850393701
21
-3.7333130708661417
0
LINE
8
BLACK
6
CONTINUOUS
10
1.2403996850393701
20
-3.7333130708661417
11
1.2437205511811023
21
-3.7310941338582677
0
LINE
8
BLACK
6
CONTINUOUS
10
1.2437205511811023
20
-3.7310941338582677
11
1.2476377952755906
21
-3.7303149606299213
0
LINE
8
BLACK
6
CONTINUOUS
10
1.2476377952755906
20
-3.7303149606299213
11
1.331496062992126
21
-3.7303149606299213
0
LINE
8
BLACK
6
CONTINUOUS
10
1.331496062992126
20
-3.7303149606299213
11
1.3354133070866141
21
-3.7310941338582677
0
LINE
8
BLACK
6
CONTINUOUS
10
2.0440747244094486
20
-3.7310941338582677
11
2.0473955905511811
21
-3.7333130708661417
0
LINE
8
BLACK
6
CONTINUOUS
10
2.0473955905511811
20
-3.7333130708661417
11
2.0496145275590552
21
-3.7366339370078738
0
LINE
8
BLACK
6
CONTINUOUS
10
2.0496145275590552
20
-3.7366339370078738
11
2.0503937007874016
21
-3.740551181102362
0
LINE
8
BLACK
6
CONTINUOUS
10
2.0503937007874016
20
-3.740551181102362
11
2.0503937007874016
21
-3.8224409448818895
0
LINE
8
BLACK
6
CONTINUOUS
10
2.0503937007874016
20
-3.8224409448818895
11
2.0496145275590552
21
-3.826358188976378
0
LINE
8
BLACK
6
CONTINUOUS
10
2.0496145275590552
20
-3.826358188976378
11
2.0473955905511811
21
-3.8296790551181101
0
LINE
8
BLACK
6
CONTINUOUS
10
2.0473955905511811
20
-3.8296790551181101
11
2.0440747244094486
21
-3.8318979921259841
0
LINE
8
BLACK
6
CONTINUOUS
10
2.0440747244094486
20
-3.8318979921259841
11
2.0401574803149605
21
-3.8326771653543306
0
LINE
8
BLACK
6
CONTINUOUS
10
2.0401574803149605
20
-3.8326771653543306
11
1.9562992125984251
21
-3.8326771653543306
0
LINE
8
BLACK
6
CONTINUOUS
10
1.9562992125984251
20
-3.8326771653543306
11
1.952381968503937
21
-3.8318979921259841
0
LINE
8
BLACK
6
CONTINUOUS
10
1.952381968503937
20
-3.8318979921259841
11
1.9490611023622046
21
-3.8296790551181101
0
LINE
8
BLACK
6
CONTINUOUS
10
1.9490611023622046
20
-3.8296790551181101
11
1.9468421653543306
21
-3.826358188976378
0
LINE
8
BLACK
6
CONTINUOUS
10
1.9468421653543306
20
-3.826358188976378
11
1.9460629921259842
21
-3.8224409448818895
0
LINE
8
BLACK
6
CONTINUOUS
10
1.9460629921259842
20
-3.8224409448818895
11
1.9460629921259842
21
-3.740551181102362
0
LINE
8
BLACK
6
CONTINUOUS
10
1.9460629921259842
20
-3.740551181102362
11
1.9468421653543306
21
-3.7366339370078738
0
LINE
8
BLACK
6
CONTINUOUS
10
1.9468421653543306
20
-3.7366339370078738
11
1.9490611023622046
21
-3.7333130708661417
0
LINE
8
BLACK
6
CONTINUOUS
10
1.9490611023622046
20
-3.7333130708661417
11
1.952381968503937
21
-3.7310941338582677
0
LINE
8
BLACK
6
CONTINUOUS
10
1.952381968503937
20
-3.7310941338582677
11
1.9562992125984251
21
-3.7303149606299213
0
LINE
8
BLACK
6
CONTINUOUS
10
1.9562992125984251
20
-3.7303149606299213
11
2.0401574803149605
21
-3.7303149606299213
0
LINE
8
BLACK
6
CONTINUOUS
10
2.0401574803149605
20
-3.7303149606299213
11
2.0440747244094486
21
-3.7310941338582677
0
LINE
8
BLACK
6
CONTINUOUS
10
2.7527361417322833
20
-3.7310941338582677
11
2.7560570078740159
21
-3.7333130708661417
0
LINE
8
BLACK
6
CONTINUOUS
10
2.7560570078740159
20
-3.7333130708661417
11
2.7582759448818899
21
-3.7366339370078738
0
LINE
8
BLACK
6
CONTINUOUS
10
2.7582759448818899
20
-3.7366339370078738
11
2.7590551181102363
21
-3.740551181102362
0
LINE
8
BLACK
6
CONTINUOUS
10
2.7590551181102363
20
-3.740551181102362
11
2.7590551181102363
21
-3.8224409448818895
0
LINE
8
BLACK
6
CONTINUOUS
10
2.7590551181102363
20
-3.8224409448818895
11
2.7582759448818899
21
-3.826358188976378
0
LINE
8
BLACK
6
CONTINUOUS
10
2.7582759448818899
20
-3.826358188976378
11
2.7560570078740159
21
-3.8296790551181101
0
LINE
8
BLACK
6
CONTINUOUS
10
2.7560570078740159
20
-3.8296790551181101
11
2.7527361417322833
21
-3.8318979921259841
0
LINE
8
BLACK
6
CONTINUOUS
10
2.7527361417322833
20
-3.8318979921259841
11
2.7488188976377952
21
-3.8326771653543306
0
LINE
8
BLACK
6
CONTINUOUS
10
2.7488188976377952
20
-3.8326771653543306
11
2.6649606299212598
21
-3.8326771653543306
0
LINE
8
BLACK
6
CONTINUOUS
10
2.6649606299212598
20
-3.8326771653543306
11
2.6610433858267717
21
-3.8318979921259841
0
LINE
8
BLACK
6
CONTINUOUS
10
2.6610433858267717
20
-3.8318979921259841
11
2.6577225196850391
21
-3.8296790551181101
0
LINE
8
BLACK
6
CONTINUOUS
10
2.6577225196850391
20
-3.8296790551181101
11
2.6555035826771651
21
-3.826358188976378
0
LINE
8
BLACK
6
CONTINUOUS
10
2.6555035826771651
20
-3.826358188976378
11
2.6547244094488187
21
-3.8224409448818895
0
LINE
8
BLACK
6
CONTINUOUS
10
2.6547244094488187
20
-3.8224409448818895
11
2.6547244094488187
21
-3.740551181102362
0
LINE
8
BLACK
6
CONTINUOUS
10
2.6547244094488187
20
-3.740551181102362
11
2.6555035826771651
21
-3.7366339370078738
0
LINE
8
BLACK
6
CONTINUOUS
10
2.6555035826771651
20
-3.7366339370078738
11
2.6577225196850391
21
-3.7333130708661417
0
LINE
8
BLACK
6
CONTINUOUS
10
2.6577225196850391
20
-3.7333130708661417
11
2.6610433858267717
21
-3.7310941338582677
0
LINE
8
BLACK
6
CONTINUOUS
10
2.6610433858267717
20
-3.7310941338582677
11
2.6649606299212598
21
-3.7303149606299213
0
LINE
8
BLACK
6
CONTINUOUS
10
2.6649606299212598
20
-3.7303149606299213
11
2.7488188976377952
21
-3.7303149606299213
0
LINE
8
BLACK
6
CONTINUOUS
10
2.7488188976377952
20
-3.7303149606299213
11
2.7527361417322833
21
-3.7310941338582677
0
LINE
8
BLACK
6
CONTINUOUS
10
3.461397559055118
20
-3.7310941338582677
11
3.4647184251968501
21
-3.7333130708661417
0
LINE
8
BLACK
6
CONTINUOUS
10
3.4647184251968501
20
-3.7333130708661417
11
3.4669373622047241
21
-3.7366339370078738
0
LINE
8
BLACK
6
CONTINUOUS
10
3.4669373622047241
20
-3.7366339370078738
11
3.4677165354330706
21
-3.740551181102362
0
LINE
8
BLACK
6
CONTINUOUS
10
3.4677165354330706
20
-3.740551181102362
11
3.4677165354330706
21
-3.8224409448818895
0
LINE
8
BLACK
6
CONTINUOUS
10
3.4677165354330706
20
-3.8224409448818895
11
3.4669373622047241
21
-3.826358188976378
0
LINE
8
BLACK
6
CONTINUOUS
10
3.4669373622047241
20
-3.826358188976378
11
3.4647184251968501
21
-3.8296790551181101
0
LINE
8
BLACK
6
CONTINUOUS
10
3.4647184251968501
20
-3.8296790551181101
11
3.461397559055118
21
-3.8318979921259841
0
LINE
8
BLACK
6
CONTINUOUS
10
3.461397559055118
20
-3.8318979921259841
11
3.4574803149606299
21
-3.8326771653543306
0
LINE
8
BLACK
6
CONTINUOUS
10
3.4574803149606299
20
-3.8326771653543306
11
3.3736220472440945
21
-3.8326771653543306
0
LINE
8
BLACK
6
CONTINUOUS
10
3.3736220472440945
20
-3.8326771653543306
11
3.3697048031496064
21
-3.8318979921259841
0
LINE
8
BLACK
6
CONTINUOUS
10
3.3697048031496064
20
-3.8318979921259841
11
3.3663839370078739
21
-3.8296790551181101
0
LINE
8
BLACK
6
CONTINUOUS
10
3.3663839370078739
20
-3.8296790551181101
11
3.3641649999999998
21
-3.826358188976378
0
LINE
8
BLACK
6
CONTINUOUS
10
3.3641649999999998
20
-3.826358188976378
11
3.3633858267716534
21
-3.8224409448818895
0
LINE
8
BLACK
6
CONTINUOUS
10
3.3633858267716534
20
-3.8224409448818895
11
3.3633858267716534
21
-3.740551181102362
0
LINE
8
BLACK
6
CONTINUOUS
10
3.3633858267716534
20
-3.740551181102362
11
3.3641649999999998
21
-3.7366339370078738
0
LINE
8
BLACK
6
CONTINUOUS
10
3.3641649999999998
20
-3.7366339370078738
11
3.3663839370078739
21
-3.7333130708661417
0
LINE
8
BLACK
6
CONTINUOUS
10
3.3663839370078739
20
-3.7333130708661417
11
3.3697048031496064
21
-3.7310941338582677
0
LINE
8
BLACK
6
CONTINUOUS
10
3.3697048031496064
20
-3.7310941338582677
11
3.3736220472440945
21
-3.7303149606299213
0
LINE
8
BLACK
6
CONTINUOUS
10
3.3736220472440945
20
-3.7303149606299213
11
3.4574803149606299
21
-3.7303149606299213
0
LINE
8
BLACK
6
CONTINUOUS
10
3.4574803149606299
20
-3.7303149606299213
11
3.461397559055118
21
-3.7310941338582677
0
LINE
8
BLACK
6
CONTINUOUS
10
1.3173662992125983
20
-3.4219341338582678
11
1.3202401181102361
21
-3.4238543700787401
0
LINE
8
BLACK
6
CONTINUOUS
10
1.3202401181102361
20
-3.4238543700787401
11
1.3221603543307086
21
-3.4267281889763779
0
LINE
8
BLACK
6
CONTINUOUS
10
1.3221603543307086
20
-3.4267281889763779
11
1.3228346456692912
21
-3.4301181102362204
0
LINE
8
BLACK
6
CONTINUOUS
10
1.3228346456692912
20
-3.4301181102362204
11
1.3228346456692912
21
-3.4478346456692912
0
LINE
8
BLACK
6
CONTINUOUS
10
1.3228346456692912
20
-3.4478346456692912
11
1.3221603543307086
21
-3.4512245669291337
0
LINE
8
BLACK
6
CONTINUOUS
10
1.3221603543307086
20
-3.4512245669291337
11
1.3202401181102361
21
-3.4540983858267715
0
LINE
8
BLACK
6
CONTINUOUS
10
1.3202401181102361
20
-3.4540983858267715
11
1.3173662992125983
21
-3.4560186220472442
0
LINE
8
BLACK
6
CONTINUOUS
10
1.3173662992125983
20
-3.4560186220472442
11
1.3139763779527558
21
-3.4566929133858268
0
LINE
8
BLACK
6
CONTINUOUS
10
1.3139763779527558
20
-3.4566929133858268
11
1.2844488188976377
21
-3.4566929133858268
0
LINE
8
BLACK
6
CONTINUOUS
10
1.2844488188976377
20
-3.4566929133858268
11
1.2810588976377952
21
-3.4560186220472442
0
LINE
8
BLACK
6
CONTINUOUS
10
1.2810588976377952
20
-3.4560186220472442
11
1.2781850787401574
21
-3.4540983858267715
0
LINE
8
BLACK
6
CONTINUOUS
10
1.2781850787401574
20
-3.4540983858267715
11
1.276264842519685
21
-3.4512245669291337
0
LINE
8
BLACK
6
CONTINUOUS
10
1.276264842519685
20
-3.4512245669291337
11
1.2755905511811023
21
-3.4478346456692912
0
LINE
8
BLACK
6
CONTINUOUS
10
1.2755905511811023
20
-3.4478346456692912
11
1.2755905511811023
21
-3.4301181102362204
0
LINE
8
BLACK
6
CONTINUOUS
10
1.2755905511811023
20
-3.4301181102362204
11
1.276264842519685
21
-3.4267281889763779
0
LINE
8
BLACK
6
CONTINUOUS
10
1.276264842519685
20
-3.4267281889763779
11
1.2781850787401574
21
-3.4238543700787401
0
LINE
8
BLACK
6
CONTINUOUS
10
1.2781850787401574
20
-3.4238543700787401
11
1.2810588976377952
21
-3.4219341338582678
0
LINE
8
BLACK
6
CONTINUOUS
10
1.2810588976377952
20
-3.4219341338582678
11
1.2844488188976377
21
-3.4212598425196852
0
LINE
8
BLACK
6
CONTINUOUS
10
1.2844488188976377
20
-3.4212598425196852
11
1.3139763779527558
21
-3.4212598425196852
0
LINE
8
BLACK
6
CONTINUOUS
10
1.3139763779527558
20
-3.4212598425196852
11
1.3173662992125983
21
-3.4219341338582678
0
LINE
8
BLACK
6
CONTINUOUS
10
2.0260277165354332
20
-3.4219341338582678
11
2.0289015354330706
21
-3.4238543700787401
0
LINE
8
BLACK
6
CONTINUOUS
10
2.0289015354330706
20
-3.4238543700787401
11
2.0308217716535433
21
-3.4267281889763779
0
LINE
8
BLACK
6
CONTINUOUS
10
2.0308217716535433
20
-3.4267281889763779
11
2.0314960629921259
21
-3.4301181102362204
0
LINE
8
BLACK
6
CONTINUOUS
10
2.0314960629921259
20
-3.4301181102362204
11
2.0314960629921259
21
-3.4478346456692912
0
LINE
8
BLACK
6
CONTINUOUS
10
2.0314960629921259
20
-3.4478346456692912
11
2.0308217716535433
21
-3.4512245669291337
0
LINE
8
BLACK
6
CONTINUOUS
10
2.0308217716535433
20
-3.4512245669291337
11
2.0289015354330706
21
-3.4540983858267715
0
LINE
8
BLACK
6
CONTINUOUS
10
2.0289015354330706
20
-3.4540983858267715
11
2.0260277165354332
21
-3.4560186220472442
0
LINE
8
BLACK
6
CONTINUOUS
10
2.0260277165354332
20
-3.4560186220472442
11
2.0226377952755903
21
-3.4566929133858268
0
LINE
8
BLACK
6
CONTINUOUS
10
2.0226377952755903
20
-3.4566929133858268
11
1.9931102362204725
21
-3.4566929133858268
0
LINE
8
BLACK
6
CONTINUOUS
10
1.9931102362204725
20
-3.4566929133858268
11
1.98972031496063
21
-3.4560186220472442
0
LINE
8
BLACK
6
CONTINUOUS
10
1.98972031496063
20
-3.4560186220472442
11
1.9868464960629921
21
-3.4540983858267715
0
LINE
8
BLACK
6
CONTINUOUS
10
1.9868464960629921
20
-3.4540983858267715
11
1.9849262598425197
21
-3.4512245669291337
0
LINE
8
BLACK
6
CONTINUOUS
10
1.9849262598425197
20
-3.4512245669291337
11
1.984251968503937
21
-3.4478346456692912
0
LINE
8
BLACK
6
CONTINUOUS
10
1.984251968503937
20
-3.4478346456692912
11
1.984251968503937
21
-3.4301181102362204
0
LINE
8
BLACK
6
CONTINUOUS
10
1.984251968503937
20
-3.4301181102362204
11
1.9849262598425197
21
-3.4267281889763779
0
LINE
8
BLACK
6
CONTINUOUS
10
1.9849262598425197
20
-3.4267281889763779
11
1.9868464960629921
21
-3.4238543700787401
0
LINE
8
BLACK
6
CONTINUOUS
10
1.9868464960629921
20
-3.4238543700787401
11
1.98972031496063
21
-3.4219341338582678
0
LINE
8
BLACK
6
CONTINUOUS
10
1.98972031496063
20
-3.4219341338582678
11
1.9931102362204725
21
-3.4212598425196852
0
LINE
8
BLACK
6
CONTINUOUS
10
1.9931102362204725
20
-3.4212598425196852
11
2.0226377952755903
21
-3.4212598425196852
0
LINE
8
BLACK
6
CONTINUOUS
10
2.0226377952755903
20
-3.4212598425196852
11
2.0260277165354332
21
-3.4219341338582678
0
LINE
8
BLACK
6
CONTINUOUS
10
2.7346891338582675
20
-3.4219341338582678
11
2.7375629527559053
21
-3.4238543700787401
0
LINE
8
BLACK
6
CONTINUOUS
10
2.7375629527559053
20
-3.4238543700787401
11
2.739483188976378
21
-3.4267281889763779
0
LINE
8
BLACK
6
CONTINUOUS
10
2.739483188976378
20
-3.4267281889763779
11
2.7401574803149606
21
-3.4301181102362204
0
LINE
8
BLACK
6
CONTINUOUS
10
2.7401574803149606
20
-3.4301181102362204
11
2.7401574803149606
21
-3.4478346456692912
0
LINE
8
BLACK
6
CONTINUOUS
10
2.7401574803149606
20
-3.4478346456692912
11
2.739483188976378
21
-3.4512245669291337
0
LINE
8
BLACK
6
CONTINUOUS
10
2.739483188976378
20
-3.4512245669291337
11
2.7375629527559053
21
-3.4540983858267715
0
LINE
8
BLACK
6
CONTINUOUS
10
2.7375629527559053
20
-3.4540983858267715
11
2.7346891338582675
21
-3.4560186220472442
0
LINE
8
BLACK
6
CONTINUOUS
10
2.7346891338582675
20
-3.4560186220472442
11
2.731299212598425
21
-3.4566929133858268
0
LINE
8
BLACK
6
CONTINUOUS
10
2.731299212598425
20
-3.4566929133858268
11
2.701771653543307
21
-3.4566929133858268
0
LINE
8
BLACK
6
CONTINUOUS
10
2.701771653543307
20
-3.4566929133858268
11
2.6983817322834645
21
-3.4560186220472442
0
LINE
8
BLACK
6
CONTINUOUS
10
2.6983817322834645
20
-3.4560186220472442
11
2.6955079133858266
21
-3.4540983858267715
0
LINE
8
BLACK
6
CONTINUOUS
10
2.6955079133858266
20
-3.4540983858267715
11
2.6935876771653544
21
-3.4512245669291337
0
LINE
8
BLACK
6
CONTINUOUS
10
2.6935876771653544
20
-3.4512245669291337
11
2.6929133858267718
21
-3.4478346456692912
0
LINE
8
BLACK
6
CONTINUOUS
10
2.6929133858267718
20
-3.4478346456692912
11
2.6929133858267718
21
-3.4301181102362204
0
LINE
8
BLACK
6
CONTINUOUS
10
2.6929133858267718
20
-3.4301181102362204
11
2.6935876771653544
21
-3.4267281889763779
0
LINE
8
BLACK
6
CONTINUOUS
10
2.6935876771653544
20
-3.4267281889763779
11
2.6955079133858266
21
-3.4238543700787401
0
LINE
8
BLACK
6
CONTINUOUS
10
2.6955079133858266
20
-3.4238543700787401
11
2.6983817322834645
21
-3.4219341338582678
0
LINE
8
BLACK
6
CONTINUOUS
10
2.6983817322834645
20
-3.4219341338582678
11
2.701771653543307
21
-3.4212598425196852
0
LINE
8
BLACK
6
CONTINUOUS
10
2.701771653543307
20
-3.4212598425196852
11
2.731299212598425
21
-3.4212598425196852
0
LINE
8
BLACK
6
CONTINUOUS
10
2.731299212598425
20
-3.4212598425196852
11
2.7346891338582675
21
-3.4219341338582678
0
LINE
8
BLACK
6
CONTINUOUS
10
3.4433505511811022
20
-3.4219341338582678
11
3.4462243700787401
21
-3.4238543700787401
0
LINE
8
BLACK
6
CONTINUOUS
10
3.4462243700787401
20
-3.4238543700787401
11
3.4481446062992127
21
-3.4267281889763779
0
LINE
8
BLACK
6
CONTINUOUS
10
3.4481446062992127
20
-3.4267281889763779
11
3.4488188976377954
21
-3.4301181102362204
0
LINE
8
BLACK
6
CONTINUOUS
10
3.4488188976377954
20
-3.4301181102362204
11
3.4488188976377954
21
-3.4478346456692912
0
LINE
8
BLACK
6
CONTINUOUS
10
3.4488188976377954
20
-3.4478346456692912
11
3.4481446062992127
21
-3.4512245669291337
0
LINE
8
BLACK
6
CONTINUOUS
10
3.4481446062992127
20
-3.4512245669291337
11
3.4462243700787401
21
-3.4540983858267715
0
LINE
8
BLACK
6
CONTINUOUS
10
3.4462243700787401
20
-3.4540983858267715
11
3.4433505511811022
21
-3.4560186220472442
0
LINE
8
BLACK
6
CONTINUOUS
10
3.4433505511811022
20
-3.4560186220472442
11
3.4399606299212597
21
-3.4566929133858268
0
LINE
8
BLACK
6
CONTINUOUS
10
3.4399606299212597
20
-3.4566929133858268
11
3.4104330708661417
21
-3.4566929133858268
0
LINE
8
BLACK
6
CONTINUOUS
10
3.4104330708661417
20
-3.4566929133858268
11
3.4070431496062992
21
-3.4560186220472442
0
LINE
8
BLACK
6
CONTINUOUS
10
3.4070431496062992
20
-3.4560186220472442
11
3.4041693307086613
21
-3.4540983858267715
0
LINE
8
BLACK
6
CONTINUOUS
10
3.4041693307086613
20
-3.4540983858267715
11
3.4022490944881887
21
-3.4512245669291337
0
LINE
8
BLACK
6
CONTINUOUS
10
3.4022490944881887
20
-3.4512245669291337
11
3.401574803149606
21
-3.4478346456692912
0
LINE
8
BLACK
6
CONTINUOUS
10
3.401574803149606
20
-3.4478346456692912
11
3.401574803149606
21
-3.4301181102362204
0
LINE
8
BLACK
6
CONTINUOUS
10
3.401574803149606
20
-3.4301181102362204
11
3.4022490944881887
21
-3.4267281889763779
0
LINE
8
BLACK
6
CONTINUOUS
10
3.4022490944881887
20
-3.4267281889763779
11
3.4041693307086613
21
-3.4238543700787401
0
LINE
8
BLACK
6
CONTINUOUS
10
3.4041693307086613
20
-3.4238543700787401
11
3.4070431496062992
21
-3.4219341338582678
0
LINE
8
BLACK
6
CONTINUOUS
10
3.4070431496062992
20
-3.4219341338582678
11
3.4104330708661417
21
-3.4212598425196852
0
LINE
8
BLACK
6
CONTINUOUS
10
3.4104330708661417
20
-3.4212598425196852
11
3.4399606299212597
21
-3.4212598425196852
0
LINE
8
BLACK
6
CONTINUOUS
10
3.4399606299212597
20
-3.4212598425196852
11
3.4433505511811022
21
-3.4219341338582678
0
LINE
8
BLACK
6
CONTINUOUS
10
1.3173662992125983
20
-3.2920128740157479
11
1.3202401181102361
21
-3.2939331102362206
0
LINE
8
BLACK
6
CONTINUOUS
10
1.3202401181102361
20
-3.2939331102362206
11
1.3221603543307086
21
-3.296806929133858
0
LINE
8
BLACK
6
CONTINUOUS
10
1.3221603543307086
20
-3.296806929133858
11
1.3228346456692912
21
-3.3001968503937009
0
LINE
8
BLACK
6
CONTINUOUS
10
1.3228346456692912
20
-3.3001968503937009
11
1.3228346456692912
21
-3.3179133858267718
0
LINE
8
BLACK
6
CONTINUOUS
10
1.3228346456692912
20
-3.3179133858267718
11
1.3221603543307086
21
-3.3213033070866143
0
LINE
8
BLACK
6
CONTINUOUS
10
1.3221603543307086
20
-3.3213033070866143
11
1.3202401181102361
21
-3.3241771259842521
0
LINE
8
BLACK
6
CONTINUOUS
10
1.3202401181102361
20
-3.3241771259842521
11
1.3173662992125983
21
-3.3260973622047243
0
LINE
8
BLACK
6
CONTINUOUS
10
1.3173662992125983
20
-3.3260973622047243
11
1.3139763779527558
21
-3.326771653543307
0
LINE
8
BLACK
6
CONTINUOUS
10
1.3139763779527558
20
-3.326771653543307
11
1.2844488188976377
21
-3.326771653543307
0
LINE
8
BLACK
6
CONTINUOUS
10
1.2844488188976377
20
-3.326771653543307
11
1.2810588976377952
21
-3.3260973622047243
0
LINE
8
BLACK
6
CONTINUOUS
10
1.2810588976377952
20
-3.3260973622047243
11
1.2781850787401574
21
-3.3241771259842521
0
LINE
8
BLACK
6
CONTINUOUS
10
1.2781850787401574
20
-3.3241771259842521
11
1.276264842519685
21
-3.3213033070866143
0
LINE
8
BLACK
6
CONTINUOUS
10
1.276264842519685
20
-3.3213033070866143
11
1.2755905511811023
21
-3.3179133858267718
0
LINE
8
BLACK
6
CONTINUOUS
10
1.2755905511811023
20
-3.3179133858267718
11
1.2755905511811023
21
-3.3001968503937009
0
LINE
8
BLACK
6
CONTINUOUS
10
1.2755905511811023
20
-3.3001968503937009
11
1.276264842519685
21
-3.296806929133858
0
LINE
8
BLACK
6
CONTINUOUS
10
1.276264842519685
20
-3.296806929133858
11
1.2781850787401574
21
-3.2939331102362206
0
LINE
8
BLACK
6
CONTINUOUS
10
1.2781850787401574
20
-3.2939331102362206
11
1.2810588976377952
21
-3.2920128740157479
0
LINE
8
BLACK
6
CONTINUOUS
10
1.2810588976377952
20
-3.2920128740157479
11
1.2844488188976377
21
-3.2913385826771653
0
LINE
8
BLACK
6
CONTINUOUS
10
1.2844488188976377
20
-3.2913385826771653
11
1.3139763779527558
21
-3.2913385826771653
0
LINE
8
BLACK
6
CONTINUOUS
10
1.3139763779527558
20
-3.2913385826771653
11
1.3173662992125983
21
-3.2920128740157479
0
LINE
8
BLACK
6
CONTINUOUS
10
2.0260277165354332
20
-3.2920128740157479
11
2.0289015354330706
21
-3.2939331102362206
0
LINE
8
BLACK
6
CONTINUOUS
10
2.0289015354330706
20
-3.2939331102362206
11
2.0308217716535433
21
-3.296806929133858
0
LINE
8
BLACK
6
CONTINUOUS
10
2.0308217716535433
20
-3.296806929133858
11
2.0314960629921259
21
-3.3001968503937009
0
LINE
8
BLACK
6
CONTINUOUS
10
2.0314960629921259
20
-3.3001968503937009
11
2.0314960629921259
21
-3.3179133858267718
0
LINE
8
BLACK
6
CONTINUOUS
10
2.0314960629921259
20
-3.3179133858267718
11
2.0308217716535433
21
-3.3213033070866143
0
LINE
8
BLACK
6
CONTINUOUS
10
2.0308217716535433
20
-3.3213033070866143
11
2.0289015354330706
21
-3.3241771259842521
0
LINE
8
BLACK
6
CONTINUOUS
10
2.0289015354330706
20
-3.3241771259842521
11
2.0260277165354332
21
-3.3260973622047243
0
LINE
8
BLACK
6
CONTINUOUS
10
2.0260277165354332
20
-3.3260973622047243
11
2.0226377952755903
21
-3.326771653543307
0
LINE
8
BLACK
6
CONTINUOUS
10
2.0226377952755903
20
-3.326771653543307
11
1.9931102362204725
21
-3.326771653543307
0
LINE
8
BLACK
6
CONTINUOUS
10
1.9931102362204725
20
-3.326771653543307
11
1.98972031496063
21
-3.3260973622047243
0
LINE
8
BLACK
6
CONTINUOUS
10
1.98972031496063
20
-3.3260973622047243
11
1.9868464960629921
21
-3.3241771259842521
0
LINE
8
BLACK
6
CONTINUOUS
10
1.9868464960629921
20
-3.3241771259842521
11
1.9849262598425197
21
-3.3213033070866143
0
LINE
8
BLACK
6
CONTINUOUS
10
1.9849262598425197
20
-3.3213033070866143
11
1.984251968503937
21
-3.3179133858267718
0
LINE
8
BLACK
6
CONTINUOUS
10
1.984251968503937
20
-3.3179133858267718
11
1.984251968503937
21
-3.3001968503937009
0
LINE
8
BLACK
6
CONTINUOUS
10
1.984251968503937
20
-3.3001968503937009
11
1.9849262598425197
21
-3.296806929133858
0
LINE
8
BLACK
6
CONTINUOUS
10
1.9849262598425197
20
-3.296806929133858
11
1.9868464960629921
21
-3.2939331102362206
0
LINE
8
BLACK
6
CONTINUOUS
10
1.9868464960629921
20
-3.2939331102362206
11
1.98972031496063
21
-3.2920128740157479
0
LINE
8
BLACK
6
CONTINUOUS
10
1.98972031496063
20
-3.2920128740157479
11
1.9931102362204725
21
-3.2913385826771653
0
LINE
8
BLACK
6
CONTINUOUS
10
1.9931102362204725
20
-3.2913385826771653
11
2.0226377952755903
21
-3.2913385826771653
0
LINE
8
BLACK
6
CONTINUOUS
10
2.0226377952755903
20
-3.2913385826771653
11
2.0260277165354332
21
-3.2920128740157479
0
LINE
8
BLACK
6
CONTINUOUS
10
2.7346891338582675
20
-3.2920128740157479
11
2.7375629527559053
21
-3.2939331102362206
0
LINE
8
BLACK
6
CONTINUOUS
10
2.7375629527559053
20
-3.2939331102362206
11
2.739483188976378
21
-3.296806929133858
0
LINE
8
BLACK
6
CONTINUOUS
10
2.739483188976378
20
-3.296806929133858
11
2.7401574803149606
21
-3.3001968503937009
0
LINE
8
BLACK
6
CONTINUOUS
10
2.7401574803149606
20
-3.3001968503937009
11
2.7401574803149606
21
-3.3179133858267718
0
LINE
8
BLACK
6
CONTINUOUS
10
2.7401574803149606
20
-3.3179133858267718
11
2.739483188976378
21
-3.3213033070866143
0
LINE
8
BLACK
6
CONTINUOUS
10
2.739483188976378
20
-3.3213033070866143
11
2.7375629527559053
21
-3.3241771259842521
0
LINE
8
BLACK
6
CONTINUOUS
10
2.7375629527559053
20
-3.3241771259842521
11
2.7346891338582675
21
-3.3260973622047243
0
LINE
8
BLACK
6
CONTINUOUS
10
2.7346891338582675
20
-3.3260973622047243
11
2.731299212598425
21
-3.326771653543307
0
LINE
8
BLACK
6
CONTINUOUS
10
2.731299212598425
20
-3.326771653543307
11
2.701771653543307
21
-3.326771653543307
0
LINE
8
BLACK
6
CONTINUOUS
10
2.701771653543307
20
-3.326771653543307
11
2.6983817322834645
21
-3.3260973622047243
0
LINE
8
BLACK
6
CONTINUOUS
10
2.6983817322834645
20
-3.3260973622047243
11
2.6955079133858266
21
-3.3241771259842521
0
LINE
8
BLACK
6
CONTINUOUS
10
2.6955079133858266
20
-3.3241771259842521
11
2.6935876771653544
21
-3.3213033070866143
0
LINE
8
BLACK
6
CONTINUOUS
10
2.6935876771653544
20
-3.3213033070866143
11
2.6929133858267718
21
-3.3179133858267718
0
LINE
8
BLACK
6
CONTINUOUS
10
2.6929133858267718
20
-3.3179133858267718
11
2.6929133858267718
21
-3.3001968503937009
0
LINE
8
BLACK
6
CONTINUOUS
10
2.6929133858267718
20
-3.3001968503937009
11
2.6935876771653544
21
-3.296806929133858
0
LINE
8
BLACK
6
CONTINUOUS
10
2.6935876771653544
20
-3.296806929133858
11
2.6955079133858266
21
-3.2939331102362206
0
LINE
8
BLACK
6
CONTINUOUS
10
2.6955079133858266
20
-3.2939331102362206
11
2.6983817322834645
21
-3.2920128740157479
0
LINE
8
BLACK
6
CONTINUOUS
10
2.6983817322834645
20
-3.2920128740157479
11
2.701771653543307
21
-3.2913385826771653
0
LINE
8
BLACK
6
CONTINUOUS
10
2.701771653543307
20
-3.2913385826771653
11
2.731299212598425
21
-3.2913385826771653
0
LINE
8
BLACK
6
CONTINUOUS
10
2.731299212598425
20
-3.2913385826771653
11
2.7346891338582675
21
-3.2920128740157479
0
LINE
8
BLACK
6
CONTINUOUS
10
3.4433505511811022
20
-3.2920128740157479
11
3.4462243700787401
21
-3.2939331102362206
0
LINE
8
BLACK
6
CONTINUOUS
10
3.4462243700787401
20
-3.2939331102362206
11
3.4481446062992127
21
-3.296806929133858
0
LINE
8
BLACK
6
CONTINUOUS
10
3.4481446062992127
20
-3.296806929133858
11
3.4488188976377954
21
-3.3001968503937009
0
LINE
8
BLACK
6
CONTINUOUS
10
3.4488188976377954
20
-3.3001968503937009
11
3.4488188976377954
21
-3.3179133858267718
0
LINE
8
BLACK
6
CONTINUOUS
10
3.4488188976377954
20
-3.3179133858267718
11
3.4481446062992127
21
-3.3213033070866143
0
LINE
8
BLACK
6
CONTINUOUS
10
3.4481446062992127
20
-3.3213033070866143
11
3.4462243700787401
21
-3.3241771259842521
0
LINE
8
BLACK
6
CONTINUOUS
10
3.4462243700787401
20
-3.3241771259842521
11
3.4433505511811022
21
-3.3260973622047243
0
LINE
8
BLACK
6
CONTINUOUS
10
3.4433505511811022
20
-3.3260973622047243
11
3.4399606299212597
21
-3.326771653543307
0
LINE
8
BLACK
6
CONTINUOUS
10
3.4399606299212597
20
-3.326771653543307
11
3.4104330708661417
21
-3.326771653543307
0
LINE
8
BLACK
6
CONTINUOUS
10
3.4104330708661417
20
-3.326771653543307
11
3.4070431496062992
21
-3.3260973622047243
0
LINE
8
BLACK
6
CONTINUOUS
10
3.4070431496062992
20
-3.3260973622047243
11
3.4041693307086613
21
-3.3241771259842521
0
LINE
8
BLACK
6
CONTINUOUS
10
3.4041693307086613
20
-3.3241771259842521
11
3.4022490944881887
21
-3.3213033070866143
0
LINE
8
BLACK
6
CONTINUOUS
10
3.4022490944881887
20
-3.3213033070866143
11
3.401574803149606
21
-3.3179133858267718
0
LINE
8
BLACK
6
CONTINUOUS
10
3.401574803149606
20
-3.3179133858267718
11
3.401574803149606
21
-3.3001968503937009
0
LINE
8
BLACK
6
CONTINUOUS
10
3.401574803149606
20
-3.3001968503937009
11
3.4022490944881887
21
-3.296806929133858
0
LINE
8
BLACK
6
CONTINUOUS
10
3.4022490944881887
20
-3.296806929133858
11
3.4041693307086613
21
-3.2939331102362206
0
LINE
8
BLACK
6
CONTINUOUS
10
3.4041693307086613
20
-3.2939331102362206
11
3.4070431496062992
21
-3.2920128740157479
0
LINE
8
BLACK
6
CONTINUOUS
10
3.4070431496062992
20
-3.2920128740157479
11
3.4104330708661417
21
-3.2913385826771653
0
LINE
8
BLACK
6
CONTINUOUS
10
3.4104330708661417
20
-3.2913385826771653
11
3.4399606299212597
21
-3.2913385826771653
0
LINE
8
BLACK
6
CONTINUOUS
10
3.4399606299212597
20
-3.2913385826771653
11
3.4433505511811022
21
-3.2920128740157479
0
LINE
8
BLACK
6
CONTINUOUS
10
1.7877755118110237
20
-3.1484169685039372
11
1.7910963779527558
21
-3.1506359055118112
0
LINE
8
BLACK
6
CONTINUOUS
10
1.7910963779527558
20
-3.1506359055118112
11
1.7933153149606298
21
-3.1539567716535433
0
LINE
8
BLACK
6
CONTINUOUS
10
1.7933153149606298
20
-3.1539567716535433
11
1.7940944881889764
21
-3.1578740157480314
0
LINE
8
BLACK
6
CONTINUOUS
10
1.7940944881889764
20
-3.1578740157480314
11
1.7940944881889764
21
-3.2397637795275589
0
LINE
8
BLACK
6
CONTINUOUS
10
1.7940944881889764
20
-3.2397637795275589
11
1.7933153149606298
21
-3.243681023622047
0
LINE
8
BLACK
6
CONTINUOUS
10
1.7933153149606298
20
-3.243681023622047
11
1.7910963779527558
21
-3.2470018897637796
0
LINE
8
BLACK
6
CONTINUOUS
10
1.7910963779527558
20
-3.2470018897637796
11
1.7877755118110237
21
-3.2492208267716536
0
LINE
8
BLACK
6
CONTINUOUS
10
1.7877755118110237
20
-3.2492208267716536
11
1.7838582677165353
21
-3.25
0
LINE
8
BLACK
6
CONTINUOUS
10
1.7838582677165353
20
-3.25
11
1.7
21
-3.25
0
LINE
8
BLACK
6
CONTINUOUS
10
1.7
20
-3.25
11
1.6960827559055118
21
-3.2492208267716536
0
LINE
8
BLACK
6
CONTINUOUS
10
1.6960827559055118
20
-3.2492208267716536
11
1.6927618897637795
21
-3.2470018897637796
0
LINE
8
BLACK
6
CONTINUOUS
10
1.6927618897637795
20
-3.2470018897637796
11
1.6905429527559055
21
-3.243681023622047
0
LINE
8
BLACK
6
CONTINUOUS
10
1.6905429527559055
20
-3.243681023622047
11
1.6897637795275591
21
-3.2397637795275589
0
LINE
8
BLACK
6
CONTINUOUS
10
1.6897637795275591
20
-3.2397637795275589
11
1.6897637795275591
21
-3.1578740157480314
0
LINE
8
BLACK
6
CONTINUOUS
10
1.6897637795275591
20
-3.1578740157480314
11
1.6905429527559055
21
-3.1539567716535433
0
LINE
8
BLACK
6
CONTINUOUS
10
1.6905429527559055
20
-3.1539567716535433
11
1.6927618897637795
21
-3.1506359055118112
0
LINE
8
BLACK
6
CONTINUOUS
10
1.6927618897637795
20
-3.1506359055118112
11
1.6960827559055118
21
-3.1484169685039372
0
LINE
8
BLACK
6
CONTINUOUS
10
1.6960827559055118
20
-3.1484169685039372
11
1.7
21
-3.1476377952755903
0
LINE
8
BLACK
6
CONTINUOUS
10
1.7
20
-3.1476377952755903
11
1.7838582677165353
21
-3.1476377952755903
0
LINE
8
BLACK
6
CONTINUOUS
10
1.7838582677165353
20
-3.1476377952755903
11
1.7877755118110237
21
-3.1484169685039372
0
LINE
8
BLACK
6
CONTINUOUS
10
2.4964369291338584
20
-3.1484169685039372
11
2.4997577952755905
21
-3.1506359055118112
0
LINE
8
BLACK
6
CONTINUOUS
10
2.4997577952755905
20
-3.1506359055118112
11
2.5019767322834645
21
-3.1539567716535433
0
LINE
8
BLACK
6
CONTINUOUS
10
2.5019767322834645
20
-3.1539567716535433
11
2.5027559055118109
21
-3.1578740157480314
0
LINE
8
BLACK
6
CONTINUOUS
10
2.5027559055118109
20
-3.1578740157480314
11
2.5027559055118109
21
-3.2397637795275589
0
LINE
8
BLACK
6
CONTINUOUS
10
2.5027559055118109
20
-3.2397637795275589
11
2.5019767322834645
21
-3.243681023622047
0
LINE
8
BLACK
6
CONTINUOUS
10
2.5019767322834645
20
-3.243681023622047
11
2.4997577952755905
21
-3.2470018897637796
0
LINE
8
BLACK
6
CONTINUOUS
10
2.4997577952755905
20
-3.2470018897637796
11
2.4964369291338584
21
-3.2492208267716536
0
LINE
8
BLACK
6
CONTINUOUS
10
2.4964369291338584
20
-3.2492208267716536
11
2.4925196850393698
21
-3.25
0
LINE
8
BLACK
6
CONTINUOUS
10
2.4925196850393698
20
-3.25
11
2.4086614173228345
21
-3.25
0
LINE
8
BLACK
6
CONTINUOUS
10
2.4086614173228345
20
-3.25
11
2.4047441732283463
21
-3.2492208267716536
0
LINE
8
BLACK
6
CONTINUOUS
10
2.4047441732283463
20
-3.2492208267716536
11
2.4014233070866142
21
-3.2470018897637796
0
LINE
8
BLACK
6
CONTINUOUS
10
2.4014233070866142
20
-3.2470018897637796
11
2.3992043700787402
21
-3.243681023622047
0
LINE
8
BLACK
6
CONTINUOUS
10
2.3992043700787402
20
-3.243681023622047
11
2.3984251968503938
21
-3.2397637795275589
0
LINE
8
BLACK
6
CONTINUOUS
10
2.3984251968503938
20
-3.2397637795275589
11
2.3984251968503938
21
-3.1578740157480314
0
LINE
8
BLACK
6
CONTINUOUS
10
2.3984251968503938
20
-3.1578740157480314
11
2.3992043700787402
21
-3.1539567716535433
0
LINE
8
BLACK
6
CONTINUOUS
10
2.3992043700787402
20
-3.1539567716535433
11
2.4014233070866142
21
-3.1506359055118112
0
LINE
8
BLACK
6
CONTINUOUS
10
2.4014233070866142
20
-3.1506359055118112
11
2.4047441732283463
21
-3.1484169685039372
0
LINE
8
BLACK
6
CONTINUOUS
10
2.4047441732283463
20
-3.1484169685039372
11
2.4086614173228345
21
-3.1476377952755903
0
LINE
8
BLACK
6
CONTINUOUS
10
2.4086614173228345
20
-3.1476377952755903
11
2.4925196850393698
21
-3.1476377952755903
0
LINE
8
BLACK
6
CONTINUOUS
10
2.4925196850393698
20
-3.1476377952755903
11
2.4964369291338584
21
-3.1484169685039372
0
LINE
8
BLACK
6
CONTINUOUS
10
3.2050983464566927
20
-3.1484169685039372
11
3.2084192125984252
21
-3.1506359055118112
0
LINE
8
BLACK
6
CONTINUOUS
10
3.2084192125984252
20
-3.1506359055118112
11
3.2106381496062992
21
-3.1539567716535433
0
LINE
8
BLACK
6
CONTINUOUS
10
3.2106381496062992
20
-3.1539567716535433
11
3.2114173228346456
21
-3.1578740157480314
0
LINE
8
BLACK
6
CONTINUOUS
10
3.2114173228346456
20
-3.1578740157480314
11
3.2114173228346456
21
-3.2397637795275589
0
LINE
8
BLACK
6
CONTINUOUS
10
3.2114173228346456
20
-3.2397637795275589
11
3.2106381496062992
21
-3.243681023622047
0
LINE
8
BLACK
6
CONTINUOUS
10
3.2106381496062992
20
-3.243681023622047
11
3.2084192125984252
21
-3.2470018897637796
0
LINE
8
BLACK
6
CONTINUOUS
10
3.2084192125984252
20
-3.2470018897637796
11
3.2050983464566927
21
-3.2492208267716536
0
LINE
8
BLACK
6
CONTINUOUS
10
3.2050983464566927
20
-3.2492208267716536
11
3.2011811023622045
21
-3.25
0
LINE
8
BLACK
6
CONTINUOUS
10
3.2011811023622045
20
-3.25
11
3.1173228346456692
21
-3.25
0
LINE
8
BLACK
6
CONTINUOUS
10
3.1173228346456692
20
-3.25
11
3.113405590551181
21
-3.2492208267716536
0
LINE
8
BLACK
6
CONTINUOUS
10
3.113405590551181
20
-3.2492208267716536
11
3.1100847244094489
21
-3.2470018897637796
0
LINE
8
BLACK
6
CONTINUOUS
10
3.1100847244094489
20
-3.2470018897637796
11
3.1078657874015749
21
-3.243681023622047
0
LINE
8
BLACK
6
CONTINUOUS
10
3.1078657874015749
20
-3.243681023622047
11
3.1070866141732281
21
-3.2397637795275589
0
LINE
8
BLACK
6
CONTINUOUS
10
3.1070866141732281
20
-3.2397637795275589
11
3.1070866141732281
21
-3.1578740157480314
0
LINE
8
BLACK
6
CONTINUOUS
10
3.1070866141732281
20
-3.1578740157480314
11
3.1078657874015749
21
-3.1539567716535433
0
LINE
8
BLACK
6
CONTINUOUS
10
3.1078657874015749
20
-3.1539567716535433
11
3.1100847244094489
21
-3.1506359055118112
0
LINE
8
BLACK
6
CONTINUOUS
10
3.1100847244094489
20
-3.1506359055118112
11
3.113405590551181
21
-3.1484169685039372
0
LINE
8
BLACK
6
CONTINUOUS
10
3.113405590551181
20
-3.1484169685039372
11
3.1173228346456692
21
-3.1476377952755903
0
LINE
8
BLACK
6
CONTINUOUS
10
3.1173228346456692
20
-3.1476377952755903
11
3.2011811023622045
21
-3.1476377952755903
0
LINE
8
BLACK
6
CONTINUOUS
10
3.2011811023622045
20
-3.1476377952755903
11
3.2050983464566927
21
-3.1484169685039372
0
LINE
8
BLACK
6
CONTINUOUS
10
3.9137597637795274
20
-3.1484169685039372
11
3.9170806299212599
21
-3.1506359055118112
0
LINE
8
BLACK
6
CONTINUOUS
10
3.9170806299212599
20
-3.1506359055118112
11
3.9192995669291339
21
-3.1539567716535433
0
LINE
8
BLACK
6
CONTINUOUS
10
3.9192995669291339
20
-3.1539567716535433
11
3.9200787401574804
21
-3.1578740157480314
0
LINE
8
BLACK
6
CONTINUOUS
10
3.9200787401574804
20
-3.1578740157480314
11
3.9200787401574804
21
-3.2397637795275589
0
LINE
8
BLACK
6
CONTINUOUS
10
3.9200787401574804
20
-3.2397637795275589
11
3.9192995669291339
21
-3.243681023622047
0
LINE
8
BLACK
6
CONTINUOUS
10
3.9192995669291339
20
-3.243681023622047
11
3.9170806299212599
21
-3.2470018897637796
0
LINE
8
BLACK
6
CONTINUOUS
10
3.9170806299212599
20
-3.2470018897637796
11
3.9137597637795274
21
-3.2492208267716536
0
LINE
8
BLACK
6
CONTINUOUS
10
3.9137597637795274
20
-3.2492208267716536
11
3.9098425196850393
21
-3.25
0
LINE
8
BLACK
6
CONTINUOUS
10
3.9098425196850393
20
-3.25
11
3.8259842519685039
21
-3.25
0
LINE
8
BLACK
6
CONTINUOUS
10
3.8259842519685039
20
-3.25
11
3.8220670078740158
21
-3.2492208267716536
0
LINE
8
BLACK
6
CONTINUOUS
10
3.8220670078740158
20
-3.2492208267716536
11
3.8187461417322832
21
-3.2470018897637796
0
LINE
8
BLACK
6
CONTINUOUS
10
3.8187461417322832
20
-3.2470018897637796
11
3.8165272047244092
21
-3.243681023622047
0
LINE
8
BLACK
6
CONTINUOUS
10
3.8165272047244092
20
-3.243681023622047
11
3.8157480314960628
21
-3.2397637795275589
0
LINE
8
BLACK
6
CONTINUOUS
10
3.8157480314960628
20
-3.2397637795275589
11
3.8157480314960628
21
-3.1578740157480314
0
LINE
8
BLACK
6
CONTINUOUS
10
3.8157480314960628
20
-3.1578740157480314
11
3.8165272047244092
21
-3.1539567716535433
0
LINE
8
BLACK
6
CONTINUOUS
10
3.8165272047244092
20
-3.1539567716535433
11
3.8187461417322832
21
-3.1506359055118112
0
LINE
8
BLACK
6
CONTINUOUS
10
3.8187461417322832
20
-3.1506359055118112
11
3.8220670078740158
21
-3.1484169685039372
0
LINE
8
BLACK
6
CONTINUOUS
10
3.8220670078740158
20
-3.1484169685039372
11
3.8259842519685039
21
-3.1476377952755903
0
LINE
8
BLACK
6
CONTINUOUS
10
3.8259842519685039
20
-3.1476377952755903
11
3.9098425196850393
21
-3.1476377952755903
0
LINE
8
BLACK
6
CONTINUOUS
10
3.9098425196850393
20
-3.1476377952755903
11
3.9137597637795274
21
-3.1484169685039372
0
LINE
8
BLACK
6
CONTINUOUS
10
1.3354133070866141
20
-3.0618027952755904
11
1.3387341732283464
21
-3.0640217322834644
0
LINE
8
BLACK
6
CONTINUOUS
10
1.3387341732283464
20
-3.0640217322834644
11
1.3409531102362204
21
-3.067342598425197
0
LINE
8
BLACK
6
CONTINUOUS
10
1.3409531102362204
20
-3.067342598425197
11
1.3417322834645669
21
-3.0712598425196851
0
LINE
8
BLACK
6
CONTINUOUS
10
1.3417322834645669
20
-3.0712598425196851
11
1.3417322834645669
21
-3.1531496062992126
0
LINE
8
BLACK
6
CONTINUOUS
10
1.3417322834645669
20
-3.1531496062992126
11
1.3409531102362204
21
-3.1570668503937007
0
LINE
8
BLACK
6
CONTINUOUS
10
1.3409531102362204
20
-3.1570668503937007
11
1.3387341732283464
21
-3.1603877165354328
0
LINE
8
BLACK
6
CONTINUOUS
10
1.3387341732283464
20
-3.1603877165354328
11
1.3354133070866141
21
-3.1626066535433068
0
LINE
8
BLACK
6
CONTINUOUS
10
1.3354133070866141
20
-3.1626066535433068
11
1.331496062992126
21
-3.1633858267716533
0
LINE
8
BLACK
6
CONTINUOUS
10
1.331496062992126
20
-3.1633858267716533
11
1.2476377952755906
21
-3.1633858267716533
0
LINE
8
BLACK
6
CONTINUOUS
10
1.2476377952755906
20
-3.1633858267716533
11
1.2437205511811023
21
-3.1626066535433068
0
LINE
8
BLACK
6
CONTINUOUS
10
1.2437205511811023
20
-3.1626066535433068
11
1.2403996850393701
21
-3.1603877165354328
0
LINE
8
BLACK
6
CONTINUOUS
10
1.2403996850393701
20
-3.1603877165354328
11
1.2381807480314961
21
-3.1570668503937007
0
LINE
8
BLACK
6
CONTINUOUS
10
1.2381807480314961
20
-3.1570668503937007
11
1.2374015748031495
21
-3.1531496062992126
0
LINE
8
BLACK
6
CONTINUOUS
10
1.2374015748031495
20
-3.1531496062992126
11
1.2374015748031495
21
-3.0712598425196851
0
LINE
8
BLACK
6
CONTINUOUS
10
1.2374015748031495
20
-3.0712598425196851
11
1.2381807480314961
21
-3.067342598425197
0
LINE
8
BLACK
6
CONTINUOUS
10
1.2381807480314961
20
-3.067342598425197
11
1.2403996850393701
21
-3.0640217322834644
0
LINE
8
BLACK
6
CONTINUOUS
10
1.2403996850393701
20
-3.0640217322834644
11
1.2437205511811023
21
-3.0618027952755904
0
LINE
8
BLACK
6
CONTINUOUS
10
1.2437205511811023
20
-3.0618027952755904
11
1.2476377952755906
21
-3.061023622047244
0
LINE
8
BLACK
6
CONTINUOUS
10
1.2476377952755906
20
-3.061023622047244
11
1.331496062992126
21
-3.061023622047244
0
LINE
8
BLACK
6
CONTINUOUS
10
1.331496062992126
20
-3.061023622047244
11
1.3354133070866141
21
-3.0618027952755904
0
LINE
8
BLACK
6
CONTINUOUS
10
2.0440747244094486
20
-3.0618027952755904
11
2.0473955905511811
21
-3.0640217322834644
0
LINE
8
BLACK
6
CONTINUOUS
10
2.0473955905511811
20
-3.0640217322834644
11
2.0496145275590552
21
-3.067342598425197
0
LINE
8
BLACK
6
CONTINUOUS
10
2.0496145275590552
20
-3.067342598425197
11
2.0503937007874016
21
-3.0712598425196851
0
LINE
8
BLACK
6
CONTINUOUS
10
2.0503937007874016
20
-3.0712598425196851
11
2.0503937007874016
21
-3.1531496062992126
0
LINE
8
BLACK
6
CONTINUOUS
10
2.0503937007874016
20
-3.1531496062992126
11
2.0496145275590552
21
-3.1570668503937007
0
LINE
8
BLACK
6
CONTINUOUS
10
2.0496145275590552
20
-3.1570668503937007
11
2.0473955905511811
21
-3.1603877165354328
0
LINE
8
BLACK
6
CONTINUOUS
10
2.0473955905511811
20
-3.1603877165354328
11
2.0440747244094486
21
-3.1626066535433068
0
LINE
8
BLACK
6
CONTINUOUS
10
2.0440747244094486
20
-3.1626066535433068
11
2.0401574803149605
21
-3.1633858267716533
0
LINE
8
BLACK
6
CONTINUOUS
10
2.0401574803149605
20
-3.1633858267716533
11
1.9562992125984251
21
-3.1633858267716533
0
LINE
8
BLACK
6
CONTINUOUS
10
1.9562992125984251
20
-3.1633858267716533
11
1.952381968503937
21
-3.1626066535433068
0
LINE
8
BLACK
6
CONTINUOUS
10
1.952381968503937
20
-3.1626066535433068
11
1.9490611023622046
21
-3.1603877165354328
0
LINE
8
BLACK
6
CONTINUOUS
10
1.9490611023622046
20
-3.1603877165354328
11
1.9468421653543306
21
-3.1570668503937007
0
LINE
8
BLACK
6
CONTINUOUS
10
1.9468421653543306
20
-3.1570668503937007
11
1.9460629921259842
21
-3.1531496062992126
0
LINE
8
BLACK
6
CONTINUOUS
10
1.9460629921259842
20
-3.1531496062992126
11
1.9460629921259842
21
-3.0712598425196851
0
LINE
8
BLACK
6
CONTINUOUS
10
1.9460629921259842
20
-3.0712598425196851
11
1.9468421653543306
21
-3.067342598425197
0
LINE
8
BLACK
6
CONTINUOUS
10
1.9468421653543306
20
-3.067342598425197
11
1.9490611023622046
21
-3.0640217322834644
0
LINE
8
BLACK
6
CONTINUOUS
10
1.9490611023622046
20
-3.0640217322834644
11
1.952381968503937
21
-3.0618027952755904
0
LINE
8
BLACK
6
CONTINUOUS
10
1.952381968503937
20
-3.0618027952755904
11
1.9562992125984251
21
-3.061023622047244
0
LINE
8
BLACK
6
CONTINUOUS
10
1.9562992125984251
20
-3.061023622047244
11
2.0401574803149605
21
-3.061023622047244
0
LINE
8
BLACK
6
CONTINUOUS
10
2.0401574803149605
20
-3.061023622047244
11
2.0440747244094486
21
-3.0618027952755904
0
LINE
8
BLACK
6
CONTINUOUS
10
2.7527361417322833
20
-3.0618027952755904
11
2.7560570078740159
21
-3.0640217322834644
0
LINE
8
BLACK
6
CONTINUOUS
10
2.7560570078740159
20
-3.0640217322834644
11
2.7582759448818899
21
-3.067342598425197
0
LINE
8
BLACK
6
CONTINUOUS
10
2.7582759448818899
20
-3.067342598425197
11
2.7590551181102363
21
-3.0712598425196851
0
LINE
8
BLACK
6
CONTINUOUS
10
2.7590551181102363
20
-3.0712598425196851
11
2.7590551181102363
21
-3.1531496062992126
0
LINE
8
BLACK
6
CONTINUOUS
10
2.7590551181102363
20
-3.1531496062992126
11
2.7582759448818899
21
-3.1570668503937007
0
LINE
8
BLACK
6
CONTINUOUS
10
2.7582759448818899
20
-3.1570668503937007
11
2.7560570078740159
21
-3.1603877165354328
0
LINE
8
BLACK
6
CONTINUOUS
10
2.7560570078740159
20
-3.1603877165354328
11
2.7527361417322833
21
-3.1626066535433068
0
LINE
8
BLACK
6
CONTINUOUS
10
2.7527361417322833
20
-3.1626066535433068
11
2.7488188976377952
21
-3.1633858267716533
0
LINE
8
BLACK
6
CONTINUOUS
10
2.7488188976377952
20
-3.1633858267716533
11
2.6649606299212598
21
-3.1633858267716533
0
LINE
8
BLACK
6
CONTINUOUS
10
2.6649606299212598
20
-3.1633858267716533
11
2.6610433858267717
21
-3.1626066535433068
0
LINE
8
BLACK
6
CONTINUOUS
10
2.6610433858267717
20
-3.1626066535433068
11
2.6577225196850391
21
-3.1603877165354328
0
LINE
8
BLACK
6
CONTINUOUS
10
2.6577225196850391
20
-3.1603877165354328
11
2.6555035826771651
21
-3.1570668503937007
0
LINE
8
BLACK
6
CONTINUOUS
10
2.6555035826771651
20
-3.1570668503937007
11
2.6547244094488187
21
-3.1531496062992126
0
LINE
8
BLACK
6
CONTINUOUS
10
2.6547244094488187
20
-3.1531496062992126
11
2.6547244094488187
21
-3.0712598425196851
0
LINE
8
BLACK
6
CONTINUOUS
10
2.6547244094488187
20
-3.0712598425196851
11
2.6555035826771651
21
-3.067342598425197
0
LINE
8
BLACK
6
CONTINUOUS
10
2.6555035826771651
20
-3.067342598425197
11
2.6577225196850391
21
-3.0640217322834644
0
LINE
8
BLACK
6
CONTINUOUS
10
2.6577225196850391
20
-3.0640217322834644
11
2.6610433858267717
21
-3.0618027952755904
0
LINE
8
BLACK
6
CONTINUOUS
10
2.6610433858267717
20
-3.0618027952755904
11
2.6649606299212598
21
-3.061023622047244
0
LINE
8
BLACK
6
CONTINUOUS
10
2.6649606299212598
20
-3.061023622047244
11
2.7488188976377952
21
-3.061023622047244
0
LINE
8
BLACK
6
CONTINUOUS
10
2.7488188976377952
20
-3.061023622047244
11
2.7527361417322833
21
-3.0618027952755904
0
LINE
8
BLACK
6
CONTINUOUS
10
3.461397559055118
20
-3.0618027952755904
11
3.4647184251968501
21
-3.0640217322834644
0
LINE
8
BLACK
6
CONTINUOUS
10
3.4647184251968501
20
-3.0640217322834644
11
3.4669373622047241
21
-3.067342598425197
0
LINE
8
BLACK
6
CONTINUOUS
10
3.4669373622047241
20
-3.067342598425197
11
3.4677165354330706
21
-3.0712598425196851
0
LINE
8
BLACK
6
CONTINUOUS
10
3.4677165354330706
20
-3.0712598425196851
11
3.4677165354330706
21
-3.1531496062992126
0
LINE
8
BLACK
6
CONTINUOUS
10
3.4677165354330706
20
-3.1531496062992126
11
3.4669373622047241
21
-3.1570668503937007
0
LINE
8
BLACK
6
CONTINUOUS
10
3.4669373622047241
20
-3.1570668503937007
11
3.4647184251968501
21
-3.1603877165354328
0
LINE
8
BLACK
6
CONTINUOUS
10
3.4647184251968501
20
-3.1603877165354328
11
3.461397559055118
21
-3.1626066535433068
0
LINE
8
BLACK
6
CONTINUOUS
10
3.461397559055118
20
-3.1626066535433068
11
3.4574803149606299
21
-3.1633858267716533
0
LINE
8
BLACK
6
CONTINUOUS
10
3.4574803149606299
20
-3.1633858267716533
11
3.3736220472440945
21
-3.1633858267716533
0
LINE
8
BLACK
6
CONTINUOUS
10
3.3736220472440945
20
-3.1633858267716533
11
3.3697048031496064
21
-3.1626066535433068
0
LINE
8
BLACK
6
CONTINUOUS
10
3.3697048031496064
20
-3.1626066535433068
11
3.3663839370078739
21
-3.1603877165354328
0
LINE
8
BLACK
6
CONTINUOUS
10
3.3663839370078739
20
-3.1603877165354328
11
3.3641649999999998
21
-3.1570668503937007
0
LINE
8
BLACK
6
CONTINUOUS
10
3.3641649999999998
20
-3.1570668503937007
11
3.3633858267716534
21
-3.1531496062992126
0
LINE
8
BLACK
6
CONTINUOUS
10
3.3633858267716534
20
-3.1531496062992126
11
3.3633858267716534
21
-3.0712598425196851
0
LINE
8
BLACK
6
CONTINUOUS
10
3.3633858267716534
20
-3.0712598425196851
11
3.3641649999999998
21
-3.067342598425197
0
LINE
8
BLACK
6
CONTINUOUS
10
3.3641649999999998
20
-3.067342598425197
11
3.3663839370078739
21
-3.0640217322834644
0
LINE
8
BLACK
6
CONTINUOUS
10
3.3663839370078739
20
-3.0640217322834644
11
3.3697048031496064
21
-3.0618027952755904
0
LINE
8
BLACK
6
CONTINUOUS
10
3.3697048031496064
20
-3.0618027952755904
11
3.3736220472440945
21
-3.061023622047244
0
LINE
8
BLACK
6
CONTINUOUS
10
3.3736220472440945
20
-3.061023622047244
11
3.4574803149606299
21
-3.061023622047244
0
LINE
8
BLACK
6
CONTINUOUS
10
3.4574803149606299
20
-3.061023622047244
11
3.461397559055118
21
-3.0618027952755904
0
LINE
8
BLACK
6
CONTINUOUS
10
1.3173662992125983
20
-2.7526427952755905
11
1.3202401181102361
21
-2.7545630314960627
0
LINE
8
BLACK
6
CONTINUOUS
10
1.3202401181102361
20
-2.7545630314960627
11
1.3221603543307086
21
-2.7574368503937006
0
LINE
8
BLACK
6
CONTINUOUS
10
1.3221603543307086
20
-2.7574368503937006
11
1.3228346456692912
21
-2.7608267716535431
0
LINE
8
BLACK
6
CONTINUOUS
10
1.3228346456692912
20
-2.7608267716535431
11
1.3228346456692912
21
-2.7785433070866139
0
LINE
8
BLACK
6
CONTINUOUS
10
1.3228346456692912
20
-2.7785433070866139
11
1.3221603543307086
21
-2.7819332283464568
0
LINE
8
BLACK
6
CONTINUOUS
10
1.3221603543307086
20
-2.7819332283464568
11
1.3202401181102361
21
-2.7848070472440942
0
LINE
8
BLACK
6
CONTINUOUS
10
1.3202401181102361
20
-2.7848070472440942
11
1.3173662992125983
21
-2.7867272834645669
0
LINE
8
BLACK
6
CONTINUOUS
10
1.3173662992125983
20
-2.7867272834645669
11
1.3139763779527558
21
-2.7874015748031495
0
LINE
8
BLACK
6
CONTINUOUS
10
1.3139763779527558
20
-2.7874015748031495
11
1.2844488188976377
21
-2.7874015748031495
0
LINE
8
BLACK
6
CONTINUOUS
10
1.2844488188976377
20
-2.7874015748031495
11
1.2810588976377952
21
-2.7867272834645669
0
LINE
8
BLACK
6
CONTINUOUS
10
1.2810588976377952
20
-2.7867272834645669
11
1.2781850787401574
21
-2.7848070472440942
0
LINE
8
BLACK
6
CONTINUOUS
10
1.2781850787401574
20
-2.7848070472440942
11
1.276264842519685
21
-2.7819332283464568
0
LINE
8
BLACK
6
CONTINUOUS
10
1.276264842519685
20
-2.7819332283464568
11
1.2755905511811023
21
-2.7785433070866139
0
LINE
8
BLACK
6
CONTINUOUS
10
1.2755905511811023
20
-2.7785433070866139
11
1.2755905511811023
21
-2.7608267716535431
0
LINE
8
BLACK
6
CONTINUOUS
10
1.2755905511811023
20
-2.7608267716535431
11
1.276264842519685
21
-2.7574368503937006
0
LINE
8
BLACK
6
CONTINUOUS
10
1.276264842519685
20
-2.7574368503937006
11
1.2781850787401574
21
-2.7545630314960627
0
LINE
8
BLACK
6
CONTINUOUS
10
1.2781850787401574
20
-2.7545630314960627
11
1.2810588976377952
21
-2.7526427952755905
0
LINE
8
BLACK
6
CONTINUOUS
10
1.2810588976377952
20
-2.7526427952755905
11
1.2844488188976377
21
-2.7519685039370079
0
LINE
8
BLACK
6
CONTINUOUS
10
1.2844488188976377
20
-2.7519685039370079
11
1.3139763779527558
21
-2.7519685039370079
0
LINE
8
BLACK
6
CONTINUOUS
10
1.3139763779527558
20
-2.7519685039370079
11
1.3173662992125983
21
-2.7526427952755905
0
LINE
8
BLACK
6
CONTINUOUS
10
2.0260277165354332
20
-2.7526427952755905
11
2.0289015354330706
21
-2.7545630314960627
0
LINE
8
BLACK
6
CONTINUOUS
10
2.0289015354330706
20
-2.7545630314960627
11
2.0308217716535433
21
-2.7574368503937006
0
LINE
8
BLACK
6
CONTINUOUS
10
2.0308217716535433
20
-2.7574368503937006
11
2.0314960629921259
21
-2.7608267716535431
0
LINE
8
BLACK
6
CONTINUOUS
10
2.0314960629921259
20
-2.7608267716535431
11
2.0314960629921259
21
-2.7785433070866139
0
LINE
8
BLACK
6
CONTINUOUS
10
2.0314960629921259
20
-2.7785433070866139
11
2.0308217716535433
21
-2.7819332283464568
0
LINE
8
BLACK
6
CONTINUOUS
10
2.0308217716535433
20
-2.7819332283464568
11
2.0289015354330706
21
-2.7848070472440942
0
LINE
8
BLACK
6
CONTINUOUS
10
2.0289015354330706
20
-2.7848070472440942
11
2.0260277165354332
21
-2.7867272834645669
0
LINE
8
BLACK
6
CONTINUOUS
10
2.0260277165354332
20
-2.7867272834645669
11
2.0226377952755903
21
-2.7874015748031495
0
LINE
8
BLACK
6
CONTINUOUS
10
2.0226377952755903
20
-2.7874015748031495
11
1.9931102362204725
21
-2.7874015748031495
0
LINE
8
BLACK
6
CONTINUOUS
10
1.9931102362204725
20
-2.7874015748031495
11
1.98972031496063
21
-2.7867272834645669
0
LINE
8
BLACK
6
CONTINUOUS
10
1.98972031496063
20
-2.7867272834645669
11
1.9868464960629921
21
-2.7848070472440942
0
LINE
8
BLACK
6
CONTINUOUS
10
1.9868464960629921
20
-2.7848070472440942
11
1.9849262598425197
21
-2.7819332283464568
0
LINE
8
BLACK
6
CONTINUOUS
10
1.9849262598425197
20
-2.7819332283464568
11
1.984251968503937
21
-2.7785433070866139
0
LINE
8
BLACK
6
CONTINUOUS
10
1.984251968503937
20
-2.7785433070866139
11
1.984251968503937
21
-2.7608267716535431
0
LINE
8
BLACK
6
CONTINUOUS
10
1.984251968503937
20
-2.7608267716535431
11
1.9849262598425197
21
-2.7574368503937006
0
LINE
8
BLACK
6
CONTINUOUS
10
1.9849262598425197
20
-2.7574368503937006
11
1.9868464960629921
21
-2.7545630314960627
0
LINE
8
BLACK
6
CONTINUOUS
10
1.9868464960629921
20
-2.7545630314960627
11
1.98972031496063
21
-2.7526427952755905
0
LINE
8
BLACK
6
CONTINUOUS
10
1.98972031496063
20
-2.7526427952755905
11
1.9931102362204725
21
-2.7519685039370079
0
LINE
8
BLACK
6
CONTINUOUS
10
1.9931102362204725
20
-2.7519685039370079
11
2.0226377952755903
21
-2.7519685039370079
0
LINE
8
BLACK
6
CONTINUOUS
10
2.0226377952755903
20
-2.7519685039370079
11
2.0260277165354332
21
-2.7526427952755905
0
LINE
8
BLACK
6
CONTINUOUS
10
2.7346891338582675
20
-2.7526427952755905
11
2.7375629527559053
21
-2.7545630314960627
0
LINE
8
BLACK
6
CONTINUOUS
10
2.7375629527559053
20
-2.7545630314960627
11
2.739483188976378
21
-2.7574368503937006
0
LINE
8
BLACK
6
CONTINUOUS
10
2.739483188976378
20
-2.7574368503937006
11
2.7401574803149606
21
-2.7608267716535431
0
LINE
8
BLACK
6
CONTINUOUS
10
2.7401574803149606
20
-2.7608267716535431
11
2.7401574803149606
21
-2.7785433070866139
0
LINE
8
BLACK
6
CONTINUOUS
10
2.7401574803149606
20
-2.7785433070866139
11
2.739483188976378
21
-2.7819332283464568
0
LINE
8
BLACK
6
CONTINUOUS
10
2.739483188976378
20
-2.7819332283464568
11
2.7375629527559053
21
-2.7848070472440942
0
LINE
8
BLACK
6
CONTINUOUS
10
2.7375629527559053
20
-2.7848070472440942
11
2.7346891338582675
21
-2.7867272834645669
0
LINE
8
BLACK
6
CONTINUOUS
10
2.7346891338582675
20
-2.7867272834645669
11
2.731299212598425
21
-2.7874015748031495
0
LINE
8
BLACK
6
CONTINUOUS
10
2.731299212598425
20
-2.7874015748031495
11
2.701771653543307
21
-2.7874015748031495
0
LINE
8
BLACK
6
CONTINUOUS
10
2.701771653543307
20
-2.7874015748031495
11
2.6983817322834645
21
-2.7867272834645669
0
LINE
8
BLACK
6
CONTINUOUS
10
2.6983817322834645
20
-2.7867272834645669
11
2.6955079133858266
21
-2.7848070472440942
0
LINE
8
BLACK
6
CONTINUOUS
10
2.6955079133858266
20
-2.7848070472440942
11
2.6935876771653544
21
-2.7819332283464568
0
LINE
8
BLACK
6
CONTINUOUS
10
2.6935876771653544
20
-2.7819332283464568
11
2.6929133858267718
21
-2.7785433070866139
0
LINE
8
BLACK
6
CONTINUOUS
10
2.6929133858267718
20
-2.7785433070866139
11
2.6929133858267718
21
-2.7608267716535431
0
LINE
8
BLACK
6
CONTINUOUS
10
2.6929133858267718
20
-2.7608267716535431
11
2.6935876771653544
21
-2.7574368503937006
0
LINE
8
BLACK
6
CONTINUOUS
10
2.6935876771653544
20
-2.7574368503937006
11
2.6955079133858266
21
-2.7545630314960627
0
LINE
8
BLACK
6
CONTINUOUS
10
2.6955079133858266
20
-2.7545630314960627
11
2.6983817322834645
21
-2.7526427952755905
0
LINE
8
BLACK
6
CONTINUOUS
10
2.6983817322834645
20
-2.7526427952755905
11
2.701771653543307
21
-2.7519685039370079
0
LINE
8
BLACK
6
CONTINUOUS
10
2.701771653543307
20
-2.7519685039370079
11
2.731299212598425
21
-2.7519685039370079
0
LINE
8
BLACK
6
CONTINUOUS
10
2.731299212598425
20
-2.7519685039370079
11
2.7346891338582675
21
-2.7526427952755905
0
LINE
8
BLACK
6
CONTINUOUS
10
3.4433505511811022
20
-2.7526427952755905
11
3.4462243700787401
21
-2.7545630314960627
0
LINE
8
BLACK
6
CONTINUOUS
10
3.4462243700787401
20
-2.7545630314960627
11
3.4481446062992127
21
-2.7574368503937006
0
LINE
8
BLACK
6
CONTINUOUS
10
3.4481446062992127
20
-2.7574368503937006
11
3.4488188976377954
21
-2.7608267716535431
0
LINE
8
BLACK
6
CONTINUOUS
10
3.4488188976377954
20
-2.7608267716535431
11
3.4488188976377954
21
-2.7785433070866139
0
LINE
8
BLACK
6
CONTINUOUS
10
3.4488188976377954
20
-2.7785433070866139
11
3.4481446062992127
21
-2.7819332283464568
0
LINE
8
BLACK
6
CONTINUOUS
10
3.4481446062992127
20
-2.7819332283464568
11
3.4462243700787401
21
-2.7848070472440942
0
LINE
8
BLACK
6
CONTINUOUS
10
3.4462243700787401
20
-2.7848070472440942
11
3.4433505511811022
21
-2.7867272834645669
0
LINE
8
BLACK
6
CONTINUOUS
10
3.4433505511811022
20
-2.7867272834645669
11
3.4399606299212597
21
-2.7874015748031495
0
LINE
8
BLACK
6
CONTINUOUS
10
3.4399606299212597
20
-2.7874015748031495
11
3.4104330708661417
21
-2.7874015748031495
0
LINE
8
BLACK
6
CONTINUOUS
10
3.4104330708661417
20
-2.7874015748031495
11
3.4070431496062992
21
-2.7867272834645669
0
LINE
8
BLACK
6
CONTINUOUS
10
3.4070431496062992
20
-2.7867272834645669
11
3.4041693307086613
21
-2.7848070472440942
0
LINE
8
BLACK
6
CONTINUOUS
10
3.4041693307086613
20
-2.7848070472440942
11
3.4022490944881887
21
-2.7819332283464568
0
LINE
8
BLACK
6
CONTINUOUS
10
3.4022490944881887
20
-2.7819332283464568
11
3.401574803149606
21
-2.7785433070866139
0
LINE
8
BLACK
6
CONTINUOUS
10
3.401574803149606
20
-2.7785433070866139
11
3.401574803149606
21
-2.7608267716535431
0
LINE
8
BLACK
6
CONTINUOUS
10
3.401574803149606
20
-2.7608267716535431
11
3.4022490944881887
21
-2.7574368503937006
0
LINE
8
BLACK
6
CONTINUOUS
10
3.4022490944881887
20
-2.7574368503937006
11
3.4041693307086613
21
-2.7545630314960627
0
LINE
8
BLACK
6
CONTINUOUS
10
3.4041693307086613
20
-2.7545630314960627
11
3.4070431496062992
21
-2.7526427952755905
0
LINE
8
BLACK
6
CONTINUOUS
10
3.4070431496062992
20
-2.7526427952755905
11
3.4104330708661417
21
-2.7519685039370079
0
LINE
8
BLACK
6
CONTINUOUS
10
3.4104330708661417
20
-2.7519685039370079
11
3.4399606299212597
21
-2.7519685039370079
0
LINE
8
BLACK
6
CONTINUOUS
10
3.4399606299212597
20
-2.7519685039370079
11
3.4433505511811022
21
-2.7526427952755905
0
LINE
8
BLACK
6
CONTINUOUS
10
1.3173662992125983
20
-2.6227215354330706
11
1.3202401181102361
21
-2.6246417716535433
0
LINE
8
BLACK
6
CONTINUOUS
10
1.3202401181102361
20
-2.6246417716535433
11
1.3221603543307086
21
-2.6275155905511811
0
LINE
8
BLACK
6
CONTINUOUS
10
1.3221603543307086
20
-2.6275155905511811
11
1.3228346456692912
21
-2.6309055118110236
0
LINE
8
BLACK
6
CONTINUOUS
10
1.3228346456692912
20
-2.6309055118110236
11
1.3228346456692912
21
-2.6486220472440944
0
LINE
8
BLACK
6
CONTINUOUS
10
1.3228346456692912
20
-2.6486220472440944
11
1.3221603543307086
21
-2.6520119685039369
0
LINE
8
BLACK
6
CONTINUOUS
10
1.3221603543307086
20
-2.6520119685039369
11
1.3202401181102361
21
-2.6548857874015748
0
LINE
8
BLACK
6
CONTINUOUS
10
1.3202401181102361
20
-2.6548857874015748
11
1.3173662992125983
21
-2.656806023622047
0
LINE
8
BLACK
6
CONTINUOUS
10
1.3173662992125983
20
-2.656806023622047
11
1.3139763779527558
21
-2.6574803149606296
0
LINE
8
BLACK
6
CONTINUOUS
10
1.3139763779527558
20
-2.6574803149606296
11
1.2844488188976377
21
-2.6574803149606296
0
LINE
8
BLACK
6
CONTINUOUS
10
1.2844488188976377
20
-2.6574803149606296
11
1.2810588976377952
21
-2.656806023622047
0
LINE
8
BLACK
6
CONTINUOUS
10
1.2810588976377952
20
-2.656806023622047
11
1.2781850787401574
21
-2.6548857874015748
0
LINE
8
BLACK
6
CONTINUOUS
10
1.2781850787401574
20
-2.6548857874015748
11
1.276264842519685
21
-2.6520119685039369
0
LINE
8
BLACK
6
CONTINUOUS
10
1.276264842519685
20
-2.6520119685039369
11
1.2755905511811023
21
-2.6486220472440944
0
LINE
8
BLACK
6
CONTINUOUS
10
1.2755905511811023
20
-2.6486220472440944
11
1.2755905511811023
21
-2.6309055118110236
0
LINE
8
BLACK
6
CONTINUOUS
10
1.2755905511811023
20
-2.6309055118110236
11
1.276264842519685
21
-2.6275155905511811
0
LINE
8
BLACK
6
CONTINUOUS
10
1.276264842519685
20
-2.6275155905511811
11
1.2781850787401574
21
-2.6246417716535433
0
LINE
8
BLACK
6
CONTINUOUS
10
1.2781850787401574
20
-2.6246417716535433
11
1.2810588976377952
21
-2.6227215354330706
0
LINE
8
BLACK
6
CONTINUOUS
10
1.2810588976377952
20
-2.6227215354330706
11
1.2844488188976377
21
-2.622047244094488
0
LINE
8
BLACK
6
CONTINUOUS
10
1.2844488188976377
20
-2.622047244094488
11
1.3139763779527558
21
-2.622047244094488
0
LINE
8
BLACK
6
CONTINUOUS
10
1.3139763779527558
20
-2.622047244094488
11
1.3173662992125983
21
-2.6227215354330706
0
LINE
8
BLACK
6
CONTINUOUS
10
2.0260277165354332
20
-2.6227215354330706
11
2.0289015354330706
21
-2.6246417716535433
0
LINE
8
BLACK
6
CONTINUOUS
10
2.0289015354330706
20
-2.6246417716535433
11
2.0308217716535433
21
-2.6275155905511811
0
LINE
8
BLACK
6
CONTINUOUS
10
2.0308217716535433
20
-2.6275155905511811
11
2.0314960629921259
21
-2.6309055118110236
0
LINE
8
BLACK
6
CONTINUOUS
10
2.0314960629921259
20
-2.6309055118110236
11
2.0314960629921259
21
-2.6486220472440944
0
LINE
8
BLACK
6
CONTINUOUS
10
2.0314960629921259
20
-2.6486220472440944
11
2.0308217716535433
21
-2.6520119685039369
0
LINE
8
BLACK
6
CONTINUOUS
10
2.0308217716535433
20
-2.6520119685039369
11
2.0289015354330706
21
-2.6548857874015748
0
LINE
8
BLACK
6
CONTINUOUS
10
2.0289015354330706
20
-2.6548857874015748
11
2.0260277165354332
21
-2.656806023622047
0
LINE
8
BLACK
6
CONTINUOUS
10
2.0260277165354332
20
-2.656806023622047
11
2.0226377952755903
21
-2.6574803149606296
0
LINE
8
BLACK
6
CONTINUOUS
10
2.0226377952755903
20
-2.6574803149606296
11
1.9931102362204725
21
-2.6574803149606296
0
LINE
8
BLACK
6
CONTINUOUS
10
1.9931102362204725
20
-2.6574803149606296
11
1.98972031496063
21
-2.656806023622047
0
LINE
8
BLACK
6
CONTINUOUS
10
1.98972031496063
20
-2.656806023622047
11
1.9868464960629921
21
-2.6548857874015748
0
LINE
8
BLACK
6
CONTINUOUS
10
1.9868464960629921
20
-2.6548857874015748
11
1.9849262598425197
21
-2.6520119685039369
0
LINE
8
BLACK
6
CONTINUOUS
10
1.9849262598425197
20
-2.6520119685039369
11
1.984251968503937
21
-2.6486220472440944
0
LINE
8
BLACK
6
CONTINUOUS
10
1.984251968503937
20
-2.6486220472440944
11
1.984251968503937
21
-2.6309055118110236
0
LINE
8
BLACK
6
CONTINUOUS
10
1.984251968503937
20
-2.6309055118110236
11
1.9849262598425197
21
-2.6275155905511811
0
LINE
8
BLACK
6
CONTINUOUS
10
1.9849262598425197
20
-2.6275155905511811
11
1.9868464960629921
21
-2.6246417716535433
0
LINE
8
BLACK
6
CONTINUOUS
10
1.9868464960629921
20
-2.6246417716535433
11
1.98972031496063
21
-2.6227215354330706
0
LINE
8
BLACK
6
CONTINUOUS
10
1.98972031496063
20
-2.6227215354330706
11
1.9931102362204725
21
-2.622047244094488
0
LINE
8
BLACK
6
CONTINUOUS
10
1.9931102362204725
20
-2.622047244094488
11
2.0226377952755903
21
-2.622047244094488
0
LINE
8
BLACK
6
CONTINUOUS
10
2.0226377952755903
20
-2.622047244094488
11
2.0260277165354332
21
-2.6227215354330706
0
LINE
8
BLACK
6
CONTINUOUS
10
2.7346891338582675
20
-2.6227215354330706
11
2.7375629527559053
21
-2.6246417716535433
0
LINE
8
BLACK
6
CONTINUOUS
10
2.7375629527559053
20
-2.6246417716535433
11
2.739483188976378
21
-2.6275155905511811
0
LINE
8
BLACK
6
CONTINUOUS
10
2.739483188976378
20
-2.6275155905511811
11
2.7401574803149606
21
-2.6309055118110236
0
LINE
8
BLACK
6
CONTINUOUS
10
2.7401574803149606
20
-2.6309055118110236
11
2.7401574803149606
21
-2.6486220472440944
0
LINE
8
BLACK
6
CONTINUOUS
10
2.7401574803149606
20
-2.6486220472440944
11
2.739483188976378
21
-2.6520119685039369
0
LINE
8
BLACK
6
CONTINUOUS
10
2.739483188976378
20
-2.6520119685039369
11
2.7375629527559053
21
-2.6548857874015748
0
LINE
8
BLACK
6
CONTINUOUS
10
2.7375629527559053
20
-2.6548857874015748
11
2.7346891338582675
21
-2.656806023622047
0
LINE
8
BLACK
6
CONTINUOUS
10
2.7346891338582675
20
-2.656806023622047
11
2.731299212598425
21
-2.6574803149606296
0
LINE
8
BLACK
6
CONTINUOUS
10
2.731299212598425
20
-2.6574803149606296
11
2.701771653543307
21
-2.6574803149606296
0
LINE
8
BLACK
6
CONTINUOUS
10
2.701771653543307
20
-2.6574803149606296
11
2.6983817322834645
21
-2.656806023622047
0
LINE
8
BLACK
6
CONTINUOUS
10
2.6983817322834645
20
-2.656806023622047
11
2.6955079133858266
21
-2.6548857874015748
0
LINE
8
BLACK
6
CONTINUOUS
10
2.6955079133858266
20
-2.6548857874015748
11
2.6935876771653544
21
-2.6520119685039369
0
LINE
8
BLACK
6
CONTINUOUS
10
2.6935876771653544
20
-2.6520119685039369
11
2.6929133858267718
21
-2.6486220472440944
0
LINE
8
BLACK
6
CONTINUOUS
10
2.6929133858267718
20
-2.6486220472440944
11
2.6929133858267718
21
-2.6309055118110236
0
LINE
8
BLACK
6
CONTINUOUS
10
2.6929133858267718
20
-2.6309055118110236
11
2.6935876771653544
21
-2.6275155905511811
0
LINE
8
BLACK
6
CONTINUOUS
10
2.6935876771653544
20
-2.6275155905511811
11
2.6955079133858266
21
-2.6246417716535433
0
LINE
8
BLACK
6
CONTINUOUS
10
2.6955079133858266
20
-2.6246417716535433
11
2.6983817322834645
21
-2.6227215354330706
0
LINE
8
BLACK
6
CONTINUOUS
10
2.6983817322834645
20
-2.6227215354330706
11
2.701771653543307
21
-2.622047244094488
0
LINE
8
BLACK
6
CONTINUOUS
10
2.701771653543307
20
-2.622047244094488
11
2.731299212598425
21
-2.622047244094488
0
LINE
8
BLACK
6
CONTINUOUS
10
2.731299212598425
20
-2.622047244094488
11
2.7346891338582675
21
-2.6227215354330706
0
LINE
8
BLACK
6
CONTINUOUS
10
3.4433505511811022
20
-2.6227215354330706
11
3.4462243700787401
21
-2.6246417716535433
0
LINE
8
BLACK
6
CONTINUOUS
10
3.4462243700787401
20
-2.6246417716535433
11
3.4481446062992127
21
-2.6275155905511811
0
LINE
8
BLACK
6
CONTINUOUS
10
3.4481446062992127
20
-2.6275155905511811
11
3.4488188976377954
21
-2.6309055118110236
0
LINE
8
BLACK
6
CONTINUOUS
10
3.4488188976377954
20
-2.6309055118110236
11
3.4488188976377954
21
-2.6486220472440944
0
LINE
8
BLACK
6
CONTINUOUS
10
3.4488188976377954
20
-2.6486220472440944
11
3.4481446062992127
21
-2.6520119685039369
0
LINE
8
BLACK
6
CONTINUOUS
10
3.4481446062992127
20
-2.6520119685039369
11
3.4462243700787401
21
-2.6548857874015748
0
LINE
8
BLACK
6
CONTINUOUS
10
3.4462243700787401
20
-2.6548857874015748
11
3.4433505511811022
21
-2.656806023622047
0
LINE
8
BLACK
6
CONTINUOUS
10
3.4433505511811022
20
-2.656806023622047
11
3.4399606299212597
21
-2.6574803149606296
0
LINE
8
BLACK
6
CONTINUOUS
10
3.4399606299212597
20
-2.6574803149606296
11
3.4104330708661417
21
-2.6574803149606296
0
LINE
8
BLACK
6
CONTINUOUS
10
3.4104330708661417
20
-2.6574803149606296
11
3.4070431496062992
21
-2.656806023622047
0
LINE
8
BLACK
6
CONTINUOUS
10
3.4070431496062992
20
-2.656806023622047
11
3.4041693307086613
21
-2.6548857874015748
0
LINE
8
BLACK
6
CONTINUOUS
10
3.4041693307086613
20
-2.6548857874015748
11
3.4022490944881887
21
-2.6520119685039369
0
LINE
8
BLACK
6
CONTINUOUS
10
3.4022490944881887
20
-2.6520119685039369
11
3.401574803149606
21
-2.6486220472440944
0
LINE
8
BLACK
6
CONTINUOUS
10
3.401574803149606
20
-2.6486220472440944
11
3.401574803149606
21
-2.6309055118110236
0
LINE
8
BLACK
6
CONTINUOUS
10
3.401574803149606
20
-2.6309055118110236
11
3.4022490944881887
21
-2.6275155905511811
0
LINE
8
BLACK
6
CONTINUOUS
10
3.4022490944881887
20
-2.6275155905511811
11
3.4041693307086613
21
-2.6246417716535433
0
LINE
8
BLACK
6
CONTINUOUS
10
3.4041693307086613
20
-2.6246417716535433
11
3.4070431496062992
21
-2.6227215354330706
0
LINE
8
BLACK
6
CONTINUOUS
10
3.4070431496062992
20
-2.6227215354330706
11
3.4104330708661417
21
-2.622047244094488
0
LINE
8
BLACK
6
CONTINUOUS
10
3.4104330708661417
20
-2.622047244094488
11
3.4399606299212597
21
-2.622047244094488
0
LINE
8
BLACK
6
CONTINUOUS
10
3.4399606299212597
20
-2.622047244094488
11
3.4433505511811022
21
-2.6227215354330706
0
LINE
8
BLACK
6
CONTINUOUS
10
1.7877755118110237
20
-2.4791256299212598
11
1.7910963779527558
21
-2.4813445669291339
0
LINE
8
BLACK
6
CONTINUOUS
10
1.7910963779527558
20
-2.4813445669291339
11
1.7933153149606298
21
-2.484665433070866
0
LINE
8
BLACK
6
CONTINUOUS
10
1.7933153149606298
20
-2.484665433070866
11
1.7940944881889764
21
-2.4885826771653541
0
LINE
8
BLACK
6
CONTINUOUS
10
1.7940944881889764
20
-2.4885826771653541
11
1.7940944881889764
21
-2.570472440944882
0
LINE
8
BLACK
6
CONTINUOUS
10
1.7940944881889764
20
-2.570472440944882
11
1.7933153149606298
21
-2.5743896850393702
0
LINE
8
BLACK
6
CONTINUOUS
10
1.7933153149606298
20
-2.5743896850393702
11
1.7910963779527558
21
-2.5777105511811023
0
LINE
8
BLACK
6
CONTINUOUS
10
1.7910963779527558
20
-2.5777105511811023
11
1.7877755118110237
21
-2.5799294881889763
0
LINE
8
BLACK
6
CONTINUOUS
10
1.7877755118110237
20
-2.5799294881889763
11
1.7838582677165353
21
-2.5807086614173227
0
LINE
8
BLACK
6
CONTINUOUS
10
1.7838582677165353
20
-2.5807086614173227
11
1.7
21
-2.5807086614173227
0
LINE
8
BLACK
6
CONTINUOUS
10
1.7
20
-2.5807086614173227
11
1.6960827559055118
21
-2.5799294881889763
0
LINE
8
BLACK
6
CONTINUOUS
10
1.6960827559055118
20
-2.5799294881889763
11
1.6927618897637795
21
-2.5777105511811023
0
LINE
8
BLACK
6
CONTINUOUS
10
1.6927618897637795
20
-2.5777105511811023
11
1.6905429527559055
21
-2.5743896850393702
0
LINE
8
BLACK
6
CONTINUOUS
10
1.6905429527559055
20
-2.5743896850393702
11
1.6897637795275591
21
-2.570472440944882
0
LINE
8
BLACK
6
CONTINUOUS
10
1.6897637795275591
20
-2.570472440944882
11
1.6897637795275591
21
-2.4885826771653541
0
LINE
8
BLACK
6
CONTINUOUS
10
1.6897637795275591
20
-2.4885826771653541
11
1.6905429527559055
21
-2.484665433070866
0
LINE
8
BLACK
6
CONTINUOUS
10
1.6905429527559055
20
-2.484665433070866
11
1.6927618897637795
21
-2.4813445669291339
0
LINE
8
BLACK
6
CONTINUOUS
10
1.6927618897637795
20
-2.4813445669291339
11
1.6960827559055118
21
-2.4791256299212598
0
LINE
8
BLACK
6
CONTINUOUS
10
1.6960827559055118
20
-2.4791256299212598
11
1.7
21
-2.4783464566929134
0
LINE
8
BLACK
6
CONTINUOUS
10
1.7
20
-2.4783464566929134
11
1.7838582677165353
21
-2.4783464566929134
0
LINE
8
BLACK
6
CONTINUOUS
10
1.7838582677165353
20
-2.4783464566929134
11
1.7877755118110237
21
-2.4791256299212598
0
LINE
8
BLACK
6
CONTINUOUS
10
2.4964369291338584
20
-2.4791256299212598
11
2.4997577952755905
21
-2.4813445669291339
0
LINE
8
BLACK
6
CONTINUOUS
10
2.4997577952755905
20
-2.4813445669291339
11
2.5019767322834645
21
-2.484665433070866
0
LINE
8
BLACK
6
CONTINUOUS
10
2.5019767322834645
20
-2.484665433070866
11
2.5027559055118109
21
-2.4885826771653541
0
LINE
8
BLACK
6
CONTINUOUS
10
2.5027559055118109
20
-2.4885826771653541
11
2.5027559055118109
21
-2.570472440944882
0
LINE
8
BLACK
6
CONTINUOUS
10
2.5027559055118109
20
-2.570472440944882
11
2.5019767322834645
21
-2.5743896850393702
0
LINE
8
BLACK
6
CONTINUOUS
10
2.5019767322834645
20
-2.5743896850393702
11
2.4997577952755905
21
-2.5777105511811023
0
LINE
8
BLACK
6
CONTINUOUS
10
2.4997577952755905
20
-2.5777105511811023
11
2.4964369291338584
21
-2.5799294881889763
0
LINE
8
BLACK
6
CONTINUOUS
10
2.4964369291338584
20
-2.5799294881889763
11
2.4925196850393698
21
-2.5807086614173227
0
LINE
8
BLACK
6
CONTINUOUS
10
2.4925196850393698
20
-2.5807086614173227
11
2.4086614173228345
21
-2.5807086614173227
0
LINE
8
BLACK
6
CONTINUOUS
10
2.4086614173228345
20
-2.5807086614173227
11
2.4047441732283463
21
-2.5799294881889763
0
LINE
8
BLACK
6
CONTINUOUS
10
2.4047441732283463
20
-2.5799294881889763
11
2.4014233070866142
21
-2.5777105511811023
0
LINE
8
BLACK
6
CONTINUOUS
10
2.4014233070866142
20
-2.5777105511811023
11
2.3992043700787402
21
-2.5743896850393702
0
LINE
8
BLACK
6
CONTINUOUS
10
2.3992043700787402
20
-2.5743896850393702
11
2.3984251968503938
21
-2.570472440944882
0
LINE
8
BLACK
6
CONTINUOUS
10
2.3984251968503938
20
-2.570472440944882
11
2.3984251968503938
21
-2.4885826771653541
0
LINE
8
BLACK
6
CONTINUOUS
10
2.3984251968503938
20
-2.4885826771653541
11
2.3992043700787402
21
-2.484665433070866
0
LINE
8
BLACK
6
CONTINUOUS
10
2.3992043700787402
20
-2.484665433070866
11
2.4014233070866142
21
-2.4813445669291339
0
LINE
8
BLACK
6
CONTINUOUS
10
2.4014233070866142
20
-2.4813445669291339
11
2.4047441732283463
21
-2.4791256299212598
0
LINE
8
BLACK
6
CONTINUOUS
10
2.4047441732283463
20
-2.4791256299212598
11
2.4086614173228345
21
-2.4783464566929134
0
LINE
8
BLACK
6
CONTINUOUS
10
2.4086614173228345
20
-2.4783464566929134
11
2.4925196850393698
21
-2.4783464566929134
0
LINE
8
BLACK
6
CONTINUOUS
10
2.4925196850393698
20
-2.4783464566929134
11
2.4964369291338584
21
-2.4791256299212598
0
LINE
8
BLACK
6
CONTINUOUS
10
3.2050983464566927
20
-2.4791256299212598
11
3.2084192125984252
21
-2.4813445669291339
0
LINE
8
BLACK
6
CONTINUOUS
10
3.2084192125984252
20
-2.4813445669291339
11
3.2106381496062992
21
-2.484665433070866
0
LINE
8
BLACK
6
CONTINUOUS
10
3.2106381496062992
20
-2.484665433070866
11
3.2114173228346456
21
-2.4885826771653541
0
LINE
8
BLACK
6
CONTINUOUS
10
3.2114173228346456
20
-2.4885826771653541
11
3.2114173228346456
21
-2.570472440944882
0
LINE
8
BLACK
6
CONTINUOUS
10
3.2114173228346456
20
-2.570472440944882
11
3.2106381496062992
21
-2.5743896850393702
0
LINE
8
BLACK
6
CONTINUOUS
10
3.2106381496062992
20
-2.5743896850393702
11
3.2084192125984252
21
-2.5777105511811023
0
LINE
8
BLACK
6
CONTINUOUS
10
3.2084192125984252
20
-2.5777105511811023
11
3.2050983464566927
21
-2.5799294881889763
0
LINE
8
BLACK
6
CONTINUOUS
10
3.2050983464566927
20
-2.5799294881889763
11
3.2011811023622045
21
-2.5807086614173227
0
LINE
8
BLACK
6
CONTINUOUS
10
3.2011811023622045
20
-2.5807086614173227
11
3.1173228346456692
21
-2.5807086614173227
0
LINE
8
BLACK
6
CONTINUOUS
10
3.1173228346456692
20
-2.5807086614173227
11
3.113405590551181
21
-2.5799294881889763
0
LINE
8
BLACK
6
CONTINUOUS
10
3.113405590551181
20
-2.5799294881889763
11
3.1100847244094489
21
-2.5777105511811023
0
LINE
8
BLACK
6
CONTINUOUS
10
3.1100847244094489
20
-2.5777105511811023
11
3.1078657874015749
21
-2.5743896850393702
0
LINE
8
BLACK
6
CONTINUOUS
10
3.1078657874015749
20
-2.5743896850393702
11
3.1070866141732281
21
-2.570472440944882
0
LINE
8
BLACK
6
CONTINUOUS
10
3.1070866141732281
20
-2.570472440944882
11
3.1070866141732281
21
-2.4885826771653541
0
LINE
8
BLACK
6
CONTINUOUS
10
3.1070866141732281
20
-2.4885826771653541
11
3.1078657874015749
21
-2.484665433070866
0
LINE
8
BLACK
6
CONTINUOUS
10
3.1078657874015749
20
-2.484665433070866
11
3.1100847244094489
21
-2.4813445669291339
0
LINE
8
BLACK
6
CONTINUOUS
10
3.1100847244094489
20
-2.4813445669291339
11
3.113405590551181
21
-2.4791256299212598
0
LINE
8
BLACK
6
CONTINUOUS
10
3.113405590551181
20
-2.4791256299212598
11
3.1173228346456692
21
-2.4783464566929134
0
LINE
8
BLACK
6
CONTINUOUS
10
3.1173228346456692
20
-2.4783464566929134
11
3.2011811023622045
21
-2.4783464566929134
0
LINE
8
BLACK
6
CONTINUOUS
10
3.2011811023622045
20
-2.4783464566929134
11
3.2050983464566927
21
-2.4791256299212598
0
LINE
8
BLACK
6
CONTINUOUS
10
3.9137597637795274
20
-2.4791256299212598
11
3.9170806299212599
21
-2.4813445669291339
0
LINE
8
BLACK
6
CONTINUOUS
10
3.9170806299212599
20
-2.4813445669291339
11
3.9192995669291339
21
-2.484665433070866
0
LINE
8
BLACK
6
CONTINUOUS
10
3.9192995669291339
20
-2.484665433070866
11
3.9200787401574804
21
-2.4885826771653541
0
LINE
8
BLACK
6
CONTINUOUS
10
3.9200787401574804
20
-2.4885826771653541
11
3.9200787401574804
21
-2.570472440944882
0
LINE
8
BLACK
6
CONTINUOUS
10
3.9200787401574804
20
-2.570472440944882
11
3.9192995669291339
21
-2.5743896850393702
0
LINE
8
BLACK
6
CONTINUOUS
10
3.9192995669291339
20
-2.5743896850393702
11
3.9170806299212599
21
-2.5777105511811023
0
LINE
8
BLACK
6
CONTINUOUS
10
3.9170806299212599
20
-2.5777105511811023
11
3.9137597637795274
21
-2.5799294881889763
0
LINE
8
BLACK
6
CONTINUOUS
10
3.9137597637795274
20
-2.5799294881889763
11
3.9098425196850393
21
-2.5807086614173227
0
LINE
8
BLACK
6
CONTINUOUS
10
3.9098425196850393
20
-2.5807086614173227
11
3.8259842519685039
21
-2.5807086614173227
0
LINE
8
BLACK
6
CONTINUOUS
10
3.8259842519685039
20
-2.5807086614173227
11
3.8220670078740158
21
-2.5799294881889763
0
LINE
8
BLACK
6
CONTINUOUS
10
3.8220670078740158
20
-2.5799294881889763
11
3.8187461417322832
21
-2.5777105511811023
0
LINE
8
BLACK
6
CONTINUOUS
10
3.8187461417322832
20
-2.5777105511811023
11
3.8165272047244092
21
-2.5743896850393702
0
LINE
8
BLACK
6
CONTINUOUS
10
3.8165272047244092
20
-2.5743896850393702
11
3.8157480314960628
21
-2.570472440944882
0
LINE
8
BLACK
6
CONTINUOUS
10
3.8157480314960628
20
-2.570472440944882
11
3.8157480314960628
21
-2.4885826771653541
0
LINE
8
BLACK
6
CONTINUOUS
10
3.8157480314960628
20
-2.4885826771653541
11
3.8165272047244092
21
-2.484665433070866
0
LINE
8
BLACK
6
CONTINUOUS
10
3.8165272047244092
20
-2.484665433070866
11
3.8187461417322832
21
-2.4813445669291339
0
LINE
8
BLACK
6
CONTINUOUS
10
3.8187461417322832
20
-2.4813445669291339
11
3.8220670078740158
21
-2.4791256299212598
0
LINE
8
BLACK
6
CONTINUOUS
10
3.8220670078740158
20
-2.4791256299212598
11
3.8259842519685039
21
-2.4783464566929134
0
LINE
8
BLACK
6
CONTINUOUS
10
3.8259842519685039
20
-2.4783464566929134
11
3.9098425196850393
21
-2.4783464566929134
0
LINE
8
BLACK
6
CONTINUOUS
10
3.9098425196850393
20
-2.4783464566929134
11
3.9137597637795274
21
-2.4791256299212598
0
LINE
8
BLACK
6
CONTINUOUS
10
1.3354133070866141
20
-2.3925114566929135
11
1.3387341732283464
21
-2.3947303937007876
0
LINE
8
BLACK
6
CONTINUOUS
10
1.3387341732283464
20
-2.3947303937007876
11
1.3409531102362204
21
-2.3980512598425197
0
LINE
8
BLACK
6
CONTINUOUS
10
1.3409531102362204
20
-2.3980512598425197
11
1.3417322834645669
21
-2.4019685039370078
0
LINE
8
BLACK
6
CONTINUOUS
10
1.3417322834645669
20
-2.4019685039370078
11
1.3417322834645669
21
-2.4838582677165353
0
LINE
8
BLACK
6
CONTINUOUS
10
1.3417322834645669
20
-2.4838582677165353
11
1.3409531102362204
21
-2.4877755118110234
0
LINE
8
BLACK
6
CONTINUOUS
10
1.3409531102362204
20
-2.4877755118110234
11
1.3387341732283464
21
-2.491096377952756
0
LINE
8
BLACK
6
CONTINUOUS
10
1.3387341732283464
20
-2.491096377952756
11
1.3354133070866141
21
-2.49331531496063
0
LINE
8
BLACK
6
CONTINUOUS
10
1.3354133070866141
20
-2.49331531496063
11
1.331496062992126
21
-2.4940944881889764
0
LINE
8
BLACK
6
CONTINUOUS
10
1.331496062992126
20
-2.4940944881889764
11
1.2476377952755906
21
-2.4940944881889764
0
LINE
8
BLACK
6
CONTINUOUS
10
1.2476377952755906
20
-2.4940944881889764
11
1.2437205511811023
21
-2.49331531496063
0
LINE
8
BLACK
6
CONTINUOUS
10
1.2437205511811023
20
-2.49331531496063
11
1.2403996850393701
21
-2.491096377952756
0
LINE
8
BLACK
6
CONTINUOUS
10
1.2403996850393701
20
-2.491096377952756
11
1.2381807480314961
21
-2.4877755118110234
0
LINE
8
BLACK
6
CONTINUOUS
10
1.2381807480314961
20
-2.4877755118110234
11
1.2374015748031495
21
-2.4838582677165353
0
LINE
8
BLACK
6
CONTINUOUS
10
1.2374015748031495
20
-2.4838582677165353
11
1.2374015748031495
21
-2.4019685039370078
0
LINE
8
BLACK
6
CONTINUOUS
10
1.2374015748031495
20
-2.4019685039370078
11
1.2381807480314961
21
-2.3980512598425197
0
LINE
8
BLACK
6
CONTINUOUS
10
1.2381807480314961
20
-2.3980512598425197
11
1.2403996850393701
21
-2.3947303937007876
0
LINE
8
BLACK
6
CONTINUOUS
10
1.2403996850393701
20
-2.3947303937007876
11
1.2437205511811023
21
-2.3925114566929135
0
LINE
8
BLACK
6
CONTINUOUS
10
1.2437205511811023
20
-2.3925114566929135
11
1.2476377952755906
21
-2.3917322834645667
0
LINE
8
BLACK
6
CONTINUOUS
10
1.2476377952755906
20
-2.3917322834645667
11
1.331496062992126
21
-2.3917322834645667
0
LINE
8
BLACK
6
CONTINUOUS
10
1.331496062992126
20
-2.3917322834645667
11
1.3354133070866141
21
-2.3925114566929135
0
LINE
8
BLACK
6
CONTINUOUS
10
2.0440747244094486
20
-2.3925114566929135
11
2.0473955905511811
21
-2.3947303937007876
0
LINE
8
BLACK
6
CONTINUOUS
10
2.0473955905511811
20
-2.3947303937007876
11
2.0496145275590552
21
-2.3980512598425197
0
LINE
8
BLACK
6
CONTINUOUS
10
2.0496145275590552
20
-2.3980512598425197
11
2.0503937007874016
21
-2.4019685039370078
0
LINE
8
BLACK
6
CONTINUOUS
10
2.0503937007874016
20
-2.4019685039370078
11
2.0503937007874016
21
-2.4838582677165353
0
LINE
8
BLACK
6
CONTINUOUS
10
2.0503937007874016
20
-2.4838582677165353
11
2.0496145275590552
21
-2.4877755118110234
0
LINE
8
BLACK
6
CONTINUOUS
10
2.0496145275590552
20
-2.4877755118110234
11
2.0473955905511811
21
-2.491096377952756
0
LINE
8
BLACK
6
CONTINUOUS
10
2.0473955905511811
20
-2.491096377952756
11
2.0440747244094486
21
-2.49331531496063
0
LINE
8
BLACK
6
CONTINUOUS
10
2.0440747244094486
20
-2.49331531496063
11
2.0401574803149605
21
-2.4940944881889764
0
LINE
8
BLACK
6
CONTINUOUS
10
2.0401574803149605
20
-2.4940944881889764
11
1.9562992125984251
21
-2.4940944881889764
0
LINE
8
BLACK
6
CONTINUOUS
10
1.9562992125984251
20
-2.4940944881889764
11
1.952381968503937
21
-2.49331531496063
0
LINE
8
BLACK
6
CONTINUOUS
10
1.952381968503937
20
-2.49331531496063
11
1.9490611023622046
21
-2.491096377952756
0
LINE
8
BLACK
6
CONTINUOUS
10
1.9490611023622046
20
-2.491096377952756
11
1.9468421653543306
21
-2.4877755118110234
0
LINE
8
BLACK
6
CONTINUOUS
10
1.9468421653543306
20
-2.4877755118110234
11
1.9460629921259842
21
-2.4838582677165353
0
LINE
8
BLACK
6
CONTINUOUS
10
1.9460629921259842
20
-2.4838582677165353
11
1.9460629921259842
21
-2.4019685039370078
0
LINE
8
BLACK
6
CONTINUOUS
10
1.9460629921259842
20
-2.4019685039370078
11
1.9468421653543306
21
-2.3980512598425197
0
LINE
8
BLACK
6
CONTINUOUS
10
1.9468421653543306
20
-2.3980512598425197
11
1.9490611023622046
21
-2.3947303937007876
0
LINE
8
BLACK
6
CONTINUOUS
10
1.9490611023622046
20
-2.3947303937007876
11
1.952381968503937
21
-2.3925114566929135
0
LINE
8
BLACK
6
CONTINUOUS
10
1.952381968503937
20
-2.3925114566929135
11
1.9562992125984251
21
-2.3917322834645667
0
LINE
8
BLACK
6
CONTINUOUS
10
1.9562992125984251
20
-2.3917322834645667
11
2.0401574803149605
21
-2.3917322834645667
0
LINE
8
BLACK
6
CONTINUOUS
10
2.0401574803149605
20
-2.3917322834645667
11
2.0440747244094486
21
-2.3925114566929135
0
LINE
8
BLACK
6
CONTINUOUS
10
2.7527361417322833
20
-2.3925114566929135
11
2.7560570078740159
21
-2.3947303937007876
0
LINE
8
BLACK
6
CONTINUOUS
10
2.7560570078740159
20
-2.3947303937007876
11
2.7582759448818899
21
-2.3980512598425197
0
LINE
8
BLACK
6
CONTINUOUS
10
2.7582759448818899
20
-2.3980512598425197
11
2.7590551181102363
21
-2.4019685039370078
0
LINE
8
BLACK
6
CONTINUOUS
10
2.7590551181102363
20
-2.4019685039370078
11
2.7590551181102363
21
-2.4838582677165353
0
LINE
8
BLACK
6
CONTINUOUS
10
2.7590551181102363
20
-2.4838582677165353
11
2.7582759448818899
21
-2.4877755118110234
0
LINE
8
BLACK
6
CONTINUOUS
10
2.7582759448818899
20
-2.4877755118110234
11
2.7560570078740159
21
-2.491096377952756
0
LINE
8
BLACK
6
CONTINUOUS
10
2.7560570078740159
20
-2.491096377952756
11
2.7527361417322833
21
-2.49331531496063
0
LINE
8
BLACK
6
CONTINUOUS
10
2.7527361417322833
20
-2.49331531496063
11
2.7488188976377952
21
-2.4940944881889764
0
LINE
8
BLACK
6
CONTINUOUS
10
2.7488188976377952
20
-2.4940944881889764
11
2.6649606299212598
21
-2.4940944881889764
0
LINE
8
BLACK
6
CONTINUOUS
10
2.6649606299212598
20
-2.4940944881889764
11
2.6610433858267717
21
-2.49331531496063
0
LINE
8
BLACK
6
CONTINUOUS
10
2.6610433858267717
20
-2.49331531496063
11
2.6577225196850391
21
-2.491096377952756
0
LINE
8
BLACK
6
CONTINUOUS
10
2.6577225196850391
20
-2.491096377952756
11
2.6555035826771651
21
-2.4877755118110234
0
LINE
8
BLACK
6
CONTINUOUS
10
2.6555035826771651
20
-2.4877755118110234
11
2.6547244094488187
21
-2.4838582677165353
0
LINE
8
BLACK
6
CONTINUOUS
10
2.6547244094488187
20
-2.4838582677165353
11
2.6547244094488187
21
-2.4019685039370078
0
LINE
8
BLACK
6
CONTINUOUS
10
2.6547244094488187
20
-2.4019685039370078
11
2.6555035826771651
21
-2.3980512598425197
0
LINE
8
BLACK
6
CONTINUOUS
10
2.6555035826771651
20
-2.3980512598425197
11
2.6577225196850391
21
-2.3947303937007876
0
LINE
8
BLACK
6
CONTINUOUS
10
2.6577225196850391
20
-2.3947303937007876
11
2.6610433858267717
21
-2.3925114566929135
0
LINE
8
BLACK
6
CONTINUOUS
10
2.6610433858267717
20
-2.3925114566929135
11
2.6649606299212598
21
-2.3917322834645667
0
LINE
8
BLACK
6
CONTINUOUS
10
2.6649606299212598
20
-2.3917322834645667
11
2.7488188976377952
21
-2.3917322834645667
0
LINE
8
BLACK
6
CONTINUOUS
10
2.7488188976377952
20
-2.3917322834645667
11
2.7527361417322833
21
-2.3925114566929135
0
LINE
8
BLACK
6
CONTINUOUS
10
3.461397559055118
20
-2.3925114566929135
11
3.4647184251968501
21
-2.3947303937007876
0
LINE
8
BLACK
6
CONTINUOUS
10
3.4647184251968501
20
-2.3947303937007876
11
3.4669373622047241
21
-2.3980512598425197
0
LINE
8
BLACK
6
CONTINUOUS
10
3.4669373622047241
20
-2.3980512598425197
11
3.4677165354330706
21
-2.4019685039370078
0
LINE
8
BLACK
6
CONTINUOUS
10
3.4677165354330706
20
-2.4019685039370078
11
3.4677165354330706
21
-2.4838582677165353
0
LINE
8
BLACK
6
CONTINUOUS
10
3.4677165354330706
20
-2.4838582677165353
11
3.4669373622047241
21
-2.4877755118110234
0
LINE
8
BLACK
6
CONTINUOUS
10
3.4669373622047241
20
-2.4877755118110234
11
3.4647184251968501
21
-2.491096377952756
0
LINE
8
BLACK
6
CONTINUOUS
10
3.4647184251968501
20
-2.491096377952756
11
3.461397559055118
21
-2.49331531496063
0
LINE
8
BLACK
6
CONTINUOUS
10
3.461397559055118
20
-2.49331531496063
11
3.4574803149606299
21
-2.4940944881889764
0
LINE
8
BLACK
6
CONTINUOUS
10
3.4574803149606299
20
-2.4940944881889764
11
3.3736220472440945
21
-2.4940944881889764
0
LINE
8
BLACK
6
CONTINUOUS
10
3.3736220472440945
20
-2.4940944881889764
11
3.3697048031496064
21
-2.49331531496063
0
LINE
8
BLACK
6
CONTINUOUS
10
3.3697048031496064
20
-2.49331531496063
11
3.3663839370078739
21
-2.491096377952756
0
LINE
8
BLACK
6
CONTINUOUS
10
3.3663839370078739
20
-2.491096377952756
11
3.3641649999999998
21
-2.4877755118110234
0
LINE
8
BLACK
6
CONTINUOUS
10
3.3641649999999998
20
-2.4877755118110234
11
3.3633858267716534
21
-2.4838582677165353
0
LINE
8
BLACK
6
CONTINUOUS
10
3.3633858267716534
20
-2.4838582677165353
11
3.3633858267716534
21
-2.4019685039370078
0
LINE
8
BLACK
6
CONTINUOUS
10
3.3633858267716534
20
-2.4019685039370078
11
3.3641649999999998
21
-2.3980512598425197
0
LINE
8
BLACK
6
CONTINUOUS
10
3.3641649999999998
20
-2.3980512598425197
11
3.3663839370078739
21
-2.3947303937007876
0
LINE
8
BLACK
6
CONTINUOUS
10
3.3663839370078739
20
-2.3947303937007876
11
3.3697048031496064
21
-2.3925114566929135
0
LINE
8
BLACK
6
CONTINUOUS
10
3.3697048031496064
20
-2.3925114566929135
11
3.3736220472440945
21
-2.3917322834645667
0
LINE
8
BLACK
6
CONTINUOUS
10
3.3736220472440945
20
-2.3917322834645667
11
3.4574803149606299
21
-2.3917322834645667
0
LINE
8
BLACK
6
CONTINUOUS
10
3.4574803149606299
20
-2.3917322834645667
11
3.461397559055118
21
-2.3925114566929135
0
LINE
8
BLACK
6
CONTINUOUS
10
1.3173662992125983
20
-2.0833514566929132
11
1.3202401181102361
21
-2.0852716929133859
0
LINE
8
BLACK
6
CONTINUOUS
10
1.3202401181102361
20
-2.0852716929133859
11
1.3221603543307086
21
-2.0881455118110237
0
LINE
8
BLACK
6
CONTINUOUS
10
1.3221603543307086
20
-2.0881455118110237
11
1.3228346456692912
21
-2.0915354330708662
0
LINE
8
BLACK
6
CONTINUOUS
10
1.3228346456692912
20
-2.0915354330708662
11
1.3228346456692912
21
-2.109251968503937
0
LINE
8
BLACK
6
CONTINUOUS
10
1.3228346456692912
20
-2.109251968503937
11
1.3221603543307086
21
-2.1126418897637795
0
LINE
8
BLACK
6
CONTINUOUS
10
1.3221603543307086
20
-2.1126418897637795
11
1.3202401181102361
21
-2.1155157086614174
0
LINE
8
BLACK
6
CONTINUOUS
10
1.3202401181102361
20
-2.1155157086614174
11
1.3173662992125983
21
-2.1174359448818896
0
LINE
8
BLACK
6
CONTINUOUS
10
1.3173662992125983
20
-2.1174359448818896
11
1.3139763779527558
21
-2.1181102362204722
0
LINE
8
BLACK
6
CONTINUOUS
10
1.3139763779527558
20
-2.1181102362204722
11
1.2844488188976377
21
-2.1181102362204722
0
LINE
8
BLACK
6
CONTINUOUS
10
1.2844488188976377
20
-2.1181102362204722
11
1.2810588976377952
21
-2.1174359448818896
0
LINE
8
BLACK
6
CONTINUOUS
10
1.2810588976377952
20
-2.1174359448818896
11
1.2781850787401574
21
-2.1155157086614174
0
LINE
8
BLACK
6
CONTINUOUS
10
1.2781850787401574
20
-2.1155157086614174
11
1.276264842519685
21
-2.1126418897637795
0
LINE
8
BLACK
6
CONTINUOUS
10
1.276264842519685
20
-2.1126418897637795
11
1.2755905511811023
21
-2.109251968503937
0
LINE
8
BLACK
6
CONTINUOUS
10
1.2755905511811023
20
-2.109251968503937
11
1.2755905511811023
21
-2.0915354330708662
0
LINE
8
BLACK
6
CONTINUOUS
10
1.2755905511811023
20
-2.0915354330708662
11
1.276264842519685
21
-2.0881455118110237
0
LINE
8
BLACK
6
CONTINUOUS
10
1.276264842519685
20
-2.0881455118110237
11
1.2781850787401574
21
-2.0852716929133859
0
LINE
8
BLACK
6
CONTINUOUS
10
1.2781850787401574
20
-2.0852716929133859
11
1.2810588976377952
21
-2.0833514566929132
0
LINE
8
BLACK
6
CONTINUOUS
10
1.2810588976377952
20
-2.0833514566929132
11
1.2844488188976377
21
-2.0826771653543306
0
LINE
8
BLACK
6
CONTINUOUS
10
1.2844488188976377
20
-2.0826771653543306
11
1.3139763779527558
21
-2.0826771653543306
0
LINE
8
BLACK
6
CONTINUOUS
10
1.3139763779527558
20
-2.0826771653543306
11
1.3173662992125983
21
-2.0833514566929132
0
LINE
8
BLACK
6
CONTINUOUS
10
2.0260277165354332
20
-2.0833514566929132
11
2.0289015354330706
21
-2.0852716929133859
0
LINE
8
BLACK
6
CONTINUOUS
10
2.0289015354330706
20
-2.0852716929133859
11
2.0308217716535433
21
-2.0881455118110237
0
LINE
8
BLACK
6
CONTINUOUS
10
2.0308217716535433
20
-2.0881455118110237
11
2.0314960629921259
21
-2.0915354330708662
0
LINE
8
BLACK
6
CONTINUOUS
10
2.0314960629921259
20
-2.0915354330708662
11
2.0314960629921259
21
-2.109251968503937
0
LINE
8
BLACK
6
CONTINUOUS
10
2.0314960629921259
20
-2.109251968503937
11
2.0308217716535433
21
-2.1126418897637795
0
LINE
8
BLACK
6
CONTINUOUS
10
2.0308217716535433
20
-2.1126418897637795
11
2.0289015354330706
21
-2.1155157086614174
0
LINE
8
BLACK
6
CONTINUOUS
10
2.0289015354330706
20
-2.1155157086614174
11
2.0260277165354332
21
-2.1174359448818896
0
LINE
8
BLACK
6
CONTINUOUS
10
2.0260277165354332
20
-2.1174359448818896
11
2.0226377952755903
21
-2.1181102362204722
0
LINE
8
BLACK
6
CONTINUOUS
10
2.0226377952755903
20
-2.1181102362204722
11
1.9931102362204725
21
-2.1181102362204722
0
LINE
8
BLACK
6
CONTINUOUS
10
1.9931102362204725
20
-2.1181102362204722
11
1.98972031496063
21
-2.1174359448818896
0
LINE
8
BLACK
6
CONTINUOUS
10
1.98972031496063
20
-2.1174359448818896
11
1.9868464960629921
21
-2.1155157086614174
0
LINE
8
BLACK
6
CONTINUOUS
10
1.9868464960629921
20
-2.1155157086614174
11
1.9849262598425197
21
-2.1126418897637795
0
LINE
8
BLACK
6
CONTINUOUS
10
1.9849262598425197
20
-2.1126418897637795
11
1.984251968503937
21
-2.109251968503937
0
LINE
8
BLACK
6
CONTINUOUS
10
1.984251968503937
20
-2.109251968503937
11
1.984251968503937
21
-2.0915354330708662
0
LINE
8
BLACK
6
CONTINUOUS
10
1.984251968503937
20
-2.0915354330708662
11
1.9849262598425197
21
-2.0881455118110237
0
LINE
8
BLACK
6
CONTINUOUS
10
1.9849262598425197
20
-2.0881455118110237
11
1.9868464960629921
21
-2.0852716929133859
0
LINE
8
BLACK
6
CONTINUOUS
10
1.9868464960629921
20
-2.0852716929133859
11
1.98972031496063
21
-2.0833514566929132
0
LINE
8
BLACK
6
CONTINUOUS
10
1.98972031496063
20
-2.0833514566929132
11
1.9931102362204725
21
-2.0826771653543306
0
LINE
8
BLACK
6
CONTINUOUS
10
1.9931102362204725
20
-2.0826771653543306
11
2.0226377952755903
21
-2.0826771653543306
0
LINE
8
BLACK
6
CONTINUOUS
10
2.0226377952755903
20
-2.0826771653543306
11
2.0260277165354332
21
-2.0833514566929132
0
LINE
8
BLACK
6
CONTINUOUS
10
2.7346891338582675
20
-2.0833514566929132
11
2.7375629527559053
21
-2.0852716929133859
0
LINE
8
BLACK
6
CONTINUOUS
10
2.7375629527559053
20
-2.0852716929133859
11
2.739483188976378
21
-2.0881455118110237
0
LINE
8
BLACK
6
CONTINUOUS
10
2.739483188976378
20
-2.0881455118110237
11
2.7401574803149606
21
-2.0915354330708662
0
LINE
8
BLACK
6
CONTINUOUS
10
2.7401574803149606
20
-2.0915354330708662
11
2.7401574803149606
21
-2.109251968503937
0
LINE
8
BLACK
6
CONTINUOUS
10
2.7401574803149606
20
-2.109251968503937
11
2.739483188976378
21
-2.1126418897637795
0
LINE
8
BLACK
6
CONTINUOUS
10
2.739483188976378
20
-2.1126418897637795
11
2.7375629527559053
21
-2.1155157086614174
0
LINE
8
BLACK
6
CONTINUOUS
10
2.7375629527559053
20
-2.1155157086614174
11
2.7346891338582675
21
-2.1174359448818896
0
LINE
8
BLACK
6
CONTINUOUS
10
2.7346891338582675
20
-2.1174359448818896
11
2.731299212598425
21
-2.1181102362204722
0
LINE
8
BLACK
6
CONTINUOUS
10
2.731299212598425
20
-2.1181102362204722
11
2.701771653543307
21
-2.1181102362204722
0
LINE
8
BLACK
6
CONTINUOUS
10
2.701771653543307
20
-2.1181102362204722
11
2.6983817322834645
21
-2.1174359448818896
0
LINE
8
BLACK
6
CONTINUOUS
10
2.6983817322834645
20
-2.1174359448818896
11
2.6955079133858266
21
-2.1155157086614174
0
LINE
8
BLACK
6
CONTINUOUS
10
2.6955079133858266
20
-2.1155157086614174
11
2.6935876771653544
21
-2.1126418897637795
0
LINE
8
BLACK
6
CONTINUOUS
10
2.6935876771653544
20
-2.1126418897637795
11
2.6929133858267718
21
-2.109251968503937
0
LINE
8
BLACK
6
CONTINUOUS
10
2.6929133858267718
20
-2.109251968503937
11
2.6929133858267718
21
-2.0915354330708662
0
LINE
8
BLACK
6
CONTINUOUS
10
2.6929133858267718
20
-2.0915354330708662
11
2.6935876771653544
21
-2.0881455118110237
0
LINE
8
BLACK
6
CONTINUOUS
10
2.6935876771653544
20
-2.0881455118110237
11
2.6955079133858266
21
-2.0852716929133859
0
LINE
8
BLACK
6
CONTINUOUS
10
2.6955079133858266
20
-2.0852716929133859
11
2.6983817322834645
21
-2.0833514566929132
0
LINE
8
BLACK
6
CONTINUOUS
10
2.6983817322834645
20
-2.0833514566929132
11
2.701771653543307
21
-2.0826771653543306
0
LINE
8
BLACK
6
CONTINUOUS
10
2.701771653543307
20
-2.0826771653543306
11
2.731299212598425
21
-2.0826771653543306
0
LINE
8
BLACK
6
CONTINUOUS
10
2.731299212598425
20
-2.0826771653543306
11
2.7346891338582675
21
-2.0833514566929132
0
LINE
8
BLACK
6
CONTINUOUS
10
3.4433505511811022
20
-2.0833514566929132
11
3.4462243700787401
21
-2.0852716929133859
0
LINE
8
BLACK
6
CONTINUOUS
10
3.4462243700787401
20
-2.0852716929133859
11
3.4481446062992127
21
-2.0881455118110237
0
LINE
8
BLACK
6
CONTINUOUS
10
3.4481446062992127
20
-2.0881455118110237
11
3.4488188976377954
21
-2.0915354330708662
0
LINE
8
BLACK
6
CONTINUOUS
10
3.4488188976377954
20
-2.0915354330708662
11
3.4488188976377954
21
-2.109251968503937
0
LINE
8
BLACK
6
CONTINUOUS
10
3.4488188976377954
20
-2.109251968503937
11
3.4481446062992127
21
-2.1126418897637795
0
LINE
8
BLACK
6
CONTINUOUS
10
3.4481446062992127
20
-2.1126418897637795
11
3.4462243700787401
21
-2.1155157086614174
0
LINE
8
BLACK
6
CONTINUOUS
10
3.4462243700787401
20
-2.1155157086614174
11
3.4433505511811022
21
-2.1174359448818896
0
LINE
8
BLACK
6
CONTINUOUS
10
3.4433505511811022
20
-2.1174359448818896
11
3.4399606299212597
21
-2.1181102362204722
0
LINE
8
BLACK
6
CONTINUOUS
10
3.4399606299212597
20
-2.1181102362204722
11
3.4104330708661417
21
-2.1181102362204722
0
LINE
8
BLACK
6
CONTINUOUS
10
3.4104330708661417
20
-2.1181102362204722
11
3.4070431496062992
21
-2.1174359448818896
0
LINE
8
BLACK
6
CONTINUOUS
10
3.4070431496062992
20
-2.1174359448818896
11
3.4041693307086613
21
-2.1155157086614174
0
LINE
8
BLACK
6
CONTINUOUS
10
3.4041693307086613
20
-2.1155157086614174
11
3.4022490944881887
21
-2.1126418897637795
0
LINE
8
BLACK
6
CONTINUOUS
10
3.4022490944881887
20
-2.1126418897637795
11
3.401574803149606
21
-2.109251968503937
0
LINE
8
BLACK
6
CONTINUOUS
10
3.401574803149606
20
-2.109251968503937
11
3.401574803149606
21
-2.0915354330708662
0
LINE
8
BLACK
6
CONTINUOUS
10
3.401574803149606
20
-2.0915354330708662
11
3.4022490944881887
21
-2.0881455118110237
0
LINE
8
BLACK
6
CONTINUOUS
10
3.4022490944881887
20
-2.0881455118110237
11
3.4041693307086613
21
-2.0852716929133859
0
LINE
8
BLACK
6
CONTINUOUS
10
3.4041693307086613
20
-2.0852716929133859
11
3.4070431496062992
21
-2.0833514566929132
0
LINE
8
BLACK
6
CONTINUOUS
10
3.4070431496062992
20
-2.0833514566929132
11
3.4104330708661417
21
-2.0826771653543306
0
LINE
8
BLACK
6
CONTINUOUS
10
3.4104330708661417
20
-2.0826771653543306
11
3.4399606299212597
21
-2.0826771653543306
0
LINE
8
BLACK
6
CONTINUOUS
10
3.4399606299212597
20
-2.0826771653543306
11
3.4433505511811022
21
-2.0833514566929132
0
LINE
8
BLACK
6
CONTINUOUS
10
1.3173662992125983
20
-1.9534301968503938
11
1.3202401181102361
21
-1.9553504330708662
0
LINE
8
BLACK
6
CONTINUOUS
10
1.3202401181102361
20
-1.9553504330708662
11
1.3221603543307086
21
-1.9582242519685038
0
LINE
8
BLACK
6
CONTINUOUS
10
1.3221603543307086
20
-1.9582242519685038
11
1.3228346456692912
21
-1.9616141732283463
0
LINE
8
BLACK
6
CONTINUOUS
10
1.3228346456692912
20
-1.9616141732283463
11
1.3228346456692912
21
-1.9793307086614174
0
LINE
8
BLACK
6
CONTINUOUS
10
1.3228346456692912
20
-1.9793307086614174
11
1.3221603543307086
21
-1.9827206299212599
0
LINE
8
BLACK
6
CONTINUOUS
10
1.3221603543307086
20
-1.9827206299212599
11
1.3202401181102361
21
-1.9855944488188977
0
LINE
8
BLACK
6
CONTINUOUS
10
1.3202401181102361
20
-1.9855944488188977
11
1.3173662992125983
21
-1.9875146850393701
0
LINE
8
BLACK
6
CONTINUOUS
10
1.3173662992125983
20
-1.9875146850393701
11
1.3139763779527558
21
-1.9881889763779528
0
LINE
8
BLACK
6
CONTINUOUS
10
1.3139763779527558
20
-1.9881889763779528
11
1.2844488188976377
21
-1.9881889763779528
0
LINE
8
BLACK
6
CONTINUOUS
10
1.2844488188976377
20
-1.9881889763779528
11
1.2810588976377952
21
-1.9875146850393701
0
LINE
8
BLACK
6
CONTINUOUS
10
1.2810588976377952
20
-1.9875146850393701
11
1.2781850787401574
21
-1.9855944488188977
0
LINE
8
BLACK
6
CONTINUOUS
10
1.2781850787401574
20
-1.9855944488188977
11
1.276264842519685
21
-1.9827206299212599
0
LINE
8
BLACK
6
CONTINUOUS
10
1.276264842519685
20
-1.9827206299212599
11
1.2755905511811023
21
-1.9793307086614174
0
LINE
8
BLACK
6
CONTINUOUS
10
1.2755905511811023
20
-1.9793307086614174
11
1.2755905511811023
21
-1.9616141732283463
0
LINE
8
BLACK
6
CONTINUOUS
10
1.2755905511811023
20
-1.9616141732283463
11
1.276264842519685
21
-1.9582242519685038
0
LINE
8
BLACK
6
CONTINUOUS
10
1.276264842519685
20
-1.9582242519685038
11
1.2781850787401574
21
-1.9553504330708662
0
LINE
8
BLACK
6
CONTINUOUS
10
1.2781850787401574
20
-1.9553504330708662
11
1.2810588976377952
21
-1.9534301968503938
0
LINE
8
BLACK
6
CONTINUOUS
10
1.2810588976377952
20
-1.9534301968503938
11
1.2844488188976377
21
-1.9527559055118109
0
LINE
8
BLACK
6
CONTINUOUS
10
1.2844488188976377
20
-1.9527559055118109
11
1.3139763779527558
21
-1.9527559055118109
0
LINE
8
BLACK
6
CONTINUOUS
10
1.3139763779527558
20
-1.9527559055118109
11
1.3173662992125983
21
-1.9534301968503938
0
LINE
8
BLACK
6
CONTINUOUS
10
2.0260277165354332
20
-1.9534301968503938
11
2.0289015354330706
21
-1.9553504330708662
0
LINE
8
BLACK
6
CONTINUOUS
10
2.0289015354330706
20
-1.9553504330708662
11
2.0308217716535433
21
-1.9582242519685038
0
LINE
8
BLACK
6
CONTINUOUS
10
2.0308217716535433
20
-1.9582242519685038
11
2.0314960629921259
21
-1.9616141732283463
0
LINE
8
BLACK
6
CONTINUOUS
10
2.0314960629921259
20
-1.9616141732283463
11
2.0314960629921259
21
-1.9793307086614174
0
LINE
8
BLACK
6
CONTINUOUS
10
2.0314960629921259
20
-1.9793307086614174
11
2.0308217716535433
21
-1.9827206299212599
0
LINE
8
BLACK
6
CONTINUOUS
10
2.0308217716535433
20
-1.9827206299212599
11
2.0289015354330706
21
-1.9855944488188977
0
LINE
8
BLACK
6
CONTINUOUS
10
2.0289015354330706
20
-1.9855944488188977
11
2.0260277165354332
21
-1.9875146850393701
0
LINE
8
BLACK
6
CONTINUOUS
10
2.0260277165354332
20
-1.9875146850393701
11
2.0226377952755903
21
-1.9881889763779528
0
LINE
8
BLACK
6
CONTINUOUS
10
2.0226377952755903
20
-1.9881889763779528
11
1.9931102362204725
21
-1.9881889763779528
0
LINE
8
BLACK
6
CONTINUOUS
10
1.9931102362204725
20
-1.9881889763779528
11
1.98972031496063
21
-1.9875146850393701
0
LINE
8
BLACK
6
CONTINUOUS
10
1.98972031496063
20
-1.9875146850393701
11
1.9868464960629921
21
-1.9855944488188977
0
LINE
8
BLACK
6
CONTINUOUS
10
1.9868464960629921
20
-1.9855944488188977
11
1.9849262598425197
21
-1.9827206299212599
0
LINE
8
BLACK
6
CONTINUOUS
10
1.9849262598425197
20
-1.9827206299212599
11
1.984251968503937
21
-1.9793307086614174
0
LINE
8
BLACK
6
CONTINUOUS
10
1.984251968503937
20
-1.9793307086614174
11
1.984251968503937
21
-1.9616141732283463
0
LINE
8
BLACK
6
CONTINUOUS
10
1.984251968503937
20
-1.9616141732283463
11
1.9849262598425197
21
-1.9582242519685038
0
LINE
8
BLACK
6
CONTINUOUS
10
1.9849262598425197
20
-1.9582242519685038
11
1.9868464960629921
21
-1.9553504330708662
0
LINE
8
BLACK
6
CONTINUOUS
10
1.9868464960629921
20
-1.9553504330708662
11
1.98972031496063
21
-1.9534301968503938
0
LINE
8
BLACK
6
CONTINUOUS
10
1.98972031496063
20
-1.9534301968503938
11
1.9931102362204725
21
-1.9527559055118109
0
LINE
8
BLACK
6
CONTINUOUS
10
1.9931102362204725
20
-1.9527559055118109
11
2.0226377952755903
21
-1.9527559055118109
0
LINE
8
BLACK
6
CONTINUOUS
10
2.0226377952755903
20
-1.9527559055118109
11
2.0260277165354332
21
-1.9534301968503938
0
LINE
8
BLACK
6
CONTINUOUS
10
2.7346891338582675
20
-1.9534301968503938
11
2.7375629527559053
21
-1.9553504330708662
0
LINE
8
BLACK
6
CONTINUOUS
10
2.7375629527559053
20
-1.9553504330708662
11
2.739483188976378
21
-1.9582242519685038
0
LINE
8
BLACK
6
CONTINUOUS
10
2.739483188976378
20
-1.9582242519685038
11
2.7401574803149606
21
-1.9616141732283463
0
LINE
8
BLACK
6
CONTINUOUS
10
2.7401574803149606
20
-1.9616141732283463
11
2.7401574803149606
21
-1.9793307086614174
0
LINE
8
BLACK
6
CONTINUOUS
10
2.7401574803149606
20
-1.9793307086614174
11
2.739483188976378
21
-1.9827206299212599
0
LINE
8
BLACK
6
CONTINUOUS
10
2.739483188976378
20
-1.9827206299212599
11
2.7375629527559053
21
-1.9855944488188977
0
LINE
8
BLACK
6
CONTINUOUS
10
2.7375629527559053
20
-1.9855944488188977
11
2.7346891338582675
21
-1.9875146850393701
0
LINE
8
BLACK
6
CONTINUOUS
10
2.7346891338582675
20
-1.9875146850393701
11
2.731299212598425
21
-1.9881889763779528
0
LINE
8
BLACK
6
CONTINUOUS
10
2.731299212598425
20
-1.9881889763779528
11
2.701771653543307
21
-1.9881889763779528
0
LINE
8
BLACK
6
CONTINUOUS
10
2.701771653543307
20
-1.9881889763779528
11
2.6983817322834645
21
-1.9875146850393701
0
LINE
8
BLACK
6
CONTINUOUS
10
2.6983817322834645
20
-1.9875146850393701
11
2.6955079133858266
21
-1.9855944488188977
0
LINE
8
BLACK
6
CONTINUOUS
10
2.6955079133858266
20
-1.9855944488188977
11
2.6935876771653544
21
-1.9827206299212599
0
LINE
8
BLACK
6
CONTINUOUS
10
2.6935876771653544
20
-1.9827206299212599
11
2.6929133858267718
21
-1.9793307086614174
0
LINE
8
BLACK
6
CONTINUOUS
10
2.6929133858267718
20
-1.9793307086614174
11
2.6929133858267718
21
-1.9616141732283463
0
LINE
8
BLACK
6
CONTINUOUS
10
2.6929133858267718
20
-1.9616141732283463
11
2.6935876771653544
21
-1.9582242519685038
0
LINE
8
BLACK
6
CONTINUOUS
10
2.6935876771653544
20
-1.9582242519685038
11
2.6955079133858266
21
-1.9553504330708662
0
LINE
8
BLACK
6
CONTINUOUS
10
2.6955079133858266
20
-1.9553504330708662
11
2.6983817322834645
21
-1.9534301968503938
0
LINE
8
BLACK
6
CONTINUOUS
10
2.6983817322834645
20
-1.9534301968503938
11
2.701771653543307
21
-1.9527559055118109
0
LINE
8
BLACK
6
CONTINUOUS
10
2.701771653543307
20
-1.9527559055118109
11
2.731299212598425
21
-1.9527559055118109
0
LINE
8
BLACK
6
CONTINUOUS
10
2.731299212598425
20
-1.9527559055118109
11
2.7346891338582675
21
-1.9534301968503938
0
LINE
8
BLACK
6
CONTINUOUS
10
3.4433505511811022
20
-1.9534301968503938
11
3.4462243700787401
21
-1.9553504330708662
0
LINE
8
BLACK
6
CONTINUOUS
10
3.4462243700787401
20
-1.9553504330708662
11
3.4481446062992127
21
-1.9582242519685038
0
LINE
8
BLACK
6
CONTINUOUS
10
3.4481446062992127
20
-1.9582242519685038
11
3.4488188976377954
21
-1.9616141732283463
0
LINE
8
BLACK
6
CONTINUOUS
10
3.4488188976377954
20
-1.9616141732283463
11
3.4488188976377954
21
-1.9793307086614174
0
LINE
8
BLACK
6
CONTINUOUS
10
3.4488188976377954
20
-1.9793307086614174
11
3.4481446062992127
21
-1.9827206299212599
0
LINE
8
BLACK
6
CONTINUOUS
10
3.4481446062992127
20
-1.9827206299212599
11
3.4462243700787401
21
-1.9855944488188977
0
LINE
8
BLACK
6
CONTINUOUS
10
3.4462243700787401
20
-1.9855944488188977
11
3.4433505511811022
21
-1.9875146850393701
0
LINE
8
BLACK
6
CONTINUOUS
10
3.4433505511811022
20
-1.9875146850393701
11
3.4399606299212597
21
-1.9881889763779528
0
LINE
8
BLACK
6
CONTINUOUS
10
3.4399606299212597
20
-1.9881889763779528
11
3.4104330708661417
21
-1.9881889763779528
0
LINE
8
BLACK
6
CONTINUOUS
10
3.4104330708661417
20
-1.9881889763779528
11
3.4070431496062992
21
-1.9875146850393701
0
LINE
8
BLACK
6
CONTINUOUS
10
3.4070431496062992
20
-1.9875146850393701
11
3.4041693307086613
21
-1.9855944488188977
0
LINE
8
BLACK
6
CONTINUOUS
10
3.4041693307086613
20
-1.9855944488188977
11
3.4022490944881887
21
-1.9827206299212599
0
LINE
8
BLACK
6
CONTINUOUS
10
3.4022490944881887
20
-1.9827206299212599
11
3.401574803149606
21
-1.9793307086614174
0
LINE
8
BLACK
6
CONTINUOUS
10
3.401574803149606
20
-1.9793307086614174
11
3.401574803149606
21
-1.9616141732283463
0
LINE
8
BLACK
6
CONTINUOUS
10
3.401574803149606
20
-1.9616141732283463
11
3.4022490944881887
21
-1.9582242519685038
0
LINE
8
BLACK
6
CONTINUOUS
10
3.4022490944881887
20
-1.9582242519685038
11
3.4041693307086613
21
-1.9553504330708662
0
LINE
8
BLACK
6
CONTINUOUS
10
3.4041693307086613
20
-1.9553504330708662
11
3.4070431496062992
21
-1.9534301968503938
0
LINE
8
BLACK
6
CONTINUOUS
10
3.4070431496062992
20
-1.9534301968503938
11
3.4104330708661417
21
-1.9527559055118109
0
LINE
8
BLACK
6
CONTINUOUS
10
3.4104330708661417
20
-1.9527559055118109
11
3.4399606299212597
21
-1.9527559055118109
0
LINE
8
BLACK
6
CONTINUOUS
10
3.4399606299212597
20
-1.9527559055118109
11
3.4433505511811022
21
-1.9534301968503938
0
LINE
8
BLACK
6
CONTINUOUS
10
1.7877755118110237
20
-1.8098342913385825
11
1.7910963779527558
21
-1.8120532283464565
0
LINE
8
BLACK
6
CONTINUOUS
10
1.7910963779527558
20
-1.8120532283464565
11
1.7933153149606298
21
-1.8153740944881889
0
LINE
8
BLACK
6
CONTINUOUS
10
1.7933153149606298
20
-1.8153740944881889
11
1.7940944881889764
21
-1.8192913385826772
0
LINE
8
BLACK
6
CONTINUOUS
10
1.7940944881889764
20
-1.8192913385826772
11
1.7940944881889764
21
-1.9011811023622047
0
LINE
8
BLACK
6
CONTINUOUS
10
1.7940944881889764
20
-1.9011811023622047
11
1.7933153149606298
21
-1.9050983464566928
0
LINE
8
BLACK
6
CONTINUOUS
10
1.7933153149606298
20
-1.9050983464566928
11
1.7910963779527558
21
-1.9084192125984252
0
LINE
8
BLACK
6
CONTINUOUS
10
1.7910963779527558
20
-1.9084192125984252
11
1.7877755118110237
21
-1.9106381496062992
0
LINE
8
BLACK
6
CONTINUOUS
10
1.7877755118110237
20
-1.9106381496062992
11
1.7838582677165353
21
-1.9114173228346456
0
LINE
8
BLACK
6
CONTINUOUS
10
1.7838582677165353
20
-1.9114173228346456
11
1.7
21
-1.9114173228346456
0
LINE
8
BLACK
6
CONTINUOUS
10
1.7
20
-1.9114173228346456
11
1.6960827559055118
21
-1.9106381496062992
0
LINE
8
BLACK
6
CONTINUOUS
10
1.6960827559055118
20
-1.9106381496062992
11
1.6927618897637795
21
-1.9084192125984252
0
LINE
8
BLACK
6
CONTINUOUS
10
1.6927618897637795
20
-1.9084192125984252
11
1.6905429527559055
21
-1.9050983464566928
0
LINE
8
BLACK
6
CONTINUOUS
10
1.6905429527559055
20
-1.9050983464566928
11
1.6897637795275591
21
-1.9011811023622047
0
LINE
8
BLACK
6
CONTINUOUS
10
1.6897637795275591
20
-1.9011811023622047
11
1.6897637795275591
21
-1.8192913385826772
0
LINE
8
BLACK
6
CONTINUOUS
10
1.6897637795275591
20
-1.8192913385826772
11
1.6905429527559055
21
-1.8153740944881889
0
LINE
8
BLACK
6
CONTINUOUS
10
1.6905429527559055
20
-1.8153740944881889
11
1.6927618897637795
21
-1.8120532283464565
0
LINE
8
BLACK
6
CONTINUOUS
10
1.6927618897637795
20
-1.8120532283464565
11
1.6960827559055118
21
-1.8098342913385825
0
LINE
8
BLACK
6
CONTINUOUS
10
1.6960827559055118
20
-1.8098342913385825
11
1.7
21
-1.8090551181102361
0
LINE
8
BLACK
6
CONTINUOUS
10
1.7
20
-1.8090551181102361
11
1.7838582677165353
21
-1.8090551181102361
0
LINE
8
BLACK
6
CONTINUOUS
10
1.7838582677165353
20
-1.8090551181102361
11
1.7877755118110237
21
-1.8098342913385825
0
LINE
8
BLACK
6
CONTINUOUS
10
2.4964369291338584
20
-1.8098342913385825
11
2.4997577952755905
21
-1.8120532283464565
0
LINE
8
BLACK
6
CONTINUOUS
10
2.4997577952755905
20
-1.8120532283464565
11
2.5019767322834645
21
-1.8153740944881889
0
LINE
8
BLACK
6
CONTINUOUS
10
2.5019767322834645
20
-1.8153740944881889
11
2.5027559055118109
21
-1.8192913385826772
0
LINE
8
BLACK
6
CONTINUOUS
10
2.5027559055118109
20
-1.8192913385826772
11
2.5027559055118109
21
-1.9011811023622047
0
LINE
8
BLACK
6
CONTINUOUS
10
2.5027559055118109
20
-1.9011811023622047
11
2.5019767322834645
21
-1.9050983464566928
0
LINE
8
BLACK
6
CONTINUOUS
10
2.5019767322834645
20
-1.9050983464566928
11
2.4997577952755905
21
-1.9084192125984252
0
LINE
8
BLACK
6
CONTINUOUS
10
2.4997577952755905
20
-1.9084192125984252
11
2.4964369291338584
21
-1.9106381496062992
0
LINE
8
BLACK
6
CONTINUOUS
10
2.4964369291338584
20
-1.9106381496062992
11
2.4925196850393698
21
-1.9114173228346456
0
LINE
8
BLACK
6
CONTINUOUS
10
2.4925196850393698
20
-1.9114173228346456
11
2.4086614173228345
21
-1.9114173228346456
0
LINE
8
BLACK
6
CONTINUOUS
10
2.4086614173228345
20
-1.9114173228346456
11
2.4047441732283463
21
-1.9106381496062992
0
LINE
8
BLACK
6
CONTINUOUS
10
2.4047441732283463
20
-1.9106381496062992
11
2.4014233070866142
21
-1.9084192125984252
0
LINE
8
BLACK
6
CONTINUOUS
10
2.4014233070866142
20
-1.9084192125984252
11
2.3992043700787402
21
-1.9050983464566928
0
LINE
8
BLACK
6
CONTINUOUS
10
2.3992043700787402
20
-1.9050983464566928
11
2.3984251968503938
21
-1.9011811023622047
0
LINE
8
BLACK
6
CONTINUOUS
10
2.3984251968503938
20
-1.9011811023622047
11
2.3984251968503938
21
-1.8192913385826772
0
LINE
8
BLACK
6
CONTINUOUS
10
2.3984251968503938
20
-1.8192913385826772
11
2.3992043700787402
21
-1.8153740944881889
0
LINE
8
BLACK
6
CONTINUOUS
10
2.3992043700787402
20
-1.8153740944881889
11
2.4014233070866142
21
-1.8120532283464565
0
LINE
8
BLACK
6
CONTINUOUS
10
2.4014233070866142
20
-1.8120532283464565
11
2.4047441732283463
21
-1.8098342913385825
0
LINE
8
BLACK
6
CONTINUOUS
10
2.4047441732283463
20
-1.8098342913385825
11
2.4086614173228345
21
-1.8090551181102361
0
LINE
8
BLACK
6
CONTINUOUS
10
2.4086614173228345
20
-1.8090551181102361
11
2.4925196850393698
21
-1.8090551181102361
0
LINE
8
BLACK
6
CONTINUOUS
10
2.4925196850393698
20
-1.8090551181102361
11
2.4964369291338584
21
-1.8098342913385825
0
LINE
8
BLACK
6
CONTINUOUS
10
3.2050983464566927
20
-1.8098342913385825
11
3.2084192125984252
21
-1.8120532283464565
0
LINE
8
BLACK
6
CONTINUOUS
10
3.2084192125984252
20
-1.8120532283464565
11
3.2106381496062992
21
-1.8153740944881889
0
LINE
8
BLACK
6
CONTINUOUS
10
3.2106381496062992
20
-1.8153740944881889
11
3.2114173228346456
21
-1.8192913385826772
0
LINE
8
BLACK
6
CONTINUOUS
10
3.2114173228346456
20
-1.8192913385826772
11
3.2114173228346456
21
-1.9011811023622047
0
LINE
8
BLACK
6
CONTINUOUS
10
3.2114173228346456
20
-1.9011811023622047
11
3.2106381496062992
21
-1.9050983464566928
0
LINE
8
BLACK
6
CONTINUOUS
10
3.2106381496062992
20
-1.9050983464566928
11
3.2084192125984252
21
-1.9084192125984252
0
LINE
8
BLACK
6
CONTINUOUS
10
3.2084192125984252
20
-1.9084192125984252
11
3.2050983464566927
21
-1.9106381496062992
0
LINE
8
BLACK
6
CONTINUOUS
10
3.2050983464566927
20
-1.9106381496062992
11
3.2011811023622045
21
-1.9114173228346456
0
LINE
8
BLACK
6
CONTINUOUS
10
3.2011811023622045
20
-1.9114173228346456
11
3.1173228346456692
21
-1.9114173228346456
0
LINE
8
BLACK
6
CONTINUOUS
10
3.1173228346456692
20
-1.9114173228346456
11
3.113405590551181
21
-1.9106381496062992
0
LINE
8
BLACK
6
CONTINUOUS
10
3.113405590551181
20
-1.9106381496062992
11
3.1100847244094489
21
-1.9084192125984252
0
LINE
8
BLACK
6
CONTINUOUS
10
3.1100847244094489
20
-1.9084192125984252
11
3.1078657874015749
21
-1.9050983464566928
0
LINE
8
BLACK
6
CONTINUOUS
10
3.1078657874015749
20
-1.9050983464566928
11
3.1070866141732281
21
-1.9011811023622047
0
LINE
8
BLACK
6
CONTINUOUS
10
3.1070866141732281
20
-1.9011811023622047
11
3.1070866141732281
21
-1.8192913385826772
0
LINE
8
BLACK
6
CONTINUOUS
10
3.1070866141732281
20
-1.8192913385826772
11
3.1078657874015749
21
-1.8153740944881889
0
LINE
8
BLACK
6
CONTINUOUS
10
3.1078657874015749
20
-1.8153740944881889
11
3.1100847244094489
21
-1.8120532283464565
0
LINE
8
BLACK
6
CONTINUOUS
10
3.1100847244094489
20
-1.8120532283464565
11
3.113405590551181
21
-1.8098342913385825
0
LINE
8
BLACK
6
CONTINUOUS
10
3.113405590551181
20
-1.8098342913385825
11
3.1173228346456692
21
-1.8090551181102361
0
LINE
8
BLACK
6
CONTINUOUS
10
3.1173228346456692
20
-1.8090551181102361
11
3.2011811023622045
21
-1.8090551181102361
0
LINE
8
BLACK
6
CONTINUOUS
10
3.2011811023622045
20
-1.8090551181102361
11
3.2050983464566927
21
-1.8098342913385825
0
LINE
8
BLACK
6
CONTINUOUS
10
3.9137597637795274
20
-1.8098342913385825
11
3.9170806299212599
21
-1.8120532283464565
0
LINE
8
BLACK
6
CONTINUOUS
10
3.9170806299212599
20
-1.8120532283464565
11
3.9192995669291339
21
-1.8153740944881889
0
LINE
8
BLACK
6
CONTINUOUS
10
3.9192995669291339
20
-1.8153740944881889
11
3.9200787401574804
21
-1.8192913385826772
0
LINE
8
BLACK
6
CONTINUOUS
10
3.9200787401574804
20
-1.8192913385826772
11
3.9200787401574804
21
-1.9011811023622047
0
LINE
8
BLACK
6
CONTINUOUS
10
3.9200787401574804
20
-1.9011811023622047
11
3.9192995669291339
21
-1.9050983464566928
0
LINE
8
BLACK
6
CONTINUOUS
10
3.9192995669291339
20
-1.9050983464566928
11
3.9170806299212599
21
-1.9084192125984252
0
LINE
8
BLACK
6
CONTINUOUS
10
3.9170806299212599
20
-1.9084192125984252
11
3.9137597637795274
21
-1.9106381496062992
0
LINE
8
BLACK
6
CONTINUOUS
10
3.9137597637795274
20
-1.9106381496062992
11
3.9098425196850393
21
-1.9114173228346456
0
LINE
8
BLACK
6
CONTINUOUS
10
3.9098425196850393
20
-1.9114173228346456
11
3.8259842519685039
21
-1.9114173228346456
0
LINE
8
BLACK
6
CONTINUOUS
10
3.8259842519685039
20
-1.9114173228346456
11
3.8220670078740158
21
-1.9106381496062992
0
LINE
8
BLACK
6
CONTINUOUS
10
3.8220670078740158
20
-1.9106381496062992
11
3.8187461417322832
21
-1.9084192125984252
0
LINE
8
BLACK
6
CONTINUOUS
10
3.8187461417322832
20
-1.9084192125984252
11
3.8165272047244092
21
-1.9050983464566928
0
LINE
8
BLACK
6
CONTINUOUS
10
3.8165272047244092
20
-1.9050983464566928
11
3.8157480314960628
21
-1.9011811023622047
0
LINE
8
BLACK
6
CONTINUOUS
10
3.8157480314960628
20
-1.9011811023622047
11
3.8157480314960628
21
-1.8192913385826772
0
LINE
8
BLACK
6
CONTINUOUS
10
3.8157480314960628
20
-1.8192913385826772
11
3.8165272047244092
21
-1.8153740944881889
0
LINE
8
BLACK
6
CONTINUOUS
10
3.8165272047244092
20
-1.8153740944881889
11
3.8187461417322832
21
-1.8120532283464565
0
LINE
8
BLACK
6
CONTINUOUS
10
3.8187461417322832
20
-1.8120532283464565
11
3.8220670078740158
21
-1.8098342913385825
0
LINE
8
BLACK
6
CONTINUOUS
10
3.8220670078740158
20
-1.8098342913385825
11
3.8259842519685039
21
-1.8090551181102361
0
LINE
8
BLACK
6
CONTINUOUS
10
3.8259842519685039
20
-1.8090551181102361
11
3.9098425196850393
21
-1.8090551181102361
0
LINE
8
BLACK
6
CONTINUOUS
10
3.9098425196850393
20
-1.8090551181102361
11
3.9137597637795274
21
-1.8098342913385825
0
LINE
8
BLACK
6
CONTINUOUS
10
1.3354133070866141
20
-1.7232201181102362
11
1.3387341732283464
21
-1.7254390551181102
0
LINE
8
BLACK
6
CONTINUOUS
10
1.3387341732283464
20
-1.7254390551181102
11
1.3409531102362204
21
-1.7287599212598426
0
LINE
8
BLACK
6
CONTINUOUS
10
1.3409531102362204
20
-1.7287599212598426
11
1.3417322834645669
21
-1.7326771653543307
0
LINE
8
BLACK
6
CONTINUOUS
10
1.3417322834645669
20
-1.7326771653543307
11
1.3417322834645669
21
-1.8145669291338582
0
LINE
8
BLACK
6
CONTINUOUS
10
1.3417322834645669
20
-1.8145669291338582
11
1.3409531102362204
21
-1.8184841732283463
0
LINE
8
BLACK
6
CONTINUOUS
10
1.3409531102362204
20
-1.8184841732283463
11
1.3387341732283464
21
-1.8218050393700786
0
LINE
8
BLACK
6
CONTINUOUS
10
1.3387341732283464
20
-1.8218050393700786
11
1.3354133070866141
21
-1.8240239763779527
0
LINE
8
BLACK
6
CONTINUOUS
10
1.3354133070866141
20
-1.8240239763779527
11
1.331496062992126
21
-1.8248031496062991
0
LINE
8
BLACK
6
CONTINUOUS
10
1.331496062992126
20
-1.8248031496062991
11
1.2476377952755906
21
-1.8248031496062991
0
LINE
8
BLACK
6
CONTINUOUS
10
1.2476377952755906
20
-1.8248031496062991
11
1.2437205511811023
21
-1.8240239763779527
0
LINE
8
BLACK
6
CONTINUOUS
10
1.2437205511811023
20
-1.8240239763779527
11
1.2403996850393701
21
-1.8218050393700786
0
LINE
8
BLACK
6
CONTINUOUS
10
1.2403996850393701
20
-1.8218050393700786
11
1.2381807480314961
21
-1.8184841732283463
0
LINE
8
BLACK
6
CONTINUOUS
10
1.2381807480314961
20
-1.8184841732283463
11
1.2374015748031495
21
-1.8145669291338582
0
LINE
8
BLACK
6
CONTINUOUS
10
1.2374015748031495
20
-1.8145669291338582
11
1.2374015748031495
21
-1.7326771653543307
0
LINE
8
BLACK
6
CONTINUOUS
10
1.2374015748031495
20
-1.7326771653543307
11
1.2381807480314961
21
-1.7287599212598426
0
LINE
8
BLACK
6
CONTINUOUS
10
1.2381807480314961
20
-1.7287599212598426
11
1.2403996850393701
21
-1.7254390551181102
0
LINE
8
BLACK
6
CONTINUOUS
10
1.2403996850393701
20
-1.7254390551181102
11
1.2437205511811023
21
-1.7232201181102362
0
LINE
8
BLACK
6
CONTINUOUS
10
1.2437205511811023
20
-1.7232201181102362
11
1.2476377952755906
21
-1.7224409448818898
0
LINE
8
BLACK
6
CONTINUOUS
10
1.2476377952755906
20
-1.7224409448818898
11
1.331496062992126
21
-1.7224409448818898
0
LINE
8
BLACK
6
CONTINUOUS
10
1.331496062992126
20
-1.7224409448818898
11
1.3354133070866141
21
-1.7232201181102362
0
LINE
8
BLACK
6
CONTINUOUS
10
2.0440747244094486
20
-1.7232201181102362
11
2.0473955905511811
21
-1.7254390551181102
0
LINE
8
BLACK
6
CONTINUOUS
10
2.0473955905511811
20
-1.7254390551181102
11
2.0496145275590552
21
-1.7287599212598426
0
LINE
8
BLACK
6
CONTINUOUS
10
2.0496145275590552
20
-1.7287599212598426
11
2.0503937007874016
21
-1.7326771653543307
0
LINE
8
BLACK
6
CONTINUOUS
10
2.0503937007874016
20
-1.7326771653543307
11
2.0503937007874016
21
-1.8145669291338582
0
LINE
8
BLACK
6
CONTINUOUS
10
2.0503937007874016
20
-1.8145669291338582
11
2.0496145275590552
21
-1.8184841732283463
0
LINE
8
BLACK
6
CONTINUOUS
10
2.0496145275590552
20
-1.8184841732283463
11
2.0473955905511811
21
-1.8218050393700786
0
LINE
8
BLACK
6
CONTINUOUS
10
2.0473955905511811
20
-1.8218050393700786
11
2.0440747244094486
21
-1.8240239763779527
0
LINE
8
BLACK
6
CONTINUOUS
10
2.0440747244094486
20
-1.8240239763779527
11
2.0401574803149605
21
-1.8248031496062991
0
LINE
8
BLACK
6
CONTINUOUS
10
2.0401574803149605
20
-1.8248031496062991
11
1.9562992125984251
21
-1.8248031496062991
0
LINE
8
BLACK
6
CONTINUOUS
10
1.9562992125984251
20
-1.8248031496062991
11
1.952381968503937
21
-1.8240239763779527
0
LINE
8
BLACK
6
CONTINUOUS
10
1.952381968503937
20
-1.8240239763779527
11
1.9490611023622046
21
-1.8218050393700786
0
LINE
8
BLACK
6
CONTINUOUS
10
1.9490611023622046
20
-1.8218050393700786
11
1.9468421653543306
21
-1.8184841732283463
0
LINE
8
BLACK
6
CONTINUOUS
10
1.9468421653543306
20
-1.8184841732283463
11
1.9460629921259842
21
-1.8145669291338582
0
LINE
8
BLACK
6
CONTINUOUS
10
1.9460629921259842
20
-1.8145669291338582
11
1.9460629921259842
21
-1.7326771653543307
0
LINE
8
BLACK
6
CONTINUOUS
10
1.9460629921259842
20
-1.7326771653543307
11
1.9468421653543306
21
-1.7287599212598426
0
LINE
8
BLACK
6
CONTINUOUS
10
1.9468421653543306
20
-1.7287599212598426
11
1.9490611023622046
21
-1.7254390551181102
0
LINE
8
BLACK
6
CONTINUOUS
10
1.9490611023622046
20
-1.7254390551181102
11
1.952381968503937
21
-1.7232201181102362
0
LINE
8
BLACK
6
CONTINUOUS
10
1.952381968503937
20
-1.7232201181102362
11
1.9562992125984251
21
-1.7224409448818898
0
LINE
8
BLACK
6
CONTINUOUS
10
1.9562992125984251
20
-1.7224409448818898
11
2.0401574803149605
21
-1.7224409448818898
0
LINE
8
BLACK
6
CONTINUOUS
10
2.0401574803149605
20
-1.7224409448818898
11
2.0440747244094486
21
-1.7232201181102362
0
LINE
8
BLACK
6
CONTINUOUS
10
2.7527361417322833
20
-1.7232201181102362
11
2.7560570078740159
21
-1.7254390551181102
0
LINE
8
BLACK
6
CONTINUOUS
10
2.7560570078740159
20
-1.7254390551181102
11
2.7582759448818899
21
-1.7287599212598426
0
LINE
8
BLACK
6
CONTINUOUS
10
2.7582759448818899
20
-1.7287599212598426
11
2.7590551181102363
21
-1.7326771653543307
0
LINE
8
BLACK
6
CONTINUOUS
10
2.7590551181102363
20
-1.7326771653543307
11
2.7590551181102363
21
-1.8145669291338582
0
LINE
8
BLACK
6
CONTINUOUS
10
2.7590551181102363
20
-1.8145669291338582
11
2.7582759448818899
21
-1.8184841732283463
0
LINE
8
BLACK
6
CONTINUOUS
10
2.7582759448818899
20
-1.8184841732283463
11
2.7560570078740159
21
-1.8218050393700786
0
LINE
8
BLACK
6
CONTINUOUS
10
2.7560570078740159
20
-1.8218050393700786
11
2.7527361417322833
21
-1.8240239763779527
0
LINE
8
BLACK
6
CONTINUOUS
10
2.7527361417322833
20
-1.8240239763779527
11
2.7488188976377952
21
-1.8248031496062991
0
LINE
8
BLACK
6
CONTINUOUS
10
2.7488188976377952
20
-1.8248031496062991
11
2.6649606299212598
21
-1.8248031496062991
0
LINE
8
BLACK
6
CONTINUOUS
10
2.6649606299212598
20
-1.8248031496062991
11
2.6610433858267717
21
-1.8240239763779527
0
LINE
8
BLACK
6
CONTINUOUS
10
2.6610433858267717
20
-1.8240239763779527
11
2.6577225196850391
21
-1.8218050393700786
0
LINE
8
BLACK
6
CONTINUOUS
10
2.6577225196850391
20
-1.8218050393700786
11
2.6555035826771651
21
-1.8184841732283463
0
LINE
8
BLACK
6
CONTINUOUS
10
2.6555035826771651
20
-1.8184841732283463
11
2.6547244094488187
21
-1.8145669291338582
0
LINE
8
BLACK
6
CONTINUOUS
10
2.6547244094488187
20
-1.8145669291338582
11
2.6547244094488187
21
-1.7326771653543307
0
LINE
8
BLACK
6
CONTINUOUS
10
2.6547244094488187
20
-1.7326771653543307
11
2.6555035826771651
21
-1.7287599212598426
0
LINE
8
BLACK
6
CONTINUOUS
10
2.6555035826771651
20
-1.7287599212598426
11
2.6577225196850391
21
-1.7254390551181102
0
LINE
8
BLACK
6
CONTINUOUS
10
2.6577225196850391
20
-1.7254390551181102
11
2.6610433858267717
21
-1.7232201181102362
0
LINE
8
BLACK
6
CONTINUOUS
10
2.6610433858267717
20
-1.7232201181102362
11
2.6649606299212598
21
-1.7224409448818898
0
LINE
8
BLACK
6
CONTINUOUS
10
2.6649606299212598
20
-1.7224409448818898
11
2.7488188976377952
21
-1.7224409448818898
0
LINE
8
BLACK
6
CONTINUOUS
10
2.7488188976377952
20
-1.7224409448818898
11
2.7527361417322833
21
-1.7232201181102362
0
LINE
8
BLACK
6
CONTINUOUS
10
3.461397559055118
20
-1.7232201181102362
11
3.4647184251968501
21
-1.7254390551181102
0
LINE
8
BLACK
6
CONTINUOUS
10
3.4647184251968501
20
-1.7254390551181102
11
3.4669373622047241
21
-1.7287599212598426
0
LINE
8
BLACK
6
CONTINUOUS
10
3.4669373622047241
20
-1.7287599212598426
11
3.4677165354330706
21
-1.7326771653543307
0
LINE
8
BLACK
6
CONTINUOUS
10
3.4677165354330706
20
-1.7326771653543307
11
3.4677165354330706
21
-1.8145669291338582
0
LINE
8
BLACK
6
CONTINUOUS
10
3.4677165354330706
20
-1.8145669291338582
11
3.4669373622047241
21
-1.8184841732283463
0
LINE
8
BLACK
6
CONTINUOUS
10
3.4669373622047241
20
-1.8184841732283463
11
3.4647184251968501
21
-1.8218050393700786
0
LINE
8
BLACK
6
CONTINUOUS
10
3.4647184251968501
20
-1.8218050393700786
11
3.461397559055118
21
-1.8240239763779527
0
LINE
8
BLACK
6
CONTINUOUS
10
3.461397559055118
20
-1.8240239763779527
11
3.4574803149606299
21
-1.8248031496062991
0
LINE
8
BLACK
6
CONTINUOUS
10
3.4574803149606299
20
-1.8248031496062991
11
3.3736220472440945
21
-1.8248031496062991
0
LINE
8
BLACK
6
CONTINUOUS
10
3.3736220472440945
20
-1.8248031496062991
11
3.3697048031496064
21
-1.8240239763779527
0
LINE
8
BLACK
6
CONTINUOUS
10
3.3697048031496064
20
-1.8240239763779527
11
3.3663839370078739
21
-1.8218050393700786
0
LINE
8
BLACK
6
CONTINUOUS
10
3.3663839370078739
20
-1.8218050393700786
11
3.3641649999999998
21
-1.8184841732283463
0
LINE
8
BLACK
6
CONTINUOUS
10
3.3641649999999998
20
-1.8184841732283463
11
3.3633858267716534
21
-1.8145669291338582
0
LINE
8
BLACK
6
CONTINUOUS
10
3.3633858267716534
20
-1.8145669291338582
11
3.3633858267716534
21
-1.7326771653543307
0
LINE
8
BLACK
6
CONTINUOUS
10
3.3633858267716534
20
-1.7326771653543307
11
3.3641649999999998
21
-1.7287599212598426
0
LINE
8
BLACK
6
CONTINUOUS
10
3.3641649999999998
20
-1.7287599212598426
11
3.3663839370078739
21
-1.7254390551181102
0
LINE
8
BLACK
6
CONTINUOUS
10
3.3663839370078739
20
-1.7254390551181102
11
3.3697048031496064
21
-1.7232201181102362
0
LINE
8
BLACK
6
CONTINUOUS
10
3.3697048031496064
20
-1.7232201181102362
11
3.3736220472440945
21
-1.7224409448818898
0
LINE
8
BLACK
6
CONTINUOUS
10
3.3736220472440945
20
-1.7224409448818898
11
3.4574803149606299
21
-1.7224409448818898
0
LINE
8
BLACK
6
CONTINUOUS
10
3.4574803149606299
20
-1.7224409448818898
11
3.461397559055118
21
-1.7232201181102362
0
LINE
8
BLACK
6
CONTINUOUS
10
1.3173662992125983
20
-1.4140601181102361
11
1.3202401181102361
21
-1.4159803543307086
0
LINE
8
BLACK
6
CONTINUOUS
10
1.3202401181102361
20
-1.4159803543307086
11
1.3221603543307086
21
-1.4188541732283464
0
LINE
8
BLACK
6
CONTINUOUS
10
1.3221603543307086
20
-1.4188541732283464
11
1.3228346456692912
21
-1.4222440944881889
0
LINE
8
BLACK
6
CONTINUOUS
10
1.3228346456692912
20
-1.4222440944881889
11
1.3228346456692912
21
-1.4399606299212597
0
LINE
8
BLACK
6
CONTINUOUS
10
1.3228346456692912
20
-1.4399606299212597
11
1.3221603543307086
21
-1.4433505511811022
0
LINE
8
BLACK
6
CONTINUOUS
10
1.3221603543307086
20
-1.4433505511811022
11
1.3202401181102361
21
-1.4462243700787401
0
LINE
8
BLACK
6
CONTINUOUS
10
1.3202401181102361
20
-1.4462243700787401
11
1.3173662992125983
21
-1.4481446062992125
0
LINE
8
BLACK
6
CONTINUOUS
10
1.3173662992125983
20
-1.4481446062992125
11
1.3139763779527558
21
-1.4488188976377951
0
LINE
8
BLACK
6
CONTINUOUS
10
1.3139763779527558
20
-1.4488188976377951
11
1.2844488188976377
21
-1.4488188976377951
0
LINE
8
BLACK
6
CONTINUOUS
10
1.2844488188976377
20
-1.4488188976377951
11
1.2810588976377952
21
-1.4481446062992125
0
LINE
8
BLACK
6
CONTINUOUS
10
1.2810588976377952
20
-1.4481446062992125
11
1.2781850787401574
21
-1.4462243700787401
0
LINE
8
BLACK
6
CONTINUOUS
10
1.2781850787401574
20
-1.4462243700787401
11
1.276264842519685
21
-1.4433505511811022
0
LINE
8
BLACK
6
CONTINUOUS
10
1.276264842519685
20
-1.4433505511811022
11
1.2755905511811023
21
-1.4399606299212597
0
LINE
8
BLACK
6
CONTINUOUS
10
1.2755905511811023
20
-1.4399606299212597
11
1.2755905511811023
21
-1.4222440944881889
0
LINE
8
BLACK
6
CONTINUOUS
10
1.2755905511811023
20
-1.4222440944881889
11
1.276264842519685
21
-1.4188541732283464
0
LINE
8
BLACK
6
CONTINUOUS
10
1.276264842519685
20
-1.4188541732283464
11
1.2781850787401574
21
-1.4159803543307086
0
LINE
8
BLACK
6
CONTINUOUS
10
1.2781850787401574
20
-1.4159803543307086
11
1.2810588976377952
21
-1.4140601181102361
0
LINE
8
BLACK
6
CONTINUOUS
10
1.2810588976377952
20
-1.4140601181102361
11
1.2844488188976377
21
-1.4133858267716535
0
LINE
8
BLACK
6
CONTINUOUS
10
1.2844488188976377
20
-1.4133858267716535
11
1.3139763779527558
21
-1.4133858267716535
0
LINE
8
BLACK
6
CONTINUOUS
10
1.3139763779527558
20
-1.4133858267716535
11
1.3173662992125983
21
-1.4140601181102361
0
LINE
8
BLACK
6
CONTINUOUS
10
2.0260277165354332
20
-1.4140601181102361
11
2.0289015354330706
21
-1.4159803543307086
0
LINE
8
BLACK
6
CONTINUOUS
10
2.0289015354330706
20
-1.4159803543307086
11
2.0308217716535433
21
-1.4188541732283464
0
LINE
8
BLACK
6
CONTINUOUS
10
2.0308217716535433
20
-1.4188541732283464
11
2.0314960629921259
21
-1.4222440944881889
0
LINE
8
BLACK
6
CONTINUOUS
10
2.0314960629921259
20
-1.4222440944881889
11
2.0314960629921259
21
-1.4399606299212597
0
LINE
8
BLACK
6
CONTINUOUS
10
2.0314960629921259
20
-1.4399606299212597
11
2.0308217716535433
21
-1.4433505511811022
0
LINE
8
BLACK
6
CONTINUOUS
10
2.0308217716535433
20
-1.4433505511811022
11
2.0289015354330706
21
-1.4462243700787401
0
LINE
8
BLACK
6
CONTINUOUS
10
2.0289015354330706
20
-1.4462243700787401
11
2.0260277165354332
21
-1.4481446062992125
0
LINE
8
BLACK
6
CONTINUOUS
10
2.0260277165354332
20
-1.4481446062992125
11
2.0226377952755903
21
-1.4488188976377951
0
LINE
8
BLACK
6
CONTINUOUS
10
2.0226377952755903
20
-1.4488188976377951
11
1.9931102362204725
21
-1.4488188976377951
0
LINE
8
BLACK
6
CONTINUOUS
10
1.9931102362204725
20
-1.4488188976377951
11
1.98972031496063
21
-1.4481446062992125
0
LINE
8
BLACK
6
CONTINUOUS
10
1.98972031496063
20
-1.4481446062992125
11
1.9868464960629921
21
-1.4462243700787401
0
LINE
8
BLACK
6
CONTINUOUS
10
1.9868464960629921
20
-1.4462243700787401
11
1.9849262598425197
21
-1.4433505511811022
0
LINE
8
BLACK
6
CONTINUOUS
10
1.9849262598425197
20
-1.4433505511811022
11
1.984251968503937
21
-1.4399606299212597
0
LINE
8
BLACK
6
CONTINUOUS
10
1.984251968503937
20
-1.4399606299212597
11
1.984251968503937
21
-1.4222440944881889
0
LINE
8
BLACK
6
CONTINUOUS
10
1.984251968503937
20
-1.4222440944881889
11
1.9849262598425197
21
-1.4188541732283464
0
LINE
8
BLACK
6
CONTINUOUS
10
1.9849262598425197
20
-1.4188541732283464
11
1.9868464960629921
21
-1.4159803543307086
0
LINE
8
BLACK
6
CONTINUOUS
10
1.9868464960629921
20
-1.4159803543307086
11
1.98972031496063
21
-1.4140601181102361
0
LINE
8
BLACK
6
CONTINUOUS
10
1.98972031496063
20
-1.4140601181102361
11
1.9931102362204725
21
-1.4133858267716535
0
LINE
8
BLACK
6
CONTINUOUS
10
1.9931102362204725
20
-1.4133858267716535
11
2.0226377952755903
21
-1.4133858267716535
0
LINE
8
BLACK
6
CONTINUOUS
10
2.0226377952755903
20
-1.4133858267716535
11
2.0260277165354332
21
-1.4140601181102361
0
LINE
8
BLACK
6
CONTINUOUS
10
2.7346891338582675
20
-1.4140601181102361
11
2.7375629527559053
21
-1.4159803543307086
0
LINE
8
BLACK
6
CONTINUOUS
10
2.7375629527559053
20
-1.4159803543307086
11
2.739483188976378
21
-1.4188541732283464
0
LINE
8
BLACK
6
CONTINUOUS
10
2.739483188976378
20
-1.4188541732283464
11
2.7401574803149606
21
-1.4222440944881889
0
LINE
8
BLACK
6
CONTINUOUS
10
2.7401574803149606
20
-1.4222440944881889
11
2.7401574803149606
21
-1.4399606299212597
0
LINE
8
BLACK
6
CONTINUOUS
10
2.7401574803149606
20
-1.4399606299212597
11
2.739483188976378
21
-1.4433505511811022
0
LINE
8
BLACK
6
CONTINUOUS
10
2.739483188976378
20
-1.4433505511811022
11
2.7375629527559053
21
-1.4462243700787401
0
LINE
8
BLACK
6
CONTINUOUS
10
2.7375629527559053
20
-1.4462243700787401
11
2.7346891338582675
21
-1.4481446062992125
0
LINE
8
BLACK
6
CONTINUOUS
10
2.7346891338582675
20
-1.4481446062992125
11
2.731299212598425
21
-1.4488188976377951
0
LINE
8
BLACK
6
CONTINUOUS
10
2.731299212598425
20
-1.4488188976377951
11
2.701771653543307
21
-1.4488188976377951
0
LINE
8
BLACK
6
CONTINUOUS
10
2.701771653543307
20
-1.4488188976377951
11
2.6983817322834645
21
-1.4481446062992125
0
LINE
8
BLACK
6
CONTINUOUS
10
2.6983817322834645
20
-1.4481446062992125
11
2.6955079133858266
21
-1.4462243700787401
0
LINE
8
BLACK
6
CONTINUOUS
10
2.6955079133858266
20
-1.4462243700787401
11
2.6935876771653544
21
-1.4433505511811022
0
LINE
8
BLACK
6
CONTINUOUS
10
2.6935876771653544
20
-1.4433505511811022
11
2.6929133858267718
21
-1.4399606299212597
0
LINE
8
BLACK
6
CONTINUOUS
10
2.6929133858267718
20
-1.4399606299212597
11
2.6929133858267718
21
-1.4222440944881889
0
LINE
8
BLACK
6
CONTINUOUS
10
2.6929133858267718
20
-1.4222440944881889
11
2.6935876771653544
21
-1.4188541732283464
0
LINE
8
BLACK
6
CONTINUOUS
10
2.6935876771653544
20
-1.4188541732283464
11
2.6955079133858266
21
-1.4159803543307086
0
LINE
8
BLACK
6
CONTINUOUS
10
2.6955079133858266
20
-1.4159803543307086
11
2.6983817322834645
21
-1.4140601181102361
0
LINE
8
BLACK
6
CONTINUOUS
10
2.6983817322834645
20
-1.4140601181102361
11
2.701771653543307
21
-1.4133858267716535
0
LINE
8
BLACK
6
CONTINUOUS
10
2.701771653543307
20
-1.4133858267716535
11
2.731299212598425
21
-1.4133858267716535
0
LINE
8
BLACK
6
CONTINUOUS
10
2.731299212598425
20
-1.4133858267716535
11
2.7346891338582675
21
-1.4140601181102361
0
LINE
8
BLACK
6
CONTINUOUS
10
3.4433505511811022
20
-1.4140601181102361
11
3.4462243700787401
21
-1.4159803543307086
0
LINE
8
BLACK
6
CONTINUOUS
10
3.4462243700787401
20
-1.4159803543307086
11
3.4481446062992127
21
-1.4188541732283464
0
LINE
8
BLACK
6
CONTINUOUS
10
3.4481446062992127
20
-1.4188541732283464
11
3.4488188976377954
21
-1.4222440944881889
0
LINE
8
BLACK
6
CONTINUOUS
10
3.4488188976377954
20
-1.4222440944881889
11
3.4488188976377954
21
-1.4399606299212597
0
LINE
8
BLACK
6
CONTINUOUS
10
3.4488188976377954
20
-1.4399606299212597
11
3.4481446062992127
21
-1.4433505511811022
0
LINE
8
BLACK
6
CONTINUOUS
10
3.4481446062992127
20
-1.4433505511811022
11
3.4462243700787401
21
-1.4462243700787401
0
LINE
8
BLACK
6
CONTINUOUS
10
3.4462243700787401
20
-1.4462243700787401
11
3.4433505511811022
21
-1.4481446062992125
0
LINE
8
BLACK
6
CONTINUOUS
10
3.4433505511811022
20
-1.4481446062992125
11
3.4399606299212597
21
-1.4488188976377951
0
LINE
8
BLACK
6
CONTINUOUS
10
3.4399606299212597
20
-1.4488188976377951
11
3.4104330708661417
21
-1.4488188976377951
0
LINE
8
BLACK
6
CONTINUOUS
10
3.4104330708661417
20
-1.4488188976377951
11
3.4070431496062992
21
-1.4481446062992125
0
LINE
8
BLACK
6
CONTINUOUS
10
3.4070431496062992
20
-1.4481446062992125
11
3.4041693307086613
21
-1.4462243700787401
0
LINE
8
BLACK
6
CONTINUOUS
10
3.4041693307086613
20
-1.4462243700787401
11
3.4022490944881887
21
-1.4433505511811022
0
LINE
8
BLACK
6
CONTINUOUS
10
3.4022490944881887
20
-1.4433505511811022
11
3.401574803149606
21
-1.4399606299212597
0
LINE
8
BLACK
6
CONTINUOUS
10
3.401574803149606
20
-1.4399606299212597
11
3.401574803149606
21
-1.4222440944881889
0
LINE
8
BLACK
6
CONTINUOUS
10
3.401574803149606
20
-1.4222440944881889
11
3.4022490944881887
21
-1.4188541732283464
0
LINE
8
BLACK
6
CONTINUOUS
10
3.4022490944881887
20
-1.4188541732283464
11
3.4041693307086613
21
-1.4159803543307086
0
LINE
8
BLACK
6
CONTINUOUS
10
3.4041693307086613
20
-1.4159803543307086
11
3.4070431496062992
21
-1.4140601181102361
0
LINE
8
BLACK
6
CONTINUOUS
10
3.4070431496062992
20
-1.4140601181102361
11
3.4104330708661417
21
-1.4133858267716535
0
LINE
8
BLACK
6
CONTINUOUS
10
3.4104330708661417
20
-1.4133858267716535
11
3.4399606299212597
21
-1.4133858267716535
0
LINE
8
BLACK
6
CONTINUOUS
10
3.4399606299212597
20
-1.4133858267716535
11
3.4433505511811022
21
-1.4140601181102361
0
LINE
8
BLACK
6
CONTINUOUS
10
1.3173662992125983
20
-1.2841388582677165
11
1.3202401181102361
21
-1.2860590944881889
0
LINE
8
BLACK
6
CONTINUOUS
10
1.3202401181102361
20
-1.2860590944881889
11
1.3221603543307086
21
-1.2889329133858267
0
LINE
8
BLACK
6
CONTINUOUS
10
1.3221603543307086
20
-1.2889329133858267
11
1.3228346456692912
21
-1.2923228346456692
0
LINE
8
BLACK
6
CONTINUOUS
10
1.3228346456692912
20
-1.2923228346456692
11
1.3228346456692912
21
-1.3100393700787401
0
LINE
8
BLACK
6
CONTINUOUS
10
1.3228346456692912
20
-1.3100393700787401
11
1.3221603543307086
21
-1.3134292913385825
0
LINE
8
BLACK
6
CONTINUOUS
10
1.3221603543307086
20
-1.3134292913385825
11
1.3202401181102361
21
-1.3163031102362204
0
LINE
8
BLACK
6
CONTINUOUS
10
1.3202401181102361
20
-1.3163031102362204
11
1.3173662992125983
21
-1.3182233464566928
0
LINE
8
BLACK
6
CONTINUOUS
10
1.3173662992125983
20
-1.3182233464566928
11
1.3139763779527558
21
-1.3188976377952755
0
LINE
8
BLACK
6
CONTINUOUS
10
1.3139763779527558
20
-1.3188976377952755
11
1.2844488188976377
21
-1.3188976377952755
0
LINE
8
BLACK
6
CONTINUOUS
10
1.2844488188976377
20
-1.3188976377952755
11
1.2810588976377952
21
-1.3182233464566928
0
LINE
8
BLACK
6
CONTINUOUS
10
1.2810588976377952
20
-1.3182233464566928
11
1.2781850787401574
21
-1.3163031102362204
0
LINE
8
BLACK
6
CONTINUOUS
10
1.2781850787401574
20
-1.3163031102362204
11
1.276264842519685
21
-1.3134292913385825
0
LINE
8
BLACK
6
CONTINUOUS
10
1.276264842519685
20
-1.3134292913385825
11
1.2755905511811023
21
-1.3100393700787401
0
LINE
8
BLACK
6
CONTINUOUS
10
1.2755905511811023
20
-1.3100393700787401
11
1.2755905511811023
21
-1.2923228346456692
0
LINE
8
BLACK
6
CONTINUOUS
10
1.2755905511811023
20
-1.2923228346456692
11
1.276264842519685
21
-1.2889329133858267
0
LINE
8
BLACK
6
CONTINUOUS
10
1.276264842519685
20
-1.2889329133858267
11
1.2781850787401574
21
-1.2860590944881889
0
LINE
8
BLACK
6
CONTINUOUS
10
1.2781850787401574
20
-1.2860590944881889
11
1.2810588976377952
21
-1.2841388582677165
0
LINE
8
BLACK
6
CONTINUOUS
10
1.2810588976377952
20
-1.2841388582677165
11
1.2844488188976377
21
-1.2834645669291338
0
LINE
8
BLACK
6
CONTINUOUS
10
1.2844488188976377
20
-1.2834645669291338
11
1.3139763779527558
21
-1.2834645669291338
0
LINE
8
BLACK
6
CONTINUOUS
10
1.3139763779527558
20
-1.2834645669291338
11
1.3173662992125983
21
-1.2841388582677165
0
LINE
8
BLACK
6
CONTINUOUS
10
2.0260277165354332
20
-1.2841388582677165
11
2.0289015354330706
21
-1.2860590944881889
0
LINE
8
BLACK
6
CONTINUOUS
10
2.0289015354330706
20
-1.2860590944881889
11
2.0308217716535433
21
-1.2889329133858267
0
LINE
8
BLACK
6
CONTINUOUS
10
2.0308217716535433
20
-1.2889329133858267
11
2.0314960629921259
21
-1.2923228346456692
0
LINE
8
BLACK
6
CONTINUOUS
10
2.0314960629921259
20
-1.2923228346456692
11
2.0314960629921259
21
-1.3100393700787401
0
LINE
8
BLACK
6
CONTINUOUS
10
2.0314960629921259
20
-1.3100393700787401
11
2.0308217716535433
21
-1.3134292913385825
0
LINE
8
BLACK
6
CONTINUOUS
10
2.0308217716535433
20
-1.3134292913385825
11
2.0289015354330706
21
-1.3163031102362204
0
LINE
8
BLACK
6
CONTINUOUS
10
2.0289015354330706
20
-1.3163031102362204
11
2.0260277165354332
21
-1.3182233464566928
0
LINE
8
BLACK
6
CONTINUOUS
10
2.0260277165354332
20
-1.3182233464566928
11
2.0226377952755903
21
-1.3188976377952755
0
LINE
8
BLACK
6
CONTINUOUS
10
2.0226377952755903
20
-1.3188976377952755
11
1.9931102362204725
21
-1.3188976377952755
0
LINE
8
BLACK
6
CONTINUOUS
10
1.9931102362204725
20
-1.3188976377952755
11
1.98972031496063
21
-1.3182233464566928
0
LINE
8
BLACK
6
CONTINUOUS
10
1.98972031496063
20
-1.3182233464566928
11
1.9868464960629921
21
-1.3163031102362204
0
LINE
8
BLACK
6
CONTINUOUS
10
1.9868464960629921
20
-1.3163031102362204
11
1.9849262598425197
21
-1.3134292913385825
0
LINE
8
BLACK
6
CONTINUOUS
10
1.9849262598425197
20
-1.3134292913385825
11
1.984251968503937
21
-1.3100393700787401
0
LINE
8
BLACK
6
CONTINUOUS
10
1.984251968503937
20
-1.3100393700787401
11
1.984251968503937
21
-1.2923228346456692
0
LINE
8
BLACK
6
CONTINUOUS
10
1.984251968503937
20
-1.2923228346456692
11
1.9849262598425197
21
-1.2889329133858267
0
LINE
8
BLACK
6
CONTINUOUS
10
1.9849262598425197
20
-1.2889329133858267
11
1.9868464960629921
21
-1.2860590944881889
0
LINE
8
BLACK
6
CONTINUOUS
10
1.9868464960629921
20
-1.2860590944881889
11
1.98972031496063
21
-1.2841388582677165
0
LINE
8
BLACK
6
CONTINUOUS
10
1.98972031496063
20
-1.2841388582677165
11
1.9931102362204725
21
-1.2834645669291338
0
LINE
8
BLACK
6
CONTINUOUS
10
1.9931102362204725
20
-1.2834645669291338
11
2.0226377952755903
21
-1.2834645669291338
0
LINE
8
BLACK
6
CONTINUOUS
10
2.0226377952755903
20
-1.2834645669291338
11
2.0260277165354332
21
-1.2841388582677165
0
LINE
8
BLACK
6
CONTINUOUS
10
2.7346891338582675
20
-1.2841388582677165
11
2.7375629527559053
21
-1.2860590944881889
0
LINE
8
BLACK
6
CONTINUOUS
10
2.7375629527559053
20
-1.2860590944881889
11
2.739483188976378
21
-1.2889329133858267
0
LINE
8
BLACK
6
CONTINUOUS
10
2.739483188976378
20
-1.2889329133858267
11
2.7401574803149606
21
-1.2923228346456692
0
LINE
8
BLACK
6
CONTINUOUS
10
2.7401574803149606
20
-1.2923228346456692
11
2.7401574803149606
21
-1.3100393700787401
0
LINE
8
BLACK
6
CONTINUOUS
10
2.7401574803149606
20
-1.3100393700787401
11
2.739483188976378
21
-1.3134292913385825
0
LINE
8
BLACK
6
CONTINUOUS
10
2.739483188976378
20
-1.3134292913385825
11
2.7375629527559053
21
-1.3163031102362204
0
LINE
8
BLACK
6
CONTINUOUS
10
2.7375629527559053
20
-1.3163031102362204
11
2.7346891338582675
21
-1.3182233464566928
0
LINE
8
BLACK
6
CONTINUOUS
10
2.7346891338582675
20
-1.3182233464566928
11
2.731299212598425
21
-1.3188976377952755
0
LINE
8
BLACK
6
CONTINUOUS
10
2.731299212598425
20
-1.3188976377952755
11
2.701771653543307
21
-1.3188976377952755
0
LINE
8
BLACK
6
CONTINUOUS
10
2.701771653543307
20
-1.3188976377952755
11
2.6983817322834645
21
-1.3182233464566928
0
LINE
8
BLACK
6
CONTINUOUS
10
2.6983817322834645
20
-1.3182233464566928
11
2.6955079133858266
21
-1.3163031102362204
0
LINE
8
BLACK
6
CONTINUOUS
10
2.6955079133858266
20
-1.3163031102362204
11
2.6935876771653544
21
-1.3134292913385825
0
LINE
8
BLACK
6
CONTINUOUS
10
2.6935876771653544
20
-1.3134292913385825
11
2.6929133858267718
21
-1.3100393700787401
0
LINE
8
BLACK
6
CONTINUOUS
10
2.6929133858267718
20
-1.3100393700787401
11
2.6929133858267718
21
-1.2923228346456692
0
LINE
8
BLACK
6
CONTINUOUS
10
2.6929133858267718
20
-1.2923228346456692
11
2.6935876771653544
21
-1.2889329133858267
0
LINE
8
BLACK
6
CONTINUOUS
10
2.6935876771653544
20
-1.2889329133858267
11
2.6955079133858266
21
-1.2860590944881889
0
LINE
8
BLACK
6
CONTINUOUS
10
2.6955079133858266
20
-1.2860590944881889
11
2.6983817322834645
21
-1.2841388582677165
0
LINE
8
BLACK
6
CONTINUOUS
10
2.6983817322834645
20
-1.2841388582677165
11
2.701771653543307
21
-1.2834645669291338
0
LINE
8
BLACK
6
CONTINUOUS
10
2.701771653543307
20
-1.2834645669291338
11
2.731299212598425
21
-1.2834645669291338
0
LINE
8
BLACK
6
CONTINUOUS
10
2.731299212598425
20
-1.2834645669291338
11
2.7346891338582675
21
-1.2841388582677165
0
LINE
8
BLACK
6
CONTINUOUS
10
3.4433505511811022
20
-1.2841388582677165
11
3.4462243700787401
21
-1.2860590944881889
0
LINE
8
BLACK
6
CONTINUOUS
10
3.4462243700787401
20
-1.2860590944881889
11
3.4481446062992127
21
-1.2889329133858267
0
LINE
8
BLACK
6
CONTINUOUS
10
3.4481446062992127
20
-1.2889329133858267
11
3.4488188976377954
21
-1.2923228346456692
0
LINE
8
BLACK
6
CONTINUOUS
10
3.4488188976377954
20
-1.2923228346456692
11
3.4488188976377954
21
-1.3100393700787401
0
LINE
8
BLACK
6
CONTINUOUS
10
3.4488188976377954
20
-1.3100393700787401
11
3.4481446062992127
21
-1.3134292913385825
0
LINE
8
BLACK
6
CONTINUOUS
10
3.4481446062992127
20
-1.3134292913385825
11
3.4462243700787401
21
-1.3163031102362204
0
LINE
8
BLACK
6
CONTINUOUS
10
3.4462243700787401
20
-1.3163031102362204
11
3.4433505511811022
21
-1.3182233464566928
0
LINE
8
BLACK
6
CONTINUOUS
10
3.4433505511811022
20
-1.3182233464566928
11
3.4399606299212597
21
-1.3188976377952755
0
LINE
8
BLACK
6
CONTINUOUS
10
3.4399606299212597
20
-1.3188976377952755
11
3.4104330708661417
21
-1.3188976377952755
0
LINE
8
BLACK
6
CONTINUOUS
10
3.4104330708661417
20
-1.3188976377952755
11
3.4070431496062992
21
-1.3182233464566928
0
LINE
8
BLACK
6
CONTINUOUS
10
3.4070431496062992
20
-1.3182233464566928
11
3.4041693307086613
21
-1.3163031102362204
0
LINE
8
BLACK
6
CONTINUOUS
10
3.4041693307086613
20
-1.3163031102362204
11
3.4022490944881887
21
-1.3134292913385825
0
LINE
8
BLACK
6
CONTINUOUS
10
3.4022490944881887
20
-1.3134292913385825
11
3.401574803149606
21
-1.3100393700787401
0
LINE
8
BLACK
6
CONTINUOUS
10
3.401574803149606
20
-1.3100393700787401
11
3.401574803149606
21
-1.2923228346456692
0
LINE
8
BLACK
6
CONTINUOUS
10
3.401574803149606
20
-1.2923228346456692
11
3.4022490944881887
21
-1.2889329133858267
0
LINE
8
BLACK
6
CONTINUOUS
10
3.4022490944881887
20
-1.2889329133858267
11
3.4041693307086613
21
-1.2860590944881889
0
LINE
8
BLACK
6
CONTINUOUS
10
3.4041693307086613
20
-1.2860590944881889
11
3.4070431496062992
21
-1.2841388582677165
0
LINE
8
BLACK
6
CONTINUOUS
10
3.4070431496062992
20
-1.2841388582677165
11
3.4104330708661417
21
-1.2834645669291338
0
LINE
8
BLACK
6
CONTINUOUS
10
3.4104330708661417
20
-1.2834645669291338
11
3.4399606299212597
21
-1.2834645669291338
0
LINE
8
BLACK
6
CONTINUOUS
10
3.4399606299212597
20
-1.2834645669291338
11
3.4433505511811022
21
-1.2841388582677165
0
LINE
8
BLACK
6
CONTINUOUS
10
1.7877755118110237
20
-1.1405429527559054
11
1.7910963779527558
21
-1.1427618897637795
0
LINE
8
BLACK
6
CONTINUOUS
10
1.7910963779527558
20
-1.1427618897637795
11
1.7933153149606298
21
-1.1460827559055118
0
LINE
8
BLACK
6
CONTINUOUS
10
1.7933153149606298
20
-1.1460827559055118
11
1.7940944881889764
21
-1.1499999999999999
0
LINE
8
BLACK
6
CONTINUOUS
10
1.7940944881889764
20
-1.1499999999999999
11
1.7940944881889764
21
-1.2318897637795276
0
LINE
8
BLACK
6
CONTINUOUS
10
1.7940944881889764
20
-1.2318897637795276
11
1.7933153149606298
21
-1.2358070078740158
0
LINE
8
BLACK
6
CONTINUOUS
10
1.7933153149606298
20
-1.2358070078740158
11
1.7910963779527558
21
-1.2391278740157481
0
LINE
8
BLACK
6
CONTINUOUS
10
1.7910963779527558
20
-1.2391278740157481
11
1.7877755118110237
21
-1.2413468110236221
0
LINE
8
BLACK
6
CONTINUOUS
10
1.7877755118110237
20
-1.2413468110236221
11
1.7838582677165353
21
-1.2421259842519685
0
LINE
8
BLACK
6
CONTINUOUS
10
1.7838582677165353
20
-1.2421259842519685
11
1.7
21
-1.2421259842519685
0
LINE
8
BLACK
6
CONTINUOUS
10
1.7
20
-1.2421259842519685
11
1.6960827559055118
21
-1.2413468110236221
0
LINE
8
BLACK
6
CONTINUOUS
10
1.6960827559055118
20
-1.2413468110236221
11
1.6927618897637795
21
-1.2391278740157481
0
LINE
8
BLACK
6
CONTINUOUS
10
1.6927618897637795
20
-1.2391278740157481
11
1.6905429527559055
21
-1.2358070078740158
0
LINE
8
BLACK
6
CONTINUOUS
10
1.6905429527559055
20
-1.2358070078740158
11
1.6897637795275591
21
-1.2318897637795276
0
LINE
8
BLACK
6
CONTINUOUS
10
1.6897637795275591
20
-1.2318897637795276
11
1.6897637795275591
21
-1.1499999999999999
0
LINE
8
BLACK
6
CONTINUOUS
10
1.6897637795275591
20
-1.1499999999999999
11
1.6905429527559055
21
-1.1460827559055118
0
LINE
8
BLACK
6
CONTINUOUS
10
1.6905429527559055
20
-1.1460827559055118
11
1.6927618897637795
21
-1.1427618897637795
0
LINE
8
BLACK
6
CONTINUOUS
10
1.6927618897637795
20
-1.1427618897637795
11
1.6960827559055118
21
-1.1405429527559054
0
LINE
8
BLACK
6
CONTINUOUS
10
1.6960827559055118
20
-1.1405429527559054
11
1.7
21
-1.139763779527559
0
LINE
8
BLACK
6
CONTINUOUS
10
1.7
20
-1.139763779527559
11
1.7838582677165353
21
-1.139763779527559
0
LINE
8
BLACK
6
CONTINUOUS
10
1.7838582677165353
20
-1.139763779527559
11
1.7877755118110237
21
-1.1405429527559054
0
LINE
8
BLACK
6
CONTINUOUS
10
2.4964369291338584
20
-1.1405429527559054
11
2.4997577952755905
21
-1.1427618897637795
0
LINE
8
BLACK
6
CONTINUOUS
10
2.4997577952755905
20
-1.1427618897637795
11
2.5019767322834645
21
-1.1460827559055118
0
LINE
8
BLACK
6
CONTINUOUS
10
2.5019767322834645
20
-1.1460827559055118
11
2.5027559055118109
21
-1.1499999999999999
0
LINE
8
BLACK
6
CONTINUOUS
10
2.5027559055118109
20
-1.1499999999999999
11
2.5027559055118109
21
-1.2318897637795276
0
LINE
8
BLACK
6
CONTINUOUS
10
2.5027559055118109
20
-1.2318897637795276
11
2.5019767322834645
21
-1.2358070078740158
0
LINE
8
BLACK
6
CONTINUOUS
10
2.5019767322834645
20
-1.2358070078740158
11
2.4997577952755905
21
-1.2391278740157481
0
LINE
8
BLACK
6
CONTINUOUS
10
2.4997577952755905
20
-1.2391278740157481
11
2.4964369291338584
21
-1.2413468110236221
0
LINE
8
BLACK
6
CONTINUOUS
10
2.4964369291338584
20
-1.2413468110236221
11
2.4925196850393698
21
-1.2421259842519685
0
LINE
8
BLACK
6
CONTINUOUS
10
2.4925196850393698
20
-1.2421259842519685
11
2.4086614173228345
21
-1.2421259842519685
0
LINE
8
BLACK
6
CONTINUOUS
10
2.4086614173228345
20
-1.2421259842519685
11
2.4047441732283463
21
-1.2413468110236221
0
LINE
8
BLACK
6
CONTINUOUS
10
2.4047441732283463
20
-1.2413468110236221
11
2.4014233070866142
21
-1.2391278740157481
0
LINE
8
BLACK
6
CONTINUOUS
10
2.4014233070866142
20
-1.2391278740157481
11
2.3992043700787402
21
-1.2358070078740158
0
LINE
8
BLACK
6
CONTINUOUS
10
2.3992043700787402
20
-1.2358070078740158
11
2.3984251968503938
21
-1.2318897637795276
0
LINE
8
BLACK
6
CONTINUOUS
10
2.3984251968503938
20
-1.2318897637795276
11
2.3984251968503938
21
-1.1499999999999999
0
LINE
8
BLACK
6
CONTINUOUS
10
2.3984251968503938
20
-1.1499999999999999
11
2.3992043700787402
21
-1.1460827559055118
0
LINE
8
BLACK
6
CONTINUOUS
10
2.3992043700787402
20
-1.1460827559055118
11
2.4014233070866142
21
-1.1427618897637795
0
LINE
8
BLACK
6
CONTINUOUS
10
2.4014233070866142
20
-1.1427618897637795
11
2.4047441732283463
21
-1.1405429527559054
0
LINE
8
BLACK
6
CONTINUOUS
10
2.4047441732283463
20
-1.1405429527559054
11
2.4086614173228345
21
-1.139763779527559
0
LINE
8
BLACK
6
CONTINUOUS
10
2.4086614173228345
20
-1.139763779527559
11
2.4925196850393698
21
-1.139763779527559
0
LINE
8
BLACK
6
CONTINUOUS
10
2.4925196850393698
20
-1.139763779527559
11
2.4964369291338584
21
-1.1405429527559054
0
LINE
8
BLACK
6
CONTINUOUS
10
3.2050983464566927
20
-1.1405429527559054
11
3.2084192125984252
21
-1.1427618897637795
0
LINE
8
BLACK
6
CONTINUOUS
10
3.2084192125984252
20
-1.1427618897637795
11
3.2106381496062992
21
-1.1460827559055118
0
LINE
8
BLACK
6
CONTINUOUS
10
3.2106381496062992
20
-1.1460827559055118
11
3.2114173228346456
21
-1.1499999999999999
0
LINE
8
BLACK
6
CONTINUOUS
10
3.2114173228346456
20
-1.1499999999999999
11
3.2114173228346456
21
-1.2318897637795276
0
LINE
8
BLACK
6
CONTINUOUS
10
3.2114173228346456
20
-1.2318897637795276
11
3.2106381496062992
21
-1.2358070078740158
0
LINE
8
BLACK
6
CONTINUOUS
10
3.2106381496062992
20
-1.2358070078740158
11
3.2084192125984252
21
-1.2391278740157481
0
LINE
8
BLACK
6
CONTINUOUS
10
3.2084192125984252
20
-1.2391278740157481
11
3.2050983464566927
21
-1.2413468110236221
0
LINE
8
BLACK
6
CONTINUOUS
10
3.2050983464566927
20
-1.2413468110236221
11
3.2011811023622045
21
-1.2421259842519685
0
LINE
8
BLACK
6
CONTINUOUS
10
3.2011811023622045
20
-1.2421259842519685
11
3.1173228346456692
21
-1.2421259842519685
0
LINE
8
BLACK
6
CONTINUOUS
10
3.1173228346456692
20
-1.2421259842519685
11
3.113405590551181
21
-1.2413468110236221
0
LINE
8
BLACK
6
CONTINUOUS
10
3.113405590551181
20
-1.2413468110236221
11
3.1100847244094489
21
-1.2391278740157481
0
LINE
8
BLACK
6
CONTINUOUS
10
3.1100847244094489
20
-1.2391278740157481
11
3.1078657874015749
21
-1.2358070078740158
0
LINE
8
BLACK
6
CONTINUOUS
10
3.1078657874015749
20
-1.2358070078740158
11
3.1070866141732281
21
-1.2318897637795276
0
LINE
8
BLACK
6
CONTINUOUS
10
3.1070866141732281
20
-1.2318897637795276
11
3.1070866141732281
21
-1.1499999999999999
0
LINE
8
BLACK
6
CONTINUOUS
10
3.1070866141732281
20
-1.1499999999999999
11
3.1078657874015749
21
-1.1460827559055118
0
LINE
8
BLACK
6
CONTINUOUS
10
3.1078657874015749
20
-1.1460827559055118
11
3.1100847244094489
21
-1.1427618897637795
0
LINE
8
BLACK
6
CONTINUOUS
10
3.1100847244094489
20
-1.1427618897637795
11
3.113405590551181
21
-1.1405429527559054
0
LINE
8
BLACK
6
CONTINUOUS
10
3.113405590551181
20
-1.1405429527559054
11
3.1173228346456692
21
-1.139763779527559
0
LINE
8
BLACK
6
CONTINUOUS
10
3.1173228346456692
20
-1.139763779527559
11
3.2011811023622045
21
-1.139763779527559
0
LINE
8
BLACK
6
CONTINUOUS
10
3.2011811023622045
20
-1.139763779527559
11
3.2050983464566927
21
-1.1405429527559054
0
LINE
8
BLACK
6
CONTINUOUS
10
3.9137597637795274
20
-1.1405429527559054
11
3.9170806299212599
21
-1.1427618897637795
0
LINE
8
BLACK
6
CONTINUOUS
10
3.9170806299212599
20
-1.1427618897637795
11
3.9192995669291339
21
-1.1460827559055118
0
LINE
8
BLACK
6
CONTINUOUS
10
3.9192995669291339
20
-1.1460827559055118
11
3.9200787401574804
21
-1.1499999999999999
0
LINE
8
BLACK
6
CONTINUOUS
10
3.9200787401574804
20
-1.1499999999999999
11
3.9200787401574804
21
-1.2318897637795276
0
LINE
8
BLACK
6
CONTINUOUS
10
3.9200787401574804
20
-1.2318897637795276
11
3.9192995669291339
21
-1.2358070078740158
0
LINE
8
BLACK
6
CONTINUOUS
10
3.9192995669291339
20
-1.2358070078740158
11
3.9170806299212599
21
-1.2391278740157481
0
LINE
8
BLACK
6
CONTINUOUS
10
3.9170806299212599
20
-1.2391278740157481
11
3.9137597637795274
21
-1.2413468110236221
0
LINE
8
BLACK
6
CONTINUOUS
10
3.9137597637795274
20
-1.2413468110236221
11
3.9098425196850393
21
-1.2421259842519685
0
LINE
8
BLACK
6
CONTINUOUS
10
3.9098425196850393
20
-1.2421259842519685
11
3.8259842519685039
21
-1.2421259842519685
0
LINE
8
BLACK
6
CONTINUOUS
10
3.8259842519685039
20
-1.2421259842519685
11
3.8220670078740158
21
-1.2413468110236221
0
LINE
8
BLACK
6
CONTINUOUS
10
3.8220670078740158
20
-1.2413468110236221
11
3.8187461417322832
21
-1.2391278740157481
0
LINE
8
BLACK
6
CONTINUOUS
10
3.8187461417322832
20
-1.2391278740157481
11
3.8165272047244092
21
-1.2358070078740158
0
LINE
8
BLACK
6
CONTINUOUS
10
3.8165272047244092
20
-1.2358070078740158
11
3.8157480314960628
21
-1.2318897637795276
0
LINE
8
BLACK
6
CONTINUOUS
10
3.8157480314960628
20
-1.2318897637795276
11
3.8157480314960628
21
-1.1499999999999999
0
LINE
8
BLACK
6
CONTINUOUS
10
3.8157480314960628
20
-1.1499999999999999
11
3.8165272047244092
21
-1.1460827559055118
0
LINE
8
BLACK
6
CONTINUOUS
10
3.8165272047244092
20
-1.1460827559055118
11
3.8187461417322832
21
-1.1427618897637795
0
LINE
8
BLACK
6
CONTINUOUS
10
3.8187461417322832
20
-1.1427618897637795
11
3.8220670078740158
21
-1.1405429527559054
0
LINE
8
BLACK
6
CONTINUOUS
10
3.8220670078740158
20
-1.1405429527559054
11
3.8259842519685039
21
-1.139763779527559
0
LINE
8
BLACK
6
CONTINUOUS
10
3.8259842519685039
20
-1.139763779527559
11
3.9098425196850393
21
-1.139763779527559
0
LINE
8
BLACK
6
CONTINUOUS
10
3.9098425196850393
20
-1.139763779527559
11
3.9137597637795274
21
-1.1405429527559054
0
LINE
8
BLACK
6
CONTINUOUS
10
1.3354133070866141
20
-1.0539287795275589
11
1.3387341732283464
21
-1.0561477165354332
0
LINE
8
BLACK
6
CONTINUOUS
10
1.3387341732283464
20
-1.0561477165354332
11
1.3409531102362204
21
-1.0594685826771653
0
LINE
8
BLACK
6
CONTINUOUS
10
1.3409531102362204
20
-1.0594685826771653
11
1.3417322834645669
21
-1.0633858267716536
0
LINE
8
BLACK
6
CONTINUOUS
10
1.3417322834645669
20
-1.0633858267716536
11
1.3417322834645669
21
-1.1452755905511811
0
LINE
8
BLACK
6
CONTINUOUS
10
1.3417322834645669
20
-1.1452755905511811
11
1.3409531102362204
21
-1.1491928346456692
0
LINE
8
BLACK
6
CONTINUOUS
10
1.3409531102362204
20
-1.1491928346456692
11
1.3387341732283464
21
-1.1525137007874016
0
LINE
8
BLACK
6
CONTINUOUS
10
1.3387341732283464
20
-1.1525137007874016
11
1.3354133070866141
21
-1.1547326377952756
0
LINE
8
BLACK
6
CONTINUOUS
10
1.3354133070866141
20
-1.1547326377952756
11
1.331496062992126
21
-1.155511811023622
0
LINE
8
BLACK
6
CONTINUOUS
10
1.331496062992126
20
-1.155511811023622
11
1.2476377952755906
21
-1.155511811023622
0
LINE
8
BLACK
6
CONTINUOUS
10
1.2476377952755906
20
-1.155511811023622
11
1.2437205511811023
21
-1.1547326377952756
0
LINE
8
BLACK
6
CONTINUOUS
10
1.2437205511811023
20
-1.1547326377952756
11
1.2403996850393701
21
-1.1525137007874016
0
LINE
8
BLACK
6
CONTINUOUS
10
1.2403996850393701
20
-1.1525137007874016
11
1.2381807480314961
21
-1.1491928346456692
0
LINE
8
BLACK
6
CONTINUOUS
10
1.2381807480314961
20
-1.1491928346456692
11
1.2374015748031495
21
-1.1452755905511811
0
LINE
8
BLACK
6
CONTINUOUS
10
1.2374015748031495
20
-1.1452755905511811
11
1.2374015748031495
21
-1.0633858267716536
0
LINE
8
BLACK
6
CONTINUOUS
10
1.2374015748031495
20
-1.0633858267716536
11
1.2381807480314961
21
-1.0594685826771653
0
LINE
8
BLACK
6
CONTINUOUS
10
1.2381807480314961
20
-1.0594685826771653
11
1.2403996850393701
21
-1.0561477165354332
0
LINE
8
BLACK
6
CONTINUOUS
10
1.2403996850393701
20
-1.0561477165354332
11
1.2437205511811023
21
-1.0539287795275589
0
LINE
8
BLACK
6
CONTINUOUS
10
1.2437205511811023
20
-1.0539287795275589
11
1.2476377952755906
21
-1.0531496062992125
0
LINE
8
BLACK
6
CONTINUOUS
10
1.2476377952755906
20
-1.0531496062992125
11
1.331496062992126
21
-1.0531496062992125
0
LINE
8
BLACK
6
CONTINUOUS
10
1.331496062992126
20
-1.0531496062992125
11
1.3354133070866141
21
-1.0539287795275589
0
LINE
8
BLACK
6
CONTINUOUS
10
2.0440747244094486
20
-1.0539287795275589
11
2.0473955905511811
21
-1.0561477165354332
0
LINE
8
BLACK
6
CONTINUOUS
10
2.0473955905511811
20
-1.0561477165354332
11
2.0496145275590552
21
-1.0594685826771653
0
LINE
8
BLACK
6
CONTINUOUS
10
2.0496145275590552
20
-1.0594685826771653
11
2.0503937007874016
21
-1.0633858267716536
0
LINE
8
BLACK
6
CONTINUOUS
10
2.0503937007874016
20
-1.0633858267716536
11
2.0503937007874016
21
-1.1452755905511811
0
LINE
8
BLACK
6
CONTINUOUS
10
2.0503937007874016
20
-1.1452755905511811
11
2.0496145275590552
21
-1.1491928346456692
0
LINE
8
BLACK
6
CONTINUOUS
10
2.0496145275590552
20
-1.1491928346456692
11
2.0473955905511811
21
-1.1525137007874016
0
LINE
8
BLACK
6
CONTINUOUS
10
2.0473955905511811
20
-1.1525137007874016
11
2.0440747244094486
21
-1.1547326377952756
0
LINE
8
BLACK
6
CONTINUOUS
10
2.0440747244094486
20
-1.1547326377952756
11
2.0401574803149605
21
-1.155511811023622
0
LINE
8
BLACK
6
CONTINUOUS
10
2.0401574803149605
20
-1.155511811023622
11
1.9562992125984251
21
-1.155511811023622
0
LINE
8
BLACK
6
CONTINUOUS
10
1.9562992125984251
20
-1.155511811023622
11
1.952381968503937
21
-1.1547326377952756
0
LINE
8
BLACK
6
CONTINUOUS
10
1.952381968503937
20
-1.1547326377952756
11
1.9490611023622046
21
-1.1525137007874016
0
LINE
8
BLACK
6
CONTINUOUS
10
1.9490611023622046
20
-1.1525137007874016
11
1.9468421653543306
21
-1.1491928346456692
0
LINE
8
BLACK
6
CONTINUOUS
10
1.9468421653543306
20
-1.1491928346456692
11
1.9460629921259842
21
-1.1452755905511811
0
LINE
8
BLACK
6
CONTINUOUS
10
1.9460629921259842
20
-1.1452755905511811
11
1.9460629921259842
21
-1.0633858267716536
0
LINE
8
BLACK
6
CONTINUOUS
10
1.9460629921259842
20
-1.0633858267716536
11
1.9468421653543306
21
-1.0594685826771653
0
LINE
8
BLACK
6
CONTINUOUS
10
1.9468421653543306
20
-1.0594685826771653
11
1.9490611023622046
21
-1.0561477165354332
0
LINE
8
BLACK
6
CONTINUOUS
10
1.9490611023622046
20
-1.0561477165354332
11
1.952381968503937
21
-1.0539287795275589
0
LINE
8
BLACK
6
CONTINUOUS
10
1.952381968503937
20
-1.0539287795275589
11
1.9562992125984251
21
-1.0531496062992125
0
LINE
8
BLACK
6
CONTINUOUS
10
1.9562992125984251
20
-1.0531496062992125
11
2.0401574803149605
21
-1.0531496062992125
0
LINE
8
BLACK
6
CONTINUOUS
10
2.0401574803149605
20
-1.0531496062992125
11
2.0440747244094486
21
-1.0539287795275589
0
LINE
8
BLACK
6
CONTINUOUS
10
2.7527361417322833
20
-1.0539287795275589
11
2.7560570078740159
21
-1.0561477165354332
0
LINE
8
BLACK
6
CONTINUOUS
10
2.7560570078740159
20
-1.0561477165354332
11
2.7582759448818899
21
-1.0594685826771653
0
LINE
8
BLACK
6
CONTINUOUS
10
2.7582759448818899
20
-1.0594685826771653
11
2.7590551181102363
21
-1.0633858267716536
0
LINE
8
BLACK
6
CONTINUOUS
10
2.7590551181102363
20
-1.0633858267716536
11
2.7590551181102363
21
-1.1452755905511811
0
LINE
8
BLACK
6
CONTINUOUS
10
2.7590551181102363
20
-1.1452755905511811
11
2.7582759448818899
21
-1.1491928346456692
0
LINE
8
BLACK
6
CONTINUOUS
10
2.7582759448818899
20
-1.1491928346456692
11
2.7560570078740159
21
-1.1525137007874016
0
LINE
8
BLACK
6
CONTINUOUS
10
2.7560570078740159
20
-1.1525137007874016
11
2.7527361417322833
21
-1.1547326377952756
0
LINE
8
BLACK
6
CONTINUOUS
10
2.7527361417322833
20
-1.1547326377952756
11
2.7488188976377952
21
-1.155511811023622
0
LINE
8
BLACK
6
CONTINUOUS
10
2.7488188976377952
20
-1.155511811023622
11
2.6649606299212598
21
-1.155511811023622
0
LINE
8
BLACK
6
CONTINUOUS
10
2.6649606299212598
20
-1.155511811023622
11
2.6610433858267717
21
-1.1547326377952756
0
LINE
8
BLACK
6
CONTINUOUS
10
2.6610433858267717
20
-1.1547326377952756
11
2.6577225196850391
21
-1.1525137007874016
0
LINE
8
BLACK
6
CONTINUOUS
10
2.6577225196850391
20
-1.1525137007874016
11
2.6555035826771651
21
-1.1491928346456692
0
LINE
8
BLACK
6
CONTINUOUS
10
2.6555035826771651
20
-1.1491928346456692
11
2.6547244094488187
21
-1.1452755905511811
0
LINE
8
BLACK
6
CONTINUOUS
10
2.6547244094488187
20
-1.1452755905511811
11
2.6547244094488187
21
-1.0633858267716536
0
LINE
8
BLACK
6
CONTINUOUS
10
2.6547244094488187
20
-1.0633858267716536
11
2.6555035826771651
21
-1.0594685826771653
0
LINE
8
BLACK
6
CONTINUOUS
10
2.6555035826771651
20
-1.0594685826771653
11
2.6577225196850391
21
-1.0561477165354332
0
LINE
8
BLACK
6
CONTINUOUS
10
2.6577225196850391
20
-1.0561477165354332
11
2.6610433858267717
21
-1.0539287795275589
0
LINE
8
BLACK
6
CONTINUOUS
10
2.6610433858267717
20
-1.0539287795275589
11
2.6649606299212598
21
-1.0531496062992125
0
LINE
8
BLACK
6
CONTINUOUS
10
2.6649606299212598
20
-1.0531496062992125
11
2.7488188976377952
21
-1.0531496062992125
0
LINE
8
BLACK
6
CONTINUOUS
10
2.7488188976377952
20
-1.0531496062992125
11
2.7527361417322833
21
-1.0539287795275589
0
LINE
8
BLACK
6
CONTINUOUS
10
3.461397559055118
20
-1.0539287795275589
11
3.4647184251968501
21
-1.0561477165354332
0
LINE
8
BLACK
6
CONTINUOUS
10
3.4647184251968501
20
-1.0561477165354332
11
3.4669373622047241
21
-1.0594685826771653
0
LINE
8
BLACK
6
CONTINUOUS
10
3.4669373622047241
20
-1.0594685826771653
11
3.4677165354330706
21
-1.0633858267716536
0
LINE
8
BLACK
6
CONTINUOUS
10
3.4677165354330706
20
-1.0633858267716536
11
3.4677165354330706
21
-1.1452755905511811
0
LINE
8
BLACK
6
CONTINUOUS
10
3.4677165354330706
20
-1.1452755905511811
11
3.4669373622047241
21
-1.1491928346456692
0
LINE
8
BLACK
6
CONTINUOUS
10
3.4669373622047241
20
-1.1491928346456692
11
3.4647184251968501
21
-1.1525137007874016
0
LINE
8
BLACK
6
CONTINUOUS
10
3.4647184251968501
20
-1.1525137007874016
11
3.461397559055118
21
-1.1547326377952756
0
LINE
8
BLACK
6
CONTINUOUS
10
3.461397559055118
20
-1.1547326377952756
11
3.4574803149606299
21
-1.155511811023622
0
LINE
8
BLACK
6
CONTINUOUS
10
3.4574803149606299
20
-1.155511811023622
11
3.3736220472440945
21
-1.155511811023622
0
LINE
8
BLACK
6
CONTINUOUS
10
3.3736220472440945
20
-1.155511811023622
11
3.3697048031496064
21
-1.1547326377952756
0
LINE
8
BLACK
6
CONTINUOUS
10
3.3697048031496064
20
-1.1547326377952756
11
3.3663839370078739
21
-1.1525137007874016
0
LINE
8
BLACK
6
CONTINUOUS
10
3.3663839370078739
20
-1.1525137007874016
11
3.3641649999999998
21
-1.1491928346456692
0
LINE
8
BLACK
6
CONTINUOUS
10
3.3641649999999998
20
-1.1491928346456692
11
3.3633858267716534
21
-1.1452755905511811
0
LINE
8
BLACK
6
CONTINUOUS
10
3.3633858267716534
20
-1.1452755905511811
11
3.3633858267716534
21
-1.0633858267716536
0
LINE
8
BLACK
6
CONTINUOUS
10
3.3633858267716534
20
-1.0633858267716536
11
3.3641649999999998
21
-1.0594685826771653
0
LINE
8
BLACK
6
CONTINUOUS
10
3.3641649999999998
20
-1.0594685826771653
11
3.3663839370078739
21
-1.0561477165354332
0
LINE
8
BLACK
6
CONTINUOUS
10
3.3663839370078739
20
-1.0561477165354332
11
3.3697048031496064
21
-1.0539287795275589
0
LINE
8
BLACK
6
CONTINUOUS
10
3.3697048031496064
20
-1.0539287795275589
11
3.3736220472440945
21
-1.0531496062992125
0
LINE
8
BLACK
6
CONTINUOUS
10
3.3736220472440945
20
-1.0531496062992125
11
3.4574803149606299
21
-1.0531496062992125
0
LINE
8
BLACK
6
CONTINUOUS
10
3.4574803149606299
20
-1.0531496062992125
11
3.461397559055118
21
-1.0539287795275589
  0
ENDSEC
  0
EOF
