<?xml version="1.0" standalone="no"?>
 <!DOCTYPE svg PUBLIC "-//W3C//DTD SVG 1.1//EN" 
 "http://www.w3.org/Graphics/SVG/1.1/DTD/svg11.dtd"> 
<svg
  xmlns:svg="http://www.w3.org/2000/svg"
  xmlns="http://www.w3.org/2000/svg"
  xmlns:xlink="http://www.w3.org/1999/xlink"
  version="1.1"
  width="297.0022mm" height="210.0072mm" viewBox="0.0000 0.0000 297.0022 210.0072">
<title>SVG Image created as numpad-B_Paste.svg date 2025/01/02 17:43:33 </title>
  <desc>Image generated by PCBNEW </desc>
<g style="fill:#000000; fill-opacity:1.0000;stroke:#000000; stroke-opacity:1.0000;
stroke-linecap:round; stroke-linejoin:round;"
 transform="translate(0 0) scale(1 1)">
<path style="fill:#000000; fill-opacity:1.0000; stroke:none;fill-rule:evenodd;"
d="M 68.6250,36.8000
68.5389,36.7829
68.4659,36.7341
68.4171,36.6611
68.4000,36.5750
68.4000,36.1250
68.4171,36.0389
68.4659,35.9659
68.5389,35.9171
68.6250,35.9000
69.3750,35.9000
69.4611,35.9171
69.5341,35.9659
69.5829,36.0389
69.6000,36.1250
69.6000,36.5750
69.5829,36.6611
69.5341,36.7341
69.4611,36.7829
69.3750,36.8000
Z" /> 
<path style="fill:#000000; fill-opacity:1.0000; stroke:none;fill-rule:evenodd;"
d="M 68.6250,33.5000
68.5389,33.4829
68.4659,33.4341
68.4171,33.3611
68.4000,33.2750
68.4000,32.8250
68.4171,32.7389
68.4659,32.6659
68.5389,32.6171
68.6250,32.6000
69.3750,32.6000
69.4611,32.6171
69.5341,32.6659
69.5829,32.7389
69.6000,32.8250
69.6000,33.2750
69.5829,33.3611
69.5341,33.4341
69.4611,33.4829
69.3750,33.5000
Z" /> 
<path style="fill:#000000; fill-opacity:1.0000; stroke:none;fill-rule:evenodd;"
d="M 96.9200,97.2100
96.9398,97.1105
96.9962,97.0262
97.0805,96.9698
97.1800,96.9500
99.3100,96.9500
99.4095,96.9698
99.4938,97.0262
99.5502,97.1105
99.5700,97.2100
99.5700,99.2900
99.5502,99.3895
99.4938,99.4738
99.4095,99.5302
99.3100,99.5500
97.1800,99.5500
97.0805,99.5302
96.9962,99.4738
96.9398,99.3895
96.9200,99.2900
Z" /> 
<path style="fill:#000000; fill-opacity:1.0000; stroke:none;fill-rule:evenodd;"
d="M 85.4300,95.0100
85.4498,94.9105
85.5062,94.8262
85.5905,94.7698
85.6900,94.7500
87.8200,94.7500
87.9195,94.7698
88.0038,94.8262
88.0602,94.9105
88.0800,95.0100
88.0800,97.0900
88.0602,97.1895
88.0038,97.2738
87.9195,97.3302
87.8200,97.3500
85.6900,97.3500
85.5905,97.3302
85.5062,97.2738
85.4498,97.1895
85.4300,97.0900
Z" /> 
<path style="fill:#000000; fill-opacity:1.0000; stroke:none;fill-rule:evenodd;"
d="M 60.9200,29.2100
60.9398,29.1105
60.9962,29.0262
61.0805,28.9698
61.1800,28.9500
63.3100,28.9500
63.4095,28.9698
63.4938,29.0262
63.5502,29.1105
63.5700,29.2100
63.5700,31.2900
63.5502,31.3895
63.4938,31.4738
63.4095,31.5302
63.3100,31.5500
61.1800,31.5500
61.0805,31.5302
60.9962,31.4738
60.9398,31.3895
60.9200,31.2900
Z" /> 
<path style="fill:#000000; fill-opacity:1.0000; stroke:none;fill-rule:evenodd;"
d="M 49.4300,27.0100
49.4498,26.9105
49.5062,26.8262
49.5905,26.7698
49.6900,26.7500
51.8200,26.7500
51.9195,26.7698
52.0038,26.8262
52.0602,26.9105
52.0800,27.0100
52.0800,29.0900
52.0602,29.1895
52.0038,29.2738
51.9195,29.3302
51.8200,29.3500
49.6900,29.3500
49.5905,29.3302
49.5062,29.2738
49.4498,29.1895
49.4300,29.0900
Z" /> 
<path style="fill:#000000; fill-opacity:1.0000; stroke:none;fill-rule:evenodd;"
d="M 50.6250,36.8000
50.5389,36.7829
50.4659,36.7341
50.4171,36.6611
50.4000,36.5750
50.4000,36.1250
50.4171,36.0389
50.4659,35.9659
50.5389,35.9171
50.6250,35.9000
51.3750,35.9000
51.4611,35.9171
51.5341,35.9659
51.5829,36.0389
51.6000,36.1250
51.6000,36.5750
51.5829,36.6611
51.5341,36.7341
51.4611,36.7829
51.3750,36.8000
Z" /> 
<path style="fill:#000000; fill-opacity:1.0000; stroke:none;fill-rule:evenodd;"
d="M 50.6250,33.5000
50.5389,33.4829
50.4659,33.4341
50.4171,33.3611
50.4000,33.2750
50.4000,32.8250
50.4171,32.7389
50.4659,32.6659
50.5389,32.6171
50.6250,32.6000
51.3750,32.6000
51.4611,32.6171
51.5341,32.6659
51.5829,32.7389
51.6000,32.8250
51.6000,33.2750
51.5829,33.3611
51.5341,33.4341
51.4611,33.4829
51.3750,33.5000
Z" /> 
<path style="fill:#000000; fill-opacity:1.0000; stroke:none;fill-rule:evenodd;"
d="M 86.6250,104.8000
86.5389,104.7829
86.4659,104.7341
86.4171,104.6611
86.4000,104.5750
86.4000,104.1250
86.4171,104.0389
86.4659,103.9659
86.5389,103.9171
86.6250,103.9000
87.3750,103.9000
87.4611,103.9171
87.5341,103.9659
87.5829,104.0389
87.6000,104.1250
87.6000,104.5750
87.5829,104.6611
87.5341,104.7341
87.4611,104.7829
87.3750,104.8000
Z" /> 
<path style="fill:#000000; fill-opacity:1.0000; stroke:none;fill-rule:evenodd;"
d="M 86.6250,101.5000
86.5389,101.4829
86.4659,101.4341
86.4171,101.3611
86.4000,101.2750
86.4000,100.8250
86.4171,100.7389
86.4659,100.6659
86.5389,100.6171
86.6250,100.6000
87.3750,100.6000
87.4611,100.6171
87.5341,100.6659
87.5829,100.7389
87.6000,100.8250
87.6000,101.2750
87.5829,101.3611
87.5341,101.4341
87.4611,101.4829
87.3750,101.5000
Z" /> 
<path style="fill:#000000; fill-opacity:1.0000; stroke:none;fill-rule:evenodd;"
d="M 32.6250,53.8000
32.5389,53.7829
32.4659,53.7341
32.4171,53.6611
32.4000,53.5750
32.4000,53.1250
32.4171,53.0389
32.4659,52.9659
32.5389,52.9171
32.6250,52.9000
33.3750,52.9000
33.4611,52.9171
33.5341,52.9659
33.5829,53.0389
33.6000,53.1250
33.6000,53.5750
33.5829,53.6611
33.5341,53.7341
33.4611,53.7829
33.3750,53.8000
Z" /> 
<path style="fill:#000000; fill-opacity:1.0000; stroke:none;fill-rule:evenodd;"
d="M 32.6250,50.5000
32.5389,50.4829
32.4659,50.4341
32.4171,50.3611
32.4000,50.2750
32.4000,49.8250
32.4171,49.7389
32.4659,49.6659
32.5389,49.6171
32.6250,49.6000
33.3750,49.6000
33.4611,49.6171
33.5341,49.6659
33.5829,49.7389
33.6000,49.8250
33.6000,50.2750
33.5829,50.3611
33.5341,50.4341
33.4611,50.4829
33.3750,50.5000
Z" /> 
<path style="fill:#000000; fill-opacity:1.0000; stroke:none;fill-rule:evenodd;"
d="M 60.9200,97.2100
60.9398,97.1105
60.9962,97.0262
61.0805,96.9698
61.1800,96.9500
63.3100,96.9500
63.4095,96.9698
63.4938,97.0262
63.5502,97.1105
63.5700,97.2100
63.5700,99.2900
63.5502,99.3895
63.4938,99.4738
63.4095,99.5302
63.3100,99.5500
61.1800,99.5500
61.0805,99.5302
60.9962,99.4738
60.9398,99.3895
60.9200,99.2900
Z" /> 
<path style="fill:#000000; fill-opacity:1.0000; stroke:none;fill-rule:evenodd;"
d="M 49.4300,95.0100
49.4498,94.9105
49.5062,94.8262
49.5905,94.7698
49.6900,94.7500
51.8200,94.7500
51.9195,94.7698
52.0038,94.8262
52.0602,94.9105
52.0800,95.0100
52.0800,97.0900
52.0602,97.1895
52.0038,97.2738
51.9195,97.3302
51.8200,97.3500
49.6900,97.3500
49.5905,97.3302
49.5062,97.2738
49.4498,97.1895
49.4300,97.0900
Z" /> 
<path style="fill:#000000; fill-opacity:1.0000; stroke:none;fill-rule:evenodd;"
d="M 50.6250,70.8000
50.5389,70.7829
50.4659,70.7341
50.4171,70.6611
50.4000,70.5750
50.4000,70.1250
50.4171,70.0389
50.4659,69.9659
50.5389,69.9171
50.6250,69.9000
51.3750,69.9000
51.4611,69.9171
51.5341,69.9659
51.5829,70.0389
51.6000,70.1250
51.6000,70.5750
51.5829,70.6611
51.5341,70.7341
51.4611,70.7829
51.3750,70.8000
Z" /> 
<path style="fill:#000000; fill-opacity:1.0000; stroke:none;fill-rule:evenodd;"
d="M 50.6250,67.5000
50.5389,67.4829
50.4659,67.4341
50.4171,67.3611
50.4000,67.2750
50.4000,66.8250
50.4171,66.7389
50.4659,66.6659
50.5389,66.6171
50.6250,66.6000
51.3750,66.6000
51.4611,66.6171
51.5341,66.6659
51.5829,66.7389
51.6000,66.8250
51.6000,67.2750
51.5829,67.3611
51.5341,67.4341
51.4611,67.4829
51.3750,67.5000
Z" /> 
<path style="fill:#000000; fill-opacity:1.0000; stroke:none;fill-rule:evenodd;"
d="M 78.9200,29.2100
78.9398,29.1105
78.9962,29.0262
79.0805,28.9698
79.1800,28.9500
81.3100,28.9500
81.4095,28.9698
81.4938,29.0262
81.5502,29.1105
81.5700,29.2100
81.5700,31.2900
81.5502,31.3895
81.4938,31.4738
81.4095,31.5302
81.3100,31.5500
79.1800,31.5500
79.0805,31.5302
78.9962,31.4738
78.9398,31.3895
78.9200,31.2900
Z" /> 
<path style="fill:#000000; fill-opacity:1.0000; stroke:none;fill-rule:evenodd;"
d="M 67.4300,27.0100
67.4498,26.9105
67.5062,26.8262
67.5905,26.7698
67.6900,26.7500
69.8200,26.7500
69.9195,26.7698
70.0038,26.8262
70.0602,26.9105
70.0800,27.0100
70.0800,29.0900
70.0602,29.1895
70.0038,29.2738
69.9195,29.3302
69.8200,29.3500
67.6900,29.3500
67.5905,29.3302
67.5062,29.2738
67.4498,29.1895
67.4300,29.0900
Z" /> 
<path style="fill:#000000; fill-opacity:1.0000; stroke:none;fill-rule:evenodd;"
d="M 32.6250,87.8000
32.5389,87.7829
32.4659,87.7341
32.4171,87.6611
32.4000,87.5750
32.4000,87.1250
32.4171,87.0389
32.4659,86.9659
32.5389,86.9171
32.6250,86.9000
33.3750,86.9000
33.4611,86.9171
33.5341,86.9659
33.5829,87.0389
33.6000,87.1250
33.6000,87.5750
33.5829,87.6611
33.5341,87.7341
33.4611,87.7829
33.3750,87.8000
Z" /> 
<path style="fill:#000000; fill-opacity:1.0000; stroke:none;fill-rule:evenodd;"
d="M 32.6250,84.5000
32.5389,84.4829
32.4659,84.4341
32.4171,84.3611
32.4000,84.2750
32.4000,83.8250
32.4171,83.7389
32.4659,83.6659
32.5389,83.6171
32.6250,83.6000
33.3750,83.6000
33.4611,83.6171
33.5341,83.6659
33.5829,83.7389
33.6000,83.8250
33.6000,84.2750
33.5829,84.3611
33.5341,84.4341
33.4611,84.4829
33.3750,84.5000
Z" /> 
<path style="fill:#000000; fill-opacity:1.0000; stroke:none;fill-rule:evenodd;"
d="M 42.9200,46.2100
42.9398,46.1105
42.9962,46.0262
43.0805,45.9698
43.1800,45.9500
45.3100,45.9500
45.4095,45.9698
45.4938,46.0262
45.5502,46.1105
45.5700,46.2100
45.5700,48.2900
45.5502,48.3895
45.4938,48.4738
45.4095,48.5302
45.3100,48.5500
43.1800,48.5500
43.0805,48.5302
42.9962,48.4738
42.9398,48.3895
42.9200,48.2900
Z" /> 
<path style="fill:#000000; fill-opacity:1.0000; stroke:none;fill-rule:evenodd;"
d="M 31.4300,44.0100
31.4498,43.9105
31.5062,43.8262
31.5905,43.7698
31.6900,43.7500
33.8200,43.7500
33.9195,43.7698
34.0038,43.8262
34.0602,43.9105
34.0800,44.0100
34.0800,46.0900
34.0602,46.1895
34.0038,46.2738
33.9195,46.3302
33.8200,46.3500
31.6900,46.3500
31.5905,46.3302
31.5062,46.2738
31.4498,46.1895
31.4300,46.0900
Z" /> 
<path style="fill:#000000; fill-opacity:1.0000; stroke:none;fill-rule:evenodd;"
d="M 96.9200,63.2100
96.9398,63.1105
96.9962,63.0262
97.0805,62.9698
97.1800,62.9500
99.3100,62.9500
99.4095,62.9698
99.4938,63.0262
99.5502,63.1105
99.5700,63.2100
99.5700,65.2900
99.5502,65.3895
99.4938,65.4738
99.4095,65.5302
99.3100,65.5500
97.1800,65.5500
97.0805,65.5302
96.9962,65.4738
96.9398,65.3895
96.9200,65.2900
Z" /> 
<path style="fill:#000000; fill-opacity:1.0000; stroke:none;fill-rule:evenodd;"
d="M 85.4300,61.0100
85.4498,60.9105
85.5062,60.8262
85.5905,60.7698
85.6900,60.7500
87.8200,60.7500
87.9195,60.7698
88.0038,60.8262
88.0602,60.9105
88.0800,61.0100
88.0800,63.0900
88.0602,63.1895
88.0038,63.2738
87.9195,63.3302
87.8200,63.3500
85.6900,63.3500
85.5905,63.3302
85.5062,63.2738
85.4498,63.1895
85.4300,63.0900
Z" /> 
<path style="fill:#000000; fill-opacity:1.0000; stroke:none;fill-rule:evenodd;"
d="M 50.6250,53.8000
50.5389,53.7829
50.4659,53.7341
50.4171,53.6611
50.4000,53.5750
50.4000,53.1250
50.4171,53.0389
50.4659,52.9659
50.5389,52.9171
50.6250,52.9000
51.3750,52.9000
51.4611,52.9171
51.5341,52.9659
51.5829,53.0389
51.6000,53.1250
51.6000,53.5750
51.5829,53.6611
51.5341,53.7341
51.4611,53.7829
51.3750,53.8000
Z" /> 
<path style="fill:#000000; fill-opacity:1.0000; stroke:none;fill-rule:evenodd;"
d="M 50.6250,50.5000
50.5389,50.4829
50.4659,50.4341
50.4171,50.3611
50.4000,50.2750
50.4000,49.8250
50.4171,49.7389
50.4659,49.6659
50.5389,49.6171
50.6250,49.6000
51.3750,49.6000
51.4611,49.6171
51.5341,49.6659
51.5829,49.7389
51.6000,49.8250
51.6000,50.2750
51.5829,50.3611
51.5341,50.4341
51.4611,50.4829
51.3750,50.5000
Z" /> 
<path style="fill:#000000; fill-opacity:1.0000; stroke:none;fill-rule:evenodd;"
d="M 42.9200,63.2100
42.9398,63.1105
42.9962,63.0262
43.0805,62.9698
43.1800,62.9500
45.3100,62.9500
45.4095,62.9698
45.4938,63.0262
45.5502,63.1105
45.5700,63.2100
45.5700,65.2900
45.5502,65.3895
45.4938,65.4738
45.4095,65.5302
45.3100,65.5500
43.1800,65.5500
43.0805,65.5302
42.9962,65.4738
42.9398,65.3895
42.9200,65.2900
Z" /> 
<path style="fill:#000000; fill-opacity:1.0000; stroke:none;fill-rule:evenodd;"
d="M 31.4300,61.0100
31.4498,60.9105
31.5062,60.8262
31.5905,60.7698
31.6900,60.7500
33.8200,60.7500
33.9195,60.7698
34.0038,60.8262
34.0602,60.9105
34.0800,61.0100
34.0800,63.0900
34.0602,63.1895
34.0038,63.2738
33.9195,63.3302
33.8200,63.3500
31.6900,63.3500
31.5905,63.3302
31.5062,63.2738
31.4498,63.1895
31.4300,63.0900
Z" /> 
<path style="fill:#000000; fill-opacity:1.0000; stroke:none;fill-rule:evenodd;"
d="M 60.9200,63.2100
60.9398,63.1105
60.9962,63.0262
61.0805,62.9698
61.1800,62.9500
63.3100,62.9500
63.4095,62.9698
63.4938,63.0262
63.5502,63.1105
63.5700,63.2100
63.5700,65.2900
63.5502,65.3895
63.4938,65.4738
63.4095,65.5302
63.3100,65.5500
61.1800,65.5500
61.0805,65.5302
60.9962,65.4738
60.9398,65.3895
60.9200,65.2900
Z" /> 
<path style="fill:#000000; fill-opacity:1.0000; stroke:none;fill-rule:evenodd;"
d="M 49.4300,61.0100
49.4498,60.9105
49.5062,60.8262
49.5905,60.7698
49.6900,60.7500
51.8200,60.7500
51.9195,60.7698
52.0038,60.8262
52.0602,60.9105
52.0800,61.0100
52.0800,63.0900
52.0602,63.1895
52.0038,63.2738
51.9195,63.3302
51.8200,63.3500
49.6900,63.3500
49.5905,63.3302
49.5062,63.2738
49.4498,63.1895
49.4300,63.0900
Z" /> 
<path style="fill:#000000; fill-opacity:1.0000; stroke:none;fill-rule:evenodd;"
d="M 32.6250,70.8000
32.5389,70.7829
32.4659,70.7341
32.4171,70.6611
32.4000,70.5750
32.4000,70.1250
32.4171,70.0389
32.4659,69.9659
32.5389,69.9171
32.6250,69.9000
33.3750,69.9000
33.4611,69.9171
33.5341,69.9659
33.5829,70.0389
33.6000,70.1250
33.6000,70.5750
33.5829,70.6611
33.5341,70.7341
33.4611,70.7829
33.3750,70.8000
Z" /> 
<path style="fill:#000000; fill-opacity:1.0000; stroke:none;fill-rule:evenodd;"
d="M 32.6250,67.5000
32.5389,67.4829
32.4659,67.4341
32.4171,67.3611
32.4000,67.2750
32.4000,66.8250
32.4171,66.7389
32.4659,66.6659
32.5389,66.6171
32.6250,66.6000
33.3750,66.6000
33.4611,66.6171
33.5341,66.6659
33.5829,66.7389
33.6000,66.8250
33.6000,67.2750
33.5829,67.3611
33.5341,67.4341
33.4611,67.4829
33.3750,67.5000
Z" /> 
<path style="fill:#000000; fill-opacity:1.0000; stroke:none;fill-rule:evenodd;"
d="M 60.9200,80.2100
60.9398,80.1105
60.9962,80.0262
61.0805,79.9698
61.1800,79.9500
63.3100,79.9500
63.4095,79.9698
63.4938,80.0262
63.5502,80.1105
63.5700,80.2100
63.5700,82.2900
63.5502,82.3895
63.4938,82.4738
63.4095,82.5302
63.3100,82.5500
61.1800,82.5500
61.0805,82.5302
60.9962,82.4738
60.9398,82.3895
60.9200,82.2900
Z" /> 
<path style="fill:#000000; fill-opacity:1.0000; stroke:none;fill-rule:evenodd;"
d="M 49.4300,78.0100
49.4498,77.9105
49.5062,77.8262
49.5905,77.7698
49.6900,77.7500
51.8200,77.7500
51.9195,77.7698
52.0038,77.8262
52.0602,77.9105
52.0800,78.0100
52.0800,80.0900
52.0602,80.1895
52.0038,80.2738
51.9195,80.3302
51.8200,80.3500
49.6900,80.3500
49.5905,80.3302
49.5062,80.2738
49.4498,80.1895
49.4300,80.0900
Z" /> 
<path style="fill:#000000; fill-opacity:1.0000; stroke:none;fill-rule:evenodd;"
d="M 78.9200,63.2100
78.9398,63.1105
78.9962,63.0262
79.0805,62.9698
79.1800,62.9500
81.3100,62.9500
81.4095,62.9698
81.4938,63.0262
81.5502,63.1105
81.5700,63.2100
81.5700,65.2900
81.5502,65.3895
81.4938,65.4738
81.4095,65.5302
81.3100,65.5500
79.1800,65.5500
79.0805,65.5302
78.9962,65.4738
78.9398,65.3895
78.9200,65.2900
Z" /> 
<path style="fill:#000000; fill-opacity:1.0000; stroke:none;fill-rule:evenodd;"
d="M 67.4300,61.0100
67.4498,60.9105
67.5062,60.8262
67.5905,60.7698
67.6900,60.7500
69.8200,60.7500
69.9195,60.7698
70.0038,60.8262
70.0602,60.9105
70.0800,61.0100
70.0800,63.0900
70.0602,63.1895
70.0038,63.2738
69.9195,63.3302
69.8200,63.3500
67.6900,63.3500
67.5905,63.3302
67.5062,63.2738
67.4498,63.1895
67.4300,63.0900
Z" /> 
<path style="fill:#000000; fill-opacity:1.0000; stroke:none;fill-rule:evenodd;"
d="M 50.6250,87.8000
50.5389,87.7829
50.4659,87.7341
50.4171,87.6611
50.4000,87.5750
50.4000,87.1250
50.4171,87.0389
50.4659,86.9659
50.5389,86.9171
50.6250,86.9000
51.3750,86.9000
51.4611,86.9171
51.5341,86.9659
51.5829,87.0389
51.6000,87.1250
51.6000,87.5750
51.5829,87.6611
51.5341,87.7341
51.4611,87.7829
51.3750,87.8000
Z" /> 
<path style="fill:#000000; fill-opacity:1.0000; stroke:none;fill-rule:evenodd;"
d="M 50.6250,84.5000
50.5389,84.4829
50.4659,84.4341
50.4171,84.3611
50.4000,84.2750
50.4000,83.8250
50.4171,83.7389
50.4659,83.6659
50.5389,83.6171
50.6250,83.6000
51.3750,83.6000
51.4611,83.6171
51.5341,83.6659
51.5829,83.7389
51.6000,83.8250
51.6000,84.2750
51.5829,84.3611
51.5341,84.4341
51.4611,84.4829
51.3750,84.5000
Z" /> 
<path style="fill:#000000; fill-opacity:1.0000; stroke:none;fill-rule:evenodd;"
d="M 78.9200,97.2100
78.9398,97.1105
78.9962,97.0262
79.0805,96.9698
79.1800,96.9500
81.3100,96.9500
81.4095,96.9698
81.4938,97.0262
81.5502,97.1105
81.5700,97.2100
81.5700,99.2900
81.5502,99.3895
81.4938,99.4738
81.4095,99.5302
81.3100,99.5500
79.1800,99.5500
79.0805,99.5302
78.9962,99.4738
78.9398,99.3895
78.9200,99.2900
Z" /> 
<path style="fill:#000000; fill-opacity:1.0000; stroke:none;fill-rule:evenodd;"
d="M 67.4300,95.0100
67.4498,94.9105
67.5062,94.8262
67.5905,94.7698
67.6900,94.7500
69.8200,94.7500
69.9195,94.7698
70.0038,94.8262
70.0602,94.9105
70.0800,95.0100
70.0800,97.0900
70.0602,97.1895
70.0038,97.2738
69.9195,97.3302
69.8200,97.3500
67.6900,97.3500
67.5905,97.3302
67.5062,97.2738
67.4498,97.1895
67.4300,97.0900
Z" /> 
<path style="fill:#000000; fill-opacity:1.0000; stroke:none;fill-rule:evenodd;"
d="M 42.9200,97.2100
42.9398,97.1105
42.9962,97.0262
43.0805,96.9698
43.1800,96.9500
45.3100,96.9500
45.4095,96.9698
45.4938,97.0262
45.5502,97.1105
45.5700,97.2100
45.5700,99.2900
45.5502,99.3895
45.4938,99.4738
45.4095,99.5302
45.3100,99.5500
43.1800,99.5500
43.0805,99.5302
42.9962,99.4738
42.9398,99.3895
42.9200,99.2900
Z" /> 
<path style="fill:#000000; fill-opacity:1.0000; stroke:none;fill-rule:evenodd;"
d="M 31.4300,95.0100
31.4498,94.9105
31.5062,94.8262
31.5905,94.7698
31.6900,94.7500
33.8200,94.7500
33.9195,94.7698
34.0038,94.8262
34.0602,94.9105
34.0800,95.0100
34.0800,97.0900
34.0602,97.1895
34.0038,97.2738
33.9195,97.3302
33.8200,97.3500
31.6900,97.3500
31.5905,97.3302
31.5062,97.2738
31.4498,97.1895
31.4300,97.0900
Z" /> 
<path style="fill:#000000; fill-opacity:1.0000; stroke:none;fill-rule:evenodd;"
d="M 86.6250,87.8000
86.5389,87.7829
86.4659,87.7341
86.4171,87.6611
86.4000,87.5750
86.4000,87.1250
86.4171,87.0389
86.4659,86.9659
86.5389,86.9171
86.6250,86.9000
87.3750,86.9000
87.4611,86.9171
87.5341,86.9659
87.5829,87.0389
87.6000,87.1250
87.6000,87.5750
87.5829,87.6611
87.5341,87.7341
87.4611,87.7829
87.3750,87.8000
Z" /> 
<path style="fill:#000000; fill-opacity:1.0000; stroke:none;fill-rule:evenodd;"
d="M 86.6250,84.5000
86.5389,84.4829
86.4659,84.4341
86.4171,84.3611
86.4000,84.2750
86.4000,83.8250
86.4171,83.7389
86.4659,83.6659
86.5389,83.6171
86.6250,83.6000
87.3750,83.6000
87.4611,83.6171
87.5341,83.6659
87.5829,83.7389
87.6000,83.8250
87.6000,84.2750
87.5829,84.3611
87.5341,84.4341
87.4611,84.4829
87.3750,84.5000
Z" /> 
<path style="fill:#000000; fill-opacity:1.0000; stroke:none;fill-rule:evenodd;"
d="M 60.9200,46.2100
60.9398,46.1105
60.9962,46.0262
61.0805,45.9698
61.1800,45.9500
63.3100,45.9500
63.4095,45.9698
63.4938,46.0262
63.5502,46.1105
63.5700,46.2100
63.5700,48.2900
63.5502,48.3895
63.4938,48.4738
63.4095,48.5302
63.3100,48.5500
61.1800,48.5500
61.0805,48.5302
60.9962,48.4738
60.9398,48.3895
60.9200,48.2900
Z" /> 
<path style="fill:#000000; fill-opacity:1.0000; stroke:none;fill-rule:evenodd;"
d="M 49.4300,44.0100
49.4498,43.9105
49.5062,43.8262
49.5905,43.7698
49.6900,43.7500
51.8200,43.7500
51.9195,43.7698
52.0038,43.8262
52.0602,43.9105
52.0800,44.0100
52.0800,46.0900
52.0602,46.1895
52.0038,46.2738
51.9195,46.3302
51.8200,46.3500
49.6900,46.3500
49.5905,46.3302
49.5062,46.2738
49.4498,46.1895
49.4300,46.0900
Z" /> 
<path style="fill:#000000; fill-opacity:1.0000; stroke:none;fill-rule:evenodd;"
d="M 96.9200,46.2100
96.9398,46.1105
96.9962,46.0262
97.0805,45.9698
97.1800,45.9500
99.3100,45.9500
99.4095,45.9698
99.4938,46.0262
99.5502,46.1105
99.5700,46.2100
99.5700,48.2900
99.5502,48.3895
99.4938,48.4738
99.4095,48.5302
99.3100,48.5500
97.1800,48.5500
97.0805,48.5302
96.9962,48.4738
96.9398,48.3895
96.9200,48.2900
Z" /> 
<path style="fill:#000000; fill-opacity:1.0000; stroke:none;fill-rule:evenodd;"
d="M 85.4300,44.0100
85.4498,43.9105
85.5062,43.8262
85.5905,43.7698
85.6900,43.7500
87.8200,43.7500
87.9195,43.7698
88.0038,43.8262
88.0602,43.9105
88.0800,44.0100
88.0800,46.0900
88.0602,46.1895
88.0038,46.2738
87.9195,46.3302
87.8200,46.3500
85.6900,46.3500
85.5905,46.3302
85.5062,46.2738
85.4498,46.1895
85.4300,46.0900
Z" /> 
<path style="fill:#000000; fill-opacity:1.0000; stroke:none;fill-rule:evenodd;"
d="M 68.6250,53.8000
68.5389,53.7829
68.4659,53.7341
68.4171,53.6611
68.4000,53.5750
68.4000,53.1250
68.4171,53.0389
68.4659,52.9659
68.5389,52.9171
68.6250,52.9000
69.3750,52.9000
69.4611,52.9171
69.5341,52.9659
69.5829,53.0389
69.6000,53.1250
69.6000,53.5750
69.5829,53.6611
69.5341,53.7341
69.4611,53.7829
69.3750,53.8000
Z" /> 
<path style="fill:#000000; fill-opacity:1.0000; stroke:none;fill-rule:evenodd;"
d="M 68.6250,50.5000
68.5389,50.4829
68.4659,50.4341
68.4171,50.3611
68.4000,50.2750
68.4000,49.8250
68.4171,49.7389
68.4659,49.6659
68.5389,49.6171
68.6250,49.6000
69.3750,49.6000
69.4611,49.6171
69.5341,49.6659
69.5829,49.7389
69.6000,49.8250
69.6000,50.2750
69.5829,50.3611
69.5341,50.4341
69.4611,50.4829
69.3750,50.5000
Z" /> 
<path style="fill:#000000; fill-opacity:1.0000; stroke:none;fill-rule:evenodd;"
d="M 50.6250,104.8000
50.5389,104.7829
50.4659,104.7341
50.4171,104.6611
50.4000,104.5750
50.4000,104.1250
50.4171,104.0389
50.4659,103.9659
50.5389,103.9171
50.6250,103.9000
51.3750,103.9000
51.4611,103.9171
51.5341,103.9659
51.5829,104.0389
51.6000,104.1250
51.6000,104.5750
51.5829,104.6611
51.5341,104.7341
51.4611,104.7829
51.3750,104.8000
Z" /> 
<path style="fill:#000000; fill-opacity:1.0000; stroke:none;fill-rule:evenodd;"
d="M 50.6250,101.5000
50.5389,101.4829
50.4659,101.4341
50.4171,101.3611
50.4000,101.2750
50.4000,100.8250
50.4171,100.7389
50.4659,100.6659
50.5389,100.6171
50.6250,100.6000
51.3750,100.6000
51.4611,100.6171
51.5341,100.6659
51.5829,100.7389
51.6000,100.8250
51.6000,101.2750
51.5829,101.3611
51.5341,101.4341
51.4611,101.4829
51.3750,101.5000
Z" /> 
<path style="fill:#000000; fill-opacity:1.0000; stroke:none;fill-rule:evenodd;"
d="M 42.9200,29.2100
42.9398,29.1105
42.9962,29.0262
43.0805,28.9698
43.1800,28.9500
45.3100,28.9500
45.4095,28.9698
45.4938,29.0262
45.5502,29.1105
45.5700,29.2100
45.5700,31.2900
45.5502,31.3895
45.4938,31.4738
45.4095,31.5302
45.3100,31.5500
43.1800,31.5500
43.0805,31.5302
42.9962,31.4738
42.9398,31.3895
42.9200,31.2900
Z" /> 
<path style="fill:#000000; fill-opacity:1.0000; stroke:none;fill-rule:evenodd;"
d="M 31.4300,27.0100
31.4498,26.9105
31.5062,26.8262
31.5905,26.7698
31.6900,26.7500
33.8200,26.7500
33.9195,26.7698
34.0038,26.8262
34.0602,26.9105
34.0800,27.0100
34.0800,29.0900
34.0602,29.1895
34.0038,29.2738
33.9195,29.3302
33.8200,29.3500
31.6900,29.3500
31.5905,29.3302
31.5062,29.2738
31.4498,29.1895
31.4300,29.0900
Z" /> 
<path style="fill:#000000; fill-opacity:1.0000; stroke:none;fill-rule:evenodd;"
d="M 96.9200,80.2100
96.9398,80.1105
96.9962,80.0262
97.0805,79.9698
97.1800,79.9500
99.3100,79.9500
99.4095,79.9698
99.4938,80.0262
99.5502,80.1105
99.5700,80.2100
99.5700,82.2900
99.5502,82.3895
99.4938,82.4738
99.4095,82.5302
99.3100,82.5500
97.1800,82.5500
97.0805,82.5302
96.9962,82.4738
96.9398,82.3895
96.9200,82.2900
Z" /> 
<path style="fill:#000000; fill-opacity:1.0000; stroke:none;fill-rule:evenodd;"
d="M 85.4300,78.0100
85.4498,77.9105
85.5062,77.8262
85.5905,77.7698
85.6900,77.7500
87.8200,77.7500
87.9195,77.7698
88.0038,77.8262
88.0602,77.9105
88.0800,78.0100
88.0800,80.0900
88.0602,80.1895
88.0038,80.2738
87.9195,80.3302
87.8200,80.3500
85.6900,80.3500
85.5905,80.3302
85.5062,80.2738
85.4498,80.1895
85.4300,80.0900
Z" /> 
<path style="fill:#000000; fill-opacity:1.0000; stroke:none;fill-rule:evenodd;"
d="M 68.6250,70.8000
68.5389,70.7829
68.4659,70.7341
68.4171,70.6611
68.4000,70.5750
68.4000,70.1250
68.4171,70.0389
68.4659,69.9659
68.5389,69.9171
68.6250,69.9000
69.3750,69.9000
69.4611,69.9171
69.5341,69.9659
69.5829,70.0389
69.6000,70.1250
69.6000,70.5750
69.5829,70.6611
69.5341,70.7341
69.4611,70.7829
69.3750,70.8000
Z" /> 
<path style="fill:#000000; fill-opacity:1.0000; stroke:none;fill-rule:evenodd;"
d="M 68.6250,67.5000
68.5389,67.4829
68.4659,67.4341
68.4171,67.3611
68.4000,67.2750
68.4000,66.8250
68.4171,66.7389
68.4659,66.6659
68.5389,66.6171
68.6250,66.6000
69.3750,66.6000
69.4611,66.6171
69.5341,66.6659
69.5829,66.7389
69.6000,66.8250
69.6000,67.2750
69.5829,67.3611
69.5341,67.4341
69.4611,67.4829
69.3750,67.5000
Z" /> 
<path style="fill:#000000; fill-opacity:1.0000; stroke:none;fill-rule:evenodd;"
d="M 86.6250,36.8000
86.5389,36.7829
86.4659,36.7341
86.4171,36.6611
86.4000,36.5750
86.4000,36.1250
86.4171,36.0389
86.4659,35.9659
86.5389,35.9171
86.6250,35.9000
87.3750,35.9000
87.4611,35.9171
87.5341,35.9659
87.5829,36.0389
87.6000,36.1250
87.6000,36.5750
87.5829,36.6611
87.5341,36.7341
87.4611,36.7829
87.3750,36.8000
Z" /> 
<path style="fill:#000000; fill-opacity:1.0000; stroke:none;fill-rule:evenodd;"
d="M 86.6250,33.5000
86.5389,33.4829
86.4659,33.4341
86.4171,33.3611
86.4000,33.2750
86.4000,32.8250
86.4171,32.7389
86.4659,32.6659
86.5389,32.6171
86.6250,32.6000
87.3750,32.6000
87.4611,32.6171
87.5341,32.6659
87.5829,32.7389
87.6000,32.8250
87.6000,33.2750
87.5829,33.3611
87.5341,33.4341
87.4611,33.4829
87.3750,33.5000
Z" /> 
<path style="fill:#000000; fill-opacity:1.0000; stroke:none;fill-rule:evenodd;"
d="M 78.9200,46.2100
78.9398,46.1105
78.9962,46.0262
79.0805,45.9698
79.1800,45.9500
81.3100,45.9500
81.4095,45.9698
81.4938,46.0262
81.5502,46.1105
81.5700,46.2100
81.5700,48.2900
81.5502,48.3895
81.4938,48.4738
81.4095,48.5302
81.3100,48.5500
79.1800,48.5500
79.0805,48.5302
78.9962,48.4738
78.9398,48.3895
78.9200,48.2900
Z" /> 
<path style="fill:#000000; fill-opacity:1.0000; stroke:none;fill-rule:evenodd;"
d="M 67.4300,44.0100
67.4498,43.9105
67.5062,43.8262
67.5905,43.7698
67.6900,43.7500
69.8200,43.7500
69.9195,43.7698
70.0038,43.8262
70.0602,43.9105
70.0800,44.0100
70.0800,46.0900
70.0602,46.1895
70.0038,46.2738
69.9195,46.3302
69.8200,46.3500
67.6900,46.3500
67.5905,46.3302
67.5062,46.2738
67.4498,46.1895
67.4300,46.0900
Z" /> 
<path style="fill:#000000; fill-opacity:1.0000; stroke:none;fill-rule:evenodd;"
d="M 32.6250,104.8000
32.5389,104.7829
32.4659,104.7341
32.4171,104.6611
32.4000,104.5750
32.4000,104.1250
32.4171,104.0389
32.4659,103.9659
32.5389,103.9171
32.6250,103.9000
33.3750,103.9000
33.4611,103.9171
33.5341,103.9659
33.5829,104.0389
33.6000,104.1250
33.6000,104.5750
33.5829,104.6611
33.5341,104.7341
33.4611,104.7829
33.3750,104.8000
Z" /> 
<path style="fill:#000000; fill-opacity:1.0000; stroke:none;fill-rule:evenodd;"
d="M 32.6250,101.5000
32.5389,101.4829
32.4659,101.4341
32.4171,101.3611
32.4000,101.2750
32.4000,100.8250
32.4171,100.7389
32.4659,100.6659
32.5389,100.6171
32.6250,100.6000
33.3750,100.6000
33.4611,100.6171
33.5341,100.6659
33.5829,100.7389
33.6000,100.8250
33.6000,101.2750
33.5829,101.3611
33.5341,101.4341
33.4611,101.4829
33.3750,101.5000
Z" /> 
<path style="fill:#000000; fill-opacity:1.0000; stroke:none;fill-rule:evenodd;"
d="M 32.6250,36.8000
32.5389,36.7829
32.4659,36.7341
32.4171,36.6611
32.4000,36.5750
32.4000,36.1250
32.4171,36.0389
32.4659,35.9659
32.5389,35.9171
32.6250,35.9000
33.3750,35.9000
33.4611,35.9171
33.5341,35.9659
33.5829,36.0389
33.6000,36.1250
33.6000,36.5750
33.5829,36.6611
33.5341,36.7341
33.4611,36.7829
33.3750,36.8000
Z" /> 
<path style="fill:#000000; fill-opacity:1.0000; stroke:none;fill-rule:evenodd;"
d="M 32.6250,33.5000
32.5389,33.4829
32.4659,33.4341
32.4171,33.3611
32.4000,33.2750
32.4000,32.8250
32.4171,32.7389
32.4659,32.6659
32.5389,32.6171
32.6250,32.6000
33.3750,32.6000
33.4611,32.6171
33.5341,32.6659
33.5829,32.7389
33.6000,32.8250
33.6000,33.2750
33.5829,33.3611
33.5341,33.4341
33.4611,33.4829
33.3750,33.5000
Z" /> 
<path style="fill:#000000; fill-opacity:1.0000; stroke:none;fill-rule:evenodd;"
d="M 86.6250,53.8000
86.5389,53.7829
86.4659,53.7341
86.4171,53.6611
86.4000,53.5750
86.4000,53.1250
86.4171,53.0389
86.4659,52.9659
86.5389,52.9171
86.6250,52.9000
87.3750,52.9000
87.4611,52.9171
87.5341,52.9659
87.5829,53.0389
87.6000,53.1250
87.6000,53.5750
87.5829,53.6611
87.5341,53.7341
87.4611,53.7829
87.3750,53.8000
Z" /> 
<path style="fill:#000000; fill-opacity:1.0000; stroke:none;fill-rule:evenodd;"
d="M 86.6250,50.5000
86.5389,50.4829
86.4659,50.4341
86.4171,50.3611
86.4000,50.2750
86.4000,49.8250
86.4171,49.7389
86.4659,49.6659
86.5389,49.6171
86.6250,49.6000
87.3750,49.6000
87.4611,49.6171
87.5341,49.6659
87.5829,49.7389
87.6000,49.8250
87.6000,50.2750
87.5829,50.3611
87.5341,50.4341
87.4611,50.4829
87.3750,50.5000
Z" /> 
<path style="fill:#000000; fill-opacity:1.0000; stroke:none;fill-rule:evenodd;"
d="M 42.9200,80.2100
42.9398,80.1105
42.9962,80.0262
43.0805,79.9698
43.1800,79.9500
45.3100,79.9500
45.4095,79.9698
45.4938,80.0262
45.5502,80.1105
45.5700,80.2100
45.5700,82.2900
45.5502,82.3895
45.4938,82.4738
45.4095,82.5302
45.3100,82.5500
43.1800,82.5500
43.0805,82.5302
42.9962,82.4738
42.9398,82.3895
42.9200,82.2900
Z" /> 
<path style="fill:#000000; fill-opacity:1.0000; stroke:none;fill-rule:evenodd;"
d="M 31.4300,78.0100
31.4498,77.9105
31.5062,77.8262
31.5905,77.7698
31.6900,77.7500
33.8200,77.7500
33.9195,77.7698
34.0038,77.8262
34.0602,77.9105
34.0800,78.0100
34.0800,80.0900
34.0602,80.1895
34.0038,80.2738
33.9195,80.3302
33.8200,80.3500
31.6900,80.3500
31.5905,80.3302
31.5062,80.2738
31.4498,80.1895
31.4300,80.0900
Z" /> 
<path style="fill:#000000; fill-opacity:1.0000; stroke:none;fill-rule:evenodd;"
d="M 78.9200,80.2100
78.9398,80.1105
78.9962,80.0262
79.0805,79.9698
79.1800,79.9500
81.3100,79.9500
81.4095,79.9698
81.4938,80.0262
81.5502,80.1105
81.5700,80.2100
81.5700,82.2900
81.5502,82.3895
81.4938,82.4738
81.4095,82.5302
81.3100,82.5500
79.1800,82.5500
79.0805,82.5302
78.9962,82.4738
78.9398,82.3895
78.9200,82.2900
Z" /> 
<path style="fill:#000000; fill-opacity:1.0000; stroke:none;fill-rule:evenodd;"
d="M 67.4300,78.0100
67.4498,77.9105
67.5062,77.8262
67.5905,77.7698
67.6900,77.7500
69.8200,77.7500
69.9195,77.7698
70.0038,77.8262
70.0602,77.9105
70.0800,78.0100
70.0800,80.0900
70.0602,80.1895
70.0038,80.2738
69.9195,80.3302
69.8200,80.3500
67.6900,80.3500
67.5905,80.3302
67.5062,80.2738
67.4498,80.1895
67.4300,80.0900
Z" /> 
<path style="fill:#000000; fill-opacity:1.0000; stroke:none;fill-rule:evenodd;"
d="M 96.9200,29.2100
96.9398,29.1105
96.9962,29.0262
97.0805,28.9698
97.1800,28.9500
99.3100,28.9500
99.4095,28.9698
99.4938,29.0262
99.5502,29.1105
99.5700,29.2100
99.5700,31.2900
99.5502,31.3895
99.4938,31.4738
99.4095,31.5302
99.3100,31.5500
97.1800,31.5500
97.0805,31.5302
96.9962,31.4738
96.9398,31.3895
96.9200,31.2900
Z" /> 
<path style="fill:#000000; fill-opacity:1.0000; stroke:none;fill-rule:evenodd;"
d="M 85.4300,27.0100
85.4498,26.9105
85.5062,26.8262
85.5905,26.7698
85.6900,26.7500
87.8200,26.7500
87.9195,26.7698
88.0038,26.8262
88.0602,26.9105
88.0800,27.0100
88.0800,29.0900
88.0602,29.1895
88.0038,29.2738
87.9195,29.3302
87.8200,29.3500
85.6900,29.3500
85.5905,29.3302
85.5062,29.2738
85.4498,29.1895
85.4300,29.0900
Z" /> 
<path style="fill:#000000; fill-opacity:1.0000; stroke:none;fill-rule:evenodd;"
d="M 68.6250,87.8000
68.5389,87.7829
68.4659,87.7341
68.4171,87.6611
68.4000,87.5750
68.4000,87.1250
68.4171,87.0389
68.4659,86.9659
68.5389,86.9171
68.6250,86.9000
69.3750,86.9000
69.4611,86.9171
69.5341,86.9659
69.5829,87.0389
69.6000,87.1250
69.6000,87.5750
69.5829,87.6611
69.5341,87.7341
69.4611,87.7829
69.3750,87.8000
Z" /> 
<path style="fill:#000000; fill-opacity:1.0000; stroke:none;fill-rule:evenodd;"
d="M 68.6250,84.5000
68.5389,84.4829
68.4659,84.4341
68.4171,84.3611
68.4000,84.2750
68.4000,83.8250
68.4171,83.7389
68.4659,83.6659
68.5389,83.6171
68.6250,83.6000
69.3750,83.6000
69.4611,83.6171
69.5341,83.6659
69.5829,83.7389
69.6000,83.8250
69.6000,84.2750
69.5829,84.3611
69.5341,84.4341
69.4611,84.4829
69.3750,84.5000
Z" /> 
<path style="fill:#000000; fill-opacity:1.0000; stroke:none;fill-rule:evenodd;"
d="M 86.6250,70.8000
86.5389,70.7829
86.4659,70.7341
86.4171,70.6611
86.4000,70.5750
86.4000,70.1250
86.4171,70.0389
86.4659,69.9659
86.5389,69.9171
86.6250,69.9000
87.3750,69.9000
87.4611,69.9171
87.5341,69.9659
87.5829,70.0389
87.6000,70.1250
87.6000,70.5750
87.5829,70.6611
87.5341,70.7341
87.4611,70.7829
87.3750,70.8000
Z" /> 
<path style="fill:#000000; fill-opacity:1.0000; stroke:none;fill-rule:evenodd;"
d="M 86.6250,67.5000
86.5389,67.4829
86.4659,67.4341
86.4171,67.3611
86.4000,67.2750
86.4000,66.8250
86.4171,66.7389
86.4659,66.6659
86.5389,66.6171
86.6250,66.6000
87.3750,66.6000
87.4611,66.6171
87.5341,66.6659
87.5829,66.7389
87.6000,66.8250
87.6000,67.2750
87.5829,67.3611
87.5341,67.4341
87.4611,67.4829
87.3750,67.5000
Z" /> 
<path style="fill:#000000; fill-opacity:1.0000; stroke:none;fill-rule:evenodd;"
d="M 68.6250,104.8000
68.5389,104.7829
68.4659,104.7341
68.4171,104.6611
68.4000,104.5750
68.4000,104.1250
68.4171,104.0389
68.4659,103.9659
68.5389,103.9171
68.6250,103.9000
69.3750,103.9000
69.4611,103.9171
69.5341,103.9659
69.5829,104.0389
69.6000,104.1250
69.6000,104.5750
69.5829,104.6611
69.5341,104.7341
69.4611,104.7829
69.3750,104.8000
Z" /> 
<path style="fill:#000000; fill-opacity:1.0000; stroke:none;fill-rule:evenodd;"
d="M 68.6250,101.5000
68.5389,101.4829
68.4659,101.4341
68.4171,101.3611
68.4000,101.2750
68.4000,100.8250
68.4171,100.7389
68.4659,100.6659
68.5389,100.6171
68.6250,100.6000
69.3750,100.6000
69.4611,100.6171
69.5341,100.6659
69.5829,100.7389
69.6000,100.8250
69.6000,101.2750
69.5829,101.3611
69.5341,101.4341
69.4611,101.4829
69.3750,101.5000
Z" /> 
</g> 
</svg>
