<?xml version="1.0" encoding="UTF-8"?>
<svg id="Layer_2" data-name="Layer 2" xmlns="http://www.w3.org/2000/svg" viewBox="0 0 521.51 441.74">
  <defs>
    <style>
      .cls-1 {
        fill: none;
        stroke: #000;
        stroke-linecap: round;
        stroke-linejoin: round;
        stroke-width: .23px;
      }
    </style>
  </defs>
  <g id="Layer_6" data-name="Layer 6">
    <path class="cls-1" d="M16.95,119.6h-.57c-.32,0-.57.26-.57.57,0,0,0,3.26,0,3.26,0,.78-.63,1.42-1.42,1.42-.63,0-1.18-.41-1.36-1.01-.07-.25-.29-.41-.54-.41h-.01s-12.36,0-12.36,0v191.47c0,1.44.39,2.86,1.13,4.1l70.83,118.7c2.24,3.76,7.17,5.05,10.96,2.85l130.93-75.94c1.22-.71,2.6-1.08,4.01-1.08h149.45c.91,0,1.81-.16,2.67-.46l145.97-51.68c3.19-1.13,5.33-4.15,5.33-7.54V36.53c0-3.88-2.79-7.21-6.62-7.88L352.81.23c-.45-.07-.89-.11-1.34-.11h-178.51c-.76,0-1.51.11-2.24.32l-80.09,23.3,3.61,11.82c.08.24.3.4.55.4.78,0,1.42.62,1.43,1.41,0,.63-.4,1.18-1,1.37h-.01s-3.12.95-3.12.95h.01c-.3.09-.47.41-.38.71l.17.54h0c.23.75-.2,1.54-.95,1.77-.48.15-1.01.03-1.38-.32-.15-.14-.36-.19-.55-.13l-5.68,1.74h0s-5.68,1.73-5.68,1.73h0c-.2.06-.34.22-.39.42-.18.76-.94,1.24-1.7,1.06-.49-.11-.88-.48-1.03-.97h0l-.17-.54h0c-.09-.29-.41-.46-.71-.37l-3.12.95c-.75.23-1.54-.19-1.77-.94-.18-.6.05-1.25.57-1.59h0c.21-.15.3-.41.23-.65h-.01s-3.61-11.81-3.61-11.81L5.92,48.51c-3.43.98-5.79,4.12-5.79,7.69v41.51s12.36,0,12.36,0h0c.25,0,.47-.16.54-.4.22-.75,1.01-1.18,1.76-.95.6.18,1.01.73,1.01,1.36h0s0,3.25,0,3.25c0,.32.26.57.57.57h.57s-.01,0-.01,0c.78,0,1.42.63,1.42,1.42,0,.51-.27.97-.71,1.23h0c-.17.09-.28.28-.28.48v5.94s0,5.94,0,5.94c0,.2.1.39.28.49.68.39.91,1.26.52,1.94-.25.44-.71.62-1.22.62Z"/>
  </g>
</svg>