<?xml version="1.0" encoding="UTF-8"?>
<svg id="Layer_2" data-name="Layer 2" xmlns="http://www.w3.org/2000/svg" viewBox="0 0 375.22 185.48">
  <g id="Layer_1-2" data-name="Layer 1">
    <g>
      <path d="M11.97,29.51l-4.56,5.17-.61.68.14,4.69-1.09,1.63,1.09.95.41,8.43-3.4.2-3.94-.41.75-9.72.61-2.11-.82-.88.07-17,.14-.34v-11.15l-.34-2.79-.14-4.56L3.54.88,5.71.07l6.12,6.32.27,1.16,1.43.48,7.07,7.48-.14,4.69-2.11,2.58-2.18,2.11-4.22,4.62ZM6.87,26.92l1.97-2.11,3.4-4.01.75.2.68-1.7,1.09-1.56-2.92-3.26-.48-.95-.61-.41-3.94-4.42-.07,4.83.07,3.26-.68,2.11.75,1.36v6.66Z"/>
      <path d="M38.96,29.71l.07,7.41.2,6.8.2.61.07,5.64-2.72,1.09-4.49-.41.41-10.81,1.02-2.65-.61-.88v-2.65l-.27-7.96-.14-3.54.54-1.36-.34-12.99-.27-5.85,5.37-2.18,10.81,9.38.41,1.7c.07.07,1.16-.27,1.22-.27l3.26,2.99-.48,4.08-3.13,3.81-2.18,2.58-1.16,1.43-1.9,2.58c.48.95,1.29,2.11,1.7,2.92v1.16c.54.61.95.95,1.43,1.63l2.72,4.62v.88l.41.2.95,1.97v-.07l1.22,2.58,2.24,2.38-.07,1.97-5.51,3.06-1.63-2.65-2.38-5.44.07-1.16-.82-.41-2.52-4.76-.61-1.56-2.72-5.51-.41-.41ZM38.96,26.25l.48-.27,3.4-4.21c.95-1.16,2.58-3.26,3.47-4.49l.75-.95-1.36-1.7-.48-.34-6.26-6.19-.14,5.24v.68l-.54,1.29.27,1.22.14.41.14.75.27,6.05-.14,2.52Z"/>
      <path d="M79.15.82l1.36,3.74,3.47,8.5.34,1.84h.68l1.84,4.08,2.31,5.03-.2,3.74-3.33,6.73-.54.68-.07,1.09-1.56,3.26-3.67,8.7-.82,2.18-.14.75-6.19-.07-.07-2.24-2.38-5.92.2-1.16h-.75l-2.04-4.21-2.45-5.78-1.63-3.47-.14-4.28.54-.34,3.67-8.91,1.22-.88-.34-.75,3.67-9.18.27-.41.41-2.04.14-.48h2.52l.61-.07,3.06-.14ZM76.5,43.18l2.18-7.14.82-.82h-.07l-.07-1.22,3.33-8.16-.54-1.7-.82-2.31-2.65-6.87.61-.82-1.22-.75-1.56-4.15-.41-1.29-3.74,9.86-.95.27.48,1.09-2.24,5.85.07.82.88,2.24.61,1.97-.68.82,1.36.95,1.36,2.79,2.99,7.82.27.75Z"/>
      <path d="M102.61,18.22l-.2-11.49.88-1.09-1.22-.68V1.16l6.46-.14.88,2.38-.82,5.98.27,18.97-.75.54.54,2.04.82,11.69-1.09,1.9-2.18,1.9-1.84.27.07,1.36-5.03,4.08-3.74-2.79v-3.54l2.99-1.22,2.99-1.97,1.02-1.43-.14-.61.27-7.41v-2.65l-.07-.95-.07-4.21.34-3.74-.41-3.4Z"/>
      <path d="M139.19,7.48l-1.63-.54-.2.07-1.09.2-3.74-.14h-.61v.75l-.14,1.7v6.73l-.34,2.04-.75,1.22.68.54.14,2.65,2.52.14,2.65-.14,3.47-.34.88,1.7-.41,2.04-.14,2.79-3.33-.14-4.28-.14h-1.09l-.27,7,.41,1.97-.2.61.07.14.14,6.6.61.14.54.14,5.44-.07,1.7-.54,3.4.07-.14,3.4-.27,2.52-1.56.68-4.49-.07-3.88-.41h-2.38l-.54.34-5.1-.07-.34-2.79.41-4.62-.07-.75.07-3.13.82-1.77-.61-.82v-1.56l-.07-3.67.27-.54-.54-6.73.2-2.52v-5.03l.07-5.3-.07-3.47.75-1.16-.75-.88-.34-4.83,3.2-.41h3.88l.95.54,2.65-.54,6.73-.07.07,2.65-.14,3.81h-3.2Z"/>
      <path d="M152.05,28.49l-.07-4.35,4.42-7.48,2.45-2.38v-1.63l1.7-2.72v-.27l3.81-6.25.07-.54,2.38-2.79,5.1,3.4-1.9,3.4-1.9,2.65-1.16.75-.34,1.84-4.08,6.05-2.24,3.54-1.29,2.31-.88,1.63,1.02,1.97.68,1.29.95.95.61,1.36,2.52,3.88,3.13,5.3,3.54,4.62,1.56,2.52-3.54,2.92-2.31,1.5-2.31-3.6-.14-.82-5.17-8.02.54-1.22-3.13-2.92-2.45-4.42-1.56-2.45Z"/>
      <path d="M202.03,1.02l.41,2.86-.2,3.2h-3.06l-.68-.2-2.04-.14h-2.11l-.41,2.86.27,1.5-.14,5.03c0,.61,0,2.31.07,2.72,0,.54.07,1.16.07,1.63v1.16l.07,5.24-.61,4.08-.07.07.82,1.29v12.78l.54,4.83-1.97,1.09-1.9.34-3.6-.54v-5.24l1.02-4.28-.61-.68.34-9.59.34-13.87-.41-3.2.27-4.35-.41-2.79-1.5-.2-.34.34c-.48.14-.88.2-1.09.2l-4.15.14-.82-.82.2-5.58,6.6.34,1.29.54c.41,0,1.02-.48,1.56-.48,1.02.07,1.9.07,2.86.07l3.13-.2,6.26-.14Z"/>
      <path d="M247.99,36.58l-.95.14h-.07l-1.36.95-4.56,1.09-.61.27-1.36.54-.75,4.83-.61.75.48,1.9-.75,4.56-4.22-.41-2.38-1.5,1.84-8.3.68-4.28.75-.75-.07-1.36,1.36-8.36.2-1.29.41-1.43v-1.22l2.04-9.11,1.22-1.43-.75-1.02.48-2.72.61-2.86.68-4.28,5.58-.27,1.16.54-.07,2.38.2.54.27.68,2.18,10.4-.48,1.22.82.61,3.26,16.39v.95l1.7,6.32.68,4.28-.41.54,1.02,1.09.75,2.92-5.03,1.63h-.88l-1.16-.61-.88-8.57-.27-1.9.54-.68-.61-.41-.54-2.24-.14-.54ZM240.99,28.15l.07-.07-.82,4.42-.07.48,4.42-1.36,1.9-.48-1.36-7.34-.27-3.54-.27-1.22-1.02-7.21-1.36,8.3-.68.34.34,1.09-.88,6.59Z"/>
      <path d="M283.35,7.48l-1.63-.54-.2.07-1.09.2-3.74-.14h-.61v.75l-.14,1.7v6.73l-.34,2.04-.75,1.22.68.54.14,2.65,2.52.14,2.65-.14,3.47-.34.88,1.7-.41,2.04-.14,2.79-3.33-.14-4.28-.14h-1.09l-.27,7,.41,1.97-.2.61.07.14.14,6.6.61.14.54.14,5.44-.07,1.7-.54,3.4.07-.14,3.4-.27,2.52-1.56.68-4.49-.07-3.88-.41h-2.38l-.54.34-5.1-.07-.34-2.79.41-4.62-.07-.75.07-3.13.82-1.77-.61-.82v-1.56l-.07-3.67.27-.54-.54-6.73.2-2.52v-5.03l.07-5.3-.07-3.47.75-1.16-.75-.88-.34-4.83,3.2-.41h3.88l.95.54,2.65-.54,6.73-.07.07,2.65-.14,3.81h-3.2Z"/>
      <path d="M310.42,32.16l-2.31-2.79-1.36-.61-5.24-4.83-3.26-3.2-.07-4.28,3.33-4.76,3.47-4.01-.14-.75,1.77-2.38,1.36-.88c.14-.27-.14-.61-.07-.82l1.63-2.72,2.04.2,4.01,3.2-1.84,2.72-1.77,1.77-.61,1.22-3.88,4.56-.68.95-.14.48-2.04,2.72,1.29,1.56,1.29,1.84,1.09.68,6.32,5.92,1.84,1.36.14,5.3-2.45,4.01-3.67,4.49-2.72,3.67c-.27.48-.48,1.02-.68,1.43l.07-.27-.75,2.18-1.84,2.24-5.58-3.47,1.02-2.52,1.29-1.16c.68-.95,1.16-1.7,1.77-2.65.41-.68.75-1.29,1.16-1.97l1.9-.88-.14-.75,4.42-6.8Z"/>
      <path d="M329.66,19.79l-.2-13.6.54-1.22-.61-.34-.34-3.4,3.2-.2,4.42.27-.34,4.96-.34,1.7-.2,8.91-.2,3.47.27,2.65.14,1.7-.61,1.43.75.48v18.83l.14,1.02.14,1.29-.07,2.52-2.99.95-1.43-.07-3.13-.07.95-6.05.82-1.36-.82-1.16v-15.16l.2-2.11.2-3.74-.48-1.7Z"/>
      <path d="M358.63,29.71l.07,7.41.2,6.8.2.61.07,5.64-2.72,1.09-4.49-.41.41-10.81,1.02-2.65-.61-.88v-2.65l-.27-7.96-.14-3.54.54-1.36-.34-12.99-.27-5.85,5.37-2.18,10.81,9.38.41,1.7c.07.07,1.16-.27,1.22-.27l3.26,2.99-.48,4.08-3.13,3.81-2.18,2.58-1.16,1.43-1.9,2.58c.48.95,1.29,2.11,1.7,2.92v1.16c.54.61.95.95,1.43,1.63l2.72,4.62v.88l.41.2.95,1.97v-.07l1.22,2.58,2.24,2.38-.07,1.97-5.51,3.06-1.63-2.65-2.38-5.44.07-1.16-.82-.41-2.52-4.76-.61-1.56-2.72-5.51-.41-.41ZM358.63,26.25l.48-.27,3.4-4.21c.95-1.16,2.58-3.26,3.47-4.49l.75-.95-1.36-1.7-.48-.34-6.25-6.19-.14,5.24v.68l-.54,1.29.27,1.22.14.41.14.75.27,6.05-.14,2.52Z"/>
    </g>
    <g>
      <path d="M37.81,150.2l-.78-12.66.45-10.98-.78-6.94-.34-7.39.34-2.24-.78-6.94,2.69-1.79,9.63,1.23-.45,8.06-.56,6.83-1.34,2.13,1.23,1.01-.45,7.39,1.01,10.86.22-.11,4.7-1.68,1.79.67,1.01-1.23,4.59-2.02,2.13-1.01,1.23-.56.45-3.02-.34-10.19-.22-10.08-.56-4.48,1.68-3.25,4.14.11,6.38.22-.34,5.6-.67,6.38v-.11l-.11,4.26-1.12,1.46,1.01,3.25-.56,10.53.34,5.04.22,2.24.22,20.05.22,14.34.78,2.8.22,6.16-4.14.22h-6.5l-1.46-3.92.78-12.54,1.12-1.01-1.68-1.79.22-17.25-.34-1.57.11-2.02-6.5,1.46h-.11l-8.74,3.7-.56,19.49-.11.34.67,5.94.34,5.04-.11,4.14-4.59.22-7.06-.67.34-7.5,1.79-2.13-1.57-1.68-.22-7.06,1.01-15.34Z"/>
      <path d="M117.78,112.46l-2.69-.9-.34.11-1.79.34-6.16-.22h-1.01v1.23l-.22,2.8v11.09l-.56,3.36-1.23,2.02,1.12.9.22,4.37,4.14.22,4.37-.22,5.71-.56,1.46,2.8-.67,3.36-.22,4.59-5.49-.22-7.06-.22h-1.79l-.45,11.54.67,3.25-.34,1.01.11.22.22,10.86,1.01.22.9.22,8.96-.11,2.8-.9,5.6.11-.22,5.6-.45,4.14-2.58,1.12-7.39-.11-6.38-.67h-3.92l-.9.56-8.4-.11-.56-4.59.67-7.62-.11-1.23.11-5.15,1.34-2.91-1.01-1.34v-2.58l-.11-6.05.45-.9-.9-11.09.34-4.14v-8.29l.11-8.74-.11-5.71,1.23-1.9-1.23-1.46-.56-7.95,5.26-.67h6.38l1.57.9,4.37-.9,11.09-.11.11,4.37-.22,6.27h-5.26Z"/>
      <path d="M151.38,149.08l.11,12.21.34,11.2.34,1.01.11,9.3-4.48,1.79-7.39-.67.67-17.81,1.68-4.37-1.01-1.46v-4.37l-.45-13.1-.22-5.82.9-2.24-.56-21.39-.45-9.63,8.85-3.58,17.81,15.46.67,2.8c.11.11,1.9-.45,2.02-.45l5.38,4.93-.78,6.72-5.15,6.27-3.58,4.26-1.9,2.35-3.14,4.26c.78,1.57,2.13,3.47,2.8,4.82v1.9c.9,1.01,1.57,1.57,2.35,2.69l4.48,7.62v1.46l.67.34,1.57,3.25v-.11l2.02,4.26,3.7,3.92-.11,3.25-9.07,5.04-2.69-4.37-3.92-8.96.11-1.9-1.34-.67-4.14-7.84-1.01-2.58-4.48-9.07-.67-.67ZM151.38,143.37l.78-.45,5.6-6.94c1.57-1.9,4.26-5.38,5.71-7.39l1.23-1.57-2.24-2.8-.78-.56-10.3-10.19-.22,8.62v1.12l-.9,2.13.45,2.02.22.67.22,1.23.45,9.97-.22,4.14Z"/>
      <path d="M211.97,122.54l.11.11,1.9-2.91,3.58-6.5,1.68-.56-.9-1.9,5.82-9.74,5.49,1.01,3.02,1.34-.78,16.58-1.34,2.58,1.12,1.57.9,36.06-.56,7.06.78,6.16.22,3.58.67,7.06-9.3.45-2.69-1.68-.34-4.82.78-7.39v-11.98l1.34-2.02-1.23-1.12-.45-5.15.78-24.42-.45-4.14-1.01,1.79-1.9,2.46v1.12l-1.46,2.69-1.57,4.03-4.03.78-3.02-.11-2.69-5.26-.45-.9-.78-1.79-2.35-4.59-.22,7.5v.11l.11.11v15.46l-.78,1.9.78,15.9.22,16.46v4.82l-10.53.22-.9-4.26,1.46-4.14-1.01-2.69v-5.15l.67-30.8,1.79-1.9-1.79-1.23.11-10.08-.34-5.49-.34-5.49.9-1.57-.11-.56-1.01-1.46-.11-1.12-.11-6.27,4.82-.34,4.14-.56,5.04,10.19,6.27,10.98Z"/>
      <path d="M273.91,101.48l2.24,6.16,5.71,14,.56,3.02h1.12l3.02,6.72,3.81,8.29-.34,6.16-5.49,11.09-.9,1.12-.11,1.79-2.58,5.38-6.05,14.34-1.34,3.58-.22,1.23-10.19-.11-.11-3.7-3.92-9.74.34-1.9h-1.23l-3.36-6.94-4.03-9.52-2.69-5.71-.22-7.06.9-.56,6.05-14.67,2.02-1.46-.56-1.23,6.05-15.12.45-.67.67-3.36.22-.78h4.14l1.01-.11,5.04-.22ZM269.54,171.26l3.58-11.76,1.34-1.34h-.11l-.11-2.02,5.49-13.44-.9-2.8-1.34-3.81-4.37-11.31,1.01-1.34-2.02-1.23-2.58-6.83-.67-2.13-6.16,16.24-1.57.45.78,1.79-3.7,9.63.11,1.34,1.46,3.7,1.01,3.25-1.12,1.34,2.24,1.57,2.24,4.59,4.93,12.88.45,1.23Z"/>
      <path d="M316.46,185.48l-3.7-1.01-7.28-1.01.22-7.5v.11l.67-25.09-.67-4.37-.11-29.34,1.12-2.13-1.12-1.46-.34-5.82-.11-4.14,4.82-1.46,5.94-1.79,6.94,9.52,1.23,3.7,3.92,3.92,2.91,5.15,8.51,11.31-.11-.22,2.02,2.58.11,8.18-2.02,3.36-11.54,17.7-3.92,7.95-7.5,11.87ZM314,136.76l1.79,5.26-.45,22.18-.11,6.05.11-.22,4.93-7.95,2.02-1.01-.9-1.01,4.7-9.07,3.7-6.16,2.02-3.25-2.02-3.02-.45-2.69-2.24-1.79-11.09-17.81-.67-.78.34,16.24-1.68,5.04Z"/>
    </g>
    <path d="M185.64,73.88l4.76-.68,1.97-.2.88.88-.07,5.1-1.16.75-3.94-.41-5.58.27-1.5.07-1.84.14-.95-.27-.2-2.24.54-3.88,1.16-.14.95.07,1.63.34,3.33.2Z"/>
  </g>
</svg>