<?xml version="1.0" encoding="UTF-8"?>
<svg id="Layer_2" data-name="Layer 2" xmlns="http://www.w3.org/2000/svg" viewBox="0 0 891 891">
  <defs>
    <style>
      .cls-1 {
        fill: none;
      }
    </style>
  </defs>
  <g>
    <rect class="cls-1" x="297" y="756" width="27" height="27"/>
    <path class="cls-1" d="M108,729H27v135h135v-135h-54ZM135,823.5c0,7.46-6.04,13.5-13.5,13.5h-54c-7.46,0-13.5-6.04-13.5-13.5v-54c0-7.46,6.04-13.5,13.5-13.5h54c7.46,0,13.5,6.04,13.5,13.5v54Z"/>
    <rect class="cls-1" x="783" y="675" width="27" height="54"/>
    <path class="cls-1" d="M702,675h-27v81h81v-81h-54ZM715.5,729c-7.46,0-13.5-6.04-13.5-13.5s6.04-13.5,13.5-13.5,13.5,6.04,13.5,13.5-6.04,13.5-13.5,13.5Z"/>
    <path class="cls-1" d="M81,162h81V27H27v135h54ZM54,67.5c0-7.46,6.04-13.5,13.5-13.5h54c7.46,0,13.5,6.04,13.5,13.5v54c0,7.46-6.04,13.5-13.5,13.5h-54c-7.46,0-13.5-6.04-13.5-13.5v-54Z"/>
    <path class="cls-1" d="M810,27h-81v135h135V27h-54ZM837,121.5c0,7.46-6.04,13.5-13.5,13.5h-54c-7.46,0-13.5-6.04-13.5-13.5v-54c0-7.46,6.04-13.5,13.5-13.5h54c7.46,0,13.5,6.04,13.5,13.5v54Z"/>
    <path d="M13.5,432h13.5v13.5c0,7.46,6.04,13.5,13.5,13.5h13.5v13.5c0,7.46,6.04,13.5,13.5,13.5s13.5-6.04,13.5-13.5v-13.5h13.5c7.46,0,13.5-6.04,13.5-13.5v-13.5h40.5c7.46,0,13.5-6.04,13.5-13.5v-13.5h121.5c7.46,0,13.5-6.04,13.5-13.5v-27c0-7.46-6.04-13.5-13.5-13.5h-40.5v-27h13.5c7.46,0,13.5-6.04,13.5-13.5s-6.04-13.5-13.5-13.5h-13.5v-13.5c0-7.46-6.04-13.5-13.5-13.5h-13.5v-13.5c0-7.46-6.04-13.5-13.5-13.5s-13.5,6.04-13.5,13.5v13.5h-54v-13.5c0-7.46-6.04-13.5-13.5-13.5s-13.5,6.04-13.5,13.5v27c0,7.46,6.04,13.5,13.5,13.5h94.5v54h-13.5c-7.46,0-13.5,6.04-13.5,13.5v13.5h-27v-27h13.5c7.46,0,13.5-6.04,13.5-13.5s-6.04-13.5-13.5-13.5h-27c-7.46,0-13.5,6.04-13.5,13.5v13.5h-27v-13.5c0-7.46-6.04-13.5-13.5-13.5s-13.5,6.04-13.5,13.5v27c0,7.46,6.04,13.5,13.5,13.5h40.5v27h-40.5c-7.46,0-13.5,6.04-13.5,13.5v13.5h-27v-13.5c0-7.46-6.04-13.5-13.5-13.5H13.5c-7.46,0-13.5,6.04-13.5,13.5s6.04,13.5,13.5,13.5Z"/>
    <path d="M297,13.5v67.5h-54v-27h13.5c7.46,0,13.5-6.04,13.5-13.5s-6.04-13.5-13.5-13.5h-27c-7.46,0-13.5,6.04-13.5,13.5v54c0,7.46,6.04,13.5,13.5,13.5h13.5v13.5c0,7.46,6.04,13.5,13.5,13.5h27c7.46,0,13.5-6.04,13.5-13.5v-13.5h13.5c7.46,0,13.5-6.04,13.5-13.5v-13.5h13.5c7.46,0,13.5-6.04,13.5-13.5V13.5c0-7.46-6.04-13.5-13.5-13.5h-27c-7.46,0-13.5,6.04-13.5,13.5Z"/>
    <circle cx="175.5" cy="229.5" r="13.5"/>
    <circle cx="40.5" cy="364.5" r="13.5"/>
    <circle cx="13.5" cy="310.5" r="13.5"/>
    <path d="M67.5,243c7.46,0,13.5-6.04,13.5-13.5s-6.04-13.5-13.5-13.5h-27c-7.46,0-13.5,6.04-13.5,13.5v54c0,7.46,6.04,13.5,13.5,13.5h27c7.46,0,13.5-6.04,13.5-13.5s-6.04-13.5-13.5-13.5h-13.5v-27h13.5Z"/>
    <circle cx="472.5" cy="634.5" r="13.5"/>
    <path d="M688.5,540h54c7.46,0,13.5-6.04,13.5-13.5s-6.04-13.5-13.5-13.5h-13.5v-40.5c0-7.46-6.04-13.5-13.5-13.5s-13.5,6.04-13.5,13.5v13.5h-13.5c-7.46,0-13.5,6.04-13.5,13.5v27c0,7.46,6.04,13.5,13.5,13.5Z"/>
    <circle cx="526.5" cy="256.5" r="13.5"/>
    <circle cx="499.5" cy="607.5" r="13.5"/>
    <path d="M472.5,270h-13.5v-94.5c0-7.46-6.04-13.5-13.5-13.5s-13.5,6.04-13.5,13.5v40.5h-13.5c-7.46,0-13.5,6.04-13.5,13.5s6.04,13.5,13.5,13.5h13.5v40.5c0,7.46,6.04,13.5,13.5,13.5h27c7.46,0,13.5-6.04,13.5-13.5s-6.04-13.5-13.5-13.5Z"/>
    <path d="M513,148.5c0-7.46-6.04-13.5-13.5-13.5s-13.5,6.04-13.5,13.5v54c0,7.46,6.04,13.5,13.5,13.5s13.5-6.04,13.5-13.5v-54Z"/>
    <circle cx="661.5" cy="13.5" r="13.5"/>
    <path d="M459,13.5c0,7.46,6.04,13.5,13.5,13.5h13.5v13.5c0,7.46,6.04,13.5,13.5,13.5h13.5v13.5c0,7.46,6.04,13.5,13.5,13.5h40.5v13.5c0,7.46,6.04,13.5,13.5,13.5h27c7.46,0,13.5-6.04,13.5-13.5v-13.5h27v94.5c0,7.46,6.04,13.5,13.5,13.5s13.5-6.04,13.5-13.5v-108c0-7.46-6.04-13.5-13.5-13.5h-13.5v-13.5c0-7.46-6.04-13.5-13.5-13.5s-13.5,6.04-13.5,13.5v13.5h-27V13.5c0-7.46-6.04-13.5-13.5-13.5s-13.5,6.04-13.5,13.5v40.5h-27v-13.5c0-7.46-6.04-13.5-13.5-13.5h-13.5v-13.5c0-7.46-6.04-13.5-13.5-13.5h-27c-7.46,0-13.5,6.04-13.5,13.5Z"/>
    <path d="M769.5,513c7.46,0,13.5-6.04,13.5-13.5v-27c0-7.46-6.04-13.5-13.5-13.5s-13.5,6.04-13.5,13.5v27c0,7.46,6.04,13.5,13.5,13.5Z"/>
    <circle cx="742.5" cy="445.5" r="13.5"/>
    <circle cx="418.5" cy="13.5" r="13.5"/>
    <path d="M850.5,675c7.46,0,13.5-6.04,13.5-13.5v-13.5h13.5c7.46,0,13.5-6.04,13.5-13.5s-6.04-13.5-13.5-13.5h-13.5v-13.5c0-7.46-6.04-13.5-13.5-13.5h-13.5v-13.5c0-7.46-6.04-13.5-13.5-13.5s-13.5,6.04-13.5,13.5v40.5h-54v-40.5c0-7.46-6.04-13.5-13.5-13.5s-13.5,6.04-13.5,13.5v13.5h-121.5c-7.46,0-13.5,6.04-13.5,13.5v13.5h-13.5c-7.46,0-13.5,6.04-13.5,13.5s6.04,13.5,13.5,13.5h54c7.46,0,13.5-6.04,13.5-13.5v-13.5h54v27h-40.5c-7.46,0-13.5,6.04-13.5,13.5v40.5h-27v-13.5c0-7.46-6.04-13.5-13.5-13.5s-13.5,6.04-13.5,13.5v13.5h-13.5c-7.46,0-13.5,6.04-13.5,13.5s6.04,13.5,13.5,13.5h67.5v27h-40.5c-7.46,0-13.5,6.04-13.5,13.5v13.5h-40.5c-7.46,0-13.5,6.04-13.5,13.5v27c0,7.46,6.04,13.5,13.5,13.5h27c7.46,0,13.5-6.04,13.5-13.5v-13.5h40.5c7.46,0,13.5-6.04,13.5-13.5v-13.5h27v13.5c0,7.46,6.04,13.5,13.5,13.5s13.5-6.04,13.5-13.5v-13.5h27v54h-13.5c-7.46,0-13.5,6.04-13.5,13.5s6.04,13.5,13.5,13.5h67.5v13.5c0,7.46,6.04,13.5,13.5,13.5s13.5-6.04,13.5-13.5v-27c0-7.46-6.04-13.5-13.5-13.5h-13.5v-13.5c0-7.46-6.04-13.5-13.5-13.5h-13.5v-27h13.5c7.46,0,13.5-6.04,13.5-13.5v-13.5h54v13.5c0,7.46,6.04,13.5,13.5,13.5h13.5v40.5c0,7.46,6.04,13.5,13.5,13.5s13.5-6.04,13.5-13.5v-54c0-7.46-6.04-13.5-13.5-13.5h-13.5v-27h13.5c7.46,0,13.5-6.04,13.5-13.5v-27c0-7.46-6.04-13.5-13.5-13.5s-13.5,6.04-13.5,13.5v13.5h-27v-27h13.5ZM756,756h-81v-81h81v81ZM810,729h-27v-54h27v54Z"/>
    <circle cx="877.5" cy="580.5" r="13.5"/>
    <circle cx="715.5" cy="715.5" r="13.5"/>
    <circle cx="850.5" cy="877.5" r="13.5"/>
    <path d="M877.5,270h-13.5v-40.5c0-7.46-6.04-13.5-13.5-13.5h-54c-7.46,0-13.5,6.04-13.5,13.5v27c0,7.46,6.04,13.5,13.5,13.5h13.5v13.5c0,7.46,6.04,13.5,13.5,13.5h13.5v13.5c0,7.46,6.04,13.5,13.5,13.5h27c7.46,0,13.5-6.04,13.5-13.5v-27c0-7.46-6.04-13.5-13.5-13.5Z"/>
    <path d="M877.5,459c-7.46,0-13.5,6.04-13.5,13.5v13.5h-13.5c-7.46,0-13.5,6.04-13.5,13.5v13.5h-40.5c-7.46,0-13.5,6.04-13.5,13.5v13.5h-13.5c-7.46,0-13.5,6.04-13.5,13.5s6.04,13.5,13.5,13.5h27c7.46,0,13.5-6.04,13.5-13.5v-13.5h40.5c7.46,0,13.5-6.04,13.5-13.5v-13.5h13.5c7.46,0,13.5-6.04,13.5-13.5v-27c0-7.46-6.04-13.5-13.5-13.5Z"/>
    <path d="M823.5,837c7.46,0,13.5-6.04,13.5-13.5v-27c0-7.46-6.04-13.5-13.5-13.5h-27c-7.46,0-13.5,6.04-13.5,13.5s6.04,13.5,13.5,13.5h13.5v13.5c0,7.46,6.04,13.5,13.5,13.5Z"/>
    <circle cx="877.5" cy="391.5" r="13.5"/>
    <path d="M351,877.5v-13.5h13.5c7.46,0,13.5-6.04,13.5-13.5v-13.5h67.5c7.46,0,13.5-6.04,13.5-13.5v-13.5h13.5c7.46,0,13.5-6.04,13.5-13.5v-13.5h40.5c7.46,0,13.5-6.04,13.5-13.5s-6.04-13.5-13.5-13.5h-13.5v-54h13.5c7.46,0,13.5-6.04,13.5-13.5v-13.5h13.5c7.46,0,13.5-6.04,13.5-13.5s-6.04-13.5-13.5-13.5h-27c-7.46,0-13.5,6.04-13.5,13.5v13.5h-13.5c-7.46,0-13.5,6.04-13.5,13.5v13.5h-27v-13.5c0-7.46-6.04-13.5-13.5-13.5h-13.5v-13.5c0-7.46-6.04-13.5-13.5-13.5h-67.5v-13.5c0-7.46-6.04-13.5-13.5-13.5h-13.5v-13.5c0-7.46-6.04-13.5-13.5-13.5h-40.5v-27h40.5c7.46,0,13.5-6.04,13.5-13.5s-6.04-13.5-13.5-13.5h-40.5v-40.5c0-7.46-6.04-13.5-13.5-13.5h-13.5v-27h27v13.5c0,7.46,6.04,13.5,13.5,13.5s13.5-6.04,13.5-13.5v-27c0-7.46-6.04-13.5-13.5-13.5h-54c-7.46,0-13.5,6.04-13.5,13.5v13.5h-13.5c-7.46,0-13.5,6.04-13.5,13.5v13.5h-27v-13.5c0-7.46-6.04-13.5-13.5-13.5s-13.5,6.04-13.5,13.5v67.5h-40.5c-7.46,0-13.5,6.04-13.5,13.5s6.04,13.5,13.5,13.5h13.5v27h-13.5c-7.46,0-13.5,6.04-13.5,13.5v27c0,7.46,6.04,13.5,13.5,13.5s13.5-6.04,13.5-13.5v-13.5h13.5c7.46,0,13.5-6.04,13.5-13.5v-13.5h13.5c7.46,0,13.5-6.04,13.5-13.5v-13.5h40.5c7.46,0,13.5-6.04,13.5-13.5s-6.04-13.5-13.5-13.5h-40.5v-27h54v13.5c0,7.46,6.04,13.5,13.5,13.5h13.5v27h-13.5c-7.46,0-13.5,6.04-13.5,13.5s6.04,13.5,13.5,13.5h13.5v27h-27v-13.5c0-7.46-6.04-13.5-13.5-13.5h-27c-7.46,0-13.5,6.04-13.5,13.5s6.04,13.5,13.5,13.5h13.5v13.5c0,7.46,6.04,13.5,13.5,13.5h13.5v13.5c0,7.46,6.04,13.5,13.5,13.5s13.5-6.04,13.5-13.5v-13.5h54v40.5c0,7.46,6.04,13.5,13.5,13.5h27c7.46,0,13.5-6.04,13.5-13.5v-13.5h54v27h-13.5c-7.46,0-13.5,6.04-13.5,13.5s6.04,13.5,13.5,13.5h94.5v27h-67.5c-7.46,0-13.5,6.04-13.5,13.5v13.5h-13.5c-7.46,0-13.5,6.04-13.5,13.5v13.5h-13.5c-7.46,0-13.5,6.04-13.5,13.5v13.5h-13.5c-7.46,0-13.5,6.04-13.5,13.5v27c0,7.46,6.04,13.5,13.5,13.5s13.5-6.04,13.5-13.5Z"/>
    <path d="M13.5,648h13.5v13.5c0,7.46,6.04,13.5,13.5,13.5s13.5-6.04,13.5-13.5v-27c0-7.46-6.04-13.5-13.5-13.5H13.5c-7.46,0-13.5,6.04-13.5,13.5s6.04,13.5,13.5,13.5Z"/>
    <path d="M486,877.5v-13.5h40.5c7.46,0,13.5-6.04,13.5-13.5s-6.04-13.5-13.5-13.5h-13.5v-13.5c0-7.46-6.04-13.5-13.5-13.5s-13.5,6.04-13.5,13.5v13.5h-13.5c-7.46,0-13.5,6.04-13.5,13.5v27c0,7.46,6.04,13.5,13.5,13.5s13.5-6.04,13.5-13.5Z"/>
    <path d="M13.5,594h27c7.46,0,13.5-6.04,13.5-13.5s-6.04-13.5-13.5-13.5h-13.5v-54h13.5c7.46,0,13.5-6.04,13.5-13.5s-6.04-13.5-13.5-13.5h-13.5v-13.5c0-7.46-6.04-13.5-13.5-13.5s-13.5,6.04-13.5,13.5v108c0,7.46,6.04,13.5,13.5,13.5Z"/>
    <path d="M256.5,783c-7.46,0-13.5,6.04-13.5,13.5v13.5h-13.5c-7.46,0-13.5,6.04-13.5,13.5v27c0,7.46,6.04,13.5,13.5,13.5s13.5-6.04,13.5-13.5v-13.5h13.5c7.46,0,13.5-6.04,13.5-13.5v-13.5h67.5c7.46,0,13.5-6.04,13.5-13.5v-40.5h13.5c7.46,0,13.5-6.04,13.5-13.5s-6.04-13.5-13.5-13.5h-94.5v-13.5c0-7.46-6.04-13.5-13.5-13.5s-13.5,6.04-13.5,13.5v27c0,7.46,6.04,13.5,13.5,13.5h13.5v27h-13.5ZM297,756h27v27h-27v-27Z"/>
    <path d="M175.5,648h-54c-7.46,0-13.5,6.04-13.5,13.5s6.04,13.5,13.5,13.5h54c7.46,0,13.5-6.04,13.5-13.5s-6.04-13.5-13.5-13.5Z"/>
    <circle cx="175.5" cy="445.5" r="13.5"/>
    <path d="M297,877.5v-27c0-7.46-6.04-13.5-13.5-13.5s-13.5,6.04-13.5,13.5v13.5h-13.5c-7.46,0-13.5,6.04-13.5,13.5s6.04,13.5,13.5,13.5h27c7.46,0,13.5-6.04,13.5-13.5Z"/>
    <path d="M648,877.5v-13.5h13.5c7.46,0,13.5-6.04,13.5-13.5s-6.04-13.5-13.5-13.5h-54c-7.46,0-13.5,6.04-13.5,13.5v13.5h-40.5c-7.46,0-13.5,6.04-13.5,13.5s6.04,13.5,13.5,13.5h81c7.46,0,13.5-6.04,13.5-13.5Z"/>
    <path d="M418.5,621h27c7.46,0,13.5-6.04,13.5-13.5s-6.04-13.5-13.5-13.5h-27c-7.46,0-13.5,6.04-13.5,13.5s6.04,13.5,13.5,13.5Z"/>
    <circle cx="310.5" cy="148.5" r="13.5"/>
    <path d="M364.5,108h13.5v13.5c0,7.46,6.04,13.5,13.5,13.5s13.5-6.04,13.5-13.5v-40.5h40.5c7.46,0,13.5-6.04,13.5-13.5v-27c0-7.46-6.04-13.5-13.5-13.5s-13.5,6.04-13.5,13.5v13.5h-27v-13.5c0-7.46-6.04-13.5-13.5-13.5s-13.5,6.04-13.5,13.5v40.5h-13.5c-7.46,0-13.5,6.04-13.5,13.5s6.04,13.5,13.5,13.5Z"/>
    <path d="M229.5,189c7.46,0,13.5-6.04,13.5-13.5v-27c0-7.46-6.04-13.5-13.5-13.5s-13.5,6.04-13.5,13.5v27c0,7.46,6.04,13.5,13.5,13.5Z"/>
    <path d="M256.5,216h27c7.46,0,13.5-6.04,13.5-13.5v-27c0-7.46-6.04-13.5-13.5-13.5s-13.5,6.04-13.5,13.5v13.5h-13.5c-7.46,0-13.5,6.04-13.5,13.5s6.04,13.5,13.5,13.5Z"/>
    <circle cx="553.5" cy="229.5" r="13.5"/>
    <path d="M607.5,162c-7.46,0-13.5,6.04-13.5,13.5v67.5h-13.5c-7.46,0-13.5,6.04-13.5,13.5v81c0,7.46,6.04,13.5,13.5,13.5h27c7.46,0,13.5-6.04,13.5-13.5s-6.04-13.5-13.5-13.5h-13.5v-54h27v40.5c0,7.46,6.04,13.5,13.5,13.5h13.5v54h-13.5c-7.46,0-13.5,6.04-13.5,13.5s6.04,13.5,13.5,13.5h40.5v13.5c0,7.46,6.04,13.5,13.5,13.5h27c7.46,0,13.5-6.04,13.5-13.5s-6.04-13.5-13.5-13.5h-13.5v-13.5c0-7.46-6.04-13.5-13.5-13.5h-13.5v-54h13.5c7.46,0,13.5-6.04,13.5-13.5s-6.04-13.5-13.5-13.5h-40.5v-40.5c0-7.46-6.04-13.5-13.5-13.5h-13.5v-67.5c0-7.46-6.04-13.5-13.5-13.5Z"/>
    <path d="M675,243h13.5c7.46,0,13.5-6.04,13.5-13.5s-6.04-13.5-13.5-13.5h-27c-7.46,0-13.5,6.04-13.5,13.5s6.04,13.5,13.5,13.5h13.5Z"/>
    <path d="M540,418.5c0,7.46,6.04,13.5,13.5,13.5s13.5-6.04,13.5-13.5v-13.5h13.5c7.46,0,13.5-6.04,13.5-13.5s-6.04-13.5-13.5-13.5h-27c-7.46,0-13.5,6.04-13.5,13.5v27Z"/>
    <path d="M756,256.5v-27c0-7.46-6.04-13.5-13.5-13.5s-13.5,6.04-13.5,13.5v27c0,7.46,6.04,13.5,13.5,13.5s13.5-6.04,13.5-13.5Z"/>
    <path d="M634.5,540c7.46,0,13.5-6.04,13.5-13.5v-40.5h13.5c7.46,0,13.5-6.04,13.5-13.5s-6.04-13.5-13.5-13.5h-27c-7.46,0-13.5,6.04-13.5,13.5v13.5h-13.5c-7.46,0-13.5,6.04-13.5,13.5s6.04,13.5,13.5,13.5h13.5v13.5c0,7.46,6.04,13.5,13.5,13.5Z"/>
    <path d="M823.5,324c-7.46,0-13.5,6.04-13.5,13.5v67.5h-13.5c-7.46,0-13.5,6.04-13.5,13.5v27c0,7.46,6.04,13.5,13.5,13.5s13.5-6.04,13.5-13.5v-13.5h40.5c7.46,0,13.5-6.04,13.5-13.5s-6.04-13.5-13.5-13.5h-13.5v-67.5c0-7.46-6.04-13.5-13.5-13.5Z"/>
    <path d="M715.5,324c-7.46,0-13.5,6.04-13.5,13.5s6.04,13.5,13.5,13.5h13.5v13.5c0,7.46,6.04,13.5,13.5,13.5h13.5v13.5c0,7.46,6.04,13.5,13.5,13.5s13.5-6.04,13.5-13.5v-54c0-7.46-6.04-13.5-13.5-13.5h-54Z"/>
    <circle cx="337.5" cy="580.5" r="13.5"/>
    <path d="M351,499.5c0-7.46-6.04-13.5-13.5-13.5h-27c-7.46,0-13.5,6.04-13.5,13.5s6.04,13.5,13.5,13.5h13.5v13.5c0,7.46,6.04,13.5,13.5,13.5s13.5-6.04,13.5-13.5v-27Z"/>
    <circle cx="580.5" cy="580.5" r="13.5"/>
    <path d="M580.5,459h-27c-7.46,0-13.5,6.04-13.5,13.5v81c0,7.46,6.04,13.5,13.5,13.5s13.5-6.04,13.5-13.5v-67.5h13.5c7.46,0,13.5-6.04,13.5-13.5s-6.04-13.5-13.5-13.5Z"/>
    <path d="M310.5,243h54c7.46,0,13.5-6.04,13.5-13.5v-13.5h13.5c7.46,0,13.5-6.04,13.5-13.5v-27c0-7.46-6.04-13.5-13.5-13.5s-13.5,6.04-13.5,13.5v13.5h-27v-13.5c0-7.46-6.04-13.5-13.5-13.5s-13.5,6.04-13.5,13.5v40.5h-13.5c-7.46,0-13.5,6.04-13.5,13.5s6.04,13.5,13.5,13.5Z"/>
    <circle cx="364.5" cy="148.5" r="13.5"/>
    <circle cx="310.5" cy="337.5" r="13.5"/>
    <circle cx="445.5" cy="121.5" r="13.5"/>
    <circle cx="526.5" cy="121.5" r="13.5"/>
    <path d="M351,297h40.5c7.46,0,13.5-6.04,13.5-13.5v-27c0-7.46-6.04-13.5-13.5-13.5s-13.5,6.04-13.5,13.5v13.5h-67.5c-7.46,0-13.5,6.04-13.5,13.5s6.04,13.5,13.5,13.5h13.5v13.5c0,7.46,6.04,13.5,13.5,13.5s13.5-6.04,13.5-13.5v-13.5Z"/>
    <path d="M351,364.5c0-7.46-6.04-13.5-13.5-13.5s-13.5,6.04-13.5,13.5v54c0,7.46,6.04,13.5,13.5,13.5s13.5-6.04,13.5-13.5v-54Z"/>
    <path d="M580.5,135h-27c-7.46,0-13.5,6.04-13.5,13.5v27c0,7.46,6.04,13.5,13.5,13.5s13.5-6.04,13.5-13.5v-13.5h13.5c7.46,0,13.5-6.04,13.5-13.5s-6.04-13.5-13.5-13.5Z"/>
    <circle cx="607.5" cy="418.5" r="13.5"/>
    <path d="M499.5,81h-27c-7.46,0-13.5,6.04-13.5,13.5s6.04,13.5,13.5,13.5h27c7.46,0,13.5-6.04,13.5-13.5s-6.04-13.5-13.5-13.5Z"/>
    <path d="M13.5,189h162c7.46,0,13.5-6.04,13.5-13.5V13.5c0-7.46-6.04-13.5-13.5-13.5H13.5C6.04,0,0,6.04,0,13.5v162c0,7.46,6.04,13.5,13.5,13.5ZM27,27h135v135H27V27Z"/>
    <path d="M67.5,135h54c7.46,0,13.5-6.04,13.5-13.5v-54c0-7.46-6.04-13.5-13.5-13.5h-54c-7.46,0-13.5,6.04-13.5,13.5v54c0,7.46,6.04,13.5,13.5,13.5Z"/>
    <path d="M877.5,0h-162c-7.46,0-13.5,6.04-13.5,13.5v162c0,7.46,6.04,13.5,13.5,13.5h162c7.46,0,13.5-6.04,13.5-13.5V13.5c0-7.46-6.04-13.5-13.5-13.5ZM864,162h-135V27h135v135Z"/>
    <path d="M823.5,54h-54c-7.46,0-13.5,6.04-13.5,13.5v54c0,7.46,6.04,13.5,13.5,13.5h54c7.46,0,13.5-6.04,13.5-13.5v-54c0-7.46-6.04-13.5-13.5-13.5Z"/>
    <path d="M189,877.5v-162c0-7.46-6.04-13.5-13.5-13.5H13.5c-7.46,0-13.5,6.04-13.5,13.5v162c0,7.46,6.04,13.5,13.5,13.5h162c7.46,0,13.5-6.04,13.5-13.5ZM162,864H27v-135h135v135Z"/>
    <path d="M121.5,756h-54c-7.46,0-13.5,6.04-13.5,13.5v54c0,7.46,6.04,13.5,13.5,13.5h54c7.46,0,13.5-6.04,13.5-13.5v-54c0-7.46-6.04-13.5-13.5-13.5Z"/>
  </g>
  <g id="Layer_3" data-name="Layer 3">
    <path d="M531.54,456.72c-.29-6.76-3.74-13.93-13.22-11.24h0c.08-1.64-.07-3.06.26-4.36,3.06-12.13,4.28-24.48,3.63-36.91-.25-4.76-1.66-9.66-3.54-14.07-1.54-3.6-3.75-6.78-3.33-10.99.12-1.15-.31-2.81-1.11-3.5-2.97-2.55-2.7-5.82-2.66-9.15.08-5.04-1.69-9.33-5.31-12.85-1.33-1.29-2.86-2.45-3.99-3.9-8.08-10.36-18.92-16.45-31.39-19.56-9.6-2.39-19.37-3.3-29.38-3.62-10.43-.33-19.24,2.05-27.66,7.59-1.09.72-2.54,1.16-3.85,1.22-3.98.18-8.08-.47-11.93.25-6.29,1.16-12.03,4.1-16.15,9.12-7.4,9.02-8.76,19.51-6.75,30.73.48,2.7.62,5.28-1.1,8.09-4.7,7.67-6.34,16.45-6.33,25.26,0,7.55,1.37,15.08,2.14,22.62.31,3.04.62,6.08.96,9.33-6.96-1.68-10.43-.18-12.49,6.87-.42,1.43-.68,2.94-.76,4.43-.52,8.65,2.76,16.52,5.11,24.59,1.19,4.08,2.74,7.81,6.11,10.66.95.81,1.6,2.33,1.79,3.61.83,5.47.78,11.16,2.26,16.44,3.15,11.16,8.02,21.44,15.58,30.6,6.65,8.04,14.92,13.29,24.24,16.82,12.67,4.79,26,5.11,39.33,3.2,17.05-2.45,31.86-9.28,42.41-23.38,6.34-8.48,11.53-17.63,13.41-28.34.81-4.63,2.23-9.15,3.42-13.94,6.17,1.68,8.75-2.22,11.06-6.54.53-1,1.14-1.96,1.66-2.96,4.2-8.22,7.98-16.62,7.56-26.13h.02ZM519.58,403.14c.89,10.18-.97,19.84-2.39,29.66-.31,2.19-.7,4.37-.94,5.86-1.5-9.35-3.16-19.21-4.64-29.11-1.45-9.7-2.56-19.49-9.39-27.44.3-.28.61-.56.92-.85,1.94,1.4,3.91,2.75,5.81,4.21,5.82,4.49,9.92,9.44,10.63,17.66h0ZM513.37,385.51c-3.06-1.9-6.01-3.72-9.52-5.9,9.3-.42,8.93-1.18,9.52,5.9ZM499.83,378.34c-.19-.39-.39-.76-.59-1.15,3.23-2.29,6.45-4.57,9.57-6.78h0c.78,1.81,1.36,3.16,2.06,4.77-3.77,1.08-7.41,2.13-11.05,3.16h0ZM505.16,370.68c-.33-.21-.67-.41-1.01-.61,1.26-2.46,2.53-4.9,4.07-7.89,2.56,4.87-2.11,5.86-3.06,8.5ZM503.35,354.21c1.69,2.43,4.99,3.93,2.28,8.05-2.43,3.69-3.85,8.05-5.77,12.08-.36.77-.96,1.42-1.99,2.9-.47-1.93-1.08-2.97-.79-3.49,3.45-6.04,5.41-12.54,6.26-19.54h0ZM469.9,332.78c10.34,2.16,18.92,7.65,26.91,14.38,4.2,3.54,4.27,7.7,3.11,12.23-1.18,4.57-2.78,9.03-4.35,14.04-14.08-9.59-29.48-10.86-44.49-10.16h0c.42-8.62,1.25-16.69.98-24.72-.1-3.03-2.75-5.97-4.68-9.85,7.66,1.37,15.14,2.54,22.53,4.08h-.01ZM444.6,330.64c2.65,3.35,5.12,6.98,4.67,11.83-.62,6.86-.81,13.76-1.16,20.2-3.57,0-6.18-.15-8.78.04-2.52.18-2.56-1.32-2.43-3.04.62-8.39-1.43-16.22-5.21-23.6-.99-1.94-2.62-3.55-4.49-6.01,3.71-.45,7.57-1.2,11.46-1.28,2.02-.04,4.86.49,5.94,1.86h0ZM427.84,335.99c3.33,3.45,4.47,7.62,5.07,11.59-4.69-4.13-9.62-8.49-14.63-12.89h0c4.34-2.92,5.81-2.6,9.57,1.3h-.01ZM376.92,362.38c.12-5.63,1.52-11.31,6.87-14.22,3.43-1.87,7.7-3.26,11.53-3.12,5.92.22,12.2.69,17.24,4.5,4.26,3.22,8.17,6.91,12.24,10.38.45.38.94.72,1.55,1.19.22-3.38-8.58-11.47-14.88-14.91-6.89-3.76-14.15-4.27-21.74-4.03,7.88-6.14,17.02-5.93,25.88-4.05,9.86,2.09,18.1,13.91,18.61,24.72-12.1-.86-24.19-1.4-35.47,4.29-2.2,1.11-5.12,2.13-7.17,3.56-4.52,3.16-6.58,4.54-11.13,7.65-.45-.16-2.29,2.27-2.74,2.11v.02c-.3-6.03-.92-12.07-.8-18.09h.01ZM370.91,480.13c-.03,2.14-.02,3.84-.02,4.68-2.48-3.05-6.08-8.27-8.35-15.6-2.62-8.47-2.22-15.75-1.69-19.84,2.5,1.92,4.85,3.72,7.08,5.43.24-.83.59-2.51.02-4.44-1.18-3.96-5.21-5.31-5.64-5.45.84-.62,4.27-3.11,6.44-1.9,1.62.9,1.76,3.44,1.84,5.15.65,14.24.36,30.24.33,31.96h0ZM371.94,423.8c-2.49-9.01-1.43-26.02,2.29-34.51,2.42-5.53,7.34-8.33,12.49-11.01-11.28,13.22-10.54,30.21-14.78,45.52h0ZM469.57,499.31c0,12.1-5.98,18.56-18.12,18.77-4.85.09-9.71-1.26-14.58-1.55-4.64-.28-9.4-.62-13.94.12-8.15,1.36-18.65-6.24-18.71-14.58-.03-4.5.17-9.29,1.73-13.38,1.03-2.71,4.34-5.34,7.23-6.4,6.06-2.23,12.45-3.66,18.8-4.9,6.25-1.22,12.4-.04,18.3,2.3,2.43.96,4.74,2.24,7.21,3.02,8.89,2.79,12.74,6.11,12.07,16.59h0ZM511.07,463.98c-1.8,7.15-6.01,13.75-12.85,17.96-2.45,1.5-4.47,3.72-6.9,5.27-4.61,2.92-9.77,1.96-12.86-1.52-8.89-10.06-20.1-14.86-32.96-15.61-12.57-.73-25.56-2.26-37.15,4.6-4.9,2.9-9.02,7.09-13.71,10.4-5.59,3.93-15.03.9-16.92-5.64-2.18-7.55-2.76-15.41-3.62-23.17-.69-6.19-.69-12.5-.15-18.82.48-5.67.34-11.33,1.42-16.89,2.23-11.42,3.87-23.06,9.21-33.61,7.18-14.18,18.63-21.61,34.76-21.43,6.15.08,12.31.02,18.47.02h.02c7.18,0,14.43-.57,21.54.15,9.43.96,18.91,2,27.71,6.39,11.57,5.77,17.28,15.62,19.79,27.56,2.46,11.66,4.3,23.46,6.16,35.24,1.55,9.82.45,19.47-1.97,29.11h0ZM524.42,476.79c-1.91,4.16-4.49,8.06-7.15,11.81-.72,1.02-2.89,1.56-4.26,1.38-.64-.09-1.51-2.51-1.35-3.76.95-7.34,2.2-14.64,3.26-21.96.52-3.61.97-7.24,1.22-10.88.15-2.16-.29-4.71,2.56-5.14,2.83-.42,6.1-1.61,8.39,2.06-6.14,2.51-10.05,6.6-9.46,13.95,1.86-5.59,5.99-8.12,11.44-9.2,1.07,7.83-1.52,14.91-4.67,21.74h.02Z"/>
    <path d="M395.53,441.77c1-2.06,1.09-4.5,2.14-6.41,1.24-2.29,3.3-4.12,5.17-6.34-6.21-.49-9.39,4.61-7.31,12.77h0v-.02Z"/>
    <path d="M418.12,434.38c-.52-3.87-5.24-7.84-11.29-6.75,7.38,2.19,10.69,6.69,9.59,14.24,3.26-2.1,2.03-5.11,1.69-7.5h.01Z"/>
    <path d="M414.5,438.17c-.73-5.37-4.96-8.25-10.73-7.35.06.06,1.46,1.55.92,3.3-.37,1.2-1.4,1.75-1.73,1.92-1.73.91-3.54.12-3.8,0,0,.3.1,1.08-.02,1.82-.56,3.7.95,5.13,4.67,4.7,2.27-.26,4.6-.09,6.9-.04,3.06.07,4.17-1.6,3.8-4.36h-.01Z"/>
    <path d="M424.14,451.86c-4.8,2.06-9.62,4.08-14.39,6.21-.33.15-.32,1.08-.47,1.65.58.14,1.25.53,1.71.37,3.04-1.08,6.12-2.1,9.02-3.5,1.82-.87,3.36-2.35,5.02-3.55-.3-.39-.59-.79-.89-1.19h0Z"/>
    <path d="M422.27,435.31c.68,2.1,1.37,4.2,2.35,7.17,1.89-3.93-.84-11.67-4-14.63-10.7-10.01-28.45-2.42-34.94,7.92-.39.62.38,1.96.75,3.64,4.97-7.72,10.76-12.12,19.23-13.36,7.83-1.15,14.21,1.86,16.6,9.26h0Z"/>
    <path d="M388.58,407.4c3.96-6.14,9.23-9.79,16.88-8.75,4.34.59,8.71,1.12,12.99,2.01,2.64.55,4.32.19,5.53-2.44,1.09-2.39.89-4.3-1.36-5.57-8.11-4.62-23.54-5.45-30.39,3.34-3.04,3.9-6.27,7.78-7.09,13.51,1.16-.15,1.79-.05,2.12-.32.55-.46.92-1.15,1.32-1.76h0v-.02Z"/>
    <path d="M487.23,430.26c-2.99-2.11-10.93-6.04-20.57-4.44-5.61.94-11.38,8.61-12,14.68-.06.62.44,1.29.68,1.93.54-.49,1.29-.89,1.56-1.5.65-1.49,1.05-3.07,1.59-4.6,1.11-3.16,3-5.65,5.62-7.08,0,0,1.61-.9,3.79-1.21,4.84-.69,14.62-.93,25.8,11.11.39.42.9-.68,1.35-1.02-1.48-2.17-4-5.18-7.82-7.88h.02-.02Z"/>
    <path d="M473.36,429.7c-6.97-.68-12.59,4.92-11.75,11.69.1.83,1.26,1.54,1.92,2.3.26-.35.53-.7.79-1.05-.99-6.95,3.97-9.93,9.03-12.94h0Z"/>
    <path d="M471.76,432.84c-.15,1.72.29,4-.55,4.68-1.09.88-3.21.46-4.94.61-.28,5.31-.26,5.62,2.03,5.89,4.24.49,8.51.75,12.67,1.1,2.09-8.52-2.07-13.44-9.21-12.28h0Z"/>
    <path d="M485.71,393.52c-7.76-3.95-16.05-3.5-24.11-.28-.92.37-2.24,1.19-2.33,1.93-.23,1.85-.43,4.07.39,5.58,1.34,2.49,4.03,1.32,6.07.82,12.06-3.03,22.75-2.03,30.23,9.49.52.8,1.69,1.19,2.55,1.77.34-.38.68-.75,1.02-1.13-2.48-7.62-6.44-14.42-13.81-18.17h-.01Z"/>
    <path d="M479.52,431.43c4.82,5.01,5.68,7.04,4.38,13.4,3.16-.37,3.12-2.39,3.02-4.35-.25-4.62-3.46-8.5-7.4-9.05Z"/>
    <path d="M452.94,454.55c5.14,2.34,10.28,4.68,15.42,7.01.26-.57.52-1.14.79-1.72-5.07-2.34-10.15-4.67-15.22-7.01l-.98,1.72h-.01Z"/>
    <path d="M451.5,460.13c-.94-7.39-4.93-12.75-13.44-12.21-8.72-.69-12.14,5.67-13.41,12.8-.58,3.25.85,5.07,4.77,6.21,6.35,1.84,11.26,1.63,17.53.52,3.45-.61,4.97-4.03,4.54-7.32h.01ZM441.64,466.32c-1.47.2-2.84.23-4.32.07-.88-.1-1.76-.22-2.63-.35-.15.07-.79-.06-.74-.08h-.02c-2.48-.25-5.51-1.69-5.94-4.52-.52-3.47.24-6.41,3.09-8.61.25-.18.49-.36.75-.52.36-.35.77-.64,1.23-.85,3.42-1.53,6.58-1.29,9.95.19,2.39,1.06,4.61,3.13,5.31,5.72,1.23,4.61-2.33,8.36-6.68,8.95h0Z"/>
    <path d="M439.81,512.59c-6.67.46-13.07-.25-18.83-4.06-5.88-3.88-10.26-9-12.37-15.74-.8-2.56-.49-4.84,2.76-6.48,10.08-5.13,20.62-6.65,31.53-4.48,6.82,1.36,13.55,3.44,20.1,5.81,4.36,1.58,5.16,4.77,3.1,8.93-1.51,3.03-2.88,6.21-4.88,8.92-3.81,5.16-9.49,6.79-15.63,7.08-1.92.09-3.84.02-5.77.02h-.01ZM460.65,502.44c-10.13,3.43-20.23,2.84-30.15,2.21-5.15-.33-11.23-.26-15.09-5.6.15,1.41.53,2.79,1.24,3.57,2.53,2.79,6.61,5.14,10.3,5.85,6.77,1.32,13.82,1.79,20.74,1.65,5.14-.1,10.46-1.39,12.96-7.68h0ZM464.31,492.05c.05-.32.11-.65.16-.97-.93-.62-1.79-1.55-2.8-1.79-8.73-2.06-17.42-4.85-26.28-5.66-6.03-.55-12.32,1.71-18.47,2.83-.93.17-2.28.75-2.51,1.44-.28.84.42,2.01.51,2.35,2.59-.61,4.54-1.42,6.51-1.46,7.56-.15,15.16-.49,22.68.07,6.05.45,12.01,2.1,18.03,3.18.7.12,1.45.02,2.17.02h0ZM418.14,495.9c-.18.33-.36.66-.54.99,1.12,1.12,2.06,2.75,3.41,3.27,10.99,4.28,22.32,3.06,33.59,1.49,1.94-.27,4.77-.72,4.5-4.41-2.82,0-5.62-.26-8.35.05-8.11.92-16.1,2.46-24.1-1.23-2.36-1.09-5.64-.17-8.5-.17h0Z"/>
  </g>
</svg>