<?xml version="1.0" encoding="UTF-8"?>
<svg id="Layer_2" data-name="Layer 2" xmlns="http://www.w3.org/2000/svg" xmlns:xlink="http://www.w3.org/1999/xlink" viewBox="0 0 891 891">
  <defs>
    <style>
      .cls-1 {
        fill: none;
      }

      .cls-2 {
        fill: #fff;
        stroke: #000;
        stroke-miterlimit: 8.36;
        stroke-width: .84px;
      }

      .cls-3 {
        clip-path: url(#clippath-1);
      }

      .cls-4 {
        clip-path: url(#clippath-3);
      }

      .cls-5 {
        clip-path: url(#clippath-4);
      }

      .cls-6 {
        clip-path: url(#clippath-2);
      }

      .cls-7 {
        clip-path: url(#clippath-6);
      }

      .cls-8 {
        clip-path: url(#clippath-5);
      }

      .cls-9 {
        clip-path: url(#clippath);
      }
    </style>
    <clipPath id="clippath">
      <path class="cls-1" d="M648,13.5c0,7.46,6.04,13.5,13.5,13.5h0c7.46,0,13.5-6.04,13.5-13.5h0c0-7.46-6.04-13.5-13.5-13.5h0c-7.46,0-13.5,6.04-13.5,13.5ZM567,13.5v67.5c0,14.91,12.09,27,27,27h0V13.5c0-7.46-6.04-13.5-13.5-13.5h0c-7.46,0-13.5,6.04-13.5,13.5ZM486,27c0,14.91,12.09,27,27,27h0v-27c0-14.91-12.09-27-27-27h0v27ZM472.5,0c-7.46,0-13.5,6.04-13.5,13.5h0c0,7.46,6.04,13.5,13.5,13.5h13.5V0h-13.5ZM405,13.5c0,7.46,6.04,13.5,13.5,13.5h0c7.46,0,13.5-6.04,13.5-13.5h0c0-7.46-6.04-13.5-13.5-13.5h0c-7.46,0-13.5,6.04-13.5,13.5ZM324,27v54c14.91,0,27-12.09,27-27h0v-27c0-14.91-12.09-27-27-27h0v27ZM297,27v81c14.91,0,27-12.09,27-27h0V0c-14.91,0-27,12.09-27,27ZM621,40.5v40.5h27v-40.5c0-7.46-6.04-13.5-13.5-13.5h0c-7.46,0-13.5,6.04-13.5,13.5ZM513,54c0,14.91,12.09,27,27,27h0v-27c0-14.91-12.09-27-27-27h0v27ZM432,40.5v40.5c14.91,0,27-12.09,27-27h0v-13.5c0-7.46-6.04-13.5-13.5-13.5h0c-7.46,0-13.5,6.04-13.5,13.5ZM378,40.5v81c0,7.46,6.04,13.5,13.5,13.5h0c7.46,0,13.5-6.04,13.5-13.5h0V40.5c0-7.46-6.04-13.5-13.5-13.5h0c-7.46,0-13.5,6.04-13.5,13.5ZM243,27v27h13.5c7.46,0,13.5-6.04,13.5-13.5h0c0-7.46-6.04-13.5-13.5-13.5h-13.5ZM216,54v27c0,14.91,12.09,27,27,27h0V27c-14.91,0-27,12.09-27,27ZM648,81v94.5c0,7.46,6.04,13.5,13.5,13.5h0c7.46,0,13.5-6.04,13.5-13.5h0v-94.5c0-14.91-12.09-27-27-27h0v27ZM594,54v54c14.91,0,27-12.09,27-27h0v-27h-27ZM540,54v27h27v-27h-27ZM405,54v27h27v-27h-27ZM486,81v27h13.5c7.46,0,13.5-6.04,13.5-13.5h0c0-7.46-6.04-13.5-13.5-13.5h-13.5ZM472.5,81c-7.46,0-13.5,6.04-13.5,13.5h0c0,7.46,6.04,13.5,13.5,13.5h13.5v-27h-13.5ZM364.5,81c-7.46,0-13.5,6.04-13.5,13.5h0c0,7.46,6.04,13.5,13.5,13.5h13.5v-27h-13.5ZM270,81v54c14.91,0,27-12.09,27-27h0v-27h-27ZM243,81v27c0,14.91,12.09,27,27,27h0v-54h-27ZM513,121.5c0,7.46,6.04,13.5,13.5,13.5h0c7.46,0,13.5-6.04,13.5-13.5h0c0-7.46-6.04-13.5-13.5-13.5h0c-7.46,0-13.5,6.04-13.5,13.5ZM432,121.5c0,7.46,6.04,13.5,13.5,13.5h0c7.46,0,13.5-6.04,13.5-13.5h0c0-7.46-6.04-13.5-13.5-13.5h0c-7.46,0-13.5,6.04-13.5,13.5ZM567,135v27h13.5c7.46,0,13.5-6.04,13.5-13.5h0c0-7.46-6.04-13.5-13.5-13.5h-13.5ZM540,162v13.5c0,7.46,6.04,13.5,13.5,13.5h0c7.46,0,13.5-6.04,13.5-13.5h0v-40.5c-14.91,0-27,12.09-27,27ZM486,148.5v54c0,7.46,6.04,13.5,13.5,13.5h0c7.46,0,13.5-6.04,13.5-13.5h0v-54c0-7.46-6.04-13.5-13.5-13.5h0c-7.46,0-13.5,6.04-13.5,13.5ZM351,148.5c0,7.46,6.04,13.5,13.5,13.5h0c7.46,0,13.5-6.04,13.5-13.5h0c0-7.46-6.04-13.5-13.5-13.5h0c-7.46,0-13.5,6.04-13.5,13.5ZM297,148.5c0,7.46,6.04,13.5,13.5,13.5h0c7.46,0,13.5-6.04,13.5-13.5h0c0-7.46-6.04-13.5-13.5-13.5h0c-7.46,0-13.5,6.04-13.5,13.5ZM216,148.5v27c0,7.46,6.04,13.5,13.5,13.5h0c7.46,0,13.5-6.04,13.5-13.5h0v-27c0-7.46-6.04-13.5-13.5-13.5h0c-7.46,0-13.5,6.04-13.5,13.5ZM594,175.5v94.5h27v-94.5c0-7.46-6.04-13.5-13.5-13.5h0c-7.46,0-13.5,6.04-13.5,13.5ZM432,175.5v94.5c0,14.91,12.09,27,27,27h0v-121.5c0-7.46-6.04-13.5-13.5-13.5h0c-7.46,0-13.5,6.04-13.5,13.5ZM378,175.5v40.5c14.91,0,27-12.09,27-27h0v-13.5c0-7.46-6.04-13.5-13.5-13.5h0c-7.46,0-13.5,6.04-13.5,13.5ZM324,175.5v67.5h27v-67.5c0-7.46-6.04-13.5-13.5-13.5h0c-7.46,0-13.5,6.04-13.5,13.5ZM270,175.5v40.5c14.91,0,27-12.09,27-27h0v-13.5c0-7.46-6.04-13.5-13.5-13.5h0c-7.46,0-13.5,6.04-13.5,13.5ZM351,189v54c14.91,0,27-12.09,27-27h0v-27h-27ZM256.5,189c-7.46,0-13.5,6.04-13.5,13.5h0c0,7.46,6.04,13.5,13.5,13.5h13.5v-27h-13.5ZM837,243v54c0,14.91,12.09,27,27,27h0v-81c0-14.91-12.09-27-27-27h0v27ZM810,216v54c0,14.91,12.09,27,27,27h0v-81h-27ZM783,243c0,14.91,12.09,27,27,27h0v-54c-14.91,0-27,12.09-27,27ZM729,229.5v27c0,7.46,6.04,13.5,13.5,13.5h0c7.46,0,13.5-6.04,13.5-13.5h0v-27c0-7.46-6.04-13.5-13.5-13.5h0c-7.46,0-13.5,6.04-13.5,13.5ZM675,216v27h13.5c7.46,0,13.5-6.04,13.5-13.5h0c0-7.46-6.04-13.5-13.5-13.5h-13.5ZM661.5,216c-7.46,0-13.5,6.04-13.5,13.5h0c0,7.46,6.04,13.5,13.5,13.5h13.5v-27h-13.5ZM540,229.5c0,7.46,6.04,13.5,13.5,13.5h0c7.46,0,13.5-6.04,13.5-13.5h0c0-7.46-6.04-13.5-13.5-13.5h0c-7.46,0-13.5,6.04-13.5,13.5ZM418.5,216c-7.46,0-13.5,6.04-13.5,13.5h0c0,7.46,6.04,13.5,13.5,13.5h13.5v-27h-13.5ZM310.5,216c-7.46,0-13.5,6.04-13.5,13.5h0c0,7.46,6.04,13.5,13.5,13.5h13.5v-27h-13.5ZM162,229.5c0,7.46,6.04,13.5,13.5,13.5h0c7.46,0,13.5-6.04,13.5-13.5h0c0-7.46-6.04-13.5-13.5-13.5h0c-7.46,0-13.5,6.04-13.5,13.5ZM54,216v27h13.5c7.46,0,13.5-6.04,13.5-13.5h0c0-7.46-6.04-13.5-13.5-13.5h-13.5ZM27,243v27c0,14.91,12.09,27,27,27h0v-81c-14.91,0-27,12.09-27,27ZM621,270v27c0,14.91,12.09,27,27,27h0v-54c0-14.91-12.09-27-27-27h0v27ZM567,270v54c0,14.91,12.09,27,27,27h0v-108c-14.91,0-27,12.09-27,27ZM513,256.5c0,7.46,6.04,13.5,13.5,13.5h0c7.46,0,13.5-6.04,13.5-13.5h0c0-7.46-6.04-13.5-13.5-13.5h0c-7.46,0-13.5,6.04-13.5,13.5ZM378,256.5v40.5c14.91,0,27-12.09,27-27h0v-13.5c0-7.46-6.04-13.5-13.5-13.5h0c-7.46,0-13.5,6.04-13.5,13.5ZM189,256.5v40.5h27v-40.5c0-7.46-6.04-13.5-13.5-13.5h0c-7.46,0-13.5,6.04-13.5,13.5ZM108,256.5v13.5c0,14.91,12.09,27,27,27h0v-40.5c0-7.46-6.04-13.5-13.5-13.5h0c-7.46,0-13.5,6.04-13.5,13.5ZM864,297v27c14.91,0,27-12.09,27-27h0c0-14.91-12.09-27-27-27h0v27ZM459,270v27h13.5c7.46,0,13.5-6.04,13.5-13.5h0c0-7.46-6.04-13.5-13.5-13.5h-13.5ZM351,270v27h27v-27h-27ZM324,270v40.5c0,7.46,6.04,13.5,13.5,13.5h0c7.46,0,13.5-6.04,13.5-13.5h0v-40.5h-27ZM310.5,270c-7.46,0-13.5,6.04-13.5,13.5h0c0,7.46,6.04,13.5,13.5,13.5h13.5v-27h-13.5ZM216,297v108h27v-108c0-14.91-12.09-27-27-27h0v27ZM162,270v27h27v-27h-27ZM135,270v27h27v-27h-27ZM54,270v27h13.5c7.46,0,13.5-6.04,13.5-13.5h0c0-7.46-6.04-13.5-13.5-13.5h-13.5ZM675,297v27h13.5c7.46,0,13.5-6.04,13.5-13.5h0c0-7.46-6.04-13.5-13.5-13.5h-13.5ZM648,297v108h27v-108h-27ZM243,297v27h13.5c7.46,0,13.5-6.04,13.5-13.5h0c0-7.46-6.04-13.5-13.5-13.5h-13.5ZM0,310.5c0,7.46,6.04,13.5,13.5,13.5h0c7.46,0,13.5-6.04,13.5-13.5h0c0-7.46-6.04-13.5-13.5-13.5h0c-7.46,0-13.5,6.04-13.5,13.5ZM810,337.5v94.5h27v-94.5c0-7.46-6.04-13.5-13.5-13.5h0c-7.46,0-13.5,6.04-13.5,13.5ZM756,351v40.5c0,7.46,6.04,13.5,13.5,13.5h0c7.46,0,13.5-6.04,13.5-13.5h0v-40.5c0-14.91-12.09-27-27-27h0v27ZM729,324v27c0,14.91,12.09,27,27,27h0v-54h-27ZM715.5,324c-7.46,0-13.5,6.04-13.5,13.5h0c0,7.46,6.04,13.5,13.5,13.5h13.5v-27h-13.5ZM594,324v27h13.5c7.46,0,13.5-6.04,13.5-13.5h0c0-7.46-6.04-13.5-13.5-13.5h-13.5ZM297,337.5c0,7.46,6.04,13.5,13.5,13.5h0c7.46,0,13.5-6.04,13.5-13.5h0c0-7.46-6.04-13.5-13.5-13.5h0c-7.46,0-13.5,6.04-13.5,13.5ZM162,324v27h13.5c7.46,0,13.5-6.04,13.5-13.5h0c0-7.46-6.04-13.5-13.5-13.5h-13.5ZM135,351v81c14.91,0,27-12.09,27-27h0v-81c-14.91,0-27,12.09-27,27ZM81,337.5v13.5c0,14.91,12.09,27,27,27h0v-40.5c0-7.46-6.04-13.5-13.5-13.5h0c-7.46,0-13.5,6.04-13.5,13.5ZM324,364.5v54c0,7.46,6.04,13.5,13.5,13.5h0c7.46,0,13.5-6.04,13.5-13.5h0v-54c0-7.46-6.04-13.5-13.5-13.5h0c-7.46,0-13.5,6.04-13.5,13.5ZM270,378v27c14.91,0,27-12.09,27-27h0c0-14.91-12.09-27-27-27h0v27ZM243,351v54h27v-54h-27ZM189,378v27h27v-54c-14.91,0-27,12.09-27,27ZM108,351v27h27v-27h-27ZM27,364.5c0,7.46,6.04,13.5,13.5,13.5h0c7.46,0,13.5-6.04,13.5-13.5h0c0-7.46-6.04-13.5-13.5-13.5h0c-7.46,0-13.5,6.04-13.5,13.5ZM864,391.5c0,7.46,6.04,13.5,13.5,13.5h0c7.46,0,13.5-6.04,13.5-13.5h0c0-7.46-6.04-13.5-13.5-13.5h0c-7.46,0-13.5,6.04-13.5,13.5ZM675,405c0,14.91,12.09,27,27,27h0v-27c0-14.91-12.09-27-27-27h0v27ZM634.5,378c-7.46,0-13.5,6.04-13.5,13.5h0c0,7.46,6.04,13.5,13.5,13.5h13.5v-27h-13.5ZM567,378v27h13.5c7.46,0,13.5-6.04,13.5-13.5h0c0-7.46-6.04-13.5-13.5-13.5h-13.5ZM540,405v13.5c0,7.46,6.04,13.5,13.5,13.5h0c7.46,0,13.5-6.04,13.5-13.5h0v-40.5c-14.91,0-27,12.09-27,27ZM162,378v27h27v-27h-27ZM837,405v27h13.5c7.46,0,13.5-6.04,13.5-13.5h0c0-7.46-6.04-13.5-13.5-13.5h-13.5ZM783,432v13.5c0,7.46,6.04,13.5,13.5,13.5h0c7.46,0,13.5-6.04,13.5-13.5h0v-40.5c-14.91,0-27,12.09-27,27ZM702,405v27h13.5c7.46,0,13.5-6.04,13.5-13.5h0c0-7.46-6.04-13.5-13.5-13.5h-13.5ZM594,418.5c0,7.46,6.04,13.5,13.5,13.5h0c7.46,0,13.5-6.04,13.5-13.5h0c0-7.46-6.04-13.5-13.5-13.5h0c-7.46,0-13.5,6.04-13.5,13.5ZM108,405v27h27v-27h-27ZM81,432v27c14.91,0,27-12.09,27-27h0v-27c-14.91,0-27,12.09-27,27ZM27,432c0,14.91,12.09,27,27,27h0v-27c0-14.91-12.09-27-27-27h0v27ZM13.5,405c-7.46,0-13.5,6.04-13.5,13.5h0c0,7.46,6.04,13.5,13.5,13.5h13.5v-27h-13.5ZM729,445.5c0,7.46,6.04,13.5,13.5,13.5h0c7.46,0,13.5-6.04,13.5-13.5h0c0-7.46-6.04-13.5-13.5-13.5h0c-7.46,0-13.5,6.04-13.5,13.5ZM270,459v13.5c0,7.46,6.04,13.5,13.5,13.5h0c7.46,0,13.5-6.04,13.5-13.5h0v-13.5c0-14.91-12.09-27-27-27h0v27ZM243,432v27h27v-27h-27ZM216,459v54c0,14.91,12.09,27,27,27h0v-108c-14.91,0-27,12.09-27,27ZM162,445.5c0,7.46,6.04,13.5,13.5,13.5h0c7.46,0,13.5-6.04,13.5-13.5h0c0-7.46-6.04-13.5-13.5-13.5h0c-7.46,0-13.5,6.04-13.5,13.5ZM54,432v40.5c0,7.46,6.04,13.5,13.5,13.5h0c7.46,0,13.5-6.04,13.5-13.5h0v-40.5h-27ZM864,472.5v40.5c14.91,0,27-12.09,27-27h0v-13.5c0-7.46-6.04-13.5-13.5-13.5h0c-7.46,0-13.5,6.04-13.5,13.5ZM756,472.5v27c0,7.46,6.04,13.5,13.5,13.5h0c7.46,0,13.5-6.04,13.5-13.5h0v-27c0-7.46-6.04-13.5-13.5-13.5h0c-7.46,0-13.5,6.04-13.5,13.5ZM702,472.5v67.5h27v-67.5c0-7.46-6.04-13.5-13.5-13.5h0c-7.46,0-13.5,6.04-13.5,13.5ZM648,459v27h13.5c7.46,0,13.5-6.04,13.5-13.5h0c0-7.46-6.04-13.5-13.5-13.5h-13.5ZM621,486v40.5c0,7.46,6.04,13.5,13.5,13.5h0c7.46,0,13.5-6.04,13.5-13.5h0v-67.5c-14.91,0-27,12.09-27,27ZM567,459v27h13.5c7.46,0,13.5-6.04,13.5-13.5h0c0-7.46-6.04-13.5-13.5-13.5h-13.5ZM540,486v67.5c0,7.46,6.04,13.5,13.5,13.5h0c7.46,0,13.5-6.04,13.5-13.5h0v-94.5c-14.91,0-27,12.09-27,27ZM189,486v27h27v-54c-14.91,0-27,12.09-27,27ZM135,472.5v121.5c14.91,0,27-12.09,27-27h0v-94.5c0-7.46-6.04-13.5-13.5-13.5h0c-7.46,0-13.5,6.04-13.5,13.5ZM0,472.5v94.5c0,14.91,12.09,27,27,27h0v-121.5c0-7.46-6.04-13.5-13.5-13.5h0c-7.46,0-13.5,6.04-13.5,13.5ZM837,513v27c14.91,0,27-12.09,27-27h0v-27c-14.91,0-27,12.09-27,27ZM675,513c0,14.91,12.09,27,27,27h0v-54c-14.91,0-27,12.09-27,27ZM607.5,486c-7.46,0-13.5,6.04-13.5,13.5h0c0,7.46,6.04,13.5,13.5,13.5h13.5v-27h-13.5ZM324,513v13.5c0,7.46,6.04,13.5,13.5,13.5h0c7.46,0,13.5-6.04,13.5-13.5h0v-13.5c0-14.91-12.09-27-27-27h0v27ZM310.5,486c-7.46,0-13.5,6.04-13.5,13.5h0c0,7.46,6.04,13.5,13.5,13.5h13.5v-27h-13.5ZM243,513v135h27v-135c0-14.91-12.09-27-27-27h0v27ZM162,486v27h27v-27h-27ZM27,486v27h13.5c7.46,0,13.5-6.04,13.5-13.5h0c0-7.46-6.04-13.5-13.5-13.5h-13.5ZM810,513v27h27v-27h-27ZM783,540v27c14.91,0,27-12.09,27-27h0v-27c-14.91,0-27,12.09-27,27ZM729,513v27h13.5c7.46,0,13.5-6.04,13.5-13.5h0c0-7.46-6.04-13.5-13.5-13.5h-13.5ZM769.5,540c-7.46,0-13.5,6.04-13.5,13.5h0c0,7.46,6.04,13.5,13.5,13.5h13.5v-27h-13.5ZM297,540v27h13.5c7.46,0,13.5-6.04,13.5-13.5h0c0-7.46-6.04-13.5-13.5-13.5h-13.5ZM270,540v27h27v-27h-27ZM189,540v27h13.5c7.46,0,13.5-6.04,13.5-13.5h0c0-7.46-6.04-13.5-13.5-13.5h-13.5ZM162,540v27h27v-27h-27ZM108,540v81c14.91,0,27-12.09,27-27h0v-54h-27ZM94.5,540c-7.46,0-13.5,6.04-13.5,13.5h0c0,7.46,6.04,13.5,13.5,13.5h13.5v-27h-13.5ZM864,580.5c0,7.46,6.04,13.5,13.5,13.5h0c7.46,0,13.5-6.04,13.5-13.5h0c0-7.46-6.04-13.5-13.5-13.5h0c-7.46,0-13.5,6.04-13.5,13.5ZM810,580.5v175.5h27v-175.5c0-7.46-6.04-13.5-13.5-13.5h0c-7.46,0-13.5,6.04-13.5,13.5ZM729,580.5v94.5h27v-94.5c0-7.46-6.04-13.5-13.5-13.5h0c-7.46,0-13.5,6.04-13.5,13.5ZM567,580.5c0,7.46,6.04,13.5,13.5,13.5h0c7.46,0,13.5-6.04,13.5-13.5h0c0-7.46-6.04-13.5-13.5-13.5h0c-7.46,0-13.5,6.04-13.5,13.5ZM324,580.5c0,7.46,6.04,13.5,13.5,13.5h0c7.46,0,13.5-6.04,13.5-13.5h0c0-7.46-6.04-13.5-13.5-13.5h0c-7.46,0-13.5,6.04-13.5,13.5ZM229.5,567c-7.46,0-13.5,6.04-13.5,13.5h0c0,7.46,6.04,13.5,13.5,13.5h13.5v-27h-13.5ZM27,567v27h13.5c7.46,0,13.5-6.04,13.5-13.5h0c0-7.46-6.04-13.5-13.5-13.5h-13.5ZM837,621v54c14.91,0,27-12.09,27-27h0v-27c0-14.91-12.09-27-27-27h0v27ZM702,594v81h27v-81h-27ZM675,594v27h27v-27h-27ZM648,594v27h27v-27h-27ZM621,594v54c14.91,0,27-12.09,27-27h0v-27h-27ZM594,621v27h27v-54c-14.91,0-27,12.09-27,27ZM486,607.5c0,7.46,6.04,13.5,13.5,13.5h0c7.46,0,13.5-6.04,13.5-13.5h0c0-7.46-6.04-13.5-13.5-13.5h0c-7.46,0-13.5,6.04-13.5,13.5ZM432,594v27h13.5c7.46,0,13.5-6.04,13.5-13.5h0c0-7.46-6.04-13.5-13.5-13.5h-13.5ZM418.5,594c-7.46,0-13.5,6.04-13.5,13.5h0c0,7.46,6.04,13.5,13.5,13.5h13.5v-27h-13.5ZM297,621v54c0,14.91,12.09,27,27,27h0v-81c0-14.91-12.09-27-27-27h0v27ZM270,594v54h27v-54h-27ZM189,621c0,14.91,12.09,27,27,27h0v-27c0-14.91-12.09-27-27-27h0v27ZM175.5,594c-7.46,0-13.5,6.04-13.5,13.5h0c0,7.46,6.04,13.5,13.5,13.5h13.5v-27h-13.5ZM81,621v13.5c0,7.46,6.04,13.5,13.5,13.5h0c7.46,0,13.5-6.04,13.5-13.5h0v-40.5c-14.91,0-27,12.09-27,27ZM864,621v27h13.5c7.46,0,13.5-6.04,13.5-13.5h0c0-7.46-6.04-13.5-13.5-13.5h-13.5ZM783,621v54h27v-54h-27ZM756,621v162c14.91,0,27-12.09,27-27h0v-135h-27ZM580.5,621c-7.46,0-13.5,6.04-13.5,13.5h0c0,7.46,6.04,13.5,13.5,13.5h13.5v-27h-13.5ZM459,634.5c0,7.46,6.04,13.5,13.5,13.5h0c7.46,0,13.5-6.04,13.5-13.5h0c0-7.46-6.04-13.5-13.5-13.5h0c-7.46,0-13.5,6.04-13.5,13.5ZM324,648v54c14.91,0,27-12.09,27-27h0v-27c0-14.91-12.09-27-27-27h0v27ZM216,621v40.5c0,7.46,6.04,13.5,13.5,13.5h0c7.46,0,13.5-6.04,13.5-13.5h0v-40.5h-27ZM27,648v13.5c0,7.46,6.04,13.5,13.5,13.5h0c7.46,0,13.5-6.04,13.5-13.5h0v-13.5c0-14.91-12.09-27-27-27h0v27ZM13.5,621c-7.46,0-13.5,6.04-13.5,13.5h0c0,7.46,6.04,13.5,13.5,13.5h13.5v-27h-13.5ZM675,648v27h27v-27h-27ZM648,675v108h27v-135c-14.91,0-27,12.09-27,27ZM540,648v27h13.5c7.46,0,13.5-6.04,13.5-13.5h0c0-7.46-6.04-13.5-13.5-13.5h-13.5ZM513,675v27c14.91,0,27-12.09,27-27h0v-27c-14.91,0-27,12.09-27,27ZM405,675v54h27v-54c0-14.91-12.09-27-27-27h0v27ZM378,648v27h27v-27h-27ZM351,648v27h27v-27h-27ZM162,648v27h13.5c7.46,0,13.5-6.04,13.5-13.5h0c0-7.46-6.04-13.5-13.5-13.5h-13.5ZM135,648v27h27v-27h-27ZM121.5,648c-7.46,0-13.5,6.04-13.5,13.5h0c0,7.46,6.04,13.5,13.5,13.5h13.5v-27h-13.5ZM864,688.5v40.5c14.91,0,27-12.09,27-27h0v-13.5c0-7.46-6.04-13.5-13.5-13.5h0c-7.46,0-13.5,6.04-13.5,13.5ZM594,688.5v40.5h27v-40.5c0-7.46-6.04-13.5-13.5-13.5h0c-7.46,0-13.5,6.04-13.5,13.5ZM486,702v81h27v-108c-14.91,0-27,12.09-27,27ZM432,702v27h27v-27c0-14.91-12.09-27-27-27h0v27ZM837,702v54c0,14.91,12.09,27,27,27h0v-81h-27ZM702,715.5c0,7.46,6.04,13.5,13.5,13.5h0c7.46,0,13.5-6.04,13.5-13.5h0c0-7.46-6.04-13.5-13.5-13.5h0c-7.46,0-13.5,6.04-13.5,13.5ZM621,702v27h27v-27h-27ZM580.5,702c-7.46,0-13.5,6.04-13.5,13.5h0c0,7.46,6.04,13.5,13.5,13.5h13.5v-27h-13.5ZM459,702v27h27v-27h-27ZM391.5,702c-7.46,0-13.5,6.04-13.5,13.5h0c0,7.46,6.04,13.5,13.5,13.5h13.5v-27h-13.5ZM243,715.5v13.5c0,14.91,12.09,27,27,27h0v-40.5c0-7.46-6.04-13.5-13.5-13.5h0c-7.46,0-13.5,6.04-13.5,13.5ZM783,729v27h27v-27h-27ZM351,729v27h13.5c7.46,0,13.5-6.04,13.5-13.5h0c0-7.46-6.04-13.5-13.5-13.5h-13.5ZM324,729v81c14.91,0,27-12.09,27-27h0v-54h-27ZM297,729v27h27v-27h-27ZM270,729v81h27v-81h-27ZM864,783v40.5c0,7.46,6.04,13.5,13.5,13.5h0c7.46,0,13.5-6.04,13.5-13.5h0v-40.5c0-14.91-12.09-27-27-27h0v27ZM729,756v108h27v-108h-27ZM702,756v27h27v-27h-27ZM675,756v40.5c0,7.46,6.04,13.5,13.5,13.5h0c7.46,0,13.5-6.04,13.5-13.5h0v-40.5h-27ZM621,756v54c14.91,0,27-12.09,27-27h0v-27h-27ZM594,783v27h27v-54c-14.91,0-27,12.09-27,27ZM513,756v27h13.5c7.46,0,13.5-6.04,13.5-13.5h0c0-7.46-6.04-13.5-13.5-13.5h-13.5ZM459,756v54c14.91,0,27-12.09,27-27h0v-27h-27ZM432,756v81c14.91,0,27-12.09,27-27h0v-54h-27ZM405,783v54h27v-81c-14.91,0-27,12.09-27,27ZM810,810v13.5c0,7.46,6.04,13.5,13.5,13.5h0c7.46,0,13.5-6.04,13.5-13.5h0v-13.5c0-14.91-12.09-27-27-27h0v27ZM796.5,783c-7.46,0-13.5,6.04-13.5,13.5h0c0,7.46,6.04,13.5,13.5,13.5h13.5v-27h-13.5ZM567,783v54c14.91,0,27-12.09,27-27h0v-27h-27ZM540,810c0,14.91,12.09,27,27,27h0v-54c-14.91,0-27,12.09-27,27ZM378,810v27h27v-54c-14.91,0-27,12.09-27,27ZM297,783v27h27v-27h-27ZM243,810v27c14.91,0,27-12.09,27-27h0v-27c-14.91,0-27,12.09-27,27ZM756,837v27h27v-27c0-14.91-12.09-27-27-27h0v27ZM486,823.5v40.5h27v-40.5c0-7.46-6.04-13.5-13.5-13.5h0c-7.46,0-13.5,6.04-13.5,13.5ZM351,837v27c14.91,0,27-12.09,27-27h0v-27c-14.91,0-27,12.09-27,27ZM216,837v13.5c0,7.46,6.04,13.5,13.5,13.5h0c7.46,0,13.5-6.04,13.5-13.5h0v-40.5c-14.91,0-27,12.09-27,27ZM783,864v13.5c0,7.46,6.04,13.5,13.5,13.5h0c7.46,0,13.5-6.04,13.5-13.5h0v-13.5c0-14.91-12.09-27-27-27h0v27ZM715.5,837c-7.46,0-13.5,6.04-13.5,13.5h0c0,7.46,6.04,13.5,13.5,13.5h13.5v-27h-13.5ZM648,837v27h13.5c7.46,0,13.5-6.04,13.5-13.5h0c0-7.46-6.04-13.5-13.5-13.5h-13.5ZM621,837v54c14.91,0,27-12.09,27-27h0v-27h-27ZM594,864v27h27v-54c-14.91,0-27,12.09-27,27ZM513,837v27h13.5c7.46,0,13.5-6.04,13.5-13.5h0c0-7.46-6.04-13.5-13.5-13.5h-13.5ZM459,864v13.5c0,7.46,6.04,13.5,13.5,13.5h0c7.46,0,13.5-6.04,13.5-13.5h0v-40.5c-14.91,0-27,12.09-27,27ZM324,864v13.5c0,7.46,6.04,13.5,13.5,13.5h0c7.46,0,13.5-6.04,13.5-13.5h0v-40.5c-14.91,0-27,12.09-27,27ZM270,850.5v40.5c14.91,0,27-12.09,27-27h0v-13.5c0-7.46-6.04-13.5-13.5-13.5h0c-7.46,0-13.5,6.04-13.5,13.5ZM837,877.5c0,7.46,6.04,13.5,13.5,13.5h0c7.46,0,13.5-6.04,13.5-13.5h0c0-7.46-6.04-13.5-13.5-13.5h0c-7.46,0-13.5,6.04-13.5,13.5ZM567,864v27h27v-27h-27ZM553.5,864c-7.46,0-13.5,6.04-13.5,13.5h0c0,7.46,6.04,13.5,13.5,13.5h13.5v-27h-13.5ZM256.5,864c-7.46,0-13.5,6.04-13.5,13.5h0c0,7.46,6.04,13.5,13.5,13.5h13.5v-27h-13.5Z"/>
    </clipPath>
    <clipPath id="clippath-1">
      <path class="cls-1" d="M162,27v162c14.91,0,27-12.09,27-27h0V27c0-14.91-12.09-27-27-27h0v27ZM135,0v27h27V0h-27ZM108,0v27h27V0h-27ZM81,0v27h27V0h-27ZM54,0v27h27V0h-27ZM27,0v27h27V0h-27ZM0,27v135c0,14.91,12.09,27,27,27h0V0C12.09,0,0,12.09,0,27ZM135,162v27h27v-27h-27ZM108,162v27h27v-27h-27ZM81,162v27h27v-27h-27ZM54,162v27h27v-27h-27ZM27,162v27h27v-27h-27Z"/>
    </clipPath>
    <clipPath id="clippath-2">
      <path class="cls-1" d="M132.62,128.52c.16-.11.22-.32.22-.49l-.11-1.73c0-.32-.27-.59-.59-.59h-.11c.05-.32.11-.65.22-1.19-.16-.32-.22-.65-.27-.7.05,0,.16.05.22.05.22,0,.43-.11.54-.27.16-.27.11-.59-.11-.76-.05-.11-.11-.59-.11-.92,0-.27-.05-.54-.05-.81h.05c.11-.11,0-.49,0-.65v-.11c.16-.11.22-.27.27-.49,0-.32,0-.7-.22-.97.05-.7,0-1.4-.05-2.11,0-.22-.05-.49-.05-.7.16-.05.32-.11.43-.22.11-.11.27-.32.22-.54-.05-.86-.16-1.73-.27-2.54-.16-1.24-.32-2.43-.27-3.56,0-.22-.11-.32-.27-.43l.05-.11c.05-.22.16-.49.22-.81.16-.05.27-.22.32-.38,0-.05.05-.16,0-.27.05-1.03-.05-2.05-.27-3.35l-.11-.81c.05-.05.05-.16.11-.22.11-.54.16-1.24.16-1.89,0-.38,0-.81-.11-1.73,0-.05-.05-.16-.11-.22.43-1.35.22-2.65.05-3.78-.11-.81-.22-1.62-.11-2.38h.05c.05,0,.16,0,.22-.05.22-.27.22-.38,0-2.43,0-.22-.05-.43-.27-.59,0,0,.05-.16.11-.22.11-.22,0-.49-.16-.7,0-.11.05-.27,0-.32-.11-.32-.38-.49-.43-.7.05-.16.11-.38.11-.54.05-.05.11-.05.16-.11.16-.11.22-.32.22-.49,0-.32-.11-.59-.16-.86.38-.65.43-.97.49-1.67l.22-1.3c.05-.32-.22-.43-.54-.54h-.05c-.11-.27-.11-.54-.11-.97,0-.22,0-.49-.05-.76.32-.16.65-.7.7-.92l-.05-.05c.27-.22.32-.76.16-1.03.05-.32.11-.76-.11-1.3l.05-.05c.16-.16.27-.38.22-.59,0-.22-.22-.54-.43-.76,0-2,.05-4.59-.7-6.53.05-.05.11-.16.11-.22.05-.59.11-1.24,0-1.84.11-.05.16-.11.22-.16.05-.05,0-.22,0-.43.27-.11.43-.43.38-.76l-.27-.97c.16-.16.27-.54.22-.76-.11-.86-.22-1.51-.43-2,.11-.05.22-.05.27-.11.16-.11.16-.38.16-.54s-.11-.49-.22-.59c-.11-.16-.43-.54-.59-.54.22-.05.38-.11.49-.32.05-.22.05-.32-.05-.49,0-.22.05-.59-.22-1.03.05-.05.16-.11.22-.22.16-.22.11-.54-.05-.76-.38-.43-.97-.7-1.51-.76-.32-.38-.92-.65-1.62-.65h-.22c-.16-.05-.65-.22-.76-.22-.27,0-.54.05-.76.22-.05,0-.11-.05-.11-.05-.16-.05-.43-.16-.65-.16h-.11l-.38.22c-.11-.11-.27-.16-.38-.22-.11-.05-.32-.05-.49-.05-.11,0-.16,0-.22.05-.11.05-.22.16-.32.32-.11-.16-.32-.27-.49-.27h-.16s-.22.11-.27.11h-.22c-.11,0-.16,0-.22.05-.38.05-.76.05-1.08.22h-.27c-.27,0-.59.05-.97.22,0-.27-.11-.49-.32-.59-.11-.05-.22-.05-.32-.05-.16,0-.27.05-.38.11-.05.05-.32.16-.59.27-.27-.27-.7-.27-1.19-.27h-.11c-.16,0-.38,0-.43.16,0-.22-.11-.43-.32-.54-.11-.05-.22-.11-.32-.11-.16,0-.32.05-.43.16-.27.27-1.03.27-1.73.32-.43,0-.86.05-1.3.11h-.11c-.32-.05-.54-.11-1.24-.38-.05,0-.16-.05-.22-.05-.11,0-.22,0-.27.05-.16.11-.27.22-.27.38-.05.05-.22.16-.43.22.05-.22.05-.38,0-.49-.11-.22-.49-.43-.76-.43h-.16c-.27.05-.65.27-.59.59-.16.05-.32.11-.49.16-.16-.11-.27-.22-.27-.22-.11-.16-.32-.32-.54-.32h-.11c-.27.05-.43.22-.49.43-.05,0-.27.05-.49.11-.11-.05-.27-.11-.38-.16v-.16c-.05-.32-.32-.54-.65-.54-.16,0-.97.22-1.08.38-.05.05-.11.16-.16.22,0-.05-.05-.05-.11-.11-.11-.11-.38-.32-.54-.32h-.05c-.43.05-.81.27-1.19.38-.16.05-.27.11-.38.16-.11-.11-.27-.16-.43-.16-.11,0-.22,0-.27.05-.27.16-.81.16-1.35.16-.59,0-1.3.05-1.89.22-.05,0-.16-.05-.22-.05-.11,0-.22,0-.27.05,0,0-.27.05-.32.05-.05-.27-.22-.54-.32-.65-.11-.11-.59-.16-.92-.16-.11,0-1.57-.05-1.57-.05-.49,0-1.73,0-2.32.92-.43,0-.59-.16-.81-.38-.27-.22-.59-.49-1.19-.49-.27,0-.54.05-1.08.32l-.43.32s0-.05-.05-.05c-.11-.22-.38-.32-.65-.32-.49,0-.81.11-.76.22-.32-.05-.54-.05-.7-.16-.11-.05-.16-.05-.27-.05-.16,0-.27.05-.38.16-.16-.05-.27-.11-.43-.16-.32-.11-.7-.27-1.57-.27h-.05c-.05.05-.22.11-.32.16,0-.05-.05-.05-.05-.05-.32-.16-1.13-.38-1.3-.38-.32,0-.38.27-.43.59v.05c-.22.05-.38.11-.54.22h-.22c-.11,0-.22,0-.32.05-.05-.27-.32-.32-.54-.38h-.05c-.22,0-.54.22-.65.38-.16-.05-.27-.11-.49-.11-.11,0-.27,0-.43.05,0-.32-.16-.59-.49-.65h-.16c-.22,0-.43.11-.54.32,0,.05-.05.11-.05.16-.11.05-.27.11-.38.16,0-.16-.11-.32-.27-.43-.11-.05-.22-.11-.32-.11h-.16l-.97.27c-.86,0-1.89-.05-2.48-.27-.16,0-.43-.05-.65-.05-.16,0-.27,0-.32.05-.16-.16-.43-.32-.65-.32-.05,0-.11,0-.16.05-.27.16-.49.27-.38.54-.05,0-.16-.05-.22-.05h-.22c-.65,0-1.4.05-1.13.27-.38,0-.65-.11-.65-.16-.16-.11-.43-.27-.65-.27-.05,0-.11,0-.16.05-.27.11-.54.22-.54.49-.32,0-.7,0-.97.16-.32-.16-.7-.22-1.62-.38-.05,0-.38-.11-.49-.11-.16,0-.32.05-.38.22-.16-.22-.38-.32-.59-.32h-.05c-.16,0-.43.05-.59.43l-.92-.38c-.16,0-.32.11-.43.16-.22-.05-.43-.16-.7-.16-.11,0-.59.16-.76.22h-.22c-.76,0-1.35.27-1.62.65-.59.05-1.19.38-1.57.76-.22.22,0,.54.16.76,0,.05.05.05.11.11-.43.49-.38.92-.27.97-.16.16-.27.27-.16.49.05.22.16.22.32.27,0,.16-.38.65-.7,1.08-.11.16-.16.32-.11.49.05.16.11.32.27.38.05.05.16.05.27.11-.27.54-.38,1.3-.49,2.38-.05.22.11.27.27.27l-.27,1.08c-.05.27.16.38.38.49-.05.27-.11.65,0,.76.05.05.11.11.22.16-.11.59-.11,1.24.11,2,.05.11.05.22.11.27-.76,2.05-.76,4.7-.7,6.7v.76h.11l-.27.27v.11c-.22.59-.16,1.08-.11,1.73-.11.22-.05.59.22.76.11.05.22.11.38.11.11,0,.22-.05.32-.11l-.22.7c.05.11.11.16.22.27v.59c0,.32,0,.59-.05.76h-.16c-.38.16-.54.43-.49.76l.22,1.35h.05v.22c.05.38.05.7.43,1.35-.11.27-.16.54-.16.86,0,.16.05.38.22.49l.11.11c0,.11-.05.22-.11.32-.05.16.05.32.22.49-.16.11-.38.32-.43.49s-.05.27,0,.43c-.16.22-.16.54-.05.76,0,.05.05.11.05.16-.05,0-.05.05-.05.05-.16.16-.32.49-.27.7-.16,1.51-.16,1.84.27,2.16.11.76,0,1.57-.11,2.38-.16,1.19-.38,2.54.11,3.94-.16.27-.32.54-.38.65.05.32.05.7.05,1.13,0,.65.05,1.35.16,1.89,0,.05.05.11.11.16l-.11.86c-.16,1.3-.32,2.27-.27,3.29v.27c.05.16.16.32.32.38.05.22.16.49.27.7-.22.11-.32.32-.32.59.05,1.13-.11,2.32-.27,3.56-.11.86-.22,1.73-.11,3.02.11.11.32.22.49.27,0,.22-.05.43-.05.7-.05.7-.11,1.4-.05,2.11-.11.11-.27.81-.22.97,0,.16.05.27.16.38-.05.11.05.32.16.49-.11.38-.11.76-.16,1.13,0,.32-.05.81-.11.92-.22.22-.27.43-.11.7.11.16.27.22.43.22.11,0,.22,0,.32-.05.05.11-.05.54-.16,1.51.05.11.11.27.16.59h-.11c-.32,0-.54.27-.59.59l-.11,1.73c0,.22.05.38.22.49,0,.11-.11.81-.11,1.08-.22.11-.32.32-.32.59.05.59.11,1.19.49,1.78.11.16.7.38.92.38,0,0,.76.16.81.16.38,0,.59-.22.7-.32,1.24,0,2.05.16,2.81.32.59.11,1.19.22,1.94.27h.16c.16,0,.27-.05.38-.11.05-.05.11-.05.16-.11.49.05.86.22,1.3.43.05.05.16.05.22.05.16,0,.27-.11.38-.22.27.16.59.27,1.3.38h.05c.11,0,.22-.05.32-.11.05.05.11.05.16.05.11.05.22.05.32.05.16,0,.32-.05.43-.22.16-.22.11-.43-.05-.59.22-.05.54-.11.76-.27.05,0,.16.05.16.05,0,.16.05.49.16.65.11.16.65.32.81.32v-.22c.11,0,.22.05.32.05l.11.11h.11c.11,0,.27,0,.38-.05.59.05,1.24.05,1.84.05h1.03c.76,0,1.57,0,2.32.11h.05c.27,0,.43-.16.54-.43.49.05,1.19.16,1.89.27l.11-.65.54.86c.05.05.49.05.76.05h.16l.97.16h.22c.22.05.49.11.81.11.65,0,1.51-.16,1.35-.49.32.27.76.38,1.35.38.27,0,.54,0,1.03-.11.16.11.38.16.59.16.11,0,.22,0,.32-.05.49,0,.97-.05,1.24-.27h.11s.22,0,.27-.05l1.4-.05c.32,0,.59.05.81.11h.16c.22,0,.59-.05.7-.16l.86.05c.22,0,.38,0,.54-.05.32.16.76.27,1.3.27.49,0,.97-.05,1.4-.16h.05c.11.22.38.38.65.38.92,0,1.4-.16,1.67-.32.27.05.54.11.86.11.43,0,.86-.05,1.24-.16.27-.05.54-.11.76-.11l1.03.38c1.4-.22,2.75-.38,4.05-.49.05.16.11.27.22.38.11.11.27.11.38.11.05,0,.86-.16,1.46-.22.97-.16,2.11-.38,3.02-.49v.05c.11.22.32.38.59.38h.05c.81-.11,1.57-.11,2.32-.11h1.03c.65,0,1.3,0,2-.22.16.11.38.22.54.22h.22c.16,0,.7-.16.81-.32.11-.16.22-.43.16-.65l.22-.11c.11.05.27.11.38.11.16,0,.27-.05.43-.11-.16.22-.22.54-.05.76.11.22.32.32.54.32h.16c.05,0,.11-.05.16-.05.11.05.22.05.32.05h.05c.59-.05.92-.22,1.19-.32.11.16.32.22.49.22.11,0,.16,0,.27-.05.38-.16.76-.38,1.4-.38.11.11.27.22.49.22h.05c.76-.05,1.35-.16,1.94-.27.7-.16,1.4-.27,2.86-.32.11.11.27.32.7.32.05,0,1.24-.27,1.24-.27.22,0,.43-.11.54-.27.38-.59.43-1.19.49-1.78,0-.16-.11-.27-.27-.38-.16-.32-.22-.7-.32-1.24h0Z"/>
    </clipPath>
    <clipPath id="clippath-3">
      <path class="cls-1" d="M864,27v162c14.91,0,27-12.09,27-27h0V27c0-14.91-12.09-27-27-27h0v27ZM837,0v27h27V0h-27ZM810,0v27h27V0h-27ZM783,0v27h27V0h-27ZM756,0v27h27V0h-27ZM729,0v27h27V0h-27ZM702,27v135c0,14.91,12.09,27,27,27h0V0c-14.91,0-27,12.09-27,27ZM837,162v27h27v-27h-27ZM810,162v27h27v-27h-27ZM783,162v27h27v-27h-27ZM756,162v27h27v-27h-27ZM729,162v27h27v-27h-27Z"/>
    </clipPath>
    <clipPath id="clippath-4">
      <path class="cls-1" d="M834.62,128.52c.16-.11.22-.32.22-.49l-.11-1.73c0-.32-.27-.59-.59-.59h-.11c.05-.32.11-.65.22-1.19-.16-.32-.22-.65-.27-.7.05,0,.16.05.22.05.22,0,.43-.11.54-.27.16-.27.11-.59-.11-.76-.05-.11-.11-.59-.11-.92,0-.27-.05-.54-.05-.81h.05c.11-.11,0-.49,0-.65v-.11c.16-.11.22-.27.27-.49,0-.32,0-.7-.22-.97.05-.7,0-1.4-.05-2.11,0-.22-.05-.49-.05-.7.16-.05.32-.11.43-.22.11-.11.27-.32.22-.54-.05-.86-.16-1.73-.27-2.54-.16-1.24-.32-2.43-.27-3.56,0-.22-.11-.32-.27-.43l.05-.11c.05-.22.16-.49.22-.81.16-.05.27-.22.32-.38,0-.05.05-.16,0-.27.05-1.03-.05-2.05-.27-3.35l-.11-.81c.05-.05.05-.16.11-.22.11-.54.16-1.24.16-1.89,0-.38,0-.81-.11-1.73,0-.05-.05-.16-.11-.22.43-1.35.22-2.65.05-3.78-.11-.81-.22-1.62-.11-2.38h.05c.05,0,.16,0,.22-.05.22-.27.22-.38,0-2.43,0-.22-.05-.43-.27-.59,0,0,.05-.16.11-.22.11-.22,0-.49-.16-.7,0-.11.05-.27,0-.32-.11-.32-.38-.49-.43-.7.05-.16.11-.38.11-.54.05-.05.11-.05.16-.11.16-.11.22-.32.22-.49,0-.32-.11-.59-.16-.86.38-.65.43-.97.49-1.67l.22-1.3c.05-.32-.22-.43-.54-.54h-.05c-.11-.27-.11-.54-.11-.97,0-.22,0-.49-.05-.76.32-.16.65-.7.7-.92l-.05-.05c.27-.22.32-.76.16-1.03.05-.32.11-.76-.11-1.3l.05-.05c.16-.16.27-.38.22-.59,0-.22-.22-.54-.43-.76,0-2,.05-4.59-.7-6.53.05-.05.11-.16.11-.22.05-.59.11-1.24,0-1.84.11-.05.16-.11.22-.16.05-.05,0-.22,0-.43.27-.11.43-.43.38-.76l-.27-.97c.16-.16.27-.54.22-.76-.11-.86-.22-1.51-.43-2,.11-.05.22-.05.27-.11.16-.11.16-.38.16-.54s-.11-.49-.22-.59c-.11-.16-.43-.54-.59-.54.22-.05.38-.11.49-.32.05-.22.05-.32-.05-.49,0-.22.05-.59-.22-1.03.05-.05.16-.11.22-.22.16-.22.11-.54-.05-.76-.38-.43-.97-.7-1.51-.76-.32-.38-.92-.65-1.62-.65h-.22c-.16-.05-.65-.22-.76-.22-.27,0-.54.05-.76.22-.05,0-.11-.05-.11-.05-.16-.05-.43-.16-.65-.16h-.11l-.38.22c-.11-.11-.27-.16-.38-.22-.11-.05-.32-.05-.49-.05-.11,0-.16,0-.22.05-.11.05-.22.16-.32.32-.11-.16-.32-.27-.49-.27h-.16s-.22.11-.27.11h-.22c-.11,0-.16,0-.22.05-.38.05-.76.05-1.08.22h-.27c-.27,0-.59.05-.97.22,0-.27-.11-.49-.32-.59-.11-.05-.22-.05-.32-.05-.16,0-.27.05-.38.11-.05.05-.32.16-.59.27-.27-.27-.7-.27-1.19-.27h-.11c-.16,0-.38,0-.43.16,0-.22-.11-.43-.32-.54-.11-.05-.22-.11-.32-.11-.16,0-.32.05-.43.16-.27.27-1.03.27-1.73.32-.43,0-.86.05-1.3.11h-.11c-.32-.05-.54-.11-1.24-.38-.05,0-.16-.05-.22-.05-.11,0-.22,0-.27.05-.16.11-.27.22-.27.38-.05.05-.22.16-.43.22.05-.22.05-.38,0-.49-.11-.22-.49-.43-.76-.43h-.16c-.27.05-.65.27-.59.59-.16.05-.32.11-.49.16-.16-.11-.27-.22-.27-.22-.11-.16-.32-.32-.54-.32h-.11c-.27.05-.43.22-.49.43-.05,0-.27.05-.49.11-.11-.05-.27-.11-.38-.16v-.16c-.05-.32-.32-.54-.65-.54-.16,0-.97.22-1.08.38-.05.05-.11.16-.16.22,0-.05-.05-.05-.11-.11-.11-.11-.38-.32-.54-.32h-.05c-.43.05-.81.27-1.19.38-.16.05-.27.11-.38.16-.11-.11-.27-.16-.43-.16-.11,0-.22,0-.27.05-.27.16-.81.16-1.35.16-.59,0-1.3.05-1.89.22-.05,0-.16-.05-.22-.05-.11,0-.22,0-.27.05,0,0-.27.05-.32.05-.05-.27-.22-.54-.32-.65-.11-.11-.59-.16-.92-.16-.11,0-1.57-.05-1.57-.05-.49,0-1.73,0-2.32.92-.43,0-.59-.16-.81-.38-.27-.22-.59-.49-1.19-.49-.27,0-.54.05-1.08.32l-.43.32s0-.05-.05-.05c-.11-.22-.38-.32-.65-.32-.49,0-.81.11-.76.22-.32-.05-.54-.05-.7-.16-.11-.05-.16-.05-.27-.05-.16,0-.27.05-.38.16-.16-.05-.27-.11-.43-.16-.32-.11-.7-.27-1.57-.27h-.05c-.05.05-.22.11-.32.16,0-.05-.05-.05-.05-.05-.32-.16-1.13-.38-1.3-.38-.32,0-.38.27-.43.59v.05c-.22.05-.38.11-.54.22h-.22c-.11,0-.22,0-.32.05-.05-.27-.32-.32-.54-.38h-.05c-.22,0-.54.22-.65.38-.16-.05-.27-.11-.49-.11-.11,0-.27,0-.43.05,0-.32-.16-.59-.49-.65h-.16c-.22,0-.43.11-.54.32,0,.05-.05.11-.05.16-.11.05-.27.11-.38.16,0-.16-.11-.32-.27-.43-.11-.05-.22-.11-.32-.11h-.16l-.97.27c-.86,0-1.89-.05-2.48-.27-.16,0-.43-.05-.65-.05-.16,0-.27,0-.32.05-.16-.16-.43-.32-.65-.32-.05,0-.11,0-.16.05-.27.16-.49.27-.38.54-.05,0-.16-.05-.22-.05h-.22c-.65,0-1.4.05-1.13.27-.38,0-.65-.11-.65-.16-.16-.11-.43-.27-.65-.27-.05,0-.11,0-.16.05-.27.11-.54.22-.54.49-.32,0-.7,0-.97.16-.32-.16-.7-.22-1.62-.38-.05,0-.38-.11-.49-.11-.16,0-.32.05-.38.22-.16-.22-.38-.32-.59-.32h-.05c-.16,0-.43.05-.59.43l-.92-.38c-.16,0-.32.11-.43.16-.22-.05-.43-.16-.7-.16-.11,0-.59.16-.76.22h-.22c-.76,0-1.35.27-1.62.65-.59.05-1.19.38-1.57.76-.22.22,0,.54.16.76,0,.05.05.05.11.11-.43.49-.38.92-.27.97-.16.16-.27.27-.16.49.05.22.16.22.32.27,0,.16-.38.65-.7,1.08-.11.16-.16.32-.11.49.05.16.11.32.27.38.05.05.16.05.27.11-.27.54-.38,1.3-.49,2.38-.05.22.11.27.27.27l-.27,1.08c-.05.27.16.38.38.49-.05.27-.11.65,0,.76.05.05.11.11.22.16-.11.59-.11,1.24.11,2,.05.11.05.22.11.27-.76,2.05-.76,4.7-.7,6.7v.76h.11l-.27.27v.11c-.22.59-.16,1.08-.11,1.73-.11.22-.05.59.22.76.11.05.22.11.38.11.11,0,.22-.05.32-.11l-.22.7c.05.11.11.16.22.27v.59c0,.32,0,.59-.05.76h-.16c-.38.16-.54.43-.49.76l.22,1.35h.05v.22c.05.38.05.7.43,1.35-.11.27-.16.54-.16.86,0,.16.05.38.22.49q.05.05.11.11c0,.11-.05.22-.11.32-.05.16.05.32.22.49-.16.11-.38.32-.43.49s-.05.27,0,.43c-.16.22-.16.54-.05.76,0,.05.05.11.05.16-.05,0-.05.05-.05.05-.16.16-.32.49-.27.7-.16,1.51-.16,1.84.27,2.16.11.76,0,1.57-.11,2.38-.16,1.19-.38,2.54.11,3.94-.16.27-.32.54-.38.65.05.32.05.7.05,1.13,0,.65.05,1.35.16,1.89,0,.05.05.11.11.16l-.11.86c-.16,1.3-.32,2.27-.27,3.29v.27c.05.16.16.32.32.38.05.22.16.49.27.7-.22.11-.32.32-.32.59.05,1.13-.11,2.32-.27,3.56-.11.86-.22,1.73-.11,3.02.11.11.32.22.49.27,0,.22-.05.43-.05.7-.05.7-.11,1.4-.05,2.11-.11.11-.27.81-.22.97,0,.16.05.27.16.38-.05.11.05.32.16.49-.11.38-.11.76-.16,1.13,0,.32-.05.81-.11.92-.22.22-.27.43-.11.7.11.16.27.22.43.22.11,0,.22,0,.32-.05.05.11-.05.54-.16,1.51.05.11.11.27.16.59h-.11c-.32,0-.54.27-.59.59l-.11,1.73c0,.22.05.38.22.49,0,.11-.11.81-.11,1.08-.22.11-.32.32-.32.59.05.59.11,1.19.49,1.78.11.16.7.38.92.38,0,0,.76.16.81.16.38,0,.59-.22.7-.32,1.24,0,2.05.16,2.81.32.59.11,1.19.22,1.94.27h.16c.16,0,.27-.05.38-.11.05-.05.11-.05.16-.11.49.05.86.22,1.3.43.05.05.16.05.22.05.16,0,.27-.11.38-.22.27.16.59.27,1.3.38h.05c.11,0,.22-.05.32-.11.05.05.11.05.16.05.11.05.22.05.32.05.16,0,.32-.05.43-.22.16-.22.11-.43-.05-.59.22-.05.54-.11.76-.27.05,0,.16.05.16.05,0,.16.05.49.16.65.11.16.65.32.81.32v-.22c.11,0,.22.05.32.05l.11.11h.11c.11,0,.27,0,.38-.05.59.05,1.24.05,1.84.05h1.03c.76,0,1.57,0,2.32.11h.05c.27,0,.43-.16.54-.43.49.05,1.19.16,1.89.27l.11-.65.54.86c.05.05.49.05.76.05h.16l.97.16h.22c.22.05.49.11.81.11.65,0,1.51-.16,1.35-.49.32.27.76.38,1.35.38.27,0,.54,0,1.03-.11.16.11.38.16.59.16.11,0,.22,0,.32-.05.49,0,.97-.05,1.24-.27h.11s.22,0,.27-.05l1.4-.05c.32,0,.59.05.81.11h.16c.22,0,.59-.05.7-.16l.86.05c.22,0,.38,0,.54-.05.32.16.76.27,1.3.27.49,0,.97-.05,1.4-.16h.05c.11.22.38.38.65.38.92,0,1.4-.16,1.67-.32.27.05.54.11.86.11.43,0,.86-.05,1.24-.16.27-.05.54-.11.76-.11l1.03.38c1.4-.22,2.75-.38,4.05-.49.05.16.11.27.22.38s.27.11.38.11c.05,0,.86-.16,1.46-.22.97-.16,2.11-.38,3.02-.49v.05c.11.22.32.38.59.38h.05c.81-.11,1.57-.11,2.32-.11h1.03c.65,0,1.3,0,2-.22.16.11.38.22.54.22h.22c.16,0,.7-.16.81-.32.11-.16.22-.43.16-.65l.22-.11c.11.05.27.11.38.11.16,0,.27-.05.43-.11-.16.22-.22.54-.05.76.11.22.32.32.54.32h.16c.05,0,.11-.05.16-.05.11.05.22.05.32.05h.05c.59-.05.92-.22,1.19-.32.11.16.32.22.49.22.11,0,.16,0,.27-.05.38-.16.76-.38,1.4-.38.11.11.27.22.49.22h.05c.76-.05,1.35-.16,1.94-.27.7-.16,1.4-.27,2.86-.32.11.11.27.32.7.32.05,0,1.24-.27,1.24-.27.22,0,.43-.11.54-.27.38-.59.43-1.19.49-1.78,0-.16-.11-.27-.27-.38-.16-.32-.22-.7-.32-1.24h0Z"/>
    </clipPath>
    <clipPath id="clippath-5">
      <path class="cls-1" d="M162,729v162c14.91,0,27-12.09,27-27h0v-135c0-14.91-12.09-27-27-27h0v27ZM135,702v27h27v-27h-27ZM108,702v27h27v-27h-27ZM81,702v27h27v-27h-27ZM54,702v27h27v-27h-27ZM27,702v27h27v-27h-27ZM0,729v135c0,14.91,12.09,27,27,27h0v-189c-14.91,0-27,12.09-27,27ZM135,864v27h27v-27h-27ZM108,864v27h27v-27h-27ZM81,864v27h27v-27h-27ZM54,864v27h27v-27h-27ZM27,864v27h27v-27h-27Z"/>
    </clipPath>
    <clipPath id="clippath-6">
      <path class="cls-1" d="M132.62,830.52c.16-.11.22-.32.22-.49l-.11-1.73c0-.32-.27-.59-.59-.59h-.11c.05-.32.11-.65.22-1.19-.16-.32-.22-.65-.27-.7.05,0,.16.05.22.05.22,0,.43-.11.54-.27.16-.27.11-.59-.11-.76-.05-.11-.11-.59-.11-.92,0-.27-.05-.54-.05-.81h.05c.11-.11,0-.49,0-.65v-.11c.16-.11.22-.27.27-.49,0-.32,0-.7-.22-.97.05-.7,0-1.4-.05-2.11,0-.22-.05-.49-.05-.7.16-.05.32-.11.43-.22.11-.11.27-.32.22-.54-.05-.86-.16-1.73-.27-2.54-.16-1.24-.32-2.43-.27-3.56,0-.22-.11-.32-.27-.43l.05-.11c.05-.22.16-.49.22-.81.16-.05.27-.22.32-.38,0-.05.05-.16,0-.27.05-1.03-.05-2.05-.27-3.35l-.11-.81c.05-.05.05-.16.11-.22.11-.54.16-1.24.16-1.89,0-.38,0-.81-.11-1.73,0-.05-.05-.16-.11-.22.43-1.35.22-2.65.05-3.78-.11-.81-.22-1.62-.11-2.38h.05c.05,0,.16,0,.22-.05.22-.27.22-.38,0-2.43,0-.22-.05-.43-.27-.59,0,0,.05-.16.11-.22.11-.22,0-.49-.16-.7,0-.11.05-.27,0-.32-.11-.32-.38-.49-.43-.7.05-.16.11-.38.11-.54.05-.05.11-.05.16-.11.16-.11.22-.32.22-.49,0-.32-.11-.59-.16-.86.38-.65.43-.97.49-1.67l.22-1.3c.05-.32-.22-.43-.54-.54h-.05c-.11-.27-.11-.54-.11-.97,0-.22,0-.49-.05-.76.32-.16.65-.7.7-.92l-.05-.05c.27-.22.32-.76.16-1.03.05-.32.11-.76-.11-1.3l.05-.05c.16-.16.27-.38.22-.59,0-.22-.22-.54-.43-.76,0-2,.05-4.59-.7-6.53.05-.05.11-.16.11-.22.05-.59.11-1.24,0-1.84.11-.05.16-.11.22-.16s0-.22,0-.43c.27-.11.43-.43.38-.76l-.27-.97c.16-.16.27-.54.22-.76-.11-.86-.22-1.51-.43-2,.11-.05.22-.05.27-.11.16-.11.16-.38.16-.54s-.11-.49-.22-.59c-.11-.16-.43-.54-.59-.54.22-.05.38-.11.49-.32.05-.22.05-.32-.05-.49,0-.22.05-.59-.22-1.03.05-.05.16-.11.22-.22.16-.22.11-.54-.05-.76-.38-.43-.97-.7-1.51-.76-.32-.38-.92-.65-1.62-.65h-.22c-.16-.05-.65-.22-.76-.22-.27,0-.54.05-.76.22-.05,0-.11-.05-.11-.05-.16-.05-.43-.16-.65-.16h-.11l-.38.22c-.11-.11-.27-.16-.38-.22s-.32-.05-.49-.05c-.11,0-.16,0-.22.05-.11.05-.22.16-.32.32-.11-.16-.32-.27-.49-.27h-.16s-.22.11-.27.11h-.22c-.11,0-.16,0-.22.05-.38.05-.76.05-1.08.22h-.27c-.27,0-.59.05-.97.22,0-.27-.11-.49-.32-.59-.11-.05-.22-.05-.32-.05-.16,0-.27.05-.38.11-.05.05-.32.16-.59.27-.27-.27-.7-.27-1.19-.27h-.11c-.16,0-.38,0-.43.16,0-.22-.11-.43-.32-.54-.11-.05-.22-.11-.32-.11-.16,0-.32.05-.43.16-.27.27-1.03.27-1.73.32-.43,0-.86.05-1.3.11h-.11c-.32-.05-.54-.11-1.24-.38-.05,0-.16-.05-.22-.05-.11,0-.22,0-.27.05-.16.11-.27.22-.27.38-.05.05-.22.16-.43.22.05-.22.05-.38,0-.49-.11-.22-.49-.43-.76-.43h-.16c-.27.05-.65.27-.59.59-.16.05-.32.11-.49.16-.16-.11-.27-.22-.27-.22-.11-.16-.32-.32-.54-.32h-.11c-.27.05-.43.22-.49.43-.05,0-.27.05-.49.11-.11-.05-.27-.11-.38-.16v-.16c-.05-.32-.32-.54-.65-.54-.16,0-.97.22-1.08.38-.05.05-.11.16-.16.22,0-.05-.05-.05-.11-.11-.11-.11-.38-.32-.54-.32h-.05c-.43.05-.81.27-1.19.38-.16.05-.27.11-.38.16-.11-.11-.27-.16-.43-.16-.11,0-.22,0-.27.05-.27.16-.81.16-1.35.16-.59,0-1.3.05-1.89.22-.05,0-.16-.05-.22-.05-.11,0-.22,0-.27.05,0,0-.27.05-.32.05-.05-.27-.22-.54-.32-.65-.11-.11-.59-.16-.92-.16-.11,0-1.57-.05-1.57-.05-.49,0-1.73,0-2.32.92-.43,0-.59-.16-.81-.38-.27-.22-.59-.49-1.19-.49-.27,0-.54.05-1.08.32l-.43.32s0-.05-.05-.05c-.11-.22-.38-.32-.65-.32-.49,0-.81.11-.76.22-.32-.05-.54-.05-.7-.16-.11-.05-.16-.05-.27-.05-.16,0-.27.05-.38.16-.16-.05-.27-.11-.43-.16-.32-.11-.7-.27-1.57-.27h-.05c-.05.05-.22.11-.32.16,0-.05-.05-.05-.05-.05-.32-.16-1.13-.38-1.3-.38-.32,0-.38.27-.43.59v.05c-.22.05-.38.11-.54.22h-.22c-.11,0-.22,0-.32.05-.05-.27-.32-.32-.54-.38h-.05c-.22,0-.54.22-.65.38-.16-.05-.27-.11-.49-.11-.11,0-.27,0-.43.05,0-.32-.16-.59-.49-.65h-.16c-.22,0-.43.11-.54.32,0,.05-.05.11-.05.16-.11.05-.27.11-.38.16,0-.16-.11-.32-.27-.43-.11-.05-.22-.11-.32-.11h-.16l-.97.27c-.86,0-1.89-.05-2.48-.27-.16,0-.43-.05-.65-.05-.16,0-.27,0-.32.05-.16-.16-.43-.32-.65-.32-.05,0-.11,0-.16.05-.27.16-.49.27-.38.54-.05,0-.16-.05-.22-.05h-.22c-.65,0-1.4.05-1.13.27-.38,0-.65-.11-.65-.16-.16-.11-.43-.27-.65-.27-.05,0-.11,0-.16.05-.27.11-.54.22-.54.49-.32,0-.7,0-.97.16-.32-.16-.7-.22-1.62-.38-.05,0-.38-.11-.49-.11-.16,0-.32.05-.38.22-.16-.22-.38-.32-.59-.32h-.05c-.16,0-.43.05-.59.43l-.92-.38c-.16,0-.32.11-.43.16-.22-.05-.43-.16-.7-.16-.11,0-.59.16-.76.22h-.22c-.76,0-1.35.27-1.62.65-.59.05-1.19.38-1.57.76-.22.22,0,.54.16.76,0,.05.05.05.11.11-.43.49-.38.92-.27.97-.16.16-.27.27-.16.49.05.22.16.22.32.27,0,.16-.38.65-.7,1.08-.11.16-.16.32-.11.49.05.16.11.32.27.38.05.05.16.05.27.11-.27.54-.38,1.3-.49,2.38-.05.22.11.27.27.27l-.27,1.08c-.05.27.16.38.38.49-.05.27-.11.65,0,.76.05.05.11.11.22.16-.11.59-.11,1.24.11,2,.05.11.05.22.11.27-.76,2.05-.76,4.7-.7,6.7v.76h.11l-.27.27v.11c-.22.59-.16,1.08-.11,1.73-.11.22-.05.59.22.76.11.05.22.11.38.11.11,0,.22-.05.32-.11l-.22.7c.05.11.11.16.22.27v.59c0,.32,0,.59-.05.76h-.16c-.38.16-.54.43-.49.76l.22,1.35h.05v.22c.05.38.05.7.43,1.35-.11.27-.16.54-.16.86,0,.16.05.38.22.49q.05.05.11.11c0,.11-.05.22-.11.32-.05.16.05.32.22.49-.16.11-.38.32-.43.49-.05.16-.05.27,0,.43-.16.22-.16.54-.05.76,0,.05.05.11.05.16-.05,0-.05.05-.05.05-.16.16-.32.49-.27.7-.16,1.51-.16,1.84.27,2.16.11.76,0,1.57-.11,2.38-.16,1.19-.38,2.54.11,3.94-.16.27-.32.54-.38.65.05.32.05.7.05,1.13,0,.65.05,1.35.16,1.89,0,.05.05.11.11.16l-.11.86c-.16,1.3-.32,2.27-.27,3.29v.27c.05.16.16.32.32.38.05.22.16.49.27.7-.22.11-.32.32-.32.59.05,1.13-.11,2.32-.27,3.56-.11.86-.22,1.73-.11,3.02.11.11.32.22.49.27,0,.22-.05.43-.05.7-.05.7-.11,1.4-.05,2.11-.11.11-.27.81-.22.97,0,.16.05.27.16.38-.05.11.05.32.16.49-.11.38-.11.76-.16,1.13,0,.32-.05.81-.11.92-.22.22-.27.43-.11.7.11.16.27.22.43.22.11,0,.22,0,.32-.05.05.11-.05.54-.16,1.51.05.11.11.27.16.59h-.11c-.32,0-.54.27-.59.59l-.11,1.73c0,.22.05.38.22.49,0,.11-.11.81-.11,1.08-.22.11-.32.32-.32.59.05.59.11,1.19.49,1.78.11.16.7.38.92.38,0,0,.76.16.81.16.38,0,.59-.22.7-.32,1.24,0,2.05.16,2.81.32.59.11,1.19.22,1.94.27h.16c.16,0,.27-.05.38-.11.05-.05.11-.05.16-.11.49.05.86.22,1.3.43.05.05.16.05.22.05.16,0,.27-.11.38-.22.27.16.59.27,1.3.38h.05c.11,0,.22-.05.32-.11.05.05.11.05.16.05.11.05.22.05.32.05.16,0,.32-.05.43-.22.16-.22.11-.43-.05-.59.22-.05.54-.11.76-.27.05,0,.16.05.16.05,0,.16.05.49.16.65s.65.32.81.32v-.22c.11,0,.22.05.32.05l.11.11h.11c.11,0,.27,0,.38-.05.59.05,1.24.05,1.84.05h1.03c.76,0,1.57,0,2.32.11h.05c.27,0,.43-.16.54-.43.49.05,1.19.16,1.89.27l.11-.65.54.86c.05.05.49.05.76.05h.16l.97.16h.22c.22.05.49.11.81.11.65,0,1.51-.16,1.35-.49.32.27.76.38,1.35.38.27,0,.54,0,1.03-.11.16.11.38.16.59.16.11,0,.22,0,.32-.05.49,0,.97-.05,1.24-.27h.11s.22,0,.27-.05l1.4-.05c.32,0,.59.05.81.11h.16c.22,0,.59-.05.7-.16l.86.05c.22,0,.38,0,.54-.05.32.16.76.27,1.3.27.49,0,.97-.05,1.4-.16h.05c.11.22.38.38.65.38.92,0,1.4-.16,1.67-.32.27.05.54.11.86.11.43,0,.86-.05,1.24-.16.27-.05.54-.11.76-.11l1.03.38c1.4-.22,2.75-.38,4.05-.49.05.16.11.27.22.38s.27.11.38.11c.05,0,.86-.16,1.46-.22.97-.16,2.11-.38,3.02-.49v.05c.11.22.32.38.59.38h.05c.81-.11,1.57-.11,2.32-.11h1.03c.65,0,1.3,0,2-.22.16.11.38.22.54.22h.22c.16,0,.7-.16.81-.32s.22-.43.16-.65l.22-.11c.11.05.27.11.38.11.16,0,.27-.05.43-.11-.16.22-.22.54-.05.76.11.22.32.32.54.32h.16c.05,0,.11-.05.16-.05.11.05.22.05.32.05h.05c.59-.05.92-.22,1.19-.32.11.16.32.22.49.22.11,0,.16,0,.27-.05.38-.16.76-.38,1.4-.38.11.11.27.22.49.22h.05c.76-.05,1.35-.16,1.94-.27.7-.16,1.4-.27,2.86-.32.11.11.27.32.7.32.05,0,1.24-.27,1.24-.27.22,0,.43-.11.54-.27.38-.59.43-1.19.49-1.78,0-.16-.11-.27-.27-.38-.16-.32-.22-.7-.32-1.24h0Z"/>
    </clipPath>
  </defs>
  <g id="Layer_1-2" data-name="Layer 1">
    <g class="cls-9">
      <rect x="0" y="0" width="891" height="891"/>
    </g>
    <g class="cls-3">
      <rect x="0" y="0" width="189" height="189"/>
    </g>
    <g class="cls-6">
      <rect x="54" y="54" width="81" height="81"/>
    </g>
    <g class="cls-4">
      <rect x="702" y="0" width="189" height="189"/>
    </g>
    <g class="cls-5">
      <rect x="756" y="54" width="81" height="81"/>
    </g>
    <g class="cls-8">
      <rect x="0" y="702" width="189" height="189"/>
    </g>
    <g class="cls-7">
      <rect x="54" y="756" width="81" height="81"/>
    </g>
    <path d="M525.61,448.39c10.29-2.92,14.04,4.87,14.36,12.21.45,10.32-3.65,19.44-8.21,28.37-.56,1.09-1.22,2.12-1.8,3.21-2.52,4.7-5.32,8.93-12.02,7.11-1.3,5.21-2.83,10.12-3.71,15.14-2.04,11.63-7.69,21.57-14.57,30.77-11.46,15.31-27.55,22.73-46.06,25.39-14.48,2.07-28.96,1.72-42.72-3.48-10.12-3.83-19.11-9.53-26.33-18.26-8.21-9.94-13.51-21.12-16.93-33.23-1.61-5.73-1.56-11.91-2.46-17.85-.21-1.4-.91-3.04-1.95-3.92-3.65-3.09-5.34-7.14-6.63-11.57-2.56-8.76-6.11-17.32-5.55-26.71.09-1.61.38-3.25.83-4.81,2.23-7.65,6-9.28,13.56-7.46-.37-3.54-.71-6.83-1.05-10.14-.84-8.19-2.32-16.37-2.32-24.57-.02-9.57,1.76-19.1,6.87-27.43,1.87-3.05,1.71-5.86,1.2-8.79-2.19-12.18-.71-23.57,7.33-33.37,4.47-5.46,10.7-8.65,17.54-9.91,4.19-.78,8.64-.08,12.96-.27,1.42-.06,3-.54,4.18-1.32,9.14-6.02,18.71-8.61,30.04-8.25,10.88.35,21.48,1.33,31.91,3.93,13.54,3.38,25.3,9.99,34.09,21.24,1.23,1.58,2.89,2.83,4.33,4.24,3.94,3.82,5.85,8.49,5.77,13.96-.05,3.61-.34,7.17,2.89,9.93.87.74,1.33,2.55,1.2,3.8-.46,4.57,1.94,8.02,3.61,11.93,2.04,4.79,3.58,10.11,3.85,15.28.71,13.51-.62,26.92-3.94,40.09-.36,1.41-.19,2.95-.28,4.74h0ZM438.18,361.55c-6.69,0-13.38.07-20.06-.02-17.51-.2-29.95,7.87-37.75,23.27-5.8,11.46-7.58,24.1-10,36.5-1.18,6.04-1.03,12.18-1.55,18.34-.59,6.86-.58,13.71.17,20.44.93,8.43,1.56,16.96,3.93,25.16,2.05,7.1,12.3,10.39,18.37,6.12,5.09-3.59,9.57-8.15,14.89-11.29,12.59-7.45,26.69-5.79,40.35-4.99,13.97.81,26.14,6.03,35.79,16.95,3.35,3.79,8.96,4.83,13.97,1.66,2.64-1.68,4.83-4.09,7.49-5.72,7.43-4.57,12-11.74,13.96-19.5,2.63-10.47,3.82-20.95,2.14-31.61-2.02-12.79-4.02-25.61-6.69-38.27-2.73-12.96-8.92-23.66-21.49-29.93-9.56-4.77-19.85-5.9-30.1-6.94-7.72-.79-15.59-.16-23.39-.16h-.03ZM452.58,359.1c16.31-.76,33.03.63,48.32,11.04,1.71-5.44,3.45-10.29,4.72-15.24,1.26-4.92,1.18-9.43-3.38-13.28-8.68-7.32-18-13.28-29.23-15.62-8.03-1.67-16.15-2.94-24.47-4.43,2.1,4.21,4.98,7.41,5.08,10.7.29,8.72-.61,17.49-1.06,26.84h0ZM372.91,377.77c.49.18,2.48-2.47,2.98-2.29,4.93-3.39,7.17-4.88,12.08-8.31,2.22-1.56,5.39-2.66,7.79-3.86,12.25-6.18,25.37-5.59,38.52-4.66-.55-11.74-9.5-24.58-20.21-26.85-9.62-2.04-19.55-2.27-28.11,4.4,8.25-.26,16.13.29,23.62,4.37,6.84,3.73,16.4,12.52,16.16,16.19-.66-.5-1.19-.88-1.68-1.29-4.42-3.77-8.67-7.78-13.3-11.27-5.48-4.14-12.29-4.65-18.72-4.88-4.16-.15-8.8,1.35-12.53,3.39-5.8,3.16-7.33,9.33-7.46,15.45-.13,6.54.54,13.1.87,19.65v-.03ZM426.63,323.04c2.03,2.68,3.8,4.43,4.88,6.54,4.11,8.02,6.33,16.52,5.66,25.63-.13,1.87-.09,3.5,2.64,3.3,2.82-.2,5.66-.04,9.53-.04.38-7,.59-14.49,1.26-21.94.49-5.28-2.2-9.22-5.08-12.85-1.18-1.49-4.26-2.06-6.46-2.02-4.22.08-8.42.89-12.45,1.39h0ZM537.3,458.78c-5.92,1.18-10.41,3.92-12.43,9.99-.64-7.99,3.6-12.43,10.28-15.15-2.49-3.98-6.05-2.68-9.12-2.23-3.09.46-2.61,3.23-2.78,5.58-.28,3.96-.76,7.89-1.33,11.82-1.15,7.95-2.52,15.88-3.55,23.85-.18,1.35.77,3.98,1.46,4.08,1.49.2,3.84-.38,4.62-1.5,2.89-4.07,5.69-8.31,7.76-12.83,3.41-7.42,6.23-15.1,5.07-23.61h0ZM523.35,441.01c.26-1.62.69-4,1.03-6.39,1.54-10.67,3.55-21.16,2.59-32.21-.78-8.92-5.23-14.3-11.55-19.18-2.06-1.59-4.2-3.05-6.31-4.57-.33.31-.67.61-1,.92,7.42,8.63,8.62,19.26,10.19,29.8,1.61,10.75,3.41,21.47,5.04,31.64h0ZM356.17,447.78c.46.15,4.84,1.62,6.12,5.92.63,2.09.24,3.91-.02,4.82-2.42-1.86-4.97-3.81-7.69-5.9-.58,4.44-1.01,12.34,1.83,21.54,2.47,7.96,6.38,13.63,9.07,16.94,0-.91,0-2.76.03-5.08.03-1.87.34-19.25-.36-34.71-.08-1.86-.24-4.62-2-5.59-2.35-1.31-6.08,1.39-6.99,2.07h0ZM382.69,375.41c-5.59,2.91-10.94,5.95-13.57,11.96-4.05,9.22-5.2,27.7-2.49,37.48,4.61-16.62,3.8-35.09,16.06-49.45h0ZM416.96,328.07c5.44,4.78,10.8,9.51,15.89,14-.64-4.32-1.89-8.84-5.5-12.59-4.09-4.24-5.68-4.58-10.39-1.41h0ZM509.34,349.27c-.93,7.61-3.05,14.66-6.8,21.22-.32.56.34,1.69.85,3.79,1.11-1.61,1.76-2.32,2.16-3.15,2.08-4.38,3.62-9.12,6.26-13.12,2.94-4.47-.64-6.1-2.48-8.74ZM515.28,366.86c-3.39,2.4-6.89,4.88-10.39,7.37.21.42.43.83.64,1.25,3.96-1.13,7.9-2.27,12-3.44-.76-1.75-1.4-3.21-2.24-5.17h0ZM509.89,376.86c3.81,2.37,7.02,4.34,10.34,6.41-.64-7.69-.24-6.86-10.34-6.41ZM510.22,366.5c.37.22.74.43,1.1.66,1.03-2.87,6.1-3.94,3.32-9.23-1.67,3.24-3.04,5.9-4.42,8.57Z"/>
    <path class="cls-2" d="M472.66,506.85c.74-11.37-3.45-14.99-13.1-18.01-2.69-.84-5.2-2.23-7.84-3.28-6.41-2.54-13.09-3.82-19.88-2.5-6.9,1.35-13.84,2.9-20.42,5.32-3.14,1.15-6.73,4.01-7.85,6.95-1.7,4.45-1.92,9.65-1.88,14.53.07,9.06,11.46,17.3,20.32,15.83,4.93-.81,10.1-.43,15.14-.13,5.29.32,10.57,1.78,15.84,1.68,13.18-.23,19.68-7.25,19.68-20.39h0Z"/>
    <path d="M392.25,444.36c1.09-2.23,1.19-4.88,2.32-6.97,1.35-2.48,3.59-4.47,5.62-6.89-6.75-.54-10.19,5.01-7.94,13.86h0Z"/>
    <path d="M416.78,436.33c-.57-4.2-5.69-8.51-12.26-7.33,8.02,2.37,11.61,7.27,10.42,15.47,3.55-2.28,2.2-5.54,1.84-8.15Z"/>
    <path d="M412.86,440.45c-.79-5.83-5.39-8.96-11.66-7.98.07.07,1.58,1.68,1,3.58-.4,1.3-1.52,1.9-1.88,2.08-1.88.99-3.85.13-4.13,0,0,.33.11,1.17-.02,1.98-.61,4.02,1.03,5.57,5.08,5.11,2.47-.28,4.99-.1,7.49-.04,3.32.08,4.52-1.74,4.12-4.73h0Z"/>
    <path d="M423.32,455.31c-5.22,2.23-10.45,4.43-15.63,6.75-.36.16-.35,1.17-.51,1.79.63.15,1.35.58,1.86.4,3.3-1.17,6.65-2.28,9.8-3.8,1.98-.94,3.65-2.55,5.45-3.86-.33-.43-.64-.86-.97-1.29Z"/>
    <path d="M421.29,437.34c.74,2.28,1.49,4.56,2.55,7.79,2.06-4.26-.91-12.68-4.35-15.89-11.62-10.87-30.9-2.63-37.95,8.6-.43.68.41,2.13.82,3.96,5.4-8.38,11.69-13.16,20.89-14.51,8.5-1.25,15.44,2.02,18.03,10.05h0Z"/>
    <path d="M384.7,407.04c4.3-6.67,10.03-10.63,18.33-9.51,4.72.64,9.46,1.22,14.11,2.18,2.87.59,4.69.21,6-2.65,1.19-2.59.96-4.67-1.47-6.05-8.81-5.02-25.56-5.92-33.01,3.63-3.3,4.24-6.81,8.45-7.7,14.68,1.26-.17,1.95-.06,2.3-.35.59-.5,1-1.25,1.43-1.92h0Z"/>
    <path d="M491.84,431.86c-3.24-2.29-11.87-6.56-22.34-4.82-6.1,1.02-12.36,9.35-13.04,15.94-.07.67.48,1.4.74,2.1.59-.54,1.4-.97,1.7-1.63.7-1.61,1.14-3.34,1.72-5,1.2-3.43,3.26-6.14,6.1-7.69,0,0,1.75-.98,4.11-1.31,5.25-.75,15.88-1.01,28.01,12.07.42.45.98-.74,1.46-1.1-1.61-2.36-4.35-5.63-8.5-8.55h.02Z"/>
    <path d="M476.77,431.25c-7.57-.74-13.67,5.34-12.76,12.69.11.9,1.36,1.67,2.08,2.5.28-.38.58-.76.86-1.14-1.08-7.54,4.32-10.78,9.81-14.05h0Z"/>
    <path d="M475.04,434.66c-.16,1.86.32,4.34-.6,5.08-1.18.95-3.49.5-5.37.66-.31,5.77-.28,6.1,2.21,6.4,4.61.54,9.24.82,13.76,1.2,2.27-9.26-2.25-14.59-10-13.34h0Z"/>
    <path d="M490.19,391.96c-8.43-4.29-17.43-3.8-26.18-.31-1,.4-2.43,1.29-2.53,2.09-.25,2.01-.47,4.42.42,6.06,1.46,2.71,4.38,1.44,6.59.89,13.1-3.29,24.7-2.21,32.83,10.31.57.87,1.83,1.3,2.77,1.92.37-.41.74-.82,1.11-1.23-2.69-8.27-7-15.66-15-19.74Z"/>
    <path d="M483.47,433.13c5.23,5.44,6.17,7.64,4.76,14.55,3.43-.4,3.39-2.6,3.28-4.72-.27-5.02-3.75-9.23-8.04-9.83Z"/>
    <path d="M454.6,458.24c5.58,2.54,11.16,5.08,16.74,7.62.28-.62.57-1.24.85-1.86-5.51-2.54-11.02-5.08-16.53-7.62,0,0-1.06,1.86-1.06,1.86Z"/>
    <path d="M453.04,464.29c-1.02-8.03-5.35-13.85-14.59-13.26-9.47-.75-13.19,6.15-14.57,13.9-.63,3.53.92,5.5,5.18,6.74,6.9,2,12.23,1.77,19.04.56,3.75-.66,5.39-4.37,4.93-7.94h0ZM442.33,471.02c-1.6.22-3.09.25-4.69.08-.95-.11-1.91-.24-2.85-.38-.16.08-.86-.07-.8-.09h-.02c-2.69-.28-5.99-1.83-6.45-4.91-.57-3.77.26-6.96,3.35-9.35.27-.2.54-.39.82-.57.39-.38.84-.69,1.34-.92,3.71-1.66,7.14-1.4,10.8.21,2.6,1.15,5.01,3.4,5.76,6.21,1.34,5.01-2.53,9.08-7.26,9.72h0Z"/>
    <path d="M440.34,521.28c-7.24.5-14.2-.28-20.45-4.41-6.38-4.21-11.14-9.78-13.43-17.09-.87-2.78-.54-5.25,2.99-7.04,10.95-5.57,22.39-7.22,34.24-4.87,7.41,1.47,14.72,3.74,21.83,6.31,4.73,1.71,5.6,5.18,3.36,9.7-1.64,3.29-3.13,6.75-5.3,9.68-4.14,5.6-10.3,7.38-16.98,7.69-2.08.1-4.17.02-6.26.02h0ZM462.97,510.25c-11,3.72-21.97,3.09-32.74,2.4-5.59-.36-12.2-.28-16.39-6.08.17,1.53.58,3.03,1.35,3.88,2.74,3.03,7.18,5.58,11.19,6.36,7.35,1.44,15.01,1.94,22.52,1.79,5.59-.11,11.36-1.51,14.07-8.34h0ZM466.95,498.97c.06-.35.12-.7.18-1.05-1.01-.67-1.94-1.68-3.04-1.95-9.48-2.23-18.92-5.27-28.54-6.15-6.55-.59-13.38,1.86-20.06,3.07-1.01.18-2.48.81-2.73,1.56-.31.91.45,2.18.55,2.55,2.82-.66,4.93-1.54,7.07-1.59,8.21-.17,16.47-.53,24.64.08,6.57.49,13.05,2.28,19.58,3.45.76.13,1.57.02,2.36.02h0ZM416.8,503.15c-.19.36-.39.72-.59,1.08,1.22,1.21,2.23,2.99,3.7,3.55,11.93,4.65,24.24,3.32,36.48,1.62,2.11-.29,5.18-.78,4.88-4.79-3.06,0-6.1-.28-9.07.05-8.81,1-17.49,2.68-26.17-1.34-2.56-1.18-6.13-.18-9.23-.18h0Z"/>
  </g>
</svg>