<?xml version="1.0" encoding="UTF-8"?>
<svg id="Layer_2" data-name="Layer 2" xmlns="http://www.w3.org/2000/svg" viewBox="0 0 901.16 901.39">
  <defs>
    <style>
      .cls-1 {
        fill: none;
        stroke: #fff;
        stroke-miterlimit: 10;
      }
    </style>
  </defs>
  <g id="Layer_1-2" data-name="Layer 1">
    <g>
      <path class="cls-1" d="M13.89,1.26C8.46,2.65,3.65,5.66,1.82,11.19l-.71,191.37c.29,5.84,3.78,12.51,9.49,14.51l192.09.99c5.84-.29,12.51-3.78,14.51-9.49l.99-192.09c-.49-8.1-5.94-15.37-14.5-15.5L13.89,1.26ZM322.65,32.02c5.58.99,13.61-.73,19.5,0l-.04,77.54c.51,14.03,15.86,20.59,26.38,11.3,1.35-1.2,4.66-5.93,4.66-7.34v-19.5c15.01-1.02,31.74,1.36,46.54.04,10.95-.98,17.7-8.72,14.78-19.86-3.83-14.59-18.81-10.82-30.32-11.17,2.7-26-4.79-34.1-31-31,.03-9.95,2.29-26.75-10.17-30.33-5.4-1.55-30.93-1.37-37.33-.68-20.23,2.19-17.18,28.48-3,31ZM447.89,1.26c-22.21,3.66-12.94,39.43,9.93,28.93,15.32-7.04,8.39-31.95-9.93-28.93ZM528.15,32.02h18.5c1.13,0,7.27-3.51,8.4-4.6,7.65-7.42,3.93-22.86-6.07-25.73-5.38-1.54-30.89-1.37-37.33-.68-17.43,1.89-14.62,17.86-14.49,31.01-12.11-.67-31.51-1.6-31.08,15.5.14,5.46,5.72,15.5,11.58,15.5h19.5c1.02,15.01-1.36,31.74-.04,46.54,1.62,18.12,22.03,20.94,30.09,6.01l.95-83.55ZM633.89,1.26c-5.29.87-11.07,5.34-12.31,10.69-1.37,5.93-1.15,29.9-.43,36.57,2.02,18.7,26.29,18.39,30.33,4.32,1.55-5.41,1.37-30.93.68-37.33-1.05-9.74-8.39-15.88-18.26-14.26ZM695.89,1.26c-5.42,1.39-10.24,4.41-12.07,9.93l-.71,191.37c.29,5.84,3.78,12.51,9.49,14.51l192.09.99c5.84-.29,12.51-3.78,14.51-9.49l.99-192.09c-.49-8.1-5.94-15.37-14.5-15.5l-189.8.28ZM261.89,32.26c-22.21,3.66-12.94,39.43,9.93,28.93,15.32-7.04,8.39-31.95-9.93-28.93ZM280.15,125.02h-18.5c-1.37,0-7.69,3.79-8.9,5.1-8.61,9.3-1.89,24.74,10.86,25.94,7.71.72,26.51.9,33.95-.13,7.92-1.09,12.9-6.55,13.63-14.37,1.92-20.53-1.44-44.09-.13-64.95-2.37-17.21-24.95-18.18-30.48-2.66l-.43,51.07ZM571.89,63.26c-17.91,3.05-16.68,29.07,1.72,30.8,7.71.73,26.51.9,33.95-.13,18.86-2.6,17.75-29.2-.87-30.95-7.5-.71-27.74-.92-34.8.28ZM435.15,156.02h-18.5c-6,0-12.43,8.51-12.58,14.5s5.27,16.5,11.58,16.5h19.5v31h-31v-18.5c0-.99-3.2-6.75-4.16-7.84-4.84-5.56-12.12-5.77-18.51-2.83-11.87,5.46-7.61,18.59-8.32,29.18-8.89.47-20.64-2.27-27.41,5.09-.83.9-3.6,5.61-3.6,6.4v19.5h-31v-18.5c0-3.87-6.21-10.67-10.17-11.82-19.95-5.81-23.04,15.92-20.82,30.33-26-2.7-34.1,4.79-31,31-8.89.47-20.64-2.27-27.41,5.09-.83.9-3.6,5.61-3.6,6.4v19.5h-62v-31h49.5c1.37,0,7.69-3.79,8.9-5.1,8.59-9.28,1.92-24.74-10.86-25.94-15.04-1.42-49.18-1.57-64.04.04-7.33.79-13.88,5.84-14.5,13.5,2.05,30.65-2.73,64.82-.04,95.04,1.64,18.46,17.01,15.58,31.05,15.45-.22,10.45-2.16,28.25,11.73,30.77,6.59,1.2,28.71,1,35.77.23,9.71-1.05,15.89-8.37,14.26-18.26-.74-4.5-6.53-12.74-11.26-12.74h-19.5v-31h31v18.5c0,1.13,3.51,7.27,4.6,8.4,6.48,6.68,17.99,3.32,26.4,4.1-.18,12.76-2.44,29.46,14.46,31.04,7.05.66,31.18.85,37.1-.98,9.81-3.03,12.72-12.8,8.61-21.73-5.46-11.87-18.59-7.61-29.18-8.32-.47-8.89,2.27-20.64-5.09-27.41-.9-.83-5.61-3.6-6.4-3.6h-19.5v-31h31v18.5c0,6,8.51,12.43,14.5,12.58,5.77.14,16.5-5.27,16.5-11.58v-50.5h31v18.5c0,6,8.51,12.43,14.5,12.58,5.77.14,16.5-5.27,16.5-11.58v-19.5c15.07-1.58,34.75,2.23,49.26-.24,4.51-.77,12.74-6.51,12.74-11.26v-19.5h124v49.5c0,6,8.51,12.43,14.5,12.58s16.5-5.27,16.5-11.58v-19.5l77.54.04c14.03-.51,20.59-15.86,11.3-26.38-1.2-1.35-5.93-4.66-7.34-4.66h-81.5v-93h49.5c1.37,0,7.69-3.79,8.9-5.1,7.41-8.01,2.75-23.69-8.13-25.67-19.24-3.5-47.48,2.06-67.68-.14-4.71.08-13.59,6.77-13.59,11.41v19.5h-62v-18.5c0-1.13-3.51-7.27-4.6-8.4-6.48-6.68-17.99-3.32-26.4-4.1-.47-8.94,2.27-20.6-5.09-27.41-8.17-7.55-23.26-2.77-25.67,8.13l-.23,50.27ZM385.89,125.26c-22.21,3.66-12.94,39.43,9.93,28.93,15.32-7.04,8.39-31.95-9.93-28.93ZM261.89,187.26c-22.21,3.66-12.94,39.43,9.93,28.93,15.32-7.04,8.39-31.95-9.93-28.93ZM323.89,187.26c-22.21,3.66-12.94,39.43,9.93,28.93,15.32-7.04,8.39-31.95-9.93-28.93ZM633.89,187.26c-22.21,3.66-12.94,39.43,9.93,28.93,15.32-7.04,8.39-31.95-9.93-28.93ZM75.89,249.26c-22.21,3.66-12.94,39.43,9.93,28.93,15.32-7.04,8.39-31.95-9.93-28.93ZM745.15,280.02c-15.07,1.58-34.75-2.23-49.26.24-17.41,2.97-16.55,27.31-.15,30.67,20.93-1.25,44.33,1.96,64.95.13,7.36-.66,14.27-4.81,15.37-12.63,1.03-7.25.9-27.45.09-34.92-1.47-13.62-16.14-19.35-26.35-10.34-1.35,1.2-4.66,5.93-4.66,7.34v19.5ZM869.14,280.02c-.47-8.96,2.27-20.6-5.09-27.41s-21.71-3.43-24.95,5.86c-1.82,5.22-1.59,30.45-.99,37.09.53,5.93,3.55,12.43,9.49,14.51,5.22,1.82,30.45,1.59,37.09.99,12.1-1.08,18.64-10.42,13.95-22.03-5.07-12.56-18.75-8.36-29.5-9ZM32.15,342.02c-1.02-15.01,1.36-31.74.04-46.54-1.91-21.44-29.33-19.72-31.08-1-1.92,20.53,1.44,44.09.13,64.95.08,4.71,6.77,13.59,11.41,13.59h19.5v31H13.65c-1.13,0-7.27,3.51-8.4,4.6-8.84,8.57-2.99,24.99,9.4,26.4,15.06,1.71,33.12-1.28,48.5,0v18.5c0,2.97,5.89,10.94,9.45,11.55l132.81.71c17.99-3.06,16.16-28.84-.76-30.76-15.06-1.71-33.12,1.28-48.5,0v-18.5c0-6-8.51-12.43-14.5-12.58-5.77-.14-16.5,5.27-16.5,11.58v19.5h-31v-18.5c0-3.68-7.57-12.5-11.5-12.5h-19.5c-1.58-15.07,2.23-34.75-.24-49.26-.77-4.51-6.51-12.74-11.26-12.74h-19.5ZM447.89,280.26c-22.21,3.66-12.94,39.43,9.93,28.93,15.32-7.04,8.39-31.95-9.93-28.93ZM621.15,342.02v-18.5c0-1.37-3.79-7.69-5.1-8.9-9.27-8.58-24.74-1.93-25.94,10.86-.71,7.5-.92,27.75.28,34.8.77,4.51,6.51,12.74,11.26,12.74h19.5v31h-18.5c-4.55,0-13.21,8.2-12.5,13.5l.44,129.56c1.58,5.51,5.33,10.63,11.29,11.71,6.06,1.1,35.34.91,40.56-.98,10.73-3.88,12.77-16.96,5.55-25.13-1.2-1.35-5.93-4.66-7.34-4.66h-19.5v-93h18.5c3.68,0,12.5-7.57,12.5-11.5v-50.5h31v18.5c0,1.37,3.79,7.69,5.1,8.9,8.83,8.17,24.53,2.14,25.9-9.9.88-7.68.84-26.28,0-34-.62-5.74-4.39-12.16-10.18-13.82l-82.83-.67ZM788.89,311.26c-22.21,3.66-12.94,39.43,9.93,28.93,15.32-7.04,8.39-31.95-9.93-28.93ZM516.49,346.68c-21.32-23.57-44.23-28.76-75.86-27.74-13.12.42-20,8.64-27.22,9.93-2.41.43-6.27-1.08-9.74-.85-15.61,1.04-30.67,14.84-32.55,30.47-.79,6.58,2.3,18.57,1.75,21.89-.23,1.39-2.72,3.54-3.45,5.41-5.76,14.74-6.87,25.97-5.25,41.72.75,7.24,3.41,14.21,2.98,21.51-7.87-3.93-13.8,2.04-14.93,9.57-1.39,9.3,4.79,33.62,10.88,40.99,1.12,1.35,3.75,2.21,4.05,3.18,1.92,6.29.57,16.67,2.24,23.53,5.55,22.79,27.13,47.97,50.52,53.48,40.63,9.57,82.64-4.42,98.94-44.55,3.28-8.08,5.26-18.69,6.73-27.27,1.23-1.8,6.53-.06,9.28-2.23,1.29-1.02,8.09-13.26,9.02-15.47,5.26-12.54,11.82-41.16-10.73-36.24,3.98-16.91,9.7-41.56,3.78-58.27-1.29-3.65-4.54-7.3-5.35-10.65-.66-2.74-.06-5.55-.86-8.14-.73-2.34-3.72-3.84-4.35-6.65-1.75-7.77,1.81-11.52-4.7-19.29-1.64-1.96-3.93-2.98-5.17-4.34ZM757.89,342.26c-22.21,3.66-12.94,39.43,9.93,28.93,15.32-7.04,8.39-31.95-9.93-28.93ZM881.89,342.26c-22.21,3.66-12.94,39.43,9.93,28.93,15.32-7.04,8.39-31.95-9.93-28.93ZM106.89,373.26c-22.21,3.66-12.94,39.43,9.93,28.93,15.32-7.04,8.39-31.95-9.93-28.93ZM788.89,373.26c-22.21,3.66-12.94,39.43,9.93,28.93,15.32-7.04,8.39-31.95-9.93-28.93ZM850.89,373.26c-22.21,3.66-12.94,39.43,9.93,28.93,15.32-7.04,8.39-31.95-9.93-28.93ZM757.89,404.26c-6.11,1.01-11.85,6.13-12.65,12.34,1.26,20.93-1.97,44.33-.13,64.95,1.73,19.36,24.91,20.88,30.81,3.73-1.01-21.15,2.13-44.97.27-65.81-.91-10.18-7.7-16.97-18.3-15.22ZM838.15,435.02v-18.5c0-1.13-3.51-7.27-4.6-8.4-7.4-7.63-22.86-3.95-25.73,6.07-1.55,5.41-1.37,30.86-.68,37.33.75,6.92,5.41,13.39,12.59,14.41,14.92,2.11,34.04-1.39,49.41.09v18.5c0,1.13,3.51,7.27,4.6,8.4,7.4,7.63,22.86,3.95,25.73-6.07,1.55-5.41,1.37-30.86.68-37.33-.75-6.92-5.41-13.39-12.59-14.41s-47.67,1.66-49.41-.09ZM280.15,497.02c1.58,15.07-2.23,34.75.24,49.26,2.97,17.41,27.31,16.55,30.67.15-1.91-30.92,2.84-65.47.13-95.95-1.11-12.42-11.06-18.98-22.71-13.63s-7.61,18.59-8.32,29.18c-13.73-1.28-34.71-.41-30.56,19.06.9,4.23,6.58,11.94,11.05,11.94h19.5ZM13.89,466.26c-17.91,3.05-16.68,29.07,1.72,30.8,7.71.73,26.51.9,33.95-.13,18.86-2.6,17.75-29.2-.87-30.95-7.5-.71-27.74-.92-34.8.28ZM664.89,466.26c-17.91,3.05-16.68,29.07,1.72,30.8,7.71.73,26.51.9,33.95-.13,18.86-2.6,17.75-29.2-.87-30.95-7.5-.71-27.74-.92-34.8.28ZM106.89,497.26c-22.21,3.66-12.94,39.43,9.93,28.93,15.32-7.04,8.39-31.95-9.93-28.93ZM199.89,497.26c-22.21,3.66-12.94,39.43,9.93,28.93,15.32-7.04,8.39-31.95-9.93-28.93ZM838.15,528.02v-18.5c0-4.57-7-11.41-11.73-12.27-6.79-1.23-27.44-.93-34.81-.27-6.86.61-13.91,4.49-15.23,11.77-1.07,5.88-.97,33.61.45,39.09,1.23,4.77,5.35,9.62,10.25,10.75l51.07.43v18.5c0,.99,3.2,6.75,4.16,7.84,4.84,5.56,12.12,5.77,18.51,2.83,11.87-5.46,7.61-18.59,8.32-29.18,7.57-.47,15.56,1.44,22.68-1.82,12.89-5.92,10.1-24.68-2.6-28.74l-51.07-.43ZM44.89,528.26c-17.91,3.05-16.68,29.07,1.72,30.8,7.71.73,26.51.9,33.95-.13,18.86-2.6,17.75-29.2-.87-30.95-7.5-.71-27.74-.92-34.8.28ZM218.15,539.52c-.99,5.58.73,13.61,0,19.5-15.07,1.58-34.75-2.23-49.26.24-5.67.97-11.45,5.68-12.51,11.49,1.25,21.17-2.48,46.03-.23,66.77.62,5.74,4.39,12.16,10.18,13.82,5.38,1.54,30.89,1.37,37.33.68,11.66-1.26,17.37-11.13,12.99-22-1.28-3.18-6.57-9.01-9.99-9.01h-19.5v-31h31v18.5c0,3.68,7.57,12.5,11.5,12.5h19.5c1.2,15.14-1.61,32.66,0,47.5,1.89,17.45,17.9,14.61,31.01,14.49-.81,12.6-1.35,32.33,16.47,31.03,5.11-.37,14.52-6.08,14.52-11.53v-19.5c15.01-1.03,31.74,1.36,46.54.04,13.24-1.18,20-13.02,12.5-24.58-6.36-9.79-18.16-5.64-28.04-6.46,2.7-25.98-4.77-34.11-31-31,2.69-25.98-4.76-34.1-31-31,2.69-25.97-4.75-34.11-31-31-.45-9.13,2.36-21.23-5.64-27.86s-23.56-1.75-25.35,8.35ZM694.65,559.02c5.58.99,13.61-.73,19.5,0v31h-18.5c-3.68,0-12.5,7.57-12.5,11.5v19.5l-77.54-.04c-14.03.51-20.59,15.86-11.3,26.38,1.2,1.35,5.93,4.66,7.34,4.66h19.5v93h-18.5c-4.57,0-11.41,7-12.27,11.73-1.08,5.92-.93,34.55.71,39.83,3.46,11.21,16.96,13.74,25.4,6.28,1.35-1.2,4.66-5.93,4.66-7.34v-19.5h93v18.5c0,4.2,6.59,11.05,10.93,12.07,19.89,4.66,21.94-16.34,20.07-30.57,25.98,2.69,34.1-4.76,31-31,11.13.43,29.87,1.94,31.03-13.52.46-6.15-4.84-17.48-11.53-17.48h-19.5l.04-139.54c-1.65-18.45-16.97-15.59-31.05-15.45.26-10.97,2.16-28.83-12.58-30.92-7.24-1.03-27.46-.9-34.92-.09-20.23,2.19-17.18,28.48-3,31ZM13.89,559.26c-5.29.87-11.07,5.34-12.31,10.69-1.37,5.93-1.15,29.9-.43,36.57,2.02,18.7,26.29,18.39,30.33,4.32,1.55-5.41,1.37-30.93.68-37.33-1.05-9.74-8.39-15.88-18.26-14.26ZM94.14,621.01c9.95.03,26.75,2.29,30.33-10.17,1.45-5.05,1.41-33.33.43-39.09-1.98-11.63-13.79-15.94-23.69-10.17-10.55,6.15-6.23,18.24-7.06,28.44-25.97-2.69-34.11,4.75-31,31-6.4.45-13.57-.94-19.82.68-16.62,4.3-14.24,28.71,3.28,30.36,7.71.73,26.51.9,33.95-.13,16.61-2.29,13.62-18.52,13.58-30.92ZM664.89,559.26c-22.21,3.66-12.94,39.43,9.93,28.93,15.32-7.04,8.39-31.95-9.93-28.93ZM528.14,621.01c8.96-.47,20.6,2.27,27.41-5.09,6.78-7.34,3.43-21.71-5.86-24.95-5.22-1.82-30.45-1.59-37.09-.99-5.93.53-12.43,3.55-14.51,9.49-1.82,5.22-1.59,30.45-.99,37.09,1.08,12.1,10.42,18.64,22.03,13.95,12.56-5.07,8.36-18.75,9-29.5ZM819.89,590.26c-6.11,1.01-11.85,6.13-12.65,12.34,1.26,20.93-1.97,44.33-.13,64.95,1.73,19.36,24.91,20.88,30.81,3.73-1.01-21.15,2.13-44.97.27-65.81-.91-10.18-7.7-16.97-18.3-15.22ZM447.89,621.26c-22.21,3.66-12.94,39.43,9.93,28.93,15.32-7.04,8.39-31.95-9.93-28.93ZM881.89,621.26c-5.29.87-11.07,5.34-12.31,10.69-1.37,5.93-1.15,29.9-.43,36.57,2.02,18.7,26.29,18.39,30.33,4.32,1.55-5.41,1.37-30.93.68-37.33-1.05-9.74-8.39-15.88-18.26-14.26ZM497.15,714.02v-49.5c0-6-8.51-12.43-14.5-12.58-5.77-.14-16.5,5.27-16.5,11.58v19.5c-15.07,1.58-34.75-2.23-49.26.24-16.52,2.81-16.9,25.18-1.81,30.33l51.07.43v18.5c0,3.85,7.11,12.21,11.73,12.27l50.27.23v18.5c0,.99,3.2,6.75,4.16,7.84,4.84,5.56,12.12,5.77,18.51,2.83,11.87-5.46,7.61-18.59,8.32-29.18,12.13.67,31.51,1.6,31.08-15.5-.44-17.8-18.23-16.01-31.08-15.49.55-11.63,1.78-30.69-14.5-31.08-5.82-.14-16.5,5.3-16.5,11.58v19.5h-31ZM13.89,683.26c-5.42,1.39-10.24,4.41-12.07,9.93l-.71,191.37c.29,5.84,3.78,12.51,9.49,14.51l192.09.99c5.84-.29,12.51-3.78,14.51-9.49l.99-192.09c-.49-8.1-5.94-15.37-14.5-15.5l-189.8.28ZM280.14,745.02c-.47-8.96,2.27-20.6-5.09-27.41-7.34-6.78-21.71-3.43-24.95,5.86-1.82,5.22-1.59,30.45-.99,37.09.53,5.93,3.55,12.43,9.49,14.51,5.22,1.82,30.45,1.59,37.09.99,12.1-1.08,18.64-10.42,13.95-22.03-5.07-12.56-18.75-8.36-29.5-9ZM323.89,714.26c-22.21,3.66-12.94,39.43,9.93,28.93,15.32-7.04,8.39-31.95-9.93-28.93ZM385.89,714.26c-22.21,3.66-12.94,39.43,9.93,28.93,15.32-7.04,8.39-31.95-9.93-28.93ZM850.89,714.26c-22.21,3.66-12.94,39.43,9.93,28.93,15.32-7.04,8.39-31.95-9.93-28.93ZM416.89,745.26c-17.91,3.05-16.68,29.07,1.72,30.8,7.71.73,26.51.9,33.95-.13,18.86-2.6,17.75-29.2-.87-30.95-7.5-.71-27.74-.92-34.8.28ZM869.15,776.02c-8.96.47-20.6-2.27-27.41,5.09-6.78,7.34-3.43,21.71,5.86,24.95,5.22,1.82,30.45,1.59,37.09.99,5.93-.53,12.43-3.55,14.51-9.49,1.82-5.22,1.59-30.45.99-37.09-1.08-12.1-10.42-18.64-22.03-13.95-12.56,5.07-8.36,18.75-9,29.5ZM342.15,826.52c.99-5.58-.73-13.61,0-19.5h31v18.5c0,4.19,6.6,11.07,10.93,12.07,5.51,1.27,32.45,1.19,38.33.19,12.82-2.18,16.99-17.57,8.14-26.66-6.5-6.68-17.97-3.32-26.4-4.1.19-12.8,2.42-29.46-14.46-31.04-15.59-1.47-47.43-1.4-63.08,0-6.42.57-13.45,4.13-15.03,10.97-1.25,5.4-1.17,33.57.01,39.13,3.67,17.33,28.15,14.02,30.56.44ZM478.89,776.26c-22.21,3.66-12.94,39.43,9.93,28.93,15.32-7.04,8.39-31.95-9.93-28.93ZM788.89,776.26c-22.21,3.66-12.94,39.43,9.93,28.93,15.32-7.04,8.39-31.95-9.93-28.93ZM261.89,807.26c-22.21,3.66-12.94,39.43,9.93,28.93,15.32-7.04,8.39-31.95-9.93-28.93ZM571.89,807.26c-22.21,3.66-12.94,39.43,9.93,28.93,15.32-7.04,8.39-31.95-9.93-28.93ZM632.65,838.02c5.58.99,13.61-.73,19.5,0v31h-18.5c-1.37,0-7.69,3.79-8.9,5.1-8.58,9.27-1.93,24.74,10.86,25.94,20.73,1.95,44.73-1.33,65.8-.28,5.46-1.35,10.97-4.89,12.31-10.69,1.42-6.14,1.09-28.63.47-35.61-1.64-18.46-17.02-15.58-31.05-15.45.22-10.45,2.16-28.25-11.73-30.77-6.59-1.2-28.71-1-35.77-.23-20.23,2.19-17.18,28.48-3,31ZM311.15,869.02v-18.5c0-1.37-3.79-7.69-5.1-8.9-8.83-8.17-24.53-2.14-25.9,9.9-.88,7.68-.84,26.28,0,34s6.36,14.44,14.46,14.54c30.34-2.11,64.16,2.68,94.08,0,21.47-1.92,18.85-28.69,2.87-30.95-5.72-.81-12.56.41-18.42-.08.81-12.6,1.35-32.33-16.47-31.03-5.11.37-14.52,6.08-14.52,11.53v19.5h-31ZM478.89,838.26c-17.91,3.05-16.68,29.07,1.72,30.8,7.71.73,26.51.9,33.95-.13,18.86-2.6,17.75-29.2-.87-30.95-7.5-.71-27.74-.92-34.8.28ZM602.89,838.26c-22.21,3.66-12.94,39.43,9.93,28.93,15.32-7.04,8.39-31.95-9.93-28.93ZM776.15,888.52c.99-5.58-.73-13.61,0-19.5h31v18.5c0,4.57,7,11.41,11.73,12.27,6.79,1.23,27.44.93,34.81.27,18.45-1.65,15.59-16.97,15.45-31.05,9.44-.4,22.59,2.53,28.66-6.84s-.34-23.95-12.12-24.19c-40.33,2.77-85.31-3.56-125.08,0-6.42.57-13.45,4.13-15.03,10.97-1.25,5.4-1.17,33.58.01,39.13,3.67,17.33,28.15,14.02,30.56.44ZM447.89,869.26c-22.21,3.66-12.94,39.43,9.93,28.93,15.32-7.04,8.39-31.95-9.93-28.93ZM540.89,869.26c-17.91,3.05-16.68,29.07,1.72,30.8,7.71.73,26.51.9,33.95-.13,18.86-2.6,17.75-29.2-.87-30.95-7.5-.71-27.74-.92-34.8.28Z"/>
      <path d="M435.15,156.02l.23-50.27c2.41-10.91,17.5-15.69,25.67-8.13,7.37,6.81,4.62,18.47,5.09,27.41,8.41.78,19.92-2.59,26.4,4.1,1.09,1.12,4.6,7.27,4.6,8.4v18.5h62v-19.5c0-4.65,8.88-11.33,13.59-11.41,20.2,2.2,48.44-3.35,67.68.14,10.89,1.98,15.55,17.66,8.13,25.67-1.21,1.31-7.54,5.1-8.9,5.1h-49.5v93h81.5c1.41,0,6.15,3.3,7.34,4.66,9.29,10.53,2.73,25.87-11.3,26.38l-77.54-.04v19.5c0,6.31-10.73,11.72-16.5,11.58s-14.5-6.58-14.5-12.58v-49.5h-124v19.5c0,4.75-8.23,10.49-12.74,11.26-14.51,2.47-34.19-1.34-49.26.24v19.5c0,6.31-10.73,11.72-16.5,11.58-5.99-.15-14.5-6.58-14.5-12.58v-18.5h-31v50.5c0,6.31-10.73,11.72-16.5,11.58-5.99-.15-14.5-6.58-14.5-12.58v-18.5h-31v31h19.5c.79,0,5.51,2.77,6.4,3.6,7.36,6.77,4.62,18.52,5.09,27.41,10.59.71,23.72-3.54,29.18,8.32,4.11,8.93,1.2,18.7-8.61,21.73-5.92,1.83-30.05,1.64-37.1.98-16.89-1.59-14.64-18.29-14.46-31.04-8.41-.78-19.92,2.59-26.4-4.1-1.09-1.12-4.6-7.27-4.6-8.4v-18.5h-31v31h19.5c4.73,0,10.51,8.24,11.26,12.74,1.63,9.9-4.54,17.21-14.26,18.26-7.06.76-29.18.96-35.77-.23-13.88-2.52-11.94-20.33-11.73-30.77-14.03.13-29.4,3.01-31.05-15.45-2.69-30.22,2.09-64.39.04-95.04.61-7.66,7.17-12.71,14.5-13.5,14.86-1.61,49.01-1.45,64.04-.04,12.79,1.2,19.45,16.66,10.86,25.94-1.21,1.31-7.54,5.1-8.9,5.1h-49.5v31h62v-19.5c0-.79,2.77-5.51,3.6-6.4,6.77-7.36,18.52-4.62,27.41-5.09-3.1-26.21,5-33.7,31-31-2.22-14.41.87-36.14,20.82-30.33,3.96,1.15,10.17,7.95,10.17,11.82v18.5h31v-19.5c0-.79,2.77-5.51,3.6-6.4,6.77-7.36,18.52-4.62,27.41-5.09.71-10.59-3.54-23.72,8.32-29.18,6.39-2.94,13.67-2.73,18.51,2.83.95,1.09,4.16,6.85,4.16,7.84v18.5h31v-31h-19.5c-6.31,0-11.72-10.73-11.58-16.5s6.58-14.5,12.58-14.5h18.5ZM497.15,187.02h-31v31h31v-31ZM559.15,187.02h-31v31h31v-31Z"/>
      <path d="M694.65,559.02c-14.19-2.52-17.23-28.81,3-31,7.46-.81,27.67-.94,34.92.09,14.75,2.09,12.84,19.95,12.58,30.92,14.08-.14,29.4-2.99,31.05,15.45l-.04,139.54h19.5c6.68,0,11.99,11.32,11.53,17.48-1.16,15.46-19.9,13.95-31.03,13.52,3.1,26.24-5.02,33.69-31,31,1.88,14.23-.18,35.23-20.07,30.57-4.33-1.01-10.93-7.87-10.93-12.07v-18.5h-93v19.5c0,1.41-3.3,6.15-4.66,7.34-8.45,7.46-21.94,4.93-25.4-6.28-1.63-5.28-1.78-33.91-.71-39.83.86-4.73,7.7-11.73,12.27-11.73h18.5v-93h-19.5c-1.41,0-6.15-3.3-7.34-4.66-9.29-10.53-2.73-25.87,11.3-26.38l77.54.04v-19.5c0-3.93,8.82-11.5,12.5-11.5h18.5v-31c-5.89-.73-13.92.99-19.5,0ZM745.15,652.02h-93v93h93v-93Z"/>
      <path d="M695.89,1.26l189.8-.28c8.56.13,14.01,7.39,14.5,15.5l-.99,192.09c-2,5.72-8.67,9.2-14.51,9.49l-192.09-.99c-5.72-2-9.2-8.67-9.49-14.51l.71-191.37c1.83-5.53,6.64-8.54,12.07-9.93ZM869.15,32.02h-155v155h155V32.02Z"/>
      <path d="M13.89,683.26l189.8-.28c8.56.13,14.01,7.39,14.5,15.5l-.99,192.09c-2,5.72-8.67,9.2-14.51,9.49l-192.09-.99c-5.72-2-9.2-8.67-9.49-14.51l.71-191.37c1.83-5.53,6.64-8.54,12.07-9.93ZM187.15,714.02H32.15v155h155v-155Z"/>
      <path d="M13.89,1.26l189.8-.28c8.56.13,14.01,7.39,14.5,15.5l-.99,192.09c-2,5.72-8.67,9.2-14.51,9.49l-192.09-.99c-5.72-2-9.2-8.67-9.49-14.51L1.82,11.19C3.65,5.66,8.46,2.65,13.89,1.26ZM187.15,32.02H32.15v155h155V32.02Z"/>
      <path d="M218.15,539.52c1.79-10.1,17.26-15.06,25.35-8.35s5.2,18.73,5.64,27.86c26.25-3.11,33.69,5.03,31,31,26.24-3.1,33.69,5.02,31,31,26.23-3.11,33.7,5.02,31,31,9.89.82,21.69-3.34,28.04,6.46,7.5,11.56.74,23.4-12.5,24.58-14.8,1.32-31.53-1.07-46.54-.04v19.5c0,5.45-9.41,11.15-14.52,11.53-17.83,1.3-17.29-18.43-16.47-31.03-13.11.12-29.12,2.95-31.01-14.49-1.61-14.84,1.2-32.37,0-47.5h-19.5c-3.93,0-11.5-8.82-11.5-12.5v-18.5h-31v31h19.5c3.42,0,8.71,5.83,9.99,9.01,4.38,10.87-1.33,20.74-12.99,22-6.44.7-31.95.87-37.33-.68-5.79-1.66-9.56-8.09-10.18-13.82-2.24-20.74,1.49-45.6.23-66.77,1.06-5.82,6.84-10.53,12.51-11.49,14.51-2.47,34.19,1.34,49.26-.24.73-5.89-.99-13.92,0-19.5Z"/>
      <path d="M621.15,342.02l82.83.67c5.79,1.66,9.56,8.08,10.18,13.82.84,7.72.87,26.32,0,34-1.37,12.04-17.07,18.08-25.9,9.9-1.31-1.21-5.1-7.54-5.1-8.9v-18.5h-31v50.5c0,3.93-8.82,11.5-12.5,11.5h-18.5v93h19.5c1.41,0,6.15,3.3,7.34,4.66,7.21,8.17,5.17,21.25-5.55,25.13-5.22,1.89-34.5,2.08-40.56.98-5.96-1.08-9.71-6.2-11.29-11.71l-.44-129.56c-.71-5.3,7.96-13.5,12.5-13.5h18.5v-31h-19.5c-4.75,0-10.49-8.23-11.26-12.74-1.2-7.05-.98-27.3-.28-34.8,1.2-12.79,16.67-19.45,25.94-10.86,1.31,1.21,5.1,7.54,5.1,8.9v18.5Z"/>
      <path d="M32.15,342.02h19.5c4.75,0,10.49,8.23,11.26,12.74,2.47,14.51-1.34,34.19.24,49.26h19.5c3.93,0,11.5,8.82,11.5,12.5v18.5h31v-19.5c0-6.31,10.73-11.72,16.5-11.58,5.99.15,14.5,6.58,14.5,12.58v18.5c15.38,1.28,33.45-1.71,48.5,0,16.92,1.93,18.75,27.7.76,30.76l-132.81-.71c-3.57-.6-9.45-8.57-9.45-11.55v-18.5c-15.38-1.28-33.45,1.71-48.5,0-12.39-1.41-18.24-17.83-9.4-26.4,1.12-1.09,7.27-4.6,8.4-4.6h18.5v-31H12.65c-4.65,0-11.33-8.88-11.41-13.59,1.31-20.86-2.05-44.42-.13-64.95,1.75-18.72,29.17-20.44,31.08,1,1.32,14.8-1.06,31.53-.04,46.54Z"/>
      <path d="M497.15,714.02h31v-19.5c0-6.28,10.67-11.72,16.5-11.58,16.28.39,15.04,19.45,14.5,31.08,12.86-.51,30.64-2.31,31.08,15.49.42,17.09-18.96,16.17-31.08,15.5-.71,10.59,3.55,23.72-8.32,29.18-6.39,2.94-13.67,2.73-18.51-2.83-.95-1.09-4.16-6.85-4.16-7.84v-18.5l-50.27-.23c-4.62-.05-11.73-8.41-11.73-12.27v-18.5l-51.07-.43c-15.09-5.15-14.71-27.52,1.81-30.33,14.51-2.47,34.19,1.34,49.26-.24v-19.5c0-6.31,10.73-11.72,16.5-11.58,5.99.15,14.5,6.58,14.5,12.58v49.5Z"/>
      <path d="M776.15,888.52c-2.41,13.57-26.88,16.88-30.56-.44-1.18-5.55-1.26-33.73-.01-39.13,1.58-6.84,8.61-10.4,15.03-10.97,39.77-3.56,84.75,2.77,125.08,0,11.78.24,18.35,14.56,12.12,24.19s-19.22,6.44-28.66,6.84c.14,14.08,2.99,29.4-15.45,31.05-7.37.66-28.02.96-34.81-.27-4.73-.86-11.73-7.7-11.73-12.27v-18.5h-31c-.73,5.89.99,13.92,0,19.5Z"/>
      <path d="M322.65,32.02c-14.18-2.52-17.23-28.81,3-31,6.4-.69,31.92-.88,37.33.68,12.46,3.58,10.2,20.38,10.17,30.33,26.21-3.1,33.7,5,31,31,11.51.35,26.49-3.41,30.32,11.17,2.92,11.14-3.82,18.89-14.78,19.86-14.8,1.32-31.53-1.06-46.54-.04v19.5c0,1.41-3.3,6.15-4.66,7.34-10.53,9.29-25.87,2.73-26.38-11.3l.04-77.54c-5.89-.73-13.92.99-19.5,0Z"/>
      <path d="M838.15,528.02l51.07.43c12.7,4.06,15.49,22.82,2.6,28.74-7.11,3.26-15.1,1.35-22.68,1.82-.71,10.59,3.55,23.72-8.32,29.18-6.39,2.94-13.67,2.73-18.51-2.83-.95-1.09-4.16-6.85-4.16-7.84v-18.5l-51.07-.43c-4.9-1.13-9.02-5.98-10.25-10.75-1.42-5.48-1.52-33.21-.45-39.09,1.32-7.28,8.37-11.16,15.23-11.77,7.37-.66,28.02-.96,34.81.27,4.73.86,11.73,7.7,11.73,12.27v18.5Z"/>
      <path d="M632.65,838.02c-14.18-2.52-17.23-28.81,3-31,7.06-.76,29.18-.96,35.77.23,13.88,2.52,11.94,20.33,11.73,30.77,14.03-.13,29.4-3.01,31.05,15.45.62,6.98.95,29.47-.47,35.61-1.34,5.8-6.85,9.34-12.31,10.69-21.07-1.06-45.07,2.23-65.8.28-12.79-1.2-19.45-16.67-10.86-25.94,1.21-1.31,7.54-5.1,8.9-5.1h18.5v-31c-5.89-.73-13.92.99-19.5,0Z"/>
      <path d="M311.15,869.02h31v-19.5c0-5.45,9.41-11.15,14.52-11.53,17.83-1.3,17.29,18.43,16.47,31.03,5.86.49,12.7-.73,18.42.08,15.98,2.27,18.6,29.03-2.87,30.95-29.92,2.68-63.74-2.11-94.08,0-8.11-.09-13.63-6.81-14.46-14.54s-.88-26.32,0-34c1.37-12.04,17.07-18.08,25.9-9.9,1.31,1.21,5.1,7.54,5.1,8.9v18.5Z"/>
      <path d="M342.15,826.52c-2.41,13.57-26.88,16.88-30.56-.44-1.18-5.55-1.26-33.72-.01-39.13,1.58-6.84,8.61-10.4,15.03-10.97,15.65-1.4,47.49-1.46,63.08,0,16.88,1.59,14.64,18.25,14.46,31.04,8.44.77,19.9-2.59,26.4,4.1,8.85,9.09,4.68,24.48-8.14,26.66-5.88,1-32.82,1.08-38.33-.19-4.33-1-10.93-7.88-10.93-12.07v-18.5h-31c-.73,5.89.99,13.92,0,19.5Z"/>
      <path d="M528.15,32.02l-.95,83.55c-8.06,14.94-28.47,12.12-30.09-6.01-1.32-14.8,1.06-31.53.04-46.54h-19.5c-5.86,0-11.44-10.04-11.58-15.5-.43-17.1,18.97-16.17,31.08-15.5-.13-13.15-2.93-29.12,14.49-31.01,6.44-.7,31.94-.87,37.33.68,10,2.87,13.72,18.31,6.07,25.73-1.12,1.09-7.27,4.6-8.4,4.6h-18.5Z"/>
      <path d="M516.49,346.68c1.23,1.36,3.52,2.38,5.17,4.34,6.52,7.78,2.96,11.52,4.7,19.29.63,2.81,3.62,4.3,4.35,6.65.81,2.58.2,5.4.86,8.14.81,3.34,4.06,7,5.35,10.65,5.92,16.71.2,41.36-3.78,58.27,22.55-4.92,15.99,23.69,10.73,36.24-.93,2.21-7.73,14.45-9.02,15.47-2.75,2.17-8.05.44-9.28,2.23-1.48,8.57-3.45,19.19-6.73,27.27-16.31,40.13-58.31,54.12-98.94,44.55-23.39-5.51-44.97-30.69-50.52-53.48-1.67-6.86-.32-17.24-2.24-23.53-.3-.97-2.93-1.83-4.05-3.18-6.1-7.37-12.28-31.69-10.88-40.99,1.13-7.53,7.06-13.49,14.93-9.57.44-7.3-2.23-14.28-2.98-21.51-1.62-15.75-.5-26.98,5.25-41.72.73-1.87,3.22-4.01,3.45-5.41.56-3.32-2.54-15.31-1.75-21.89,1.88-15.63,16.94-29.43,32.55-30.47,3.48-.23,7.33,1.28,9.74.85,7.22-1.29,14.11-9.5,27.22-9.93,31.63-1.02,54.54,4.17,75.86,27.74ZM449.94,322.23c-6.16-.82-15.32-2.48-19.79,2.78,3.74-.39,5.88,4.4,7.21,7.3,3.93,8.63,5.51,18.26,4.79,27.71l12,1c1.83-13.46,5.64-27.64-4.2-38.79ZM457.15,361.02h19.5c1,0,7.23.97,8.75,1.25,8.29,1.52,15.56,5.62,22.73,9.75,2.38-4.5,7.07-19.96,5.85-24.26-1.58-5.55-20.15-17.21-25.82-19.25-6.24-2.25-25.07-6.46-31.47-6.53-1-.01-3.15-.41-3.53.54,10.59,9.45,4.88,26.1,4,38.5ZM426.96,326.27l-6.8,2.25c2.7,3.32,7.18,4.42,10.04,6.96,2.5,2.21,4.18,6.5,6.94,8.54.42-7.44-3.15-13.68-9.74-16.43-.24-.1-.23-1.22-.45-1.31ZM388.15,337.02h14.5c5.85,0,19.76,10.58,24.02,15.02,1.4,1.45,3.98,3.71,3.47,5.98-7.14-5-12.34-12.78-21-15.49-9.18-2.87-26.2-4.08-31.85,5.14-4.86,7.93-3.92,23.7-1.13,32.35,2.37.14,3.25-2.2,5.27-3.22,7.72-3.9,10.15-7.92,16.49-11.51,2.41-1.36,14.52-5.27,16.73-5.27h23c.33,0,1.85,2.55,1.49-.48-2.6-21.98-22.96-32.9-43.54-26.56-2.18.67-6.23,2-7.45,4.05ZM510.15,375.01c2.27.48,2.19-1.18,3.03-2.46,3.1-4.79,5.44-10.11,7.77-15.31l-2.81-7.22c-1.74-1.21-2.24,8.34-2.45,9.05-.67,2.37-6.15,15.25-5.54,15.94ZM402.55,491.43c2.77-2.02,8.34-6.2,11.33-7.17,15.69-5.11,43.8-4.04,58.93,2.59,8.47,3.71,17.67,16.19,24.83,16.19,9.35,0,23.75-16.82,27.2-24.82,1.58-3.67,5.43-22.32,5.19-25.76-.1-1.51-1.67-2.5-1.85-3.99-3.7-29.92-2.91-70.27-37.06-80.93-17.6-5.49-56.91-6.57-75.37-4.42-21.91,2.56-34.06,21.14-39.16,40.84s-9.46,48.23-7.44,68.54c.37,3.74,5.02,19.08,6.78,22.22,3.24,5.78,10.34,6.36,16.24,4.82,4.2-1.1,7.17-5.78,10.38-8.12ZM524.13,369.02c-1.36-.95-12.38,7.56-10.98,9l11.96-3.03-.98-5.97ZM369.14,430.01l7.71-37.8,8.29-15.2c-5.73,4.43-13.48,8.25-15.56,15.93-2.34,8.64-3.1,21.62-2.42,30.56.1,1.35.49,6.05,1.98,6.51ZM527.02,379.14l-8.86.37,10.99,6.49-2.13-6.86ZM528.43,390.74c-2.93-2.89-6.94-9.53-12.28-8.23,10.6,11.6,8.14,26.97,12.48,40.94l3.5,24.56c.08-12.58,4.54-24.83,4-37.49-.19-4.31-1.86-14.13-3.98-17.75-.9-1.54-2.68-1.01-3.72-2.03ZM355.15,459.02v14.5c0,1.18,6.81,20.45,7.8,22.2.89,1.59,2.05,3.62,4.2,3.29.48-15.6-1.11-30.89-.13-46.36-.84-2.57-8.79-2.38-9.85-.12-.86,1.82,2.7,1.93,3.93,3.04,2.73,2.45,3.53,5.86,3.05,9.45-2.9-2.76-4.26-5.97-8.99-6ZM544.15,460.01c.61-4.08-8.34-3.51-10.36-2.85-2.51.82-2.2,13.13-2.74,16.25-1.12,6.39-6.85,24.49-4.39,29.6,2.92,6.06,9.67-3.8,11.31-6.67,5.4-9.43,9.41-21.38,8.17-32.32-5.3,2.04-10.85,4.92-12.01,11-1.73.04-2.14.56-1.92-1.42.68-6.33,5.12-13.1,11.94-13.59ZM522.15,491.02c-9.21,6.54-24.08,21.08-35.49,10.99-9.94-8.8-11.25-12.42-25.71-16.29-9.4-2.52-11.18-1.35-19.41-.73-6.37.48-12.82-1.42-20.65.27-13.84,2.98-17.83,14.31-27.71,17.29-8.73,2.64-13.27.76-19.6-5.46l-3.43-9.07v28.5c0,4.26,9.86,26.9,12.61,31.39,21.49,35.04,76.28,40.85,108.3,17.52,13.26-9.66,31.09-37.37,31.09-53.91v-20.5Z"/>
      <path d="M280.15,497.02h-19.5c-4.47,0-10.15-7.71-11.05-11.94-4.15-19.47,16.83-20.34,30.56-19.06.71-10.58-3.54-23.72,8.32-29.18s21.6,1.21,22.71,13.63c2.72,30.48-2.04,65.04-.13,95.95-3.36,16.4-27.71,17.26-30.67-.15-2.47-14.51,1.34-34.19-.24-49.26Z"/>
      <path d="M838.15,435.02c1.75,1.75,42.12-.94,49.41.09s11.84,7.49,12.59,14.41c.7,6.46.87,31.92-.68,37.33-2.86,10.02-18.32,13.71-25.73,6.07-1.09-1.12-4.6-7.27-4.6-8.4v-18.5c-15.38-1.48-34.5,2.02-49.41-.09-7.18-1.02-11.84-7.49-12.59-14.41-.7-6.46-.87-31.92.68-37.33,2.86-10.02,18.32-13.71,25.73-6.07,1.09,1.12,4.6,7.27,4.6,8.4v18.5Z"/>
      <path d="M94.14,621.01c.04,12.4,3.02,28.63-13.58,30.92-7.44,1.02-26.24.85-33.95.13-17.52-1.65-19.9-26.06-3.28-30.36,6.25-1.62,13.42-.23,19.82-.68-3.11-26.25,5.03-33.69,31-31,.83-10.19-3.49-22.29,7.06-28.44,9.9-5.77,21.71-1.46,23.69,10.17.98,5.75,1.02,34.04-.43,39.09-3.58,12.46-20.38,10.2-30.33,10.17Z"/>
      <path d="M745.15,280.02v-19.5c0-1.41,3.3-6.15,4.66-7.34,10.21-9.01,24.87-3.28,26.35,10.34.81,7.46.94,27.67-.09,34.92-1.11,7.81-8.01,11.97-15.37,12.63-20.63,1.84-44.02-1.38-64.95-.13-16.4-3.36-17.26-27.71.15-30.67,14.51-2.47,34.19,1.34,49.26-.24Z"/>
      <path d="M280.15,125.02l.43-51.07c5.53-15.52,28.11-14.56,30.48,2.66-1.31,20.86,2.05,44.42.13,64.95-.73,7.82-5.7,13.28-13.63,14.37-7.44,1.02-26.24.85-33.95.13-12.75-1.2-19.47-16.64-10.86-25.94,1.21-1.31,7.54-5.1,8.9-5.1h18.5Z"/>
      <path d="M757.89,404.26c10.6-1.75,17.39,5.04,18.3,15.22,1.86,20.84-1.28,44.66-.27,65.81-5.9,17.15-29.08,15.63-30.81-3.73-1.84-20.62,1.38-44.03.13-64.95.81-6.22,6.54-11.34,12.65-12.34Z"/>
      <path d="M819.89,590.26c10.6-1.75,17.39,5.04,18.3,15.22,1.86,20.84-1.28,44.66-.27,65.81-5.9,17.15-29.08,15.63-30.81-3.73-1.84-20.62,1.38-44.03.13-64.95.81-6.22,6.54-11.34,12.65-12.34Z"/>
      <path d="M869.14,280.02c10.75.64,24.43-3.56,29.5,9,4.69,11.62-1.85,20.95-13.95,22.03-6.63.59-31.87.83-37.09-.99-5.95-2.08-8.97-8.57-9.49-14.51-.59-6.63-.83-31.87.99-37.09,3.24-9.29,17.61-12.64,24.95-5.86s4.62,18.45,5.09,27.41Z"/>
      <path d="M869.15,776.02c.64-10.75-3.56-24.43,9-29.5,11.62-4.69,20.95,1.85,22.03,13.95.59,6.63.83,31.87-.99,37.09-2.08,5.95-8.57,8.97-14.51,9.49-6.63.59-31.87.83-37.09-.99-9.29-3.24-12.64-17.61-5.86-24.95,6.81-7.36,18.45-4.62,27.41-5.09Z"/>
      <path d="M280.14,745.02c10.75.64,24.43-3.56,29.5,9,4.69,11.62-1.85,20.95-13.95,22.03-6.63.59-31.87.83-37.09-.99-5.95-2.08-8.97-8.57-9.49-14.51-.59-6.63-.83-31.87.99-37.09,3.24-9.29,17.61-12.64,24.95-5.86,7.36,6.81,4.62,18.45,5.09,27.41Z"/>
      <path d="M528.14,621.01c-.64,10.75,3.56,24.43-9,29.5-11.62,4.69-20.95-1.85-22.03-13.95-.59-6.63-.83-31.87.99-37.09,2.08-5.95,8.57-8.97,14.51-9.49,6.63-.59,31.87-.83,37.09.99,9.29,3.24,12.64,17.61,5.86,24.95-6.81,7.36-18.45,4.62-27.41,5.09Z"/>
      <path d="M881.89,621.26c9.87-1.63,17.21,4.51,18.26,14.26.69,6.4.88,31.92-.68,37.33-4.04,14.07-28.31,14.37-30.33-4.32-.72-6.67-.94-30.64.43-36.57,1.23-5.35,7.01-9.82,12.31-10.69Z"/>
      <path d="M571.89,63.26c7.05-1.2,27.3-.98,34.8-.28,18.63,1.75,19.73,28.35.87,30.95-7.44,1.02-26.24.85-33.95.13-18.4-1.73-19.63-27.75-1.72-30.8Z"/>
      <path d="M633.89,1.26c9.87-1.63,17.21,4.51,18.26,14.26.69,6.4.88,31.92-.68,37.33-4.04,14.07-28.31,14.37-30.33-4.32-.72-6.67-.94-30.64.43-36.57,1.23-5.35,7.01-9.82,12.31-10.69Z"/>
      <path d="M13.89,559.26c9.87-1.63,17.21,4.51,18.26,14.26.69,6.4.88,31.92-.68,37.33-4.04,14.07-28.31,14.37-30.33-4.32-.72-6.67-.94-30.64.43-36.57,1.23-5.35,7.01-9.82,12.31-10.69Z"/>
      <path d="M416.89,745.26c7.05-1.2,27.3-.98,34.8-.28,18.63,1.75,19.73,28.35.87,30.95-7.44,1.02-26.24.85-33.95.13-18.4-1.73-19.63-27.75-1.72-30.8Z"/>
      <path d="M478.89,838.26c7.05-1.2,27.3-.98,34.8-.28,18.63,1.75,19.73,28.35.87,30.95-7.44,1.02-26.24.85-33.95.13-18.4-1.73-19.63-27.75-1.72-30.8Z"/>
      <path d="M44.89,528.26c7.05-1.2,27.3-.98,34.8-.28,18.63,1.75,19.73,28.35.87,30.95-7.44,1.02-26.24.85-33.95.13-18.4-1.73-19.63-27.75-1.72-30.8Z"/>
      <path d="M540.89,869.26c7.05-1.2,27.3-.98,34.8-.28,18.63,1.75,19.73,28.35.87,30.95-7.44,1.02-26.24.85-33.95.13-18.4-1.73-19.63-27.75-1.72-30.8Z"/>
      <path d="M664.89,466.26c7.05-1.2,27.3-.98,34.8-.28,18.63,1.75,19.73,28.35.87,30.95-7.44,1.02-26.24.85-33.95.13-18.4-1.73-19.63-27.75-1.72-30.8Z"/>
      <path d="M13.89,466.26c7.05-1.2,27.3-.98,34.8-.28,18.63,1.75,19.73,28.35.87,30.95-7.44,1.02-26.24.85-33.95.13-18.4-1.73-19.63-27.75-1.72-30.8Z"/>
      <path d="M75.89,249.26c18.32-3.02,25.25,21.89,9.93,28.93-22.87,10.5-32.14-25.27-9.93-28.93Z"/>
      <path d="M323.89,187.26c18.32-3.02,25.25,21.89,9.93,28.93-22.87,10.5-32.14-25.27-9.93-28.93Z"/>
      <path d="M633.89,187.26c18.32-3.02,25.25,21.89,9.93,28.93-22.87,10.5-32.14-25.27-9.93-28.93Z"/>
      <path d="M447.89,280.26c18.32-3.02,25.25,21.89,9.93,28.93-22.87,10.5-32.14-25.27-9.93-28.93Z"/>
      <path d="M447.89,869.26c18.32-3.02,25.25,21.89,9.93,28.93-22.87,10.5-32.14-25.27-9.93-28.93Z"/>
      <path d="M447.89,1.26c18.32-3.02,25.25,21.89,9.93,28.93-22.87,10.5-32.14-25.27-9.93-28.93Z"/>
      <path d="M602.89,838.26c18.32-3.02,25.25,21.89,9.93,28.93-22.87,10.5-32.14-25.27-9.93-28.93Z"/>
      <path d="M788.89,311.26c18.32-3.02,25.25,21.89,9.93,28.93-22.87,10.5-32.14-25.27-9.93-28.93Z"/>
      <path d="M571.89,807.26c18.32-3.02,25.25,21.89,9.93,28.93-22.87,10.5-32.14-25.27-9.93-28.93Z"/>
      <path d="M261.89,807.26c18.32-3.02,25.25,21.89,9.93,28.93-22.87,10.5-32.14-25.27-9.93-28.93Z"/>
      <path d="M788.89,776.26c18.32-3.02,25.25,21.89,9.93,28.93-22.87,10.5-32.14-25.27-9.93-28.93Z"/>
      <path d="M106.89,497.26c18.32-3.02,25.25,21.89,9.93,28.93-22.87,10.5-32.14-25.27-9.93-28.93Z"/>
      <path d="M199.89,497.26c18.32-3.02,25.25,21.89,9.93,28.93-22.87,10.5-32.14-25.27-9.93-28.93Z"/>
      <path d="M478.89,776.26c18.32-3.02,25.25,21.89,9.93,28.93-22.87,10.5-32.14-25.27-9.93-28.93Z"/>
      <path d="M757.89,342.26c18.32-3.02,25.25,21.89,9.93,28.93-22.87,10.5-32.14-25.27-9.93-28.93Z"/>
      <path d="M881.89,342.26c18.32-3.02,25.25,21.89,9.93,28.93-22.87,10.5-32.14-25.27-9.93-28.93Z"/>
      <path d="M850.89,714.26c18.32-3.02,25.25,21.89,9.93,28.93-22.87,10.5-32.14-25.27-9.93-28.93Z"/>
      <path d="M385.89,714.26c18.32-3.02,25.25,21.89,9.93,28.93-22.87,10.5-32.14-25.27-9.93-28.93Z"/>
      <path d="M323.89,714.26c18.32-3.02,25.25,21.89,9.93,28.93-22.87,10.5-32.14-25.27-9.93-28.93Z"/>
      <path d="M261.89,187.26c18.32-3.02,25.25,21.89,9.93,28.93-22.87,10.5-32.14-25.27-9.93-28.93Z"/>
      <path d="M385.89,125.26c18.32-3.02,25.25,21.89,9.93,28.93-22.87,10.5-32.14-25.27-9.93-28.93Z"/>
      <path d="M106.89,373.26c18.32-3.02,25.25,21.89,9.93,28.93-22.87,10.5-32.14-25.27-9.93-28.93Z"/>
      <path d="M788.89,373.26c18.32-3.02,25.25,21.89,9.93,28.93-22.87,10.5-32.14-25.27-9.93-28.93Z"/>
      <path d="M664.89,559.26c18.32-3.02,25.25,21.89,9.93,28.93-22.87,10.5-32.14-25.27-9.93-28.93Z"/>
      <path d="M261.89,32.26c18.32-3.02,25.25,21.89,9.93,28.93-22.87,10.5-32.14-25.27-9.93-28.93Z"/>
      <path d="M850.89,373.26c18.32-3.02,25.25,21.89,9.93,28.93-22.87,10.5-32.14-25.27-9.93-28.93Z"/>
      <path d="M447.89,621.26c18.32-3.02,25.25,21.89,9.93,28.93-22.87,10.5-32.14-25.27-9.93-28.93Z"/>
      <path d="M695.89,683.26c18.32-3.02,25.25,21.89,9.93,28.93-22.87,10.5-32.14-25.27-9.93-28.93Z"/>
      <path d="M757.89,63.26c19.44-3.31,46.5,1.97,66.76-.24,8.34.84,12.83,7.53,13.54,15.46,1.34,15.04,1.64,49.32-.04,64.04-.96,8.4-7.41,12.82-15.46,13.54-15.04,1.34-49.32,1.64-64.04-.04-7.76-.89-12.68-6.92-13.5-14.5-1.54-14.2-1.61-50.89,0-65,.78-6.85,5.96-12.1,12.74-13.26Z"/>
      <path d="M75.89,745.26c19.44-3.31,46.5,1.97,66.76-.24,8.34.84,12.83,7.53,13.54,15.46,1.34,15.04,1.64,49.32-.04,64.04-.96,8.4-7.41,12.82-15.46,13.54-15.04,1.34-49.32,1.64-64.04-.04-7.76-.89-12.68-6.92-13.5-14.5-1.54-14.2-1.61-50.89,0-65,.78-6.85,5.96-12.1,12.74-13.26Z"/>
      <path d="M75.89,63.26c19.44-3.31,46.5,1.97,66.76-.24,8.34.84,12.83,7.53,13.54,15.46,1.34,15.04,1.64,49.32-.04,64.04-.96,8.4-7.41,12.82-15.46,13.54-15.04,1.34-49.32,1.64-64.04-.04-7.76-.89-12.68-6.92-13.5-14.5-1.54-14.2-1.61-50.89,0-65,.78-6.85,5.96-12.1,12.74-13.26Z"/>
      <path d="M390.73,406.6c-2.56,2.65-3.87,6.83-7.58,6.41,3.84-20.8,28.78-31.23,44.87-16.29.54,1.89-.57,5.46-2.54,6.13-9.16-.08-23.16-4.83-31.73.27-1.56.93-1.93,2.36-3.02,3.48ZM399.65,397.02c4.96-.23,10.03,0,15,0,.54,0,8.23,3.37,8.49,3l.07-3.43c-.79-2.77-22.18-4.26-25.04-.05-2.58,3.95,1.02.5,1.48.48Z"/>
      <path d="M502.8,398.37c2.36,2.07,11.89,16.11,9.34,18.65-3.7.72-4.46-3.85-6.97-6.52-8.49-9.03-14.57-8.13-26.56-7.52-4.12.21-8.55,3.74-11.53-.39-7.1-9.82,17.3-11.32,23.13-10.13,2.86.58,10.39,3.97,12.59,5.91ZM500.15,402.01c-6.75-8.65-21.06-8.42-30.02-3.49l.58,2.52c3.46,1.07,6.28-1.61,9-1.96,7.38-.94,13.62.55,20.44,2.94Z"/>
      <path d="M429.39,477.78c-3.65-3.6,1.02-17.17,5.37-19.65,2.6-1.49,10.82-1.62,13.84-1.06,7.34,1.35,14.94,16.88,7.46,21.37-4.25,2.56-23.01,2.96-26.67-.66ZM433.46,464.33c-10.23,12.81,16.21,17.05,20.46,8.97,5.65-10.75-12.44-19.01-20.46-8.97Z"/>
      <path d="M399.16,442.02c5.25,3.93,8.92.26,4.99-4.99,5.39-.31,8.16-.46,11.02,4.46,6.48,11.14-6.87,9.98-14.38,9.39l-1.5-1.5-.13-7.36Z"/>
      <path d="M483.14,436.03c-.18,1.63-2.41,1.05-4.06,2.42-.97.8-4.07,3.79-3.87,4.94,1.29,2.15,3.32,3.68,5.51,1.69,3.14-2.43-1.04-5.71-.57-6.06,8.94-.09,14.96,4.63,11.89,13.88l-15.91-1.37-.98-7.52c-4.74-.67-1.69,6.72-2,6.99h-2.99c-.48-9.06,2.86-16.27,12.99-14.98Z"/>
      <path d="M509.14,450.01c-1.92.42-2.39-.98-3.4-2.09-7.9-8.71-11.63-14-25.09-13.99-10.43,0-15.08,7.67-16.51,17.08-3.77,4.07-.02-9.33.33-10.2,1.34-3.25,7.27-8.45,10.65-9.33,12.46-3.26,31.3,5.44,34.02,18.52Z"/>
      <path d="M427.16,449.01c-1.42-20.43-24.02-22.47-36.55-10.03-2.42,2.41-5.35,10.97-7.45,4.56,12.09-18.08,42.4-22.61,46.97,3.91l-2.97,1.56Z"/>
      <path d="M421.14,450.02h-2.99s-1.52-10.99-1.52-10.99l-8.47-6.01c10.76,0,14.28,7.07,12.99,17Z"/>
      <path d="M428.14,461.02c.91.93.12,2.33-1.27,3.25-3.07,2.05-9.48,4.89-13.04,5.96-1.83.55-2.12,1.46-3.68-.73l5.5-3.48c2.08.01,11.74-5.77,12.49-5Z"/>
      <path d="M478.15,471.01c-6.21-.36-13.37-3.86-18-7.98,6.53.15,13.02,4.01,18,7.98Z"/>
      <path d="M403.14,435.02c.75,3.23-1.88,1.16-3.07,2.62-.2.25-3.27,5.11-3.39,5.41-1.21,2.93,1,7.67-2.53,6.96-.72-6.83.79-14.75,8.99-14.99Z"/>
      <path d="M498.14,453.02h-2.99c-.07-2.23,1.19-3.93.83-6.25-.62-3.98-5.1-6.09-5.83-9.76,7.18,3.02,8.97,8.51,7.99,16.01Z"/>
      <path d="M477.88,498.29c4.59,4.56,5.34,19.17,4.23,25.19-.91,4.9-8.5,13.19-13.41,14.59-8.77,2.51-11.19-.8-18.1-1.09-8.59-.35-19.22.35-27.94-.17-19.55-1.16-21.06-12.2-19.54-29.33.49-5.48,2.57-9.67,7-13,5.38-4.04,24.62-8.69,31.51-8.46s31.47,7.52,36.25,12.27ZM475.81,500.36c-16.47-8.36-30.26-13.68-48.87-9.05-3.1.77-11.46,3.51-14.04,4.96-9.92,5.6-10.61,27.1-1.26,33.75,8.4,5.97,18.5,2.71,27.99,3.01s16.65,3.83,25.5,1.48c17.23-4.57,16.84-20.27,10.67-34.15Z"/>
      <path d="M410.31,501.18c10.9-5.61,22.97-8.13,35.32-7.14,6.22.5,26.4,5.2,29.58,10.41,3.12,5.12-5.44,18.88-10.36,21.78-7.34,4.33-18.84,4.57-27.19,3.77-13.33-1.28-29.83-14.09-27.35-28.82ZM417.34,500.19l-1.03,2.5c.9,4.58,3.15.71,5.37.36,11.31-1.83,36.88-.23,47.97,2.98.89.26,3.63,1.85,3.48-.51-.08-1.2-10.63-4.92-12.54-5.44-14.77-4-28.53-3.5-43.25.12ZM467.14,512.02c-1.27-1.26-20.89,2.08-24.44,2.03-6.83-.1-14.94-4.87-22.55-3.02,1.7,5.85,11.1,7.56,16.46,8.03s26.59.34,29.62-3.45c.95-1.19,1.1-2.1.92-3.58ZM420.43,517.72c-.85-.67-1.4-3.01-2.79-3.7-1.36.72-.16,2.63.46,3.54,6.9,10.12,35.99,12.21,45.98,6.88,1.91-1.02,6.97-5.59,1.59-5.42-3.18.1-6.76,1.75-10.04,1.97-6.24.42-30.87.15-35.2-3.28Z"/>
    </g>
  </g>
</svg>