<?xml version="1.0" encoding="UTF-8"?>
<svg id="Layer_2" data-name="Layer 2" xmlns="http://www.w3.org/2000/svg" viewBox="0 0 891 891">
  <defs>
    <style>
      .cls-1 {
        fill: none;
      }

      .cls-2 {
        fill: #fff;
      }
    </style>
  </defs>
  <g id="Layer_1-2" data-name="Layer 1">
    <g>
      <path class="cls-1" d="M511.32,367.16c1.03-2.87,6.1-3.94,3.32-9.23-1.67,3.24-3.04,5.9-4.42,8.57.37.22.74.43,1.1.66Z"/>
      <path class="cls-1" d="M452.57,359.1h0c16.31-.76,33.03.63,48.32,11.04,1.71-5.44,3.45-10.29,4.72-15.24,1.26-4.92,1.18-9.43-3.38-13.28-8.68-7.32-18-13.28-29.23-15.62-8.03-1.67-16.15-2.94-24.47-4.43,2.1,4.21,4.98,7.41,5.08,10.7.29,8.72-.61,17.49-1.06,26.84Z"/>
      <path class="cls-1" d="M503.4,374.28c1.11-1.61,1.76-2.32,2.16-3.15,2.08-4.38,3.62-9.12,6.26-13.12,2.94-4.47-.64-6.1-2.48-8.74-.93,7.61-3.05,14.66-6.8,21.22-.32.56.34,1.69.85,3.79Z"/>
      <path class="cls-1" d="M432.84,342.07c-.64-4.32-1.89-8.84-5.5-12.59-4.09-4.24-5.68-4.58-10.39-1.41h0c5.44,4.78,10.8,9.51,15.89,14Z"/>
      <path class="cls-1" d="M431.51,329.58c4.11,8.02,6.33,16.52,5.66,25.63-.13,1.87-.09,3.5,2.64,3.3,2.82-.2,5.66-.04,9.53-.04.38-7,.59-14.49,1.26-21.94.49-5.28-2.2-9.22-5.08-12.85-1.18-1.49-4.26-2.06-6.46-2.02-4.22.08-8.42.89-12.45,1.39,2.03,2.67,3.8,4.43,4.88,6.53Z"/>
      <path class="cls-1" d="M108,729H27v135h135v-135h-54ZM133.11,780.62c.16.27.11.81-.16,1.03l.05.05c-.05.22-.38.76-.7.92.05.27.05.54.05.76,0,.43,0,.7.11.97h.05c.32.11.59.22.54.54l-.22,1.3c-.05.7-.11,1.03-.49,1.67.05.27.16.54.16.86,0,.16-.05.38-.22.49-.05.05-.11.05-.16.11,0,.16-.05.38-.11.54.05.22.32.38.43.7.05.05,0,.22,0,.32.16.22.27.49.16.7-.05.05-.11.22-.11.22.22.16.27.38.27.59.22,2.05.22,2.16,0,2.43-.05.05-.16.05-.22.05h-.05c-.11.76,0,1.57.11,2.38.16,1.13.38,2.43-.05,3.78.05.05.11.16.11.22.11.92.11,1.35.11,1.73,0,.65-.05,1.35-.16,1.89-.05.05-.05.16-.11.22l.11.81c.22,1.3.32,2.32.27,3.35.05.11,0,.22,0,.27-.05.16-.16.32-.32.38-.05.32-.16.59-.22.81l-.05.11c.16.11.27.22.27.43-.05,1.13.11,2.32.27,3.56.11.81.22,1.67.27,2.54.05.22-.11.43-.22.54s-.27.16-.43.22c0,.22.05.49.05.7.05.7.11,1.4.05,2.11.22.27.22.65.22.97-.05.22-.11.38-.27.49v.11c0,.16.11.54,0,.65h-.05c0,.27.05.54.05.81,0,.32.05.81.11.92.22.16.27.49.11.76-.11.16-.32.27-.54.27-.05,0-.16-.05-.22-.05.05.05.11.38.27.7-.11.54-.16.86-.22,1.19h.11c.32,0,.59.27.59.59l.11,1.73c0,.16-.05.38-.22.49h0c.11.54.16.92.32,1.24.16.11.27.22.27.38-.05.59-.11,1.19-.49,1.78-.11.16-.32.27-.54.27,0,0-1.19.27-1.24.27-.43,0-.59-.22-.7-.32-1.46.05-2.16.16-2.86.32-.59.11-1.19.22-1.94.27h-.05c-.22,0-.38-.11-.49-.22-.65,0-1.03.22-1.4.38-.11.05-.16.05-.27.05-.16,0-.38-.05-.49-.22-.27.11-.59.27-1.19.32h-.05c-.11,0-.22,0-.32-.05-.05,0-.11.05-.16.05h-.16c-.22,0-.43-.11-.54-.32-.16-.22-.11-.54.05-.76-.16.05-.27.11-.43.11-.11,0-.27-.05-.38-.11l-.22.11c.05.22-.05.49-.16.65-.11.16-.65.32-.81.32h-.22c-.16,0-.38-.11-.54-.22-.7.22-1.35.22-2,.22h-1.03c-.76,0-1.51,0-2.32.11h-.05c-.27,0-.49-.16-.59-.38v-.05c-.92.11-2.05.32-3.02.49-.59.05-1.4.22-1.46.22-.11,0-.27,0-.38-.11-.11-.11-.16-.22-.22-.38-1.3.11-2.65.27-4.05.49l-1.03-.38c-.22,0-.49.05-.76.11-.38.11-.81.16-1.24.16-.32,0-.59-.05-.86-.11-.27.16-.76.32-1.67.32-.27,0-.54-.16-.65-.38h-.05c-.43.11-.92.16-1.4.16-.54,0-.97-.11-1.3-.27-.16.05-.32.05-.54.05l-.86-.05c-.11.11-.49.16-.7.16h-.16c-.22-.05-.49-.11-.81-.11l-1.4.05c-.05.05-.27.05-.27.05h-.11c-.27.22-.76.27-1.24.27-.11.05-.22.05-.32.05-.22,0-.43-.05-.59-.16-.49.11-.76.11-1.03.11-.59,0-1.03-.11-1.35-.38.16.32-.7.49-1.35.49-.32,0-.59-.05-.81-.11h-.22l-.97-.16h-.16c-.27,0-.7,0-.76-.05l-.54-.86-.11.65c-.7-.11-1.4-.22-1.89-.27-.11.27-.27.43-.54.43h-.05c-.76-.11-1.57-.11-2.32-.11h-1.03c-.59,0-1.24,0-1.84-.05-.11.05-.27.05-.38.05h-.11l-.11-.11c-.11,0-.22-.05-.32-.05v.22c-.16,0-.7-.16-.81-.32-.11-.16-.16-.49-.16-.65,0,0-.11-.05-.16-.05-.22.16-.54.22-.76.27.16.16.22.38.05.59-.11.16-.27.22-.43.22-.11,0-.22,0-.32-.05-.05,0-.11,0-.16-.05-.11.05-.22.11-.32.11h-.05c-.7-.11-1.03-.22-1.3-.38-.11.11-.22.22-.38.22-.05,0-.16,0-.22-.05-.43-.22-.81-.38-1.3-.43-.05.05-.11.05-.16.11-.11.05-.22.11-.38.11h-.16c-.76-.05-1.35-.16-1.94-.27-.76-.16-1.57-.32-2.81-.32-.11.11-.32.32-.7.32-.05,0-.81-.16-.81-.16-.22,0-.81-.22-.92-.38-.38-.59-.43-1.19-.49-1.78,0-.27.11-.49.32-.59,0-.27.11-.97.11-1.08-.16-.11-.22-.27-.22-.49l.11-1.73c.05-.32.27-.59.59-.59h.11c-.05-.32-.11-.49-.16-.59.11-.97.22-1.4.16-1.51-.11.05-.22.05-.32.05-.16,0-.32-.05-.43-.22-.16-.27-.11-.49.11-.7.05-.11.11-.59.11-.92.05-.38.05-.76.16-1.13-.11-.16-.22-.38-.16-.49-.11-.11-.16-.22-.16-.38-.05-.16.11-.86.22-.97-.05-.7,0-1.4.05-2.11,0-.27.05-.49.05-.7-.16-.05-.38-.16-.49-.27-.11-1.3,0-2.16.11-3.02.16-1.24.32-2.43.27-3.56,0-.27.11-.49.32-.59-.11-.22-.22-.49-.27-.7-.16-.05-.27-.22-.32-.38v-.27c-.05-1.03.11-2,.27-3.29l.11-.86c-.05-.05-.11-.11-.11-.16-.11-.54-.16-1.24-.16-1.89,0-.43,0-.81-.05-1.13.05-.11.22-.38.38-.65-.49-1.4-.27-2.75-.11-3.94.11-.81.22-1.62.11-2.38-.43-.32-.43-.65-.27-2.16-.05-.22.11-.54.27-.7,0,0,0-.05.05-.05,0-.05-.05-.11-.05-.16-.11-.22-.11-.54.05-.76-.05-.16-.05-.27,0-.43.05-.16.27-.38.43-.49-.16-.16-.27-.32-.22-.49.05-.11.11-.22.11-.32q-.05-.05-.11-.11c-.16-.11-.22-.32-.22-.49,0-.32.05-.59.16-.86-.38-.65-.38-.97-.43-1.35v-.22h-.05l-.22-1.35c-.05-.32.11-.59.49-.76h.16c.05-.16.05-.43.05-.76v-.59c-.11-.11-.16-.16-.22-.27l.22-.7c-.11.05-.22.11-.32.11-.16,0-.27-.05-.38-.11-.27-.16-.32-.54-.22-.76-.05-.65-.11-1.13.11-1.73v-.11l.27-.27h-.11v-.76c-.05-2-.05-4.64.7-6.7-.05-.05-.05-.16-.11-.27-.22-.76-.22-1.4-.11-2-.11-.05-.16-.11-.22-.16-.11-.11-.05-.49,0-.76-.22-.11-.43-.22-.38-.49l.27-1.08c-.16,0-.32-.05-.27-.27.11-1.08.22-1.84.49-2.38-.11-.05-.22-.05-.27-.11-.16-.05-.22-.22-.27-.38-.05-.16,0-.32.11-.49.32-.43.7-.92.7-1.08-.16-.05-.27-.05-.32-.27-.11-.22,0-.32.16-.49-.11-.05-.16-.49.27-.97-.05-.05-.11-.05-.11-.11-.16-.22-.38-.54-.16-.76.38-.38.97-.7,1.57-.76.27-.38.86-.65,1.62-.65h.22c.16-.05.65-.22.76-.22.27,0,.49.11.7.16.11-.05.27-.16.43-.16l.92.38c.16-.38.43-.43.59-.43h.05c.22,0,.43.11.59.32.05-.16.22-.22.38-.22.11,0,.43.11.49.11.92.16,1.3.22,1.62.38.27-.16.65-.16.97-.16,0-.27.27-.38.54-.49.05-.05.11-.05.16-.05.22,0,.49.16.65.27,0,.05.27.16.65.16-.27-.22.49-.27,1.13-.27h.22c.05,0,.16.05.22.05-.11-.27.11-.38.38-.54.05-.05.11-.05.16-.05.22,0,.49.16.65.32.05-.05.16-.05.32-.05.22,0,.49.05.65.05.59.22,1.62.27,2.48.27l.97-.27h.16c.11,0,.22.05.32.11.16.11.27.27.27.43.11-.05.27-.11.38-.16,0-.05.05-.11.05-.16.11-.22.32-.32.54-.32h.16c.32.05.49.32.49.65.16-.05.32-.05.43-.05.22,0,.32.05.49.11.11-.16.43-.38.65-.38h.05c.22.05.49.11.54.38.11-.05.22-.05.32-.05h.22c.16-.11.32-.16.54-.22v-.05c.05-.32.11-.59.43-.59.16,0,.97.22,1.3.38,0,0,.05,0,.05.05.11-.05.27-.11.32-.16h.05c.86,0,1.24.16,1.57.27.16.05.27.11.43.16.11-.11.22-.16.38-.16.11,0,.16,0,.27.05.16.11.38.11.7.16-.05-.11.27-.22.76-.22.27,0,.54.11.65.32.05,0,.05.05.05.05l.43-.32c.54-.27.81-.32,1.08-.32.59,0,.92.27,1.19.49.22.22.38.38.81.38.59-.92,1.84-.92,2.32-.92,0,0,1.46.05,1.57.05.32,0,.81.05.92.16s.27.38.32.65c.05,0,.32-.05.32-.05.05-.05.16-.05.27-.05.05,0,.16.05.22.05.59-.16,1.3-.22,1.89-.22.54,0,1.08,0,1.35-.16.05-.05.16-.05.27-.05.16,0,.32.05.43.16.11-.05.22-.11.38-.16.38-.11.76-.32,1.19-.38h.05c.16,0,.43.22.54.32.05.05.11.05.11.11.05-.05.11-.16.16-.22.11-.16.92-.38,1.08-.38.32,0,.59.22.65.54v.16c.11.05.27.11.38.16.22-.05.43-.11.49-.11.05-.22.22-.38.49-.43h.11c.22,0,.43.16.54.32,0,0,.11.11.27.22.16-.05.32-.11.49-.16-.05-.32.32-.54.59-.59h.16c.27,0,.65.22.76.43.05.11.05.27,0,.49.22-.05.38-.16.43-.22,0-.16.11-.27.27-.38.05-.05.16-.05.27-.05.05,0,.16.05.22.05.7.27.92.32,1.24.38h.11c.43-.05.86-.11,1.3-.11.7-.05,1.46-.05,1.73-.32.11-.11.27-.16.43-.16.11,0,.22.05.32.11.22.11.32.32.32.54.05-.16.27-.16.43-.16h.11c.49,0,.92,0,1.19.27.27-.11.54-.22.59-.27.11-.05.22-.11.38-.11.11,0,.22,0,.32.05.22.11.32.32.32.59.38-.16.7-.22.97-.22h.27c.32-.16.7-.16,1.08-.22.05-.05.11-.05.22-.05h.22c.05,0,.27-.11.27-.11h.16c.16,0,.38.11.49.27.11-.16.22-.27.32-.32.05-.05.11-.05.22-.05.16,0,.38,0,.49.05.11.05.27.11.38.22l.38-.22h.11c.22,0,.49.11.65.16,0,0,.05.05.11.05.22-.16.49-.22.76-.22.11,0,.59.16.76.22h.22c.7,0,1.3.27,1.62.65.54.05,1.13.32,1.51.76.16.22.22.54.05.76-.05.11-.16.16-.22.22.27.43.22.81.22,1.03.11.16.11.27.05.49-.11.22-.27.27-.49.32.16,0,.49.38.59.54.11.11.22.43.22.59s0,.43-.16.54c-.05.05-.16.05-.27.11.22.49.32,1.13.43,2,.05.22-.05.59-.22.76l.27.97c.05.32-.11.65-.38.76,0,.22.05.38,0,.43-.05.05-.11.11-.22.16.11.59.05,1.24,0,1.84,0,.05-.05.16-.11.22.76,1.94.7,4.54.7,6.53.22.22.43.54.43.76.05.22-.05.43-.22.59l-.05.05c.22.54.16.97.11,1.3Z"/>
      <path class="cls-1" d="M523.26,456.97c-.28,3.96-.76,7.89-1.33,11.82-1.15,7.95-2.52,15.88-3.55,23.85-.18,1.35.77,3.98,1.46,4.08,1.49.2,3.84-.38,4.62-1.5,2.89-4.07,5.69-8.31,7.76-12.83,3.41-7.42,6.23-15.1,5.07-23.61h0c-5.92,1.18-10.41,3.92-12.43,9.99-.64-7.99,3.6-12.43,10.28-15.15-2.49-3.98-6.05-2.68-9.12-2.23-3.09.46-2.61,3.23-2.78,5.58Z"/>
      <path class="cls-1" d="M515.42,383.23c-2.06-1.59-4.2-3.05-6.31-4.57-.33.31-.67.61-1,.92,7.42,8.63,8.62,19.26,10.19,29.8,1.6,10.75,3.41,21.46,5.04,31.61.26-1.62.68-3.98,1.02-6.36,1.54-10.67,3.55-21.16,2.59-32.21-.78-8.92-5.23-14.3-11.55-19.18Z"/>
      <path class="cls-1" d="M509.89,376.86c3.81,2.37,7.02,4.34,10.34,6.41-.64-7.69-.24-6.86-10.34-6.41Z"/>
      <path class="cls-1" d="M372.91,377.77c.49.18,2.48-2.47,2.98-2.29,4.93-3.39,7.17-4.88,12.08-8.31,2.22-1.56,5.39-2.66,7.79-3.86,12.25-6.18,25.37-5.59,38.52-4.66-.55-11.74-9.5-24.58-20.21-26.85-9.62-2.04-19.55-2.27-28.11,4.4,8.25-.26,16.13.29,23.62,4.37,6.84,3.73,16.4,12.52,16.16,16.19-.66-.5-1.19-.88-1.68-1.29-4.42-3.77-8.67-7.78-13.3-11.27-5.48-4.14-12.29-4.65-18.72-4.88-4.16-.15-8.8,1.35-12.53,3.39-5.8,3.16-7.33,9.33-7.46,15.45-.13,6.54.54,13.1.87,19.65v-.03Z"/>
      <path class="cls-1" d="M515.28,366.86c-3.39,2.4-6.89,4.88-10.39,7.37.21.42.43.83.64,1.25,3.96-1.13,7.9-2.27,12-3.44-.76-1.75-1.4-3.21-2.24-5.17h0Z"/>
      <path class="cls-1" d="M81,162h81V27H27v135h54ZM56.05,77.44v-.11l.27-.27h-.11v-.76c-.05-2-.05-4.64.7-6.7-.05-.05-.05-.16-.11-.27-.22-.76-.22-1.4-.11-2-.11-.05-.16-.11-.22-.16-.11-.11-.05-.49,0-.76-.22-.11-.43-.22-.38-.49l.27-1.08c-.16,0-.32-.05-.27-.27.11-1.08.22-1.84.49-2.38-.11-.05-.22-.05-.27-.11-.16-.05-.22-.22-.27-.38-.05-.16,0-.32.11-.49.32-.43.7-.92.7-1.08-.16-.05-.27-.05-.32-.27-.11-.22,0-.32.16-.49-.11-.05-.16-.49.27-.97-.05-.05-.11-.05-.11-.11-.16-.22-.38-.54-.16-.76.38-.38.97-.7,1.57-.76.27-.38.86-.65,1.62-.65h.22c.16-.05.65-.22.76-.22.27,0,.49.11.7.16.11-.05.27-.16.43-.16l.92.38c.16-.38.43-.43.59-.43h.05c.22,0,.43.11.59.32.05-.16.22-.22.38-.22.11,0,.43.11.49.11.92.16,1.3.22,1.62.38.27-.16.65-.16.97-.16,0-.27.27-.38.54-.49.05-.05.11-.05.16-.05.22,0,.49.16.65.27,0,.05.27.16.65.16-.27-.22.49-.27,1.13-.27h.22c.05,0,.16.05.22.05-.11-.27.11-.38.38-.54.05-.05.11-.05.16-.05.22,0,.49.16.65.32.05-.05.16-.05.32-.05.22,0,.49.05.65.05.59.22,1.62.27,2.48.27l.97-.27h.16c.11,0,.22.05.32.11.16.11.27.27.27.43.11-.05.27-.11.38-.16,0-.05.05-.11.05-.16.11-.22.32-.32.54-.32h.16c.32.05.49.32.49.65.16-.05.32-.05.43-.05.22,0,.32.05.49.11.11-.16.43-.38.65-.38h.05c.22.05.49.11.54.38.11-.05.22-.05.32-.05h.22c.16-.11.32-.16.54-.22v-.05c.05-.32.11-.59.43-.59.16,0,.97.22,1.3.38,0,0,.05,0,.05.05.11-.05.27-.11.32-.16h.05c.86,0,1.24.16,1.57.27.16.05.27.11.43.16.11-.11.22-.16.38-.16.11,0,.16,0,.27.05.16.11.38.11.7.16-.05-.11.27-.22.76-.22.27,0,.54.11.65.32.05,0,.05.05.05.05l.43-.32c.54-.27.81-.32,1.08-.32.59,0,.92.27,1.19.49.22.22.38.38.81.38.59-.92,1.84-.92,2.32-.92,0,0,1.46.05,1.57.05.32,0,.81.05.92.16.11.11.27.38.32.65.05,0,.32-.05.32-.05.05-.05.16-.05.27-.05.05,0,.16.05.22.05.59-.16,1.3-.22,1.89-.22.54,0,1.08,0,1.35-.16.05-.05.16-.05.27-.05.16,0,.32.05.43.16.11-.05.22-.11.38-.16.38-.11.76-.32,1.19-.38h.05c.16,0,.43.22.54.32.05.05.11.05.11.11.05-.05.11-.16.16-.22.11-.16.92-.38,1.08-.38.32,0,.59.22.65.54v.16c.11.05.27.11.38.16.22-.05.43-.11.49-.11.05-.22.22-.38.49-.43h.11c.22,0,.43.16.54.32,0,0,.11.11.27.22.16-.05.32-.11.49-.16-.05-.32.32-.54.59-.59h.16c.27,0,.65.22.76.43.05.11.05.27,0,.49.22-.05.38-.16.43-.22,0-.16.11-.27.27-.38.05-.05.16-.05.27-.05.05,0,.16.05.22.05.7.27.92.32,1.24.38h.11c.43-.05.86-.11,1.3-.11.7-.05,1.46-.05,1.73-.32.11-.11.27-.16.43-.16.11,0,.22.05.32.11.22.11.32.32.32.54.05-.16.27-.16.43-.16h.11c.49,0,.92,0,1.19.27.27-.11.54-.22.59-.27.11-.05.22-.11.38-.11.11,0,.22,0,.32.05.22.11.32.32.32.59.38-.16.7-.22.97-.22h.27c.32-.16.7-.16,1.08-.22.05-.05.11-.05.22-.05h.22c.05,0,.27-.11.27-.11h.16c.16,0,.38.11.49.27.11-.16.22-.27.32-.32.05-.05.11-.05.22-.05.16,0,.38,0,.49.05.11.05.27.11.38.22l.38-.22h.11c.22,0,.49.11.65.16,0,0,.05.05.11.05.22-.16.49-.22.76-.22.11,0,.59.16.76.22h.22c.7,0,1.3.27,1.62.65.54.05,1.13.32,1.51.76.16.22.22.54.05.76-.05.11-.16.16-.22.22.27.43.22.81.22,1.03.11.16.11.27.05.49-.11.22-.27.27-.49.32.16,0,.49.38.59.54.11.11.22.43.22.59s0,.43-.16.54c-.05.05-.16.05-.27.11.22.49.32,1.13.43,2,.05.22-.05.59-.22.76l.27.97c.05.32-.11.65-.38.76,0,.22.05.38,0,.43s-.11.11-.22.16c.11.59.05,1.24,0,1.84,0,.05-.05.16-.11.22.76,1.94.7,4.54.7,6.53.22.22.43.54.43.76.05.22-.05.43-.22.59l-.05.05c.22.54.16.97.11,1.3.16.27.11.81-.16,1.03l.05.05c-.05.22-.38.76-.7.92.05.27.05.54.05.76,0,.43,0,.7.11.97h.05c.32.11.59.22.54.54l-.22,1.3c-.05.7-.11,1.03-.49,1.67.05.27.16.54.16.86,0,.16-.05.38-.22.49-.05.05-.11.05-.16.11,0,.16-.05.38-.11.54.05.22.32.38.43.7.05.05,0,.22,0,.32.16.22.27.49.16.7-.05.05-.11.22-.11.22.22.16.27.38.27.59.22,2.05.22,2.16,0,2.43-.05.05-.16.05-.22.05h-.05c-.11.76,0,1.57.11,2.38.16,1.13.38,2.43-.05,3.78.05.05.11.16.11.22.11.92.11,1.35.11,1.73,0,.65-.05,1.35-.16,1.89-.05.05-.05.16-.11.22l.11.81c.22,1.3.32,2.32.27,3.35.05.11,0,.22,0,.27-.05.16-.16.32-.32.38-.05.32-.16.59-.22.81l-.05.11c.16.11.27.22.27.43-.05,1.13.11,2.32.27,3.56.11.81.22,1.67.27,2.54.05.22-.11.43-.22.54-.11.11-.27.16-.43.22,0,.22.05.49.05.7.05.7.11,1.4.05,2.11.22.27.22.65.22.97-.05.22-.11.38-.27.49v.11c0,.16.11.54,0,.65h-.05c0,.27.05.54.05.81,0,.32.05.81.11.92.22.16.27.49.11.76-.11.16-.32.27-.54.27-.05,0-.16-.05-.22-.05.05.05.11.38.27.7-.11.54-.16.86-.22,1.19h.11c.32,0,.59.27.59.59l.11,1.73c0,.16-.05.38-.22.49h0c.11.54.16.92.32,1.24.16.11.27.22.27.38-.05.59-.11,1.19-.49,1.78-.11.16-.32.27-.54.27,0,0-1.19.27-1.24.27-.43,0-.59-.22-.7-.32-1.46.05-2.16.16-2.86.32-.59.11-1.19.22-1.94.27h-.05c-.22,0-.38-.11-.49-.22-.65,0-1.03.22-1.4.38-.11.05-.16.05-.27.05-.16,0-.38-.05-.49-.22-.27.11-.59.27-1.19.32h-.05c-.11,0-.22,0-.32-.05-.05,0-.11.05-.16.05h-.16c-.22,0-.43-.11-.54-.32-.16-.22-.11-.54.05-.76-.16.05-.27.11-.43.11-.11,0-.27-.05-.38-.11l-.22.11c.05.22-.05.49-.16.65-.11.16-.65.32-.81.32h-.22c-.16,0-.38-.11-.54-.22-.7.22-1.35.22-2,.22h-1.03c-.76,0-1.51,0-2.32.11h-.05c-.27,0-.49-.16-.59-.38v-.05c-.92.11-2.05.32-3.02.49-.59.05-1.4.22-1.46.22-.11,0-.27,0-.38-.11s-.16-.22-.22-.38c-1.3.11-2.65.27-4.05.49l-1.03-.38c-.22,0-.49.05-.76.11-.38.11-.81.16-1.24.16-.32,0-.59-.05-.86-.11-.27.16-.76.32-1.67.32-.27,0-.54-.16-.65-.38h-.05c-.43.11-.92.16-1.4.16-.54,0-.97-.11-1.3-.27-.16.05-.32.05-.54.05l-.86-.05c-.11.11-.49.16-.7.16h-.16c-.22-.05-.49-.11-.81-.11l-1.4.05c-.05.05-.27.05-.27.05h-.11c-.27.22-.76.27-1.24.27-.11.05-.22.05-.32.05-.22,0-.43-.05-.59-.16-.49.11-.76.11-1.03.11-.59,0-1.03-.11-1.35-.38.16.32-.7.49-1.35.49-.32,0-.59-.05-.81-.11h-.22l-.97-.16h-.16c-.27,0-.7,0-.76-.05l-.54-.86-.11.65c-.7-.11-1.4-.22-1.89-.27-.11.27-.27.43-.54.43h-.05c-.76-.11-1.57-.11-2.32-.11h-1.03c-.59,0-1.24,0-1.84-.05-.11.05-.27.05-.38.05h-.11l-.11-.11c-.11,0-.22-.05-.32-.05v.22c-.16,0-.7-.16-.81-.32-.11-.16-.16-.49-.16-.65,0,0-.11-.05-.16-.05-.22.16-.54.22-.76.27.16.16.22.38.05.59-.11.16-.27.22-.43.22-.11,0-.22,0-.32-.05-.05,0-.11,0-.16-.05-.11.05-.22.11-.32.11h-.05c-.7-.11-1.03-.22-1.3-.38-.11.11-.22.22-.38.22-.05,0-.16,0-.22-.05-.43-.22-.81-.38-1.3-.43-.05.05-.11.05-.16.11-.11.05-.22.11-.38.11h-.16c-.76-.05-1.35-.16-1.94-.27-.76-.16-1.57-.32-2.81-.32-.11.11-.32.32-.7.32-.05,0-.81-.16-.81-.16-.22,0-.81-.22-.92-.38-.38-.59-.43-1.19-.49-1.78,0-.27.11-.49.32-.59,0-.27.11-.97.11-1.08-.16-.11-.22-.27-.22-.49l.11-1.73c.05-.32.27-.59.59-.59h.11c-.05-.32-.11-.49-.16-.59.11-.97.22-1.4.16-1.51-.11.05-.22.05-.32.05-.16,0-.32-.05-.43-.22-.16-.27-.11-.49.11-.7.05-.11.11-.59.11-.92.05-.38.05-.76.16-1.13-.11-.16-.22-.38-.16-.49-.11-.11-.16-.22-.16-.38-.05-.16.11-.86.22-.97-.05-.7,0-1.4.05-2.11,0-.27.05-.49.05-.7-.16-.05-.38-.16-.49-.27-.11-1.3,0-2.16.11-3.02.16-1.24.32-2.43.27-3.56,0-.27.11-.49.32-.59-.11-.22-.22-.49-.27-.7-.16-.05-.27-.22-.32-.38v-.27c-.05-1.03.11-2,.27-3.29l.11-.86c-.05-.05-.11-.11-.11-.16-.11-.54-.16-1.24-.16-1.89,0-.43,0-.81-.05-1.13.05-.11.22-.38.38-.65-.49-1.4-.27-2.75-.11-3.94.11-.81.22-1.62.11-2.38-.43-.32-.43-.65-.27-2.16-.05-.22.11-.54.27-.7,0,0,0-.05.05-.05,0-.05-.05-.11-.05-.16-.11-.22-.11-.54.05-.76-.05-.16-.05-.27,0-.43.05-.16.27-.38.43-.49-.16-.16-.27-.32-.22-.49.05-.11.11-.22.11-.32l-.11-.11c-.16-.11-.22-.32-.22-.49,0-.32.05-.59.16-.86-.38-.65-.38-.97-.43-1.35v-.22h-.05l-.22-1.35c-.05-.32.11-.59.49-.76h.16c.05-.16.05-.43.05-.76v-.59c-.11-.11-.16-.16-.22-.27l.22-.7c-.11.05-.22.11-.32.11-.16,0-.27-.05-.38-.11-.27-.16-.32-.54-.22-.76-.05-.65-.11-1.13.11-1.73Z"/>
      <path class="cls-1" d="M363.16,445.71c-2.35-1.31-6.08,1.39-6.99,2.07h0c.46.15,4.84,1.62,6.12,5.92.63,2.09.24,3.91-.02,4.82-2.42-1.86-4.97-3.81-7.69-5.9-.58,4.44-1.01,12.34,1.83,21.54,2.47,7.96,6.38,13.63,9.07,16.94,0-.91,0-2.76.03-5.08.03-1.87.34-19.25-.36-34.71-.08-1.86-.24-4.62-2-5.59Z"/>
      <path class="cls-1" d="M519.87,436.87c-2.02-12.79-4.02-25.61-6.69-38.28-2.73-12.96-8.92-23.66-21.49-29.93-9.56-4.77-19.85-5.9-30.1-6.94-7.72-.79-15.59-.16-23.39-.16h-.03c-6.69,0-13.38.06-20.06-.03-17.51-.2-29.95,7.87-37.75,23.27-5.8,11.46-7.58,24.1-10,36.5-1.18,6.04-1.03,12.18-1.55,18.34-.59,6.86-.58,13.71.17,20.44.93,8.43,1.56,16.96,3.93,25.16,2.05,7.1,12.3,10.39,18.37,6.12,5.09-3.59,9.57-8.15,14.89-11.29,12.59-7.45,26.69-5.79,40.35-4.99,13.97.81,26.14,6.03,35.79,16.95,3.35,3.79,8.96,4.83,13.97,1.66,2.64-1.68,4.83-4.09,7.49-5.72,7.43-4.57,12-11.74,13.96-19.5,2.63-10.47,3.82-20.95,2.14-31.61ZM388.66,394.64c7.44-9.55,24.2-8.65,33.01-3.63,2.43,1.38,2.66,3.46,1.47,6.05-1.31,2.86-3.14,3.24-6,2.65-4.65-.96-9.39-1.55-14.11-2.18-8.3-1.12-14.03,2.83-18.33,9.51h0c-.43.68-.84,1.42-1.43,1.92-.35.29-1.04.18-2.3.35.89-6.23,4.4-10.44,7.7-14.68ZM382.36,441.8c-.41-1.82-1.25-3.28-.82-3.96,7.05-11.23,26.33-19.48,37.95-8.6,3.44,3.21,6.41,11.62,4.35,15.89-1.06-3.23-1.81-5.5-2.55-7.79h0c-2.59-8.03-9.52-11.3-18.03-10.05-9.2,1.35-15.49,6.13-20.89,14.51ZM404.52,429.01c6.56-1.19,11.69,3.13,12.26,7.33.36,2.6,1.71,5.86-1.84,8.15,1.19-8.2-2.4-13.1-10.42-15.47ZM392.26,444.37h0s0-.02,0-.02c-2.25-8.84,1.2-14.38,7.94-13.85-2.03,2.42-4.27,4.41-5.62,6.89-1.14,2.08-1.24,4.73-2.32,6.96,0,0,0,.01,0,.02ZM401.25,445.23c-4.05.46-5.69-1.09-5.08-5.11.13-.81.02-1.66.02-1.98.28.13,2.25.99,4.13,0,.36-.18,1.48-.78,1.88-2.08.58-1.9-.94-3.51-1-3.58,6.27-.99,10.86,2.15,11.66,7.98h0c.4,2.99-.8,4.81-4.12,4.73-2.5-.06-5.03-.24-7.49.04ZM409.04,464.25c-.5.18-1.23-.25-1.86-.4.16-.62.15-1.63.51-1.79,5.18-2.32,10.41-4.52,15.63-6.75.33.43.64.86.97,1.29-1.81,1.3-3.47,2.91-5.45,3.86-3.15,1.51-6.5,2.63-9.8,3.8ZM448.1,472.23c-6.82,1.21-12.14,1.44-19.04-.56-4.26-1.24-5.81-3.21-5.18-6.74,1.38-7.74,5.09-14.65,14.57-13.9,9.24-.59,13.57,5.23,14.59,13.26h0c.46,3.56-1.19,7.28-4.93,7.94ZM471.34,465.86c-5.58-2.53-11.16-5.08-16.74-7.62l1.06-1.86c5.51,2.54,11.02,5.08,16.53,7.62-.28.63-.57,1.25-.85,1.86ZM466.95,445.3c-.28.38-.58.76-.86,1.14-.72-.83-1.97-1.6-2.08-2.5-.91-7.35,5.19-13.43,12.76-12.69h0c-5.49,3.28-10.89,6.51-9.81,14.06ZM485.04,448c-4.52-.38-9.16-.66-13.76-1.2-2.49-.29-2.52-.63-2.21-6.4,1.88-.16,4.19.29,5.37-.66.92-.74.44-3.22.6-5.08,7.75-1.25,12.28,4.08,10,13.34ZM488.23,447.68c1.41-6.91.48-9.11-4.76-14.55,4.28.59,7.77,4.81,8.04,9.83.11,2.12.15,4.32-3.28,4.72ZM498.86,441.52c-12.13-13.08-22.76-12.82-28.01-12.07-2.37.33-4.11,1.31-4.11,1.31-2.84,1.55-4.9,4.26-6.1,7.69-.59,1.66-1.02,3.39-1.72,5-.29.66-1.11,1.1-1.7,1.63-.26-.7-.8-1.43-.74-2.1.68-6.59,6.94-14.92,13.04-15.94,10.46-1.75,19.09,2.53,22.34,4.82h-.02c4.15,2.93,6.89,6.2,8.5,8.55-.49.37-1.05,1.56-1.46,1.1ZM504.07,412.92c-.94-.63-2.2-1.05-2.77-1.92-8.13-12.52-19.74-13.6-32.83-10.31-2.21.55-5.13,1.82-6.59-.89-.89-1.65-.67-4.06-.42-6.06.1-.8,1.53-1.69,2.53-2.09,8.76-3.5,17.75-3.98,26.18.31,8,4.07,12.31,11.46,15,19.74-.38.41-.74.82-1.11,1.23Z"/>
      <path class="cls-1" d="M443.83,455.09c-3.66-1.61-7.09-1.87-10.8-.21-.5.23-.94.54-1.34.92-.28.18-.55.37-.82.57-3.09,2.39-3.92,5.58-3.35,9.35.46,3.08,3.75,4.63,6.45,4.91h.02c-.06.03.64.17.8.09.94.13,1.9.27,2.85.38,1.61.18,3.09.14,4.69-.08h0c4.72-.64,8.6-4.71,7.26-9.72-.75-2.82-3.16-5.06-5.76-6.21Z"/>
      <path class="cls-1" d="M810,27h-81v135h135V27h-54ZM835.11,78.62c.16.27.11.81-.16,1.03l.05.05c-.05.22-.38.76-.7.92.05.27.05.54.05.76,0,.43,0,.7.11.97h.05c.32.11.59.22.54.54l-.22,1.3c-.05.7-.11,1.03-.49,1.67.05.27.16.54.16.86,0,.16-.05.38-.22.49-.05.05-.11.05-.16.11,0,.16-.05.38-.11.54.05.22.32.38.43.7.05.05,0,.22,0,.32.16.22.27.49.16.7-.05.05-.11.22-.11.22.22.16.27.38.27.59.22,2.05.22,2.16,0,2.43-.05.05-.16.05-.22.05h-.05c-.11.76,0,1.57.11,2.38.16,1.13.38,2.43-.05,3.78.05.05.11.16.11.22.11.92.11,1.35.11,1.73,0,.65-.05,1.35-.16,1.89-.05.05-.05.16-.11.22l.11.81c.22,1.3.32,2.32.27,3.35.05.11,0,.22,0,.27-.05.16-.16.32-.32.38-.05.32-.16.59-.22.81l-.05.11c.16.11.27.22.27.43-.05,1.13.11,2.32.27,3.56.11.81.22,1.67.27,2.54.05.22-.11.43-.22.54-.11.11-.27.16-.43.22,0,.22.05.49.05.7.05.7.11,1.4.05,2.11.22.27.22.65.22.97-.05.22-.11.38-.27.49v.11c0,.16.11.54,0,.65h-.05c0,.27.05.54.05.81,0,.32.05.81.11.92.22.16.27.49.11.76-.11.16-.32.27-.54.27-.05,0-.16-.05-.22-.05.05.05.11.38.27.7-.11.54-.16.86-.22,1.19h.11c.32,0,.59.27.59.59l.11,1.73c0,.16-.05.38-.22.49h0c.11.54.16.92.32,1.24.16.11.27.22.27.38-.05.59-.11,1.19-.49,1.78-.11.16-.32.27-.54.27,0,0-1.19.27-1.24.27-.43,0-.59-.22-.7-.32-1.46.05-2.16.16-2.86.32-.59.11-1.19.22-1.94.27h-.05c-.22,0-.38-.11-.49-.22-.65,0-1.03.22-1.4.38-.11.05-.16.05-.27.05-.16,0-.38-.05-.49-.22-.27.11-.59.27-1.19.32h-.05c-.11,0-.22,0-.32-.05-.05,0-.11.05-.16.05h-.16c-.22,0-.43-.11-.54-.32-.16-.22-.11-.54.05-.76-.16.05-.27.11-.43.11-.11,0-.27-.05-.38-.11l-.22.11c.05.22-.05.49-.16.65-.11.16-.65.32-.81.32h-.22c-.16,0-.38-.11-.54-.22-.7.22-1.35.22-2,.22h-1.03c-.76,0-1.51,0-2.32.11h-.05c-.27,0-.49-.16-.59-.38v-.05c-.92.11-2.05.32-3.02.49-.59.05-1.4.22-1.46.22-.11,0-.27,0-.38-.11s-.16-.22-.22-.38c-1.3.11-2.65.27-4.05.49l-1.03-.38c-.22,0-.49.05-.76.11-.38.11-.81.16-1.24.16-.32,0-.59-.05-.86-.11-.27.16-.76.32-1.67.32-.27,0-.54-.16-.65-.38h-.05c-.43.11-.92.16-1.4.16-.54,0-.97-.11-1.3-.27-.16.05-.32.05-.54.05l-.86-.05c-.11.11-.49.16-.7.16h-.16c-.22-.05-.49-.11-.81-.11l-1.4.05c-.05.05-.27.05-.27.05h-.11c-.27.22-.76.27-1.24.27-.11.05-.22.05-.32.05-.22,0-.43-.05-.59-.16-.49.11-.76.11-1.03.11-.59,0-1.03-.11-1.35-.38.16.32-.7.49-1.35.49-.32,0-.59-.05-.81-.11h-.22l-.97-.16h-.16c-.27,0-.7,0-.76-.05l-.54-.86-.11.65c-.7-.11-1.4-.22-1.89-.27-.11.27-.27.43-.54.43h-.05c-.76-.11-1.57-.11-2.32-.11h-1.03c-.59,0-1.24,0-1.84-.05-.11.05-.27.05-.38.05h-.11l-.11-.11c-.11,0-.22-.05-.32-.05v.22c-.16,0-.7-.16-.81-.32-.11-.16-.16-.49-.16-.65,0,0-.11-.05-.16-.05-.22.16-.54.22-.76.27.16.16.22.38.05.59-.11.16-.27.22-.43.22-.11,0-.22,0-.32-.05-.05,0-.11,0-.16-.05-.11.05-.22.11-.32.11h-.05c-.7-.11-1.03-.22-1.3-.38-.11.11-.22.22-.38.22-.05,0-.16,0-.22-.05-.43-.22-.81-.38-1.3-.43-.05.05-.11.05-.16.11-.11.05-.22.11-.38.11h-.16c-.76-.05-1.35-.16-1.94-.27-.76-.16-1.57-.32-2.81-.32-.11.11-.32.32-.7.32-.05,0-.81-.16-.81-.16-.22,0-.81-.22-.92-.38-.38-.59-.43-1.19-.49-1.78,0-.27.11-.49.32-.59,0-.27.11-.97.11-1.08-.16-.11-.22-.27-.22-.49l.11-1.73c.05-.32.27-.59.59-.59h.11c-.05-.32-.11-.49-.16-.59.11-.97.22-1.4.16-1.51-.11.05-.22.05-.32.05-.16,0-.32-.05-.43-.22-.16-.27-.11-.49.11-.7.05-.11.11-.59.11-.92.05-.38.05-.76.16-1.13-.11-.16-.22-.38-.16-.49-.11-.11-.16-.22-.16-.38-.05-.16.11-.86.22-.97-.05-.7,0-1.4.05-2.11,0-.27.05-.49.05-.7-.16-.05-.38-.16-.49-.27-.11-1.3,0-2.16.11-3.02.16-1.24.32-2.43.27-3.56,0-.27.11-.49.32-.59-.11-.22-.22-.49-.27-.7-.16-.05-.27-.22-.32-.38v-.27c-.05-1.03.11-2,.27-3.29l.11-.86c-.05-.05-.11-.11-.11-.16-.11-.54-.16-1.24-.16-1.89,0-.43,0-.81-.05-1.13.05-.11.22-.38.38-.65-.49-1.4-.27-2.75-.11-3.94.11-.81.22-1.62.11-2.38-.43-.32-.43-.65-.27-2.16-.05-.22.11-.54.27-.7,0,0,0-.05.05-.05,0-.05-.05-.11-.05-.16-.11-.22-.11-.54.05-.76-.05-.16-.05-.27,0-.43s.27-.38.43-.49c-.16-.16-.27-.32-.22-.49.05-.11.11-.22.11-.32q-.05-.05-.11-.11c-.16-.11-.22-.32-.22-.49,0-.32.05-.59.16-.86-.38-.65-.38-.97-.43-1.35v-.22h-.05l-.22-1.35c-.05-.32.11-.59.49-.76h.16c.05-.16.05-.43.05-.76v-.59c-.11-.11-.16-.16-.22-.27l.22-.7c-.11.05-.22.11-.32.11-.16,0-.27-.05-.38-.11-.27-.16-.32-.54-.22-.76-.05-.65-.11-1.13.11-1.73v-.11l.27-.27h-.11v-.76c-.05-2-.05-4.64.7-6.7-.05-.05-.05-.16-.11-.27-.22-.76-.22-1.4-.11-2-.11-.05-.16-.11-.22-.16-.11-.11-.05-.49,0-.76-.22-.11-.43-.22-.38-.49l.27-1.08c-.16,0-.32-.05-.27-.27.11-1.08.22-1.84.49-2.38-.11-.05-.22-.05-.27-.11-.16-.05-.22-.22-.27-.38-.05-.16,0-.32.11-.49.32-.43.7-.92.7-1.08-.16-.05-.27-.05-.32-.27-.11-.22,0-.32.16-.49-.11-.05-.16-.49.27-.97-.05-.05-.11-.05-.11-.11-.16-.22-.38-.54-.16-.76.38-.38.97-.7,1.57-.76.27-.38.86-.65,1.62-.65h.22c.16-.05.65-.22.76-.22.27,0,.49.11.7.16.11-.05.27-.16.43-.16l.92.38c.16-.38.43-.43.59-.43h.05c.22,0,.43.11.59.32.05-.16.22-.22.38-.22.11,0,.43.11.49.11.92.16,1.3.22,1.62.38.27-.16.65-.16.97-.16,0-.27.27-.38.54-.49.05-.05.11-.05.16-.05.22,0,.49.16.65.27,0,.05.27.16.65.16-.27-.22.49-.27,1.13-.27h.22c.05,0,.16.05.22.05-.11-.27.11-.38.38-.54.05-.05.11-.05.16-.05.22,0,.49.16.65.32.05-.05.16-.05.32-.05.22,0,.49.05.65.05.59.22,1.62.27,2.48.27l.97-.27h.16c.11,0,.22.05.32.11.16.11.27.27.27.43.11-.05.27-.11.38-.16,0-.05.05-.11.05-.16.11-.22.32-.32.54-.32h.16c.32.05.49.32.49.65.16-.05.32-.05.43-.05.22,0,.32.05.49.11.11-.16.43-.38.65-.38h.05c.22.05.49.11.54.38.11-.05.22-.05.32-.05h.22c.16-.11.32-.16.54-.22v-.05c.05-.32.11-.59.43-.59.16,0,.97.22,1.3.38,0,0,.05,0,.05.05.11-.05.27-.11.32-.16h.05c.86,0,1.24.16,1.57.27.16.05.27.11.43.16.11-.11.22-.16.38-.16.11,0,.16,0,.27.05.16.11.38.11.7.16-.05-.11.27-.22.76-.22.27,0,.54.11.65.32.05,0,.05.05.05.05l.43-.32c.54-.27.81-.32,1.08-.32.59,0,.92.27,1.19.49.22.22.38.38.81.38.59-.92,1.84-.92,2.32-.92,0,0,1.46.05,1.57.05.32,0,.81.05.92.16.11.11.27.38.32.65.05,0,.32-.05.32-.05.05-.05.16-.05.27-.05.05,0,.16.05.22.05.59-.16,1.3-.22,1.89-.22.54,0,1.08,0,1.35-.16.05-.05.16-.05.27-.05.16,0,.32.05.43.16.11-.05.22-.11.38-.16.38-.11.76-.32,1.19-.38h.05c.16,0,.43.22.54.32.05.05.11.05.11.11.05-.05.11-.16.16-.22.11-.16.92-.38,1.08-.38.32,0,.59.22.65.54v.16c.11.05.27.11.38.16.22-.05.43-.11.49-.11.05-.22.22-.38.49-.43h.11c.22,0,.43.16.54.32,0,0,.11.11.27.22.16-.05.32-.11.49-.16-.05-.32.32-.54.59-.59h.16c.27,0,.65.22.76.43.05.11.05.27,0,.49.22-.05.38-.16.43-.22,0-.16.11-.27.27-.38.05-.05.16-.05.27-.05.05,0,.16.05.22.05.7.27.92.32,1.24.38h.11c.43-.05.86-.11,1.3-.11.7-.05,1.46-.05,1.73-.32.11-.11.27-.16.43-.16.11,0,.22.05.32.11.22.11.32.32.32.54.05-.16.27-.16.43-.16h.11c.49,0,.92,0,1.19.27.27-.11.54-.22.59-.27.11-.05.22-.11.38-.11.11,0,.22,0,.32.05.22.11.32.32.32.59.38-.16.7-.22.97-.22h.27c.32-.16.7-.16,1.08-.22.05-.05.11-.05.22-.05h.22c.05,0,.27-.11.27-.11h.16c.16,0,.38.11.49.27.11-.16.22-.27.32-.32.05-.05.11-.05.22-.05.16,0,.38,0,.49.05.11.05.27.11.38.22l.38-.22h.11c.22,0,.49.11.65.16,0,0,.05.05.11.05.22-.16.49-.22.76-.22.11,0,.59.16.76.22h.22c.7,0,1.3.27,1.62.65.54.05,1.13.32,1.51.76.16.22.22.54.05.76-.05.11-.16.16-.22.22.27.43.22.81.22,1.03.11.16.11.27.05.49-.11.22-.27.27-.49.32.16,0,.49.38.59.54.11.11.22.43.22.59s0,.43-.16.54c-.05.05-.16.05-.27.11.22.49.32,1.13.43,2,.05.22-.05.59-.22.76l.27.97c.05.32-.11.65-.38.76,0,.22.05.38,0,.43-.05.05-.11.11-.22.16.11.59.05,1.24,0,1.84,0,.05-.05.16-.11.22.76,1.94.7,4.54.7,6.53.22.22.43.54.43.76.05.22-.05.43-.22.59l-.05.05c.22.54.16.97.11,1.3Z"/>
      <rect class="cls-1" x="297" y="756" width="27" height="27"/>
      <path class="cls-1" d="M702,675h-27v81h81v-81h-54ZM715.5,729c-7.46,0-13.5-6.04-13.5-13.5s6.04-13.5,13.5-13.5,13.5,6.04,13.5,13.5-6.04,13.5-13.5,13.5Z"/>
      <polygon class="cls-1" points="783 702 783 729 810 729 810 702 810 675 783 675 783 702"/>
      <path class="cls-1" d="M369.12,387.37c-4.05,9.22-5.2,27.7-2.49,37.48,4.61-16.62,3.81-35.08,16.05-49.43-5.59,2.91-10.93,5.94-13.56,11.95Z"/>
      <circle cx="499.5" cy="607.5" r="13.5"/>
      <path d="M553.5,891h67.5c14.91,0,27-12.09,27-27h13.5c7.46,0,13.5-6.04,13.5-13.5s-6.04-13.5-13.5-13.5h-40.5c-14.91,0-27,12.09-27,27h-40.5c-7.46,0-13.5,6.04-13.5,13.5s6.04,13.5,13.5,13.5Z"/>
      <path d="M324,378v40.5c0,7.46,6.04,13.5,13.5,13.5s13.5-6.04,13.5-13.5v-54c0-7.46-6.04-13.5-13.5-13.5s-13.5,6.04-13.5,13.5v13.5Z"/>
      <circle cx="877.5" cy="580.5" r="13.5"/>
      <path d="M445.5,594h-27c-7.46,0-13.5,6.04-13.5,13.5s6.04,13.5,13.5,13.5h27c7.46,0,13.5-6.04,13.5-13.5s-6.04-13.5-13.5-13.5Z"/>
      <path d="M337.5,324c7.46,0,13.5-6.04,13.5-13.5v-13.5h27c14.91,0,27-12.09,27-27v-13.5c0-7.46-6.04-13.5-13.5-13.5s-13.5,6.04-13.5,13.5v13.5h-67.5c-7.46,0-13.5,6.04-13.5,13.5s6.04,13.5,13.5,13.5h13.5v13.5c0,7.46,6.04,13.5,13.5,13.5Z"/>
      <path d="M270,850.5v13.5h-13.5c-7.46,0-13.5,6.04-13.5,13.5s6.04,13.5,13.5,13.5h13.5c14.91,0,27-12.09,27-27v-13.5c0-7.46-6.04-13.5-13.5-13.5s-13.5,6.04-13.5,13.5Z"/>
      <circle cx="472.5" cy="634.5" r="13.5"/>
      <path d="M337.5,891c7.46,0,13.5-6.04,13.5-13.5v-13.5c14.91,0,27-12.09,27-27h54c14.91,0,27-12.09,27-27,14.91,0,27-12.09,27-27h40.5c7.46,0,13.5-6.04,13.5-13.5s-6.04-13.5-13.5-13.5h-13.5v-54c14.91,0,27-12.09,27-27h13.5c7.46,0,13.5-6.04,13.5-13.5s-6.04-13.5-13.5-13.5h-13.5c-14.91,0-27,12.09-27,27-14.91,0-27,12.09-27,27h-27c0-14.91-12.09-27-27-27,0-14.91-12.09-27-27-27h-54c0-14.91-12.09-27-27-27,0-14.91-12.09-27-27-27h-27v-27h40.5c7.46,0,13.5-6.04,13.5-13.5s-6.04-13.5-13.5-13.5h-40.5v-27c0-14.91-12.09-27-27-27v-27h27v13.5c0,7.46,6.04,13.5,13.5,13.5s13.5-6.04,13.5-13.5v-13.5c0-14.91-12.09-27-27-27h-27c-14.91,0-27,12.09-27,27-14.91,0-27,12.09-27,27h-27v-13.5c0-7.46-6.04-13.5-13.5-13.5s-13.5,6.04-13.5,13.5v67.5h-40.5c-7.46,0-13.5,6.04-13.5,13.5s6.04,13.5,13.5,13.5h13.5v27c-14.91,0-27,12.09-27,27v13.5c0,7.46,6.04,13.5,13.5,13.5s13.5-6.04,13.5-13.5v-13.5c14.91,0,27-12.09,27-27,14.91,0,27-12.09,27-27h40.5c7.46,0,13.5-6.04,13.5-13.5s-6.04-13.5-13.5-13.5h-40.5v-27h54c0,14.91,12.09,27,27,27v27h-13.5c-7.46,0-13.5,6.04-13.5,13.5s6.04,13.5,13.5,13.5h13.5v27h-27c0-14.91-12.09-27-27-27h-13.5c-7.46,0-13.5,6.04-13.5,13.5s6.04,13.5,13.5,13.5h13.5c0,14.91,12.09,27,27,27v13.5c0,7.46,6.04,13.5,13.5,13.5s13.5-6.04,13.5-13.5v-13.5h54v27c0,14.91,12.09,27,27,27s27-12.09,27-27h54v27h-13.5c-7.46,0-13.5,6.04-13.5,13.5s6.04,13.5,13.5,13.5h94.5v27h-54c-14.91,0-27,12.09-27,27-14.91,0-27,12.09-27,27-14.91,0-27,12.09-27,27-14.91,0-27,12.09-27,27v13.5c0,7.46,6.04,13.5,13.5,13.5Z"/>
      <path d="M323.99,0c-14.91,0-26.99,12.09-26.99,27v54h-54v-27h13.5c7.46,0,13.5-6.04,13.5-13.5s-6.04-13.5-13.5-13.5h-13.5c-14.91,0-27,12.09-27,27v27c0,14.91,12.09,27,27,27,0,14.91,12.09,27,27,27s27-12.09,27-27c14.91,0,27-12.09,27-27,14.91,0,27-12.09,27-27v-27c0-14.91-12.08-26.99-26.99-27h-.02Z"/>
      <path d="M27,594h13.5c7.46,0,13.5-6.04,13.5-13.5s-6.04-13.5-13.5-13.5h-13.5v-54h13.5c7.46,0,13.5-6.04,13.5-13.5s-6.04-13.5-13.5-13.5h-13.5v-13.5c0-7.46-6.04-13.5-13.5-13.5S0,465.04,0,472.49v94.52c0,14.91,12.09,26.99,27,26.99Z"/>
      <path d="M823.5,837c7.46,0,13.5-6.04,13.5-13.5v-13.5c0-14.91-12.09-27-27-27h-13.5c-7.46,0-13.5,6.04-13.5,13.5s6.04,13.5,13.5,13.5h13.5v13.5c0,7.46,6.04,13.5,13.5,13.5Z"/>
      <path d="M324,810c14.91,0,27-12.09,27-27v-27h13.5c7.46,0,13.5-6.04,13.5-13.5s-6.04-13.5-13.5-13.5h-94.5v-13.5c0-7.46-6.04-13.5-13.5-13.5s-13.5,6.04-13.5,13.5v13.5c0,14.91,12.09,27,27,27v27c-14.91,0-27,12.09-27,27-14.91,0-27,12.09-27,27v13.5c0,7.46,6.04,13.5,13.5,13.5s13.5-6.04,13.5-13.5v-13.5c14.91,0,27-12.09,27-27h54ZM297,756h27v27h-27v-27Z"/>
      <path d="M864,270v-27c0-14.91-12.09-27-27-27h-27c-14.91,0-27,12.09-27,27s12.09,27,27,27c0,14.91,12.09,27,27,27,0,14.91,12.09,27,27,27s27-12.09,27-27-12.09-27-27-27Z"/>
      <circle cx="850.5" cy="877.5" r="13.5"/>
      <path d="M648,13.5c0,7.46,6.04,13.5,13.5,13.5s13.5-6.04,13.5-13.5S668.96,0,661.51,0h-.01c-7.45,0-13.49,6.05-13.49,13.5Z"/>
      <path d="M405,13.5c0,7.46,6.04,13.5,13.5,13.5s13.5-6.04,13.5-13.5S425.96,0,418.51,0h-.01c-7.45,0-13.49,6.05-13.49,13.5Z"/>
      <circle cx="553.5" cy="229.5" r="13.5"/>
      <path d="M540,418.5c0,7.46,6.04,13.5,13.5,13.5s13.5-6.04,13.5-13.5v-13.5h13.5c7.46,0,13.5-6.04,13.5-13.5s-6.04-13.5-13.5-13.5h-13.5c-14.91,0-27,12.09-27,27v13.5Z"/>
      <path d="M580.5,135h-13.5c-14.91,0-27,12.09-27,27v13.5c0,7.46,6.04,13.5,13.5,13.5s13.5-6.04,13.5-13.5v-13.5h13.5c7.46,0,13.5-6.04,13.5-13.5s-6.04-13.5-13.5-13.5Z"/>
      <circle cx="607.5" cy="418.5" r="13.5"/>
      <path d="M702,540h40.5c7.46,0,13.5-6.04,13.5-13.5s-6.04-13.5-13.5-13.5h-13.5v-40.5c0-7.46-6.04-13.5-13.5-13.5s-13.5,6.04-13.5,13.5v13.5c-14.91,0-27,12.09-27,27s12.09,27,27,27Z"/>
      <path d="M864,648h13.5c7.46,0,13.5-6.04,13.5-13.5s-6.04-13.5-13.5-13.5h-13.5c0-14.91-12.09-27-27-27v-13.5c0-7.46-6.04-13.5-13.5-13.5s-13.5,6.04-13.5,13.5v40.5h-54v-40.5c0-7.46-6.04-13.5-13.5-13.5s-13.5,6.04-13.5,13.5v13.5h-108c-14.91,0-27,12.09-27,27h-13.5c-7.46,0-13.5,6.04-13.5,13.5s6.04,13.5,13.5,13.5h40.5c14.91,0,27-12.09,27-27h54v27h-27c-14.91,0-27,12.09-27,27v27h-27v-13.5c0-7.46-6.04-13.5-13.5-13.5s-13.5,6.04-13.5,13.5v13.5h-13.5c-7.46,0-13.5,6.04-13.5,13.5s6.04,13.5,13.5,13.5h67.5v27h-27c-14.91,0-27,12.09-27,27h-27c-14.91,0-27,12.09-27,27s12.09,27,27,27,27-12.09,27-27h27c14.91,0,27-12.09,27-27h27v13.5c0,7.46,6.04,13.5,13.5,13.5s13.5-6.04,13.5-13.5v-13.5h27v54h-13.5c-7.46,0-13.5,6.04-13.5,13.5s6.04,13.5,13.5,13.5h67.5v13.5c0,7.46,6.04,13.5,13.5,13.5s13.5-6.04,13.5-13.5v-13.5c0-14.91-12.09-27-27-27,0-14.91-12.09-27-27-27v-27c14.91,0,27-12.09,27-27h54c0,14.91,12.09,27,27,27v40.5c0,7.46,6.04,13.5,13.5,13.5s13.5-6.04,13.5-13.5v-40.5c0-14.91-12.09-27-27-27v-27c14.91,0,27-12.09,27-27v-13.5c0-7.46-6.04-13.5-13.5-13.5s-13.5,6.04-13.5,13.5v13.5h-27v-27c14.91,0,27-12.09,27-27ZM756,702v54h-81v-81h81v27ZM810,702v27h-27v-54h27v27Z"/>
      <circle cx="445.5" cy="121.5" r="13.5" transform="translate(-13.71 72.93) rotate(-9.22)"/>
      <path d="M513,202.5v-54c0-7.46-6.04-13.5-13.5-13.5s-13.5,6.04-13.5,13.5v54c0,7.46,6.04,13.5,13.5,13.5s13.5-6.04,13.5-13.5Z"/>
      <circle cx="526.5" cy="256.5" r="13.5"/>
      <path d="M499.5,81h-27c-7.46,0-13.5,6.04-13.5,13.5s6.04,13.5,13.5,13.5h27c7.46,0,13.5-6.04,13.5-13.5s-6.04-13.5-13.5-13.5Z"/>
      <path d="M310.5,513h13.5v13.5c0,7.46,6.04,13.5,13.5,13.5s13.5-6.04,13.5-13.5v-13.5c0-14.91-12.09-27-27-27h-13.5c-7.46,0-13.5,6.04-13.5,13.5s6.04,13.5,13.5,13.5Z"/>
      <circle cx="337.5" cy="580.5" r="13.5" transform="translate(-327.97 670.16) rotate(-67.5)"/>
      <path d="M189,661.5c0-7.46-6.04-13.5-13.5-13.5h-54c-7.46,0-13.5,6.04-13.5,13.5s6.04,13.5,13.5,13.5h54c7.46,0,13.5-6.04,13.5-13.5Z"/>
      <path d="M472.5,891c7.46,0,13.5-6.04,13.5-13.5v-13.5h40.5c7.46,0,13.5-6.04,13.5-13.5s-6.04-13.5-13.5-13.5h-13.5v-13.5c0-7.46-6.04-13.5-13.5-13.5s-13.5,6.04-13.5,13.5v13.5c-14.91,0-27,12.09-27,27v13.5c0,7.46,6.04,13.5,13.5,13.5Z"/>
      <path d="M432,189v27h-13.5c-7.46,0-13.5,6.04-13.5,13.5s6.04,13.5,13.5,13.5h13.5v27c0,14.91,12.09,27,27,27h13.5c7.46,0,13.5-6.04,13.5-13.5s-6.04-13.5-13.5-13.5h-13.5v-94.5c0-7.46-6.04-13.5-13.5-13.5s-13.5,6.04-13.5,13.5v13.5Z"/>
      <circle cx="526.5" cy="121.5" r="13.5"/>
      <circle cx="364.5" cy="148.5" r="13.5"/>
      <circle cx="310.5" cy="337.5" r="13.5"/>
      <path d="M13.5,648h13.5v13.5c0,7.46,6.04,13.5,13.5,13.5s13.5-6.04,13.5-13.5v-13.5c0-14.91-12.09-27-27-27h-13.5c-7.45,0-13.5,6.04-13.5,13.49h0c0,7.47,6.05,13.51,13.5,13.51Z"/>
      <path d="M634.5,540c7.46,0,13.5-6.04,13.5-13.5v-40.5h13.5c7.46,0,13.5-6.04,13.5-13.5s-6.04-13.5-13.5-13.5h-13.5c-14.91,0-27,12.09-27,27h-13.5c-7.46,0-13.5,6.04-13.5,13.5s6.04,13.5,13.5,13.5h13.5v13.5c0,7.46,6.04,13.5,13.5,13.5Z"/>
      <path d="M580.5,459h-13.5c-14.91,0-27,12.09-27,27v67.5c0,7.46,6.04,13.5,13.5,13.5s13.5-6.04,13.5-13.5v-67.5h13.5c7.46,0,13.5-6.04,13.5-13.5s-6.04-13.5-13.5-13.5Z"/>
      <path d="M756,499.5c0,7.46,6.04,13.5,13.5,13.5s13.5-6.04,13.5-13.5v-27c0-7.46-6.04-13.5-13.5-13.5s-13.5,6.04-13.5,13.5v27Z"/>
      <circle cx="580.5" cy="580.5" r="13.5"/>
      <path d="M13.5,324c7.46,0,13.5-6.04,13.5-13.5s-6.04-13.5-13.5-13.5S0,303.04,0,310.49h0c0,7.47,6.05,13.51,13.5,13.51Z"/>
      <circle cx="175.5" cy="229.5" r="13.5"/>
      <circle cx="742.5" cy="445.5" r="13.5"/>
      <path d="M67.5,243c7.46,0,13.5-6.04,13.5-13.5s-6.04-13.5-13.5-13.5h-13.5c-14.91,0-27,12.09-27,27v27c0,14.91,12.09,27,27,27h13.5c7.46,0,13.5-6.04,13.5-13.5s-6.04-13.5-13.5-13.5h-13.5v-27h13.5Z"/>
      <circle cx="40.5" cy="364.5" r="13.5"/>
      <path d="M256.5,216h13.5c14.91,0,27-12.09,27-27v-13.5c0-7.46-6.04-13.5-13.5-13.5s-13.5,6.04-13.5,13.5v13.5h-13.5c-7.46,0-13.5,6.04-13.5,13.5s6.04,13.5,13.5,13.5Z"/>
      <path d="M675,243h13.5c7.46,0,13.5-6.04,13.5-13.5s-6.04-13.5-13.5-13.5h-27c-7.46,0-13.5,6.04-13.5,13.5s6.04,13.5,13.5,13.5h13.5Z"/>
      <path d="M243,148.5c0-7.46-6.04-13.5-13.5-13.5s-13.5,6.04-13.5,13.5v27c0,7.46,6.04,13.5,13.5,13.5s13.5-6.04,13.5-13.5v-27Z"/>
      <circle cx="175.5" cy="445.5" r="13.5"/>
      <path d="M621,189v-13.5c0-7.46-6.04-13.5-13.5-13.5s-13.5,6.04-13.5,13.5v67.5c-14.91,0-27,12.09-27,27v54c0,14.91,12.09,27,27,27h13.5c7.46,0,13.5-6.04,13.5-13.5s-6.04-13.5-13.5-13.5h-13.5v-54h27v27c0,14.91,12.09,27,27,27v54h-13.5c-7.46,0-13.5,6.04-13.5,13.5s6.04,13.5,13.5,13.5h40.5c0,14.91,12.09,27,27,27h13.5c7.46,0,13.5-6.04,13.5-13.5s-6.04-13.5-13.5-13.5h-13.5c0-14.91-12.09-27-27-27v-54h13.5c7.46,0,13.5-6.04,13.5-13.5s-6.04-13.5-13.5-13.5h-40.5v-27c0-14.91-12.09-27-27-27v-54Z"/>
      <circle cx="310.5" cy="148.5" r="13.5"/>
      <path d="M391.5,27c-7.46,0-13.5,6.04-13.5,13.5v40.5h-13.5c-7.46,0-13.5,6.04-13.5,13.5s6.04,13.5,13.5,13.5h13.5v13.5c0,7.46,6.04,13.5,13.5,13.5s13.5-6.04,13.5-13.5v-40.5h27c14.91,0,27-12.09,27-27v-13.5c0-7.46-6.04-13.5-13.5-13.5s-13.5,6.04-13.5,13.5v13.5h-27v-13.5c0-7.46-6.04-13.5-13.5-13.5Z"/>
      <path d="M310.5,243h40.5c14.91,0,27-12.09,27-27,14.91,0,27-12.09,27-27v-13.5c0-7.46-6.04-13.5-13.5-13.5s-13.5,6.04-13.5,13.5v13.5h-27v-13.5c0-7.46-6.04-13.5-13.5-13.5s-13.5,6.04-13.5,13.5v40.5h-13.5c-7.46,0-13.5,6.04-13.5,13.5s6.04,13.5,13.5,13.5Z"/>
      <circle cx="715.5" cy="715.5" r="13.5"/>
      <path d="M756,256.5v-27c0-7.46-6.04-13.5-13.5-13.5s-13.5,6.04-13.5,13.5v27c0,7.46,6.04,13.5,13.5,13.5s13.5-6.04,13.5-13.5Z"/>
      <circle cx="877.5" cy="391.5" r="13.5"/>
      <path d="M715.5,324c-7.46,0-13.5,6.04-13.5,13.5s6.04,13.5,13.5,13.5h13.5c0,14.91,12.09,27,27,27v13.5c0,7.46,6.04,13.5,13.5,13.5s13.5-6.04,13.5-13.5v-40.5c0-14.91-12.09-27-27-27h-40.5Z"/>
      <path d="M864,486c-14.91,0-27,12.09-27,27h-27c-14.91,0-27,12.09-27,27h-13.5c-7.46,0-13.5,6.04-13.5,13.5s6.04,13.5,13.5,13.5h13.5c14.91,0,27-12.09,27-27h27c14.91,0,27-12.09,27-27,14.91,0,27-12.09,27-27v-13.5c0-7.46-6.04-13.5-13.5-13.5s-13.5,6.04-13.5,13.5v13.5Z"/>
      <path d="M13.5,432h13.5c0,14.91,12.09,27,27,27v13.5c0,7.46,6.04,13.5,13.5,13.5s13.5-6.04,13.5-13.5v-13.5c14.91,0,27-12.09,27-27h27c14.91,0,27-12.09,27-27h108c14.91,0,27-12.09,27-27s-12.09-27-27-27h-27v-27h13.5c7.46,0,13.5-6.04,13.5-13.5s-6.04-13.5-13.5-13.5h-13.5c0-14.91-12.09-27-27-27v-13.5c0-7.46-6.04-13.5-13.5-13.5s-13.5,6.04-13.5,13.5v13.5h-54v-13.5c0-7.46-6.04-13.5-13.5-13.5s-13.5,6.04-13.5,13.5v13.5c0,14.91,12.09,27,27,27h81v54c-14.91,0-27,12.09-27,27h-27v-27h13.5c7.46,0,13.5-6.04,13.5-13.5s-6.04-13.5-13.5-13.5h-13.5c-14.91,0-27,12.09-27,27h-27v-13.5c0-7.46-6.04-13.5-13.5-13.5s-13.5,6.04-13.5,13.5v13.5c0,14.91,12.09,27,27,27h27v27h-27c-14.91,0-27,12.09-27,27h-27c0-14.91-12.09-27-27-27h-13.5c-7.45,0-13.5,6.04-13.5,13.49h0c0,7.47,6.05,13.51,13.5,13.51Z"/>
      <path d="M837,351v-13.5c0-7.46-6.04-13.5-13.5-13.5s-13.5,6.04-13.5,13.5v67.5c-14.91,0-27,12.09-27,27v13.5c0,7.46,6.04,13.5,13.5,13.5s13.5-6.04,13.5-13.5v-13.5h40.5c7.46,0,13.5-6.04,13.5-13.5s-6.04-13.5-13.5-13.5h-13.5v-54Z"/>
      <path d="M472.49,0c-7.45,0-13.49,6.05-13.49,13.5s6.04,13.5,13.5,13.5h13.5c0,14.91,12.09,27,27,27,0,14.91,12.09,27,27,27h27c0,14.91,12.09,27,27,27s27-12.09,27-27h27v94.5c0,7.46,6.04,13.5,13.5,13.5s13.5-6.04,13.5-13.5v-94.5c0-14.91-12.09-27-27-27v-13.5c0-7.46-6.04-13.5-13.5-13.5s-13.5,6.04-13.5,13.5v13.5h-27V13.5c0-7.45-6.04-13.5-13.49-13.5h-.01c-7.45,0-13.49,6.05-13.49,13.5v40.5h-27c0-14.91-12.09-27-27-27,0-14.91-12.08-26.99-26.99-27h-13.52Z"/>
      <path d="M0,162.01c0,14.91,12.09,26.99,27,26.99h135c14.91,0,27-12.09,27-27V27C189,12.09,176.92,0,162.01,0H26.99C12.09,0,0,12.09,0,26.99v135.02ZM27,135V27h135v135H27v-27Z"/>
      <path d="M56.16,79.92c.11.05.22.11.38.11.11,0,.22-.05.32-.11l-.22.7c.05.11.11.16.22.27v.59c0,.32,0,.59-.05.76h-.16c-.38.16-.54.43-.49.76l.22,1.35h.05v.22c.05.38.05.7.43,1.35-.11.27-.16.54-.16.86,0,.16.05.38.22.49l.11.11c0,.11-.05.22-.11.32-.05.16.05.32.22.49-.16.11-.38.32-.43.49-.05.16-.05.27,0,.43-.16.22-.16.54-.05.76,0,.05.05.11.05.16-.05,0-.05.05-.05.05-.16.16-.32.49-.27.7-.16,1.51-.16,1.84.27,2.16.11.76,0,1.57-.11,2.38-.16,1.19-.38,2.54.11,3.94-.16.27-.32.54-.38.65.05.32.05.7.05,1.13,0,.65.05,1.35.16,1.89,0,.05.05.11.11.16l-.11.86c-.16,1.3-.32,2.27-.27,3.29v.27c.05.16.16.32.32.38.05.22.16.49.27.7-.22.11-.32.32-.32.59.05,1.13-.11,2.32-.27,3.56-.11.86-.22,1.73-.11,3.02.11.11.32.22.49.27,0,.22-.05.43-.05.7-.05.7-.11,1.4-.05,2.11-.11.11-.27.81-.22.97,0,.16.05.27.16.38-.05.11.05.32.16.49-.11.38-.11.76-.16,1.13,0,.32-.05.81-.11.92-.22.22-.27.43-.11.7.11.16.27.22.43.22.11,0,.22,0,.32-.05.05.11-.05.54-.16,1.51.05.11.11.27.16.59h-.11c-.32,0-.54.27-.59.59l-.11,1.73c0,.22.05.38.22.49,0,.11-.11.81-.11,1.08-.22.11-.32.32-.32.59.05.59.11,1.19.49,1.78.11.16.7.38.92.38,0,0,.76.16.81.16.38,0,.59-.22.7-.32,1.24,0,2.05.16,2.81.32.59.11,1.19.22,1.94.27h.16c.16,0,.27-.05.38-.11.05-.05.11-.05.16-.11.49.05.86.22,1.3.43.05.05.16.05.22.05.16,0,.27-.11.38-.22.27.16.59.27,1.3.38h.05c.11,0,.22-.05.32-.11.05.05.11.05.16.05.11.05.22.05.32.05.16,0,.32-.05.43-.22.16-.22.11-.43-.05-.59.22-.05.54-.11.76-.27.05,0,.16.05.16.05,0,.16.05.49.16.65.11.16.65.32.81.32v-.22c.11,0,.22.05.32.05l.11.11h.11c.11,0,.27,0,.38-.05.59.05,1.24.05,1.84.05h1.03c.76,0,1.57,0,2.32.11h.05c.27,0,.43-.16.54-.43.49.05,1.19.16,1.89.27l.11-.65.54.86c.05.05.49.05.76.05h.16l.97.16h.22c.22.05.49.11.81.11.65,0,1.51-.16,1.35-.49.32.27.76.38,1.35.38.27,0,.54,0,1.03-.11.16.11.38.16.59.16.11,0,.22,0,.32-.05.49,0,.97-.05,1.24-.27h.11s.22,0,.27-.05l1.4-.05c.32,0,.59.05.81.11h.16c.22,0,.59-.05.7-.16l.86.05c.22,0,.38,0,.54-.05.32.16.76.27,1.3.27.49,0,.97-.05,1.4-.16h.05c.11.22.38.38.65.38.92,0,1.4-.16,1.67-.32.27.05.54.11.86.11.43,0,.86-.05,1.24-.16.27-.05.54-.11.76-.11l1.03.38c1.4-.22,2.75-.38,4.05-.49.05.16.11.27.22.38s.27.11.38.11c.05,0,.86-.16,1.46-.22.97-.16,2.11-.38,3.02-.49v.05c.11.22.32.38.59.38h.05c.81-.11,1.57-.11,2.32-.11h1.03c.65,0,1.3,0,2-.22.16.11.38.22.54.22h.22c.16,0,.7-.16.81-.32.11-.16.22-.43.16-.65l.22-.11c.11.05.27.11.38.11.16,0,.27-.05.43-.11-.16.22-.22.54-.05.76.11.22.32.32.54.32h.16c.05,0,.11-.05.16-.05.11.05.22.05.32.05h.05c.59-.05.92-.22,1.19-.32.11.16.32.22.49.22.11,0,.16,0,.27-.05.38-.16.76-.38,1.4-.38.11.11.27.22.49.22h.05c.76-.05,1.35-.16,1.94-.27.7-.16,1.4-.27,2.86-.32.11.11.27.32.7.32.05,0,1.24-.27,1.24-.27.22,0,.43-.11.54-.27.38-.59.43-1.19.49-1.78,0-.16-.11-.27-.27-.38-.16-.32-.22-.7-.32-1.24h0c.16-.11.22-.32.22-.49l-.11-1.73c0-.32-.27-.59-.59-.59h-.11c.05-.32.11-.65.22-1.19-.16-.32-.22-.65-.27-.7.05,0,.16.05.22.05.22,0,.43-.11.54-.27.16-.27.11-.59-.11-.76-.05-.11-.11-.59-.11-.92,0-.27-.05-.54-.05-.81h.05c.11-.11,0-.49,0-.65v-.11c.16-.11.22-.27.27-.49,0-.32,0-.7-.22-.97.05-.7,0-1.4-.05-2.11,0-.22-.05-.49-.05-.7.16-.05.32-.11.43-.22.11-.11.27-.32.22-.54-.05-.86-.16-1.73-.27-2.54-.16-1.24-.32-2.43-.27-3.56,0-.22-.11-.32-.27-.43l.05-.11c.05-.22.16-.49.22-.81.16-.05.27-.22.32-.38,0-.05.05-.16,0-.27.05-1.03-.05-2.05-.27-3.35l-.11-.81c.05-.05.05-.16.11-.22.11-.54.16-1.24.16-1.89,0-.38,0-.81-.11-1.73,0-.05-.05-.16-.11-.22.43-1.35.22-2.65.05-3.78-.11-.81-.22-1.62-.11-2.38h.05c.05,0,.16,0,.22-.05.22-.27.22-.38,0-2.43,0-.22-.05-.43-.27-.59,0,0,.05-.16.11-.22.11-.22,0-.49-.16-.7,0-.11.05-.27,0-.32-.11-.32-.38-.49-.43-.7.05-.16.11-.38.11-.54.05-.05.11-.05.16-.11.16-.11.22-.32.22-.49,0-.32-.11-.59-.16-.86.38-.65.43-.97.49-1.67l.22-1.3c.05-.32-.22-.43-.54-.54h-.05c-.11-.27-.11-.54-.11-.97,0-.22,0-.49-.05-.76.32-.16.65-.7.7-.92l-.05-.05c.27-.22.32-.76.16-1.03.05-.32.11-.76-.11-1.3l.05-.05c.16-.16.27-.38.22-.59,0-.22-.22-.54-.43-.76,0-2,.05-4.59-.7-6.53.05-.05.11-.16.11-.22.05-.59.11-1.24,0-1.84.11-.05.16-.11.22-.16s0-.22,0-.43c.27-.11.43-.43.38-.76l-.27-.97c.16-.16.27-.54.22-.76-.11-.86-.22-1.51-.43-2,.11-.05.22-.05.27-.11.16-.11.16-.38.16-.54s-.11-.49-.22-.59c-.11-.16-.43-.54-.59-.54.22-.05.38-.11.49-.32.05-.22.05-.32-.05-.49,0-.22.05-.59-.22-1.03.05-.05.16-.11.22-.22.16-.22.11-.54-.05-.76-.38-.43-.97-.7-1.51-.76-.32-.38-.92-.65-1.62-.65h-.22c-.16-.05-.65-.22-.76-.22-.27,0-.54.05-.76.22-.05,0-.11-.05-.11-.05-.16-.05-.43-.16-.65-.16h-.11l-.38.22c-.11-.11-.27-.16-.38-.22-.11-.05-.32-.05-.49-.05-.11,0-.16,0-.22.05-.11.05-.22.16-.32.32-.11-.16-.32-.27-.49-.27h-.16s-.22.11-.27.11h-.22c-.11,0-.16,0-.22.05-.38.05-.76.05-1.08.22h-.27c-.27,0-.59.05-.97.22,0-.27-.11-.49-.32-.59-.11-.05-.22-.05-.32-.05-.16,0-.27.05-.38.11-.05.05-.32.16-.59.27-.27-.27-.7-.27-1.19-.27h-.11c-.16,0-.38,0-.43.16,0-.22-.11-.43-.32-.54-.11-.05-.22-.11-.32-.11-.16,0-.32.05-.43.16-.27.27-1.03.27-1.73.32-.43,0-.86.05-1.3.11h-.11c-.32-.05-.54-.11-1.24-.38-.05,0-.16-.05-.22-.05-.11,0-.22,0-.27.05-.16.11-.27.22-.27.38-.05.05-.22.16-.43.22.05-.22.05-.38,0-.49-.11-.22-.49-.43-.76-.43h-.16c-.27.05-.65.27-.59.59-.16.05-.32.11-.49.16-.16-.11-.27-.22-.27-.22-.11-.16-.32-.32-.54-.32h-.11c-.27.05-.43.22-.49.43-.05,0-.27.05-.49.11-.11-.05-.27-.11-.38-.16v-.16c-.05-.32-.32-.54-.65-.54-.16,0-.97.22-1.08.38-.05.05-.11.16-.16.22,0-.05-.05-.05-.11-.11-.11-.11-.38-.32-.54-.32h-.05c-.43.05-.81.27-1.19.38-.16.05-.27.11-.38.16-.11-.11-.27-.16-.43-.16-.11,0-.22,0-.27.05-.27.16-.81.16-1.35.16-.59,0-1.3.05-1.89.22-.05,0-.16-.05-.22-.05-.11,0-.22,0-.27.05,0,0-.27.05-.32.05-.05-.27-.22-.54-.32-.65-.11-.11-.59-.16-.92-.16-.11,0-1.57-.05-1.57-.05-.49,0-1.73,0-2.32.92-.43,0-.59-.16-.81-.38-.27-.22-.59-.49-1.19-.49-.27,0-.54.05-1.08.32l-.43.32s0-.05-.05-.05c-.11-.22-.38-.32-.65-.32-.49,0-.81.11-.76.22-.32-.05-.54-.05-.7-.16-.11-.05-.16-.05-.27-.05-.16,0-.27.05-.38.16-.16-.05-.27-.11-.43-.16-.32-.11-.7-.27-1.57-.27h-.05c-.05.05-.22.11-.32.16,0-.05-.05-.05-.05-.05-.32-.16-1.13-.38-1.3-.38-.32,0-.38.27-.43.59v.05c-.22.05-.38.11-.54.22h-.22c-.11,0-.22,0-.32.05-.05-.27-.32-.32-.54-.38h-.05c-.22,0-.54.22-.65.38-.16-.05-.27-.11-.49-.11-.11,0-.27,0-.43.05,0-.32-.16-.59-.49-.65h-.16c-.22,0-.43.11-.54.32,0,.05-.05.11-.05.16-.11.05-.27.11-.38.16,0-.16-.11-.32-.27-.43-.11-.05-.22-.11-.32-.11h-.16l-.97.27c-.86,0-1.89-.05-2.48-.27-.16,0-.43-.05-.65-.05-.16,0-.27,0-.32.05-.16-.16-.43-.32-.65-.32-.05,0-.11,0-.16.05-.27.16-.49.27-.38.54-.05,0-.16-.05-.22-.05h-.22c-.65,0-1.4.05-1.13.27-.38,0-.65-.11-.65-.16-.16-.11-.43-.27-.65-.27-.05,0-.11,0-.16.05-.27.11-.54.22-.54.49-.32,0-.7,0-.97.16-.32-.16-.7-.22-1.62-.38-.05,0-.38-.11-.49-.11-.16,0-.32.05-.38.22-.16-.22-.38-.32-.59-.32h-.05c-.16,0-.43.05-.59.43l-.92-.38c-.16,0-.32.11-.43.16-.22-.05-.43-.16-.7-.16-.11,0-.59.16-.76.22h-.22c-.76,0-1.35.27-1.62.65-.59.05-1.19.38-1.57.76-.22.22,0,.54.16.76,0,.05.05.05.11.11-.43.49-.38.92-.27.97-.16.16-.27.27-.16.49.05.22.16.22.32.27,0,.16-.38.65-.7,1.08-.11.16-.16.32-.11.49.05.16.11.32.27.38.05.05.16.05.27.11-.27.54-.38,1.3-.49,2.38-.05.22.11.27.27.27l-.27,1.08c-.05.27.16.38.38.49-.05.27-.11.65,0,.76.05.05.11.11.22.16-.11.59-.11,1.24.11,2,.05.11.05.22.11.27-.76,2.05-.76,4.7-.7,6.7v.76h.11l-.27.27v.11c-.22.59-.16,1.08-.11,1.73-.11.22-.05.59.22.76Z"/>
      <path d="M728.99,0c-14.9,0-26.98,12.09-26.99,26.99v135.02c0,14.91,12.09,26.99,27,26.99h135c14.91,0,27-12.09,27-27V27c0-14.91-12.08-26.99-26.99-27h-135.02ZM864,54v108h-135V27h135v27Z"/>
      <path d="M835.27,76.68c0-.22-.22-.54-.43-.76,0-2,.05-4.59-.7-6.53.05-.05.11-.16.11-.22.05-.59.11-1.24,0-1.84.11-.05.16-.11.22-.16.05-.05,0-.22,0-.43.27-.11.43-.43.38-.76l-.27-.97c.16-.16.27-.54.22-.76-.11-.86-.22-1.51-.43-2,.11-.05.22-.05.27-.11.16-.11.16-.38.16-.54s-.11-.49-.22-.59c-.11-.16-.43-.54-.59-.54.22-.05.38-.11.49-.32.05-.22.05-.32-.05-.49,0-.22.05-.59-.22-1.03.05-.05.16-.11.22-.22.16-.22.11-.54-.05-.76-.38-.43-.97-.7-1.51-.76-.32-.38-.92-.65-1.62-.65h-.22c-.16-.05-.65-.22-.76-.22-.27,0-.54.05-.76.22-.05,0-.11-.05-.11-.05-.16-.05-.43-.16-.65-.16h-.11l-.38.22c-.11-.11-.27-.16-.38-.22-.11-.05-.32-.05-.49-.05-.11,0-.16,0-.22.05-.11.05-.22.16-.32.32-.11-.16-.32-.27-.49-.27h-.16s-.22.11-.27.11h-.22c-.11,0-.16,0-.22.05-.38.05-.76.05-1.08.22h-.27c-.27,0-.59.05-.97.22,0-.27-.11-.49-.32-.59-.11-.05-.22-.05-.32-.05-.16,0-.27.05-.38.11-.05.05-.32.16-.59.27-.27-.27-.7-.27-1.19-.27h-.11c-.16,0-.38,0-.43.16,0-.22-.11-.43-.32-.54-.11-.05-.22-.11-.32-.11-.16,0-.32.05-.43.16-.27.27-1.03.27-1.73.32-.43,0-.86.05-1.3.11h-.11c-.32-.05-.54-.11-1.24-.38-.05,0-.16-.05-.22-.05-.11,0-.22,0-.27.05-.16.11-.27.22-.27.38-.05.05-.22.16-.43.22.05-.22.05-.38,0-.49-.11-.22-.49-.43-.76-.43h-.16c-.27.05-.65.27-.59.59-.16.05-.32.11-.49.16-.16-.11-.27-.22-.27-.22-.11-.16-.32-.32-.54-.32h-.11c-.27.05-.43.22-.49.43-.05,0-.27.05-.49.11-.11-.05-.27-.11-.38-.16v-.16c-.05-.32-.32-.54-.65-.54-.16,0-.97.22-1.08.38-.05.05-.11.16-.16.22,0-.05-.05-.05-.11-.11-.11-.11-.38-.32-.54-.32h-.05c-.43.05-.81.27-1.19.38-.16.05-.27.11-.38.16-.11-.11-.27-.16-.43-.16-.11,0-.22,0-.27.05-.27.16-.81.16-1.35.16-.59,0-1.3.05-1.89.22-.05,0-.16-.05-.22-.05-.11,0-.22,0-.27.05,0,0-.27.05-.32.05-.05-.27-.22-.54-.32-.65-.11-.11-.59-.16-.92-.16-.11,0-1.57-.05-1.57-.05-.49,0-1.73,0-2.32.92-.43,0-.59-.16-.81-.38-.27-.22-.59-.49-1.19-.49-.27,0-.54.05-1.08.32l-.43.32s0-.05-.05-.05c-.11-.22-.38-.32-.65-.32-.49,0-.81.11-.76.22-.32-.05-.54-.05-.7-.16-.11-.05-.16-.05-.27-.05-.16,0-.27.05-.38.16-.16-.05-.27-.11-.43-.16-.32-.11-.7-.27-1.57-.27h-.05c-.05.05-.22.11-.32.16,0-.05-.05-.05-.05-.05-.32-.16-1.13-.38-1.3-.38-.32,0-.38.27-.43.59v.05c-.22.05-.38.11-.54.22h-.22c-.11,0-.22,0-.32.05-.05-.27-.32-.32-.54-.38h-.05c-.22,0-.54.22-.65.38-.16-.05-.27-.11-.49-.11-.11,0-.27,0-.43.05,0-.32-.16-.59-.49-.65h-.16c-.22,0-.43.11-.54.32,0,.05-.05.11-.05.16-.11.05-.27.11-.38.16,0-.16-.11-.32-.27-.43-.11-.05-.22-.11-.32-.11h-.16l-.97.27c-.86,0-1.89-.05-2.48-.27-.16,0-.43-.05-.65-.05-.16,0-.27,0-.32.05-.16-.16-.43-.32-.65-.32-.05,0-.11,0-.16.05-.27.16-.49.27-.38.54-.05,0-.16-.05-.22-.05h-.22c-.65,0-1.4.05-1.13.27-.38,0-.65-.11-.65-.16-.16-.11-.43-.27-.65-.27-.05,0-.11,0-.16.05-.27.11-.54.22-.54.49-.32,0-.7,0-.97.16-.32-.16-.7-.22-1.62-.38-.05,0-.38-.11-.49-.11-.16,0-.32.05-.38.22-.16-.22-.38-.32-.59-.32h-.05c-.16,0-.43.05-.59.43l-.92-.38c-.16,0-.32.11-.43.16-.22-.05-.43-.16-.7-.16-.11,0-.59.16-.76.22h-.22c-.76,0-1.35.27-1.62.65-.59.05-1.19.38-1.57.76-.22.22,0,.54.16.76,0,.05.05.05.11.11-.43.49-.38.92-.27.97-.16.16-.27.27-.16.49.05.22.16.22.32.27,0,.16-.38.65-.7,1.08-.11.16-.16.32-.11.49.05.16.11.32.27.38.05.05.16.05.27.11-.27.54-.38,1.3-.49,2.38-.05.22.11.27.27.27l-.27,1.08c-.05.27.16.38.38.49-.05.27-.11.65,0,.76.05.05.11.11.22.16-.11.59-.11,1.24.11,2,.05.11.05.22.11.27-.76,2.05-.76,4.7-.7,6.7v.76h.11l-.27.27v.11c-.22.59-.16,1.08-.11,1.73-.11.22-.05.59.22.76.11.05.22.11.38.11.11,0,.22-.05.32-.11l-.22.7c.05.11.11.16.22.27v.59c0,.32,0,.59-.05.76h-.16c-.38.16-.54.43-.49.76l.22,1.35h.05v.22c.05.38.05.7.43,1.35-.11.27-.16.54-.16.86,0,.16.05.38.22.49q.05.05.11.11c0,.11-.05.22-.11.32-.05.16.05.32.22.49-.16.11-.38.32-.43.49s-.05.27,0,.43c-.16.22-.16.54-.05.76,0,.05.05.11.05.16-.05,0-.05.05-.05.05-.16.16-.32.49-.27.7-.16,1.51-.16,1.84.27,2.16.11.76,0,1.57-.11,2.38-.16,1.19-.38,2.54.11,3.94-.16.27-.32.54-.38.65.05.32.05.7.05,1.13,0,.65.05,1.35.16,1.89,0,.05.05.11.11.16l-.11.86c-.16,1.3-.32,2.27-.27,3.29v.27c.05.16.16.32.32.38.05.22.16.49.27.7-.22.11-.32.32-.32.59.05,1.13-.11,2.32-.27,3.56-.11.86-.22,1.73-.11,3.02.11.11.32.22.49.27,0,.22-.05.43-.05.7-.05.7-.11,1.4-.05,2.11-.11.11-.27.81-.22.97,0,.16.05.27.16.38-.05.11.05.32.16.49-.11.38-.11.76-.16,1.13,0,.32-.05.81-.11.92-.22.22-.27.43-.11.7.11.16.27.22.43.22.11,0,.22,0,.32-.05.05.11-.05.54-.16,1.51.05.11.11.27.16.59h-.11c-.32,0-.54.27-.59.59l-.11,1.73c0,.22.05.38.22.49,0,.11-.11.81-.11,1.08-.22.11-.32.32-.32.59.05.59.11,1.19.49,1.78.11.16.7.38.92.38,0,0,.76.16.81.16.38,0,.59-.22.7-.32,1.24,0,2.05.16,2.81.32.59.11,1.19.22,1.94.27h.16c.16,0,.27-.05.38-.11.05-.05.11-.05.16-.11.49.05.86.22,1.3.43.05.05.16.05.22.05.16,0,.27-.11.38-.22.27.16.59.27,1.3.38h.05c.11,0,.22-.05.32-.11.05.05.11.05.16.05.11.05.22.05.32.05.16,0,.32-.05.43-.22.16-.22.11-.43-.05-.59.22-.05.54-.11.76-.27.05,0,.16.05.16.05,0,.16.05.49.16.65.11.16.65.32.81.32v-.22c.11,0,.22.05.32.05l.11.11h.11c.11,0,.27,0,.38-.05.59.05,1.24.05,1.84.05h1.03c.76,0,1.57,0,2.32.11h.05c.27,0,.43-.16.54-.43.49.05,1.19.16,1.89.27l.11-.65.54.86c.05.05.49.05.76.05h.16l.97.16h.22c.22.05.49.11.81.11.65,0,1.51-.16,1.35-.49.32.27.76.38,1.35.38.27,0,.54,0,1.03-.11.16.11.38.16.59.16.11,0,.22,0,.32-.05.49,0,.97-.05,1.24-.27h.11s.22,0,.27-.05l1.4-.05c.32,0,.59.05.81.11h.16c.22,0,.59-.05.7-.16l.86.05c.22,0,.38,0,.54-.05.32.16.76.27,1.3.27.49,0,.97-.05,1.4-.16h.05c.11.22.38.38.65.38.92,0,1.4-.16,1.67-.32.27.05.54.11.86.11.43,0,.86-.05,1.24-.16.27-.05.54-.11.76-.11l1.03.38c1.4-.22,2.75-.38,4.05-.49.05.16.11.27.22.38s.27.11.38.11c.05,0,.86-.16,1.46-.22.97-.16,2.11-.38,3.02-.49v.05c.11.22.32.38.59.38h.05c.81-.11,1.57-.11,2.32-.11h1.03c.65,0,1.3,0,2-.22.16.11.38.22.54.22h.22c.16,0,.7-.16.81-.32.11-.16.22-.43.16-.65l.22-.11c.11.05.27.11.38.11.16,0,.27-.05.43-.11-.16.22-.22.54-.05.76.11.22.32.32.54.32h.16c.05,0,.11-.05.16-.05.11.05.22.05.32.05h.05c.59-.05.92-.22,1.19-.32.11.16.32.22.49.22.11,0,.16,0,.27-.05.38-.16.76-.38,1.4-.38.11.11.27.22.49.22h.05c.76-.05,1.35-.16,1.94-.27.7-.16,1.4-.27,2.86-.32.11.11.27.32.7.32.05,0,1.24-.27,1.24-.27.22,0,.43-.11.54-.27.38-.59.43-1.19.49-1.78,0-.16-.11-.27-.27-.38-.16-.32-.22-.7-.32-1.24h0c.16-.11.22-.32.22-.49l-.11-1.73c0-.32-.27-.59-.59-.59h-.11c.05-.32.11-.65.22-1.19-.16-.32-.22-.65-.27-.7.05,0,.16.05.22.05.22,0,.43-.11.54-.27.16-.27.11-.59-.11-.76-.05-.11-.11-.59-.11-.92,0-.27-.05-.54-.05-.81h.05c.11-.11,0-.49,0-.65v-.11c.16-.11.22-.27.27-.49,0-.32,0-.7-.22-.97.05-.7,0-1.4-.05-2.11,0-.22-.05-.49-.05-.7.16-.05.32-.11.43-.22.11-.11.27-.32.22-.54-.05-.86-.16-1.73-.27-2.54-.16-1.24-.32-2.43-.27-3.56,0-.22-.11-.32-.27-.43l.05-.11c.05-.22.16-.49.22-.81.16-.05.27-.22.32-.38,0-.05.05-.16,0-.27.05-1.03-.05-2.05-.27-3.35l-.11-.81c.05-.05.05-.16.11-.22.11-.54.16-1.24.16-1.89,0-.38,0-.81-.11-1.73,0-.05-.05-.16-.11-.22.43-1.35.22-2.65.05-3.78-.11-.81-.22-1.62-.11-2.38h.05c.05,0,.16,0,.22-.05.22-.27.22-.38,0-2.43,0-.22-.05-.43-.27-.59,0,0,.05-.16.11-.22.11-.22,0-.49-.16-.7,0-.11.05-.27,0-.32-.11-.32-.38-.49-.43-.7.05-.16.11-.38.11-.54.05-.05.11-.05.16-.11.16-.11.22-.32.22-.49,0-.32-.11-.59-.16-.86.38-.65.43-.97.49-1.67l.22-1.3c.05-.32-.22-.43-.54-.54h-.05c-.11-.27-.11-.54-.11-.97,0-.22,0-.49-.05-.76.32-.16.65-.7.7-.92l-.05-.05c.27-.22.32-.76.16-1.03.05-.32.11-.76-.11-1.3l.05-.05c.16-.16.27-.38.22-.59Z"/>
      <path d="M26.99,702c-14.9,0-26.98,12.09-26.99,26.99v135.02c0,14.91,12.09,26.99,27,26.99h135c14.91,0,27-12.09,27-27v-135c0-14.91-12.08-26.99-26.99-27H26.99ZM162,756v108H27v-135h135v27Z"/>
      <path d="M133.27,778.68c0-.22-.22-.54-.43-.76,0-2,.05-4.59-.7-6.53.05-.05.11-.16.11-.22.05-.59.11-1.24,0-1.84.11-.05.16-.11.22-.16.05-.05,0-.22,0-.43.27-.11.43-.43.38-.76l-.27-.97c.16-.16.27-.54.22-.76-.11-.86-.22-1.51-.43-2,.11-.05.22-.05.27-.11.16-.11.16-.38.16-.54s-.11-.49-.22-.59c-.11-.16-.43-.54-.59-.54.22-.05.38-.11.49-.32.05-.22.05-.32-.05-.49,0-.22.05-.59-.22-1.03.05-.05.16-.11.22-.22.16-.22.11-.54-.05-.76-.38-.43-.97-.7-1.51-.76-.32-.38-.92-.65-1.62-.65h-.22c-.16-.05-.65-.22-.76-.22-.27,0-.54.05-.76.22-.05,0-.11-.05-.11-.05-.16-.05-.43-.16-.65-.16h-.11l-.38.22c-.11-.11-.27-.16-.38-.22-.11-.05-.32-.05-.49-.05-.11,0-.16,0-.22.05-.11.05-.22.16-.32.32-.11-.16-.32-.27-.49-.27h-.16s-.22.11-.27.11h-.22c-.11,0-.16,0-.22.05-.38.05-.76.05-1.08.22h-.27c-.27,0-.59.05-.97.22,0-.27-.11-.49-.32-.59-.11-.05-.22-.05-.32-.05-.16,0-.27.05-.38.11-.05.05-.32.16-.59.27-.27-.27-.7-.27-1.19-.27h-.11c-.16,0-.38,0-.43.16,0-.22-.11-.43-.32-.54-.11-.05-.22-.11-.32-.11-.16,0-.32.05-.43.16-.27.27-1.03.27-1.73.32-.43,0-.86.05-1.3.11h-.11c-.32-.05-.54-.11-1.24-.38-.05,0-.16-.05-.22-.05-.11,0-.22,0-.27.05-.16.11-.27.22-.27.38-.05.05-.22.16-.43.22.05-.22.05-.38,0-.49-.11-.22-.49-.43-.76-.43h-.16c-.27.05-.65.27-.59.59-.16.05-.32.11-.49.16-.16-.11-.27-.22-.27-.22-.11-.16-.32-.32-.54-.32h-.11c-.27.05-.43.22-.49.43-.05,0-.27.05-.49.11-.11-.05-.27-.11-.38-.16v-.16c-.05-.32-.32-.54-.65-.54-.16,0-.97.22-1.08.38-.05.05-.11.16-.16.22,0-.05-.05-.05-.11-.11-.11-.11-.38-.32-.54-.32h-.05c-.43.05-.81.27-1.19.38-.16.05-.27.11-.38.16-.11-.11-.27-.16-.43-.16-.11,0-.22,0-.27.05-.27.16-.81.16-1.35.16-.59,0-1.3.05-1.89.22-.05,0-.16-.05-.22-.05-.11,0-.22,0-.27.05,0,0-.27.05-.32.05-.05-.27-.22-.54-.32-.65s-.59-.16-.92-.16c-.11,0-1.57-.05-1.57-.05-.49,0-1.73,0-2.32.92-.43,0-.59-.16-.81-.38-.27-.22-.59-.49-1.19-.49-.27,0-.54.05-1.08.32l-.43.32s0-.05-.05-.05c-.11-.22-.38-.32-.65-.32-.49,0-.81.11-.76.22-.32-.05-.54-.05-.7-.16-.11-.05-.16-.05-.27-.05-.16,0-.27.05-.38.16-.16-.05-.27-.11-.43-.16-.32-.11-.7-.27-1.57-.27h-.05c-.05.05-.22.11-.32.16,0-.05-.05-.05-.05-.05-.32-.16-1.13-.38-1.3-.38-.32,0-.38.27-.43.59v.05c-.22.05-.38.11-.54.22h-.22c-.11,0-.22,0-.32.05-.05-.27-.32-.32-.54-.38h-.05c-.22,0-.54.22-.65.38-.16-.05-.27-.11-.49-.11-.11,0-.27,0-.43.05,0-.32-.16-.59-.49-.65h-.16c-.22,0-.43.11-.54.32,0,.05-.05.11-.05.16-.11.05-.27.11-.38.16,0-.16-.11-.32-.27-.43-.11-.05-.22-.11-.32-.11h-.16l-.97.27c-.86,0-1.89-.05-2.48-.27-.16,0-.43-.05-.65-.05-.16,0-.27,0-.32.05-.16-.16-.43-.32-.65-.32-.05,0-.11,0-.16.05-.27.16-.49.27-.38.54-.05,0-.16-.05-.22-.05h-.22c-.65,0-1.4.05-1.13.27-.38,0-.65-.11-.65-.16-.16-.11-.43-.27-.65-.27-.05,0-.11,0-.16.05-.27.11-.54.22-.54.49-.32,0-.7,0-.97.16-.32-.16-.7-.22-1.62-.38-.05,0-.38-.11-.49-.11-.16,0-.32.05-.38.22-.16-.22-.38-.32-.59-.32h-.05c-.16,0-.43.05-.59.43l-.92-.38c-.16,0-.32.11-.43.16-.22-.05-.43-.16-.7-.16-.11,0-.59.16-.76.22h-.22c-.76,0-1.35.27-1.62.65-.59.05-1.19.38-1.57.76-.22.22,0,.54.16.76,0,.05.05.05.11.11-.43.49-.38.92-.27.97-.16.16-.27.27-.16.49.05.22.16.22.32.27,0,.16-.38.65-.7,1.08-.11.16-.16.32-.11.49.05.16.11.32.27.38.05.05.16.05.27.11-.27.54-.38,1.3-.49,2.38-.05.22.11.27.27.27l-.27,1.08c-.05.27.16.38.38.49-.05.27-.11.65,0,.76.05.05.11.11.22.16-.11.59-.11,1.24.11,2,.05.11.05.22.11.27-.76,2.05-.76,4.7-.7,6.7v.76h.11l-.27.27v.11c-.22.59-.16,1.08-.11,1.73-.11.22-.05.59.22.76.11.05.22.11.38.11.11,0,.22-.05.32-.11l-.22.7c.05.11.11.16.22.27v.59c0,.32,0,.59-.05.76h-.16c-.38.16-.54.43-.49.76l.22,1.35h.05v.22c.05.38.05.7.43,1.35-.11.27-.16.54-.16.86,0,.16.05.38.22.49q.05.05.11.11c0,.11-.05.22-.11.32-.05.16.05.32.22.49-.16.11-.38.32-.43.49-.05.16-.05.27,0,.43-.16.22-.16.54-.05.76,0,.05.05.11.05.16-.05,0-.05.05-.05.05-.16.16-.32.49-.27.7-.16,1.51-.16,1.84.27,2.16.11.76,0,1.57-.11,2.38-.16,1.19-.38,2.54.11,3.94-.16.27-.32.54-.38.65.05.32.05.7.05,1.13,0,.65.05,1.35.16,1.89,0,.05.05.11.11.16l-.11.86c-.16,1.3-.32,2.27-.27,3.29v.27c.05.16.16.32.32.38.05.22.16.49.27.7-.22.11-.32.32-.32.59.05,1.13-.11,2.32-.27,3.56-.11.86-.22,1.73-.11,3.02.11.11.32.22.49.27,0,.22-.05.43-.05.7-.05.7-.11,1.4-.05,2.11-.11.11-.27.81-.22.97,0,.16.05.27.16.38-.05.11.05.32.16.49-.11.38-.11.76-.16,1.13,0,.32-.05.81-.11.92-.22.22-.27.43-.11.7.11.16.27.22.43.22.11,0,.22,0,.32-.05.05.11-.05.54-.16,1.51.05.11.11.27.16.59h-.11c-.32,0-.54.27-.59.59l-.11,1.73c0,.22.05.38.22.49,0,.11-.11.81-.11,1.08-.22.11-.32.32-.32.59.05.59.11,1.19.49,1.78.11.16.7.38.92.38,0,0,.76.16.81.16.38,0,.59-.22.7-.32,1.24,0,2.05.16,2.81.32.59.11,1.19.22,1.94.27h.16c.16,0,.27-.05.38-.11.05-.05.11-.05.16-.11.49.05.86.22,1.3.43.05.05.16.05.22.05.16,0,.27-.11.38-.22.27.16.59.27,1.3.38h.05c.11,0,.22-.05.32-.11.05.05.11.05.16.05.11.05.22.05.32.05.16,0,.32-.05.43-.22.16-.22.11-.43-.05-.59.22-.05.54-.11.76-.27.05,0,.16.05.16.05,0,.16.05.49.16.65.11.16.65.32.81.32v-.22c.11,0,.22.05.32.05l.11.11h.11c.11,0,.27,0,.38-.05.59.05,1.24.05,1.84.05h1.03c.76,0,1.57,0,2.32.11h.05c.27,0,.43-.16.54-.43.49.05,1.19.16,1.89.27l.11-.65.54.86c.05.05.49.05.76.05h.16l.97.16h.22c.22.05.49.11.81.11.65,0,1.51-.16,1.35-.49.32.27.76.38,1.35.38.27,0,.54,0,1.03-.11.16.11.38.16.59.16.11,0,.22,0,.32-.05.49,0,.97-.05,1.24-.27h.11s.22,0,.27-.05l1.4-.05c.32,0,.59.05.81.11h.16c.22,0,.59-.05.7-.16l.86.05c.22,0,.38,0,.54-.05.32.16.76.27,1.3.27.49,0,.97-.05,1.4-.16h.05c.11.22.38.38.65.38.92,0,1.4-.16,1.67-.32.27.05.54.11.86.11.43,0,.86-.05,1.24-.16.27-.05.54-.11.76-.11l1.03.38c1.4-.22,2.75-.38,4.05-.49.05.16.11.27.22.38.11.11.27.11.38.11.05,0,.86-.16,1.46-.22.97-.16,2.11-.38,3.02-.49v.05c.11.22.32.38.59.38h.05c.81-.11,1.57-.11,2.32-.11h1.03c.65,0,1.3,0,2-.22.16.11.38.22.54.22h.22c.16,0,.7-.16.81-.32.11-.16.22-.43.16-.65l.22-.11c.11.05.27.11.38.11.16,0,.27-.05.43-.11-.16.22-.22.54-.05.76.11.22.32.32.54.32h.16c.05,0,.11-.05.16-.05.11.05.22.05.32.05h.05c.59-.05.92-.22,1.19-.32.11.16.32.22.49.22.11,0,.16,0,.27-.05.38-.16.76-.38,1.4-.38.11.11.27.22.49.22h.05c.76-.05,1.35-.16,1.94-.27.7-.16,1.4-.27,2.86-.32.11.11.27.32.7.32.05,0,1.24-.27,1.24-.27.22,0,.43-.11.54-.27.38-.59.43-1.19.49-1.78,0-.16-.11-.27-.27-.38-.16-.32-.22-.7-.32-1.24h0c.16-.11.22-.32.22-.49l-.11-1.73c0-.32-.27-.59-.59-.59h-.11c.05-.32.11-.65.22-1.19-.16-.32-.22-.65-.27-.7.05,0,.16.05.22.05.22,0,.43-.11.54-.27.16-.27.11-.59-.11-.76-.05-.11-.11-.59-.11-.92,0-.27-.05-.54-.05-.81h.05c.11-.11,0-.49,0-.65v-.11c.16-.11.22-.27.27-.49,0-.32,0-.7-.22-.97.05-.7,0-1.4-.05-2.11,0-.22-.05-.49-.05-.7.16-.05.32-.11.43-.22s.27-.32.22-.54c-.05-.86-.16-1.73-.27-2.54-.16-1.24-.32-2.43-.27-3.56,0-.22-.11-.32-.27-.43l.05-.11c.05-.22.16-.49.22-.81.16-.05.27-.22.32-.38,0-.05.05-.16,0-.27.05-1.03-.05-2.05-.27-3.35l-.11-.81c.05-.05.05-.16.11-.22.11-.54.16-1.24.16-1.89,0-.38,0-.81-.11-1.73,0-.05-.05-.16-.11-.22.43-1.35.22-2.65.05-3.78-.11-.81-.22-1.62-.11-2.38h.05c.05,0,.16,0,.22-.05.22-.27.22-.38,0-2.43,0-.22-.05-.43-.27-.59,0,0,.05-.16.11-.22.11-.22,0-.49-.16-.7,0-.11.05-.27,0-.32-.11-.32-.38-.49-.43-.7.05-.16.11-.38.11-.54.05-.05.11-.05.16-.11.16-.11.22-.32.22-.49,0-.32-.11-.59-.16-.86.38-.65.43-.97.49-1.67l.22-1.3c.05-.32-.22-.43-.54-.54h-.05c-.11-.27-.11-.54-.11-.97,0-.22,0-.49-.05-.76.32-.16.65-.7.7-.92l-.05-.05c.27-.22.32-.76.16-1.03.05-.32.11-.76-.11-1.3l.05-.05c.16-.16.27-.38.22-.59Z"/>
      <path d="M517.94,499.29c6.7,1.82,9.5-2.41,12.02-7.11.58-1.09,1.24-2.12,1.8-3.21,4.56-8.93,8.66-18.05,8.21-28.37-.32-7.34-4.06-15.13-14.36-12.21h0c.09-1.78-.08-3.32.28-4.73,3.32-13.17,4.65-26.58,3.94-40.09-.27-5.17-1.81-10.49-3.85-15.28-1.67-3.91-4.07-7.37-3.61-11.93.13-1.25-.33-3.05-1.2-3.8-3.23-2.77-2.94-6.32-2.89-9.93.08-5.47-1.83-10.14-5.77-13.96-1.45-1.4-3.1-2.66-4.33-4.24-8.78-11.25-20.55-17.86-34.09-21.24-10.43-2.6-21.03-3.58-31.91-3.93-11.33-.36-20.9,2.22-30.04,8.25-1.18.78-2.76,1.26-4.18,1.32-4.32.19-8.77-.51-12.96.27-6.83,1.26-13.06,4.45-17.54,9.91-8.04,9.8-9.52,21.19-7.33,33.37.52,2.93.68,5.74-1.2,8.79-5.11,8.33-6.89,17.86-6.87,27.43,0,8.2,1.49,16.38,2.32,24.57.33,3.3.68,6.6,1.05,10.14-7.56-1.82-11.33-.19-13.56,7.46-.45,1.56-.74,3.19-.83,4.81-.56,9.39,2.99,17.95,5.55,26.71,1.3,4.43,2.98,8.48,6.63,11.57,1.04.88,1.74,2.53,1.95,3.92.9,5.95.84,12.13,2.46,17.85,3.42,12.12,8.71,23.29,16.93,33.23,7.22,8.73,16.21,14.43,26.33,18.26,13.76,5.2,28.24,5.55,42.72,3.48,18.51-2.66,34.6-10.08,46.06-25.39,6.88-9.21,12.53-19.14,14.57-30.77.88-5.03,2.42-9.93,3.71-15.14ZM526.03,451.39c3.07-.45,6.62-1.75,9.12,2.23-6.67,2.73-10.91,7.17-10.28,15.15,2.02-6.07,6.51-8.81,12.43-9.99h0c1.16,8.5-1.66,16.19-5.07,23.61-2.07,4.52-4.88,8.76-7.76,12.83-.79,1.11-3.14,1.7-4.62,1.5-.69-.1-1.64-2.73-1.46-4.08,1.03-7.97,2.39-15.9,3.55-23.85.57-3.92,1.05-7.86,1.33-11.82.17-2.35-.32-5.12,2.78-5.58ZM526.97,402.4c.96,11.06-1.05,21.54-2.59,32.21-.34,2.38-.76,4.74-1.02,6.36-1.63-10.15-3.43-20.86-5.04-31.61-1.57-10.54-2.78-21.17-10.19-29.8.33-.31.66-.61,1-.92,2.11,1.52,4.25,2.99,6.31,4.57,6.32,4.88,10.77,10.25,11.55,19.18ZM520.23,383.26c-3.33-2.07-6.53-4.04-10.34-6.41,10.1-.45,9.7-1.28,10.34,6.41ZM505.52,375.48c-.21-.42-.43-.83-.64-1.25,3.5-2.48,7.01-4.97,10.39-7.37h0c.84,1.97,1.48,3.43,2.24,5.18-4.1,1.17-8.04,2.31-12,3.44ZM511.32,367.16c-.36-.23-.73-.44-1.1-.66,1.37-2.67,2.74-5.33,4.42-8.57,2.78,5.29-2.29,6.36-3.32,9.23ZM509.34,349.27c1.84,2.63,5.42,4.27,2.48,8.74-2.64,4.01-4.18,8.74-6.26,13.12-.39.84-1.05,1.55-2.16,3.15-.51-2.1-1.17-3.23-.85-3.79,3.75-6.56,5.87-13.61,6.8-21.22ZM473.02,326c11.23,2.34,20.55,8.3,29.23,15.62,4.56,3.85,4.64,8.36,3.38,13.28-1.28,4.96-3.02,9.81-4.72,15.24-15.29-10.41-32.01-11.8-48.32-11.04h0c.45-9.36,1.35-18.12,1.06-26.84-.11-3.29-2.99-6.48-5.08-10.7,8.32,1.49,16.44,2.76,24.47,4.43ZM445.54,323.67c2.88,3.64,5.56,7.58,5.08,12.85-.68,7.45-.88,14.94-1.26,21.94-3.87,0-6.72-.16-9.53.04-2.73.19-2.78-1.43-2.64-3.3.67-9.11-1.56-17.61-5.66-25.63-1.08-2.11-2.85-3.86-4.88-6.53,4.03-.49,8.22-1.3,12.45-1.39,2.19-.04,5.28.53,6.46,2.02ZM427.34,329.48c3.61,3.75,4.86,8.27,5.5,12.59-5.09-4.49-10.45-9.22-15.89-14h0c4.72-3.17,6.31-2.83,10.39,1.41ZM372.04,358.14c.13-6.11,1.66-12.28,7.46-15.45,3.73-2.03,8.36-3.54,12.53-3.39,6.43.23,13.25.74,18.72,4.88,4.62,3.5,8.87,7.5,13.3,11.27.49.41,1.02.79,1.68,1.29.24-3.67-9.32-12.46-16.16-16.19-7.48-4.08-15.37-4.63-23.62-4.37,8.55-6.67,18.49-6.44,28.11-4.4,10.71,2.27,19.66,15.11,20.21,26.85-13.15-.94-26.27-1.52-38.52,4.66-2.39,1.2-5.56,2.31-7.79,3.86-4.91,3.43-7.15,4.93-12.08,8.31-.49-.18-2.48,2.47-2.98,2.29v.03c-.33-6.55-1-13.11-.87-19.65ZM365.52,486.02c-.03,2.32-.03,4.17-.03,5.08-2.69-3.31-6.61-8.98-9.07-16.94-2.84-9.2-2.41-17.1-1.83-21.54,2.72,2.08,5.27,4.04,7.69,5.9.26-.9.64-2.73.02-4.82-1.28-4.3-5.66-5.77-6.12-5.92h0c.91-.68,4.64-3.38,6.99-2.07,1.76.98,1.91,3.74,2,5.59.7,15.46.39,32.84.36,34.71ZM366.63,424.85c-2.71-9.78-1.56-28.26,2.49-37.48,2.63-6.01,7.97-9.04,13.56-11.95-12.25,14.36-11.45,32.81-16.05,49.43ZM472.66,506.85c0,13.14-6.5,20.15-19.68,20.39-5.27.1-10.55-1.36-15.84-1.68-5.03-.3-10.21-.68-15.14.13-8.86,1.47-20.25-6.77-20.32-15.83-.03-4.88.18-10.09,1.88-14.53,1.12-2.94,4.72-5.8,7.85-6.95,6.58-2.42,13.52-3.97,20.42-5.32,6.79-1.32,13.47-.04,19.88,2.5,2.63,1.05,5.14,2.43,7.84,3.28,9.66,3.03,13.84,6.64,13.1,18.01ZM503.77,487.98c-2.66,1.63-4.85,4.04-7.49,5.72-5.01,3.17-10.61,2.13-13.97-1.66-9.65-10.92-21.83-16.14-35.79-16.95-13.66-.79-27.76-2.46-40.35,4.99-5.32,3.14-9.79,7.7-14.89,11.29-6.07,4.27-16.32.98-18.37-6.12-2.37-8.2-3-16.73-3.93-25.16-.74-6.72-.75-13.58-.17-20.44.52-6.15.37-12.3,1.55-18.34,2.42-12.4,4.2-25.05,10-36.5,7.8-15.4,20.24-23.47,37.75-23.27,6.68.08,13.37.02,20.06.02h.03c7.8,0,15.67-.62,23.39.17,10.24,1.05,20.54,2.17,30.1,6.94,12.57,6.27,18.77,16.97,21.49,29.93,2.67,12.66,4.67,25.48,6.69,38.28,1.68,10.66.49,21.14-2.14,31.61-1.96,7.76-6.53,14.94-13.96,19.5Z"/>
      <path class="cls-2" d="M456.4,509.4c2.11-.29,5.18-.78,4.88-4.79-3.06,0-6.1-.28-9.07.05-8.81,1-17.49,2.68-26.17-1.34-2.56-1.18-6.13-.18-9.23-.18h0c-.19.37-.39.73-.59,1.09,1.22,1.21,2.23,2.99,3.7,3.55,11.93,4.65,24.24,3.32,36.48,1.62Z"/>
      <path d="M400.2,430.5c-6.74-.53-10.19,5-7.94,13.85,1.08-2.23,1.18-4.88,2.32-6.96,1.35-2.48,3.59-4.47,5.62-6.89Z"/>
      <path d="M392.26,444.37s0-.01,0-.02c0,0,0,0,0,.01h0Z"/>
      <path d="M416.78,436.33c-.57-4.2-5.69-8.51-12.26-7.33,8.02,2.37,11.61,7.27,10.42,15.47,3.55-2.28,2.2-5.54,1.84-8.15Z"/>
      <path d="M412.87,440.45h0c-.79-5.83-5.39-8.96-11.66-7.98.07.07,1.58,1.68,1,3.58-.4,1.3-1.52,1.9-1.88,2.08-1.88.99-3.85.13-4.13,0,0,.33.11,1.17-.02,1.98-.61,4.02,1.03,5.57,5.08,5.11,2.47-.28,4.99-.1,7.49-.04,3.32.08,4.52-1.74,4.12-4.73Z"/>
      <path d="M423.32,455.31c-5.22,2.23-10.45,4.43-15.63,6.75-.36.16-.35,1.17-.51,1.79.63.15,1.35.58,1.86.4,3.3-1.17,6.65-2.28,9.8-3.8,1.98-.95,3.65-2.55,5.45-3.86-.33-.43-.64-.86-.97-1.29Z"/>
      <path d="M421.28,437.34h0c.74,2.28,1.49,4.56,2.55,7.79,2.06-4.26-.91-12.68-4.35-15.89-11.62-10.87-30.9-2.63-37.95,8.6-.43.68.41,2.13.82,3.96,5.4-8.38,11.69-13.16,20.89-14.51,8.5-1.25,15.44,2.02,18.03,10.05Z"/>
      <path d="M384.69,407.05h0c4.3-6.68,10.03-10.64,18.33-9.52,4.72.64,9.46,1.22,14.11,2.18,2.87.59,4.69.21,6-2.65,1.19-2.59.96-4.67-1.47-6.05-8.81-5.02-25.56-5.92-33.01,3.63-3.3,4.24-6.81,8.45-7.7,14.68,1.26-.17,1.95-.06,2.3-.35.59-.5,1-1.25,1.43-1.92Z"/>
      <path d="M491.82,431.86h.02c-3.24-2.29-11.87-6.56-22.34-4.82-6.1,1.02-12.36,9.35-13.04,15.94-.07.67.48,1.4.74,2.1.59-.54,1.4-.97,1.7-1.63.7-1.61,1.14-3.34,1.72-5,1.2-3.43,3.26-6.14,6.1-7.69,0,0,1.75-.98,4.11-1.31,5.25-.75,15.88-1.01,28.01,12.07.42.45.98-.74,1.46-1.1-1.61-2.36-4.35-5.63-8.5-8.55Z"/>
      <path d="M476.76,431.25h0c-7.57-.74-13.67,5.34-12.76,12.69.11.9,1.36,1.67,2.08,2.5.28-.38.58-.76.86-1.14-1.08-7.54,4.32-10.78,9.81-14.05Z"/>
      <path d="M475.04,434.66c-.16,1.86.32,4.34-.6,5.08-1.18.95-3.49.5-5.37.66-.31,5.77-.28,6.1,2.21,6.4,4.61.54,9.24.82,13.76,1.2,2.27-9.26-2.25-14.59-10-13.34Z"/>
      <path d="M490.18,391.96c-8.43-4.29-17.43-3.8-26.18-.31-1,.4-2.43,1.29-2.53,2.09-.25,2.01-.47,4.42.42,6.06,1.46,2.71,4.38,1.44,6.59.89,13.1-3.29,24.7-2.21,32.83,10.31.57.87,1.83,1.3,2.77,1.92.37-.41.74-.82,1.11-1.23-2.69-8.27-7-15.66-15-19.74Z"/>
      <path d="M483.47,433.13c5.23,5.44,6.17,7.64,4.76,14.55,3.43-.4,3.39-2.6,3.28-4.72-.27-5.02-3.75-9.23-8.04-9.83Z"/>
      <path d="M454.6,458.24c5.58,2.54,11.16,5.08,16.74,7.62.28-.62.57-1.24.85-1.86-5.51-2.54-11.02-5.08-16.53-7.62l-1.06,1.86Z"/>
      <path d="M453.04,464.29c-1.02-8.03-5.35-13.85-14.59-13.26-9.47-.75-13.19,6.15-14.57,13.9-.63,3.53.92,5.5,5.18,6.74,6.9,2,12.23,1.77,19.04.56,3.75-.66,5.39-4.37,4.93-7.94h0ZM442.33,471.02h0c-1.6.22-3.09.25-4.69.08-.95-.11-1.91-.24-2.85-.38-.16.08-.86-.07-.8-.09h-.02c-2.69-.28-5.99-1.83-6.45-4.91-.57-3.77.26-6.96,3.35-9.35.27-.2.54-.39.82-.57.39-.38.84-.69,1.34-.92,3.71-1.66,7.14-1.4,10.8.21,2.6,1.15,5.01,3.4,5.76,6.21,1.34,5.01-2.53,9.08-7.26,9.72Z"/>
      <path d="M465.52,494.18c-7.11-2.58-14.42-4.84-21.83-6.31-11.85-2.35-23.3-.7-34.24,4.87-3.53,1.79-3.86,4.26-2.99,7.04,2.29,7.32,7.05,12.88,13.43,17.09,6.26,4.13,13.21,4.91,20.45,4.41h0c2.09,0,4.18.08,6.26-.02,6.67-.32,12.84-2.09,16.98-7.69,2.17-2.94,3.66-6.39,5.3-9.68,2.24-4.52,1.37-7.99-3.36-9.7ZM462.97,510.25c-2.72,6.83-8.49,8.23-14.07,8.34-7.51.15-15.17-.35-22.52-1.79-4.01-.78-8.45-3.33-11.19-6.36-.77-.85-1.18-2.35-1.35-3.88,4.19,5.8,10.8,5.72,16.39,6.08,10.77.69,21.74,1.32,32.74-2.4h0ZM452.21,504.66c2.97-.33,6.01-.05,9.07-.05.29,4.01-2.78,4.5-4.88,4.79-12.23,1.7-24.54,3.03-36.48-1.62-1.47-.57-2.48-2.34-3.7-3.55.19-.36.39-.72.59-1.08h0c3.1,0,6.67-1,9.23.18M466.95,498.97h0c-.79,0-1.6.11-2.36-.03-6.53-1.17-13-2.97-19.58-3.45-8.17-.6-16.42-.24-24.64-.08-2.13.05-4.25.93-7.07,1.59-.1-.37-.86-1.64-.55-2.55.25-.75,1.71-1.38,2.73-1.56,6.68-1.21,13.51-3.66,20.06-3.07,9.63.88,19.06,3.91,28.54,6.15,1.1.27,2.03,1.28,3.04,1.95-.06.35-.12.7-.18,1.05Z"/>
    </g>
  </g>
</svg>