<?xml version="1.0" encoding="UTF-8"?>
<svg id="Layer_1" xmlns="http://www.w3.org/2000/svg" version="1.1" viewBox="0 0 1024 1024">
  <!-- Generator: Adobe Illustrator 29.6.1, SVG Export Plug-In . SVG Version: 2.1.1 Build 9)  -->
  <defs>
    <style>
      .st0 {
        fill: none;
      }

      .st1 {
        fill: #fff;
      }
    </style>
  </defs>
  <path class="st0" d="M588.4,433.7c1-2.9,6.1-3.9,3.3-9.2-1.7,3.2-3,5.9-4.4,8.6.4.2.7.4,1.1.7Z"/>
  <path class="st0" d="M529.6,425.6h0c16.3-.8,33,.6,48.3,11,1.7-5.4,3.4-10.3,4.7-15.2,1.3-4.9,1.2-9.4-3.4-13.3-8.7-7.3-18-13.3-29.2-15.6-8-1.7-16.1-2.9-24.5-4.4,2.1,4.2,5,7.4,5.1,10.7.3,8.7-.6,17.5-1.1,26.8Z"/>
  <path class="st0" d="M580.5,440.8c1.1-1.6,1.8-2.3,2.2-3.2,2.1-4.4,3.6-9.1,6.3-13.1,2.9-4.5-.6-6.1-2.5-8.7-.9,7.6-3.1,14.7-6.8,21.2-.3.6.3,1.7.9,3.8Z"/>
  <path class="st0" d="M509.9,408.6c-.6-4.3-1.9-8.8-5.5-12.6-4.1-4.2-5.7-4.6-10.4-1.4h0c5.4,4.8,10.8,9.5,15.9,14Z"/>
  <path class="st0" d="M508.6,396.1c4.1,8,6.3,16.5,5.7,25.6-.1,1.9,0,3.5,2.6,3.3,2.8-.2,5.7,0,9.5,0,.4-7,.6-14.5,1.3-21.9.5-5.3-2.2-9.2-5.1-12.9-1.2-1.5-4.3-2.1-6.5-2-4.2,0-8.4.9-12.4,1.4,2,2.7,3.8,4.4,4.9,6.5Z"/>
  <path class="st0" d="M185.1,795.5h-81v135h135v-135h-54ZM210.2,847.1c.2.3.1.8-.2,1h0c0,.3-.4.8-.7,1,0,.3,0,.5,0,.8,0,.4,0,.7.1,1h0c.3.1.6.2.5.5l-.2,1.3c0,.7-.1,1-.5,1.7,0,.3.2.5.2.9s0,.4-.2.5c0,0-.1,0-.2.1,0,.2,0,.4-.1.5,0,.2.3.4.4.7,0,0,0,.2,0,.3.2.2.3.5.2.7,0,0-.1.2-.1.2.2.2.3.4.3.6.2,2.1.2,2.2,0,2.4,0,0-.2,0-.2,0h0c-.1.8,0,1.6.1,2.4.2,1.1.4,2.4,0,3.8,0,0,.1.2.1.2.1.9.1,1.4.1,1.7,0,.6,0,1.4-.2,1.9,0,0,0,.2-.1.2v.8c.3,1.3.4,2.3.4,3.3,0,.1,0,.2,0,.3,0,.2-.2.3-.3.4,0,.3-.2.6-.2.8h0c.2.2.3.3.3.5,0,1.1.1,2.3.3,3.6.1.8.2,1.7.3,2.5,0,.2-.1.4-.2.5s-.3.2-.4.2c0,.2,0,.5,0,.7,0,.7.1,1.4,0,2.1.2.3.2.6.2,1,0,.2-.1.4-.3.5h0c0,.3.1.6,0,.8h0c0,.3,0,.5,0,.8s0,.8.1.9c.2.2.3.5.1.8-.1.2-.3.3-.5.3s-.2,0-.2,0c0,0,.1.4.3.7-.1.5-.2.9-.2,1.2h.1c.3,0,.6.3.6.6v1.7c.1.2,0,.4-.1.5h0c.1.5.2.9.3,1.2.2.1.3.2.3.4,0,.6-.1,1.2-.5,1.8-.1.2-.3.3-.5.3,0,0-1.2.3-1.2.3-.4,0-.6-.2-.7-.3-1.5,0-2.2.2-2.9.3-.6.1-1.2.2-1.9.3h0c-.2,0-.4-.1-.5-.2-.6,0-1,.2-1.4.4-.1,0-.2,0-.3,0-.2,0-.4,0-.5-.2-.3.1-.6.3-1.2.3h0c-.1,0-.2,0-.3,0,0,0-.1,0-.2,0h-.2c-.2,0-.4-.1-.5-.3-.2-.2-.1-.5,0-.8-.2,0-.3.1-.4.1s-.3,0-.4-.1h-.2c0,.3,0,.6-.2.8-.1.2-.6.3-.8.3h-.2c-.2,0-.4-.1-.5-.2-.7.2-1.4.2-2,.2h-1c-.8,0-1.5,0-2.3.1h0c-.3,0-.5-.2-.6-.4h0c-.9,0-2.1.3-3,.4-.6,0-1.4.2-1.5.2-.1,0-.3,0-.4-.1-.1-.1-.2-.2-.2-.4-1.3.1-2.6.3-4,.5l-1-.4c-.2,0-.5,0-.8.1-.4.1-.8.2-1.2.2s-.6,0-.9-.1c-.3.2-.8.3-1.7.3s-.5-.2-.6-.4h0c-.4.1-.9.2-1.4.2s-1-.1-1.3-.3c-.2,0-.3,0-.5,0h-.9c-.1,0-.5.1-.7.1h-.2c-.2,0-.5-.1-.8-.1h-1.4c0,.1-.3.1-.3.1h-.1c-.3.2-.8.3-1.2.3-.1,0-.2,0-.3,0-.2,0-.4,0-.6-.2-.5.1-.8.1-1,.1-.6,0-1-.1-1.4-.4.2.3-.7.5-1.3.5s-.6,0-.8-.1h-.2l-1-.2h-.2c-.3,0-.7,0-.8,0l-.5-.9v.6c-.8-.1-1.5-.2-2-.3-.1.3-.3.4-.5.4h0c-.8-.1-1.6-.1-2.3-.1h-1c-.6,0-1.2,0-1.8,0-.1,0-.3,0-.4,0h-.2c-.1-.1-.2-.2-.3-.2v.2c-.2,0-.7-.2-.8-.3-.1-.2-.2-.5-.2-.6,0,0-.1,0-.2,0-.2.2-.5.2-.8.3.2.2.2.4,0,.6-.1.2-.3.2-.4.2s-.2,0-.3,0c0,0-.1,0-.2,0-.1,0-.2.1-.3.1h0c-.7-.1-1-.2-1.3-.4-.1.1-.2.2-.4.2s-.2,0-.2,0c-.4-.2-.8-.4-1.3-.4,0,0-.1,0-.2.1-.1,0-.2.1-.4.1h-.2c-.8,0-1.3-.2-1.9-.3-.8-.2-1.6-.3-2.8-.3-.1.1-.3.3-.7.3s-.8-.2-.8-.2c-.2,0-.8-.2-.9-.4-.4-.6-.4-1.2-.5-1.8,0-.3.1-.5.3-.6,0-.3.1-1,.1-1.1-.2-.1-.2-.3-.2-.5v-1.7c.2-.3.4-.6.7-.6h.1c0-.3-.1-.5-.2-.6.1-1,.2-1.4.2-1.5-.1,0-.2,0-.3,0-.2,0-.3,0-.4-.2-.2-.3-.1-.5.1-.7,0-.1.1-.6.1-.9,0-.4,0-.8.2-1.1-.1-.2-.2-.4-.2-.5-.1-.1-.2-.2-.2-.4,0-.2.1-.9.2-1,0-.7,0-1.4,0-2.1,0-.3,0-.5,0-.7-.2,0-.4-.2-.5-.3-.1-1.3,0-2.2.1-3,.2-1.2.3-2.4.3-3.6,0-.3.1-.5.3-.6-.1-.2-.2-.5-.3-.7-.2,0-.3-.2-.3-.4v-.3c0-1,.1-2,.3-3.3v-.9c0,0,0-.1,0-.2-.1-.5-.2-1.2-.2-1.9s0-.8,0-1.1c0-.1.2-.4.4-.6-.5-1.4-.3-2.8-.1-3.9.1-.8.2-1.6.1-2.4-.4-.3-.4-.6-.3-2.2,0-.2.1-.5.3-.7,0,0,0,0,0,0,0,0,0-.1,0-.2-.1-.2-.1-.5,0-.8,0-.2,0-.3,0-.4,0-.2.3-.4.4-.5-.2-.2-.3-.3-.2-.5,0-.1.1-.2.1-.3q0,0-.1-.1c-.2-.1-.2-.3-.2-.5,0-.3,0-.6.2-.9-.4-.6-.4-1-.4-1.3v-.2h0l-.2-1.3c0-.3.1-.6.5-.8h.2c0-.2,0-.4,0-.8v-.6c-.1-.1-.2-.2-.2-.3l.2-.7c-.1,0-.2.1-.3.1-.2,0-.3,0-.4-.1-.3-.2-.3-.5-.2-.8,0-.6-.1-1.1.1-1.7h0c0-.1.3-.4.3-.4h-.1v-.8c0-2,0-4.6.7-6.7,0,0,0-.2-.1-.3-.2-.8-.2-1.4-.1-2-.1,0-.2-.1-.2-.2-.1-.1,0-.5,0-.8-.2-.1-.4-.2-.4-.5l.3-1.1c-.2,0-.3,0-.3-.3.1-1.1.2-1.8.5-2.4-.1,0-.2,0-.3-.1-.2,0-.2-.2-.3-.4,0-.2,0-.3.1-.5.3-.4.7-.9.7-1.1-.2,0-.3,0-.3-.3-.1-.2,0-.3.2-.5-.1,0-.2-.5.3-1,0,0-.1,0-.1-.1-.2-.2-.4-.5-.2-.8.4-.4,1-.7,1.6-.8.3-.4.9-.6,1.6-.6h.2c.2,0,.6-.2.8-.2.3,0,.5.1.7.2.1,0,.3-.2.4-.2l.9.4c.2-.4.4-.4.6-.4h0c.2,0,.4.1.6.3,0-.2.2-.2.4-.2s.4.1.5.1c.9.2,1.3.2,1.6.4.3-.2.6-.2,1-.2,0-.3.3-.4.5-.5,0,0,.1,0,.2,0,.2,0,.5.2.6.3,0,0,.3.2.6.2-.3-.2.5-.3,1.1-.3h.2c0,0,.2,0,.2,0-.1-.3.1-.4.4-.5,0,0,.1,0,.2,0,.2,0,.5.2.6.3,0,0,.2,0,.3,0s.5,0,.6,0c.6.2,1.6.3,2.5.3l1-.3h.2c.1,0,.2,0,.3.1.2.1.3.3.3.4.1,0,.3-.1.4-.2,0,0,0-.1,0-.2.1-.2.3-.3.5-.3h.2c.3,0,.5.3.5.6.2,0,.3,0,.4,0,.2,0,.3,0,.5.1.1-.2.4-.4.6-.4h0c.2,0,.5.1.5.4.1,0,.2,0,.3,0h.2c.2-.1.3-.2.5-.2h0c0-.4.1-.6.4-.6s1,.2,1.3.4c0,0,0,0,0,0,.1,0,.3-.1.3-.2h0c.9,0,1.2.2,1.6.3.2,0,.3.1.4.2.1-.1.2-.2.4-.2s.2,0,.3,0c.2.1.4.1.7.2,0-.1.3-.2.8-.2s.5.1.6.3c0,0,0,0,0,0l.4-.3c.5-.3.8-.3,1.1-.3.6,0,.9.3,1.2.5.2.2.4.4.8.4.6-.9,1.8-.9,2.3-.9,0,0,1.5,0,1.6,0,.3,0,.8,0,.9.2s.3.4.3.6c0,0,.3,0,.3,0,0,0,.2,0,.3,0s.2,0,.2,0c.6-.2,1.3-.2,1.9-.2s1.1,0,1.3-.2c0,0,.2,0,.3,0,.2,0,.3,0,.4.2.1,0,.2-.1.4-.2.4-.1.8-.3,1.2-.4h0c.2,0,.4.2.5.3,0,0,.1,0,.1.1,0,0,.1-.2.2-.2.1-.2.9-.4,1.1-.4.3,0,.6.2.6.5v.2c.1,0,.3.1.4.2.2,0,.4-.1.5-.1,0-.2.2-.4.5-.4h.1c.2,0,.4.2.5.3,0,0,.1.1.3.2.2,0,.3-.1.5-.2,0-.3.3-.5.6-.6h.2c.3,0,.6.2.8.4,0,.1,0,.3,0,.5.2,0,.4-.2.4-.2,0-.2.1-.3.3-.4,0,0,.2,0,.3,0s.2,0,.2,0c.7.3.9.3,1.2.4h.1c.4,0,.9-.1,1.3-.1.7,0,1.5,0,1.7-.3s.3-.2.4-.2.2,0,.3.1c.2.1.3.3.3.5,0-.2.3-.2.4-.2h.1c.5,0,.9,0,1.2.3.3-.1.5-.2.6-.3.1,0,.2-.1.4-.1s.2,0,.3,0c.2.1.3.3.3.6.4-.2.7-.2,1-.2h.3c.3-.2.7-.2,1.1-.2,0,0,.1,0,.2,0h.2c0,0,.3-.1.3-.1h.2c.2,0,.4.1.5.3.1-.2.2-.3.3-.3,0,0,.1,0,.2,0,.2,0,.4,0,.5,0,.1,0,.3.1.4.2l.4-.2h.1c.2,0,.5.1.6.2,0,0,0,0,.1,0,.2-.2.5-.2.8-.2s.6.2.8.2h.2c.7,0,1.3.3,1.6.6.5,0,1.1.3,1.5.8.2.2.2.5,0,.8,0,.1-.2.2-.2.2.3.4.2.8.2,1,.1.2.1.3,0,.5-.1.2-.3.3-.5.3.2,0,.5.4.6.5.1.1.2.4.2.6s0,.4-.2.5c0,0-.2,0-.3.1.2.5.3,1.1.4,2,0,.2,0,.6-.2.8l.3,1c0,.3-.1.6-.4.8,0,.2,0,.4,0,.4,0,0-.1.1-.2.2.1.6,0,1.2,0,1.8,0,0,0,.2-.1.2.8,1.9.7,4.5.7,6.5.2.2.4.5.4.8,0,.2,0,.4-.2.6h0c.2.6.2,1,.1,1.4Z"/>
  <path class="st0" d="M600.3,523.5c-.3,4-.8,7.9-1.3,11.8-1.2,8-2.5,15.9-3.5,23.8-.2,1.4.8,4,1.5,4.1,1.5.2,3.8-.4,4.6-1.5,2.9-4.1,5.7-8.3,7.8-12.8,3.4-7.4,6.2-15.1,5.1-23.6h0c-5.9,1.2-10.4,3.9-12.4,10-.6-8,3.6-12.4,10.3-15.2-2.5-4-6-2.7-9.1-2.2-3.1.5-2.6,3.2-2.8,5.6Z"/>
  <path class="st0" d="M592.5,449.7c-2.1-1.6-4.2-3.1-6.3-4.6-.3.3-.7.6-1,.9,7.4,8.6,8.6,19.3,10.2,29.8,1.6,10.7,3.4,21.5,5,31.6.3-1.6.7-4,1-6.4,1.5-10.7,3.6-21.2,2.6-32.2-.8-8.9-5.2-14.3-11.5-19.2Z"/>
  <path class="st0" d="M586.9,443.4c3.8,2.4,7,4.3,10.3,6.4-.6-7.7-.2-6.9-10.3-6.4Z"/>
  <path class="st0" d="M450,444.3c.5.2,2.5-2.5,3-2.3,4.9-3.4,7.2-4.9,12.1-8.3,2.2-1.6,5.4-2.7,7.8-3.9,12.3-6.2,25.4-5.6,38.5-4.7-.6-11.7-9.5-24.6-20.2-26.9-9.6-2-19.6-2.3-28.1,4.4,8.2-.3,16.1.3,23.6,4.4,6.8,3.7,16.4,12.5,16.2,16.2-.7-.5-1.2-.9-1.7-1.3-4.4-3.8-8.7-7.8-13.3-11.3-5.5-4.1-12.3-4.6-18.7-4.9-4.2-.2-8.8,1.4-12.5,3.4-5.8,3.2-7.3,9.3-7.5,15.4-.1,6.5.5,13.1.9,19.7h0Z"/>
  <path class="st0" d="M592.3,433.4c-3.4,2.4-6.9,4.9-10.4,7.4.2.4.4.8.6,1.2,4-1.1,7.9-2.3,12-3.4-.8-1.7-1.4-3.2-2.2-5.2h0Z"/>
  <path class="st0" d="M158.1,228.5h81V93.5H104.1v135h54ZM133.1,143.9h0c0-.1.3-.4.3-.4h-.1v-.8c0-2,0-4.6.7-6.7,0,0,0-.2-.1-.3-.2-.8-.2-1.4-.1-2-.1,0-.2-.1-.2-.2-.1-.1,0-.5,0-.8-.2-.1-.4-.2-.4-.5l.3-1.1c-.2,0-.3,0-.3-.3.1-1.1.2-1.8.5-2.4-.1,0-.2,0-.3-.1-.2,0-.2-.2-.3-.4,0-.2,0-.3.1-.5.3-.4.7-.9.7-1.1-.2,0-.3,0-.3-.3-.1-.2,0-.3.2-.5-.1,0-.2-.5.3-1,0,0-.1,0-.1-.1-.2-.2-.4-.5-.2-.8.4-.4,1-.7,1.6-.8.3-.4.9-.6,1.6-.6h.2c.2,0,.6-.2.8-.2.3,0,.5.1.7.2.1,0,.3-.2.4-.2l.9.4c.2-.4.4-.4.6-.4h0c.2,0,.4.1.6.3,0-.2.2-.2.4-.2s.4.1.5.1c.9.2,1.3.2,1.6.4.3-.2.6-.2,1-.2,0-.3.3-.4.5-.5,0,0,.1,0,.2,0,.2,0,.5.2.6.3,0,0,.3.2.6.2-.3-.2.5-.3,1.1-.3h.2c0,0,.2,0,.2,0-.1-.3.1-.4.4-.5,0,0,.1,0,.2,0,.2,0,.5.2.6.3,0,0,.2,0,.3,0s.5,0,.6,0c.6.2,1.6.3,2.5.3l1-.3h.2c.1,0,.2,0,.3.1.2.1.3.3.3.4.1,0,.3-.1.4-.2,0,0,0-.1,0-.2.1-.2.3-.3.5-.3h.2c.3,0,.5.3.5.6.2,0,.3,0,.4,0,.2,0,.3,0,.5.1.1-.2.4-.4.6-.4h0c.2,0,.5.1.5.4.1,0,.2,0,.3,0h.2c.2-.1.3-.2.5-.2h0c0-.4.1-.6.4-.6s1,.2,1.3.4c0,0,0,0,0,0,.1,0,.3-.1.3-.2h0c.9,0,1.2.2,1.6.3.2,0,.3.1.4.2.1-.1.2-.2.4-.2s.2,0,.3,0c.2.1.4.1.7.2,0-.1.3-.2.8-.2s.5.1.6.3c0,0,0,0,0,0l.4-.3c.5-.3.8-.3,1.1-.3.6,0,.9.3,1.2.5.2.2.4.4.8.4.6-.9,1.8-.9,2.3-.9,0,0,1.5,0,1.6,0,.3,0,.8,0,.9.2.1.1.3.4.3.6,0,0,.3,0,.3,0,0,0,.2,0,.3,0s.2,0,.2,0c.6-.2,1.3-.2,1.9-.2s1.1,0,1.3-.2c0,0,.2,0,.3,0,.2,0,.3,0,.4.2.1,0,.2-.1.4-.2.4-.1.8-.3,1.2-.4h0c.2,0,.4.2.5.3s.1,0,.1.1c0,0,.1-.2.2-.2.1-.2.9-.4,1.1-.4.3,0,.6.2.6.5v.2c.1,0,.3.1.4.2.2,0,.4-.1.5-.1,0-.2.2-.4.5-.4h.1c.2,0,.4.2.5.3,0,0,.1.1.3.2.2,0,.3-.1.5-.2,0-.3.3-.5.6-.6h.2c.3,0,.6.2.8.4,0,.1,0,.3,0,.5.2,0,.4-.2.4-.2,0-.2.1-.3.3-.4,0,0,.2,0,.3,0s.2,0,.2,0c.7.3.9.3,1.2.4h.1c.4,0,.9-.1,1.3-.1.7,0,1.5,0,1.7-.3.1-.1.3-.2.4-.2s.2,0,.3.1c.2.1.3.3.3.5,0-.2.3-.2.4-.2h.1c.5,0,.9,0,1.2.3.3-.1.5-.2.6-.3.1,0,.2-.1.4-.1s.2,0,.3,0c.2.1.3.3.3.6.4-.2.7-.2,1-.2h.3c.3-.2.7-.2,1.1-.2,0,0,.1,0,.2,0h.2c0,0,.3-.1.3-.1h.2c.2,0,.4.1.5.3.1-.2.2-.3.3-.3,0,0,.1,0,.2,0,.2,0,.4,0,.5,0,.1,0,.3.1.4.2l.4-.2h.1c.2,0,.5.1.6.2,0,0,0,0,.1,0,.2-.2.5-.2.8-.2s.6.2.8.2h.2c.7,0,1.3.3,1.6.6.5,0,1.1.3,1.5.8.2.2.2.5,0,.8,0,.1-.2.2-.2.2.3.4.2.8.2,1,.1.2.1.3,0,.5-.1.2-.3.3-.5.3.2,0,.5.4.6.5.1.1.2.4.2.6s0,.4-.2.5c0,0-.2,0-.3.1.2.5.3,1.1.4,2,0,.2,0,.6-.2.8l.3,1c0,.3-.1.6-.4.8,0,.2,0,.4,0,.4s-.1.1-.2.2c.1.6,0,1.2,0,1.8,0,0,0,.2-.1.2.8,1.9.7,4.5.7,6.5.2.2.4.5.4.8,0,.2,0,.4-.2.6h0c.2.6.2,1,.1,1.3.2.3.1.8-.2,1h0c0,.3-.4.8-.7,1,0,.3,0,.5,0,.8,0,.4,0,.7.1,1h0c.3.1.6.2.5.5l-.2,1.3c0,.7-.1,1-.5,1.7,0,.3.2.5.2.9s0,.4-.2.5c0,0-.1,0-.2.1,0,.2,0,.4-.1.5,0,.2.3.4.4.7,0,0,0,.2,0,.3.2.2.3.5.2.7,0,0-.1.2-.1.2.2.2.3.4.3.6.2,2.1.2,2.2,0,2.4,0,0-.2,0-.2,0h0c-.1.8,0,1.6.1,2.4.2,1.1.4,2.4,0,3.8,0,0,.1.2.1.2.1.9.1,1.3.1,1.7,0,.6,0,1.4-.2,1.9,0,0,0,.2-.1.2v.8c.3,1.3.4,2.3.4,3.3,0,.1,0,.2,0,.3,0,.2-.2.3-.3.4,0,.3-.2.6-.2.8h0c.2.2.3.3.3.5,0,1.1.1,2.3.3,3.6.1.8.2,1.7.3,2.5,0,.2-.1.4-.2.5-.1.1-.3.2-.4.2,0,.2,0,.5,0,.7,0,.7.1,1.4,0,2.1.2.3.2.6.2,1,0,.2-.1.4-.3.5h0c0,.3.1.6,0,.8h0c0,.3,0,.5,0,.8s0,.8.1.9c.2.2.3.5.1.8-.1.2-.3.3-.5.3s-.2,0-.2,0c0,0,.1.4.3.7-.1.5-.2.9-.2,1.2h.1c.3,0,.6.3.6.6v1.7c.1.2,0,.4-.1.5h0c.1.5.2.9.3,1.2.2.1.3.2.3.4,0,.6-.1,1.2-.5,1.8-.1.2-.3.3-.5.3,0,0-1.2.3-1.2.3-.4,0-.6-.2-.7-.3-1.5,0-2.2.2-2.9.3-.6.1-1.2.2-1.9.3h0c-.2,0-.4-.1-.5-.2-.6,0-1,.2-1.4.4-.1,0-.2,0-.3,0-.2,0-.4,0-.5-.2-.3.1-.6.3-1.2.3h0c-.1,0-.2,0-.3,0,0,0-.1,0-.2,0h-.2c-.2,0-.4-.1-.5-.3-.2-.2-.1-.5,0-.8-.2,0-.3.1-.4.1s-.3,0-.4-.1h-.2c0,.3,0,.6-.2.8-.1.2-.6.3-.8.3h-.2c-.2,0-.4-.1-.5-.2-.7.2-1.4.2-2,.2h-1c-.8,0-1.5,0-2.3.1h0c-.3,0-.5-.2-.6-.4h0c-.9,0-2.1.3-3,.4-.6,0-1.4.2-1.5.2-.1,0-.3,0-.4-.1s-.2-.2-.2-.4c-1.3.1-2.6.3-4,.5l-1-.4c-.2,0-.5,0-.8.1-.4.1-.8.2-1.2.2s-.6,0-.9-.1c-.3.2-.8.3-1.7.3s-.5-.2-.6-.4h0c-.4.1-.9.2-1.4.2s-1-.1-1.3-.3c-.2,0-.3,0-.5,0h-.9c-.1,0-.5.1-.7.1h-.2c-.2,0-.5-.1-.8-.1h-1.4c0,.1-.3.1-.3.1h-.1c-.3.2-.8.3-1.2.3-.1,0-.2,0-.3,0-.2,0-.4,0-.6-.2-.5.1-.8.1-1,.1-.6,0-1-.1-1.4-.4.2.3-.7.5-1.3.5s-.6,0-.8-.1h-.2l-1-.2h-.2c-.3,0-.7,0-.8,0l-.5-.9v.6c-.8-.1-1.5-.2-2-.3-.1.3-.3.4-.5.4h0c-.8-.1-1.6-.1-2.3-.1h-1c-.6,0-1.2,0-1.8,0-.1,0-.3,0-.4,0h-.2c-.1-.1-.2-.2-.3-.2v.2c-.2,0-.7-.2-.8-.3-.1-.2-.2-.5-.2-.6,0,0-.1,0-.2,0-.2.2-.5.2-.8.3.2.2.2.4,0,.6-.1.2-.3.2-.4.2s-.2,0-.3,0c0,0-.1,0-.2,0-.1,0-.2.1-.3.1h0c-.7-.1-1-.2-1.3-.4-.1.1-.2.2-.4.2s-.2,0-.2,0c-.4-.2-.8-.4-1.3-.4,0,0-.1,0-.2.1-.1,0-.2.1-.4.1h-.2c-.8,0-1.3-.2-1.9-.3-.8-.2-1.6-.3-2.8-.3-.1.1-.3.3-.7.3s-.8-.2-.8-.2c-.2,0-.8-.2-.9-.4-.4-.6-.4-1.2-.5-1.8,0-.3.1-.5.3-.6,0-.3.1-1,.1-1.1-.2-.1-.2-.3-.2-.5v-1.7c.2-.3.4-.6.7-.6h.1c0-.3-.1-.5-.2-.6.1-1,.2-1.4.2-1.5-.1,0-.2,0-.3,0-.2,0-.3,0-.4-.2-.2-.3-.1-.5.1-.7,0-.1.1-.6.1-.9,0-.4,0-.8.2-1.1-.1-.2-.2-.4-.2-.5-.1-.1-.2-.2-.2-.4,0-.2.1-.9.2-1,0-.7,0-1.4,0-2.1,0-.3,0-.5,0-.7-.2,0-.4-.2-.5-.3-.1-1.3,0-2.2.1-3,.2-1.2.3-2.4.3-3.6,0-.3.1-.5.3-.6-.1-.2-.2-.5-.3-.7-.2,0-.3-.2-.3-.4v-.3c0-1,.1-2,.3-3.3v-.9c0,0,0-.1,0-.2-.1-.5-.2-1.2-.2-1.9s0-.8,0-1.1c0-.1.2-.4.4-.6-.5-1.4-.3-2.8-.1-3.9.1-.8.2-1.6.1-2.4-.4-.3-.4-.6-.3-2.2,0-.2.1-.5.3-.7,0,0,0,0,0,0,0,0,0-.1,0-.2-.1-.2-.1-.5,0-.8,0-.2,0-.3,0-.4,0-.2.3-.4.4-.5-.2-.2-.3-.3-.2-.5,0-.1.1-.2.1-.3h-.1c-.2-.2-.2-.4-.2-.6,0-.3,0-.6.2-.9-.4-.6-.4-1-.4-1.3v-.2h0l-.2-1.4c0-.3.1-.6.5-.8h.2c0-.2,0-.4,0-.8v-.6c-.1-.1-.2-.2-.2-.3l.2-.7c-.1,0-.2.1-.3.1-.2,0-.3,0-.4-.1-.3-.2-.3-.5-.2-.8,0-.6-.1-1.1.1-1.7Z"/>
  <path class="st0" d="M440.2,512.2c-2.3-1.3-6.1,1.4-7,2.1h0c.5.2,4.8,1.6,6.1,5.9.6,2.1.2,3.9,0,4.8-2.4-1.9-5-3.8-7.7-5.9-.6,4.4-1,12.3,1.8,21.5,2.5,8,6.4,13.6,9.1,16.9,0-.9,0-2.8,0-5.1,0-1.9.3-19.3-.4-34.7,0-1.9-.2-4.6-2-5.6Z"/>
  <path class="st0" d="M596.9,503.4c-2-12.8-4-25.6-6.7-38.3-2.7-13-8.9-23.7-21.5-29.9-9.6-4.8-19.9-5.9-30.1-6.9-7.7-.8-15.6-.2-23.4-.2h0c-6.7,0-13.4,0-20.1,0-17.5-.2-29.9,7.9-37.7,23.3-5.8,11.5-7.6,24.1-10,36.5-1.2,6-1,12.2-1.5,18.3-.6,6.9-.6,13.7.2,20.4.9,8.4,1.6,17,3.9,25.2,2,7.1,12.3,10.4,18.4,6.1,5.1-3.6,9.6-8.1,14.9-11.3,12.6-7.5,26.7-5.8,40.3-5,14,.8,26.1,6,35.8,17,3.4,3.8,9,4.8,14,1.7,2.6-1.7,4.8-4.1,7.5-5.7,7.4-4.6,12-11.7,14-19.5,2.6-10.5,3.8-20.9,2.1-31.6ZM465.7,461.1c7.4-9.5,24.2-8.6,33-3.6,2.4,1.4,2.7,3.5,1.5,6.1-1.3,2.9-3.1,3.2-6,2.7-4.6-1-9.4-1.5-14.1-2.2-8.3-1.1-14,2.8-18.3,9.5h0c-.4.7-.8,1.4-1.4,1.9-.4.3-1,.2-2.3.4.9-6.2,4.4-10.4,7.7-14.7ZM459.4,508.3c-.4-1.8-1.2-3.3-.8-4,7-11.2,26.3-19.5,37.9-8.6,3.4,3.2,6.4,11.6,4.3,15.9-1.1-3.2-1.8-5.5-2.6-7.8h0c-2.6-8-9.5-11.3-18-10.1-9.2,1.3-15.5,6.1-20.9,14.5ZM481.6,495.5c6.6-1.2,11.7,3.1,12.3,7.3.4,2.6,1.7,5.9-1.8,8.1,1.2-8.2-2.4-13.1-10.4-15.5ZM469.3,510.9h0s0,0,0,0c-2.2-8.8,1.2-14.4,7.9-13.8-2,2.4-4.3,4.4-5.6,6.9-1.1,2.1-1.2,4.7-2.3,7,0,0,0,0,0,0ZM478.3,511.7c-4,.5-5.7-1.1-5.1-5.1.1-.8,0-1.7,0-2,.3.1,2.2,1,4.1,0,.4-.2,1.5-.8,1.9-2.1.6-1.9-.9-3.5-1-3.6,6.3-1,10.9,2.1,11.7,8h0c.4,3-.8,4.8-4.1,4.7-2.5,0-5-.2-7.5,0ZM486.1,530.8c-.5.2-1.2-.3-1.9-.4.2-.6.2-1.6.5-1.8,5.2-2.3,10.4-4.5,15.6-6.7.3.4.6.9,1,1.3-1.8,1.3-3.5,2.9-5.5,3.9-3.2,1.5-6.5,2.6-9.8,3.8ZM525.2,538.7c-6.8,1.2-12.1,1.4-19-.6-4.3-1.2-5.8-3.2-5.2-6.7,1.4-7.7,5.1-14.7,14.6-13.9,9.2-.6,13.6,5.2,14.6,13.3h0c.5,3.6-1.2,7.3-4.9,7.9ZM548.4,532.4c-5.6-2.5-11.2-5.1-16.7-7.6l1.1-1.9c5.5,2.5,11,5.1,16.5,7.6-.3.6-.6,1.2-.9,1.9ZM544,511.8c-.3.4-.6.8-.9,1.1-.7-.8-2-1.6-2.1-2.5-.9-7.4,5.2-13.4,12.8-12.7h0c-5.5,3.3-10.9,6.5-9.8,14.1ZM562.1,514.5c-4.5-.4-9.2-.7-13.8-1.2-2.5-.3-2.5-.6-2.2-6.4,1.9-.2,4.2.3,5.4-.7.9-.7.4-3.2.6-5.1,7.8-1.3,12.3,4.1,10,13.3ZM565.3,514.2c1.4-6.9.5-9.1-4.8-14.6,4.3.6,7.8,4.8,8,9.8.1,2.1.2,4.3-3.3,4.7ZM575.9,508c-12.1-13.1-22.8-12.8-28-12.1-2.4.3-4.1,1.3-4.1,1.3-2.8,1.5-4.9,4.3-6.1,7.7-.6,1.7-1,3.4-1.7,5-.3.7-1.1,1.1-1.7,1.6-.3-.7-.8-1.4-.7-2.1.7-6.6,6.9-14.9,13-15.9,10.5-1.7,19.1,2.5,22.3,4.8h0c4.1,2.9,6.9,6.2,8.5,8.6-.5.4-1,1.6-1.5,1.1ZM581.1,479.4c-.9-.6-2.2-1.1-2.8-1.9-8.1-12.5-19.7-13.6-32.8-10.3-2.2.6-5.1,1.8-6.6-.9-.9-1.6-.7-4.1-.4-6.1.1-.8,1.5-1.7,2.5-2.1,8.8-3.5,17.8-4,26.2.3,8,4.1,12.3,11.5,15,19.7-.4.4-.7.8-1.1,1.2Z"/>
  <path class="st0" d="M520.9,521.6c-3.7-1.6-7.1-1.9-10.8-.2-.5.2-.9.5-1.3.9-.3.2-.6.4-.8.6-3.1,2.4-3.9,5.6-3.4,9.3.5,3.1,3.8,4.6,6.4,4.9h0c0,0,.6.2.8,0,.9.1,1.9.3,2.9.4,1.6.2,3.1.1,4.7,0h0c4.7-.6,8.6-4.7,7.3-9.7-.8-2.8-3.2-5.1-5.8-6.2Z"/>
  <path class="st0" d="M887.1,93.5h-81v135h135V93.5h-54ZM912.2,145.1c.2.3.1.8-.2,1h0c0,.3-.4.8-.7,1,0,.3,0,.5,0,.8,0,.4,0,.7.1,1h0c.3.1.6.2.5.5l-.2,1.3c0,.7-.1,1-.5,1.7,0,.3.2.5.2.9s0,.4-.2.5c0,0-.1,0-.2.1,0,.2,0,.4-.1.5,0,.2.3.4.4.7,0,0,0,.2,0,.3.2.2.3.5.2.7,0,0-.1.2-.1.2.2.2.3.4.3.6.2,2.1.2,2.2,0,2.4,0,0-.2,0-.2,0h0c-.1.8,0,1.6.1,2.4.2,1.1.4,2.4,0,3.8,0,0,.1.2.1.2.1.9.1,1.3.1,1.7,0,.6,0,1.4-.2,1.9,0,0,0,.2-.1.2v.8c.3,1.3.4,2.3.4,3.3,0,.1,0,.2,0,.3,0,.2-.2.3-.3.4,0,.3-.2.6-.2.8h0c.2.2.3.3.3.5,0,1.1.1,2.3.3,3.6.1.8.2,1.7.3,2.5,0,.2-.1.4-.2.5-.1.1-.3.2-.4.2,0,.2,0,.5,0,.7,0,.7.1,1.4,0,2.1.2.3.2.6.2,1,0,.2-.1.4-.3.5h0c0,.3.1.6,0,.8h0c0,.3,0,.5,0,.8s0,.8.1.9c.2.2.3.5.1.8-.1.2-.3.3-.5.3s-.2,0-.2,0c0,0,.1.4.3.7-.1.5-.2.9-.2,1.2h.1c.3,0,.6.3.6.6v1.7c.1.2,0,.4-.1.5h0c.1.5.2.9.3,1.2.2.1.3.2.3.4,0,.6-.1,1.2-.5,1.8-.1.2-.3.3-.5.3,0,0-1.2.3-1.2.3-.4,0-.6-.2-.7-.3-1.5,0-2.2.2-2.9.3-.6.1-1.2.2-1.9.3h0c-.2,0-.4-.1-.5-.2-.6,0-1,.2-1.4.4-.1,0-.2,0-.3,0-.2,0-.4,0-.5-.2-.3.1-.6.3-1.2.3h0c-.1,0-.2,0-.3,0,0,0-.1,0-.2,0h-.2c-.2,0-.4-.1-.5-.3-.2-.2-.1-.5,0-.8-.2,0-.3.1-.4.1s-.3,0-.4-.1h-.2c0,.3,0,.6-.2.8-.1.2-.6.3-.8.3h-.2c-.2,0-.4-.1-.5-.2-.7.2-1.3.2-2,.2h-1c-.8,0-1.5,0-2.3.1h0c-.3,0-.5-.2-.6-.4h0c-.9,0-2.1.3-3,.4-.6,0-1.4.2-1.5.2-.1,0-.3,0-.4-.1s-.2-.2-.2-.4c-1.3.1-2.6.3-4,.5l-1-.4c-.2,0-.5,0-.8.1-.4.1-.8.2-1.2.2s-.6,0-.9-.1c-.3.2-.8.3-1.7.3s-.5-.2-.6-.4h0c-.4.1-.9.2-1.4.2s-1-.1-1.3-.3c-.2,0-.3,0-.5,0h-.9c-.1,0-.5.1-.7.1h-.2c-.2,0-.5-.1-.8-.1h-1.4c0,.1-.3.1-.3.1h-.1c-.3.2-.8.3-1.2.3-.1,0-.2,0-.3,0-.2,0-.4,0-.6-.2-.5.1-.8.1-1,.1-.6,0-1-.1-1.3-.4.2.3-.7.5-1.3.5s-.6,0-.8-.1h-.2l-1-.2h-.2c-.3,0-.7,0-.8,0l-.5-.9v.6c-.8-.1-1.5-.2-2-.3-.1.3-.3.4-.5.4h0c-.8-.1-1.6-.1-2.3-.1h-1c-.6,0-1.2,0-1.8,0-.1,0-.3,0-.4,0h-.2c-.1-.1-.2-.2-.3-.2v.2c-.2,0-.7-.2-.8-.3-.1-.2-.2-.5-.2-.6,0,0-.1,0-.2,0-.2.2-.5.2-.8.3.2.2.2.4,0,.6-.1.2-.3.2-.4.2s-.2,0-.3,0c0,0-.1,0-.2,0-.1,0-.2.1-.3.1h0c-.7-.1-1-.2-1.3-.4-.1.1-.2.2-.4.2s-.2,0-.2,0c-.4-.2-.8-.4-1.3-.4,0,0-.1,0-.2.1-.1,0-.2.1-.4.1h-.2c-.8,0-1.3-.2-1.9-.3-.8-.2-1.6-.3-2.8-.3-.1.1-.3.3-.7.3s-.8-.2-.8-.2c-.2,0-.8-.2-.9-.4-.4-.6-.4-1.2-.5-1.8,0-.3.1-.5.3-.6,0-.3.1-1,.1-1.1-.2-.1-.2-.3-.2-.5v-1.7c.2-.3.4-.6.7-.6h.1c0-.3-.1-.5-.2-.6.1-1,.2-1.4.2-1.5-.1,0-.2,0-.3,0-.2,0-.3,0-.4-.2-.2-.3-.1-.5.1-.7,0-.1.1-.6.1-.9,0-.4,0-.8.2-1.1-.1-.2-.2-.4-.2-.5-.1-.1-.2-.2-.2-.4,0-.2.1-.9.2-1,0-.7,0-1.4,0-2.1,0-.3,0-.5,0-.7-.2,0-.4-.2-.5-.3-.1-1.3,0-2.2.1-3,.2-1.2.3-2.4.3-3.6,0-.3.1-.5.3-.6-.1-.2-.2-.5-.3-.7-.2,0-.3-.2-.3-.4v-.3c0-1,.1-2,.3-3.3v-.9c0,0,0-.1,0-.2-.1-.5-.2-1.2-.2-1.9s0-.8,0-1.1c0-.1.2-.4.4-.6-.5-1.4-.3-2.8-.1-3.9.1-.8.2-1.6.1-2.4-.4-.3-.4-.6-.3-2.2,0-.2.1-.5.3-.7,0,0,0,0,0,0,0,0,0-.1,0-.2-.1-.2-.1-.5,0-.8,0-.2,0-.3,0-.4s.3-.4.4-.5c-.2-.2-.3-.3-.2-.5,0-.1.1-.2.1-.3q0,0-.1-.1c-.2-.1-.2-.3-.2-.5,0-.3,0-.6.2-.9-.4-.6-.4-1-.4-1.3v-.2h0l-.2-1.4c0-.3.1-.6.5-.8h.2c0-.2,0-.4,0-.8v-.6c-.1-.1-.2-.2-.2-.3l.2-.7c-.1,0-.2.1-.3.1-.2,0-.3,0-.4-.1-.3-.2-.3-.5-.2-.8,0-.6-.1-1.1.1-1.7h0c0-.1.3-.4.3-.4h-.1v-.8c0-2,0-4.6.7-6.7,0,0,0-.2-.1-.3-.2-.8-.2-1.4-.1-2-.1,0-.2-.1-.2-.2-.1-.1,0-.5,0-.8-.2-.1-.4-.2-.4-.5l.3-1.1c-.2,0-.3,0-.3-.3.1-1.1.2-1.8.5-2.4-.1,0-.2,0-.3-.1-.2,0-.2-.2-.3-.4,0-.2,0-.3.1-.5.3-.4.7-.9.7-1.1-.2,0-.3,0-.3-.3-.1-.2,0-.3.2-.5-.1,0-.2-.5.3-1,0,0-.1,0-.1-.1-.2-.2-.4-.5-.2-.8.4-.4,1-.7,1.6-.8.3-.4.9-.6,1.6-.6h.2c.2,0,.6-.2.8-.2.3,0,.5.1.7.2.1,0,.3-.2.4-.2l.9.4c.2-.4.4-.4.6-.4h0c.2,0,.4.1.6.3,0-.2.2-.2.4-.2s.4.1.5.1c.9.2,1.3.2,1.6.4.3-.2.6-.2,1-.2,0-.3.3-.4.5-.5,0,0,.1,0,.2,0,.2,0,.5.2.6.3,0,0,.3.2.6.2-.3-.2.5-.3,1.1-.3h.2c0,0,.2,0,.2,0-.1-.3.1-.4.4-.5,0,0,.1,0,.2,0,.2,0,.5.2.6.3,0,0,.2,0,.3,0s.5,0,.6,0c.6.2,1.6.3,2.5.3l1-.3h.2c.1,0,.2,0,.3.1.2.1.3.3.3.4.1,0,.3-.1.4-.2,0,0,0-.1,0-.2.1-.2.3-.3.5-.3h.2c.3,0,.5.3.5.6.2,0,.3,0,.4,0,.2,0,.3,0,.5.1.1-.2.4-.4.6-.4h0c.2,0,.5.1.5.4.1,0,.2,0,.3,0h.2c.2-.1.3-.2.5-.2h0c0-.4.1-.6.4-.6s1,.2,1.3.4c0,0,0,0,0,0,.1,0,.3-.1.3-.2h0c.9,0,1.2.2,1.6.3.2,0,.3.1.4.2.1-.1.2-.2.4-.2s.2,0,.3,0c.2.1.4.1.7.2,0-.1.3-.2.8-.2s.5.1.6.3c0,0,0,0,0,0l.4-.3c.5-.3.8-.3,1.1-.3.6,0,.9.3,1.2.5.2.2.4.4.8.4.6-.9,1.8-.9,2.3-.9,0,0,1.5,0,1.6,0,.3,0,.8,0,.9.2.1.1.3.4.3.6,0,0,.3,0,.3,0,0,0,.2,0,.3,0s.2,0,.2,0c.6-.2,1.3-.2,1.9-.2s1.1,0,1.3-.2c0,0,.2,0,.3,0,.2,0,.3,0,.4.2.1,0,.2-.1.4-.2.4-.1.8-.3,1.2-.4h0c.2,0,.4.2.5.3,0,0,.1,0,.1.1,0,0,.1-.2.2-.2.1-.2.9-.4,1.1-.4.3,0,.6.2.6.5v.2c.1,0,.3.1.4.2.2,0,.4-.1.5-.1,0-.2.2-.4.5-.4h.1c.2,0,.4.2.5.3,0,0,.1.1.3.2.2,0,.3-.1.5-.2,0-.3.3-.5.6-.6h.2c.3,0,.6.2.8.4,0,.1,0,.3,0,.5.2,0,.4-.2.4-.2,0-.2.1-.3.3-.4,0,0,.2,0,.3,0s.2,0,.2,0c.7.3.9.3,1.2.4h.1c.4,0,.9-.1,1.3-.1.7,0,1.5,0,1.7-.3.1-.1.3-.2.4-.2s.2,0,.3.1c.2.1.3.3.3.5,0-.2.3-.2.4-.2h.1c.5,0,.9,0,1.2.3.3-.1.5-.2.6-.3.1,0,.2-.1.4-.1s.2,0,.3,0c.2.1.3.3.3.6.4-.2.7-.2,1-.2h.3c.3-.2.7-.2,1.1-.2,0,0,.1,0,.2,0h.2c0,0,.3-.1.3-.1h.2c.2,0,.4.1.5.3.1-.2.2-.3.3-.3,0,0,.1,0,.2,0,.2,0,.4,0,.5,0,.1,0,.3.1.4.2l.4-.2h.1c.2,0,.5.1.6.2,0,0,0,0,.1,0,.2-.2.5-.2.8-.2s.6.2.8.2h.2c.7,0,1.3.3,1.6.6.5,0,1.1.3,1.5.8.2.2.2.5,0,.8,0,.1-.2.2-.2.2.3.4.2.8.2,1,.1.2.1.3,0,.5-.1.2-.3.3-.5.3.2,0,.5.4.6.5.1.1.2.4.2.6s0,.4-.2.5c0,0-.2,0-.3.1.2.5.3,1.1.4,2,0,.2,0,.6-.2.8l.3,1c0,.3-.1.6-.4.8,0,.2,0,.4,0,.4,0,0-.1.1-.2.2.1.6,0,1.2,0,1.8,0,0,0,.2-.1.2.8,1.9.7,4.5.7,6.5.2.2.4.5.4.8,0,.2,0,.4-.2.6h0c.2.6.2,1,.1,1.3Z"/>
  <rect class="st0" x="374.1" y="822.5" width="27" height="27"/>
  <path class="st0" d="M779.1,741.5h-27v81h81v-81h-54ZM792.6,795.5c-7.5,0-13.5-6-13.5-13.5s6-13.5,13.5-13.5,13.5,6,13.5,13.5-6,13.5-13.5,13.5Z"/>
  <polygon class="st0" points="860.1 768.5 860.1 795.5 887.1 795.5 887.1 768.5 887.1 741.5 860.1 741.5 860.1 768.5"/>
  <path class="st0" d="M446.2,453.9c-4,9.2-5.2,27.7-2.5,37.5,4.6-16.6,3.8-35.1,16.1-49.4-5.6,2.9-10.9,5.9-13.6,12Z"/>
  <circle cx="576.6" cy="674" r="13.5"/>
  <path d="M630.6,957.5h67.5c14.9,0,27-12.1,27-27h13.5c7.5,0,13.5-6,13.5-13.5s-6-13.5-13.5-13.5h-40.5c-14.9,0-27,12.1-27,27h-40.5c-7.5,0-13.5,6-13.5,13.5s6,13.5,13.5,13.5Z"/>
  <path d="M401.1,444.5v40.5c0,7.5,6,13.5,13.5,13.5s13.5-6,13.5-13.5v-54c0-7.5-6-13.5-13.5-13.5s-13.5,6-13.5,13.5v13.5Z"/>
  <circle cx="954.6" cy="647" r="13.5"/>
  <path d="M522.6,660.5h-27c-7.5,0-13.5,6-13.5,13.5s6,13.5,13.5,13.5h27c7.5,0,13.5-6,13.5-13.5s-6-13.5-13.5-13.5Z"/>
  <path d="M414.6,390.5c7.5,0,13.5-6,13.5-13.5v-13.5h27c14.9,0,27-12.1,27-27v-13.5c0-7.5-6-13.5-13.5-13.5s-13.5,6-13.5,13.5v13.5h-67.5c-7.5,0-13.5,6-13.5,13.5s6,13.5,13.5,13.5h13.5v13.5c0,7.5,6,13.5,13.5,13.5Z"/>
  <path d="M347.1,917v13.5h-13.5c-7.5,0-13.5,6-13.5,13.5s6,13.5,13.5,13.5h13.5c14.9,0,27-12.1,27-27v-13.5c0-7.5-6-13.5-13.5-13.5s-13.5,6-13.5,13.5Z"/>
  <circle cx="549.6" cy="701" r="13.5"/>
  <path d="M414.6,957.5c7.5,0,13.5-6,13.5-13.5v-13.5c14.9,0,27-12.1,27-27h54c14.9,0,27-12.1,27-27,14.9,0,27-12.1,27-27h40.5c7.5,0,13.5-6,13.5-13.5s-6-13.5-13.5-13.5h-13.5v-54c14.9,0,27-12.1,27-27h13.5c7.5,0,13.5-6,13.5-13.5s-6-13.5-13.5-13.5h-13.5c-14.9,0-27,12.1-27,27-14.9,0-27,12.1-27,27h-27c0-14.9-12.1-27-27-27,0-14.9-12.1-27-27-27h-54c0-14.9-12.1-27-27-27,0-14.9-12.1-27-27-27h-27v-27h40.5c7.5,0,13.5-6,13.5-13.5s-6-13.5-13.5-13.5h-40.5v-27c0-14.9-12.1-27-27-27v-27h27v13.5c0,7.5,6,13.5,13.5,13.5s13.5-6,13.5-13.5v-13.5c0-14.9-12.1-27-27-27h-27c-14.9,0-27,12.1-27,27-14.9,0-27,12.1-27,27h-27v-13.5c0-7.5-6-13.5-13.5-13.5s-13.5,6-13.5,13.5v67.5h-40.5c-7.5,0-13.5,6-13.5,13.5s6,13.5,13.5,13.5h13.5v27c-14.9,0-27,12.1-27,27v13.5c0,7.5,6,13.5,13.5,13.5s13.5-6,13.5-13.5v-13.5c14.9,0,27-12.1,27-27,14.9,0,27-12.1,27-27h40.5c7.5,0,13.5-6,13.5-13.5s-6-13.5-13.5-13.5h-40.5v-27h54c0,14.9,12.1,27,27,27v27h-13.5c-7.5,0-13.5,6-13.5,13.5s6,13.5,13.5,13.5h13.5v27h-27c0-14.9-12.1-27-27-27h-13.5c-7.5,0-13.5,6-13.5,13.5s6,13.5,13.5,13.5h13.5c0,14.9,12.1,27,27,27v13.5c0,7.5,6,13.5,13.5,13.5s13.5-6,13.5-13.5v-13.5h54v27c0,14.9,12.1,27,27,27s27-12.1,27-27h54v27h-13.5c-7.5,0-13.5,6-13.5,13.5s6,13.5,13.5,13.5h94.5v27h-54c-14.9,0-27,12.1-27,27-14.9,0-27,12.1-27,27-14.9,0-27,12.1-27,27-14.9,0-27,12.1-27,27v13.5c0,7.5,6,13.5,13.5,13.5Z"/>
  <path d="M401,66.5c-14.9,0-27,12.1-27,27v54h-54v-27h13.5c7.5,0,13.5-6,13.5-13.5s-6-13.5-13.5-13.5h-13.5c-14.9,0-27,12.1-27,27v27c0,14.9,12.1,27,27,27,0,14.9,12.1,27,27,27s27-12.1,27-27c14.9,0,27-12.1,27-27,14.9,0,27-12.1,27-27v-27c0-14.9-12.1-27-27-27h0Z"/>
  <path d="M104.1,660.5h13.5c7.5,0,13.5-6,13.5-13.5s-6-13.5-13.5-13.5h-13.5v-54h13.5c7.5,0,13.5-6,13.5-13.5s-6-13.5-13.5-13.5h-13.5v-13.5c0-7.5-6-13.5-13.5-13.5s-13.5,6-13.5,13.5v94.5c0,14.9,12.1,27,27,27Z"/>
  <path d="M900.6,903.5c7.5,0,13.5-6,13.5-13.5v-13.5c0-14.9-12.1-27-27-27h-13.5c-7.5,0-13.5,6-13.5,13.5s6,13.5,13.5,13.5h13.5v13.5c0,7.5,6,13.5,13.5,13.5Z"/>
  <path d="M401.1,876.5c14.9,0,27-12.1,27-27v-27h13.5c7.5,0,13.5-6,13.5-13.5s-6-13.5-13.5-13.5h-94.5v-13.5c0-7.5-6-13.5-13.5-13.5s-13.5,6-13.5,13.5v13.5c0,14.9,12.1,27,27,27v27c-14.9,0-27,12.1-27,27-14.9,0-27,12.1-27,27v13.5c0,7.5,6,13.5,13.5,13.5s13.5-6,13.5-13.5v-13.5c14.9,0,27-12.1,27-27h54ZM374.1,822.5h27v27h-27v-27Z"/>
  <path d="M941.1,336.5v-27c0-14.9-12.1-27-27-27h-27c-14.9,0-27,12.1-27,27s12.1,27,27,27c0,14.9,12.1,27,27,27,0,14.9,12.1,27,27,27s27-12.1,27-27-12.1-27-27-27Z"/>
  <circle cx="927.6" cy="944" r="13.5"/>
  <path d="M725.1,80c0,7.5,6,13.5,13.5,13.5s13.5-6,13.5-13.5-6-13.5-13.5-13.5h0c-7.5,0-13.5,6-13.5,13.5Z"/>
  <path d="M482.1,80c0,7.5,6,13.5,13.5,13.5s13.5-6,13.5-13.5-6-13.5-13.5-13.5h0c-7.5,0-13.5,6-13.5,13.5Z"/>
  <circle cx="630.6" cy="296" r="13.5"/>
  <path d="M617.1,485c0,7.5,6,13.5,13.5,13.5s13.5-6,13.5-13.5v-13.5h13.5c7.5,0,13.5-6,13.5-13.5s-6-13.5-13.5-13.5h-13.5c-14.9,0-27,12.1-27,27v13.5Z"/>
  <path d="M657.6,201.5h-13.5c-14.9,0-27,12.1-27,27v13.5c0,7.5,6,13.5,13.5,13.5s13.5-6,13.5-13.5v-13.5h13.5c7.5,0,13.5-6,13.5-13.5s-6-13.5-13.5-13.5Z"/>
  <circle cx="684.6" cy="485" r="13.5"/>
  <path d="M779.1,606.5h40.5c7.5,0,13.5-6,13.5-13.5s-6-13.5-13.5-13.5h-13.5v-40.5c0-7.5-6-13.5-13.5-13.5s-13.5,6-13.5,13.5v13.5c-14.9,0-27,12.1-27,27s12.1,27,27,27Z"/>
  <path d="M941.1,714.5h13.5c7.5,0,13.5-6,13.5-13.5s-6-13.5-13.5-13.5h-13.5c0-14.9-12.1-27-27-27v-13.5c0-7.5-6-13.5-13.5-13.5s-13.5,6-13.5,13.5v40.5h-54v-40.5c0-7.5-6-13.5-13.5-13.5s-13.5,6-13.5,13.5v13.5h-108c-14.9,0-27,12.1-27,27h-13.5c-7.5,0-13.5,6-13.5,13.5s6,13.5,13.5,13.5h40.5c14.9,0,27-12.1,27-27h54v27h-27c-14.9,0-27,12.1-27,27v27h-27v-13.5c0-7.5-6-13.5-13.5-13.5s-13.5,6-13.5,13.5v13.5h-13.5c-7.5,0-13.5,6-13.5,13.5s6,13.5,13.5,13.5h67.5v27h-27c-14.9,0-27,12.1-27,27h-27c-14.9,0-27,12.1-27,27s12.1,27,27,27,27-12.1,27-27h27c14.9,0,27-12.1,27-27h27v13.5c0,7.5,6,13.5,13.5,13.5s13.5-6,13.5-13.5v-13.5h27v54h-13.5c-7.5,0-13.5,6-13.5,13.5s6,13.5,13.5,13.5h67.5v13.5c0,7.5,6,13.5,13.5,13.5s13.5-6,13.5-13.5v-13.5c0-14.9-12.1-27-27-27,0-14.9-12.1-27-27-27v-27c14.9,0,27-12.1,27-27h54c0,14.9,12.1,27,27,27v40.5c0,7.5,6,13.5,13.5,13.5s13.5-6,13.5-13.5v-40.5c0-14.9-12.1-27-27-27v-27c14.9,0,27-12.1,27-27v-13.5c0-7.5-6-13.5-13.5-13.5s-13.5,6-13.5,13.5v13.5h-27v-27c14.9,0,27-12.1,27-27ZM833.1,768.5v54h-81v-81h81v27ZM887.1,768.5v27h-27v-54h27v27Z"/>
  <circle cx="522.6" cy="188" r="13.5" transform="translate(-23.4 86.1) rotate(-9.2)"/>
  <path d="M590.1,269v-54c0-7.5-6-13.5-13.5-13.5s-13.5,6-13.5,13.5v54c0,7.5,6,13.5,13.5,13.5s13.5-6,13.5-13.5Z"/>
  <circle cx="603.6" cy="323" r="13.5"/>
  <path d="M576.6,147.5h-27c-7.5,0-13.5,6-13.5,13.5s6,13.5,13.5,13.5h27c7.5,0,13.5-6,13.5-13.5s-6-13.5-13.5-13.5Z"/>
  <path d="M387.6,579.5h13.5v13.5c0,7.5,6,13.5,13.5,13.5s13.5-6,13.5-13.5v-13.5c0-14.9-12.1-27-27-27h-13.5c-7.5,0-13.5,6-13.5,13.5s6,13.5,13.5,13.5Z"/>
  <circle cx="414.6" cy="647" r="13.5" transform="translate(-341.8 782.4) rotate(-67.5)"/>
  <path d="M266.1,728c0-7.5-6-13.5-13.5-13.5h-54c-7.5,0-13.5,6-13.5,13.5s6,13.5,13.5,13.5h54c7.5,0,13.5-6,13.5-13.5Z"/>
  <path d="M549.6,957.5c7.5,0,13.5-6,13.5-13.5v-13.5h40.5c7.5,0,13.5-6,13.5-13.5s-6-13.5-13.5-13.5h-13.5v-13.5c0-7.5-6-13.5-13.5-13.5s-13.5,6-13.5,13.5v13.5c-14.9,0-27,12.1-27,27v13.5c0,7.5,6,13.5,13.5,13.5Z"/>
  <path d="M509.1,255.5v27h-13.5c-7.5,0-13.5,6-13.5,13.5s6,13.5,13.5,13.5h13.5v27c0,14.9,12.1,27,27,27h13.5c7.5,0,13.5-6,13.5-13.5s-6-13.5-13.5-13.5h-13.5v-94.5c0-7.5-6-13.5-13.5-13.5s-13.5,6-13.5,13.5v13.5Z"/>
  <circle cx="603.6" cy="188" r="13.5"/>
  <circle cx="441.6" cy="215" r="13.5"/>
  <circle cx="387.6" cy="404" r="13.5"/>
  <path d="M90.6,714.5h13.5v13.5c0,7.5,6,13.5,13.5,13.5s13.5-6,13.5-13.5v-13.5c0-14.9-12.1-27-27-27h-13.5c-7.5,0-13.5,6-13.5,13.5h0c0,7.5,6,13.5,13.5,13.5Z"/>
  <path d="M711.6,606.5c7.5,0,13.5-6,13.5-13.5v-40.5h13.5c7.5,0,13.5-6,13.5-13.5s-6-13.5-13.5-13.5h-13.5c-14.9,0-27,12.1-27,27h-13.5c-7.5,0-13.5,6-13.5,13.5s6,13.5,13.5,13.5h13.5v13.5c0,7.5,6,13.5,13.5,13.5Z"/>
  <path d="M657.6,525.5h-13.5c-14.9,0-27,12.1-27,27v67.5c0,7.5,6,13.5,13.5,13.5s13.5-6,13.5-13.5v-67.5h13.5c7.5,0,13.5-6,13.5-13.5s-6-13.5-13.5-13.5Z"/>
  <path d="M833.1,566c0,7.5,6,13.5,13.5,13.5s13.5-6,13.5-13.5v-27c0-7.5-6-13.5-13.5-13.5s-13.5,6-13.5,13.5v27Z"/>
  <circle cx="657.6" cy="647" r="13.5"/>
  <path d="M90.6,390.5c7.5,0,13.5-6,13.5-13.5s-6-13.5-13.5-13.5-13.5,6-13.5,13.5h0c0,7.5,6,13.5,13.5,13.5Z"/>
  <circle cx="252.6" cy="296" r="13.5"/>
  <circle cx="819.6" cy="512" r="13.5"/>
  <path d="M144.6,309.5c7.5,0,13.5-6,13.5-13.5s-6-13.5-13.5-13.5h-13.5c-14.9,0-27,12.1-27,27v27c0,14.9,12.1,27,27,27h13.5c7.5,0,13.5-6,13.5-13.5s-6-13.5-13.5-13.5h-13.5v-27h13.5Z"/>
  <circle cx="117.6" cy="431" r="13.5"/>
  <path d="M333.6,282.5h13.5c14.9,0,27-12.1,27-27v-13.5c0-7.5-6-13.5-13.5-13.5s-13.5,6-13.5,13.5v13.5h-13.5c-7.5,0-13.5,6-13.5,13.5s6,13.5,13.5,13.5Z"/>
  <path d="M752.1,309.5h13.5c7.5,0,13.5-6,13.5-13.5s-6-13.5-13.5-13.5h-27c-7.5,0-13.5,6-13.5,13.5s6,13.5,13.5,13.5h13.5Z"/>
  <path d="M320.1,215c0-7.5-6-13.5-13.5-13.5s-13.5,6-13.5,13.5v27c0,7.5,6,13.5,13.5,13.5s13.5-6,13.5-13.5v-27Z"/>
  <circle cx="252.6" cy="512" r="13.5"/>
  <path d="M698.1,255.5v-13.5c0-7.5-6-13.5-13.5-13.5s-13.5,6-13.5,13.5v67.5c-14.9,0-27,12.1-27,27v54c0,14.9,12.1,27,27,27h13.5c7.5,0,13.5-6,13.5-13.5s-6-13.5-13.5-13.5h-13.5v-54h27v27c0,14.9,12.1,27,27,27v54h-13.5c-7.5,0-13.5,6-13.5,13.5s6,13.5,13.5,13.5h40.5c0,14.9,12.1,27,27,27h13.5c7.5,0,13.5-6,13.5-13.5s-6-13.5-13.5-13.5h-13.5c0-14.9-12.1-27-27-27v-54h13.5c7.5,0,13.5-6,13.5-13.5s-6-13.5-13.5-13.5h-40.5v-27c0-14.9-12.1-27-27-27v-54Z"/>
  <circle cx="387.6" cy="215" r="13.5"/>
  <path d="M468.6,93.5c-7.5,0-13.5,6-13.5,13.5v40.5h-13.5c-7.5,0-13.5,6-13.5,13.5s6,13.5,13.5,13.5h13.5v13.5c0,7.5,6,13.5,13.5,13.5s13.5-6,13.5-13.5v-40.5h27c14.9,0,27-12.1,27-27v-13.5c0-7.5-6-13.5-13.5-13.5s-13.5,6-13.5,13.5v13.5h-27v-13.5c0-7.5-6-13.5-13.5-13.5Z"/>
  <path d="M387.6,309.5h40.5c14.9,0,27-12.1,27-27,14.9,0,27-12.1,27-27v-13.5c0-7.5-6-13.5-13.5-13.5s-13.5,6-13.5,13.5v13.5h-27v-13.5c0-7.5-6-13.5-13.5-13.5s-13.5,6-13.5,13.5v40.5h-13.5c-7.5,0-13.5,6-13.5,13.5s6,13.5,13.5,13.5Z"/>
  <circle cx="792.6" cy="782" r="13.5"/>
  <path d="M833.1,323v-27c0-7.5-6-13.5-13.5-13.5s-13.5,6-13.5,13.5v27c0,7.5,6,13.5,13.5,13.5s13.5-6,13.5-13.5Z"/>
  <circle cx="954.6" cy="458" r="13.5"/>
  <path d="M792.6,390.5c-7.5,0-13.5,6-13.5,13.5s6,13.5,13.5,13.5h13.5c0,14.9,12.1,27,27,27v13.5c0,7.5,6,13.5,13.5,13.5s13.5-6,13.5-13.5v-40.5c0-14.9-12.1-27-27-27h-40.5Z"/>
  <path d="M941.1,552.5c-14.9,0-27,12.1-27,27h-27c-14.9,0-27,12.1-27,27h-13.5c-7.5,0-13.5,6-13.5,13.5s6,13.5,13.5,13.5h13.5c14.9,0,27-12.1,27-27h27c14.9,0,27-12.1,27-27,14.9,0,27-12.1,27-27v-13.5c0-7.5-6-13.5-13.5-13.5s-13.5,6-13.5,13.5v13.5Z"/>
  <path d="M90.6,498.5h13.5c0,14.9,12.1,27,27,27v13.5c0,7.5,6,13.5,13.5,13.5s13.5-6,13.5-13.5v-13.5c14.9,0,27-12.1,27-27h27c14.9,0,27-12.1,27-27h108c14.9,0,27-12.1,27-27s-12.1-27-27-27h-27v-27h13.5c7.5,0,13.5-6,13.5-13.5s-6-13.5-13.5-13.5h-13.5c0-14.9-12.1-27-27-27v-13.5c0-7.5-6-13.5-13.5-13.5s-13.5,6-13.5,13.5v13.5h-54v-13.5c0-7.5-6-13.5-13.5-13.5s-13.5,6-13.5,13.5v13.5c0,14.9,12.1,27,27,27h81v54c-14.9,0-27,12.1-27,27h-27v-27h13.5c7.5,0,13.5-6,13.5-13.5s-6-13.5-13.5-13.5h-13.5c-14.9,0-27,12.1-27,27h-27v-13.5c0-7.5-6-13.5-13.5-13.5s-13.5,6-13.5,13.5v13.5c0,14.9,12.1,27,27,27h27v27h-27c-14.9,0-27,12.1-27,27h-27c0-14.9-12.1-27-27-27h-13.5c-7.5,0-13.5,6-13.5,13.5h0c0,7.5,6,13.5,13.5,13.5Z"/>
  <path d="M914.1,417.5v-13.5c0-7.5-6-13.5-13.5-13.5s-13.5,6-13.5,13.5v67.5c-14.9,0-27,12.1-27,27v13.5c0,7.5,6,13.5,13.5,13.5s13.5-6,13.5-13.5v-13.5h40.5c7.5,0,13.5-6,13.5-13.5s-6-13.5-13.5-13.5h-13.5v-54Z"/>
  <path d="M549.5,66.5c-7.5,0-13.5,6-13.5,13.5s6,13.5,13.5,13.5h13.5c0,14.9,12.1,27,27,27,0,14.9,12.1,27,27,27h27c0,14.9,12.1,27,27,27s27-12.1,27-27h27v94.5c0,7.5,6,13.5,13.5,13.5s13.5-6,13.5-13.5v-94.5c0-14.9-12.1-27-27-27v-13.5c0-7.5-6-13.5-13.5-13.5s-13.5,6-13.5,13.5v13.5h-27v-40.5c0-7.5-6-13.5-13.5-13.5h0c-7.5,0-13.5,6-13.5,13.5v40.5h-27c0-14.9-12.1-27-27-27,0-14.9-12.1-27-27-27h-13.5Z"/>
  <path d="M77.1,228.5c0,14.9,12.1,27,27,27h135c14.9,0,27-12.1,27-27V93.5c0-14.9-12.1-27-27-27H104c-14.9,0-27,12.1-27,27v135ZM104.1,201.5v-108h135v135H104.1v-27Z"/>
  <path d="M133.2,146.4c.1,0,.2.1.4.1s.2,0,.3-.1l-.2.7c0,.1.1.2.2.3v.6c0,.3,0,.6,0,.8h-.2c-.4.2-.5.4-.5.8l.2,1.4h0v.2c0,.4,0,.7.4,1.3-.1.3-.2.5-.2.9s0,.4.2.5h.1c0,.2,0,.3-.1.4,0,.2,0,.3.2.5-.2.1-.4.3-.4.5,0,.2,0,.3,0,.4-.2.2-.2.5,0,.8,0,0,0,.1,0,.2,0,0,0,0,0,0-.2.2-.3.5-.3.7-.2,1.5-.2,1.8.3,2.2.1.8,0,1.6-.1,2.4-.2,1.2-.4,2.5.1,3.9-.2.3-.3.5-.4.6,0,.3,0,.7,0,1.1,0,.6,0,1.4.2,1.9,0,0,0,.1.1.2v.9c-.3,1.3-.4,2.3-.4,3.3v.3c0,.2.2.3.3.4,0,.2.2.5.3.7-.2.1-.3.3-.3.6,0,1.1-.1,2.3-.3,3.6-.1.9-.2,1.7-.1,3,.1.1.3.2.5.3,0,.2,0,.4,0,.7,0,.7-.1,1.4,0,2.1-.1.1-.3.8-.2,1,0,.2,0,.3.2.4,0,.1,0,.3.2.5-.1.4-.1.8-.2,1.1,0,.3,0,.8-.1.9-.2.2-.3.4-.1.7.1.2.3.2.4.2s.2,0,.3,0c0,.1,0,.5-.2,1.5,0,.1.1.3.2.6h-.1c-.3,0-.5.3-.6.6v1.7c-.1.2,0,.4.1.5,0,.1-.1.8-.1,1.1-.2.1-.3.3-.3.6,0,.6.1,1.2.5,1.8.1.2.7.4.9.4,0,0,.8.2.8.2.4,0,.6-.2.7-.3,1.2,0,2.1.2,2.8.3.6.1,1.2.2,1.9.3h.2c.2,0,.3,0,.4-.1,0,0,.1,0,.2-.1.5,0,.9.2,1.3.4,0,0,.2,0,.2,0,.2,0,.3-.1.4-.2.3.2.6.3,1.3.4h0c.1,0,.2,0,.3-.1,0,0,.1,0,.2,0,.1,0,.2,0,.3,0,.2,0,.3,0,.4-.2.2-.2.1-.4,0-.6.2,0,.5-.1.8-.3,0,0,.2,0,.2,0,0,.2,0,.5.2.6.1.2.6.3.8.3v-.2c.1,0,.2,0,.3,0h.1q0,.1.1.1c.1,0,.3,0,.4,0,.6,0,1.2,0,1.8,0h1c.8,0,1.6,0,2.3.1h0c.3,0,.4-.2.5-.4.5,0,1.2.2,1.9.3v-.6c.1,0,.6.9.6.9,0,0,.5,0,.8,0h.2l1,.2h.2c.2,0,.5.1.8.1.6,0,1.5-.2,1.3-.5.3.3.8.4,1.4.4s.5,0,1-.1c.2.1.4.2.6.2s.2,0,.3,0c.5,0,1,0,1.2-.3h.1s.2,0,.3,0h1.4c.3,0,.6,0,.8,0h.2c.2,0,.6,0,.7-.2h.9c.2,0,.4,0,.5,0,.3.2.8.3,1.3.3s1,0,1.4-.2h0c.1.2.4.4.6.4.9,0,1.4-.2,1.7-.3.3,0,.5.1.9.1s.9,0,1.2-.2c.3,0,.5-.1.8-.1l1,.4c1.4-.2,2.8-.4,4-.5,0,.2.1.3.2.4s.3.1.4.1.9-.2,1.5-.2c1-.2,2.1-.4,3-.5h0c.1.3.3.4.6.4h0c.8-.1,1.6-.1,2.3-.1h1c.6,0,1.3,0,2-.2.2.1.4.2.5.2h.2c.2,0,.7-.2.8-.3.1-.2.2-.4.2-.6h.2c.1,0,.3,0,.4,0,.2,0,.3,0,.4-.1-.2.2-.2.5,0,.8.1.2.3.3.5.3h.2c0,0,.1,0,.2,0,.1,0,.2,0,.3,0h0c.6,0,.9-.2,1.2-.3.1.2.3.2.5.2s.2,0,.3,0c.4-.2.8-.4,1.4-.4.1.1.3.2.5.2h0c.8,0,1.3-.2,1.9-.3.7-.2,1.4-.3,2.9-.3.1.1.3.3.7.3s1.2-.3,1.2-.3c.2,0,.4-.1.5-.3.4-.6.4-1.2.5-1.8,0-.2-.1-.3-.3-.4-.2-.3-.2-.7-.3-1.2h0c.2-.1.2-.3.2-.5v-1.7c-.1-.3-.4-.6-.7-.6h-.1c0-.3.1-.6.2-1.2-.2-.3-.2-.6-.3-.7,0,0,.2,0,.2,0,.2,0,.4-.1.5-.3.2-.3.1-.6-.1-.8,0-.1-.1-.6-.1-.9s0-.5,0-.8h0c.1-.1,0-.5,0-.6h0c.2-.2.2-.4.3-.6,0-.3,0-.7-.2-1,0-.7,0-1.4,0-2.1,0-.2,0-.5,0-.7.2,0,.3-.1.4-.2.1-.1.3-.3.2-.5,0-.9-.2-1.7-.3-2.5-.2-1.2-.3-2.4-.3-3.6,0-.2-.1-.3-.3-.4h0c0-.3.2-.6.2-.9.2,0,.3-.2.3-.4,0,0,0-.2,0-.3,0-1,0-2.1-.3-3.3v-.8c0,0,0-.2,0-.2.1-.5.2-1.2.2-1.9s0-.8-.1-1.7c0,0,0-.2-.1-.2.4-1.3.2-2.6,0-3.8-.1-.8-.2-1.6-.1-2.4h0c0,0,.2,0,.2,0,.2-.3.2-.4,0-2.4,0-.2,0-.4-.3-.6,0,0,0-.2.1-.2.1-.2,0-.5-.2-.7,0-.1,0-.3,0-.3-.1-.3-.4-.5-.4-.7,0-.2.1-.4.1-.5,0,0,.1,0,.2-.1.2-.1.2-.3.2-.5,0-.3-.1-.6-.2-.9.4-.6.4-1,.5-1.7l.2-1.3c0-.3-.2-.4-.5-.5h0c-.1-.3-.1-.5-.1-1s0-.5,0-.8c.3-.2.6-.7.7-.9h0c.3-.3.3-.8.2-1.1,0-.3.1-.8-.1-1.3h0c.2-.2.3-.4.2-.6,0-.2-.2-.5-.4-.8,0-2,0-4.6-.7-6.5,0,0,.1-.2.1-.2,0-.6.1-1.2,0-1.8.1,0,.2-.1.2-.2s0-.2,0-.4c.3-.1.4-.4.4-.8l-.3-1c.2-.2.3-.5.2-.8-.1-.9-.2-1.5-.4-2,.1,0,.2,0,.3-.1.2-.1.2-.4.2-.5s-.1-.5-.2-.6c-.1-.2-.4-.5-.6-.5.2,0,.4-.1.5-.3,0-.2,0-.3,0-.5,0-.2,0-.6-.2-1,0,0,.2-.1.2-.2.2-.2.1-.5,0-.8-.4-.4-1-.7-1.5-.8-.3-.4-.9-.6-1.6-.6h-.2c-.2,0-.6-.2-.8-.2-.3,0-.5,0-.8.2,0,0-.1,0-.1,0-.2,0-.4-.2-.6-.2h-.1l-.4.2c-.1-.1-.3-.2-.4-.2-.1,0-.3,0-.5,0s-.2,0-.2,0c-.1,0-.2.2-.3.3-.1-.2-.3-.3-.5-.3h-.2s-.2.1-.3.1h-.2c-.1,0-.2,0-.2,0-.4,0-.8,0-1.1.2h-.3c-.3,0-.6,0-1,.2,0-.3-.1-.5-.3-.6-.1,0-.2,0-.3,0-.2,0-.3,0-.4.1,0,0-.3.2-.6.3-.3-.3-.7-.3-1.2-.3h-.1c-.2,0-.4,0-.4.2,0-.2-.1-.4-.3-.5-.1,0-.2-.1-.3-.1-.2,0-.3,0-.4.2-.3.3-1,.3-1.7.3-.4,0-.9,0-1.3.1h-.1c-.3,0-.5-.1-1.2-.4,0,0-.2,0-.2,0-.1,0-.2,0-.3,0-.2.1-.3.2-.3.4,0,0-.2.2-.4.2,0-.2,0-.4,0-.5-.1-.2-.5-.4-.8-.4h-.2c-.3,0-.6.3-.6.6-.2,0-.3.1-.5.2-.2-.1-.3-.2-.3-.2-.1-.2-.3-.3-.5-.3h-.1c-.3,0-.4.2-.5.4,0,0-.3,0-.5.1-.1,0-.3-.1-.4-.2v-.2c0-.3-.3-.5-.6-.5s-1,.2-1.1.4c0,0-.1.2-.2.2,0,0,0,0-.1-.1-.1-.1-.4-.3-.5-.3h0c-.4,0-.8.3-1.2.4-.2,0-.3.1-.4.2-.1-.1-.3-.2-.4-.2s-.2,0-.3,0c-.3.2-.8.2-1.3.2s-1.3,0-1.9.2c0,0-.2,0-.2,0-.1,0-.2,0-.3,0,0,0-.3,0-.3,0,0-.3-.2-.5-.3-.6-.1-.1-.6-.2-.9-.2s-1.6,0-1.6,0c-.5,0-1.7,0-2.3.9-.4,0-.6-.2-.8-.4-.3-.2-.6-.5-1.2-.5s-.5,0-1.1.3l-.4.3s0,0,0,0c-.1-.2-.4-.3-.6-.3-.5,0-.8.1-.8.2-.3,0-.5,0-.7-.2-.1,0-.2,0-.3,0-.2,0-.3,0-.4.2-.2,0-.3-.1-.4-.2-.3-.1-.7-.3-1.6-.3h0c0,0-.2.1-.3.2,0,0,0,0,0,0-.3-.2-1.1-.4-1.3-.4-.3,0-.4.3-.4.6h0c-.2.1-.4.2-.5.3h-.2c-.1,0-.2,0-.3,0,0-.3-.3-.3-.5-.4h0c-.2,0-.5.2-.6.4-.2,0-.3-.1-.5-.1s-.3,0-.4,0c0-.3-.2-.6-.5-.6h-.2c-.2,0-.4.1-.5.3,0,0,0,.1,0,.2-.1,0-.3.1-.4.2,0-.2-.1-.3-.3-.4-.1,0-.2-.1-.3-.1h-.2l-1,.3c-.9,0-1.9,0-2.5-.3-.2,0-.4,0-.6,0s-.3,0-.3,0c-.2-.2-.4-.3-.6-.3s-.1,0-.2,0c-.3.2-.5.3-.4.5,0,0-.2,0-.2,0h-.2c-.6,0-1.4,0-1.1.3-.4,0-.6-.1-.6-.2-.2-.1-.4-.3-.6-.3s-.1,0-.2,0c-.3.1-.5.2-.5.5-.3,0-.7,0-1,.2-.3-.2-.7-.2-1.6-.4,0,0-.4-.1-.5-.1-.2,0-.3,0-.4.2-.2-.2-.4-.3-.6-.3h0c-.2,0-.4,0-.6.4l-.9-.4c-.2,0-.3.1-.4.2-.2,0-.4-.2-.7-.2s-.6.2-.8.2h-.2c-.8,0-1.4.3-1.6.6-.6,0-1.2.4-1.6.8s0,.5.2.8c0,0,0,0,.1.1-.4.5-.4.9-.3,1-.2.2-.3.3-.2.5,0,.2.2.2.3.3,0,.2-.4.6-.7,1.1-.1.2-.2.3-.1.5,0,.2.1.3.3.4,0,0,.2,0,.3.1-.3.5-.4,1.3-.5,2.4,0,.2.1.3.3.3l-.3,1.1c0,.3.2.4.4.5,0,.3-.1.6,0,.8,0,0,.1.1.2.2-.1.6-.1,1.2.1,2,0,.1,0,.2.1.3-.8,2.1-.8,4.7-.7,6.7v.8h.1l-.3.3h0c-.2.7-.2,1.2-.1,1.8-.1.2,0,.6.2.8Z"/>
  <path d="M806,66.5c-14.9,0-27,12.1-27,27v135c0,14.9,12.1,27,27,27h135c14.9,0,27-12.1,27-27V93.5c0-14.9-12.1-27-27-27h-135ZM941.1,120.5v108h-135V93.5h135v27Z"/>
  <path d="M912.3,143.2c0-.2-.2-.5-.4-.8,0-2,0-4.6-.7-6.5,0,0,.1-.2.1-.2,0-.6.1-1.2,0-1.8.1,0,.2-.1.2-.2,0,0,0-.2,0-.4.3-.1.4-.4.4-.8l-.3-1c.2-.2.3-.5.2-.8-.1-.9-.2-1.5-.4-2,.1,0,.2,0,.3-.1.2-.1.2-.4.2-.5s-.1-.5-.2-.6c-.1-.2-.4-.5-.6-.5.2,0,.4-.1.5-.3,0-.2,0-.3,0-.5,0-.2,0-.6-.2-1,0,0,.2-.1.2-.2.2-.2.1-.5,0-.8-.4-.4-1-.7-1.5-.8-.3-.4-.9-.6-1.6-.6h-.2c-.2,0-.6-.2-.8-.2-.3,0-.5,0-.8.2,0,0-.1,0-.1,0-.2,0-.4-.2-.6-.2h-.1l-.4.2c-.1-.1-.3-.2-.4-.2-.1,0-.3,0-.5,0s-.2,0-.2,0c-.1,0-.2.2-.3.3-.1-.2-.3-.3-.5-.3h-.2s-.2.1-.3.1h-.2c-.1,0-.2,0-.2,0-.4,0-.8,0-1.1.2h-.3c-.3,0-.6,0-1,.2,0-.3-.1-.5-.3-.6-.1,0-.2,0-.3,0-.2,0-.3,0-.4.1,0,0-.3.2-.6.3-.3-.3-.7-.3-1.2-.3h-.1c-.2,0-.4,0-.4.2,0-.2-.1-.4-.3-.5-.1,0-.2-.1-.3-.1-.2,0-.3,0-.4.2-.3.3-1,.3-1.7.3-.4,0-.9,0-1.3.1h-.1c-.3,0-.5-.1-1.2-.4,0,0-.2,0-.2,0-.1,0-.2,0-.3,0-.2.1-.3.2-.3.4,0,0-.2.2-.4.2,0-.2,0-.4,0-.5-.1-.2-.5-.4-.8-.4h-.2c-.3,0-.6.3-.6.6-.2,0-.3.1-.5.2-.2-.1-.3-.2-.3-.2-.1-.2-.3-.3-.5-.3h-.1c-.3,0-.4.2-.5.4,0,0-.3,0-.5.1-.1,0-.3-.1-.4-.2v-.2c0-.3-.3-.5-.6-.5s-1,.2-1.1.4c0,0-.1.2-.2.2,0,0,0,0-.1-.1-.1-.1-.4-.3-.5-.3h0c-.4,0-.8.3-1.2.4-.2,0-.3.1-.4.2-.1-.1-.3-.2-.4-.2s-.2,0-.3,0c-.3.2-.8.2-1.3.2s-1.3,0-1.9.2c0,0-.2,0-.2,0-.1,0-.2,0-.3,0,0,0-.3,0-.3,0,0-.3-.2-.5-.3-.6-.1-.1-.6-.2-.9-.2s-1.6,0-1.6,0c-.5,0-1.7,0-2.3.9-.4,0-.6-.2-.8-.4-.3-.2-.6-.5-1.2-.5s-.5,0-1.1.3l-.4.3s0,0,0,0c-.1-.2-.4-.3-.6-.3-.5,0-.8.1-.8.2-.3,0-.5,0-.7-.2-.1,0-.2,0-.3,0-.2,0-.3,0-.4.2-.2,0-.3-.1-.4-.2-.3-.1-.7-.3-1.6-.3h0c0,0-.2.1-.3.2,0,0,0,0,0,0-.3-.2-1.1-.4-1.3-.4-.3,0-.4.3-.4.6h0c-.2.1-.4.2-.5.3h-.2c-.1,0-.2,0-.3,0,0-.3-.3-.3-.5-.4h0c-.2,0-.5.2-.6.4-.2,0-.3-.1-.5-.1s-.3,0-.4,0c0-.3-.2-.6-.5-.6h-.2c-.2,0-.4.1-.5.3,0,0,0,.1,0,.2-.1,0-.3.1-.4.2,0-.2-.1-.3-.3-.4-.1,0-.2-.1-.3-.1h-.2l-1,.3c-.9,0-1.9,0-2.5-.3-.2,0-.4,0-.6,0s-.3,0-.3,0c-.2-.2-.4-.3-.6-.3s-.1,0-.2,0c-.3.2-.5.3-.4.5,0,0-.2,0-.2,0h-.2c-.6,0-1.4,0-1.1.3-.4,0-.6-.1-.6-.2-.2-.1-.4-.3-.6-.3s-.1,0-.2,0c-.3.1-.5.2-.5.5-.3,0-.7,0-1,.2-.3-.2-.7-.2-1.6-.4,0,0-.4-.1-.5-.1-.2,0-.3,0-.4.2-.2-.2-.4-.3-.6-.3h0c-.2,0-.4,0-.6.4l-.9-.4c-.2,0-.3.1-.4.2-.2,0-.4-.2-.7-.2s-.6.2-.8.2h-.2c-.8,0-1.3.3-1.6.6-.6,0-1.2.4-1.6.8s0,.5.2.8c0,0,0,0,.1.1-.4.5-.4.9-.3,1-.2.2-.3.3-.2.5,0,.2.2.2.3.3,0,.2-.4.6-.7,1.1-.1.2-.2.3-.1.5,0,.2.1.3.3.4,0,0,.2,0,.3.1-.3.5-.4,1.3-.5,2.4,0,.2.1.3.3.3l-.3,1.1c0,.3.2.4.4.5,0,.3-.1.6,0,.8,0,0,.1.1.2.2-.1.6-.1,1.2.1,2,0,.1,0,.2.1.3-.8,2.1-.8,4.7-.7,6.7v.8h.1l-.3.3h0c-.2.7-.2,1.2-.1,1.8-.1.2,0,.6.2.8.1,0,.2.1.4.1s.2,0,.3-.1l-.2.7c0,.1.1.2.2.3v.6c0,.3,0,.6,0,.8h-.2c-.4.2-.5.4-.5.8l.2,1.4h0v.2c0,.4,0,.7.4,1.3-.1.3-.2.5-.2.9s0,.4.2.5q0,0,.1.1c0,.1,0,.2-.1.3,0,.2,0,.3.2.5-.2.1-.4.3-.4.5s0,.3,0,.4c-.2.2-.2.5,0,.8,0,0,0,.1,0,.2,0,0,0,0,0,0-.2.2-.3.5-.3.7-.2,1.5-.2,1.8.3,2.2.1.8,0,1.6-.1,2.4-.2,1.2-.4,2.5.1,3.9-.2.3-.3.5-.4.6,0,.3,0,.7,0,1.1,0,.6,0,1.4.2,1.9,0,0,0,.1.1.2v.9c-.3,1.3-.4,2.3-.4,3.3v.3c0,.2.2.3.3.4,0,.2.2.5.3.7-.2.1-.3.3-.3.6,0,1.1-.1,2.3-.3,3.6-.1.9-.2,1.7-.1,3,.1.1.3.2.5.3,0,.2,0,.4,0,.7,0,.7-.1,1.4,0,2.1-.1.1-.3.8-.2,1,0,.2,0,.3.2.4,0,.1,0,.3.2.5-.1.4-.1.8-.2,1.1,0,.3,0,.8-.1.9-.2.2-.3.4-.1.7.1.2.3.2.4.2s.2,0,.3,0c0,.1,0,.5-.2,1.5,0,.1.1.3.2.6h-.1c-.3,0-.5.3-.6.6v1.7c-.1.2,0,.4.1.5,0,.1-.1.8-.1,1.1-.2.1-.3.3-.3.6,0,.6.1,1.2.5,1.8.1.2.7.4.9.4,0,0,.8.2.8.2.4,0,.6-.2.7-.3,1.2,0,2.1.2,2.8.3.6.1,1.2.2,1.9.3h.2c.2,0,.3,0,.4-.1,0,0,.1,0,.2-.1.5,0,.9.2,1.3.4,0,0,.2,0,.2,0,.2,0,.3-.1.4-.2.3.2.6.3,1.3.4h0c.1,0,.2,0,.3-.1,0,0,.1,0,.2,0,.1,0,.2,0,.3,0,.2,0,.3,0,.4-.2.2-.2.1-.4,0-.6.2,0,.5-.1.8-.3,0,0,.2,0,.2,0,0,.2,0,.5.2.6.1.2.6.3.8.3v-.2c.1,0,.2,0,.3,0h.1q0,.1.1.1c.1,0,.3,0,.4,0,.6,0,1.2,0,1.8,0h1c.8,0,1.6,0,2.3.1h0c.3,0,.4-.2.5-.4.5,0,1.2.2,1.9.3v-.6c.1,0,.6.9.6.9,0,0,.5,0,.8,0h.2l1,.2h.2c.2,0,.5.1.8.1.6,0,1.5-.2,1.3-.5.3.3.8.4,1.3.4s.5,0,1-.1c.2.1.4.2.6.2s.2,0,.3,0c.5,0,1,0,1.2-.3h.1s.2,0,.3,0h1.4c.3,0,.6,0,.8,0h.2c.2,0,.6,0,.7-.2h.9c.2,0,.4,0,.5,0,.3.2.8.3,1.3.3s1,0,1.4-.2h0c.1.2.4.4.6.4.9,0,1.4-.2,1.7-.3.3,0,.5.1.9.1s.9,0,1.2-.2c.3,0,.5-.1.8-.1l1,.4c1.4-.2,2.8-.4,4-.5,0,.2.1.3.2.4s.3.1.4.1.9-.2,1.5-.2c1-.2,2.1-.4,3-.5h0c.1.3.3.4.6.4h0c.8-.1,1.6-.1,2.3-.1h1c.6,0,1.3,0,2-.2.2.1.4.2.5.2h.2c.2,0,.7-.2.8-.3.1-.2.2-.4.2-.6h.2c.1,0,.3,0,.4,0,.2,0,.3,0,.4-.1-.2.2-.2.5,0,.8.1.2.3.3.5.3h.2c0,0,.1,0,.2,0,.1,0,.2,0,.3,0h0c.6,0,.9-.2,1.2-.3.1.2.3.2.5.2s.2,0,.3,0c.4-.2.8-.4,1.4-.4.1.1.3.2.5.2h0c.8,0,1.3-.2,1.9-.3.7-.2,1.4-.3,2.9-.3.1.1.3.3.7.3s1.2-.3,1.2-.3c.2,0,.4-.1.5-.3.4-.6.4-1.2.5-1.8,0-.2-.1-.3-.3-.4-.2-.3-.2-.7-.3-1.2h0c.2-.1.2-.3.2-.5v-1.7c-.1-.3-.4-.6-.7-.6h-.1c0-.3.1-.6.2-1.2-.2-.3-.2-.6-.3-.7,0,0,.2,0,.2,0,.2,0,.4-.1.5-.3.2-.3.1-.6-.1-.8,0-.1-.1-.6-.1-.9s0-.5,0-.8h0c.1-.1,0-.5,0-.6h0c.2-.2.2-.4.3-.6,0-.3,0-.7-.2-1,0-.7,0-1.4,0-2.1,0-.2,0-.5,0-.7.2,0,.3-.1.4-.2.1-.1.3-.3.2-.5,0-.9-.2-1.7-.3-2.5-.2-1.2-.3-2.4-.3-3.6,0-.2-.1-.3-.3-.4h0c0-.3.2-.6.2-.9.2,0,.3-.2.3-.4,0,0,0-.2,0-.3,0-1,0-2.1-.3-3.3v-.8c0,0,0-.2,0-.2.1-.5.2-1.2.2-1.9s0-.8-.1-1.7c0,0,0-.2-.1-.2.4-1.3.2-2.6,0-3.8-.1-.8-.2-1.6-.1-2.4h0c0,0,.2,0,.2,0,.2-.3.2-.4,0-2.4,0-.2,0-.4-.3-.6,0,0,0-.2.1-.2.1-.2,0-.5-.2-.7,0-.1,0-.3,0-.3-.1-.3-.4-.5-.4-.7,0-.2.1-.4.1-.5,0,0,.1,0,.2-.1.2-.1.2-.3.2-.5,0-.3-.1-.6-.2-.9.4-.6.4-1,.5-1.7l.2-1.3c0-.3-.2-.4-.5-.5h0c-.1-.3-.1-.5-.1-1s0-.5,0-.8c.3-.2.6-.7.7-.9h0c.3-.3.3-.8.2-1.1,0-.3.1-.8-.1-1.3h0c.2-.2.3-.4.2-.6Z"/>
  <path d="M104,768.5c-14.9,0-27,12.1-27,27v135c0,14.9,12.1,27,27,27h135c14.9,0,27-12.1,27-27v-135c0-14.9-12.1-27-27-27H104ZM239.1,822.5v108H104.1v-135h135v27Z"/>
  <path d="M210.3,845.2c0-.2-.2-.5-.4-.8,0-2,0-4.6-.7-6.5,0,0,.1-.2.1-.2,0-.6.1-1.2,0-1.8.1,0,.2-.1.2-.2,0,0,0-.2,0-.4.3-.1.4-.4.4-.8l-.3-1c.2-.2.3-.5.2-.8-.1-.9-.2-1.5-.4-2,.1,0,.2,0,.3-.1.2-.1.2-.4.2-.5s-.1-.5-.2-.6c-.1-.2-.4-.5-.6-.5.2,0,.4-.1.5-.3,0-.2,0-.3,0-.5,0-.2,0-.6-.2-1,0,0,.2-.1.2-.2.2-.2.1-.5,0-.8-.4-.4-1-.7-1.5-.8-.3-.4-.9-.6-1.6-.6h-.2c-.2,0-.6-.2-.8-.2-.3,0-.5,0-.8.2,0,0-.1,0-.1,0-.2,0-.4-.2-.6-.2h-.1l-.4.2c-.1-.1-.3-.2-.4-.2-.1,0-.3,0-.5,0s-.2,0-.2,0c-.1,0-.2.2-.3.3-.1-.2-.3-.3-.5-.3h-.2s-.2.1-.3.1h-.2c-.1,0-.2,0-.2,0-.4,0-.8,0-1.1.2h-.3c-.3,0-.6,0-1,.2,0-.3-.1-.5-.3-.6-.1,0-.2,0-.3,0-.2,0-.3,0-.4.1,0,0-.3.2-.6.3-.3-.3-.7-.3-1.2-.3h-.1c-.2,0-.4,0-.4.2,0-.2-.1-.4-.3-.5-.1,0-.2-.1-.3-.1-.2,0-.3,0-.4.2-.3.3-1,.3-1.7.3-.4,0-.9,0-1.3.1h-.1c-.3,0-.5-.1-1.2-.4,0,0-.2,0-.2,0-.1,0-.2,0-.3,0-.2.1-.3.2-.3.4,0,0-.2.2-.4.2,0-.2,0-.4,0-.5-.1-.2-.5-.4-.8-.4h-.2c-.3,0-.6.3-.6.6-.2,0-.3.1-.5.2-.2-.1-.3-.2-.3-.2-.1-.2-.3-.3-.5-.3h-.1c-.3,0-.4.2-.5.4,0,0-.3,0-.5.1-.1,0-.3-.1-.4-.2v-.2c0-.3-.3-.5-.6-.5s-1,.2-1.1.4c0,0-.1.2-.2.2,0,0,0,0-.1-.1-.1-.1-.4-.3-.5-.3h0c-.4,0-.8.3-1.2.4-.2,0-.3.1-.4.2-.1-.1-.3-.2-.4-.2s-.2,0-.3,0c-.3.2-.8.2-1.3.2s-1.3,0-1.9.2c0,0-.2,0-.2,0-.1,0-.2,0-.3,0,0,0-.3,0-.3,0,0-.3-.2-.5-.3-.6s-.6-.2-.9-.2-1.6,0-1.6,0c-.5,0-1.7,0-2.3.9-.4,0-.6-.2-.8-.4-.3-.2-.6-.5-1.2-.5s-.5,0-1.1.3l-.4.3s0,0,0,0c-.1-.2-.4-.3-.6-.3-.5,0-.8.1-.8.2-.3,0-.5,0-.7-.2-.1,0-.2,0-.3,0-.2,0-.3,0-.4.2-.2,0-.3-.1-.4-.2-.3-.1-.7-.3-1.6-.3h0c0,0-.2.1-.3.2,0,0,0,0,0,0-.3-.2-1.1-.4-1.3-.4-.3,0-.4.3-.4.6h0c-.2.1-.4.2-.5.3h-.2c-.1,0-.2,0-.3,0,0-.3-.3-.3-.5-.4h0c-.2,0-.5.2-.6.4-.2,0-.3-.1-.5-.1s-.3,0-.4,0c0-.3-.2-.6-.5-.6h-.2c-.2,0-.4.1-.5.3,0,0,0,.1,0,.2-.1,0-.3.1-.4.2,0-.2-.1-.3-.3-.4-.1,0-.2-.1-.3-.1h-.2l-1,.3c-.9,0-1.9,0-2.5-.3-.2,0-.4,0-.6,0s-.3,0-.3,0c-.2-.2-.4-.3-.6-.3s-.1,0-.2,0c-.3.2-.5.3-.4.5,0,0-.2,0-.2,0h-.2c-.6,0-1.4,0-1.1.3-.4,0-.6-.1-.6-.2-.2-.1-.4-.3-.6-.3s-.1,0-.2,0c-.3.1-.5.2-.5.5-.3,0-.7,0-1,.2-.3-.2-.7-.2-1.6-.4,0,0-.4-.1-.5-.1-.2,0-.3,0-.4.2-.2-.2-.4-.3-.6-.3h0c-.2,0-.4,0-.6.4l-.9-.4c-.2,0-.3.1-.4.2-.2,0-.4-.2-.7-.2s-.6.2-.8.2h-.2c-.8,0-1.4.3-1.6.6-.6,0-1.2.4-1.6.8s0,.5.2.8c0,0,0,0,.1.1-.4.5-.4.9-.3,1-.2.2-.3.3-.2.5,0,.2.2.2.3.3,0,.2-.4.6-.7,1.1-.1.2-.2.3-.1.5,0,.2.1.3.3.4,0,0,.2,0,.3.1-.3.5-.4,1.3-.5,2.4,0,.2.1.3.3.3l-.3,1.1c0,.3.2.4.4.5,0,.3-.1.6,0,.8s.1.1.2.2c-.1.6-.1,1.2.1,2,0,.1,0,.2.1.3-.8,2.1-.8,4.7-.7,6.7v.8h.1l-.3.3h0c-.2.7-.2,1.2-.1,1.8-.1.2,0,.6.2.8.1,0,.2.1.4.1s.2,0,.3-.1l-.2.7c0,.1.1.2.2.3v.6c0,.3,0,.6,0,.8h-.2c-.4.2-.5.4-.5.8l.2,1.3h0v.2c0,.4,0,.7.4,1.3-.1.3-.2.5-.2.9s0,.4.2.5q0,0,.1.1c0,.1,0,.2-.1.3,0,.2,0,.3.2.5-.2.1-.4.3-.4.5,0,.2,0,.3,0,.4-.2.2-.2.5,0,.8,0,0,0,.1,0,.2,0,0,0,0,0,0-.2.2-.3.5-.3.7-.2,1.5-.2,1.8.3,2.2.1.8,0,1.6-.1,2.4-.2,1.2-.4,2.5.1,3.9-.2.3-.3.5-.4.6,0,.3,0,.7,0,1.1,0,.6,0,1.3.2,1.9,0,0,0,.1.1.2v.9c-.3,1.3-.4,2.3-.4,3.3v.3c0,.2.2.3.3.4,0,.2.2.5.3.7-.2.1-.3.3-.3.6,0,1.1-.1,2.3-.3,3.6-.1.9-.2,1.7-.1,3,.1.1.3.2.5.3,0,.2,0,.4,0,.7,0,.7-.1,1.4,0,2.1-.1.1-.3.8-.2,1,0,.2,0,.3.2.4,0,.1,0,.3.2.5-.1.4-.1.8-.2,1.1,0,.3,0,.8-.1.9-.2.2-.3.4-.1.7.1.2.3.2.4.2s.2,0,.3,0c0,.1,0,.5-.2,1.5,0,.1.1.3.2.6h-.1c-.3,0-.5.3-.6.6v1.7c-.1.2,0,.4.1.5,0,.1-.1.8-.1,1.1-.2.1-.3.3-.3.6,0,.6.1,1.2.5,1.8.1.2.7.4.9.4,0,0,.8.2.8.2.4,0,.6-.2.7-.3,1.2,0,2.1.2,2.8.3.6.1,1.2.2,1.9.3h.2c.2,0,.3,0,.4-.1,0,0,.1,0,.2-.1.5,0,.9.2,1.3.4,0,0,.2,0,.2,0,.2,0,.3-.1.4-.2.3.2.6.3,1.3.4h0c.1,0,.2,0,.3-.1,0,0,.1,0,.2,0,.1,0,.2,0,.3,0,.2,0,.3,0,.4-.2.2-.2.1-.4,0-.6.2,0,.5-.1.8-.3,0,0,.2,0,.2,0,0,.2,0,.5.2.6.1.2.6.3.8.3v-.2c.1,0,.2,0,.3,0h.1q0,.1.1.1c.1,0,.3,0,.4,0,.6,0,1.2,0,1.8,0h1c.8,0,1.6,0,2.3.1h0c.3,0,.4-.2.5-.4.5,0,1.2.2,1.9.3v-.6c.1,0,.6.9.6.9,0,0,.5,0,.8,0h.2l1,.2h.2c.2,0,.5.1.8.1.6,0,1.5-.2,1.3-.5.3.3.8.4,1.4.4s.5,0,1-.1c.2.1.4.2.6.2s.2,0,.3,0c.5,0,1,0,1.2-.3h.1s.2,0,.3,0h1.4c.3,0,.6,0,.8,0h.2c.2,0,.6,0,.7-.2h.9c.2,0,.4,0,.5,0,.3.2.8.3,1.3.3s1,0,1.4-.2h0c.1.2.4.4.6.4.9,0,1.4-.2,1.7-.3.3,0,.5.1.9.1s.9,0,1.2-.2c.3,0,.5-.1.8-.1l1,.4c1.4-.2,2.8-.4,4-.5,0,.2.1.3.2.4.1.1.3.1.4.1s.9-.2,1.5-.2c1-.2,2.1-.4,3-.5h0c.1.3.3.4.6.4h0c.8-.1,1.6-.1,2.3-.1h1c.6,0,1.3,0,2-.2.2.1.4.2.5.2h.2c.2,0,.7-.2.8-.3.1-.2.2-.4.2-.6h.2c.1,0,.3,0,.4,0,.2,0,.3,0,.4-.1-.2.2-.2.5,0,.8.1.2.3.3.5.3h.2c0,0,.1,0,.2,0,.1,0,.2,0,.3,0h0c.6,0,.9-.2,1.2-.3.1.2.3.2.5.2s.2,0,.3,0c.4-.2.8-.4,1.4-.4.1.1.3.2.5.2h0c.8,0,1.3-.2,1.9-.3.7-.2,1.4-.3,2.9-.3.1.1.3.3.7.3s1.2-.3,1.2-.3c.2,0,.4-.1.5-.3.4-.6.4-1.2.5-1.8,0-.2-.1-.3-.3-.4-.2-.3-.2-.7-.3-1.2h0c.2-.1.2-.3.2-.5v-1.7c-.1-.3-.4-.6-.7-.6h-.1c0-.3.1-.6.2-1.2-.2-.3-.2-.6-.3-.7,0,0,.2,0,.2,0,.2,0,.4-.1.5-.3.2-.3.1-.6-.1-.8,0-.1-.1-.6-.1-.9s0-.5,0-.8h0c.1-.1,0-.5,0-.6h0c.2-.2.2-.4.3-.6,0-.3,0-.7-.2-1,0-.7,0-1.4,0-2.1,0-.2,0-.5,0-.7.2,0,.3-.1.4-.2s.3-.3.2-.5c0-.9-.2-1.7-.3-2.5-.2-1.2-.3-2.4-.3-3.6,0-.2-.1-.3-.3-.4h0c0-.3.2-.6.2-.9.2,0,.3-.2.3-.4,0,0,0-.2,0-.3,0-1,0-2.1-.3-3.3v-.8c0,0,0-.2,0-.2.1-.5.2-1.2.2-1.9s0-.8-.1-1.7c0,0,0-.2-.1-.2.4-1.3.2-2.6,0-3.8-.1-.8-.2-1.6-.1-2.4h0c0,0,.2,0,.2,0,.2-.3.2-.4,0-2.4,0-.2,0-.4-.3-.6,0,0,0-.2.1-.2.1-.2,0-.5-.2-.7,0-.1,0-.3,0-.3-.1-.3-.4-.5-.4-.7,0-.2.1-.4.1-.5,0,0,.1,0,.2-.1.2-.1.2-.3.2-.5,0-.3-.1-.6-.2-.9.4-.6.4-1,.5-1.7l.2-1.3c0-.3-.2-.4-.5-.5h0c-.1-.3-.1-.5-.1-1s0-.5,0-.8c.3-.2.6-.7.7-.9h0c.3-.3.3-.8.2-1.1,0-.3.1-.8-.1-1.3h0c.2-.2.3-.4.2-.6Z"/>
  <path d="M595,565.8c6.7,1.8,9.5-2.4,12-7.1.6-1.1,1.2-2.1,1.8-3.2,4.6-8.9,8.7-18.1,8.2-28.4-.3-7.3-4.1-15.1-14.4-12.2h0c0-1.8,0-3.3.3-4.7,3.3-13.2,4.6-26.6,3.9-40.1-.3-5.2-1.8-10.5-3.8-15.3-1.7-3.9-4.1-7.4-3.6-11.9.1-1.2-.3-3.1-1.2-3.8-3.2-2.8-2.9-6.3-2.9-9.9,0-5.5-1.8-10.1-5.8-14-1.4-1.4-3.1-2.7-4.3-4.2-8.8-11.2-20.5-17.9-34.1-21.2-10.4-2.6-21-3.6-31.9-3.9-11.3-.4-20.9,2.2-30,8.2-1.2.8-2.8,1.3-4.2,1.3-4.3.2-8.8-.5-13,.3-6.8,1.3-13.1,4.4-17.5,9.9-8,9.8-9.5,21.2-7.3,33.4.5,2.9.7,5.7-1.2,8.8-5.1,8.3-6.9,17.9-6.9,27.4,0,8.2,1.5,16.4,2.3,24.6.3,3.3.7,6.6,1,10.1-7.6-1.8-11.3-.2-13.6,7.5-.5,1.6-.7,3.2-.8,4.8-.6,9.4,3,17.9,5.6,26.7,1.3,4.4,3,8.5,6.6,11.6,1,.9,1.7,2.5,1.9,3.9.9,5.9.8,12.1,2.5,17.9,3.4,12.1,8.7,23.3,16.9,33.2,7.2,8.7,16.2,14.4,26.3,18.3,13.8,5.2,28.2,5.6,42.7,3.5,18.5-2.7,34.6-10.1,46.1-25.4,6.9-9.2,12.5-19.1,14.6-30.8.9-5,2.4-9.9,3.7-15.1ZM603.1,517.9c3.1-.5,6.6-1.7,9.1,2.2-6.7,2.7-10.9,7.2-10.3,15.2,2-6.1,6.5-8.8,12.4-10h0c1.2,8.5-1.7,16.2-5.1,23.6-2.1,4.5-4.9,8.8-7.8,12.8-.8,1.1-3.1,1.7-4.6,1.5-.7-.1-1.6-2.7-1.5-4.1,1-8,2.4-15.9,3.5-23.8.6-3.9,1.1-7.9,1.3-11.8.2-2.3-.3-5.1,2.8-5.6ZM604,468.9c1,11.1-1.1,21.5-2.6,32.2-.3,2.4-.8,4.7-1,6.4-1.6-10.2-3.4-20.9-5-31.6-1.6-10.5-2.8-21.2-10.2-29.8.3-.3.7-.6,1-.9,2.1,1.5,4.2,3,6.3,4.6,6.3,4.9,10.8,10.3,11.5,19.2ZM597.3,449.8c-3.3-2.1-6.5-4-10.3-6.4,10.1-.5,9.7-1.3,10.3,6.4ZM582.6,442c-.2-.4-.4-.8-.6-1.2,3.5-2.5,7-5,10.4-7.4h0c.8,2,1.5,3.4,2.2,5.2-4.1,1.2-8,2.3-12,3.4ZM588.4,433.7c-.4-.2-.7-.4-1.1-.7,1.4-2.7,2.7-5.3,4.4-8.6,2.8,5.3-2.3,6.4-3.3,9.2ZM586.4,415.8c1.8,2.6,5.4,4.3,2.5,8.7-2.6,4-4.2,8.7-6.3,13.1-.4.8-1,1.5-2.2,3.2-.5-2.1-1.2-3.2-.9-3.8,3.7-6.6,5.9-13.6,6.8-21.2ZM550.1,392.5c11.2,2.3,20.5,8.3,29.2,15.6,4.6,3.8,4.6,8.4,3.4,13.3-1.3,5-3,9.8-4.7,15.2-15.3-10.4-32-11.8-48.3-11h0c.5-9.4,1.4-18.1,1.1-26.8-.1-3.3-3-6.5-5.1-10.7,8.3,1.5,16.4,2.8,24.5,4.4ZM522.6,390.2c2.9,3.6,5.6,7.6,5.1,12.9-.7,7.5-.9,14.9-1.3,21.9-3.9,0-6.7-.2-9.5,0-2.7.2-2.8-1.4-2.6-3.3.7-9.1-1.6-17.6-5.7-25.6-1.1-2.1-2.8-3.9-4.9-6.5,4-.5,8.2-1.3,12.4-1.4,2.2,0,5.3.5,6.5,2ZM504.4,396c3.6,3.7,4.9,8.3,5.5,12.6-5.1-4.5-10.5-9.2-15.9-14h0c4.7-3.2,6.3-2.8,10.4,1.4ZM449.1,424.6c.1-6.1,1.7-12.3,7.5-15.4,3.7-2,8.4-3.5,12.5-3.4,6.4.2,13.2.7,18.7,4.9,4.6,3.5,8.9,7.5,13.3,11.3.5.4,1,.8,1.7,1.3.2-3.7-9.3-12.5-16.2-16.2-7.5-4.1-15.4-4.6-23.6-4.4,8.6-6.7,18.5-6.4,28.1-4.4,10.7,2.3,19.7,15.1,20.2,26.9-13.1-.9-26.3-1.5-38.5,4.7-2.4,1.2-5.6,2.3-7.8,3.9-4.9,3.4-7.1,4.9-12.1,8.3-.5-.2-2.5,2.5-3,2.3h0c-.3-6.5-1-13.1-.9-19.6ZM442.6,552.5c0,2.3,0,4.2,0,5.1-2.7-3.3-6.6-9-9.1-16.9-2.8-9.2-2.4-17.1-1.8-21.5,2.7,2.1,5.3,4,7.7,5.9.3-.9.6-2.7,0-4.8-1.3-4.3-5.7-5.8-6.1-5.9h0c.9-.7,4.6-3.4,7-2.1,1.8,1,1.9,3.7,2,5.6.7,15.5.4,32.8.4,34.7ZM443.7,491.3c-2.7-9.8-1.6-28.3,2.5-37.5,2.6-6,8-9,13.6-12-12.2,14.4-11.4,32.8-16.1,49.4ZM549.7,573.4c0,13.1-6.5,20.2-19.7,20.4-5.3.1-10.5-1.4-15.8-1.7-5-.3-10.2-.7-15.1.1-8.9,1.5-20.3-6.8-20.3-15.8,0-4.9.2-10.1,1.9-14.5,1.1-2.9,4.7-5.8,7.9-6.9,6.6-2.4,13.5-4,20.4-5.3,6.8-1.3,13.5,0,19.9,2.5,2.6,1,5.1,2.4,7.8,3.3,9.7,3,13.8,6.6,13.1,18ZM580.8,554.5c-2.7,1.6-4.9,4-7.5,5.7-5,3.2-10.6,2.1-14-1.7-9.7-10.9-21.8-16.1-35.8-17-13.7-.8-27.8-2.5-40.3,5-5.3,3.1-9.8,7.7-14.9,11.3-6.1,4.3-16.3,1-18.4-6.1-2.4-8.2-3-16.7-3.9-25.2-.7-6.7-.8-13.6-.2-20.4.5-6.2.4-12.3,1.5-18.3,2.4-12.4,4.2-25,10-36.5,7.8-15.4,20.2-23.5,37.7-23.3,6.7,0,13.4,0,20.1,0h0c7.8,0,15.7-.6,23.4.2,10.2,1,20.5,2.2,30.1,6.9,12.6,6.3,18.8,17,21.5,29.9,2.7,12.7,4.7,25.5,6.7,38.3,1.7,10.7.5,21.1-2.1,31.6-2,7.8-6.5,14.9-14,19.5Z"/>
  <path class="st1" d="M533.5,575.9c2.1-.3,5.2-.8,4.9-4.8-3.1,0-6.1-.3-9.1,0-8.8,1-17.5,2.7-26.2-1.3-2.6-1.2-6.1-.2-9.2-.2h0c-.2.4-.4.7-.6,1.1,1.2,1.2,2.2,3,3.7,3.6,11.9,4.6,24.2,3.3,36.5,1.6Z"/>
  <path d="M477.2,497c-6.7-.5-10.2,5-7.9,13.8,1.1-2.2,1.2-4.9,2.3-7,1.3-2.5,3.6-4.5,5.6-6.9Z"/>
  <path d="M469.3,510.9s0,0,0,0c0,0,0,0,0,0h0Z"/>
  <path d="M493.8,502.8c-.6-4.2-5.7-8.5-12.3-7.3,8,2.4,11.6,7.3,10.4,15.5,3.5-2.3,2.2-5.5,1.8-8.1Z"/>
  <path d="M489.9,507h0c-.8-5.8-5.4-9-11.7-8,0,0,1.6,1.7,1,3.6-.4,1.3-1.5,1.9-1.9,2.1-1.9,1-3.8.1-4.1,0,0,.3.1,1.2,0,2-.6,4,1,5.6,5.1,5.1,2.5-.3,5-.1,7.5,0,3.3,0,4.5-1.7,4.1-4.7Z"/>
  <path d="M500.4,521.8c-5.2,2.2-10.5,4.4-15.6,6.7-.4.2-.4,1.2-.5,1.8.6.2,1.4.6,1.9.4,3.3-1.2,6.6-2.3,9.8-3.8,2-.9,3.6-2.6,5.5-3.9-.3-.4-.6-.9-1-1.3Z"/>
  <path d="M498.3,503.8h0c.7,2.3,1.5,4.6,2.6,7.8,2.1-4.3-.9-12.7-4.3-15.9-11.6-10.9-30.9-2.6-37.9,8.6-.4.7.4,2.1.8,4,5.4-8.4,11.7-13.2,20.9-14.5,8.5-1.2,15.4,2,18,10.1Z"/>
  <path d="M461.7,473.5h0c4.3-6.7,10-10.6,18.3-9.5,4.7.6,9.5,1.2,14.1,2.2,2.9.6,4.7.2,6-2.7,1.2-2.6,1-4.7-1.5-6.1-8.8-5-25.6-5.9-33,3.6-3.3,4.2-6.8,8.4-7.7,14.7,1.3-.2,1.9,0,2.3-.4.6-.5,1-1.2,1.4-1.9Z"/>
  <path d="M568.9,498.4h0c-3.2-2.3-11.9-6.6-22.3-4.8-6.1,1-12.4,9.3-13,15.9,0,.7.5,1.4.7,2.1.6-.5,1.4-1,1.7-1.6.7-1.6,1.1-3.3,1.7-5,1.2-3.4,3.3-6.1,6.1-7.7,0,0,1.7-1,4.1-1.3,5.3-.8,15.9-1,28,12.1.4.5,1-.7,1.5-1.1-1.6-2.4-4.3-5.6-8.5-8.6Z"/>
  <path d="M553.8,497.8h0c-7.6-.7-13.7,5.3-12.8,12.7.1.9,1.4,1.7,2.1,2.5.3-.4.6-.8.9-1.1-1.1-7.5,4.3-10.8,9.8-14Z"/>
  <path d="M552.1,501.2c-.2,1.9.3,4.3-.6,5.1-1.2,1-3.5.5-5.4.7-.3,5.8-.3,6.1,2.2,6.4,4.6.5,9.2.8,13.8,1.2,2.3-9.3-2.2-14.6-10-13.3Z"/>
  <path d="M567.2,458.5c-8.4-4.3-17.4-3.8-26.2-.3-1,.4-2.4,1.3-2.5,2.1-.3,2-.5,4.4.4,6.1,1.5,2.7,4.4,1.4,6.6.9,13.1-3.3,24.7-2.2,32.8,10.3.6.9,1.8,1.3,2.8,1.9.4-.4.7-.8,1.1-1.2-2.7-8.3-7-15.7-15-19.7Z"/>
  <path d="M560.5,499.6c5.2,5.4,6.2,7.6,4.8,14.6,3.4-.4,3.4-2.6,3.3-4.7-.3-5-3.8-9.2-8-9.8Z"/>
  <path d="M531.7,524.7c5.6,2.5,11.2,5.1,16.7,7.6.3-.6.6-1.2.9-1.9-5.5-2.5-11-5.1-16.5-7.6l-1.1,1.9Z"/>
  <path d="M530.1,530.8c-1-8-5.4-13.8-14.6-13.3-9.5-.8-13.2,6.2-14.6,13.9-.6,3.5.9,5.5,5.2,6.7,6.9,2,12.2,1.8,19,.6,3.7-.7,5.4-4.4,4.9-7.9h0ZM519.4,537.5h0c-1.6.2-3.1.3-4.7,0-1-.1-1.9-.2-2.9-.4-.2,0-.9,0-.8,0h0c-2.7-.3-6-1.8-6.4-4.9-.6-3.8.3-7,3.4-9.3.3-.2.5-.4.8-.6.4-.4.8-.7,1.3-.9,3.7-1.7,7.1-1.4,10.8.2,2.6,1.2,5,3.4,5.8,6.2,1.3,5-2.5,9.1-7.3,9.7Z"/>
  <path d="M542.6,560.7c-7.1-2.6-14.4-4.8-21.8-6.3-11.8-2.3-23.3-.7-34.2,4.9-3.5,1.8-3.9,4.3-3,7,2.3,7.3,7,12.9,13.4,17.1,6.3,4.1,13.2,4.9,20.5,4.4h0c2.1,0,4.2,0,6.3,0,6.7-.3,12.8-2.1,17-7.7,2.2-2.9,3.7-6.4,5.3-9.7,2.2-4.5,1.4-8-3.4-9.7ZM540,576.8c-2.7,6.8-8.5,8.2-14.1,8.3-7.5.2-15.2-.4-22.5-1.8-4-.8-8.4-3.3-11.2-6.4-.8-.9-1.2-2.3-1.3-3.9,4.2,5.8,10.8,5.7,16.4,6.1,10.8.7,21.7,1.3,32.7-2.4h0ZM529.3,571.2c3-.3,6,0,9.1,0,.3,4-2.8,4.5-4.9,4.8-12.2,1.7-24.5,3-36.5-1.6-1.5-.6-2.5-2.3-3.7-3.6.2-.4.4-.7.6-1.1h0c3.1,0,6.7-1,9.2.2M544,565.5h0c-.8,0-1.6.1-2.4,0-6.5-1.2-13-3-19.6-3.5-8.2-.6-16.4-.2-24.6,0-2.1,0-4.2.9-7.1,1.6-.1-.4-.9-1.6-.6-2.6.3-.8,1.7-1.4,2.7-1.6,6.7-1.2,13.5-3.7,20.1-3.1,9.6.9,19.1,3.9,28.5,6.1,1.1.3,2,1.3,3,1.9,0,.4-.1.7-.2,1.1Z"/>
</svg>