<?xml version="1.0" encoding="UTF-8"?>
<svg id="Layer_1" xmlns="http://www.w3.org/2000/svg" viewBox="0 0 168.58 212.04">
  <defs>
    <style>
      .cls-1 {
        fill: #009fe3;
      }
    </style>
  </defs>
  <path class="cls-1" d="M42.45,133.8l8.31-2.66c-5.96-3.43-11.65-7.27-16.98-11.65-10.21-8.49-18.38-21.49-21.99-34.54-2.66-9.66-2.44-19.51-1.35-29.35,2.39-21.45,13.01-37.93,30.75-49.99.5-.32.86-.95,1.63-.36,2.08,1.58,2.12,6.01.09,7.63-1.99,1.58-4.02,3.12-5.87,4.79-11.7,10.48-14.36,23.3-13.5,39.24,1.04,18.51,6.59,27.46,20.01,39.29,4.15,3.66,10.21,8.35,13.14,2.3,1.44-2.98,2.03-6.14,2.57-9.39.18-1.04-.23-1.44-1.26-1.58-8.22-.95-13.19-6.14-16.75-13.01-5.6-10.66-6.77-22.04-4.47-33.73,1.76-8.94,5.06-17.16,13.05-22.62.95-.63.95-1.35.77-2.35-1.04-5.42-3.48-10.21-6.64-14.68-.95-1.4-1.58-1.44-2.94-.41-10.84,8.35-19.33,18.7-25.65,30.75C4.75,51.75.95,76.72,0,99.3c-.05,1.26.23,2.26,1.26,3.07"/>
  <path class="cls-1" d="M68.6,150.73l-12.6-7.18c-6.73-4.92-14.22-5.82-22.13-3.79-1.67.41-3.75,1.17-4.24,2.71-1.45,4.43-3.43,8.54-5.92,12.55,2.89-2.76,5.46-5.69,8.58-8.08,7.09-5.51,14.54-4.79,20.37,1.99,3.12,3.61,5.51,7.72,7.54,12.06,5.37,11.61,8.58,23.93,11.42,36.35.77,3.34,1.17,6.82,2.26,10.03.72,2.12,1.94,5.33,4.7,4.56,2.17-.59.86-3.52.59-5.37-2.53-16.75-6.82-39.29-10.57-55.82Z"/>
  <path class="cls-1" d="M63.54,177.06c-2.89-8.31-6.28-16.44-12.15-23.21-4.92-5.69-11.02-6.46-17.3-2.3-2.62,1.76-4.88,3.93-6.91,6.32-.63.72-1.85,1.45-1.22,2.44,0,0,9.8-5.96,17.48-2.53,12.42,5.51,28.04,51.57,28.04,51.57,0-1.31.09-1.85,0-2.39-2.17-10.12-4.56-20.14-7.95-29.9Z"/>
  <path class="cls-1" d="M68.33,114.52c.32.23,13.37,5.46,15.76,6.5h.36c2.39-.99,15.44-6.28,15.76-6.5,5.37-3.57,7.41-9.21,6.19-16.57-.63-3.75-1.9-7.32-3.48-10.79-.32-.68-.68-.63-1.22-.99-.23-.14-15.94,0-17.43,0-1.31,0-17.21-.14-17.43,0-.54.36-.9.32-1.22.99-1.58,3.48-2.85,7.04-3.48,10.79-1.26,7.36.81,13.01,6.19,16.57Z"/>
  <path class="cls-1" d="M119.67,104.72c-.99-.09-1.94.14-2.94-.13-3.57-1.22-5.46-3.97-6.68-7.32-.81-2.3-1.54-4.7-1.72-7.09-.18-2.57-1.35-3.48-3.97-3.21,3.48,10.48,7.5,22.67-4.33,29.04l-15.81,6.23-15.81-6.23c-11.88-6.37-7.86-18.56-4.33-29.04-2.62-.27-3.79.63-3.97,3.21-.18,2.44-.86,4.79-1.72,7.09-1.22,3.39-3.16,6.1-6.68,7.32-.95.27-1.94.09-2.94.13-.5.05-1.13,2.98-.95,3.84,9.48,7.59,34.55,16.8,36.35,17.52h.09c1.76-.72,26.82-9.98,36.35-17.52.23-.86-.45-3.79-.95-3.84Z"/>
  <path class="cls-1" d="M97.95,134.97c13.14-5.33,25.51-12.01,36.44-21.13,10.39-8.67,18.65-19.01,21.04-32.6,5.15-29.31-1.94-54.46-26.51-73.16-.81-.63-1.85-2.44-3.03-.81-.99,1.45-1.58,3.34.41,4.83,3.52,2.57,6.86,5.33,9.84,8.49,14.86,15.99,18.02,48.91,8.76,68.78-8.31,17.79-22.08,23.35-38.97,32.65-5.64,3.12-11.47,5.74-17.48,8.04l-4.2,2.03-4.2-2.03c-6.01-2.3-11.83-4.92-17.48-8.04-16.89-9.3-30.66-14.86-38.97-32.65-9.26-19.87-6.1-52.79,8.76-68.78,2.98-3.21,6.32-5.92,9.84-8.49,1.99-1.45,1.4-3.39.41-4.83-1.13-1.63-2.21.18-3.03.81C15.04,26.73,7.95,51.93,13.1,81.24c2.39,13.59,10.7,23.93,21.04,32.6,10.93,9.12,23.3,15.81,36.44,21.13l13.68,5.42,13.68-5.42Z"/>
  <path class="cls-1" d="M167.32,102.41c1.04-.86,1.31-1.85,1.26-3.07-.95-22.58-4.74-47.55-15.35-67.83-6.32-12.1-14.81-22.4-25.65-30.75-1.35-1.04-1.94-.99-2.94.41-3.16,4.47-5.6,9.26-6.64,14.68-.18.95-.18,1.67.77,2.35,7.95,5.42,11.29,13.68,13.05,22.62,2.3,11.65,1.13,23.03-4.47,33.73-3.61,6.86-8.54,12.1-16.75,13.01-1.04.14-1.4.54-1.26,1.58.5,3.21,1.13,6.41,2.57,9.39,2.93,6.1,8.99,1.36,13.14-2.3,13.37-11.83,18.97-20.77,20.01-39.29.9-15.94-1.81-28.81-13.5-39.24-1.9-1.67-3.93-3.21-5.87-4.79-2.03-1.63-1.99-6.05.09-7.63.77-.59,1.13.05,1.63.36,17.75,12.06,28.36,28.54,30.75,49.99,1.08,9.84,1.31,19.69-1.35,29.35-3.61,13.05-11.79,26.1-21.99,34.54-5.28,4.38-10.97,8.22-16.98,11.65l8.31,2.66,41.18-31.43Z"/>
  <path class="cls-1" d="M134.67,139.76c-7.95-2.03-15.4-1.13-22.13,3.79l-12.6,7.18c-3.75,16.53-8.04,39.02-10.61,55.82-.27,1.85-1.63,4.79.59,5.37,2.76.72,3.97-2.44,4.7-4.56,1.08-3.21,1.49-6.68,2.26-10.03,2.84-12.42,6.05-24.75,11.42-36.35,1.99-4.33,4.43-8.4,7.54-12.06,5.82-6.77,13.28-7.54,20.37-1.99,3.12,2.39,5.69,5.33,8.58,8.08-2.44-4.02-4.47-8.08-5.92-12.55-.5-1.54-2.53-2.26-4.2-2.71Z"/>
  <path class="cls-1" d="M141.3,157.87c-2.03-2.39-4.29-4.56-6.91-6.32-6.28-4.15-12.33-3.39-17.29,2.3-5.87,6.77-9.26,14.9-12.15,23.21-3.39,9.75-5.74,19.78-7.95,29.85-.14.54,0,1.13,0,2.39,0,0,15.62-46.06,28.04-51.57,7.68-3.39,17.48,2.53,17.48,2.53.63-.99-.63-1.67-1.22-2.39Z"/>
</svg>