<?xml version="1.0" encoding="UTF-8"?>
<svg id="Layer_2" data-name="Layer 2" xmlns="http://www.w3.org/2000/svg" viewBox="0 0 562.99 492.39">
  <defs>
    <style>
      .cls-1 {
        fill: none;
        stroke: #000;
        stroke-linecap: round;
        stroke-linejoin: round;
        stroke-width: .23px;
      }
    </style>
  </defs>
  <g id="Layer_2-2" data-name="Layer 2">
    <path class="cls-1" d="M562.87,100.01v-35.63c0-6.62-4.34-12.46-10.69-14.37l-55.12-16.55-3.61,11.82v.05s-.02.05-.02.05v.05s0,.05,0,.05v.05s0,.04,0,.04v.04s.02.04.02.04l.02.04.02.04.02.04.03.04.03.03.03.03.04.03.04.03.05.03.05.04.04.04.04.04.04.04.04.04.04.04.04.04.03.05.03.05.03.05.03.05.03.05.02.05.02.05.02.05.02.05.02.05v.05s.02.05.02.05v.05s.02.06.02.06v.06s0,.06,0,.06v.06s0,.06,0,.06v.06s-.01.06-.01.06v.06s-.02.06-.02.06v.06s-.03.06-.03.06l-.02.07-.03.07-.03.07-.03.06-.04.06-.04.06-.04.06-.04.05-.05.05-.05.05-.05.05-.05.04-.05.04-.06.04-.06.04-.06.03-.06.03-.06.03-.06.02-.06.02-.07.02-.07.02h-.07s-.07.02-.07.02h-.07s-.07,0-.07,0h-.07s-.07,0-.07,0h-.07s-.07-.02-.07-.02l-.07-.02-.07-.02-3.12-.95h-.03s-.03-.01-.03-.01h-.03s-.03,0-.03,0h-.03s-.03,0-.03,0h-.03s-.03,0-.03,0h-.03s-.03,0-.03,0h-.03s-.03.01-.03.01h-.03s-.03.02-.03.02h-.02s-.02.02-.02.02h-.02s-.02.03-.02.03l-.02.02-.02.02-.02.02-.02.02-.02.02-.02.02-.02.02-.02.02v.02s-.03.02-.03.02v.03s-.02.03-.02.03v.03s-.02.03-.02.03l-.17.54-.03.09-.04.09-.04.08-.05.08-.05.08-.06.07-.06.07-.06.06-.07.06-.07.06-.08.05-.08.05-.08.04-.09.04-.09.03-.09.03-.07.02h-.07s-.07.02-.07.02h-.07s-.07,0-.07,0h-.07s-.07-.01-.07-.01h-.07s-.07-.02-.07-.02l-.07-.02-.07-.02-.06-.02-.06-.03-.06-.03-.06-.03-.06-.03-.06-.04-.05-.04-.05-.04-.05-.05-.05-.05-.05-.05-.04-.05-.04-.05-.04-.06-.04-.06-.03-.06-.03-.06-.03-.07-.02-.07-.02-.07-.02-.07v-.04s-.02-.04-.02-.04v-.03s-.03-.03-.03-.03l-.02-.03-.02-.03-.02-.03-.02-.03-.03-.03-.03-.02-.03-.02-.03-.02-.03-.02-.03-.02h-.04s-.04-.02-.04-.02l-5.68-1.74-5.68-1.74h-.04s-.04-.02-.04-.02h-.04s-.04,0-.04,0h-.04s-.04,0-.04,0h-.04s-.04.01-.04.01h-.04s-.03.02-.03.02h-.03s-.03.03-.03.03l-.03.02-.03.02-.03.02-.03.03-.07.06-.07.06-.08.05-.08.05-.08.04-.09.03-.09.03-.09.02-.09.02h-.09s-.09.02-.09.02h-.09s-.09,0-.09,0h-.09s-.09-.03-.09-.03l-.09-.02-.07-.02-.07-.03-.07-.03-.06-.03-.06-.04-.06-.04-.06-.04-.05-.04-.05-.05-.05-.05-.05-.05-.04-.05-.04-.05-.04-.06-.04-.06-.03-.06-.03-.06-.03-.06-.02-.06-.02-.06-.02-.07-.02-.07v-.07s-.02-.07-.02-.07v-.07s0-.07,0-.07v-.07s0-.07,0-.07v-.07s.02-.07.02-.07l.02-.07.02-.07.17-.54v-.03s.01-.03.01-.03v-.03s0-.03,0-.03v-.03s0-.03,0-.03v-.03s0-.03,0-.03v-.03s0-.03,0-.03v-.03s-.01-.03-.01-.03v-.03s-.02-.03-.02-.03v-.02s-.02-.02-.02-.02v-.02s-.03-.02-.03-.02l-.02-.02-.02-.02-.02-.02-.02-.02-.02-.02-.02-.02-.02-.02-.02-.02-.02-.02h-.02s-.03-.03-.03-.03h-.03s-.03-.02-.03-.02h-.03s-3.12-.96-3.12-.96l-.06-.02-.05-.02-.05-.02-.05-.02-.05-.03-.05-.03-.05-.03-.05-.03-.05-.03-.04-.04-.04-.04-.04-.04-.04-.04-.04-.04-.04-.04-.03-.04-.03-.05-.03-.05-.03-.05-.03-.05-.02-.05-.02-.05-.02-.05-.02-.05-.02-.05v-.06s-.03-.06-.03-.06v-.06s-.02-.06-.02-.06v-.06s0-.06,0-.06v-.06s0-.07,0-.07v-.07s.01-.07.01-.07v-.07s.03-.07.03-.07l.02-.07.02-.07.03-.06.03-.06.03-.06.03-.06.04-.06.04-.06.04-.05.05-.05.05-.05.05-.05.05-.04.05-.04.06-.04.06-.04.06-.03.06-.03.06-.03.06-.03.07-.02.07-.02.07-.02h.07s.07-.02.07-.02h.07s.07,0,.07,0h.05s.05,0,.05,0h.04s.04-.02.04-.02l.04-.02.04-.02.04-.02.04-.02.03-.03.03-.03.03-.03.03-.04.03-.04.02-.04.02-.04.02-.04,3.61-11.82.07.03L388.78.75c-1.4-.42-2.86-.64-4.33-.64h-187.53c-1.31,0-2.61.17-3.87.51L11.24,49.19C4.68,50.94.11,56.89.11,63.68v254.69c0,8.28,6.72,15,15,15h153.38c1.71,0,3.41.29,5.02.87l140.76,50.01c1.4.5,2.71,1.2,3.9,2.08l139.2,103c6.24,4.62,14.97,3.71,20.13-2.09l81.56-91.7c2.44-2.75,3.79-6.29,3.79-9.97V125.64s-12.35,0-12.35,0h-.05s-.05,0-.05,0h-.04s-.04.02-.04.02l-.04.02-.04.02-.04.02-.04.03-.03.03-.03.03-.03.03-.03.04v.02s-.02.02-.02.02v.02s-.02.02-.02.02v.02s-.02.02-.02.02v.02s-.01.02-.01.02l-.02.06-.02.05-.02.05-.02.05-.03.05-.03.05-.03.05-.03.05-.03.05-.03.04-.04.04-.04.04-.04.04-.04.04-.04.04-.04.03-.05.03-.05.03-.05.03-.05.03-.05.03-.05.02-.05.02-.05.02-.05.02h-.06s-.06.03-.06.03h-.06s-.06.02-.06.02h-.06s-.06,0-.06,0h-.06s-.07,0-.07,0h-.07s-.07-.01-.07-.01h-.07s-.07-.03-.07-.03l-.07-.02-.07-.02-.06-.03-.06-.03-.06-.03-.06-.03-.06-.04-.06-.04-.05-.04-.05-.04-.05-.05-.05-.05-.04-.05-.04-.05-.04-.06-.04-.06-.03-.06-.03-.06-.03-.06-.03-.06-.02-.07-.02-.07-.02-.07v-.07s-.02-.07-.02-.07v-.07s0-.07,0-.07v-3.29s0-.03,0-.03v-.03s0-.03,0-.03v-.03s-.01-.03-.01-.03v-.03s-.02-.03-.02-.03v-.03s-.02-.02-.02-.02v-.02s-.03-.02-.03-.02l-.02-.02-.02-.02-.02-.02-.02-.02-.02-.02-.02-.02-.02-.02-.02-.02-.02-.02h-.02s-.02-.03-.02-.03h-.03s-.03-.02-.03-.02h-.03s-.03-.02-.03-.02h-.03s-.03-.01-.03-.01h-.03s-.03,0-.03,0h-.03s-.57,0-.57,0h-.09s-.09-.01-.09-.01l-.09-.02-.09-.02-.09-.03-.09-.03-.08-.04-.08-.04-.08-.05-.07-.05-.07-.06-.07-.06-.06-.07-.06-.07-.06-.08-.05-.08-.03-.06-.03-.07-.03-.07-.02-.07-.02-.07-.02-.07v-.07s-.02-.07-.02-.07v-.07s-.01-.07-.01-.07v-.07s0-.07,0-.07v-.07s.02-.07.02-.07v-.07s.03-.07.03-.07l.02-.07.02-.06.03-.06.03-.06.03-.06.03-.06.04-.06.04-.06.04-.05.05-.05.05-.05.05-.05.05-.05.06-.04.06-.04.06-.04h.02s.02-.02.02-.02h.02s.02-.02.02-.02h.01s.01-.02.01-.02h.01s.01-.03.01-.03h.01s.01-.03.01-.03h.01s.01-.03.01-.03h.01s.01-.03.01-.03v-.02s.02-.02.02-.02v-.02s.02-.02.02-.02v-.02s.01-.02.01-.02v-.02s.01-.02.01-.02v-.02s.01-.02.01-.02v-.02s0-.02,0-.02v-.02s0-.02,0-.02v-.02s0-.02,0-.02v-.02s0-.02,0-.02v-5.94h.02s0-5.93,0-5.93v-.04s0-.04,0-.04v-.04s-.01-.04-.01-.04v-.04s-.02-.03-.02-.03l-.02-.03-.02-.03-.02-.03-.02-.03-.02-.03-.02-.03-.03-.03-.03-.02-.03-.02-.03-.02-.04-.02-.04-.03-.04-.03-.04-.03-.04-.03-.04-.03-.03-.03-.03-.03-.03-.03-.03-.03-.03-.04-.03-.04-.03-.04-.03-.04-.02-.04-.02-.04-.02-.04-.02-.04-.02-.04-.02-.04-.02-.04-.02-.04v-.04s-.03-.04-.03-.04v-.05s-.02-.05-.02-.05v-.05s-.02-.05-.02-.05v-.05s0-.05,0-.05v-.05s0-.05,0-.05v-.07s0-.07,0-.07v-.07s.02-.07.02-.07l.02-.07.02-.07.02-.07.03-.06.03-.06.03-.06.03-.06.04-.06.04-.06.04-.05.04-.05.05-.05.05-.05.05-.04.05-.04.06-.04.06-.04.06-.03.06-.03.06-.03.06-.03.07-.02.07-.02.07-.02h.07s.07-.02.07-.02h.07s.07,0,.07,0h.6s.03,0,.03,0h.03s.03,0,.03,0h.03s.03-.01.03-.01h.03s.03-.02.03-.02h.03s.02-.02.02-.02h.02s.02-.03.02-.03l.02-.02.02-.02.02-.02.02-.02.02-.02.02-.02.02-.02.02-.02v-.02s.03-.02.03-.02v-.02s.02-.03.02-.03v-.03s.02-.03.02-.03v-.03s.01-.03.01-.03v-.03s0-.03,0-.03v-.03s0-.03,0-.03v-3.32s0-.06,0-.06v-.11s.04-.11.04-.11l.03-.11.04-.11.05-.1.06-.1.06-.09.07-.09.08-.08.08-.08.09-.07.09-.06.1-.05.11-.05.05-.02.06-.02.07-.02.07-.02h.07s.07-.02.07-.02h.07s.07,0,.07,0h.07s.07,0,.07,0h.07s.07.02.07.02l.07.02.07.02.06.02.06.02.06.03.06.03.06.03.06.04.06.04.05.04.05.04.05.05.05.05.05.05.04.05.04.06.04.06.03.06.03.06.03.07.03.07.02.07v.02s.01.02.01.02v.02s.02.02.02.02v.02s.02.02.02.02v.02s.02.02.02.02v.02s.03.02.03.02v.02s.03.02.03.02l.02.02h.02s.02.03.02.03h.02s.02.03.02.03h.02s.02.02.02.02h.02s.02.02.02.02h.02s.02.02.02.02h.02s.02.02.02.02h.02s.02.01.02.01h.02s.02,0,.02,0h.02s.02,0,.02,0h.02s12.36,0,12.36,0"/>
  </g>
</svg>