<?xml version="1.0" encoding="UTF-8"?>
<svg id="Layer_2" data-name="Layer 2" xmlns="http://www.w3.org/2000/svg" viewBox="0 0 624 915">
  <defs>
    <style>
      .cls-1 {
        fill: #fff;
      }
    </style>
  </defs>
  <g id="Layer_1-2" data-name="Layer 1">
    <g>
      <path class="cls-1" d="M29.16,0c-8.57,26.8-15.49,51.87-9.7,80.2,11.56,56.52,62,91.7,97.19,132.78,31.57,36.85,22.17,59.48,33.74,101.29.76,2.73,2.75,2.93,2.75,3.3,0,1-1.14,2.38-.95,3.83.15,1.19,1.99,8.59,2.43,8.61,3.57-3.82,6.85-8.41,11.58-10.62-1.8-11.19-2.41-22.59-2.12-33.93.71-27.29,9.99-54.32-2.77-80.14-15.45-31.27-47.94-65.92-68.98-95C67.45,75.95,44.56,40.22,30.16,0h563.84c-14.96,42.24-38.97,79.38-65.17,115.32-19.82,27.2-44.78,54.52-61.61,83.38-20.02,34.32-8.28,51.81-7.15,87.77.35,11.09-.66,22.52-2.04,33.5,4.41-.28,4.18,3.59,5.32,4.7,1.93,1.87,4.68,3.43,6.66,5.34,6.23-23.26,7.97-47.64,13.5-71.01,9.75-41.25,42.75-63.52,70.01-92.97,22.65-24.48,44.47-53.3,51.18-86.81,5.63-28.17-1.19-52.57-9.7-79.2h28.99v571c-7.1-86.6-125.21-109.77-151.97-188.48-8.1-23.81-1.61-48.11-31.97-56.02-25.36-6.61-54.05-3.26-79.99-3.49v17.5c0,4.39-7,17.23-10.02,20.98-31.18,38.78-93.75,9.63-84.96-38.47-26.35-.13-54.09-2.65-79.99,3.48-29.18,6.91-25.29,26.96-31.47,50.52C131.95,459.66,8.04,483.69.17,568V0h28.99ZM98.64,350c4.99.42,10.87,0,16,0,.4,0,1.75-2.57,1.49.48-5.67,10.35-15.69,17.09-26.97,20.01,8.88,11.51,24.18,25.17,40.01,21.04,16.73-4.37,13.67-41.75,21.74-54.2-9.86-23-12.36-48.17-18.45-72.15-9.38-36.93-40.15-56.58-64.81-83.17-22.86-24.64-44.13-51.71-58.97-82.02-1.57.01-5.3,23.81-5.49,26.52-3.35,48.51,17.53,76.15,54.66,103.3,16.17,11.83,35.9,20.64,48.29,36.69-8.2.42-18.16-4.66-25.66-8.33-27.22-13.3-51.12-33.47-73.81-53.17-1.16,11.85,1.52,24.3,5.49,35.51,12.72,35.92,39.36,49.66,74.79,57.19,3.84.82,22.13,2.47,23.2,4.8-23.01,10.34-52.34,2.29-74.97-6.5,6.56,17.58,16.89,36.37,33.97,45.51,8.22,4.4,20.24,7.7,29.51,8.48ZM518.03,266.99c11.55-15.85,31.45-24.74,47.3-36.17,42.4-30.57,65.07-66.62,53.37-121.02-.42-1.97-1.75-9.15-3.21-9.79-13.94,28.97-33.65,55.01-55.45,78.52-23.27,25.1-58.24,49.5-67.52,83.46-4.6,16.82-7.16,35.01-11.77,52.23-1.4,5.24-7.13,18.76-7.45,22.44-.17,1.95,4.45,14.58,5.27,18.31,2.21,10.04,3.58,34.24,16.19,36.81,16.6,3.38,30.91-9.14,40.25-21.28-11.2-2.95-23.78-9.67-26.98-21.49,16.02,2.51,35.84-1.07,49.9-9.58,15.66-9.48,24.41-26.98,31.07-43.41-18.84,7.87-40.8,13-61.36,10.87-4.01-.42-9.55-1.63-12.6-4.38-.03-1.83,20.28-4.36,23.01-4.97,51.46-11.38,78.15-37.99,79.93-92.53-23.99,20.21-49.41,42.19-78.29,55.18-3.16,1.42-19.5,8.42-21.67,6.81ZM448.04,314c1.01-29.56-4.84-58.61-6.53-87.96-26.08-35.97-75.77-71.06-121.05-74.91-51.03-4.34-111.41,36.68-139.09,77.62-1.05,28.44-6.46,56.67-5.24,85.25,29.88-8.16,61.76-7.19,92.36-3.92,18.49-37.9,69.08-37.19,88.24-.18,30.27-2.75,61.85-4.47,91.32,4.1ZM304.82,295.24c-39.11,6.56-36.24,72.32,7.71,71.8,50.36-.61,44.95-80.62-7.71-71.8Z"/>
      <path d="M.17,568c7.87-84.31,131.78-108.34,153.47-190.99,6.18-23.56,2.29-43.61,31.47-50.52,25.89-6.13,53.64-3.61,79.99-3.48-8.8,48.1,53.78,77.25,84.96,38.47,3.02-3.75,10.02-16.59,10.02-20.98v-17.5c25.93.23,54.63-3.12,79.99,3.49,30.35,7.92,23.87,32.22,31.97,56.02,26.77,78.71,144.88,101.89,151.97,188.48v13l-5.54,23.96-4.58,11.42-5.87,9.62c2.16-19.21-2.93-40.96-12.84-57.66-26.93-45.39-90.34-55.02-111.64-105.34-2.44.09,2.85,20.5,3.48,22.53,17.16,55.4,101.71,65.35,98.03,133.02-1.36,24.96-18.88,43.37-27.04,65.46-35.13-16.87-77.93-31.2-93.82-70.64l-9.14-28.36v28.5c0,8.51,6.38,25.67,10.83,33.17,31.29,52.73,118.26,47.83,139.89,105.07,16.31,43.14-12.82,96.06-55.75,109.25,26.69-29.88,19.07-76.96-10.53-101.96-37.88-31.99-86.64-19.98-125.36-44.61-20.75-13.2-33.15-34.25-37.08-58.42-1.49-.25-1.24,1.88-1.49,2.98-4.15,18.39-4.83,43.23,7.09,58.93,3.99,5.25,9.56,8.78,14.41,13.08-15.61-2.22-33-8.74-42.96-21.51-9.53-12.22-9.76-28.32-26.48-34.51-10.13-3.75-21.98-4.38-32.51-8.48-28.99-11.3-53.34-39.61-71.99-63.48-.75,2.88,1.04,5.98.99,8.5-.37,19.94-2.4,41.33-13.59,58.41-10.72,16.36-28.1,25.87-42.45,38.54-4.87,13.22,8.16,20.59,18.79,24.31,27.8,9.74,58.42,8.42,80.26,32.71,17.38,19.33,14.65,43.3,40.29,58.69,32.11,19.27,73.45,7.24,105.37,28.6,15.35,10.27,27.76,31.79,27.16,50.58-.03.84-.56,5.63-1.89,5.65-1.48-5.97-9.15-11.98-14.34-15.16-53.8-33.07-112.19,21.57-165.64-26.32-17.04-15.27-20.44-31.42-31.56-49.43-33.05-53.55-137.59-17.23-133.26-100.45l4.38-18.62c-37.06,33.48-24.48,76.85,18.82,96.17,23.63,10.54,54.88,12.44,69.68,36.3s9.15,54.89-10.01,75.53c.55-35.62-19.13-56.06-51.78-65.72-44.96-13.3-92.54-13.19-109.47-67.5-31.23-100.19,103.39-113.84,135.43-188.1,5.19-12.03,10.15-37.7,8.64-50.45-.17-1.46.16-2.82-1.82-3.23-9.62,58.93-61.34,91.55-108.96,119-8.6-20.34-11.78-37.46-4.29-58.77,16.58-47.14,75.54-57.28,91.99-102.98,2.93-8.14,4.4-16.64,5.24-25.25-4.29,5.8-7.18,12.07-11.59,17.9-25.26,33.36-69.78,44.55-94.78,78.19-13.83,18.6-21.11,42.87-18.59,65.91-6.14-8.25-11.07-19.9-13.49-30-1.04-4.36-1.05-8.92-2.5-13,.39-5.83-.54-12.26,0-18ZM433.96,362.1c-22.98.52-46.69,5.07-68.65,11.64-12.52,3.74-42.86,17.52-53.63,17.18-10.8-.34-36.57-12.47-48.81-16.18-23.18-7.03-48.39-12.07-72.65-12.64-5.81,25.81-12.93,54.76-8.96,81.27,4.02,26.83,23.83,47.85,31.84,73.15.16.51.27,1.63-.48,1.48l-21.49-21.99c1.62,19.81,4.86,37.91,15.76,54.73,13.45,20.75,56.12,69.89,78.22,78.75,17.44,6.99,44.15,6.05,60.63-3.31,21.36-12.13,71.04-68.28,79.8-91.18,4.77-12.47,5.34-26.1,8.51-38.98l-21.5,20.99c-.77.16-.61-.92-.48-1.47,4.79-19.15,21.44-39.28,27.73-58.27,9.85-29.73.88-65.6-5.85-95.16Z"/>
      <path class="cls-1" d="M.17,586c1.45,4.08,1.45,8.64,2.5,13,2.42,10.1,7.35,21.75,13.49,30-2.52-23.05,4.77-47.31,18.59-65.91,25.01-33.64,69.53-44.83,94.78-78.19,4.41-5.83,7.3-12.09,11.59-17.9-.84,8.6-2.31,17.1-5.24,25.25-16.45,45.7-75.41,55.84-91.99,102.98-7.5,21.31-4.31,38.43,4.29,58.77,47.62-27.45,99.34-60.07,108.96-119,1.97.41,1.64,1.77,1.82,3.23,1.51,12.75-3.45,38.41-8.64,50.45-32.04,74.26-166.65,87.92-135.43,188.1,16.93,54.31,64.51,54.2,109.47,67.5,32.65,9.66,52.33,30.1,51.78,65.72,19.17-20.64,25.48-50.6,10.01-75.53s-46.06-25.76-69.68-36.3c-43.3-19.32-55.87-62.69-18.82-96.17l-4.38,18.62c-4.33,83.22,100.21,46.9,133.26,100.45,11.12,18.01,14.52,34.17,31.56,49.43,53.44,47.89,111.83-6.75,165.64,26.32,5.19,3.19,12.86,9.19,14.34,15.16,1.33-.02,1.87-4.81,1.89-5.65.6-18.79-11.81-40.31-27.16-50.58-31.93-21.36-73.26-9.33-105.37-28.6-25.65-15.39-22.92-39.36-40.29-58.69-21.84-24.3-52.47-22.98-80.26-32.71-10.63-3.72-23.66-11.1-18.79-24.31,14.35-12.66,31.73-22.18,42.45-38.54,11.19-17.08,13.22-38.47,13.59-58.41.05-2.52-1.74-5.62-.99-8.5,18.65,23.87,43,52.18,71.99,63.48,10.53,4.1,22.38,4.73,32.51,8.48,16.73,6.19,16.95,22.29,26.48,34.51,9.96,12.78,27.35,19.3,42.96,21.51-4.85-4.3-10.42-7.83-14.41-13.08-11.92-15.7-11.24-40.53-7.09-58.93.25-1.1,0-3.23,1.49-2.98,3.93,24.16,16.33,45.22,37.08,58.42,38.72,24.62,87.48,12.62,125.36,44.61,29.6,25,37.22,72.08,10.53,101.96,42.92-13.19,72.05-66.11,55.75-109.25-21.63-57.24-108.6-52.34-139.89-105.07-4.45-7.5-10.83-24.66-10.83-33.17v-28.5l9.14,28.36c15.9,39.44,58.69,53.78,93.82,70.64,8.16-22.09,25.68-40.5,27.04-65.46,3.69-67.67-80.86-77.63-98.03-133.02-.63-2.03-5.93-22.44-3.48-22.53,21.29,50.32,84.71,59.95,111.64,105.34,9.91,16.7,15,38.45,12.84,57.66l5.87-9.62,4.58-11.42,5.54-23.96v331H.17v-329ZM494.04,873.5c.64,6.32,0,14.43,0,21,0,.9-3.6,5.04.97.97,41.64-49.93,14.65-118.5-49.59-127.34-35.73-4.92-67.66,11.75-104.34,1.36-6.24-1.77-11.97-4.85-18.01-6.98,8.71,17.28,21.72,33.36,40.02,40.97,32.36,13.45,69.29-1.53,100.27,18.71,16.1,10.52,28.75,32.19,30.68,51.31Z"/>
      <path d="M30.16,0c14.4,40.22,37.28,75.95,62.17,110.32,21.05,29.07,53.53,63.72,68.98,95,12.76,25.83,3.48,52.85,2.77,80.14-.29,11.34.32,22.74,2.12,33.93-4.73,2.21-8.01,6.81-11.58,10.62-.45-.02-2.28-7.42-2.43-8.61-.19-1.45.95-2.83.95-3.83,0-.36-2-.57-2.75-3.3-11.57-41.81-2.17-64.44-33.74-101.29C81.46,171.9,31.02,136.72,19.46,80.2,13.67,51.87,20.6,26.8,29.16,0h1Z"/>
      <path d="M595.01,0c8.51,26.63,15.34,51.03,9.7,79.2-6.7,33.51-28.52,62.33-51.18,86.81-27.26,29.46-60.25,51.73-70.01,92.97-5.53,23.37-7.26,47.75-13.5,71.01-1.97-1.9-4.73-3.47-6.66-5.34-1.14-1.11-.91-4.98-5.32-4.7,1.38-10.98,2.39-22.41,2.04-33.5-1.14-35.96-12.87-53.44,7.15-87.77,16.83-28.86,41.79-56.17,61.61-83.38,26.19-35.94,50.2-73.07,65.17-115.32h1Z"/>
      <path d="M448.04,314c-29.47-8.57-61.05-6.85-91.32-4.1-19.16-37.01-69.75-37.72-88.24.18-30.6-3.28-62.47-4.24-92.36,3.92-1.22-28.59,4.19-56.81,5.24-85.25,27.68-40.93,88.06-81.95,139.09-77.62,45.29,3.85,94.97,38.94,121.05,74.91,1.69,29.35,7.54,58.4,6.53,87.96Z"/>
      <path d="M98.64,350c-9.27-.78-21.29-4.08-29.51-8.48-17.08-9.15-27.41-27.94-33.97-45.51,22.63,8.78,51.96,16.84,74.97,6.5-1.06-2.33-19.36-3.98-23.2-4.8-35.44-7.53-62.08-21.27-74.79-57.19-3.97-11.21-6.64-23.66-5.49-35.51,22.69,19.71,46.59,39.87,73.81,53.17,7.51,3.67,17.47,8.74,25.66,8.33-12.39-16.05-32.13-24.87-48.29-36.69C20.72,202.66-.17,175.02,3.18,126.51c.19-2.71,3.92-26.51,5.49-26.52,14.84,30.31,36.11,57.38,58.97,82.02,24.67,26.59,55.44,46.24,64.81,83.17,6.09,23.98,8.59,49.15,18.45,72.15-8.06,12.44-5,49.83-21.74,54.2-15.83,4.13-31.14-9.52-40.01-21.04,11.28-2.93,21.3-9.66,26.97-20.01.27-3.05-1.08-.48-1.49-.48-5.13,0-11.01.42-16,0Z"/>
      <path d="M518.03,266.99c2.17,1.61,18.51-5.39,21.67-6.81,28.88-12.99,54.31-34.97,78.29-55.18-1.79,54.55-28.48,81.15-79.93,92.53-2.73.6-23.04,3.14-23.01,4.97,3.05,2.75,8.59,3.96,12.6,4.38,20.56,2.14,42.52-2.99,61.36-10.87-6.66,16.43-15.41,33.93-31.07,43.41-14.06,8.51-33.88,12.09-49.9,9.58,3.19,11.82,15.77,18.55,26.98,21.49-9.34,12.13-23.65,24.66-40.25,21.28-12.61-2.57-13.98-26.77-16.19-36.81-.82-3.73-5.44-16.36-5.27-18.31.32-3.68,6.05-17.19,7.45-22.44,4.61-17.22,7.17-35.41,11.77-52.23,9.28-33.96,44.25-58.36,67.52-83.46,21.8-23.51,41.51-49.56,55.45-78.52,1.46.64,2.79,7.82,3.21,9.79,11.69,54.4-10.98,90.45-53.37,121.02-15.85,11.43-35.75,20.33-47.3,36.17Z"/>
      <path d="M304.82,295.24c52.67-8.83,58.07,71.19,7.71,71.8-43.95.53-46.83-65.24-7.71-71.8Z"/>
      <path class="cls-1" d="M433.96,362.1c6.73,29.56,15.7,65.43,5.85,95.16-6.29,18.98-22.94,39.11-27.73,58.27-.14.55-.29,1.63.48,1.47l21.5-20.99c-3.17,12.87-3.74,26.51-8.51,38.98-8.76,22.91-58.44,79.05-79.8,91.18-16.49,9.37-43.19,10.3-60.63,3.31-22.1-8.86-64.77-58-78.22-78.75-10.9-16.82-14.13-34.91-15.76-54.73l21.49,21.99c.75.16.64-.97.48-1.48-8.01-25.31-27.82-46.32-31.84-73.15-3.97-26.51,3.15-55.46,8.96-81.27,24.26.56,49.47,5.6,72.65,12.64,12.24,3.71,38.01,15.84,48.81,16.18,10.76.34,41.1-13.44,53.63-17.18,21.97-6.57,45.67-11.12,68.65-11.64ZM295.09,406c-4.19.87-6.3,5.6-11.26,3.79-19.49-6.65-40.28-22.81-59.44-28.56-8.9-2.67-19.09-.6-28.14.9-1.33,8.82,3.82,6.5,9.66,8.6,7.57,2.72,14.81,6.31,21.88,10.11l9.33,6.17h-22.49c-3.38,0-13.72,5.06-17.49,6.49,2.15,3.32,7.54,3.82,9.94,6.05,5.63,5.22,6.39,13.81,17.56,18.44.46.19,1.64.26,1.48-.48-2.98-1.69-8.08-18.17-6.95-19.46l9.95-1.03c-.06,25.53,29.15,28.72,32.01,2.99,6.58,3.47,12.42,8.86,15.14,15.84,6.56,1.02,13.24-3.17,16.25-8.94.45-.85,2.6-6.06,2.6-6.4v-14.5ZM329.08,406v14.5c0,.35,2.15,5.55,2.6,6.4,2.06,3.95,6.05,7.4,10.37,8.62,7.96,2.24,5.28-1.19,8.6-5.46s7.72-7.75,12.42-10.06c2.73,25.53,33.4,22.33,33.01-2.99l9.94,1.04c.92,1.06-2.94,11.7-3.66,13.75-.43,1.21-4.17,6.22-.82,5.19,1.19-.37,8.06-5.24,9.16-6.34,2.83-2.82,5.12-9.02,7.4-11.1s7.7-3.17,9.95-6.05c-3.59-.76-14.9-6.5-17.49-6.5h-22.49c10.71-9.82,25.66-15.16,39.55-18.93l-.15-6.18c-8.7-1.21-17.63-2.79-26.42-1.4l-60.7,29.3c-4.96,1.8-7.07-2.92-11.26-3.79ZM288.83,498.23c-4.75.83-8.73,4.52-5.8,9.34,1.36,2.23,22.56,13.92,25.62,14.38,6.52.98,17.71-5.06,23.44-8.43,4.43-2.61,14.42-7.15,8.49-12.54-10.08-9.17-17.22,5.12-28.01,5.1-10.88-.02-14.84-9.41-23.75-7.85ZM359.07,554.99c-10.76-9.35-22.08-17.96-37.23-15.73-3.43.51-7.67,3.36-9.42,3.52-1.36.12-7.59-3.26-10.95-3.67-14.52-1.76-26.02,7.11-36.38,15.88,7.73,4.06,15.65-.04,23.44-.03,6.97.01,16.31,3.11,23.04,3.12,7.62.02,18.02-3.11,25.99-3.08,7.01.02,14.16,3.12,21.49-.01ZM338.08,575h-51.99c4.29,13.43,25.79,14.83,37.19,11.7,4.98-1.36,14.11-6.02,14.79-11.7Z"/>
      <path d="M494.04,873.5c-1.94-19.12-14.58-40.79-30.68-51.31-30.97-20.24-67.91-5.25-100.27-18.71-18.3-7.61-31.31-23.69-40.02-40.97,6.04,2.14,11.77,5.21,18.01,6.98,36.68,10.39,68.61-6.28,104.34-1.36,64.24,8.84,91.23,77.42,49.59,127.34-4.57,4.07-.97-.07-.97-.97,0-6.57.64-14.68,0-21Z"/>
      <path d="M329.08,406c4.19.87,6.3,5.59,11.26,3.79l60.7-29.3c8.79-1.39,17.72.19,26.42,1.4l.15,6.18c-13.89,3.76-28.85,9.11-39.55,18.93h22.49c2.59,0,13.9,5.73,17.49,6.5-2.25,2.88-7.71,4-9.95,6.05s-4.57,8.28-7.4,11.1c-1.1,1.1-7.97,5.98-9.16,6.34-3.35,1.03.39-3.97.82-5.19.72-2.05,4.58-12.69,3.66-13.75l-9.94-1.04c.39,25.32-30.28,28.52-33.01,2.99-4.7,2.32-9.2,5.92-12.42,10.06s-.64,7.7-8.6,5.46c-4.32-1.22-8.31-4.67-10.37-8.62-.45-.85-2.6-6.06-2.6-6.4v-14.5Z"/>
      <path d="M295.09,406v14.5c0,.35-2.15,5.55-2.6,6.4-3.01,5.76-9.69,9.95-16.25,8.94-2.72-6.98-8.55-12.37-15.14-15.84-2.86,25.73-32.07,22.54-32.01-2.99l-9.95,1.03c-1.13,1.29,3.97,17.77,6.95,19.46.16.74-1.02.67-1.48.48-11.17-4.63-11.93-13.22-17.56-18.44-2.41-2.23-7.79-2.73-9.94-6.05,3.77-1.43,14.11-6.49,17.49-6.49h22.49l-9.33-6.17c-7.08-3.8-14.32-7.39-21.88-10.11-5.84-2.1-10.99.22-9.66-8.6,9.06-1.5,19.25-3.57,28.14-.9,19.17,5.75,39.95,21.92,59.44,28.56,4.96,1.81,7.07-2.92,11.26-3.79Z"/>
      <path d="M359.07,554.99c-7.34,3.14-14.48.03-21.49.01-7.97-.02-18.37,3.1-25.99,3.08-6.73-.02-16.07-3.11-23.04-3.12-7.79-.02-15.71,4.09-23.44.03,10.36-8.76,21.86-17.64,36.38-15.88,3.35.41,9.59,3.79,10.95,3.67,1.75-.16,5.99-3.02,9.42-3.52,15.15-2.23,26.47,6.38,37.23,15.73Z"/>
      <path d="M288.83,498.23c8.92-1.56,12.88,7.83,23.75,7.85,10.78.02,17.92-14.27,28.01-5.1,5.92,5.39-4.06,9.93-8.49,12.54-5.73,3.37-16.92,9.4-23.44,8.43-3.06-.46-24.27-12.15-25.62-14.38-2.93-4.82,1.05-8.51,5.8-9.34Z"/>
      <path d="M338.08,575c-.69,5.69-9.81,10.34-14.79,11.7-11.4,3.12-32.91,1.73-37.19-11.7h51.99Z"/>
    </g>
    <path d="M282.03,430.65c2.74-8.28-14.84-12.45-26.76-17.65-10.98-4.79-29.08-6.61-34.36,2.38"/>
  </g>
</svg>