%TF.GenerationSoftware,KiCad,Pcbnew,8.0.7*%
%TF.CreationDate,2025-07-26T10:37:19-05:00*%
%TF.ProjectId,paste,70617374-652e-46b6-9963-61645f706362,rev?*%
%TF.SameCoordinates,Original*%
%TF.FileFunction,Paste,Bot*%
%TF.FilePolarity,Positive*%
%FSLAX46Y46*%
G04 Gerber Fmt 4.6, Leading zero omitted, Abs format (unit mm)*
G04 Created by KiCad (PCBNEW 8.0.7) date 2025-07-26 10:37:19*
%MOMM*%
%LPD*%
G01*
G04 APERTURE LIST*
G04 Aperture macros list*
%AMRoundRect*
0 Rectangle with rounded corners*
0 $1 Rounding radius*
0 $2 $3 $4 $5 $6 $7 $8 $9 X,Y pos of 4 corners*
0 Add a 4 corners polygon primitive as box body*
4,1,4,$2,$3,$4,$5,$6,$7,$8,$9,$2,$3,0*
0 Add four circle primitives for the rounded corners*
1,1,$1+$1,$2,$3*
1,1,$1+$1,$4,$5*
1,1,$1+$1,$6,$7*
1,1,$1+$1,$8,$9*
0 Add four rect primitives between the rounded corners*
20,1,$1+$1,$2,$3,$4,$5,0*
20,1,$1+$1,$4,$5,$6,$7,0*
20,1,$1+$1,$6,$7,$8,$9,0*
20,1,$1+$1,$8,$9,$2,$3,0*%
%AMFreePoly0*
4,1,18,-0.410000,0.593000,-0.403758,0.624380,-0.385983,0.650983,-0.359380,0.668758,-0.328000,0.675000,0.328000,0.675000,0.359380,0.668758,0.385983,0.650983,0.403758,0.624380,0.410000,0.593000,0.410000,-0.593000,0.403758,-0.624380,0.385983,-0.650983,0.359380,-0.668758,0.328000,-0.675000,0.000000,-0.675000,-0.410000,-0.265000,-0.410000,0.593000,-0.410000,0.593000,$1*%
G04 Aperture macros list end*
%ADD10RoundRect,0.250000X0.475000X-0.250000X0.475000X0.250000X-0.475000X0.250000X-0.475000X-0.250000X0*%
%ADD11RoundRect,0.140000X0.170000X-0.140000X0.170000X0.140000X-0.170000X0.140000X-0.170000X-0.140000X0*%
%ADD12RoundRect,0.140000X0.219203X0.021213X0.021213X0.219203X-0.219203X-0.021213X-0.021213X-0.219203X0*%
%ADD13RoundRect,0.140000X0.140000X0.170000X-0.140000X0.170000X-0.140000X-0.170000X0.140000X-0.170000X0*%
%ADD14RoundRect,0.147500X0.457500X0.147500X-0.457500X0.147500X-0.457500X-0.147500X0.457500X-0.147500X0*%
%ADD15RoundRect,0.250000X-0.262500X-0.450000X0.262500X-0.450000X0.262500X0.450000X-0.262500X0.450000X0*%
%ADD16RoundRect,0.140000X0.021213X-0.219203X0.219203X-0.021213X-0.021213X0.219203X-0.219203X0.021213X0*%
%ADD17RoundRect,0.140000X-0.219203X-0.021213X-0.021213X-0.219203X0.219203X0.021213X0.021213X0.219203X0*%
%ADD18RoundRect,0.150000X0.275000X-0.150000X0.275000X0.150000X-0.275000X0.150000X-0.275000X-0.150000X0*%
%ADD19RoundRect,0.175000X0.225000X-0.175000X0.225000X0.175000X-0.225000X0.175000X-0.225000X-0.175000X0*%
%ADD20RoundRect,0.140000X-0.021213X0.219203X-0.219203X0.021213X0.021213X-0.219203X0.219203X-0.021213X0*%
%ADD21RoundRect,0.225000X0.225000X0.375000X-0.225000X0.375000X-0.225000X-0.375000X0.225000X-0.375000X0*%
%ADD22RoundRect,0.150000X0.150000X-0.512500X0.150000X0.512500X-0.150000X0.512500X-0.150000X-0.512500X0*%
%ADD23RoundRect,0.225000X-0.375000X0.225000X-0.375000X-0.225000X0.375000X-0.225000X0.375000X0.225000X0*%
%ADD24R,1.700000X1.000000*%
%ADD25RoundRect,0.250000X0.450000X-0.262500X0.450000X0.262500X-0.450000X0.262500X-0.450000X-0.262500X0*%
%ADD26RoundRect,0.075000X-0.441942X-0.548008X0.548008X0.441942X0.441942X0.548008X-0.548008X-0.441942X0*%
%ADD27RoundRect,0.075000X0.441942X-0.548008X0.548008X-0.441942X-0.441942X0.548008X-0.548008X0.441942X0*%
%ADD28RoundRect,0.150000X0.587500X0.150000X-0.587500X0.150000X-0.587500X-0.150000X0.587500X-0.150000X0*%
%ADD29RoundRect,0.250000X-0.450000X0.262500X-0.450000X-0.262500X0.450000X-0.262500X0.450000X0.262500X0*%
%ADD30RoundRect,0.200000X1.075000X1.050000X-1.075000X1.050000X-1.075000X-1.050000X1.075000X-1.050000X0*%
%ADD31RoundRect,0.200000X1.075000X1.075000X-1.075000X1.075000X-1.075000X-1.075000X1.075000X-1.075000X0*%
%ADD32RoundRect,0.165200X0.867300X1.084800X-0.867300X1.084800X-0.867300X-1.084800X0.867300X-1.084800X0*%
%ADD33RoundRect,0.137647X0.739853X1.139853X-0.739853X1.139853X-0.739853X-1.139853X0.739853X-1.139853X0*%
%ADD34RoundRect,0.082000X0.593000X-0.328000X0.593000X0.328000X-0.593000X0.328000X-0.593000X-0.328000X0*%
%ADD35FreePoly0,90.000000*%
G04 APERTURE END LIST*
D10*
%TO.C,C120*%
X368150000Y-46770000D03*
X368150000Y-44870000D03*
%TD*%
D11*
%TO.C,C127*%
X331010000Y-40640000D03*
X331010000Y-39680000D03*
%TD*%
D12*
%TO.C,C107*%
X337409411Y-48389411D03*
X336730589Y-47710589D03*
%TD*%
D13*
%TO.C,C112*%
X325420000Y-41070000D03*
X324460000Y-41070000D03*
%TD*%
D12*
%TO.C,C104*%
X340749411Y-47489411D03*
X340070589Y-46810589D03*
%TD*%
D14*
%TO.C,U6*%
X327925000Y-42420000D03*
X327925000Y-43370000D03*
X327925000Y-44320000D03*
X325415000Y-44320000D03*
X325415000Y-42420000D03*
%TD*%
D15*
%TO.C,R7*%
X366077500Y-41973554D03*
X367902500Y-41973554D03*
%TD*%
D16*
%TO.C,C108*%
X348890589Y-54099411D03*
X349569411Y-53420589D03*
%TD*%
D17*
%TO.C,C109*%
X342270589Y-62260589D03*
X342949411Y-62939411D03*
%TD*%
D18*
%TO.C,J1*%
X348305000Y-39200000D03*
X348305000Y-38000000D03*
X348305000Y-36800000D03*
X348305000Y-35600000D03*
D19*
X344530000Y-40350000D03*
X344530000Y-34450000D03*
%TD*%
D20*
%TO.C,C105*%
X334099411Y-55620589D03*
X333420589Y-56299411D03*
%TD*%
D21*
%TO.C,D41*%
X363342500Y-39780000D03*
X360042500Y-39780000D03*
%TD*%
D22*
%TO.C,Q3*%
X363870000Y-44248554D03*
X361970000Y-44248554D03*
X362920000Y-41973554D03*
%TD*%
D23*
%TO.C,D40*%
X372835000Y-42530000D03*
X372835000Y-45830000D03*
%TD*%
D24*
%TO.C,RESET1*%
X381750000Y-29010000D03*
X375450000Y-29010000D03*
X381750000Y-32810000D03*
X375450000Y-32810000D03*
%TD*%
D12*
%TO.C,C106*%
X338109411Y-47689411D03*
X337430589Y-47010589D03*
%TD*%
D25*
%TO.C,R8*%
X370190000Y-46726054D03*
X370190000Y-44901054D03*
%TD*%
D26*
%TO.C,U5*%
X340147638Y-61538962D03*
X339794085Y-61185409D03*
X339440532Y-60831856D03*
X339086978Y-60478302D03*
X338733425Y-60124749D03*
X338379871Y-59771195D03*
X338026318Y-59417642D03*
X337672765Y-59064089D03*
X337319211Y-58710535D03*
X336965658Y-58356982D03*
X336612105Y-58003429D03*
X336258551Y-57649875D03*
X335904998Y-57296322D03*
X335551444Y-56942768D03*
X335197891Y-56589215D03*
X334844338Y-56235662D03*
D27*
X334844338Y-53513300D03*
X335197891Y-53159747D03*
X335551444Y-52806194D03*
X335904998Y-52452640D03*
X336258551Y-52099087D03*
X336612105Y-51745533D03*
X336965658Y-51391980D03*
X337319211Y-51038427D03*
X337672765Y-50684873D03*
X338026318Y-50331320D03*
X338379871Y-49977767D03*
X338733425Y-49624213D03*
X339086978Y-49270660D03*
X339440532Y-48917106D03*
X339794085Y-48563553D03*
X340147638Y-48210000D03*
D26*
X342870000Y-48210000D03*
X343223553Y-48563553D03*
X343577106Y-48917106D03*
X343930660Y-49270660D03*
X344284213Y-49624213D03*
X344637767Y-49977767D03*
X344991320Y-50331320D03*
X345344873Y-50684873D03*
X345698427Y-51038427D03*
X346051980Y-51391980D03*
X346405533Y-51745533D03*
X346759087Y-52099087D03*
X347112640Y-52452640D03*
X347466194Y-52806194D03*
X347819747Y-53159747D03*
X348173300Y-53513300D03*
D27*
X348173300Y-56235662D03*
X347819747Y-56589215D03*
X347466194Y-56942768D03*
X347112640Y-57296322D03*
X346759087Y-57649875D03*
X346405533Y-58003429D03*
X346051980Y-58356982D03*
X345698427Y-58710535D03*
X345344873Y-59064089D03*
X344991320Y-59417642D03*
X344637767Y-59771195D03*
X344284213Y-60124749D03*
X343930660Y-60478302D03*
X343577106Y-60831856D03*
X343223553Y-61185409D03*
X342870000Y-61538962D03*
%TD*%
D13*
%TO.C,C128*%
X334550000Y-42880000D03*
X333590000Y-42880000D03*
%TD*%
D10*
%TO.C,C130*%
X359890000Y-48360000D03*
X359890000Y-46460000D03*
%TD*%
D28*
%TO.C,U3*%
X334467499Y-39687500D03*
X334467499Y-41587500D03*
X332592499Y-40637500D03*
%TD*%
D10*
%TO.C,C121*%
X366090000Y-46770000D03*
X366090000Y-44870000D03*
%TD*%
D20*
%TO.C,C110*%
X340189411Y-62960589D03*
X339510589Y-63639411D03*
%TD*%
D29*
%TO.C,R9*%
X370190000Y-48421054D03*
X370190000Y-50246054D03*
%TD*%
D30*
%TO.C,CH65*%
X239352000Y-72675000D03*
D31*
X241152500Y-73060000D03*
D30*
X226425000Y-75215000D03*
D31*
X227677500Y-72010000D03*
D32*
X227907500Y-75215000D03*
D33*
X228872500Y-71997500D03*
%TD*%
D23*
%TO.C,D69*%
X262910000Y-69105000D03*
X262910000Y-72405000D03*
%TD*%
D34*
%TO.C,LED33*%
X254597500Y-43655000D03*
X254597500Y-45155000D03*
X260047500Y-43655000D03*
D35*
X260047500Y-45155000D03*
%TD*%
D34*
%TO.C,LED65*%
X230785000Y-81755000D03*
X230785000Y-83255000D03*
X236235000Y-81755000D03*
D35*
X236235000Y-83255000D03*
%TD*%
D23*
%TO.C,D68*%
X243860000Y-69105000D03*
X243860000Y-72405000D03*
%TD*%
D13*
%TO.C,C67*%
X266090000Y-81755000D03*
X265130000Y-81755000D03*
%TD*%
D30*
%TO.C,CH34*%
X282214500Y-34575000D03*
D31*
X284015000Y-34960000D03*
D30*
X269287500Y-37115000D03*
D31*
X270540000Y-33910000D03*
D32*
X270770000Y-37115000D03*
D33*
X271735000Y-33897500D03*
%TD*%
D13*
%TO.C,C69*%
X304190000Y-81755000D03*
X303230000Y-81755000D03*
%TD*%
D30*
%TO.C,CH50*%
X248877000Y-53625000D03*
D31*
X250677500Y-54010000D03*
D30*
X235950000Y-56165000D03*
D31*
X237202500Y-52960000D03*
D32*
X237432500Y-56165000D03*
D33*
X238397500Y-52947500D03*
%TD*%
D30*
%TO.C,CH35*%
X301264500Y-34575000D03*
D31*
X303065000Y-34960000D03*
D30*
X288337500Y-37115000D03*
D31*
X289590000Y-33910000D03*
D32*
X289820000Y-37115000D03*
D33*
X290785000Y-33897500D03*
%TD*%
D13*
%TO.C,C32*%
X232752500Y-43655000D03*
X231792500Y-43655000D03*
%TD*%
D34*
%TO.C,LED52*%
X278410000Y-62705000D03*
X278410000Y-64205000D03*
X283860000Y-62705000D03*
D35*
X283860000Y-64205000D03*
%TD*%
D13*
%TO.C,C51*%
X256565000Y-62705000D03*
X255605000Y-62705000D03*
%TD*%
D30*
%TO.C,CH51*%
X267927000Y-53625000D03*
D31*
X269727500Y-54010000D03*
D30*
X255000000Y-56165000D03*
D31*
X256252500Y-52960000D03*
D32*
X256482500Y-56165000D03*
D33*
X257447500Y-52947500D03*
%TD*%
D13*
%TO.C,C35*%
X289902500Y-43655000D03*
X288942500Y-43655000D03*
%TD*%
%TO.C,C52*%
X275615000Y-62705000D03*
X274655000Y-62705000D03*
%TD*%
D30*
%TO.C,CH32*%
X244114500Y-34575000D03*
D31*
X245915000Y-34960000D03*
D30*
X231187500Y-37115000D03*
D31*
X232440000Y-33910000D03*
D32*
X232670000Y-37115000D03*
D33*
X233635000Y-33897500D03*
%TD*%
D23*
%TO.C,D53*%
X253385000Y-50055000D03*
X253385000Y-53355000D03*
%TD*%
D34*
%TO.C,LED66*%
X249835000Y-81755000D03*
X249835000Y-83255000D03*
X255285000Y-81755000D03*
D35*
X255285000Y-83255000D03*
%TD*%
D13*
%TO.C,C65*%
X227990000Y-81755000D03*
X227030000Y-81755000D03*
%TD*%
D30*
%TO.C,CH31*%
X225064500Y-34575000D03*
D31*
X226865000Y-34960000D03*
D30*
X212137500Y-37115000D03*
D31*
X213390000Y-33910000D03*
D32*
X213620000Y-37115000D03*
D33*
X214585000Y-33897500D03*
%TD*%
D30*
%TO.C,CH66*%
X258402000Y-72675000D03*
D31*
X260202500Y-73060000D03*
D30*
X245475000Y-75215000D03*
D31*
X246727500Y-72010000D03*
D32*
X246957500Y-75215000D03*
D33*
X247922500Y-71997500D03*
%TD*%
D30*
%TO.C,CH69*%
X315552000Y-72675000D03*
D31*
X317352500Y-73060000D03*
D30*
X302625000Y-75215000D03*
D31*
X303877500Y-72010000D03*
D32*
X304107500Y-75215000D03*
D33*
X305072500Y-71997500D03*
%TD*%
D30*
%TO.C,CH68*%
X296502000Y-72675000D03*
D31*
X298302500Y-73060000D03*
D30*
X283575000Y-75215000D03*
D31*
X284827500Y-72010000D03*
D32*
X285057500Y-75215000D03*
D33*
X286022500Y-71997500D03*
%TD*%
D30*
%TO.C,CH67*%
X277452000Y-72675000D03*
D31*
X279252500Y-73060000D03*
D30*
X264525000Y-75215000D03*
D31*
X265777500Y-72010000D03*
D32*
X266007500Y-75215000D03*
D33*
X266972500Y-71997500D03*
%TD*%
D30*
%TO.C,CH53*%
X306027000Y-53625000D03*
D31*
X307827500Y-54010000D03*
D30*
X293100000Y-56165000D03*
D31*
X294352500Y-52960000D03*
D32*
X294582500Y-56165000D03*
D33*
X295547500Y-52947500D03*
%TD*%
D23*
%TO.C,D55*%
X291485000Y-50055000D03*
X291485000Y-53355000D03*
%TD*%
D34*
%TO.C,LED69*%
X306985000Y-81755000D03*
X306985000Y-83255000D03*
X312435000Y-81755000D03*
D35*
X312435000Y-83255000D03*
%TD*%
D34*
%TO.C,LED50*%
X240310000Y-62705000D03*
X240310000Y-64205000D03*
X245760000Y-62705000D03*
D35*
X245760000Y-64205000D03*
%TD*%
D23*
%TO.C,D70*%
X281960000Y-69105000D03*
X281960000Y-72405000D03*
%TD*%
%TO.C,D54*%
X272435000Y-50055000D03*
X272435000Y-53355000D03*
%TD*%
D13*
%TO.C,C34*%
X270852500Y-43655000D03*
X269892500Y-43655000D03*
%TD*%
D34*
%TO.C,LED34*%
X273647500Y-43655000D03*
X273647500Y-45155000D03*
X279097500Y-43655000D03*
D35*
X279097500Y-45155000D03*
%TD*%
D13*
%TO.C,C66*%
X247040000Y-81755000D03*
X246080000Y-81755000D03*
%TD*%
D30*
%TO.C,CH33*%
X263164500Y-34575000D03*
D31*
X264965000Y-34960000D03*
D30*
X250237500Y-37115000D03*
D31*
X251490000Y-33910000D03*
D32*
X251720000Y-37115000D03*
D33*
X252685000Y-33897500D03*
%TD*%
D34*
%TO.C,LED68*%
X287935000Y-81755000D03*
X287935000Y-83255000D03*
X293385000Y-81755000D03*
D35*
X293385000Y-83255000D03*
%TD*%
D13*
%TO.C,C33*%
X251802500Y-43655000D03*
X250842500Y-43655000D03*
%TD*%
%TO.C,C68*%
X285140000Y-81755000D03*
X284180000Y-81755000D03*
%TD*%
D34*
%TO.C,LED32*%
X235547500Y-43655000D03*
X235547500Y-45155000D03*
X240997500Y-43655000D03*
D35*
X240997500Y-45155000D03*
%TD*%
D13*
%TO.C,C50*%
X237515000Y-62705000D03*
X236555000Y-62705000D03*
%TD*%
D34*
%TO.C,LED51*%
X259360000Y-62705000D03*
X259360000Y-64205000D03*
X264810000Y-62705000D03*
D35*
X264810000Y-64205000D03*
%TD*%
D34*
%TO.C,LED35*%
X292697500Y-43655000D03*
X292697500Y-45155000D03*
X298147500Y-43655000D03*
D35*
X298147500Y-45155000D03*
%TD*%
D30*
%TO.C,CH52*%
X286977000Y-53625000D03*
D31*
X288777500Y-54010000D03*
D30*
X274050000Y-56165000D03*
D31*
X275302500Y-52960000D03*
D32*
X275532500Y-56165000D03*
D33*
X276497500Y-52947500D03*
%TD*%
D30*
%TO.C,CH49*%
X229827000Y-53625000D03*
D31*
X231627500Y-54010000D03*
D30*
X216900000Y-56165000D03*
D31*
X218152500Y-52960000D03*
D32*
X218382500Y-56165000D03*
D33*
X219347500Y-52947500D03*
%TD*%
D23*
%TO.C,D52*%
X234335000Y-50055000D03*
X234335000Y-53355000D03*
%TD*%
D34*
%TO.C,LED67*%
X268885000Y-81755000D03*
X268885000Y-83255000D03*
X274335000Y-81755000D03*
D35*
X274335000Y-83255000D03*
%TD*%
M02*
