<?xml version="1.0" encoding="UTF-8"?>
<svg id="Layer_2" data-name="Layer 2" xmlns="http://www.w3.org/2000/svg" viewBox="0 0 261.34 281.68">
  <defs>
    <style>
      .cls-1 {
        fill: none;
        stroke: #000;
        stroke-linecap: round;
        stroke-linejoin: round;
        stroke-width: .23px;
      }
    </style>
  </defs>
  <g id="Layer_1-2" data-name="Layer 1">
    <path class="cls-1" d="M261.23,273.56c0,4.42-3.58,8-8,8H7.7s-.41-.04-.41-.04l-.4-.05-.39-.07-.39-.09-.38-.11-.37-.13-.36-.14-.35-.16-.34-.18-.34-.19-.32-.21-.31-.22-.3-.24-.29-.25-.28-.26-.26-.28-.25-.29-.24-.3-.22-.31-.21-.32-.19-.34-.18-.34-.16-.35-.14-.36-.13-.37-.11-.38-.09-.39-.07-.39-.05-.4-.03-.41v-.41S.11,8.11.11,8.11v-.41s.04-.41.04-.41l.05-.4.07-.39.09-.39.11-.38.13-.37.14-.36.16-.35.18-.34.19-.34.21-.32.22-.31.24-.3.25-.29.26-.28.28-.26.29-.25.3-.24.31-.22.32-.21.34-.19.34-.18.35-.16.36-.14.37-.13.38-.11.39-.09.39-.07.4-.05.41-.03h.41s245.11-.01,245.11-.01c4.42,0,8,3.58,8,8v265.45Z"/>
  </g>
</svg>