<?xml version="1.0" encoding="UTF-8"?>
<svg id="Layer_2" data-name="Layer 2" xmlns="http://www.w3.org/2000/svg" viewBox="0 0 562.99 492.39">
  <defs>
    <style>
      .cls-1 {
        fill: none;
        stroke: #000;
        stroke-linecap: round;
        stroke-linejoin: round;
        stroke-width: .23px;
      }
    </style>
  </defs>
  <g id="Layer_2-2" data-name="Layer 2">
    <path class="cls-1" d="M472.38,25.92L388.78.75c-1.4-.42-2.86-.64-4.33-.64h-187.53c-1.31,0-2.61.17-3.87.51L11.24,49.19C4.68,50.94.11,56.89.11,63.68v254.69c0,8.28,6.72,15,15,15h153.38c1.71,0,3.41.29,5.02.87l140.76,50.01c1.4.5,2.71,1.2,3.9,2.08l139.2,103c6.24,4.62,14.97,3.71,20.13-2.09l81.56-91.7c2.44-2.75,3.79-6.29,3.79-9.97V125.64s-12.35,0-12.35,0c-.2,0-.39.11-.49.28-.07.14-.1.31-.19.45-.28.49-.88.77-1.44.68-.53-.08-.98-.48-1.14-.98-.13-.18-.04-3.43-.06-3.71,0-.18-.11-.36-.27-.46-.27-.16-.76-.04-1.06-.1-.6-.07-1.11-.57-1.21-1.16-.13-.65.26-1.25.81-1.56.34-.02.09-6.13.16-6.34h.02c-.02-.13.04-5.95-.02-6.08-.05-.2-.21-.32-.38-.42-.39-.27-.62-.75-.59-1.23.02-.61.47-1.16,1.06-1.3.31-.1.81,0,1.12-.08.18-.07.33-.23.36-.42.05-.29-.04-3.49.05-3.72.11-.48.5-.88.97-1.02.6-.19,1.3.08,1.62.62.1.15.12.34.22.49.1.15.28.24.46.25h12.36"/>
    <path class="cls-1" d="M562.87,99.81v-35.63c0-6.62-4.34-12.46-10.69-14.37l-55.12-16.55-3.61,11.82c-.12.36.15.6.41.78.22.2.37.48.42.78.15.71-.34,1.46-1.04,1.63-.48.25-3.37-.88-3.88-.97-.23-.07-.5.02-.64.23-.16.28-.21.77-.4,1.03-.28.46-.84.73-1.38.66-.61-.07-1.11-.57-1.23-1.16.22-.4-5.88-1.93-6.05-2.08-.25.02-6.02-2.07-6.14-1.68-.47.47-1.22.61-1.8.24-.45-.27-.73-.81-.67-1.34,0-.28.24-.71.25-.99,0-.24-.17-.47-.4-.54-.35-.15-3.45-.92-3.66-1.26-.55-.49-.61-1.41-.13-1.96.22-.26.54-.45.88-.5.31,0,.67-.07.77-.42l3.61-11.82"/>
  </g>
</svg>